<?xml version="1.0" encoding="UTF-8"?>
<svg id="_圖層_2" data-name="圖層_2" xmlns="http://www.w3.org/2000/svg" viewBox="0 0 666.63 81.31">
  <defs>
    <style>
      .cls-1 {
        fill: #727171;
      }

      .cls-2 {
        fill: #fff;
      }

      .cls-2, .cls-3 {
        fill-rule: evenodd;
      }

      .cls-3 {
        fill: #898989;
      }
    </style>
  </defs>
  <g id="_圖層_1-2" data-name="圖層_1">
    <g>
      <g>
        <path class="cls-3" d="M53.71,49.76c7,6.93,15.49,10.58,24.58,10.58,24.76,0,38.27-26.62,38.27-40.31.11-4.24-.7-7.33-2.17-8.33h-.02l-.02-.02c-6.19-4.59-20.12-9.4-36.05-9.1-15.83-.3-29.77,4.51-36.04,9.1-1.49,1.11-2.32,4.22-2.21,8.35,0,7.83,4.27,20.47,13.67,29.74h0ZM78.29,62.88c-9.82,0-19.01-3.94-26.55-11.39-4.46-4.42-8.22-9.93-10.85-15.96-2.43-5.51-3.76-11.16-3.76-15.9-.15-4.85.92-8.46,2.91-9.91C46.95,4.66,61.47-.12,78.29,0c16.86-.12,31.67,4.83,38.28,9.73l-.04-.02c2.04,1.35,3.08,4.86,2.95,9.91,0,4.75-1.34,10.41-3.76,15.92-2.63,6.02-6.39,11.53-10.85,15.96-7.55,7.44-16.75,11.39-26.58,11.39h0ZM38.4,19.6c-.11-4.37.77-7.66,2.39-8.86C47.32,5.97,61.84.96,78.29,1.26c16.58-.29,31.06,4.72,37.51,9.49l.02.02h.02c1.6,1.07,2.49,4.37,2.36,8.84,0,14.28-14.08,42.02-39.91,42.02-9.47,0-18.35-3.81-25.65-11.04-9.78-9.65-14.24-22.83-14.24-30.99h0ZM78.31,64.6h0c5.25.13,11.11-1.14,15.6-3.39,6.06-3.02,11.42-7.02,15.53-12.51,8.73-11.7,13.45-23.84,10.85-36.04-.64-3.04,1.25-5.49,2.01-6.67.66-1.05,4.31-4.66,6.73-5.79.53-.26,1.62.02,1.9.46.15.22.41.59.53.83,1.55,2.52,2.71,10.52,1.93,17.12-1.99,17.08-9.93,30.2-24.65,39.83-.46.3-1,.68-1.33.88-.59.41-1.36,1.01.18.13,15.42-8.77,23.42-20.56,27.08-33.48,1.03-3.65,2.58-6.56,5.25-8.59,1.2-.88,3.26-2.27,4.97-2.71,1.03-.26,2.52-.22,2.14,5.79-1.95,29.04-30.03,41.54-44.23,45.95-.7.18-.15.06.22.02,2.51-.52,3.76-.87,6.12-1.75,13.63-5.07,25.83-10.83,36.37-28.35.87-1.45,1.62-2.43,4.24-3.85,1.53-.83,4.11-1.97,5.97-1.68,1.14.22.99,2.45.63,3.5-9.08,25.96-36.53,34.49-58.73,37.33-.42.04-.57.22,2.86-.07,7.57-.68,19.55-3.37,21.94-3.98,1.38-.35,4.44-1.49,7.06-.66,2.08.66,4.22,1.82,3.79,4.04-.28,1.42-3.39,2.75-4.92,3.28-3.43,1.18-18.79,3.33-40.14,2.97-2.86,2.56-6.95,4.09-9.89,4.11-2.95,0-7.02-1.55-9.89-4.11-21.33.37-36.72-1.79-40.13-2.97-1.53-.53-4.64-1.86-4.92-3.28-.42-2.21,1.71-3.37,3.8-4.04,2.6-.83,5.66.31,7.04.66,2.41.61,14.37,3.3,21.96,3.98,3.41.29,3.26.11,2.84.07C36.8,68.8,9.35,60.27.27,34.31c-.37-1.05-.51-3.28.64-3.5,1.86-.29,4.42.85,5.95,1.68,2.62,1.42,3.37,2.4,4.26,3.85,10.52,17.52,22.73,23.29,36.35,28.35,2.36.88,3.63,1.23,6.13,1.75.35.04.9.17.2-.02-14.19-4.4-42.28-16.91-44.22-45.95-.41-6.01,1.11-6.04,2.12-5.79,1.71.44,3.8,1.82,4.97,2.71,2.67,2.03,4.24,4.94,5.27,8.59,3.65,12.92,11.64,24.71,27.08,33.48,1.55.88.76.28.17-.13-.31-.2-.87-.59-1.33-.88-14.7-9.64-22.64-22.75-24.65-39.83-.77-6.6.41-14.59,1.93-17.12.13-.24.39-.61.53-.83.28-.44,1.36-.72,1.92-.46,2.41,1.12,6.06,4.73,6.72,5.79.74,1.18,2.63,3.63,1.99,6.67-2.6,12.2,2.14,24.34,10.85,36.04,4.11,5.49,9.49,9.49,15.55,12.51,4.5,2.25,10.34,3.52,15.59,3.39h0Z"/>
        <path class="cls-2" d="M80.95,7.14c-.39.07-.74.13-1.12.24-.02.02-.09-.07-.09-.09.26-.79.26-1.58.04-2.36.7.04,1.36.22,1.99.55.24.13.31.41.55.5.5.2.83.57,1.25.88.17.13.26.31.39.48.04.06,0,.11-.06.11-.98-.09-1.9-.5-2.95-.31h0ZM81.21,5.61h-.66v.18h.48v.29l-.48.02v.66h.18v-.48h.29v.48h.68v-.18h-.48v-.29h.48v-.68h-.18v.48h-.29l-.02-.48Z"/>
        <path class="cls-2" d="M72.42,14.91c.09-.13.06-.61.11-.75.11-.26-.15-1.18-.04-1.2.5.48,1.16,1.03,1.6,1.57.13.18.61.7.46.63-.85-.41-1.73-.09-2.14-.24h0ZM73.18,14.01h-.42v.13h.31v.18h-.31v.44h.11v-.31h.2v.31h.42v-.13h-.31v-.18h.33v-.44h-.13v.31h-.2v-.31Z"/>
        <g>
          <path class="cls-2" d="M74.32,17.27c.57-.83.81-1.68.9-2.6.13-1.58-.59-3.08-1.33-4.42.77.2,1.82.74,2.49,0,.42.44.81.92,1.47,1.05.61.09,1.2-.06,1.64-.46.42.35.79.75,1.42.66.41-.05.76-.53,1.01-.35.46.35.85.87,1.46.98.48.07.92.02,1.36-.13.26-.09.59-.41.7-.28,1.9,2.14,2.43,5.08,2.27,7.85-.07,1.14-.31,1.97-.85,2.82-.06.07-.15.07-.15.05-.22-.55-.46-1.07-.85-1.53-.48-.52-.99-.92-1.6-1.27-1.25-.74-2.43-1.36-3.83-1.71-2.23-.55-4.59-.74-6.67.5-.06.04-.2.04-.17-.04.15-.41.46-.72.72-1.12Z"/>
          <path class="cls-2" d="M81.21,19.5c.2-.2.42-.63.64-.53.41.18,1.38.63,1.88,1.2.04.05.06.2-.06.2-1.01.07-2.04.07-3.06-.04.22-.46.35-.57.59-.83Z"/>
          <path class="cls-2" d="M72,20c-.44-.42-1.25-1.01-1.58-1.38-.04-.04.94.17,1.58.44v.94Z"/>
          <path class="cls-2" d="M72,28.18s-.22.02-.24-.02c-.57-1.29-.28-2.76-1.01-4.03-1.57-2.73-3.24-5.12-4.77-7.87-.02-.05.11-.07.15-.04,1.68,1.18,3.06,2.28,4.68,3.52.46.35.72.48,1.2.79v7.65Z"/>
          <path class="cls-2" d="M79.57,25.32c-.18-.07-.31-.13-.5-.24v-.41c-2.21-1.71-4.42-2.91-6.58-4.51l-.04-.96c.87.17,2.1.48,2.97.72,3.96,1.07,7.48,2.01,11.26,3.21.35.11.5.46.68.76.5.81.81,1.62,1.11,2.52.41,1.35.77,4.72.18,7.26-.48,2.03-1.2,3-1.75,4.05-.87,1.62-2.32,2.51-3.04,3.06-.06.04-.11.02-.18.02.76-2.03-.11-4.94-2.58-5.08-.02,0-.02-.07,0-.11,1.82-2.16,1.92-5.18,1.73-7.88.02-.37-2.12-2.3-3.26-2.76v.37Z"/>
          <path class="cls-2" d="M79.87,38.11c.64.87,3.45,3.63,5.45,4.94,0,0-.15.2-.17.2-2.06-.98-4.14-2.62-5.29-3.92v-1.22Z"/>
          <path class="cls-2" d="M75.04,32.52c.57.77,2.32,2.82,3.61,4.31v1.22c-1.16-1.12-2.84-3.39-3.61-4.4v-1.12Z"/>
          <path class="cls-2" d="M70.91,42.66c.11.26.24,1.01.2,1.09-.2.37-.74-.35-.96-.72-.53-.83-.68-1.77-1.12-2.6-.28-.63-.07-.77.22-1.09h6.14c.31,0,.55.24.55.52,0,.31-.39.44-.63.44h-4.51c-.41,0-.15.46,0,.46h1.97c.26,0,.42.15.41.24-.02.07-.13.18-.39.17-.15-.02-1.4,0-1.95,0-.24,0-.26.44.06.44.55,0,1.22-.02,1.42-.02.24,0,.35.09.33.16,0,.09-.11.24-.33.24-.15,0-.83.02-1.4.02-.2,0,0,.64,0,.64Z"/>
          <path class="cls-2" d="M90.42,45.7c-.26.17-.48.31-.72.46-.06.02-.11-.02-.11-.05.13-.44.87-.41,1.44-3.02.31-1.46-.17-2.16-.29-2.06-1.05.72-2.03,1.33-3.17,1.75-.11.04-.37.07-.35-.02.2-.68.55-1.34.37-2.08-.09-.35-.63-.48-.55-.81.06-.17.33-.28.46-.44,1.01-1.18,1.62-2.47,1.93-4,.37-1.66.41-3.3-.18-4.9-.06-.16-.07-.5.06-.53.24-.05.92.24,1.51.53.37.17.74.35.99.74.2.29.31.61.33.94.26,2.4.22,4.77-.26,7.13.37.35,1,.52,1.05,1,.29,2.1-.72,4.09-2.51,5.38Z"/>
          <path class="cls-2" d="M91.24,26.22c-.76-1.75-1.64-3.37-3-4.77-.07-.06-.02-.41.02-.66.2-1.12.13-2.32-.11-3.43.79-.04,1.64.26,2.01.98,1.31,2.62,1.92,5.47,1.75,8.36-.02.28.06.63-.18.88-.24-.42-.28-.92-.48-1.36Z"/>
          <path class="cls-2" d="M72.46,20.75c.63.53,1.66,1.14,2.34,1.62,1.47,1.03,2.76,1.88,4.22,2.91,1.09.77,2.12,1.4,3.02,2.3.5,1.49.13,3.19-.42,4.62-.53,1.49-1.25,2.95-2.6,3.98-.04.04-.11-.02-.09-.05.22-.61.02-1.18-.39-1.64-1.84-2.08-4.09-4.03-6.08-5.86v-7.88Z"/>
          <path class="cls-2" d="M77.42,47.12c.42-.18.39-.46-.07-.37-2.97.64-6.34-1.22-7.74-4.09-.85-2.23-3.41-4.33-5.78-2.75-.61.39-.98,1-1.05,1.64-.07.72.39,1.46,1.12,1.73.74.26,1.68.28,2.1-.46.09-.13.15-.31-.07-.24-.64.26-1.46-.31-1.27-.92.22-.79,1.29-.92,1.99-.44.72.5,1.46,1.33.74,2.25-1.55,1.95-3.46-.15-6.34,1.71-2.45,1.6-3.98,2.43-7,1.53-1.07.04,1.2.88,2.19,1.07,2.91.54,4.72-1.03,8.05-1.86,1.64-.39,3.43-.81,4.94,0,2.63,1.42,7.5,1.51,8.2,1.2Z"/>
          <path class="cls-2" d="M79.35,46.86c.66,0,1.14.17,1.55.65.22.28.06.44-.07.46-.37.09-.74.09-1.11,0-1.01-.22-2.03-.18-3-.46,0,0-1.95-.28-1.51.5.57.28,1.09-.2,1.66-.09,1.11.24,1.97.81,3.06,1.05.33.09.55.2,1.11,0,1.25-.48,2.12-.81,3.33-.22.24.13.53-.44-.88-.79-.96-.24-1.95-1.69-3.46-1.55-1.03.11-.87.46-.66.46Z"/>
          <path class="cls-2" d="M79.79,46.05c-.59-.31-1.42.46-2.01.24-.59-.22-1.58-1.01-1.86-1.86-.85-2.69-2.39-2.71-3.43-2.06-.48.31-.37.7-.22.74.24.09.22-.09.72-.24.94-.26,1.66.81,2.52,2.3.52.9,1.71,1.4,3.26,1.38.48-.04,1.23-.39,1.01-.5Z"/>
          <path class="cls-2" d="M65.85,48.98c-1.14.48-2.84-.11-3.21-.26-1.03-.37-.94-.55-.74-.61.85-.18,1.77.02,2.63-.31.99-.39,1.99-1.09,3.04-1.22,1.53-.18,3.04.37,3.87,1.7.17.29-.81,0-1.2-.06-.79-.15-2.82.09-4.4.76Z"/>
          <path class="cls-2" d="M57.08,46.08c-1.44.37-3.32.11-4.15-.41-.18-.11-.37-.24-.46-.44-.04-.09.04-.18.09-.17,2.32.52,4.61.24,6.82-.29.22-.09.42.07.07.35-.68.55-1.51.75-2.38.96Z"/>
          <path class="cls-2" d="M69.7,49.75c-1.2.06-2.25.72-3.48.61-.39-.02-.04-.2,0-.22,1.23-.44,2.36-1,3.68-1.25,1.11-.22,2.17-.29,3.3-.02.88.2,1.68.52,2.49,1.03.39.24.85.55,1.25.35.22-.11.41-.29.66-.2.57.22.31.42,1.68.77.46.11.88.15,1.35.33.41.17.04.29.02.31-3.21.63-5.79-1.16-8.82-1.75-.74-.15-1.4,0-2.12.04Z"/>
          <path class="cls-2" d="M85.16,51.65c1.47.35,2.98.28,4.51.06.13-.02.11.22.07.22-2.45.96-7.59.31-8.03.02-.68-.46,3.45-.29,3.45-.29Z"/>
          <path class="cls-2" d="M82.39,51.04c-.74-.11-2.36-.37-1.6-.7,1.05-.46,1.71.13,2.82-.28.59-.22,1.14-.55,1.75-.63,1.31-.15,2.51.41,3.76.77.96.28,1.77-.04,2.75.37.57.24.85.41-1.36.68-1.84.22-5.99.11-8.11-.22Z"/>
          <path class="cls-2" d="M91.27,48.15c-.81-.41-2.19.39-2.51.46-.66.18-.55-.35-.35-.44.4-.18.64-.63,1.69-.33.5.13.76-.55,1.47-.28,1.53.61,3.15,1.46,4.72.77.37-.17-.04-.18.02-.5.11-.53.42-.85,1.23-.87.46,0,1.01.46,1.44.57.5.09.83-.35,1.05-.05.26.35-.2.64-.63.66-.77.04-1.29-.41-2.01-.39-.24.02-.52.18-.7.35-.22.22.18.26.24.44.07.29-.06.55-.29.7-1.25.81-2.62.26-5.38-1.11Z"/>
          <polygon class="cls-2" points="72 18.67 72.11 12.85 72.26 12.85 72.46 18.85 72 18.67"/>
          <polygon class="cls-2" points="79.57 20.72 79.57 18.1 79.08 17.95 79.08 20.59 79.57 20.72"/>
          <path class="cls-2" d="M72.22,31.95c-.13,0-.22-.09-.22-.22v-2.65c0-.11.09-.2.22-.2h0c.11,0,.22.09.22.2v2.65c0,.13-.11.22-.22.22h0Z"/>
          <path class="cls-2" d="M79.3,38.77c.17,0,.28-.13.28-.28v-2.06c0-.16-.11-.28-.28-.28h0c-.15,0-.28.11-.28.28v2.06c0,.15.13.28.28.28h0Z"/>
          <path class="cls-2" d="M76.31,9.85l2.84-1.66.15-3.48h.17l.07,3.44,2.71,2.47,3.28.42-.04.22-12.97-1.68.04-.22,3.76.48h0ZM79.04,10.19l.11-1.75-2.52,1.46,2.41.29h0ZM79.59,10.27l2.3.29-2.36-2.17.06,1.88Z"/>
          <path class="cls-2" d="M70.97,33.35v1.22c0,.15-.13.26-.28.26h0c-.15,0-.26-.11-.26-.26v-1.79h0c0-.15.11-.26.26-.26h3.76c.15,0,.26.11.26.26h0c0,.15-.11.26-.26.26h-3.3c-.22,0-.18.15-.18.31Z"/>
          <path class="cls-2" d="M70.34,35.79v1.03c0,.15-.13.28-.28.28h0c-.15,0-.26-.13-.26-.28v-1.59h0c0-.15.11-.28.26-.28h4.62c.15,0,.26.13.26.28h0c0,.15-.11.26-.26.26h-4.16c-.22,0-.18.13-.18.29Z"/>
          <path class="cls-2" d="M69.74,38v1.03c0,.15-.11.28-.26.28h0c-.15,0-.26-.13-.26-.28v-1.03l-.02-.55h0c0-.15.13-.28.28-.28h5.62c.15,0,.28.13.28.28h0c0,.15-.13.26-.28.26h-5.16c-.24,0-.2.13-.2.29Z"/>
          <path class="cls-2" d="M72.31,34.35c.18,0,.33-.15.33-.33v-.04c0-.16-.15-.31-.33-.31h-.68c-.18,0-.33.15-.33.31v.04c0,.18.15.33.33.33h.68Z"/>
          <path class="cls-2" d="M73.95,34.35c.18,0,.33-.15.33-.33v-.04c0-.16-.15-.31-.33-.31h-.66c-.18,0-.33.15-.33.31v.04c0,.18.15.33.33.33h.66Z"/>
          <path class="cls-2" d="M71.91,36.65c.17,0,.31-.15.31-.33v-.04c0-.17-.15-.31-.31-.31h-.7c-.17,0-.31.15-.31.31v.04c0,.18.15.33.31.33h.7Z"/>
          <path class="cls-2" d="M73.95,36.65c.18,0,.33-.15.33-.33v-.04c0-.17-.15-.31-.33-.31h-.66c-.18,0-.33.15-.33.31v.04c0,.18.15.33.33.33h.66Z"/>
          <path class="cls-2" d="M71.54,38.77c.17,0,.31-.15.31-.33v-.04c0-.17-.15-.31-.31-.31h-.7c-.17,0-.31.15-.31.31v.04c0,.18.15.33.31.33h.7Z"/>
          <path class="cls-2" d="M74.05,38.77c.18,0,.33-.15.33-.33v-.04c0-.17-.15-.31-.33-.31h-.66c-.18,0-.33.15-.33.31v.04c0,.18.15.33.33.33h.66Z"/>
          <path class="cls-2" d="M75.3,35.01c.94,1.29,5.71,7.35,9.87,8.71,1.09.35,2.1.9,3.65.02l-.28,1.11c-1.14.52-2.51.15-3.57-.13-1.66-.44-5.8-3.1-9.67-8.42v-1.29Z"/>
          <path class="cls-2" d="M75.67,37.39c.96,1.29,5.03,6.43,9.19,7.79,1.09.35,2.34.55,3.65.02l-.24,1c-1,.5-2.51.13-3.59-.17-1.64-.42-5.14-2.03-8.99-7.35l-.02-1.29Z"/>
          <path class="cls-2" d="M88.49,46.56c-1.2.37-2.32.11-3.35-.04-3.33-.42-8.01-5.08-8.95-6.38v3.28c4.13,1.38,6.41,3.7,9.03,4.16,1.09.18,2.17.48,3.32-.04l.28-1.11c-.11.04.83-4.35.72-4.31,0,0-.09-.41-.17.04-.07.44-.87,4.39-.87,4.39Z"/>
        </g>
        <g>
          <g>
            <g>
              <path class="cls-2" d="M97.74,27.37c-.04.17-.11.35-.2.44-.53.46-.81,1.05-1.35,1.51-.07.07-.22.11-.29.06-.46-.39-.66-1.03-.35-1.51.59-.87,1.27-1.51,2.05-2.21.13-.11.2-.3.31-.42.07-.07.24-.02.29.04.17.18,0,.42-.06.64-.02.13.07.26.07.39,0,.41-.39.66-.48,1.07Z"/>
              <path class="cls-2" d="M96.67,23.94c-.33.18-.55.57-.94.59-.5.02-.94.13-1.46.26-.24.06-.48-.05-.57-.24-.15-.31-.04-.72.2-.88.94-.64,1.93-.99,3.04-.61.15.05.28.15.28.28-.02.31-.28.46-.55.61Z"/>
              <path class="cls-2" d="M97.55,21.21c-.87-.11-1.6-.57-2.28-1.11.61-.53,1.49-.5,2.23-.31.53.11,1.31.57,1.03,1.23-.17.37-.61.24-.98.18Z"/>
            </g>
            <path class="cls-2" d="M105.61,21.12c-.24.33-.55.57-.7.92-.17.39-.13.81-.33,1.22-.17.33-.04.74-.07,1.11-.04.24-.46.7-.24.74.81.15,1.75.18,2.63.13.26,0,.26-.41.07-.52-.68-.42-1.42-1.09-1.23-1.71.18-.72,1.33-1.88,2.01-1.42.17.11,0,.31.11.5.2.33.65.68,1.03.9,1.12.65,2.08,1.55,3.45,1.6.09,0,.24.11.24.17,0,.5-.46.85-1,.74-.5-.13-.98-.26-1.44-.48-.59-.26-.88-.88-1.51-1.1-.99,1.82-.28,3.85-.46,5.8-.02.22-.31.39-.52.29-.68-.24-.66-1.01-.72-1.66-1.64-.53-3.35-.41-5.05-.24-.28.02-.33.35-.37.53-.11.53-.2,1.29-.79,1.2-.39-.05-.7-.61-.59-.88.7-1.66,1.14-3.61.09-5.07-.33-.46-1.07.18-1.71.11-.22-.04-.37-.22-.28-.42.11-.28.37-.52.64-.52,1.35.05,2.19-.96,3.33-1.49.17-.09.37-.11.5.02.22.2-.06.53-.02.7.13.54.37,1.05.18,1.57-.17.44-.66.59-.98.92-.09.11-.02.42.04.44.66.11,1.33-.07,2.01-.15-.06-.13-.02-.29-.07-.39-.59-.77-.18-1.81-.29-2.63-.09-.63-.44-1.33-.9-1.62-.66-.46-1.69.04-2.51-.24-.59-.2.04-.92.41-1.09.83-.39,1.77-.2,2.65-.22.35,0,.41-.63.81-.7.39-.07.7-.29,1.07-.22.5.13,0,.9.31,1.03,1.22.46,2.56.22,3.91.46.18.04.42.17.33.48-.02.07-.07.15-.15.16-1.31.37-2.97-.35-3.91,1.03h0ZM103.76,26.1c-.61.13-1.7.15-1.97.28-.17.15-.28.5-.2.85,1.66-.44,3.43,0,5.1-.13.31-.02.22-.83-.18-.83-.92,0-1.81-.39-2.75-.16h0ZM107.82,23.28c.07-.05.15-.17.09-.26-.13-.26-.52-.29-.63-.37-.07-.04-.35.18-.48.41-.06.13-.15.11-.09.2.17.31.35.79.52.83.24.06.35-.57.59-.81h0ZM104.56,20.68c.15-.07.26-.2.26-.33-.04-.28-.35-.15-.5-.15-.79-.04-.29.66,0,.72.07,0,.13-.18.24-.24h0ZM101.94,23.35c.11-.17.28-.46.11-.53-.31-.15-.79.24-.76.57.04.15.15.41.29.37.13-.02.24-.24.35-.41Z"/>
          </g>
          <g>
            <path class="cls-2" d="M53.38,27.13c.31-.18.17-.74.04-1.03-.13-.29-.57-.41-.79-.37-.26.06-.26.55-.28.87-.04.52.63.76,1.03.53Z"/>
            <path class="cls-2" d="M49.71,26.1c-.15.02-.53.31-.68.57-.13.24-.37.75.02.88.17.07.37,0,.55.04.15.04.22.2.39.22,2.52.37,4.44,2.06,6.85,2.82.68.2,1.42.15,2.14.11.17,0,.2-.24.37-.29.44-.15.88-.33,1.12-.7.41-.64.85-1.18,1.22-1.84.09-.18.02-.5-.09-.37-.87.94-2.16,1.2-3.32,1.22-2.36.06-4.72-.41-6.87-1.46-.68-.33-1-1.31-1.69-1.2Z"/>
            <path class="cls-2" d="M48.22,26.22c-.02-.09-.2-.07-.24-.04-.55.66-1.47.85-1.86,1.64-.15.31-.42.72-.07,1.05.33.33.83.18.96-.22.16-.52.52-.85.79-1.31.22-.37.55-.7.42-1.12Z"/>
            <path class="cls-2" d="M56.34,26.78c.31.07.59-.11.7-.37.06-.15-.02-.33-.11-.41-.39-.35-.99-.52-1.38-.35-.37.15-.07.53.31.7.18.07.24.35.48.42Z"/>
            <path class="cls-2" d="M49.51,20.11c-.79.09-1.62.09-2.34.44-.33.17-1.07-.2-.94-.74.15-.61.9-.87,1.46-.83.74.02,2.27.02,2.4-.18.37-.5.39-1.71,1.18-1.33.46.24.04,1.31.31,1.36.68.13,1.64.13,2.01.07.35-.04.7-.79.72-1.16.07-.98,1.16-.87,1.92-.85.28.85-1.01,1.09-1.12,1.82-.02.13.13.37.33.39,1.31.15,2.6.17,3.92.31.09,0,.26.18.18.37-.15.37-.55.5-.88.53-1.14.11-2.25-.22-3.37-.2-.09.02-.18.13-.13.17.53.42,1.16.7,1.31,1.38.17.63-.64.7-.68,1.18-.02.44.85.61.57,1.22-.61,1.34-2.27,1.4-3.41.72-.2-.13-.15-.42-.18-.64-.09-.5.59-.88.52-1.33-.06-.29-.53-.59-.46-.94.09-.53.72-.68,1.05-1.1.17-.2.2-.63-.07-.59-1.47.17-2.84-.26-4.27-.07h0ZM54.7,22.19c.17-.06.33-.09.48-.18.33-.24.04-.63-.06-.64-.41-.09-.77.31-1.22.37.13.29.46.61.79.46h0ZM54.31,23.63c-.2.05-.46.2-.41.29.2.31.64.18.96.02.15-.09.17-.48-.09-.52-.15-.02-.28.17-.46.2Z"/>
            <path class="cls-2" d="M49.69,20.92c.17-.13.29-.41.5-.29.33.2.72.02.99.24.39.29,1.01.48,1.01.99.02.57-.74.65-.81,1.05-.09.42.64.55.88.94.37.57-.35,1.01-.81,1.16-.92.29-2.03.35-2.82-.37-.7-.61-.09-1.46.59-1.75-.55-.28-1.31-.88-.9-1.38.26-.33.98-.18,1.36-.59h0ZM50.19,22.24c.33-.07.92-.41.55-.74-.4-.39-1.22-.02-1.38.39-.11.24.48.42.83.35h0ZM50.72,24.03c.18-.2.09-.63-.15-.72-.24-.09-.53.13-.63.39-.15.41.59.55.77.33Z"/>
          </g>
        </g>
      </g>
      <path class="cls-1" d="M181.24,56.66l.17,3.6h-.43c-.08-.63-.19-1.09-.34-1.36-.23-.44-.54-.76-.93-.97-.39-.21-.9-.31-1.53-.31h-2.16v11.73c0,.94.1,1.53.31,1.77.29.32.73.48,1.33.48h.53v.42h-6.51v-.42h.54c.65,0,1.11-.2,1.38-.59.17-.24.25-.79.25-1.65v-11.73h-1.85c-.71,0-1.23.05-1.53.16-.39.14-.73.42-1.01.83-.28.41-.44.96-.5,1.65h-.43l.18-3.6h12.53Z"/>
      <path class="cls-1" d="M192.88,68.84l-.13,3.18h-9.15v-.41l6.88-9.17h-3.4c-.73,0-1.21.05-1.44.14-.22.1-.41.28-.55.54-.2.38-.32.85-.35,1.41h-.45l.07-2.88h8.69v.42l-6.95,9.19h3.78c.79,0,1.33-.07,1.62-.2.28-.13.51-.36.68-.7.12-.24.22-.75.31-1.53h.39Z"/>
      <path class="cls-1" d="M204.41,61.64v6.28c0,1.2.03,1.94.08,2.2.06.27.15.46.27.56.13.11.27.16.44.16.24,0,.5-.06.79-.19l.16.4-3.1,1.28h-.51v-2.2c-.89.97-1.57,1.57-2.04,1.82-.47.25-.96.37-1.48.37-.58,0-1.09-.17-1.52-.5-.42-.34-.72-.77-.89-1.3-.17-.53-.25-1.28-.25-2.24v-4.63c0-.49-.05-.83-.16-1.02-.1-.19-.26-.33-.47-.44-.2-.1-.58-.15-1.12-.14v-.42h3.63v6.94c0,.97.17,1.6.51,1.9.34.31.74.46,1.22.46.32,0,.69-.1,1.1-.3.41-.2.9-.6,1.47-1.17v-5.88c0-.59-.11-.99-.32-1.19-.22-.21-.66-.32-1.34-.33v-.42h3.53Z"/>
      <path class="cls-1" d="M225.94,56.32l.35,5.22h-.35c-.47-1.56-1.14-2.69-2-3.37-.87-.69-1.91-1.03-3.13-1.03-1.02,0-1.94.26-2.76.78-.82.52-1.47,1.34-1.94,2.47-.47,1.13-.71,2.54-.71,4.22,0,1.39.22,2.59.67,3.61.44,1.02,1.11,1.8,2.01,2.34.89.54,1.91.82,3.06.82,1,0,1.87-.21,2.64-.64.76-.42,1.6-1.27,2.51-2.54l.35.22c-.77,1.37-1.67,2.37-2.69,3-1.03.63-2.24.95-3.66.95-2.54,0-4.51-.94-5.91-2.83-1.04-1.4-1.56-3.06-1.56-4.96,0-1.53.34-2.94,1.03-4.22.69-1.28,1.63-2.28,2.84-2.98,1.21-.7,2.52-1.06,3.95-1.06,1.11,0,2.21.27,3.28.81.32.17.54.25.68.25.2,0,.38-.07.53-.22.2-.2.34-.49.42-.85h.39Z"/>
      <path class="cls-1" d="M232.38,55.92v7.58c.83-.92,1.5-1.51,1.99-1.77.49-.26.98-.39,1.47-.39.59,0,1.09.16,1.52.49.42.32.73.83.94,1.53.14.48.21,1.36.21,2.65v3.67c0,.65.05,1.11.16,1.34.07.18.2.33.38.43.18.1.51.16,1,.16v.41h-5.09v-.41h.24c.48,0,.82-.08,1.01-.22.19-.15.32-.36.39-.65.02-.12.03-.48.03-1.06v-3.67c0-1.13-.06-1.87-.17-2.23-.12-.36-.31-.62-.56-.8-.26-.18-.57-.27-.93-.27s-.75.1-1.15.29c-.4.2-.88.59-1.44,1.19v5.48c0,.71.04,1.15.12,1.32.08.17.23.32.44.44.21.12.58.18,1.11.18v.41h-5.14v-.41c.46,0,.82-.07,1.09-.22.15-.08.27-.22.36-.43.09-.21.14-.64.14-1.29v-9.39c0-1.19-.03-1.91-.08-2.19-.05-.27-.14-.46-.26-.55-.12-.1-.27-.15-.47-.15-.16,0-.41.06-.77.18l-.16-.4,3.1-1.27h.52Z"/>
      <path class="cls-1" d="M244.72,55.92c.32,0,.59.11.81.33.22.22.33.5.33.81s-.11.59-.33.82c-.22.22-.49.34-.81.34s-.59-.12-.81-.34c-.22-.23-.34-.5-.34-.82s.11-.59.34-.81c.22-.22.49-.33.82-.33h0ZM245.66,61.34v8.33c0,.65.05,1.08.14,1.29.09.22.23.37.42.48.19.1.53.16,1.02.16v.41h-5.04v-.41c.51,0,.85-.05,1.02-.15.17-.1.31-.26.41-.49.1-.22.15-.66.15-1.3v-4c0-1.12-.03-1.85-.1-2.18-.05-.24-.14-.41-.25-.5-.11-.1-.27-.14-.46-.14-.21,0-.47.06-.77.17l-.16-.41,3.12-1.27h.5Z"/>
      <path class="cls-1" d="M267.55,56.32l.35,5.22h-.35c-.47-1.56-1.14-2.69-2-3.37-.87-.69-1.91-1.03-3.13-1.03-1.02,0-1.94.26-2.76.78-.82.52-1.47,1.34-1.94,2.47-.47,1.13-.71,2.54-.71,4.22,0,1.39.22,2.59.67,3.61.44,1.02,1.11,1.8,2.01,2.34.89.54,1.91.82,3.06.82,1,0,1.87-.21,2.64-.64.76-.42,1.6-1.27,2.51-2.54l.35.22c-.77,1.37-1.67,2.37-2.69,3-1.03.63-2.24.95-3.66.95-2.54,0-4.51-.94-5.91-2.83-1.04-1.4-1.56-3.06-1.56-4.96,0-1.53.34-2.94,1.03-4.22.69-1.28,1.63-2.28,2.84-2.98,1.21-.7,2.52-1.06,3.95-1.06,1.11,0,2.21.27,3.28.81.32.17.54.25.68.25.2,0,.38-.07.53-.22.2-.2.34-.49.42-.85h.39Z"/>
      <path class="cls-1" d="M280.03,61.64v6.28c0,1.2.03,1.94.08,2.2.06.27.15.46.27.56.13.11.27.16.44.16.24,0,.5-.06.79-.19l.16.4-3.1,1.28h-.51v-2.2c-.89.97-1.57,1.57-2.04,1.82-.47.25-.96.37-1.48.37-.58,0-1.09-.17-1.52-.5-.42-.34-.72-.77-.89-1.3-.17-.53-.25-1.28-.25-2.24v-4.63c0-.49-.05-.83-.16-1.02-.1-.19-.26-.33-.47-.44-.2-.1-.58-.15-1.12-.14v-.42h3.63v6.94c0,.97.17,1.6.51,1.9.34.31.74.46,1.22.46.33,0,.69-.1,1.1-.3.41-.2.9-.6,1.47-1.17v-5.88c0-.59-.11-.99-.32-1.19-.22-.21-.66-.32-1.34-.33v-.42h3.53Z"/>
      <path class="cls-1" d="M287.26,55.92v13.76c0,.65.05,1.08.14,1.29.09.21.24.37.44.48.2.11.56.17,1.1.17v.41h-5.08v-.41c.48,0,.8-.05.97-.15.17-.1.31-.26.41-.49.1-.22.15-.66.15-1.3v-9.42c0-1.17-.03-1.89-.08-2.16-.05-.27-.14-.45-.25-.55-.12-.1-.27-.15-.45-.15-.2,0-.44.06-.75.18l-.19-.4,3.09-1.27h.51Z"/>
      <path class="cls-1" d="M294.31,58.24v3.4h2.42v.79h-2.42v6.73c0,.67.1,1.12.29,1.36.19.24.44.35.74.35.25,0,.49-.08.73-.23.23-.16.41-.38.54-.68h.44c-.27.74-.64,1.29-1.12,1.67-.48.37-.98.56-1.5.56-.35,0-.69-.1-1.02-.29-.33-.19-.58-.47-.73-.83-.16-.36-.24-.91-.24-1.66v-6.98h-1.64v-.37c.41-.17.84-.45,1.27-.84.43-.4.82-.87,1.16-1.41.17-.29.42-.81.73-1.57h.35Z"/>
      <path class="cls-1" d="M307.99,61.64v6.28c0,1.2.03,1.94.08,2.2.06.27.15.46.27.56.13.11.27.16.44.16.24,0,.5-.06.79-.19l.16.4-3.1,1.28h-.51v-2.2c-.89.97-1.57,1.57-2.04,1.82-.47.25-.96.37-1.48.37-.58,0-1.09-.17-1.52-.5-.42-.34-.72-.77-.89-1.3-.17-.53-.25-1.28-.25-2.24v-4.63c0-.49-.05-.83-.16-1.02-.1-.19-.26-.33-.47-.44-.2-.1-.58-.15-1.12-.14v-.42h3.63v6.94c0,.97.17,1.6.51,1.9.34.31.74.46,1.22.46.33,0,.69-.1,1.1-.3.41-.2.9-.6,1.47-1.17v-5.88c0-.59-.11-.99-.32-1.19-.22-.21-.66-.32-1.34-.33v-.42h3.53Z"/>
      <path class="cls-1" d="M314.69,61.34v2.33c.87-1.56,1.76-2.33,2.67-2.33.41,0,.76.13,1.03.38.27.25.41.55.41.88,0,.3-.1.54-.29.75-.2.2-.43.3-.7.3s-.56-.13-.89-.39c-.33-.26-.57-.39-.73-.39-.14,0-.28.07-.44.22-.34.31-.69.82-1.05,1.53v4.97c0,.57.07,1.01.21,1.3.1.2.27.37.52.51.25.14.61.21,1.07.21v.41h-5.31v-.41c.53,0,.92-.09,1.18-.25.19-.12.32-.31.4-.58.03-.13.05-.49.05-1.1v-4.02c0-1.21-.02-1.92-.07-2.16-.05-.23-.14-.4-.27-.5-.13-.1-.3-.16-.49-.16-.23,0-.49.06-.79.17l-.11-.41,3.14-1.27h.48Z"/>
      <path class="cls-1" d="M322.28,65.55c0,1.54.36,2.75,1.12,3.62.75.87,1.64,1.31,2.66,1.31.68,0,1.27-.19,1.77-.56.5-.37.92-1.01,1.26-1.92l.35.22c-.16,1.04-.62,1.98-1.38,2.83-.77.85-1.72,1.28-2.86,1.28-1.25,0-2.31-.48-3.2-1.45-.89-.97-1.33-2.28-1.33-3.91,0-1.77.45-3.16,1.36-4.15.91-.99,2.05-1.49,3.42-1.49,1.16,0,2.12.38,2.86,1.15.75.77,1.12,1.79,1.12,3.07h-7.16ZM322.28,64.89h4.8c-.04-.67-.12-1.13-.24-1.4-.19-.42-.47-.75-.84-1-.38-.24-.77-.36-1.17-.36-.63,0-1.19.24-1.68.73-.49.49-.78,1.17-.87,2.03Z"/>
      <path class="cls-1" d="M342.49,70.52c-1.06.82-1.73,1.3-2.01,1.43-.41.19-.84.29-1.3.29-.72,0-1.31-.25-1.77-.74-.46-.49-.7-1.14-.7-1.94,0-.51.11-.94.34-1.31.31-.51.85-.99,1.61-1.45.77-.45,2.04-1,3.82-1.65v-.41c0-1.03-.16-1.74-.49-2.13-.33-.38-.81-.58-1.43-.58-.48,0-.85.13-1.13.39-.29.25-.43.55-.43.88l.02.66c0,.35-.09.62-.27.8-.18.19-.41.28-.7.28s-.51-.1-.69-.29c-.18-.2-.27-.46-.27-.8,0-.65.33-1.24,1-1.79.66-.54,1.6-.81,2.8-.81.92,0,1.67.15,2.26.46.44.24.77.6.99,1.1.14.32.2.99.2,1.99v3.52c0,.99.02,1.6.06,1.82.04.22.1.37.19.44.09.08.19.12.3.12.12,0,.23-.03.32-.08.16-.1.46-.37.92-.83v.63c-.84,1.13-1.65,1.7-2.42,1.7-.37,0-.66-.13-.88-.39-.22-.25-.33-.7-.34-1.31h0ZM342.49,69.79v-3.95c-1.14.46-1.87.78-2.21.96-.6.33-1.02.68-1.28,1.04-.26.36-.39.76-.39,1.19,0,.54.16.99.49,1.35.32.36.7.54,1.12.54.58,0,1.33-.38,2.26-1.13Z"/>
      <path class="cls-1" d="M351.09,63.54c1.21-1.46,2.37-2.2,3.47-2.2.57,0,1.05.14,1.46.42.41.28.73.75.97,1.4.17.45.25,1.15.25,2.08v4.43c0,.65.05,1.1.16,1.33.08.19.22.34.4.44.18.1.53.16,1.02.16v.41h-5.13v-.41h.22c.48,0,.82-.08,1.01-.22.19-.15.33-.36.4-.65.03-.11.05-.47.05-1.06v-4.25c0-.94-.12-1.63-.37-2.06-.25-.42-.66-.64-1.24-.64-.9,0-1.79.49-2.68,1.47v5.47c0,.7.04,1.13.12,1.3.1.22.25.38.44.48.19.1.56.15,1.12.15v.41h-5.13v-.41h.23c.53,0,.89-.14,1.07-.4.18-.27.27-.78.27-1.53v-3.85c0-1.25-.03-2-.09-2.27-.05-.27-.14-.46-.26-.56s-.27-.15-.47-.15c-.21,0-.46.06-.76.17l-.17-.41,3.13-1.27h.49v2.2Z"/>
      <path class="cls-1" d="M368.14,70.85c-.51.53-1,.91-1.48,1.14-.48.23-1,.34-1.56.34-1.13,0-2.12-.48-2.97-1.42-.84-.95-1.27-2.16-1.27-3.65s.47-2.85,1.41-4.08c.94-1.23,2.14-1.85,3.61-1.85.91,0,1.67.29,2.26.87v-1.91c0-1.19-.03-1.91-.08-2.19-.06-.27-.15-.46-.27-.55-.12-.1-.27-.15-.45-.15-.2,0-.46.06-.78.18l-.15-.4,3.09-1.27h.51v11.99c0,1.21.03,1.96.08,2.22.06.27.15.46.27.56.12.11.27.16.43.16.2,0,.48-.06.82-.19l.13.4-3.08,1.28h-.52v-1.48h0ZM368.14,70.06v-5.34c-.05-.51-.18-.98-.41-1.4-.23-.42-.53-.74-.9-.95-.37-.22-.74-.32-1.09-.32-.66,0-1.26.3-1.78.89-.69.79-1.03,1.93-1.03,3.44s.33,2.69,1,3.5c.66.81,1.4,1.22,2.22,1.22.69,0,1.35-.34,1.99-1.03Z"/>
      <path class="cls-1" d="M391.44,56.32l.35,5.22h-.35c-.47-1.56-1.14-2.69-2-3.37-.87-.69-1.91-1.03-3.13-1.03-1.02,0-1.94.26-2.76.78-.82.52-1.47,1.34-1.94,2.47-.47,1.13-.71,2.54-.71,4.22,0,1.39.22,2.59.67,3.61.44,1.02,1.11,1.8,2.01,2.34.89.54,1.91.82,3.06.82,1,0,1.87-.21,2.64-.64.76-.42,1.6-1.27,2.51-2.54l.35.22c-.77,1.37-1.67,2.37-2.69,3-1.03.63-2.25.95-3.66.95-2.54,0-4.51-.94-5.91-2.83-1.04-1.4-1.56-3.06-1.56-4.96,0-1.53.34-2.94,1.03-4.22.69-1.28,1.63-2.28,2.84-2.98,1.21-.7,2.52-1.06,3.95-1.06,1.11,0,2.21.27,3.28.81.32.17.54.25.68.25.2,0,.38-.07.53-.22.2-.2.34-.49.42-.85h.39Z"/>
      <path class="cls-1" d="M399.9,61.34c1.57,0,2.83.6,3.78,1.79.81,1.02,1.21,2.19,1.21,3.51,0,.93-.22,1.87-.67,2.82-.44.95-1.06,1.67-1.84,2.15-.78.48-1.65.72-2.61.72-1.56,0-2.81-.62-3.73-1.87-.78-1.05-1.17-2.23-1.17-3.53,0-.95.24-1.9.71-2.84.47-.94,1.09-1.63,1.86-2.08.77-.45,1.58-.68,2.45-.68h0ZM399.55,62.08c-.4,0-.8.12-1.21.36-.4.24-.73.65-.98,1.25-.25.6-.37,1.36-.37,2.3,0,1.51.3,2.81.9,3.91.6,1.09,1.39,1.64,2.37,1.64.73,0,1.33-.3,1.81-.9.48-.61.71-1.64.71-3.11,0-1.84-.39-3.29-1.19-4.35-.53-.73-1.22-1.09-2.05-1.09Z"/>
      <path class="cls-1" d="M410.66,63.55c.76-.76,1.2-1.19,1.34-1.3.34-.29.71-.51,1.1-.67.39-.16.78-.24,1.17-.24.65,0,1.21.19,1.68.57.47.37.78.92.94,1.64.78-.91,1.43-1.5,1.97-1.79.53-.28,1.09-.42,1.65-.42s1.04.14,1.47.42c.42.28.76.75,1.01,1.39.17.44.25,1.12.25,2.06v4.46c0,.65.05,1.09.15,1.33.08.17.22.31.42.42.2.12.53.18,1,.18v.41h-5.12v-.41h.22c.45,0,.79-.09,1.04-.26.17-.12.3-.31.37-.58.03-.13.05-.49.05-1.1v-4.46c0-.85-.1-1.44-.3-1.79-.29-.48-.77-.72-1.42-.72-.4,0-.8.1-1.2.3-.41.2-.89.57-1.47,1.12l-.02.12.02.49v4.95c0,.71.04,1.15.12,1.32.08.17.23.32.45.44.22.12.59.18,1.12.18v.41h-5.24v-.41c.58,0,.97-.07,1.19-.21.21-.14.36-.34.44-.61.04-.13.06-.5.06-1.12v-4.46c0-.85-.12-1.45-.37-1.82-.33-.48-.8-.73-1.39-.73-.41,0-.81.11-1.21.33-.63.33-1.11.71-1.45,1.12v5.56c0,.68.05,1.12.14,1.32.09.21.24.36.42.46.19.1.56.15,1.13.15v.41h-5.13v-.41c.48,0,.81-.05,1-.15.18-.1.33-.26.43-.49.1-.22.15-.65.15-1.29v-3.96c0-1.14-.03-1.87-.1-2.21-.05-.25-.14-.42-.25-.51-.11-.1-.27-.14-.46-.14-.21,0-.46.06-.76.17l-.17-.41,3.12-1.27h.49v2.21Z"/>
      <path class="cls-1" d="M429.85,63.55c.76-.76,1.2-1.19,1.34-1.3.34-.29.71-.51,1.1-.67.39-.16.78-.24,1.17-.24.65,0,1.21.19,1.68.57.47.37.78.92.94,1.64.78-.91,1.43-1.5,1.97-1.79.53-.28,1.09-.42,1.65-.42s1.04.14,1.47.42c.42.28.76.75,1.01,1.39.17.44.25,1.12.25,2.06v4.46c0,.65.05,1.09.15,1.33.08.17.22.31.42.42.21.12.53.18,1,.18v.41h-5.12v-.41h.22c.44,0,.79-.09,1.04-.26.17-.12.3-.31.37-.58.03-.13.05-.49.05-1.1v-4.46c0-.85-.1-1.44-.3-1.79-.29-.48-.77-.72-1.41-.72-.4,0-.8.1-1.21.3-.41.2-.89.57-1.47,1.12l-.02.12.02.49v4.95c0,.71.04,1.15.12,1.32.08.17.23.32.45.44.22.12.59.18,1.12.18v.41h-5.24v-.41c.58,0,.97-.07,1.19-.21.21-.14.36-.34.44-.61.04-.13.06-.5.06-1.12v-4.46c0-.85-.12-1.45-.37-1.82-.33-.48-.8-.73-1.39-.73-.41,0-.81.11-1.21.33-.62.33-1.11.71-1.45,1.12v5.56c0,.68.05,1.12.14,1.32.09.21.24.36.42.46.19.1.56.15,1.13.15v.41h-5.13v-.41c.48,0,.81-.05,1-.15.19-.1.33-.26.43-.49.1-.22.15-.65.15-1.29v-3.96c0-1.14-.03-1.87-.1-2.21-.05-.25-.14-.42-.25-.51-.11-.1-.27-.14-.46-.14-.21,0-.46.06-.76.17l-.17-.41,3.12-1.27h.49v2.21Z"/>
      <path class="cls-1" d="M455.06,61.64v6.28c0,1.2.03,1.94.08,2.2.06.27.15.46.27.56.13.11.27.16.44.16.24,0,.5-.06.79-.19l.16.4-3.1,1.28h-.51v-2.2c-.89.97-1.57,1.57-2.04,1.82-.47.25-.96.37-1.48.37-.58,0-1.09-.17-1.52-.5-.42-.34-.72-.77-.89-1.3-.17-.53-.25-1.28-.25-2.24v-4.63c0-.49-.05-.83-.16-1.02-.1-.19-.26-.33-.47-.44-.2-.1-.58-.15-1.12-.14v-.42h3.63v6.94c0,.97.17,1.6.51,1.9.34.31.74.46,1.22.46.33,0,.69-.1,1.1-.3.41-.2.9-.6,1.47-1.17v-5.88c0-.59-.11-.99-.32-1.19-.22-.21-.66-.32-1.34-.33v-.42h3.53Z"/>
      <path class="cls-1" d="M461.74,63.54c1.21-1.46,2.37-2.2,3.47-2.2.57,0,1.06.14,1.46.42.41.28.73.75.97,1.4.17.45.25,1.15.25,2.08v4.43c0,.65.05,1.1.16,1.33.08.19.22.34.4.44.18.1.53.16,1.02.16v.41h-5.13v-.41h.22c.48,0,.82-.08,1.01-.22.19-.15.33-.36.4-.65.03-.11.05-.47.05-1.06v-4.25c0-.94-.12-1.63-.37-2.06-.25-.42-.66-.64-1.24-.64-.9,0-1.79.49-2.68,1.47v5.47c0,.7.04,1.13.12,1.3.1.22.25.38.44.48.19.1.56.15,1.12.15v.41h-5.13v-.41h.23c.53,0,.88-.14,1.07-.4.18-.27.27-.78.27-1.53v-3.85c0-1.25-.03-2-.08-2.27-.05-.27-.14-.46-.26-.56-.12-.1-.27-.15-.47-.15-.21,0-.46.06-.76.17l-.17-.41,3.13-1.27h.49v2.2Z"/>
      <path class="cls-1" d="M474.11,55.92c.32,0,.59.11.81.33.22.22.33.5.33.81s-.11.59-.33.82c-.22.22-.49.34-.81.34s-.59-.12-.82-.34c-.22-.23-.34-.5-.34-.82s.11-.59.34-.81c.22-.22.49-.33.82-.33h0ZM475.05,61.34v8.33c0,.65.05,1.08.14,1.29.09.22.23.37.42.48.19.1.53.16,1.02.16v.41h-5.04v-.41c.51,0,.85-.05,1.02-.15.17-.1.31-.26.41-.49.1-.22.16-.66.16-1.3v-4c0-1.12-.04-1.85-.1-2.18-.05-.24-.14-.41-.25-.5-.11-.1-.27-.14-.46-.14-.21,0-.47.06-.77.17l-.16-.41,3.12-1.27h.5Z"/>
      <path class="cls-1" d="M487.88,68.07c-.28,1.37-.83,2.42-1.64,3.15-.82.74-1.71,1.11-2.71,1.11-1.18,0-2.21-.5-3.08-1.48-.88-.99-1.31-2.32-1.31-4.01s.49-2.96,1.46-3.97c.97-1.02,2.13-1.53,3.49-1.53,1.02,0,1.86.27,2.52.81.66.54.99,1.1.99,1.68,0,.29-.09.52-.28.7-.18.18-.44.27-.78.27-.44,0-.78-.14-1.01-.43-.13-.16-.21-.46-.25-.91-.04-.45-.2-.79-.46-1.02-.27-.22-.63-.34-1.1-.34-.76,0-1.36.28-1.82.83-.61.74-.92,1.72-.92,2.93s.3,2.33.91,3.28c.61.95,1.43,1.42,2.46,1.42.74,0,1.4-.25,1.99-.76.42-.35.82-.98,1.21-1.89l.33.16Z"/>
      <path class="cls-1" d="M496.4,70.52c-1.06.82-1.73,1.3-2,1.43-.41.19-.84.29-1.3.29-.72,0-1.31-.25-1.77-.74-.46-.49-.7-1.14-.7-1.94,0-.51.11-.94.34-1.31.31-.51.85-.99,1.61-1.45.76-.45,2.04-1,3.82-1.65v-.41c0-1.03-.16-1.74-.49-2.13-.33-.38-.81-.58-1.43-.58-.48,0-.85.13-1.13.39-.29.25-.43.55-.43.88l.02.66c0,.35-.09.62-.27.8-.18.19-.41.28-.7.28s-.51-.1-.69-.29c-.18-.2-.27-.46-.27-.8,0-.65.33-1.24,1-1.79.66-.54,1.6-.81,2.8-.81.92,0,1.67.15,2.26.46.44.24.77.6.99,1.1.13.32.2.99.2,1.99v3.52c0,.99.02,1.6.06,1.82.04.22.1.37.19.44.09.08.19.12.3.12.12,0,.23-.03.32-.08.16-.1.46-.37.92-.83v.63c-.84,1.13-1.65,1.7-2.42,1.7-.37,0-.66-.13-.88-.39-.22-.25-.33-.7-.34-1.31h0ZM496.4,69.79v-3.95c-1.14.46-1.87.78-2.21.96-.6.33-1.02.68-1.28,1.04-.26.36-.39.76-.39,1.19,0,.54.16.99.49,1.35.32.36.7.54,1.12.54.58,0,1.33-.38,2.26-1.13Z"/>
      <path class="cls-1" d="M504.99,58.24v3.4h2.42v.79h-2.42v6.73c0,.67.1,1.12.29,1.36.19.24.44.35.74.35.25,0,.49-.08.73-.23.23-.16.41-.38.54-.68h.44c-.27.74-.64,1.29-1.12,1.67-.48.37-.98.56-1.5.56-.35,0-.69-.1-1.02-.29-.33-.19-.58-.47-.73-.83-.16-.36-.24-.91-.24-1.66v-6.98h-1.64v-.37c.41-.17.84-.45,1.27-.84.43-.4.82-.87,1.16-1.41.17-.29.42-.81.73-1.57h.35Z"/>
      <path class="cls-1" d="M512.21,55.92c.32,0,.59.11.81.33.22.22.33.5.33.81s-.11.59-.33.82c-.22.22-.5.34-.81.34s-.59-.12-.82-.34c-.22-.23-.34-.5-.34-.82s.11-.59.33-.81c.22-.22.5-.33.82-.33h0ZM513.15,61.34v8.33c0,.65.05,1.08.14,1.29.09.22.23.37.42.48.19.1.53.16,1.02.16v.41h-5.04v-.41c.51,0,.85-.05,1.02-.15.17-.1.31-.26.41-.49.1-.22.15-.66.15-1.3v-4c0-1.12-.04-1.85-.1-2.18-.05-.24-.14-.41-.25-.5-.11-.1-.27-.14-.46-.14-.21,0-.47.06-.77.17l-.16-.41,3.12-1.27h.5Z"/>
      <path class="cls-1" d="M522.25,61.34c1.57,0,2.83.6,3.78,1.79.81,1.02,1.21,2.19,1.21,3.51,0,.93-.22,1.87-.67,2.82-.44.95-1.06,1.67-1.84,2.15-.78.48-1.65.72-2.61.72-1.56,0-2.8-.62-3.72-1.87-.78-1.05-1.17-2.23-1.17-3.53,0-.95.24-1.9.71-2.84.47-.94,1.09-1.63,1.86-2.08.77-.45,1.58-.68,2.45-.68h0ZM521.9,62.08c-.4,0-.8.12-1.21.36-.4.24-.73.65-.98,1.25-.25.6-.37,1.36-.37,2.3,0,1.51.3,2.81.9,3.91.6,1.09,1.39,1.64,2.37,1.64.73,0,1.33-.3,1.81-.9.48-.61.71-1.64.71-3.11,0-1.84-.39-3.29-1.19-4.35-.53-.73-1.22-1.09-2.05-1.09Z"/>
      <path class="cls-1" d="M532.95,63.54c1.21-1.46,2.37-2.2,3.47-2.2.57,0,1.06.14,1.46.42.41.28.73.75.97,1.4.17.45.25,1.15.25,2.08v4.43c0,.65.05,1.1.16,1.33.08.19.22.34.4.44.18.1.53.16,1.02.16v.41h-5.13v-.41h.22c.48,0,.82-.08,1.01-.22.19-.15.33-.36.4-.65.03-.11.05-.47.05-1.06v-4.25c0-.94-.12-1.63-.37-2.06-.25-.42-.66-.64-1.24-.64-.9,0-1.79.49-2.68,1.47v5.47c0,.7.04,1.13.12,1.3.1.22.25.38.44.48.19.1.56.15,1.12.15v.41h-5.13v-.41h.23c.53,0,.89-.14,1.07-.4.18-.27.28-.78.28-1.53v-3.85c0-1.25-.03-2-.09-2.27-.05-.27-.14-.46-.26-.56-.12-.1-.27-.15-.47-.15-.21,0-.46.06-.76.17l-.17-.41,3.13-1.27h.49v2.2Z"/>
      <path class="cls-1" d="M551.34,57.5v6.04h2.79c.64,0,1.11-.14,1.41-.42.3-.28.5-.84.6-1.68h.42v5.19h-.42c0-.6-.08-1.03-.23-1.31-.15-.28-.35-.49-.61-.63-.26-.14-.65-.21-1.16-.21h-2.79v4.82c0,.78.05,1.29.15,1.54.07.19.23.35.47.49.33.18.68.27,1.04.27h.56v.42h-6.59v-.42h.54c.63,0,1.1-.19,1.38-.56.18-.24.27-.82.27-1.74v-9.92c0-.78-.05-1.29-.15-1.54-.08-.19-.23-.35-.46-.49-.33-.18-.67-.27-1.04-.27h-.54v-.42h11.42l.15,3.37h-.4c-.19-.71-.42-1.24-.68-1.58-.26-.34-.58-.58-.96-.73-.38-.15-.97-.23-1.77-.23h-3.38Z"/>
      <path class="cls-1" d="M566.44,61.34c1.57,0,2.83.6,3.78,1.79.81,1.02,1.21,2.19,1.21,3.51,0,.93-.22,1.87-.67,2.82-.44.95-1.06,1.67-1.84,2.15-.78.48-1.65.72-2.61.72-1.56,0-2.8-.62-3.72-1.87-.78-1.05-1.17-2.23-1.17-3.53,0-.95.24-1.9.71-2.84.47-.94,1.09-1.63,1.86-2.08.77-.45,1.58-.68,2.45-.68h0ZM566.09,62.08c-.4,0-.8.12-1.21.36-.4.24-.73.65-.98,1.25-.25.6-.37,1.36-.37,2.3,0,1.51.3,2.81.9,3.91.6,1.09,1.39,1.64,2.37,1.64.73,0,1.33-.3,1.81-.9.48-.61.71-1.64.71-3.11,0-1.84-.39-3.29-1.19-4.35-.53-.73-1.22-1.09-2.05-1.09Z"/>
      <path class="cls-1" d="M583.21,61.64v6.28c0,1.2.03,1.94.08,2.2.06.27.15.46.27.56.13.11.27.16.44.16.24,0,.5-.06.79-.19l.16.4-3.1,1.28h-.51v-2.2c-.89.97-1.57,1.57-2.04,1.82-.47.25-.96.37-1.48.37-.58,0-1.09-.17-1.51-.5-.42-.34-.72-.77-.89-1.3-.17-.53-.25-1.28-.25-2.24v-4.63c0-.49-.05-.83-.16-1.02-.1-.19-.26-.33-.47-.44-.2-.1-.58-.15-1.12-.14v-.42h3.63v6.94c0,.97.17,1.6.51,1.9.34.31.74.46,1.22.46.33,0,.69-.1,1.1-.3.41-.2.9-.6,1.47-1.17v-5.88c0-.59-.11-.99-.32-1.19-.22-.21-.66-.32-1.34-.33v-.42h3.53Z"/>
      <path class="cls-1" d="M589.9,63.54c1.21-1.46,2.37-2.2,3.47-2.2.57,0,1.06.14,1.46.42.41.28.73.75.97,1.4.17.45.25,1.15.25,2.08v4.43c0,.65.05,1.1.16,1.33.08.19.22.34.4.44.18.1.53.16,1.02.16v.41h-5.13v-.41h.22c.48,0,.82-.08,1.01-.22.19-.15.33-.36.4-.65.03-.11.05-.47.05-1.06v-4.25c0-.94-.12-1.63-.37-2.06-.25-.42-.66-.64-1.24-.64-.9,0-1.79.49-2.68,1.47v5.47c0,.7.04,1.13.12,1.3.1.22.25.38.44.48.19.1.56.15,1.12.15v.41h-5.13v-.41h.23c.53,0,.88-.14,1.07-.4.18-.27.27-.78.27-1.53v-3.85c0-1.25-.03-2-.08-2.27-.05-.27-.14-.46-.26-.56-.12-.1-.27-.15-.47-.15-.21,0-.46.06-.76.17l-.17-.41,3.13-1.27h.49v2.2Z"/>
      <path class="cls-1" d="M606.95,70.85c-.51.53-1,.91-1.48,1.14-.48.23-1,.34-1.56.34-1.13,0-2.12-.48-2.97-1.42-.84-.95-1.27-2.16-1.27-3.65s.47-2.85,1.41-4.08c.93-1.23,2.14-1.85,3.61-1.85.91,0,1.67.29,2.26.87v-1.91c0-1.19-.03-1.91-.08-2.19-.06-.27-.15-.46-.27-.55-.12-.1-.27-.15-.45-.15-.2,0-.46.06-.78.18l-.15-.4,3.09-1.27h.51v11.99c0,1.21.03,1.96.08,2.22.06.27.15.46.27.56.12.11.27.16.43.16.21,0,.48-.06.82-.19l.13.4-3.08,1.28h-.52v-1.48h0ZM606.95,70.06v-5.34c-.05-.51-.18-.98-.41-1.4-.23-.42-.53-.74-.9-.95-.37-.22-.74-.32-1.09-.32-.66,0-1.26.3-1.78.89-.69.79-1.03,1.93-1.03,3.44s.33,2.69,1,3.5c.67.81,1.4,1.22,2.22,1.22.69,0,1.35-.34,1.99-1.03Z"/>
      <path class="cls-1" d="M618.25,70.52c-1.06.82-1.73,1.3-2,1.43-.41.19-.84.29-1.3.29-.72,0-1.31-.25-1.77-.74-.46-.49-.7-1.14-.7-1.94,0-.51.11-.94.34-1.31.31-.51.85-.99,1.61-1.45.76-.45,2.04-1,3.82-1.65v-.41c0-1.03-.16-1.74-.49-2.13-.33-.38-.81-.58-1.43-.58-.48,0-.85.13-1.13.39-.29.25-.43.55-.43.88l.02.66c0,.35-.09.62-.27.8-.18.19-.41.28-.7.28s-.51-.1-.69-.29c-.18-.2-.27-.46-.27-.8,0-.65.33-1.24,1-1.79.66-.54,1.6-.81,2.8-.81.92,0,1.67.15,2.26.46.44.24.77.6.99,1.1.13.32.2.99.2,1.99v3.52c0,.99.02,1.6.06,1.82.04.22.1.37.19.44.09.08.19.12.3.12.12,0,.23-.03.32-.08.16-.1.46-.37.91-.83v.63c-.84,1.13-1.65,1.7-2.42,1.7-.37,0-.66-.13-.88-.39-.22-.25-.33-.7-.34-1.31h0ZM618.25,69.79v-3.95c-1.14.46-1.87.78-2.21.96-.6.33-1.02.68-1.28,1.04-.26.36-.39.76-.39,1.19,0,.54.16.99.49,1.35.32.36.7.54,1.12.54.58,0,1.33-.38,2.26-1.13Z"/>
      <path class="cls-1" d="M626.84,58.24v3.4h2.42v.79h-2.42v6.73c0,.67.1,1.12.29,1.36.19.24.44.35.74.35.25,0,.49-.08.73-.23.23-.16.41-.38.54-.68h.44c-.27.74-.64,1.29-1.12,1.67-.48.37-.98.56-1.5.56-.35,0-.69-.1-1.02-.29-.33-.19-.58-.47-.73-.83-.16-.36-.24-.91-.24-1.66v-6.98h-1.64v-.37c.41-.17.84-.45,1.27-.84.43-.4.82-.87,1.16-1.41.17-.29.42-.81.73-1.57h.35Z"/>
      <path class="cls-1" d="M634.07,55.92c.32,0,.59.11.81.33.22.22.33.5.33.81s-.11.59-.33.82c-.22.22-.49.34-.81.34s-.59-.12-.81-.34c-.22-.23-.34-.5-.34-.82s.11-.59.34-.81c.22-.22.5-.33.82-.33h0ZM635,61.34v8.33c0,.65.05,1.08.14,1.29.09.22.23.37.42.48.19.1.53.16,1.02.16v.41h-5.04v-.41c.51,0,.85-.05,1.02-.15.17-.1.31-.26.41-.49.1-.22.15-.66.15-1.3v-4c0-1.12-.04-1.85-.1-2.18-.05-.24-.14-.41-.25-.5-.11-.1-.27-.14-.46-.14-.21,0-.47.06-.77.17l-.16-.41,3.12-1.27h.5Z"/>
      <path class="cls-1" d="M644.1,61.34c1.57,0,2.83.6,3.78,1.79.81,1.02,1.21,2.19,1.21,3.51,0,.93-.22,1.87-.67,2.82-.44.95-1.06,1.67-1.84,2.15-.78.48-1.65.72-2.61.72-1.56,0-2.81-.62-3.73-1.87-.78-1.05-1.17-2.23-1.17-3.53,0-.95.24-1.9.71-2.84.47-.94,1.09-1.63,1.86-2.08.77-.45,1.58-.68,2.45-.68h0ZM643.75,62.08c-.4,0-.8.12-1.21.36-.4.24-.73.65-.98,1.25-.25.6-.37,1.36-.37,2.3,0,1.51.3,2.81.9,3.91.6,1.09,1.39,1.64,2.37,1.64.73,0,1.33-.3,1.81-.9.48-.61.71-1.64.71-3.11,0-1.84-.39-3.29-1.19-4.35-.53-.73-1.22-1.09-2.05-1.09Z"/>
      <path class="cls-1" d="M654.81,63.54c1.21-1.46,2.37-2.2,3.47-2.2.57,0,1.06.14,1.46.42.41.28.73.75.97,1.4.17.45.25,1.15.25,2.08v4.43c0,.65.05,1.1.16,1.33.08.19.22.34.4.44.18.1.53.16,1.02.16v.41h-5.13v-.41h.22c.48,0,.82-.08,1.01-.22.19-.15.33-.36.4-.65.03-.11.05-.47.05-1.06v-4.25c0-.94-.12-1.63-.37-2.06-.25-.42-.66-.64-1.24-.64-.9,0-1.79.49-2.68,1.47v5.47c0,.7.04,1.13.12,1.3.1.22.25.38.44.48.19.1.56.15,1.12.15v.41h-5.13v-.41h.23c.53,0,.88-.14,1.07-.4.18-.27.28-.78.28-1.53v-3.85c0-1.25-.03-2-.09-2.27-.05-.27-.14-.46-.26-.56-.12-.1-.27-.15-.47-.15-.21,0-.46.06-.76.17l-.17-.41,3.13-1.27h.49v2.2Z"/>
      <path class="cls-1" d="M173.15,20.56c3.5-.34,7.04-.59,10.61-.78-.49-1.12-1.19-2.27-2.11-3.42.51-.76,1.69-.99,3.52-.69.49,1.07.49,2.43,0,4.11,2.96-.12,5.99-.35,9.1-.69-.21-1.12-.21-2.27,0-3.42,1.25-.76,2.15-.3,2.7,1.37.24.85-.18,1.54-1.28,2.05,3.69.33,7.42.8,11.2,1.37.28,1.68-.91,2.32-3.56,1.92-1.95-.51-4.02-.93-6.21-1.23,0,1.04.18,1.77.55,2.19,1.04,1.13,2.25,2.04,3.66,2.75.91,1.34.42,2.48-1.47,3.42,1.16.98,2.12,1.94,2.88,2.88-.24,2.04-1.43,3.35-3.57,3.93-2.5.49-5.07.09-7.72-1.19-.55-.85-.3-1.77.73-2.75,1.15,0,1.86-.73,2.1-2.19-1.92-.4-3.09-1.31-3.52-2.74.27-.62.75-1.29,1.42-2.06,1.73-.4,2.65-1.31,2.74-2.75.43-.27.41-.48-.05-.64-2.98-.64-6.44-.61-10.38.09-.85.3-1.09.94-.73,1.92,1.25.52,2.39,1.19,3.42,2.01,1.15,1.1.49,2.25-2.01,3.47,1.13,1.04,1.75,2.22,1.87,3.57.09,1.68-.76,2.82-2.56,3.43-2.64.88-5.45.42-8.41-1.37-.58-1.47.11-2.59,2.06-3.39.98-.27,1.44-.79,1.42-1.55-2.78-.03-3.98-.73-3.61-2.1.06-.64.32-1.31.77-2.01,2.68-1.13,4.33-2.54,4.94-4.25-2.96.09-6,.52-9.14,1.28-.88.09-1.12-.56-.73-1.97.49-.27.95-.48,1.37-.59h0ZM182.3,24.72c-.88,1.15-2.04,2.08-3.47,2.75.85,1.83,2.69,1.78,5.53-.14.61-.46-.08-1.33-2.06-2.61h0ZM181.66,31.03c-.46,1.15-1.4,2.07-2.83,2.74,1.55,1.5,3.67,1.5,6.35,0,.34-1.49-.83-2.4-3.52-2.74h0ZM196.38,24.72c-.64,1.07-1.55,1.76-2.75,2.06,1.13,2.19,2.7,2.39,4.71.59.88-.76.23-1.65-1.97-2.65h0ZM197.11,31.03c-1.26.88-2.2,1.79-2.84,2.74,1.74.76,3.6.76,5.58,0,.7-1.31-.21-2.22-2.74-2.74h0ZM168.26,45.56c3.9-4.36,5.81-6.01,5.72-4.94-.22,2.65-1.23,4.91-3.02,6.76-2.08,1.65-2.97,1.04-2.7-1.83h0ZM182.39,39.76c7.31,6.91,16.66,9.11,28.02,6.58.61-.19.09.65-1.56,2.51-1.67,1.71-3.44,2.69-5.3,2.97-2.25.39-4.22.24-5.9-.46-4.51-1.52-9.85-4.38-16-8.55-1.46,1.56-3.11,2.94-4.94,4.17-.94.64-.34-1.29,1.83-5.81.98-2.74,2.26-3.21,3.84-1.41h0ZM197.79,39.94c2.08-1.49,3.46-1.26,4.17.69-1.13,1.52-2.5,2.97-4.12,4.34-.7.58-.72-1.1-.05-5.03h0ZM189.84,38.61c.52-2.22,1.52-2.24,3.02-.05-.52,1.59-1.44,3.22-2.75,4.89-.61.59-.7-1.03-.27-4.84Z"/>
      <path class="cls-1" d="M215.37,19.05c.85-.39,1.78-.39,2.79,0l2.65,3.29c1.37,1.37,1.02,1.6-1.05.69l-3.57-1.14c-1.76-.52-2.04-1.47-.82-2.84h0ZM214.09,28.97c.76-.67,1.65-.72,2.65-.14l2.74,2.7c.94.76.66.99-.87.69l-4.39-.59c-1.49-.46-1.54-1.34-.13-2.65h0ZM222.36,39.99c-1.43,3.11-3.1,5.07-5.02,5.9-2.68.64-3.31-.16-1.88-2.38.76-1.01,2.62-2.12,5.58-3.34,1.4-.55,1.85-.61,1.33-.18h0ZM227.3,26.04c3.72.94,5.79,2.09,6.22,3.42.46,2.2-.94,3.75-4.21,4.67-1.25.12-2.15-.48-2.7-1.83-1.55,2.29-3.21,3.39-4.98,3.33-3.88-.48-4.07-1.3-.6-2.42,3.14-.94,4.98-2.89,5.53-5.85.03-.58.27-1.02.73-1.33h0ZM228.72,28.83c-.19.94-.66,1.65-1.42,2.11.27.55.99.53,2.15-.05l1.37-.69c.61-.76-.09-1.22-2.1-1.37h0ZM235.98,16.31c.59-1.34,1.36-1.34,2.33,0,.49,1.04.56,2.19.23,3.47,4.33-.15,8.53-.13,12.62.05,1.61.19,1.4,1.1-.64,2.75-2.75-.49-5.09-.49-7.04,0,.37.85.37,1.78,0,2.79-2.43.85-4.08,1.54-4.94,2.06-.12,2.86-.12,5.65,0,8.36,1.56-.12,3.21-.12,4.94,0,1.16-1.22,1.95-1.22,2.38,0,.85,4.67.91,9.28.18,13.85-.73,3.9-1.51,3.9-2.32,0-.28-1.79-.35-3.62-.23-5.49-3.65-.72-7.4-.72-11.24,0-2.19,3.96-4.54,6.04-7.04,6.22-3.66-.4-3.89-1.31-.69-2.74,2.5-.97,4.1-2.61,4.8-4.89.24-1.95.41-4.02.5-6.22.46-1.83,1.26-2.08,2.43-.73,1.25-.12,2.42-.12,3.52,0v-8.36c-1.83-.76-3.53-1.65-5.12-2.65-.98-.58-1.15-1.31-.51-2.19-1.19-.46-2.62-.48-4.29-.05-1.4.37-2.11-.09-2.11-1.37-.09-1.31,3.92-1.77,12.02-1.37-.12-1.22-.05-2.37.23-3.47h0ZM233.65,22.71c-.55.22.12,1.1,2,2.65.7.49,1.45.53,2.24.14,1.68-.86,2.59-1.83,2.75-2.93-2.29-.4-4.62-.35-6.99.13h0ZM232.24,38.57c.27.83.27,1.53,0,2.11,3.41,1.25,7.13,1.17,11.16-.23.61-.37.64-.99.09-1.88-3.78-.48-7.53-.48-11.24,0h0ZM246.96,25.36c1.19.55,1.4,1.23.64,2.06l-.6.73c1.47,2.29,4.52,3.9,9.14,4.85.64.85-.06,1.79-2.1,2.83-.91.43-1.68.21-2.29-.64-1.37-1.37-2.73-2.33-4.07-2.88-1.01,1.76-2.64,2.19-4.89,1.28-1.76-.67-2.66-2.27-2.69-4.8.15-1.5.76-2.12,1.83-1.88,1.71.58,2.93.06,3.66-1.55.43-.12.88-.12,1.37,0h0ZM244.16,28.14c-1.34.28-1.51,1.13-.5,2.57,1.4,1.46,2.27,1.3,2.61-.51-.83-.4-1.53-1.08-2.11-2.06Z"/>
      <path class="cls-1" d="M258.85,23.94c5.16-1.52,8.92-4.31,11.3-8.36,1.7-1.12,1.95-.43.73,2.11-.85,2-2.04,3.64-3.56,4.89.55,8.65.29,17.19-.77,25.6-.7,2.22-1.12,1.36-1.23-2.61.3-7.04.27-14.02-.09-20.94-2.44,2.47-4.35,3.19-5.72,2.15-1.15-.67-1.37-1.62-.64-2.84h0ZM270.92,39.85c6.41-1.12,12.94-1.78,19.61-1.96v-1.37c.79-.03,1.49.19,2.1.69v.69c2.81.33,5.61.8,8.42,1.41,1.09,2.41.42,3.2-2.01,2.38-1.28-.58-3.42-1.15-6.41-1.69.31,2.11.22,3.92-.27,5.44-2.59,5.52-6.49,7.12-11.7,4.81-.85-.49-1.54-1.15-2.05-1.97-.37-.76.07-.96,1.33-.6,3.92,1.31,7.47.62,10.6-2.1.37-1.74.37-3.6,0-5.58-6.22-.27-12.6.2-19.15,1.42-2.11-.25-2.25-.76-.46-1.56h0ZM274.44,18.82c3.35-.7,6.84-1.08,10.47-1.14v-2.11c.7-.85,1.36-.85,1.97,0,.33.7.38,1.4.14,2.11,3.66.15,7.18.38,10.56.69,1.31,1.7.8,2.25-1.55,1.65-2.83-.59-5.84-.66-9-.23v1.37c2.93.16,5.73.62,8.41,1.42,1.86,2.25,1.33,4.7-1.6,7.36-1.01.73-2.11.82-3.29.27,1.49,1.25,2.36,2.65,2.61,4.21.15.94-.75,1.22-2.7.83-3.47-.58-7.22-.72-11.24-.41-1.53-.06-1.72-.64-.59-1.74,1.19-.79,2.34-1.75,3.47-2.88-3.05.52-4.92.26-5.62-.77-1.12-2.11-1.36-4.39-.69-6.86.52-.58,1.21-1.01,2.06-1.28,2.32-.28,4.68-.32,7.08-.14v-1.37c-2.68-.34-5.74-.34-9.19,0-3.01.22-3.44-.1-1.28-.96h0ZM287.02,23.26c.12.69.12,1.4,0,2.1,1.4-.3,2.75-.24,4.06.18,2.11.8,2.14,1.18.09,1.15-1.47-.18-2.85-.17-4.16.05-.09.43-.06.87.09,1.33.86,1.4,2.64,1.55,5.35.45,1.92-.94,2.21-2.46.87-4.57-1.89-.67-3.99-.9-6.3-.68h0ZM286.24,30.43c-1.71.03-3.32.89-4.85,2.57,2.96-.12,6.01-.12,9.14,0-.09-1.44-1.52-2.29-4.3-2.57h0ZM277.87,23.26c-.7,1.86-.72,3.23-.05,4.11.85,1.31,2.97,1.79,6.35,1.46.52-.69.52-1.4,0-2.1-1.61-.22-3.25-.22-4.88,0-.49-.67-.49-1.08,0-1.23,1.79-.28,3.67-.32,5.62-.14-.12-.7-.12-1.4,0-2.1-2.32-.31-4.66-.31-7.04,0h0ZM280.66,42.77c1.53-.58,3.13-.55,4.81.09,1.25.46,1.28.9.09,1.33-1.86.8-3.49.73-4.89-.18-.39-.27-.39-.69,0-1.24Z"/>
      <path class="cls-1" d="M313.64,16.35c1.44,0,1.9,2.56,1.42,7.68,4.81.7,4.81,1.62,0,2.75v4.94c3.99-.22,3.99.47,0,2.05.15,2.71.11,5.47-.14,8.28-.39,4.63-2.74,7.4-7.04,8.32-3.14,0-3.74-.55-1.83-1.65,3.6-.85,5.88-3.57,6.86-8.14.3-2.04.33-4.08.09-6.12-.31.21-2.24.83-5.81,1.83-1.79.46-2-.37-.59-2.51,2.04-.48,4.17-.94,6.4-1.37.19-1.86.19-3.73,0-5.62-1.06.48-2.99.51-5.76.09-1.8-.15-2.01-.87-.64-2.15,1.79-.3,3.93-.53,6.4-.69-.4-4.38-.18-6.94.64-7.68h0ZM340.29,19.78c-.24,1.16-2.33,1.39-6.26.69-.16,2.35-.16,4.68,0,7,4.72-.12,9.42-.12,14.07,0,.16,1.89-.8,2.69-2.88,2.42-5.7-1.01-9.43-1.36-11.2-1.05-.25,2.81-.25,5.42,0,7.82,4.63-.21,7.68-.03,9.14.55,1.28,1.58,1.1,4.75-.55,9.5-.98,1.61-2.45,2.24-4.43,1.88-3.78-.28-8.22-.35-13.3-.23-1.65.09-2.56-.64-2.75-2.19-.27-2.72-.29-5.47-.05-8.27,1.04-1.13,4.1-1.54,9.19-1.24.64-3.32.61-5.92-.09-7.82-1.06-.55-4.81-.05-11.24,1.47-2.71.76-3.17.05-1.37-2.15,2.59-.58,6.8-.8,12.62-.68.73-2.32.73-4.65,0-7-1.12.19-2.33.2-3.61.05-3.29-.49-3.26-1.42.09-2.79l12.61,2.05h0ZM324.93,38.57c-.22.89-.22,1.8,0,2.75,2.25.61,4.34.61,6.26,0,.34-.67.34-1.58,0-2.75-2.43-.21-4.52-.21-6.26,0h0ZM324.93,43.51c-.25.79-.25,1.71,0,2.75,2,.73,4.1.73,6.26,0,.27-.94.27-1.86,0-2.75-1.92-.21-4-.21-6.26,0h0ZM334.03,38.57c-.12.89-.12,1.8,0,2.75,2.22.67,4.28.61,6.17-.18,1.28-.83,1.25-1.59-.09-2.29-1.58-.55-3.61-.64-6.08-.28h0ZM334.03,43.51c-.12.89-.12,1.8,0,2.75,2.1.82,4.16.77,6.17-.14,1.25-.82,1.23-1.6-.05-2.33-1.8-.51-3.84-.61-6.12-.27h0ZM324.93,24.03c.12-1.76,1.03-2.22,2.74-1.37,2.11,3.63,1.19,4.09-2.74,1.37h0ZM321.73,34.31c5.98-3.71,8.47-4.78,7.5-3.2-1.34,1.77-3.04,3.1-5.12,3.98-3.93,1.22-4.72.96-2.38-.78h0ZM337.46,22.66c3.1-.48,3.5.09,1.19,1.74-1.86,1.13-2.25.55-1.19-1.74h0ZM336.77,33.08c-1.01-1.86-.56-2.46,1.33-1.83,2.59,1.19,4.65,2.74,6.17,4.66.8,1-1.71.05-7.5-2.84Z"/>
      <path class="cls-1" d="M370.25,22.48c-.46,2.56-1.22,5.01-2.29,7.36,5.97,5.34,14,10.06,24.08,14.18.73,1.22-.94,2.07-5.02,2.56-1.47.12-2.85-.51-4.16-1.87-4.63-4.27-9.86-8.58-15.68-12.94-5.34,6.83-9.71,10.38-13.12,10.66-3.96-.03-4.34-.96-1.14-2.79,8.44-4.02,13.15-9.75,14.12-17.19.06-1.89.57-3.02,1.51-3.39,1.58-.39,2.15.75,1.69,3.43Z"/>
      <path class="cls-1" d="M413.29,18.87c1.15-1.25,2.24-1.25,3.25,0,.55.82.53,2.45-.05,4.89,4.93-.58,9.84-.53,14.71.14,2.04.64,1.58,1.22-1.41,1.73-7.83-.12-17.23.29-28.2,1.23-1.53.25-2.78-.41-3.75-1.97-.91-1.19,4.45-1.62,16.09-1.28.21-1.03-.05-2.19-.78-3.47-.21-.43-.17-.85.14-1.28h0ZM408.99,28.46c1.68,2.08,3.76,3.99,6.26,5.77,1.8-1.25,3.42-3.36,4.85-6.31,2.04-.55,2.66.17,1.87,2.15-.88,1.67-2.43,3.52-4.62,5.53,5.21,4.24,11.11,7.82,17.69,10.74,1.4.73.41,1.73-2.97,3.01-1.28.37-2.24.16-2.88-.64-3.18-3.68-7.56-7.37-13.17-11.06-5.36,5.7-10.31,8.78-14.85,9.24-4.6-.37-4.84-1.26-.73-2.7,4.88-1.22,9.34-3.85,13.4-7.91-1.55-1.52-3.6-3.33-6.12-5.44-1.9-1.73-1.57-2.58.96-2.51l.32.13Z"/>
      <path class="cls-1" d="M461.99,17.59l-.09-.83c-.51-1.15-.15-1.67,1.1-1.55,1.55.25,2.21,1.18,1.97,2.79-.12.64-.16,1.33-.09,2.05,4.46.12,8.68.43,12.66.92,3.72.58,3.74,1.47.05,2.69-1.04.19-3.29-.13-6.76-.96-1.95-.45-3.9-.66-5.85-.59-.24,1.98-.24,3.87,0,5.67l7.04.55c2.54,1.34,2.62,2,.27,1.97-5.52-.67-11-.59-16.45.23-4.48.91-5,.23-1.55-2.06.45-.24,3.11-.47,7.95-.68.28-1.71.32-3.6.14-5.67-6.09.55-10.65,1.28-13.67,2.19-3.63.43-3.71-.24-.23-2.01,4.14-1.64,8.73-2.39,13.75-2.24l-.23-2.47h0ZM455.91,40.17c-.67-.36-1.39-.36-2.15,0-.79,1.1-1.75,2.25-2.88,3.43-.85.8-1.06.38-.64-1.23.46-1.71.93-3.32,1.42-4.84,1.12-1.92,2.56-1.97,4.3-.14,4.48,6.04,11.34,9.32,20.56,9.88l4.12-.23c2.29-.24,2.89.09,1.83,1.01-3.9,3.48-8.33,3.77-13.3.87l-13.25-8.74h0ZM446.31,39.17c3.14-2.47,3.45-1.74.92,2.19-.97,1.95-2.2,3.28-3.66,3.98-2.19.61-2.53-.38-1.01-2.97l3.75-3.2h0ZM464.32,34.09c.4-.94,1.34-1.22,2.83-.82.64,1.04.43,2.07-.64,3.1-3.96,4.73-4.69,4.01-2.19-2.14v-.14h0ZM471.95,38.16c.92-1.25,1.83-1.22,2.75.09.58.86-.05,1.77-1.87,2.75-4,2.43-4.28,1.49-.87-2.83Z"/>
      <path class="cls-1" d="M488.47,23.53c4.97-.64,9.89-.96,14.77-.96-.16-2.41-.16-4.74,0-7,1.01-.79,1.65-.56,1.92.69.39,2.01.45,4.11.18,6.31,1.61-.12,3.26-.12,4.94,0-.16-2.41-.16-4.74,0-7,.55-.4,1.25-.4,2.1,0,.37,2.19.37,4.53,0,7,5.85.15,11.72.37,17.6.69.7,1-.03,1.89-2.19,2.64-1.62.4-3.5.32-5.66-.23-10.09-2.16-20.79-1.84-32.1.96-2.96.88-4.13.46-3.52-1.28.24-.94.9-1.55,1.97-1.83h0ZM504.65,29.52c1.61-.12,3.26-.12,4.94,0,1.25-1.43,2.43-3.06,3.52-4.89,1.31.06,2.01.76,2.11,2.11-.86,1.09-2.03,2.03-3.52,2.79,2.5-.03,5.07.2,7.72.69,1.07,1.74.38,2.35-2.06,1.83-2.47-.7-5.06-.84-7.77-.41.27.76.27,1.69,0,2.79,3.2-.03,6.48.2,9.83.69.85,1.74.13,2.41-2.15,2.01-2.53-.52-5.09-.72-7.68-.59.18,1.06.18,2.22,0,3.47,4.17-.12,8.39-.12,12.66,0,.91,1.62-.03,2.41-2.83,2.38-3.17-.3-6.44-.64-9.83-1.01.27,3.04.16,6.03-.37,8.96-.67,1.89-1.22,1.44-1.65-1.37-.24-2.46-.27-4.99-.09-7.58-3.88.18-7.64.69-11.3,1.51-2.4.58-2.86-.15-1.37-2.19.67-.27,1.36-.48,2.06-.59,3.42-.22,6.95-.24,10.61-.09-.12-1.15-.12-2.32,0-3.47-2.99-.09-5.78.26-8.37,1.05-2.01.97-2.74.37-2.19-1.79.67-.58,1.58-.99,2.75-1.23,2.53-.27,5.13-.32,7.82-.14-.12-1.01-.12-1.93,0-2.79-2.96.06-5.78.34-8.46.82-2.44.64-3.39.14-2.84-1.51.73-.55,1.66-.99,2.79-1.33,1.16-.16,2.34-.18,3.57-.09-1.74-.85-2.91-2.01-3.52-3.47.61-1.15,1.78-1.39,3.52-.69.76,1.15,1.23,2.54,1.41,4.16h.69ZM496.2,19.05c.22-2.56,1.16-3.25,2.84-2.05.73,1.65,1.12,3.25,1.19,4.8-.12,1.28-1.47.37-4.03-2.75h0ZM499.04,44.88c1.7-1.41,2.88-1.17,3.52.69-2.08,2.38-4.91,3.98-8.5,4.8-1.07.24.59-1.58,4.99-5.48h0ZM516.68,17.73c2.44-1.71,3.03-1.33,1.79,1.14-1.04,1.34-2.59,2.33-4.66,2.97-.43-.97.53-2.35,2.88-4.11h0ZM513.11,46.25c.03-2.07.96-2.78,2.79-2.11,1.61,1.83,3.26,3.69,4.93,5.58-.21,1.37-2.79.21-7.72-3.47Z"/>
      <path class="cls-1" d="M546.82,16.99c.4-1.65,1.04-1.63,1.92.05.33.82.38,1.72.14,2.69,3.57-.12,7.08-.12,10.56,0-.21-.85-.21-1.76,0-2.74.94-.98,1.6-.98,1.97,0,.3.85.35,1.76.14,2.74,1.98.25,3.84.48,5.57.69.86.86.65,1.58-.64,2.19-1.58-.58-3.23-.85-4.93-.82.18,3.72.18,7.47,0,11.24,3.1.03,5.44.28,6.99.73.73,1.01.24,1.54-1.46,1.6-1.62-.3-4.38-.38-8.28-.23,5.09,3.36,10.47,6.37,16.13,9.05-.69,1.83-2.27,2.3-4.7,1.42-4.63-2.71-9.19-6.2-13.67-10.47-1.62-.12-3-.12-4.16,0-4.76,4.11-10.15,7.08-16.18,8.92-3.08.79-3.77-.12-2.06-2.75,6.06-.67,11.23-2.73,15.5-6.17-3.68.24-7.24.24-10.65,0-1.31-1.89-.11-2.62,3.61-2.19,1.34.15,2.74.18,4.21.09-.21-3.87-.21-7.61,0-11.24-1.98.24-3.88.43-5.71.55-1.77-1.37-1.27-2.18,1.5-2.42,1.34-.12,2.74-.19,4.21-.19-.24-.98-.24-1.89,0-2.74h0ZM548.88,21.79c.18.88.18,1.76,0,2.61,3.57-.12,7.08-.12,10.56,0-.21-.48-.21-1.36,0-2.61-3.53-.12-7.05-.12-10.56,0h0ZM548.88,26.46c.34,1.34.34,2.21,0,2.61,3.57-.12,7.08-.12,10.56,0-.21-.76-.21-1.63,0-2.61-3.47-.12-6.99-.12-10.56,0h0ZM548.88,30.57c.34,1.15.34,1.98,0,2.46h10.56c-.21-.58-.21-1.4,0-2.46-3.53-.12-7.05-.12-10.56,0h0ZM554,37.93c.4-.97.97-.97,1.74,0,.48,1.01.55,2.14.18,3.39,2.53-.12,5.09.16,7.68.82.49,1.16.03,1.74-1.37,1.74-2.04-.37-4.15-.48-6.31-.37.33,1.16.33,2.3,0,3.43,5.24.34,8.97.79,11.2,1.37.49,1.68-.41,2.41-2.69,2.2-6.46-1.31-13.22-1.54-20.25-.69-3.2-.19-2.88-.96.96-2.33,2.83-.51,5.73-.7,8.68-.55-.15-1.04-.15-2.18,0-3.43-2.29-.03-4.61.2-6.99.69-2.32-1.68-1.86-2.65,1.37-2.93,1.61-.09,3.49-.08,5.62.05-.24-1.1-.18-2.22.19-3.39Z"/>
      <path class="cls-1" d="M580.94,30.2c-2.29,1.01-3.12.29-2.51-2.15.37-.89,1.05-1.53,2.06-1.92,7.61-2.17,13.25-5.95,16.91-11.34.51-.19.94-.16,1.28.09,7.13,5.27,14.14,8.78,21.03,10.52.88,1.07.06,2.01-2.46,2.83-1.25.24-2.75-.26-4.49-1.51-8.86-6.01-13.62-9-14.26-9-5.24,4.56-10.42,8.35-15.54,11.34l-2.01,1.14h0ZM591.28,26.54c5.33-1.03,10.42-.97,15.27.19,1.79.67,1.86,1.11.18,1.33-3.14-.12-5.93-.03-8.36.27.24,2.35.24,4.72,0,7.13,3.81-.4,7.69-.26,11.66.41,2.16.76,2.21,1.23.14,1.41-3.02-.18-5.81-.1-8.37.23.37,2.83.37,5.82,0,8.96,4.94-.34,9.85-.24,14.72.27,2.35.4,2.1,1.4-.73,3.02-.85.33-1.95.37-3.29.09-7.5-1.74-15.28-1.69-23.36.13-3.38.8-5.06.4-5.02-1.19,1.49-1.44,2.94-2.21,4.34-2.33,3.42-.24,6.95-.24,10.61,0,.24-3.14.24-6.12,0-8.96-2.75-.12-5.34.12-7.77.73-1.87.34-3.05-.18-3.57-1.55.18-.48,1.37-.9,3.57-1.23,1.33-.12,2.75-.12,4.25,0,.36-2.5.36-4.88,0-7.13-1.83-.21-3.5,0-4.99.64-1.61.48-2.07.09-1.37-1.19.24-.55.94-.96,2.11-1.24h0ZM591.28,41.27c2.53.24,4.16,1.3,4.89,3.15-1.29.43-3.37.06-6.26-1.09-.4-1.28.06-1.97,1.37-2.06h0ZM608.14,40.17c1.12.12,1.72.57,1.78,1.33-.21,1.74-2.21,2.75-5.98,3.02-.49.16.73-1.2,3.65-4.06l.55-.28h0ZM602.43,30.39c1.01-.12,1.72.15,2.15.82.37.7.37,1.15,0,1.33-1.19.61-2.75,1.04-4.67,1.28-1.15.12-.32-1.02,2.51-3.42Z"/>
      <path class="cls-1" d="M624.8,25.72c6.46-2.68,12.72-6.05,18.79-10.1.7-.46,1.42-.48,2.14-.05,5.95,3.87,12.74,6.46,20.39,7.77,1.12,2.14.38,3.07-2.24,2.79-1.59-.12-3-.58-4.25-1.37-4.33-3.11-9.22-5.24-14.67-6.4-2.08-.09-5.08,1.35-9,4.34-3.56,2.83-7.09,4.46-10.56,4.89-1.95-.3-2.15-.93-.59-1.87h0ZM639.48,21.33c3.44-.34,6.96-.39,10.56-.18,1.43,1.22,1.43,1.87,0,1.97-3.57-.09-7.34-.02-11.34.23-.79-1.15-.53-1.83.78-2.01h0ZM633.9,26.27c7.61-1.37,15.3-1.43,23.04-.18,1.71,2.71,1.01,5.95-2.11,9.74-6.55-.33-13.1-.35-19.65-.05-.73-.03-1.17-.49-1.33-1.37-.4-2.13-.79-4.24-1.19-6.3-.06-1.04.35-1.65,1.23-1.83h0ZM635.22,28.14c-.12,2.32.12,4.2.73,5.62,2.61-.21,5.44-.21,8.46,0-.22-2.04-.22-4.14,0-6.3-3.14-.4-6.2-.17-9.19.68h0ZM638.7,28.83c.7-.39,1.66-.39,2.88,0,.3,1.87.08,3.07-.69,3.61-.88.61-1.57.32-2.05-.87-.33-.91-.38-1.83-.14-2.75h0ZM646.51,27.46c.34,1.97.34,4.08,0,6.3,2.44-.21,5-.21,7.68,0,1.26-1.58,1.72-3.46,1.42-5.62-2.8-.94-5.84-1.17-9.1-.68h0ZM649.26,28.83c.85-.48,1.79-.48,2.83,0,.37,1.92.08,3.07-.87,3.43-.86.37-1.5.15-1.93-.64-.33-1.01-.34-1.93-.04-2.79h0ZM638.6,38.16c4.33-.7,8.49-.76,12.48-.19,2.16.43,3.31,1.21,3.42,2.33.4,2.83.38,5.58-.04,8.23-.3,1.25-1.02,1.95-2.15,2.1-4.42.52-8.84.51-13.25-.05-1.95-.27-3.1-1.19-3.42-2.74-.46-2.44-.44-4.83.04-7.18.33-1.41,1.31-2.24,2.93-2.51h0ZM651.31,39.94c-4.27-.48-8.47-.48-12.62,0-.24,1.07-.24,2.03,0,2.88,4.36.76,8.57.76,12.62,0,.97-1.03.97-2,0-2.88h0ZM638.7,45.56c-.12,1.41.14,2.24.78,2.51,3.99.83,7.93.9,11.83.23.76-1.03.76-1.95,0-2.74-4.17-.3-8.38-.3-12.62,0Z"/>
    </g>
  </g>
</svg>