<?xml version="1.0" encoding="UTF-8"?>
<svg id="_圖層_2" data-name="圖層_2" xmlns="http://www.w3.org/2000/svg" viewBox="0 0 380.98 43.42">
  <defs>
    <style>
      .cls-1 {
        fill: none;
        stroke: #808284;
        stroke-miterlimit: 10;
        stroke-width: .5px;
      }

      .cls-2 {
        fill: #1e4ea2;
        fill-rule: evenodd;
      }

      .cls-3 {
        font-family: LiHeiPro, 'LiHei Pro';
        font-size: 16.66px;
        letter-spacing: .02em;
      }

      .cls-3, .cls-4 {
        fill: #2050a0;
      }

      .cls-4 {
        font-family: AdobeFanHeitiStd-Bold-B5pc-H, 'Adobe Fan Heiti Std';
        font-size: 16.3px;
        font-weight: 700;
        letter-spacing: .03em;
      }
    </style>
  </defs>
  <g id="Layer_1">
    <g>
      <path class="cls-2" d="M21.46,0h8.37v41.5h-8.37v-1.4h6.96c-.01-12.46-.02-24.91-.04-37.36-.52.55-1.06,1.11-1.58,1.67-.75.99-1.44,1.97-2.05,3.05-.63,1.3-1.14,2.59-1.57,3.97-1.02,3.98-1.2,7.94-1.57,12.02-.05.38-.1.76-.16,1.14v-12.1c.02-.1.04-.2.06-.3.36-1.35.81-2.67,1.3-3.97.93-2.04,2.11-3.79,3.58-5.49.43-.44.88-.88,1.31-1.31-1.13-.01-2.24-.01-3.35-.01-1.21,1.27-2.15,2.62-2.91,4.06v-2.74c.3-.44.62-.88.98-1.3h-.98V0ZM15.78,0h5.68v1.42c-.72,0-1.43.02-2.14.02-1.84,2.41-2.78,5.19-3.54,8.07v-4.58c.5-1.21,1.07-2.37,1.77-3.51h-1.77V0h0ZM21.46,41.5h-5.68v-1.4h5.68v1.4h0ZM21.46,2.72c-1.35,1.95-2.24,4.04-3,6.38-.42,1.55-.76,3.1-1.07,4.68-.02,0-.04.03-.05.04-.52-.6-1.04-1.21-1.56-1.82v2.18c.42.49.83.98,1.26,1.47,0,.09.01.19.03.29-.21,1.77-.38,3.56-.53,5.34-.17,1.59-.42,3.15-.75,4.68v4.98c.57-1.46,1.01-2.96,1.38-4.51.68-3.42.92-6.88,1.3-10.34.24-1.84.61-3.68,1.04-5.5.5-1.84,1.12-3.54,1.96-5.12v-2.74h0ZM21.46,12.49v12.1c-.17,1.16-.38,2.32-.63,3.46-.65,2.5-1.43,4.8-2.61,7.11-.75,1.19-1.49,2.36-2.37,3.44l-.08.09v-2.35c.29-.4.57-.81.85-1.24q.85-1.62,1.37-2.74c.81-2.13,1.36-4.22,1.83-6.47q.25-1.67.52-3.91c.22-3.23.45-6.35,1.11-9.51ZM14.86,0h.91v1.42h-.91V0h0ZM15.78,41.5h-.91v-1.4h.91v1.4h0ZM15.78,4.94v4.58c-.14.55-.28,1.11-.41,1.66-.01.1-.02.2-.03.31l.44.52v2.18c-.27-.32-.52-.63-.79-.93-.04.27-.08.54-.12.8v-6.57l.05-.18c.27-.81.55-1.59.86-2.36h0ZM15.78,25.96v4.98c-.27.73-.57,1.43-.91,2.13v-3.73c.37-1.11.66-2.24.91-3.38h0ZM15.78,36.36v2.35c-.47.54-.59.68-.91,1.01v-2.19c.32-.38.62-.77.91-1.18h0ZM14.86,18.51v-.03h.03v.03h-.03ZM9.72,0h5.14v1.42h-5.14V0h0ZM14.86,41.5h-5.14v-1.41c.91-.01,1.84-.04,2.76-.04.87-.81,1.66-1.64,2.39-2.52v2.19c-.09.11-.21.22-.36.38h.36v1.4h0ZM14.86,7.48v6.57c-.27,1.98-.47,3.99-.7,5.98-.17,1.1-.35,2.19-.52,3.29q-.27,1.27-.78,3.42c-.82,2.6-1.71,4.97-3.14,7.25v-2.92c.82-1.75,1.42-3.51,1.97-5.42q.25-1.11.78-3.81c.44-3.3.72-6.62,1.3-9.9-.01-.06-.02-.11-.02-.16l-4.03-4.71v-2.2c1.01,1.19,2.43,2.86,4.43,5.21.24-.87.47-1.74.71-2.6h0ZM14.86,18.48h-.03v.03h.03v-.03h0ZM14.86,29.35c-.2.62-.42,1.23-.66,1.83q-.53,1.15-1.05,2.16c-.96,1.69-2.08,3.2-3.43,4.5v1.91c1.19-1.07,2.29-2.18,3.27-3.47q.66-1,1.25-1.98c.22-.41.43-.82.63-1.23v-3.73ZM0,41.5V0h9.72v1.42h-2.97c.4.44.52.58,2.97,3.45v2.2c-1.61-1.88-3.22-3.76-4.82-5.64-1.18,0-2.34-.02-3.51-.03v37.53c2.85-1,4.9-2.76,6.73-5.09.27-.42.55-.83.82-1.24.28-.51.54-1.02.77-1.52v2.92c-.12.19-.24.38-.37.57q-.62.83-1.3,1.64c-1.23,1.23-2.49,2.24-4.01,3.13-.56.25-1.11.5-1.67.77,1.47,0,2.94-.02,4.4-.02,1.09-.65,2.07-1.39,2.94-2.24v1.91c-.13.11-.27.24-.4.35h.4s0,1.4,0,1.4H0Z"/>
      <text class="cls-4" transform="translate(40.62 38.81)"><tspan x="0" y="0">Koo Foundation Sun Yat-Sen Cancer Center</tspan></text>
      <text class="cls-3" transform="translate(40.62 16.35)"><tspan x="0" y="0">醫療財團法人辜公亮基金會和信治癌中心醫院</tspan></text>
      <line class="cls-1" x1="40.62" y1="21.75" x2="380.98" y2="21.75"/>
    </g>
  </g>
</svg>