<?xml version="1.0" encoding="UTF-8"?>
<svg id="_圖層_2" data-name="圖層_2" xmlns="http://www.w3.org/2000/svg" viewBox="0 0 233.42 55.3">
  <defs>
    <style>
      .cls-1 {
        fill: #efefef;
      }

      .cls-2 {
        fill: none;
        stroke: #d70146;
        stroke-miterlimit: 10;
        stroke-width: .5px;
      }

      .cls-3 {
        fill: #d70146;
      }

      .cls-4 {
        fill: #e60012;
      }
    </style>
  </defs>
  <g id="_圖層_1-2" data-name="圖層_1">
    <g>
      <polygon class="cls-3" points="57.96 45.58 63.79 45.58 63.79 46.73 61.49 46.73 61.49 53.14 60.26 53.14 60.26 46.73 57.96 46.73 57.96 45.58"/>
      <path class="cls-3" d="M68.04,50.33c-.22.14-.58.29-1.15.36h0v-.86h.07c.72-.14,1.15-.36,1.15-.65s-.14-.5-.29-.58c-.22-.14-.5-.22-.86-.22h-.07v-.94h.07c.79,0,1.3.14,1.73.36.36.29.5.72.5,1.22v2.74c0,.22.07.36.07.43.07.07.14.07.29.07h.22v.86c-.07.07-.22.07-.29.07h-.29c-.36,0-.65-.07-.79-.22-.14-.07-.29-.29-.29-.58-.22.29-.5.5-.79.65-.14.07-.29.14-.43.14v-.86c.29-.07.5-.14.72-.36.29-.22.43-.58.43-.94v-.72ZM66.89,50.69c-.22,0-.36,0-.43.07-.29,0-.43.14-.58.29s-.22.29-.22.5c0,.29.07.43.22.58.14.14.43.22.72.22h.29v.86c-.22.07-.43.07-.58.07-.58,0-1.01-.14-1.3-.43-.36-.29-.5-.65-.5-1.15,0-.58.14-1.01.5-1.3.36-.29.94-.5,1.87-.58h0v.86h0ZM66.89,47.45v.94c-.36,0-.58.07-.79.22-.14.14-.29.36-.29.65v.07h-1.08v-.14c0-.5.22-.94.58-1.3.43-.29.94-.43,1.58-.43Z"/>
      <path class="cls-3" d="M72.14,47.59h1.15v5.54h-1.15v-5.54h0ZM72.14,45.58h1.15v1.22h-1.15v-1.22Z"/>
      <path class="cls-3" d="M78.77,47.45h.29c.72,0,1.3.22,1.73.79.43.5.65,1.22.65,2.09s-.22,1.58-.65,2.16c-.43.58-1.01.79-1.73.79h-.29v-1.01h0c.5,0,.79-.14,1.08-.5.29-.36.36-.79.36-1.44,0-.58-.14-1.01-.36-1.37-.29-.36-.65-.5-1.08-.5h0v-1.01ZM77.33,52.42v2.88h-1.15v-7.7h1.15v.79c.22-.36.5-.58.72-.72.22-.14.43-.22.72-.22v1.01c-.5,0-.86.14-1.08.5-.22.29-.36.79-.36,1.44s.14,1.08.36,1.37c.22.36.58.5,1.08.5v1.01c-.29,0-.5-.07-.72-.22-.29-.14-.5-.36-.72-.65Z"/>
      <path class="cls-3" d="M88.7,50.69h-2.52v-.86h1.3c0-.43-.07-.79-.29-1.01-.29-.29-.58-.43-1.01-.43h0v-.94h.07c.72,0,1.37.22,1.8.72.43.5.65,1.22.65,2.09v.43h0ZM86.18,52.27h.07c.29,0,.58-.07.79-.22.22-.14.36-.36.43-.65h1.15c-.07.58-.36,1.01-.79,1.37-.5.36-1.01.5-1.66.5h0v-1.01ZM86.18,50.69h-1.3c0,.5.14.94.36,1.15.21.29.5.43.94.43v1.01c-.79,0-1.44-.22-1.87-.79-.43-.5-.65-1.22-.65-2.16,0-.86.21-1.58.65-2.16.43-.5,1.08-.72,1.87-.72v.94c-.36,0-.72.14-.94.43-.22.22-.36.58-.36,1.01h1.3v.86Z"/>
      <path class="cls-3" d="M91.3,47.59h1.15v5.54h-1.15v-5.54h0ZM91.3,45.58h1.15v1.22h-1.15v-1.22Z"/>
      <path class="cls-3" d="M106.85,51.98h.22c.5,0,.86-.07,1.08-.29.29-.14.36-.5.36-.86,0-.43-.07-.72-.36-.86-.22-.22-.58-.29-1.15-.29h-.14v-1.01h.07c.43,0,.79-.07,1.01-.29.22-.14.29-.43.29-.79,0-.29-.07-.58-.29-.72-.22-.14-.58-.22-1.01-.22h-.07v-1.08h.29c.79,0,1.37.14,1.8.5.36.29.58.79.58,1.44,0,.36-.07.65-.29.94-.14.29-.43.5-.72.58.43.14.79.36,1.01.65.22.36.29.72.29,1.22,0,.65-.22,1.22-.65,1.66-.5.36-1.15.58-1.94.58h-.36v-1.15ZM105.12,49.68v2.3h1.73v1.15h-2.95v-7.56h2.95v1.08h-1.73v2.02h1.73v1.01h-1.73Z"/>
      <rect class="cls-3" x="112.46" y="45.58" width="1.15" height="7.56"/>
      <path class="cls-3" d="M118.94,48.46h0v-1.01c.86,0,1.51.22,1.94.79.5.5.79,1.22.79,2.16,0,.86-.29,1.58-.72,2.16-.5.5-1.15.72-2.02.72h0v-1.01h0c.5,0,.86-.14,1.08-.5.29-.29.43-.79.43-1.37,0-.65-.14-1.15-.43-1.44-.22-.36-.58-.5-1.08-.5ZM118.94,48.46c-.5,0-.86.14-1.15.5-.22.29-.36.79-.36,1.44,0,.58.14,1.08.36,1.37.29.36.65.5,1.15.5v1.01c-.86,0-1.51-.22-2.02-.72-.43-.58-.72-1.3-.72-2.16,0-.94.29-1.66.72-2.16.5-.58,1.15-.79,2.02-.79h0v1.01Z"/>
      <path class="cls-3" d="M126.65,48.46h0v-1.01c.86,0,1.51.22,2.02.79.43.5.72,1.22.72,2.16,0,.86-.29,1.58-.72,2.16-.5.5-1.15.72-2.02.72h0v-1.01h0c.5,0,.86-.14,1.15-.5.22-.29.36-.79.36-1.37,0-.65-.14-1.15-.36-1.44-.29-.36-.65-.5-1.15-.5ZM126.65,48.46c-.5,0-.86.14-1.08.5-.29.29-.43.79-.43,1.44,0,.58.14,1.08.36,1.37.29.36.65.5,1.15.5v1.01c-.86,0-1.51-.22-2.02-.72-.43-.58-.72-1.3-.72-2.16,0-.94.29-1.66.72-2.16.5-.58,1.15-.79,2.02-.79h0v1.01Z"/>
      <path class="cls-3" d="M134.28,52.27c.5,0,.86-.14,1.08-.5.29-.29.43-.79.43-1.44s-.14-1.08-.43-1.37c-.22-.36-.58-.5-1.08-.5v-1.01c.29,0,.5.07.72.22.29.14.5.36.72.65v-2.74h1.15v7.56h-1.15v-.72c-.22.29-.43.5-.72.65-.22.14-.43.22-.72.22v-1.01ZM134.28,48.46c-.43,0-.79.14-1.08.5-.22.36-.36.79-.36,1.44,0,.58.14,1.08.36,1.37.29.36.65.5,1.08.5h0v1.01h-.22c-.72,0-1.3-.22-1.73-.79-.43-.5-.65-1.22-.65-2.09s.22-1.58.65-2.16c.43-.58,1.01-.79,1.66-.79h.29v1.01h0Z"/>
      <path class="cls-3" d="M154.73,47.95h-1.3c-.07-.43-.22-.79-.58-1.08-.36-.22-.79-.36-1.3-.36-.72,0-1.3.22-1.66.72-.43.5-.65,1.22-.65,2.09s.22,1.58.65,2.09c.36.58.94.79,1.66.79.5,0,1.01-.14,1.37-.5.36-.29.5-.72.58-1.3h1.22c0,.86-.36,1.58-.94,2.09-.65.58-1.37.86-2.3.86-1.08,0-1.94-.36-2.52-1.08-.65-.72-.94-1.66-.94-2.88,0-1.3.29-2.23.94-2.95.58-.72,1.51-1.08,2.59-1.08.94,0,1.66.29,2.23.72.5.43.86,1.08.94,1.87Z"/>
      <path class="cls-3" d="M162.14,50.69h-2.52v-.86h1.3c0-.43-.14-.79-.36-1.01-.22-.29-.5-.43-.94-.43h0v-.94h0c.79,0,1.44.22,1.87.72.43.5.65,1.22.65,2.09v.43h0ZM159.62,52.27h.07c.29,0,.58-.07.79-.22.22-.14.36-.36.43-.65h1.15c-.07.58-.36,1.01-.86,1.37-.43.36-.94.5-1.58.5h0v-1.01ZM159.62,50.69h-1.37c0,.5.14.94.43,1.15.22.29.5.43.94.43v1.01c-.79,0-1.44-.22-1.87-.79-.43-.5-.72-1.22-.72-2.16,0-.86.29-1.58.72-2.16.43-.5,1.08-.72,1.87-.72v.94c-.43,0-.72.14-.94.43-.22.22-.36.58-.43,1.01h1.37v.86Z"/>
      <path class="cls-3" d="M169.42,49.61v3.53h-1.15v-3.67c0-.29-.07-.58-.29-.72-.14-.22-.36-.29-.72-.29-.43,0-.79.14-1.01.36-.29.29-.36.65-.36,1.08v3.24h-1.22v-5.54h1.15v.72c.22-.22.43-.43.72-.65.29-.14.65-.22.94-.22.72,0,1.22.14,1.51.5.29.29.43.86.43,1.66Z"/>
      <path class="cls-3" d="M172.44,46.08h1.15v1.51h.94v.86h-.94v3.24c0,.22,0,.36.07.43.07.07.21.07.36.07h.5v.94h-.14c-.36.07-.58.07-.72.07-.43,0-.79-.14-.94-.29-.22-.22-.29-.58-.29-1.08v-3.38h-.79v-.86h.79v-1.51Z"/>
      <path class="cls-3" d="M181.73,50.69h-2.59v-.86h1.37c0-.43-.14-.79-.36-1.01-.22-.29-.58-.43-.94-.43h-.07v-.94h.07c.79,0,1.37.22,1.87.72.43.5.65,1.22.65,2.09v.43h0ZM179.14,52.27h.14c.29,0,.58-.07.79-.22.22-.14.29-.36.36-.65h1.22c-.14.58-.43,1.01-.86,1.37-.43.36-1.01.5-1.58.5h-.07v-1.01ZM179.14,50.69h-1.3c0,.5.14.94.36,1.15.22.29.58.43.94.43v1.01c-.79,0-1.37-.22-1.8-.79-.5-.5-.72-1.22-.72-2.16,0-.86.22-1.58.72-2.16.43-.5,1.01-.72,1.8-.72v.94c-.36,0-.65.14-.86.43-.29.22-.43.58-.43,1.01h1.3v.86Z"/>
      <path class="cls-3" d="M187.13,47.52v1.15h-.29c-.5,0-.86.14-1.08.36-.22.29-.36.58-.36,1.08v3.02h-1.15v-5.54h1.08v1.01c.14-.36.36-.65.65-.86.22-.14.58-.29.86-.29h.07c.07,0,.14.07.21.07Z"/>
      <path class="cls-3" d="M188.64,51.84h1.3v1.3c0,.43-.14.79-.36,1.08-.22.29-.5.43-.94.58v-.58c.22-.07.36-.14.5-.29.14-.22.14-.43.14-.65v-.14h-.65v-1.3Z"/>
      <polygon class="cls-3" points="200.81 45.58 206.64 45.58 206.64 46.73 204.34 46.73 204.34 53.14 203.11 53.14 203.11 46.73 200.81 46.73 200.81 45.58"/>
      <path class="cls-3" d="M212.04,51.98h.21c.5,0,.86-.07,1.08-.29.29-.14.36-.5.36-.86,0-.43-.07-.72-.36-.86-.22-.22-.58-.29-1.15-.29h-.14v-1.01h.07c.43,0,.79-.07,1.01-.29.22-.14.36-.43.36-.79,0-.29-.14-.58-.36-.72-.22-.14-.58-.22-1.01-.22h-.07v-1.08h.29c.79,0,1.37.14,1.8.5.36.29.58.79.58,1.44,0,.36-.07.65-.29.94-.14.29-.43.5-.72.58.43.14.79.36,1.01.65.22.36.29.72.29,1.22,0,.65-.22,1.22-.65,1.66-.5.36-1.15.58-1.94.58h-.36v-1.15ZM210.31,49.68v2.3h1.73v1.15h-2.95v-7.56h2.95v1.08h-1.73v2.02h1.73v1.01h-1.73Z"/>
      <path class="cls-3" d="M223.13,47.81h-1.22c0-.43-.22-.79-.5-1.01-.29-.29-.65-.36-1.15-.36-.43,0-.72.07-1.01.29-.29.14-.36.43-.36.72s.07.5.29.65c.29.22.72.43,1.44.58,1.15.29,1.87.58,2.23.94.29.29.5.79.5,1.37,0,.72-.29,1.3-.79,1.73-.58.43-1.3.65-2.16.65-.94,0-1.66-.29-2.16-.72-.58-.43-.79-1.08-.86-1.94h1.22c0,.5.22.86.58,1.15.29.29.79.43,1.3.43.43,0,.79-.14,1.08-.36.29-.22.43-.43.43-.72,0-.14-.07-.29-.14-.43-.07-.14-.14-.29-.29-.36-.21-.22-.65-.36-1.29-.58-.14,0-.29-.07-.36-.07-.79-.22-1.44-.5-1.8-.86-.29-.29-.5-.79-.5-1.37,0-.65.29-1.15.79-1.51.5-.43,1.15-.65,2.02-.65.79,0,1.51.22,1.94.65.5.43.79,1.08.79,1.8Z"/>
      <polygon class="cls-3" points="226.08 45.58 231.26 45.58 231.26 46.73 227.3 46.73 227.3 48.74 230.76 48.74 230.76 49.82 227.3 49.82 227.3 53.14 226.08 53.14 226.08 45.58"/>
      <path class="cls-1" d="M152.14,7.13v.36q-.22-.29,0-.36Z"/>
      <g>
        <path class="cls-4" d="M35.42.22c2.81-.07,5.18,2.23,5.18,5.04s-2.3,5.18-5.11,5.18c-2.81.07-5.18-2.23-5.18-5.11S32.62.22,35.42.22Z"/>
        <path class="cls-4" d="M9.22,0c2.88,0,5.26,2.38,5.26,5.26s-2.3,5.33-5.26,5.33h0v-2.23h0c1.66-.07,3.02-1.44,3.02-3.1s-1.37-2.95-3.02-2.95V0ZM9.14,0h.07v2.3h0c-1.73,0-3.02,1.37-3.02,3.02s1.37,3.02,3.02,3.02v2.23c-2.88,0-5.26-2.38-5.33-5.26C3.89,2.45,6.26.07,9.14,0Z"/>
        <path class="cls-4" d="M23.33,19.87l4.18-4.25s3.17-3.6,7.99-3.17c4.82.5,7.7,5.47,7.7,5.47,0,0,3.46,5.18-.65,9.86l-12.67,12.82L10.87,21.53c-.14-.14-1.15-.79-1.73-.07-.65.65-.29,1.44.14,1.87.5.5,5.18,5.33,5.18,5.33l.79-.72,6.12,6.26-6.55,6.48L2.16,28.01c-1.08-1.08-2.3-3.74-1.87-6.55.43-2.81,2.09-4.82,2.59-5.47.58-.72,3.1-3.24,5.98-3.6,2.88-.29,5.11.29,7.34,2.52l13.75,13.54,5.26-5.11c.43-.43.65-1.3,0-1.87-.72-.65-1.3-.14-1.94.36-.58.5-4.03,3.82-4.03,3.82l-5.9-5.76Z"/>
      </g>
      <path class="cls-3" d="M76.03,32.33c.58-.58.72-1.08.58-1.37-.07-.36-.36-.79-.79-1.15-1.87-1.73-3.31-3.17-4.25-4.32-1.01-1.08-2.02-1.58-2.95-1.51-.5.36-.58.86-.22,1.37.36.58.79,1.22,1.3,2.09l-3.38-.07v2.88c1.66-.07,3.6-.07,5.83,0,.94,1.01,1.66,1.73,2.3,2.09.5.43,1.01.43,1.58,0h0ZM66.31,25.13c.14-.14.29-.29.43-.36.58-.5.5-1.01-.36-1.51l-.07-.07v1.94h0ZM66.31,41.33v-3.02c.58,0,1.08.07,1.44.14.94.14,1.58.07,1.94-.29l.43-2.3c-1.44-.14-2.74-.22-3.82-.22v-3.02h.29c2.59,0,4.46.22,5.76.65.94-.07,1.51.22,1.73.72.22.58.07,1.08-.43,1.66-.58.43-1.01,1.15-1.22,2.09-.14.94-.07,1.66.14,2.09.36.58.29,1.15-.22,1.73-.43.65-1.01.86-1.58.65-1.73-.5-3.24-.79-4.46-.86ZM66.31,27.36l-2.74-.14c1.15-.94,2.09-1.58,2.74-2.09v-1.94c-1.22-.86-2.3-.65-3.17.65-.94,1.22-2.88,2.59-5.98,4.1-1.66.43-2.66,1.15-3.02,1.94-.43.79-.29,1.44.43,2.02.65.36,2.23.14,4.68-.72,1.58-.5,3.89-.86,7.06-.94v-2.88h0ZM66.31,32.62v3.02c-2.23-.07-3.74.07-4.39.43-.94.5-1.08,1.37-.36,2.59,2.02-.29,3.6-.36,4.75-.36v3.02c-1.87-.22-3.24.07-3.96.72-1.3,1.01-2.16,1.44-2.52,1.3-.86-.79-1.22-1.37-1.08-1.8.14-.36.43-.79.86-1.22.22-.79-.07-2.3-.86-4.46-.79-2.09-.14-3.1,1.94-3.02,1.37-.14,3.24-.22,5.62-.22Z"/>
      <path class="cls-3" d="M108.65,37.22c-3.24.58-5.69.58-7.49-.07-1.66-.65-2.38-2.45-2.16-5.47.07-1.01.36-1.51.94-1.44.72.07,1.8.22,3.46.5.79-.14,1.37-.58,1.73-1.3.36-.72.22-1.15-.43-1.3-2.59-.14-4.03-.43-4.54-.94-.5-.43-.58-1.22-.29-2.3.14-1.44-.22-2.16-1.01-2.23-.86,0-1.37.65-1.44,1.94-.36,4.39-.5,7.49-.43,9.36.07,1.8.58,3.53,1.58,5.11.94,1.44,1.73,2.38,2.3,2.81.58.5,1.58.5,2.95,0,2.09-.72,3.6-1.73,4.46-2.88.58-.65.79-1.15.79-1.44,0-.22-.14-.36-.43-.36h0ZM93.1,25.13c.58-1.8.14-2.59-1.37-2.45-1.44.07-2.16,1.66-2.16,4.75.07.72-.22,1.01-.79.94-.58,0-1.73.07-3.38.29-1.08.29-1.58.72-1.44,1.37.07.65.5.94,1.22.94h3.74c.5-.14.72.22.72,1.08,0,.94,0,2.45-.07,4.54-.07,0-.5,0-1.22.07-.72.22-1.44.36-2.09.58-1.22.43-1.8.94-1.73,1.66,0,.72.58.94,1.73.72.94-.22,1.66-.43,2.23-.5.58-.07,1.08-.07,1.51,0,1.66-.07,2.45-1.44,2.3-4.18-.14-2.74.07-5.98.79-9.79Z"/>
      <path class="cls-3" d="M138.89,23.98c.29-.43.29-.79.07-1.08-.21-.29-.86-.36-2.09-.07-.36-.22-1.37-.36-2.95-.65h-.79v2.16c.43-.07.79-.07,1.15-.14,1.22-.14,2.02-.07,2.38.22,0,.14-.22.65-.65,1.44-.43-.14-1.37-.14-2.88-.07v2.02c.87-.07,1.58,0,2.23.14,1.51.29,2.38-.07,2.66-1.15-.22-.36-.14-.79.07-1.44.14-.5.43-1.01.79-1.37h0ZM133.13,37.01v-1.8c.72,0,1.44.07,2.23.22v-1.44c-.22-.07-.94-.07-2.09-.07q-.07-.07-.14-.07v-1.58c1.15,0,1.87,0,2.23.07v-.94c-.36-.22-1.08-.29-2.23-.22v-2.23c1.01.07,2.02.22,2.88.36.65-.29,1.22-.36,1.66-.22.43.14.58.58.36,1.15-.22,1.08-.22,2.74,0,4.82.14,2.02.29,3.17.43,3.6-.21,1.37-.65,2.23-1.22,2.45-.58.22-1.08-.29-1.44-1.51l-.22-2.38c-.94-.07-1.73-.22-2.45-.22ZM133.13,22.18c-1.29-.07-2.52-.07-3.67.14,0-.36-.29-.65-.94-.72-.58-.07-.94.65-1.08,2.16-.07,1.58.07,2.81.36,3.6.22.79.72,1.08,1.66,1.01,1.37-.36,2.59-.5,3.67-.58v-2.02c-.94.07-2.09.14-3.46.29l.22-1.44c1.22-.07,2.3-.22,3.24-.29v-2.16h0ZM133.13,28.94v2.23h-.21c-1.3,0-2.3.14-3.02.5v.65c1.3-.07,2.45-.07,3.24-.07v1.58c-1.01,0-2.09.14-3.24.65-.14.72-.14,1.15,0,1.15,1.01-.29,2.09-.43,3.24-.43v1.8c-.58-.07-1.08-.07-1.51-.07-1.01.07-1.8.14-2.38.29-.14.36-.43.79-.94,1.3-.43.58-.79,1.01-1.08,1.3-.5.07-.86-.07-1.22-.43-.29-.43-.22-.79.14-1.22.86-.79,1.44-1.66,1.73-2.45.36-.72.43-2.38.22-4.75,0-1.22,1.01-1.87,2.88-2.02h2.16ZM124.63,25.13c.14-.58-.07-.86-.58-.94-.5,0-1.08-.07-1.66-.22.29-1.51.07-2.3-.65-2.45-.72-.07-1.22.72-1.51,2.45-.29.29-.94.5-2.02.58-1.01,0-1.51.5-1.51,1.51,0,.43.29.72.86.72h2.23v2.3c-1.51.36-2.59.79-3.31,1.15-.65.43-.72,1.08-.22,2.09.29.29.79.29,1.44,0,.58-.22,1.3-.43,2.3-.65.22,1.01.22,2.23.07,3.74-.14,1.44-.65,2.38-1.66,2.74-1.44.36-2.02.79-1.66,1.44.43.5,1.01.79,1.87.72,2.02-.58,3.17-1.66,3.53-3.31.36-1.58.36-3.53,0-5.83.79-.29,1.37-.58,1.8-.79.36-.22.5-.65.43-1.3,0-.43-.22-.72-.72-.79-.36-.07-1.01-.07-1.94.07-.07-.07-.07-.22-.07-.58s.14-.79.5-1.3c.86,0,1.44-.07,1.8-.29.22-.29.43-.65.65-1.08Z"/>
      <path class="cls-3" d="M171.29,35.14c-1.66.29-3.02.22-3.96-.07-1.01-.43-1.87-.72-2.59-.86.36-.94.58-1.94.65-3.02.07-1.15.36-2.09.86-2.81,1.08-1.01,1.44-1.8,1.08-2.3-.36-.65-1.08-.72-2.16-.22-.5.07-1.58,0-3.1-.14-.14,0-.29,0-.43-.07v2.81c.43.07.94.14,1.51.22-.29.72-.5,2.45-.65,5.11-.07-.07-.36-.22-.86-.29v3.46c.36.14.72.36,1.01.58,2.59,1.8,4.61,2.38,5.98,1.87,1.15-.94,1.87-1.87,2.3-2.74.58-.86.65-1.37.36-1.51ZM161.64,25.63c-1.3-.07-2.66-.14-4.1-.07v2.81h1.22c-.14,2.38-.29,3.89-.43,4.68h-.79v3.31c1.66-.07,3.02.14,4.1.58v-3.46c-.36-.07-.94-.14-1.51-.22l.43-4.9c.14,0,.5.07,1.08.07v-2.81h0ZM157.54,25.42c1.73-1.08,2.09-2.02,1.01-2.88-.29-.22-.65-.29-1.01-.29v3.17ZM157.54,25.56h-.29c.07,0,.21-.07.29-.14v-3.17c-.94.14-2.16,1.08-3.6,2.74v3.6c.29,0,.43,0,.58.07.36,0,.58.14.58.43-.07.79-.14,1.58-.14,2.3,0,.79.22,1.37.58,1.66-.5,0-1.01.07-1.58.14v3.67c1.3-.29,2.52-.5,3.6-.5v-3.31h-1.15c-.07-.29-.14-.94-.14-1.94s.21-1.94.58-2.74h.72v-2.81ZM153.94,24.98c-.22.29-.43.58-.65.86-.07,0-.22,0-.5.07-.43,0-.72.07-1.01.14-.65-1.22-1.51-1.73-2.66-1.51-1.08.14-1.3,1.01-.65,2.66.5,1.15.94,2.59,1.22,4.18.29,1.58.5,2.52.58,2.81,0-.07-.29-.07-.79,0-.43.07-1.15.36-2.09.72-1.37.72-2.02,1.58-1.73,2.59.14,1.08.86,1.44,2.16,1.15,2.3-.86,4.32-1.44,6.12-1.8v-3.67c-.43.07-.86.22-1.3.36,0-.22,0-.86-.07-2.02,0-1.08-.07-2.02-.14-2.66.65-.14,1.15-.22,1.51-.29v-3.6Z"/>
      <path class="cls-3" d="M199.8,28.37c.43-.58.29-1.22-.5-1.87-.72-.65-1.58-.58-2.59.29-.22.22-.58.14-1.08-.29-.43-.29-1.22-.5-2.45-.72v2.74c.5,0,.94-.07,1.22-.14.65-.14,1.15,0,1.44.5-.07.36-.21,1.01-.36,1.87-.14.79-.22,1.22-.29,1.37-.36-.14-1.08-.29-2.02-.36v2.3l1.08.14c1.22.72,2.09.86,2.74.5.79-.43,1.22-1.01,1.44-1.87.14-1.08.22-1.94.22-2.59,0-.58.36-1.22,1.15-1.87ZM193.18,25.78c-.72-.07-1.51-.14-2.38-.22-.07-.07-.14-.22-.14-.58-.07-.29,0-.58.14-.79.58-1.22.43-2.09-.5-2.45-.86-.36-1.73.14-2.59,1.51l-.22,1.87h-3.31v3.02h.58c1.01-.07,1.73-.07,2.09,0v4.18c-.29-.14-1.01-.22-2.09-.22h-.58v2.45h.43c.79.14,1.58,0,2.23-.58,0,2.23,0,4.46.07,6.62.07,2.3.72,3.31,1.87,3.17.94-.22,1.51-1.3,1.51-3.24s.14-4.1.29-6.77l2.59.29v-2.3h-.07c-1.15,0-1.94.14-2.52.36-.07-.72-.07-1.44,0-2.23.07-.72.22-1.22.43-1.51.86.07,1.58.14,2.16.14v-2.74ZM184.18,25.13h-3.24c-.86-1.01-1.73-1.22-2.66-.72-.86.58-1.08,1.58-.65,3.02.43,1.01.86,2.23,1.3,3.53.36,1.3.36,2.74,0,4.18-.14.72,0,1.3.43,1.8.5.43,1.3.07,2.45-1.08.94-.79,1.73-1.22,2.38-1.3v-2.45c-.86.07-1.66.14-2.38.22-.36-.29-.43-.79-.14-1.51.29-.65.43-1.51.36-2.45.65-.07,1.37-.14,2.16-.22v-3.02Z"/>
      <path class="cls-3" d="M230.69,25.13c-.65.07-1.3,0-1.8-.07v3.31c1.01-.58,1.8-1.3,2.23-2.09.5-.86.36-1.22-.43-1.15h0ZM228.89,38.59v-4.97c1.01-.14,2.09-.43,3.1-.79.86-.58,1.22-.29,1.08.72-.14,1.08-.94,2.45-2.38,4.18-.65.36-1.22.65-1.8.86ZM228.89,25.06c-.36-.07-.65-.14-1.01-.29-.65-.22-1.08.14-1.37,1.08-.14,1.01-.07,1.8.29,2.3.36.5,1.08.58,2.09.22h0v-3.31h0ZM228.89,33.62v4.97c-1.66.65-3.31.58-4.9-.14-2.23-1.08-5.11-2.74-8.71-4.9-1.22-.86-1.87-1.8-1.87-2.74-.07-.94.5-2.09,1.66-3.6.5-.86.94-1.44,1.3-1.73.43-.43.94-.5,1.58-.36,1.08.29,1.37,1.08.72,2.23-.58,1.15-.79,1.87-.72,2.16.22.29.58.58,1.22.86.58.29.86.5.94.58.22-1.51.58-2.95,1.15-4.46.43-1.51,1.01-2.95,1.73-4.18.5-1.01,1.15-1.3,1.94-.94.79.5,1.01,1.3.43,2.59-.43,1.01-.94,2.09-1.58,3.24-.72,1.15-1.51,2.59-2.52,4.18,1.22,1.08,2.81,1.73,4.82,2.16.94.14,1.87.14,2.81.07h0ZM212.69,26.5c-1.22-.29-2.16.07-2.95,1.22-.86,1.01-1.66,2.88-2.59,5.54-.43,1.51-.14,2.38.79,2.74.86.29,1.8-.5,2.74-2.45.94-2.23,1.73-3.82,2.3-4.9.65-1.01.58-1.73-.29-2.16Z"/>
      <g>
        <path class="cls-4" d="M24.05,53.21q0-.14-.07-.14v-.36h0s0-.07.07-.07h0v-.07h.07v-.07h.07v-.07h0v-.07h.07v-.07h0l.07-.07h0l.07-.07h0v-.07h.07v-.07h0l.07-.07h0l.07-.07h0v-.07h.07v-.07h0l.07-.07h.07v-.07h.07q0-.07.07-.07h.07v-.07h.29v.07h0v.07h0v.07h.07v.29h0v.07h.07s0,.07.07.07v.07h0q-.07,0-.07.07h0c-.07,0-.07.07-.07.07v.07h-.07v.07h0c0,.07-.07.07-.07.07h0v.07h-.07v.07h0s0,.07-.07.07h0v.07h-.07l-.07.07h0q-.07,0-.07.07h0q-.07,0-.07.07h0v.07h-.14c0,.07-.07.07-.07.07h-.07c0,.07-.07.07-.07.07h-.43Z"/>
        <path class="cls-4" d="M27.94,52.85h-.14v-.07h-.07v-.07h0c-.07,0-.07-.07-.07-.07h0c-.07,0-.07-.07-.07-.07h0q-.07,0-.07-.07h0q-.07,0-.07-.07h0s-.07,0-.07-.07h-.07v-.07h-.07v-.07h-.07v-.07h-.07v-.07s0-.07-.07-.07v-.07h0v-.07h0v-.14h0v-.07h.14l.07-.07h0v-.07h.58v.07h.14v.07h.14c0,.07.07.07.07.07h0q0,.07.07.07h.07v.07h.07s0,.07.07.07h0v.07h.07v.07h.07v.22h0v.07h.07v.07h0v.22h-.07v.07h0s0,.07-.07.07h-.07v.07h-.5Z"/>
        <path class="cls-4" d="M33.77,52.56s0-.07.07-.07h0l-.07.07Z"/>
        <path class="cls-4" d="M33.62,52.06v-.07l.07-.07h0v.07c0,.07-.07.07-.07.07Z"/>
        <path class="cls-4" d="M28.15,51.19v-.07h-.14s-.07,0-.07-.07h-.14v-.07h-.07q-.07,0-.07-.07h-.14v-.07h-.14v-.07h-.22c0-.07-.07-.07-.07-.07h-.22l-.07-.07h-.07v-.07h0v-.07h.07v-.14h-.07l.07-.07h0v-.07h.07v-.07h0v-.07h.07v-.07h0v-.07h.07v-.07h.07v-.07h.14v-.07h.5v.07h.14l.07.07h.07l.07.07h.07v.07h.07l.07.07h.07l.07.07h0q.07,0,.07.07h.14v.07h0c0,.07.07.07.07.07h0c0,.07.07.07.07.07h0v.14h-.07v.14h-.07v.07h-.07v.07h-.14v.07h-.07v.07h0v.22h-.22Z"/>
        <path class="cls-4" d="M44.42,52.99v-.07h-.14l-.07-.07h-.07s-.07,0-.07.07h-.14q0-.07-.07-.07h-.07v-.07h-.22l-.07-.07h-.07v-.07h-.07s0-.07-.07-.07h-.07v-.07h0q-.07,0-.07-.07h-.07v-.07h-.14v-.07h-.07v-.07h-.07v-.07h-.07v-.07h-.07v-.07h-.07s0-.07-.07-.07h0v-.07h-.07v-.07h-.07v-.07h-.07q-.07,0-.07-.07h-.14v-.07h-.07v-.07h-.07v-.07h-.07q0-.07-.07-.07h0c-.07,0-.07-.07-.07-.07h-.07v-.07q-.07,0-.07-.07h-.14v-.07h-.14v-.07h-.14l-.07-.07h-.07l-.07-.07h0l-.07-.07h0l-.07-.07h-.07v-.07h-.07l-.07-.07h0s0-.07-.07-.07h-.07v-.07h-.07v-.07h-.07q-.07,0-.07-.07h-.07v-.07h-.14v-.07h-.07q0-.07-.07-.07h-.07v-.07h-.07v-.07h-.07v-.07h-.07v-.07h-.07q-.07,0-.07-.07h-.07v-.07h-.29v.07h-.07v.07h0v.07h-.07v.07h-.07v.07h-.07v.07h-.07s-.07,0-.07.07h0s-.07,0-.07.07h-.07v.07h-.07v.07h0q0,.07-.07.07h0v.07h-.07v.07h0c-.07,0-.07.07-.07.07h0v.07h-.07v.07h-.07q-.07,0-.07.07h-.07s-.07,0-.07.07h-.14q0,.07-.07.07h-.07v.07h-.14l-.07.07h-.07l-.07.07h-.07v.07h0s0,.07-.07.07h0v.07h0l-.07.07h0v.07h-.72v.07h-.58q0-.07-.07-.07l-.07.07h-.07l-.07-.07h-.14c0-.07-.07-.07-.07-.07h-.07v-.07h-.07v-.07h0v-.07h-.07v-.07h0v-.07h0l-.07-.07h0q.07,0,.07-.07h-.07v-.07h0v-.14h.07v-.07h0v-.07h.07v-.07h0l.07-.07h0l.07-.07h.07v-.07h.07v-.07h.07q0,.07.07.07h.22v-.07h.36l.07-.07h.29l.07-.07h.07v-.07h.07c0-.07.07-.07.07-.07h0q0-.07.07-.07h0q.07,0,.14.07h.07v-.07h-.07v-.07h0l.07-.07h0v-.07h.07v-.07h.07v-.07h.07c0-.07.07-.07.07-.07h0v-.07h.22v-.14h0v-.07h0v-.07h0l.07-.07h0v-.07h.07v-.07h.07v-.07h0l.07-.07h0v-.07h0c0-.07.07-.07.07-.07h0v-.07h0l.07-.07h0v-.07h.07v-.07h0l.07-.07h0v-.07h0q0-.07.07-.07h0v-.07h0v-.07h0q0-.07.07-.07h0v-.07h.07v-.07h0v-.07h0v-.07h0v-.07h0v-.07h0v-.14h0v-.07h0v-.07h0v-.14h0v-.07h0v-.07h.07v-.07h.07v-.07h0l.07-.07h0v-.07h.07v-.07h0l.07-.07h0l.07-.07h.07v-.07h.07v-.07h.14v-.07h.22v-.07h.22q0,.07.07.07h0q0,.07.07.07h0q0,.07.07.07h0v.07h.07v.07h0c.07,0,.07.07.07.07h0q.07,0,.07.07h0v.07h0q.07,0,.07.07v.22h0v.07h0q0,.07-.07.14v.22h0v.07h0v.07h0v.07h0v.07h-.07v.07h0v.07h0s0,.07-.07.07h0v.07h0v.07h0v.14h.14l.07.07h0c0,.07.07.07.07.07h.07v.07h.07v.07h.07s0,.07.07.07h.07s0,.07.07.07h.07v.07h.07v.07h.07v.07h.07v.07h.07q0,.07.07.07h.07v.07s.07,0,.07.07h-.07q-.07,0,0,0v.07h.07v.07h0q0,.07.07.07h0v.07h.07q.07,0,.07.07h0q.07,0,.07.07h0q.07,0,.07.07h.14v.07h.07l.07-.07h0l-.07-.14.07.07.07.07h.07l.07.07h.07l.07.07h.07v.07h.07l.07.07h.07v.07h.07v.07h.07l.07.07h0q.07,0,.07.07h.07l.07.07h.07v.07h.07v.07h0l.07.07h.07v.07h.07v.07h.07l.07.07h.07v.07h.07v.07h.07v.07h.14v.07h.07v.07h.14v.07h.07v.07h.07c.07,0,.07.07.07.07h.07l.07.07h.07l.07.07h.14v.07h.14v.07h.29v.07h.29v.07h.14v.07h.07l.07.07h.36v.07h0v.07h.07v.14h0q-.07,0-.07.07h0v.07h-.07v.07h-.07v.07h-.07v.07h-.07v.07h-.07s0,.07-.07.07h-.14v.07h-.07v.07h0v.07h-.22q-.07,0-.14.07h0v.07h-.36Z"/>
        <path class="cls-4" d="M13.18,47.3h-.14l-.07-.07h-.07v-.07h-.07v-.07h0l-.07-.07h0v-.07h0l-.07-.07h0v-.07h0q0-.07-.07-.14h0v-.07h0l.07-.07h0v-.14h0s0-.07-.07-.07h0v-.07h.07v-.07h0v-.07h.22c0-.07.07-.07.07-.07v-.07h.22l.07.07h0v-.07h.29c0-.07.07-.07.07-.07h.29v-.07h.79v-.07h1.15s0-.07.07-.07h.07v-.07h.5v.07h1.08l.07.07h1.08s0,.07.07.07h.07v.07h.14s.07,0,.07.07h0v.07h.22v-.07h0l-.07-.07h.5v.07h.43v.07h.22v.07h.43q0,.07.07.07h0v.07h.07v.07h0c.07,0,.07.07.07.07h0v.22h0v.07h-.07v.07h-.07v.07h-.14v.07h-.07v.07h-.07l-.07.07h-.86v-.07h-.65v-.07h-.65v-.07h-.5q-.07,0-.07-.07h-2.52v.07h-.65l-.07.07h-.5v.07h-.07s0,.07-.07.07h-.14c-.07,0-.07.07-.07.07h-.14v.07h-.14v.07h-.07v.07h-.14Z"/>
        <path class="cls-4" d="M2.38,53.64h-.14c0-.07-.07,0-.14-.07h-.14c-.07-.07.07-.14-.07-.07h-.07l-.07-.07c-.14,0-.22,0-.22-.14h-.14c0-.07-.07,0-.07-.07,0,0,0-.07-.07-.07,0,0-.07,0-.07-.07h-.07l-.07-.07h-.07q-.07-.07-.14-.07t-.07-.07h0q0-.07-.07-.07v-.07h0v-.07l-.07-.07h.14c.07,0,.07.07.07.07h.22v-.07h0v-.14h0v-.07h.14v-.07h0q0-.07.07-.07h0l.07.07h0v.07c.07,0,.07.07.07.07v.07h0l.07.07h.14v.07h.14v-.14h.07l.07-.07v-.5h0v-.14h0v-.5h0v-.22h0v-.14h0v-.36h-.29c-.07,0-.07.07-.07.07h-.14l-.07.07h-.07q-.07,0-.07.07h-.14v.07h-.22q-.07,0-.07.07h-.14l-.07.07H.14v-.07h-.14v-.07h0v-.5h.07v-.07H.07v-.07H.07v-.07h.07v-.07l.07-.07q.07-.07.14,0v-.07q.07,0,.07-.07h.14v-.07h.07l.07.07h.22v-.07h.22s.07,0,.07-.07h.07c.14,0,.29-.07.43-.07h.14v-.14h0v-.07h0v-.94h-.22l-.07.07h-.07v.07h-.14l-.07.07h-.07q-.07,0-.07.07h-.14v.07h-.22l-.07.07h-.22l-.07-.07h-.07l-.07-.07h-.07v-.07h-.07v-.07H.14l-.07-.07H.07v-.22H.07v-.14H.07v-.07H.07v-.07l.07-.07H.14v-.14H.14l.07-.07H.22v-.07H.22s.07,0,.07-.07H.29l.07-.07h1.01l.07-.07h.29v-.07h.07l.07.07h0v-.14h.07c.07,0,.07-.07.07-.07h0v-.14h0v-.36h0q.07-.07.07-.14h0v-.14h0c0-.07.07-.07.07-.14h0v-.22h.07v-.14h0v-.14h0v-.07h0v-.07h0v-.22s.07-.07.07-.14v-.22h0v-.14h.07v-.36h0v-.07h.14q0-.07.07-.07v-.07h.22s.07,0,.07.07h.07v.07h.07v.07h.07v.07h.07q0,.07.07.07h0q0,.07.07.07h0v.07h0v.07h0c.07,0,.07.07.07.07h0v.07h0v.07h.07v.07h0v.07h0v.07h0v.14h0v.07h0v.22s0,.07-.07.07v.14h-.07v.07h0v.07h0l-.07.07h0v.36h.07v.07h0v.07h.07v.07h0l.07.07h.07v.07h.07v.07h0c0,.07.07.07.07.14h0v.07h.29v.07h0l.07.07h0v.07h.07v.07h.07v.07h0v.14h0v.14l-.07.07h0q-.07,0-.07.07h.07-.29q-.07,0-.07.07h-.07s.07,0,.07.07h-.65c0,.07-.07.07-.07.07h0c0,.07-.07.07-.07.07h0v.36h0v.14h0v.07h-.07v.07h0v.07h-.07v.29h.22l.07.07h.07l.07.07h.07c.07,0,.22.07.29.07v.07h-.07v.07h.07c0,.07.07.07.07.07v.07h.14v.07h-.14v.14s-.07,0-.07.07h0v.07s-.07.07-.07.14h0q0,.07-.07.07h-.36v-.07h-.14v.07h-.07v.29h0v.22h0v.07h0v.07h0v.14h0v.22c0,.07.07.07.07.14h0v.14h0v.07c-.07,0-.07.07,0,.07h0v.22h0v.07h0v.29h0v.07h0v.07h0v.07h0v.14c0,.07-.07.07-.07.14h0v.07h-.07v.14q0,.07-.07.07v.07h0v.14h0l-.07.07h0c-.07,0-.07.07-.14.07s-.07.07-.07,0c0,.07-.07.07-.07.07Z"/>
        <path class="cls-4" d="M7.13,44.64h.29v.07q0,.07.07.14h0v.07h.07c.07,0,.07.07.07.07h.29s0,.07.07.07h.14v.07h.07v.07h.07v.07h.07s.07,0,.07.07h0v.07h.14q0,.07.07.07h0q0,.07.07.07h0s0,.07.07.07h.07v.07h0v.07h.07v.07h.07v.07q.07,0,.07.07h0s.07,0,.07.07h.07v.07h.07v.07h0q0,.07.07.07h0v.07h.07v.07h.07v.07h0l.07.07h0v.07h0v.07h.07v.22h-.07q-.07.07,0,.07h0v.22h-.22v.07h0q-.07,0-.07.07h0v.07h-.07v.14h-.22v.07c-.14,0-.22-.07-.29-.07h-.22c-.07,0-.14.07-.14,0h-1.22v-.94h.94q0-.07.07-.07h0v-.07h0c-.07,0-.07-.07-.07-.07h0v-.07h-.07v-.07h-.07s-.07,0-.07-.07h-.07v-.07h-.07l-.07-.07h-.14l-.07-.07h0v-.07h0v-.07h.07v-.07h-.07v-.14h-.22v.07h-.07v-1.08ZM6.41,47.59h-.14q-.07-.07-.14-.07c.07,0-.07-.07,0-.07h-.29q-.14,0-.36-.07c-.14.07-.29.07-.43,0h0c-.07,0-.07-.07-.14-.07h.07c0-.07-.07,0-.14,0-.07-.07-.14-.07-.14-.14s0-.07-.07-.07v-.07h-.07v-.29h.07v-.07s0-.07.07-.07h0q0-.07.07-.07h0v-.07h0c.07,0,.07-.07.07-.07h0c.07,0,.07-.07.07-.07h0q.07,0,.07-.07h.07v-.07h.07v-.07h.07q0-.07.07-.07h0q0-.07.07-.07h0q0-.07.07-.07h.07v-.07h0q.07,0,.07-.07h0v-.07h.14v-.07h0s.07,0,.07-.07v-.07h.07l.07-.07h.07q0-.07.07-.07h0q0-.07.07-.07h0v-.07h.07v-.07h.14v-.07h.07v-.14h.07v-.07h.22l.07-.07h.07q.07,0,.07-.07h.22v1.08h0l-.07.07h-.07v.07h-.14v.07h-.07v.07h-.07v.07h-.07l-.07.07h-.07c0,.07-.07.07-.07.07h-.07v.07h-.07v.07h-.07v.07h0s0,.07-.07.07h0v.07h0v.07h1.01v.94h-.72Z"/>
        <path class="cls-4" d="M8.42,54h-.07s0-.07-.07-.07h-.07v-.07h0v-.07h0c-.07-.07-.07-.14-.07-.14v-.07h0v-.07h0v-.36h0v-.5h0v-.14h0v-.07h-.22c-.07,0-.22,0-.29-.07h-.79v-.86h.72v.07h.58v-.07h.07v-.07h0v-.14h0v-.07h0v-.07h0q-.07,0-.07-.07v-.07h0v-.14h0v-.07h-.79l-.07-.07h0s-.07,0-.07.07h-.36v-.86h1.22s0-.07.07-.07h0v-.07h0v-.07h0q-.07,0-.07-.07h0v-.07h0v-.07h0v-.14h0v-.07h0v-.07h0v-.07h-1.22v-.94h.07c0,.07.07,0,.07.07h.29c0-.07.07,0,.07-.07h.22c.07.07.07,0,.07.07h.14v-.07h.22c0,.07.07.07.07.07h.36c0,.07.07.07.07.07h.43v.07h.07v.07h.07c0,.07.07.07.07.07h0v.07h.07v.14h.07v.36h0v.07h-.07v.07h0l-.07.07h0v.36h0v.07h0v.07c0,.07-.07.07-.07.14v.14h0v.07h0v.14q-.07,0-.07.07h.07v1.08q0,.07-.07.14v.36h0v1.08h0v.5h0v.14h0v.14c0,.07-.07.07-.07.14-.07,0-.43-.14-.5,0ZM6.84,52.34h-1.44l-.07.07h0v.07h0l-.07.07v.14h0c-.07,0-.07.07-.07.07h0v.14q-.07,0-.07.07v.07h0c0,.07-.07.07-.07.07h0v.07h-.07v.14h.07v.07h-.07v.29h-.07v.07h-.07v.07h-.07v-.07h-.43l-.07-.07c-.07-.07-.07-.22-.07-.36v-.07h0v-.07h0c.07-.07.07-.14.07-.22h0v-.14q.07,0,.07-.14l.07-.07v-.14s.07,0,.07-.07v-.07h0q.07,0,.07-.22h0v-.22h0q0-.07.07-.07v-.07h0v-.14h.07v-.07h-.07v-.07q.07-.07.14-.29h-.07v-.07h0l.07-.07v-.14l-.07-.07v-.07q.07,0,.07-.14v-.22c.07-.07.07-.14.14-.22l-.07-.07v-.07c.07-.07.07-.14.07-.22l.07-.07-.07-.07c.07,0,.07-.07.14-.14h-.07v-.22l.07-.14h-.07v-.07q.07-.07,0-.14h0v-.29h0v-.07h0q0-.07.07-.07v-.07h.14v-.07q.07,0,.14-.07h.07c.07,0,.14,0,.14-.07h1.3v.86h-.22c-.07,0-.07.07-.07.07h-.58c-.07,0-.07.07-.07.07h-.14v.14h0v.22h0v.14h0v.07h-.07v.07h0v.07h.58c.07,0,.07-.07.07-.07h.5v.86h-.5v.07h-.72v.07h-.07v.07h0v.07h-.07v.07h0v.22h0v.14h0q.07,0,.07.07h.43v-.07h.86v.86Z"/>
        <path class="cls-4" d="M18.22,47.88h.22s.07,0,.07.07h.07l.07.07h.22c.07,0,.14,0,.14.07h.94v.07h.22v.07h0v.07h0v.14h0v.07h0v.07h.07v.07h0v.07h.07v.07h0v.07h0v.07h0v.07h-.07v.07h-.07v.07h0v.22h-.07v.07h0q-.07,0-.07.07h0q-.07,0-.07.07h0c0,.07-.07.07-.07.07h0v.07h0v.07h0c0,.07-.07.07-.07.07v.07h0v.07h0v.07h0v.07h0v.07h-.07v.14h0s0,.07-.07.07h0v.07h-.07v.14h0l-.07.07h0v.14h0v.29h0v.07h0v.07h0q.07,0,.07.07v.07h.07v-.07h.07s.07,0,.07.07h.07v.07h.86v.07h.29v.07h.14c0,.07.07.07.07.07h.07v.07h0s0,.07.07.07h.22v.07h0v.07h-.07v.07h-.07v.07h0v.07h-.07v.07q-.07,0,0,0h0v.07h-.07v.07h-.07c0,.07-.07.07-.07.07h-.07v.07h-.14v.07h-.86v-.07h-.36s0-.07-.07-.07h-.14v-.07h-.58v-.07h-.43s-.07,0-.07-.07h-.22v-1.08h.07v-.07h0v-.22h0v-.07h0v-.07h.07c0-.07.07-.07.07-.07v-.14h0v-.07h0l.07-.07h0v-.14h0v-.07h0l.07-.07h0v-.07h0v-.07h0v-.07h0q0-.07.07-.07v-.07h0v-.07h0v-.07h0v-.07h.07v-.07h0v-.07h0v-.07s0-.07.07-.07h0v-.07h0v-.14h0v-.07h0q-.07,0-.07-.07h-.36s-.07,0-.07-.07h-.07v-1.01ZM16.56,47.81h.65s0,.07.07.07h.5s0-.07.07-.07h.07l.07.07h.22v1.01h-.29v.07h.07l-.07.07h0v.07h0v.07h0v.07h0v.36h0v.07h0v.07h-.07v.07h0v.14h0v.14h0v.07h0v.07h0l-.07.07h0v.07h0v.07h0v.07h0v.07h-.07v.22h0v.07h0v.07h-.07v.07h0v.07h0v.07h.07v.07h.36v.07h.14v1.01h-1.66v-1.15h.07v-.07h0v-.07h.07v-.14h0v-.07h0v-.14h0v-.07h.07v-.07h0v-.14h0v-.14h0v-.07h0v-.07h.07v-.14h0v-.22h0v-.14h0c0-.07.07-.07.07-.07h0v-.07h0v-.07h0v-.14h0v-.14h0v-.07h.07v-.07h0v-.07h0v-.07h-.36v-.07h-.07v-.94ZM15.05,47.95h.58c0-.07.07-.07.07-.07h.29v-.07h.58v.94h-.07v.07h-.07v.07h0v.22h0v.07h0v.07h0c0,.07-.07.07-.07.07v.07h0v.07h0v.07h0v.07h0v.07h-.07v.07h0v.22h0v.07h0v.07h0v.07h-.07v.07h0v.07h0v.14h0v.07s0,.07-.07.07v.07h0c.07,0,.07.07.07.07v.07h0v.07h0v.22h0v.07h.36v1.15h-1.51v-1.08h.22v-.07h0v-.14s0-.07.07-.07v-.07h0c-.07,0-.07-.07-.07-.07h0v-.07h0q0-.07.07-.14h0c-.07,0-.07-.07-.07-.07h0v-.07h0s0-.07.07-.07h0v-.07h0v-.07h0v-.22h0v-.07h0v-.22h0v-.07h0v-.07h0v-.07h0v-.07h0l.07-.07h0v-.22h0s0-.07-.07-.07h0q.07,0,.07-.07h-.07v-.07h-.22v.07h-.07v-1.08ZM11.88,52.92v-.07h-.07v-.07h-.07v-.07h-.07v-.14h0v-.07h0s0-.07.07-.07v-.07h0l-.07-.07h0q0-.07.07-.07h0v-.07h.07v-.07h0v-.22h.07v-.07h.07v-.14h.29q.07-.07.14-.07h.07v.07h.14q0,.07.07.07v-.07h.29v.07h.36v-.07h.14v-.07h0v-.07q0-.07-.07-.07h0v-.36h0v-.14h0v-.43h0v-.07h0v-.07h0c0-.07,0-.14-.07-.14v-.07h0c.07,0,.07-.14,0-.14h0v-.14h.07v-.14h0v-.07h0v-.07h0v-.07h-.07v-.07h0v-.07h0v-.07h.07v-.07h.07v-.07h.07v-.07h0v-.07h.07v-.07h.07v-.07h0q.07,0,.07-.07h-.07v-.07h0v-.07h-.14v-.07h0v-.07h0l.07-.07h0v-.07h0v-.07h.14v-.07h.58q0-.07.07-.07h.43v-.07h.14c0-.07.07-.07.07-.07h0v1.08h0c0,.07-.07.07-.07.07h-.14v.07h-.07s0,.07-.07.07h0v.14h0v.07h0v.07h.07v.14h0v.29h0v.22h0v.14h0v.07h0v.22h0v.07h0v.14h0v.36h.07v.07h.22v1.08h-.07l-.07.07h-.07v-.07h-.14v.07h-.07v-.07h-.22v.07h-.43v.07h-.22l-.07.07h-.5c-.07,0-.07.07-.07.07h-.14l-.07.07h-.14s0,.07-.07.07h-.14q-.07,0-.07.07h-.14q-.07-.07-.07,0h-.14s-.07,0-.07.07h-.14Z"/>
        <path class="cls-4" d="M30.02,46.22h.07v-.07h.07v-.07h0v-.07c.07,0,.07-.14,0-.14v-.07h.22v-.07h.14v-.07h0v-.07h.14v.07h.07l.07.07h.07v.07h.07v-.07h.36v.07h.07v.07h.07v.29h0v.07h-.07v.07h0v.07h0s0,.07-.07.07h-.07v.07h0v.07h-.07v.07h-.14v.07h-.07v.07h0c0,.07-.07.07-.07.07h0c0,.07-.07.07-.07.07h0v.07h0l-.07.07h0s0,.07-.07.07h0l-.07.07v.07h0v.07h-.07v.07h-.07v.07h-.07v.07h-.07v.07h0v.07h-.07v.07h-.07c0,.07-.07.07-.07.07v.07q0,.07.07.07v-.07h.5v-.07h.65v-.07h.36l.07-.07h.29c.07,0,.07-.07.07-.07h.29v-.07h.43s.07,0,.07-.07h.29v.07h.14v.07q-.07,0-.07.07h.07v.07h0v.14h-.07v.14h.07v.07h-.07v.07h0l-.07.07h0v.07h-.07c-.07,0-.07.07-.07.07h-.07v.07h-.07v.07h-.14l-.07.07h-.22s-.07,0-.07.07h-.5q-.07,0-.07.07h-.22v.07h0v.07h0c0,.07.07.07.07.07h0v.07h0v.07h.07v.07h0v.29h-.07v.07h0v.07h0v.07h0v.07h0v.07h0c0,.07-.07.07-.07.07v.07h0v.22h0v.07h0v.07h-.07v.07h0v.07h0v.07h0s-.07,0-.07.07h0v.07l-.07.07h0v.07h0v.07h0q0,.07-.07.07h0v.07h0s0,.07-.07.07h0c.07,0,.07.07.07.07h0c.07,0,.07.07.07.07h0v.07h.07v.07h.07s.07,0,.07.07h.07v.07h.14v.07h.07v.07h.07v.07h.14v.07h.07l.07.07h.07s0,.07.07.07h.14v.07h.22v.07h.29v.07h.14q0-.07.07-.07h.14l.07-.07h.07v.07h0v.07q-.07,0-.07.07h.07c0,.07.07.07.07.07h0v.14h-.07v.07h0v.14h-.07l-.07.07h0v.07h-.07v.07h-.07v.07h0v.07h-.07v.07h0v.07h-.14l-.07.07h-.07l-.07.07h-.58c-.07,0-.07-.07-.07-.07h-.22v-.07h-.14v-.07h-.14s-.07,0-.07-.07h-.14v-.07h-.14q0-.07-.07-.07h0v-.07h-.07v-.07h-.07v-.07h-.07v-.07h-.07v-.07h-.07v-.07h-.07v-.07h0s-.07,0-.07-.07h-.07v-.07h-.07q0-.07-.07-.07h-.07q-.07,0-.07.07h-.22v.07h-.07v.07h-.07v-2.52s.07,0,.07.07h0s.07,0,.07.07h0s.07,0,.07.07h.07v.07h.07v.07h.14v-.07h.07v-.07h.07v-.07h0v-.22h0v-.14h0v-.07h0v-.07h0v-.07h0v-.07h0v-.07h0v-.07h0v-.14h0s0-.07-.07-.07h0v-.07h.07v-.07h-.29v.07h-.36v-2.81ZM26.06,53.71q-.07-.07-.14-.07v-.07h-.07v-.07h-.07v-.72h0v-.07h0v-.07h0v-.07h0v-.79h0v-.07s0-.07-.07-.07h0v-.14h0v-.14h0v-.07h0v-.36h0v-.14h0l-.07-.07h-.07v.07h-.07q-.07,0-.07.07h0s-.07,0-.07.07h-.22v.07h-.14v.07h-.14v.07h-.29c-.07,0-.07.07-.14.07h0q0-.07-.07-.07v.07h-.22c-.07,0-.07-.07-.07-.07h-.14v-.07h0s-.07,0-.07-.07h0v-.07h0v-.07h0c0-.07.07-.07.07-.07h0v-.07h0c0-.07.07-.07.07-.07h0s0-.07.07-.07h0v-.07h0v-.07h0l.07-.07h0v-.07h.07l.07-.07h.29c0-.07.07-.07.07-.07h.14v-.07h.14v-.07h.14c.07,0,.07-.07.07-.07h.07l.07.07h.22v-.07h.14v-.14h0v-.14c-.07,0-.07-.07-.07-.07h0v-.07h0v-.07h0v-.07h0v-.22h-.07v-.07h-.43v.07h-.72s0,.07-.07.07h-.22c-.07,0-.07-.07-.07-.07h0s-.07,0-.07-.07h0v-.07s-.07,0-.07-.07h0c0-.07.07-.07.07-.07h0v-.07h0v-.07h0c0-.07.07-.07.07-.07h0v-.07h.07v-.07h0s0-.07.07-.07h.07l.07-.07h0v-.07h.07v-.07h.14c0-.07.07-.07.07-.07h.14c0-.07.07-.07.07-.07h.36v-.07h.29q0-.07.07-.07h0q.07,0,.07-.07h-.07v-.14h0v-.14h0v-.07h0v-.07h0v-.07h0v-.07h0v-.07h0v-.07h0v-.07h0v-.43h0v-.07l.07-.07h0v-.07h0v-.07h0v-.14h0l.07-.07h0v-.07h0q0-.07.07-.07h0v-.07h0v-.07h0v-.07h.07v-.07h.07v-.07h0s.07,0,.07-.07h0s.07,0,.07-.07h.22v-.07h.36v-.07h.36v.07h.07v.07h0v.07h0v.07h0v.22h0v.07h0v.07h0q-.07,0-.07.07h0q-.07,0-.07.07h0l-.07.07h0v.14h0v.14h0v.07q-.07,0-.07.07v.07l.07.07h0v.07h0v.07h0v.07q-.07,0-.07.07v.07h0v.07h0v.14h0v.07h-.07v.14h0v.14h0v.07h0v.07h0l.07.07h.07v-.07h.22v.07h.36l.07-.07h.07s0,.07.07.07h.94q.07,0,.07.07v.07h0v.07l-.07.07h0v.07c.07,0,.07.07.07.07h.07s.07,0,.07-.07h0v-.07h.22v-.29h0v-.07h.07v-.07h0s0-.07.07-.07h0v-.07h.07v-.07h0q.07,0,.07-.07h0l.07-.07h0v-.07c0-.07.07-.07.07-.07h0v-.07h.07v-.14h.07v-.07h.07v-.07l.07-.07h0v-.07h.07v-.07h0q0-.07.07-.07h0v-.07h.07v-.07h0c.07,0,.07-.07.07-.07h0c.07,0,.07-.07.07-.07h0v-.07,2.81h-.14q0,.07-.07.07h-.14c-.07,0-.07.07-.07.07h-.14l-.07.07h0l.07.07h.07v.07h.07v.07h.07v.07h0l.07.07h.07v.07h0l.07.07h0v.07h.07v.07h.07v.07h0v2.52h-.14q0,.07-.07.07h-.07q-.07,0-.07-.07h-.22v-.07h-.07v-.07h-.07c-.07,0-.07-.07-.07-.07h-.07q0-.07-.07-.07v-.07h.14v-.07h.07v-.07h-.07s0-.07-.07-.07h0v-.07h0l-.07-.07h.36q0,.07.07.07v-.07h.07v-.07l.07-.07h.14v-.07h.07v-.07h0v-.07h0v-.07h-.07v-.07h0v-.07h-.07v-.07h0q-.07,0-.07-.07h0q-.07,0-.07-.07h-.07v-.07h-.07v-.07h-.07v-.07h-.07v-.07h0v-.07h-.07v-.07h-.07v-.07h0s0-.07-.07-.07h0v-.07h0v-.07h-.07v-.07h0l-.07-.07h0v-.07h0l-.07-.07h0l-.07-.07h0v-.07h0s-.07,0-.07-.07h0v-.07h0v-.07h-.07v-.07h.07c0-.07.07-.07.07-.07h0c0-.07-.07-.07-.07-.07h0v-.07h.07v-.07h-.07l-.07-.07h0s0-.07-.07-.07h0l-.07-.07h0v-.07h-.07v-.07h-.79v.07h-.14c-.07,0-.14,0-.14-.07h-.72c0,.07-.07.07-.07.07h-.07v.07h0v.36h0v.14h0v.07h.07v.07h-.07v.14h0c0,.07.07.14.07.14v.14h0v.07h0v.14h0v.07h0v.07h0v.14h0v.14h0v.07h0v.07h0v.36h0l.07.07h0v.07h0v.22h0v.07h0v.14h0c0,.07.07.07.07.07v.07h0v.36h0v.07h0v.14h0v.14s0,.07.07.07h0v.07h0v.22h0v.22h0v.07h0s-.07.07-.14.07h0v.07h-.07v.07h-.07v.07h-.07c-.14,0-.29,0-.36.07Z"/>
      </g>
      <line class="cls-2" x1="54.36" y1="18.65" x2="233.42" y2="18.65"/>
      <path class="cls-3" d="M66.02,9.58c-.58.14-1.3.14-2.3,0h-.65v.94c.29,0,.58.07.86.14-.29.22-.58.36-.86.29v.86q.14.07.14.14c-.07.22-.07.5-.07,1.01h-.07v.29l.07-.07c0,.07,0,.36.07.86h-.14v1.01c.14,0,.29.07.36.07.36,0,.58-.07.72-.36.14-.22.22-.43.14-.72v-1.51c.07-.86.14-1.37.29-1.51.07,0,.22.07.43.14.22.07.36.07.5-.07.22-.29.43-.65.65-1.01.14-.36.14-.5-.14-.5h0ZM63.07,8.86c.14-.07.22-.14.36-.22.22,0,.5.07.79.14.29.14.43.14.58-.07.07-.07,0-.22-.07-.22-.14-.07-.36-.22-.79-.36.07-.14.14-.22.07-.29v-.22c.36.14.65.14.79.07.22-.14.36-.22.5-.36.07-.22,0-.36-.22-.36-.29,0-.43,0-.58-.07,0,0,.07-.07.07-.22.07-.14.22-.29.36-.36.07-.29.07-.43-.14-.58-.22-.07-.36-.07-.5.07l-1.22-.07v.79c.22-.07.36-.07.58-.14.29-.14.22.07-.22.65h-.36v.58h.14c.07.07,0,.14-.14.29v.94ZM63.07,9.58c-.58-.07-1.3-.07-2.23,0v.79h.14c.22,0,.29.14.29.43-.22-.07-.36-.07-.43-.07v1.08h.22v.29h-.22v.65h1.08c.58,0,.86-.14.94-.29.14-.22.14-.36,0-.43-.14-.07-.22-.14-.43-.07-.36.07-.58.07-.58.07,0,0,0-.14.07-.36.58,0,.94.07,1.15.14v-.86h0c-.36-.14-.65-.14-1.01-.07v-.36c.29-.07.65-.07,1.01,0v-.94h0ZM60.84,9.29c.07-.07.14-.14.22-.29.22.36.58.43.94.29.29-.07.65-.22,1.08-.43v-.94h0c-.43-.07-.72-.07-1.01-.07-.29.07-.5.14-.5.29s.14.22.36.22.36,0,.43.07c-.07.07-.36.07-.72.14-.29,0-.5.07-.65.22h-.14v.5h0ZM63.07,5.76v.79h-.72c-.07.22,0,.43.22.43.07,0,.29.07.5.07v.58c-1.44.14-2.23.22-2.23.22v.07-.58c0-.07.07-.07.14-.14.22-.07.29-.07.29-.14-.07-.5,0-.86.14-1.15.07-.29.36-.36.72-.29l.94.14h0ZM60.84,7.27c.07-.07.14-.14.14-.22.07-.14,0-.29-.14-.29h0v.5h0ZM60.84,6.26c.22,0,.36-.07.29-.22,0-.14-.14-.22-.29-.22v.43h0ZM60.84,14.69c.07,0,.14.07.29.07.86.07,1.51.22,1.94.29v-1.01c-.5-.07-1.15-.14-2.09-.14h-.14v.79h0ZM63.07,12.96v.29c-.22.36-.58.5-.94.43-.36-.07-.79-.07-1.3-.07v-.72c1.01,0,1.73.07,2.23.07ZM60.84,9.58c-.36,0-.79.07-1.22.07v.72h.29l-.22.29h-.07v2.16c.43,0,.86-.07,1.22-.07v-.65h-.29v-.29h.29v-1.08c-.22-.07-.36-.07-.43-.07s-.07-.07.07-.29h.36v-.79h0ZM59.62,9.36h.43c.36,0,.58,0,.79-.07v-.5l-.36-.07c.07-.07.07-.22,0-.29-.14-.07-.14-.22-.22-.29.14,0,.29-.07.43-.14,0,0,.07,0,.14-.07v-.58c-.07,0-.07.07-.07.22-.14-.07-.29-.14-.43-.07-.14,0-.36,0-.58.07l-.07-.36.79.14c.14,0,.22-.07.36-.07v-.5h-.94c0-.14-.07-.22-.14-.29-.07,0-.07-.07-.14-.07v1.8c.07.14.22.36.43.58,0,.07-.14.07-.43,0v.58h0ZM59.62,6.26h.14c.29,0,.5.07.58.07.22,0,.36,0,.5-.07v-.43h-.07c-.36.07-.72.07-1.15,0v.43h0ZM59.62,14.69h1.22v-.79c-.43,0-.79.07-1.22.07v.72h0ZM60.84,12.89v.72c-.22,0-.43,0-.65.07-.14-.07-.29-.07-.58,0v-.72c.29,0,.65-.07,1.08-.07h.14ZM59.62,9.65c-.36,0-.79.07-1.22.07v.72c.58-.07.94-.07,1.22-.07v-.72h0ZM58.39,9.58c.5-.14.94-.22,1.22-.22v-.58c-.14,0-.29,0-.43-.07,0-.07,0-.22.07-.36.07-.22.22-.29.29-.22l.07.07v-1.8c-.07-.07-.22-.14-.43-.14h.43v-.43c-.07-.07-.14-.07-.22-.07-.29-.07-.58-.14-1.01-.14v.65h.14c.29,0,.5,0,.58.07-.07,0-.14.07-.29.07-.14.14-.22.29-.36.43h-.07v.36c.14,0,.22-.07.29-.07.22,0,.22.07.14.43,0,0-.07.07-.43.14v.58l.22-.07-.14.5h-.07v.86h0ZM59.62,10.66c-.43,0-.86.07-1.22.07v1.08h1.15v.29c-.5.07-.79.14-.72.36,0,.22.22.36.65.43.07,0,.14,0,.14-.07v-2.16h0ZM58.39,14.83c.43-.07.79-.14,1.22-.14v-.72c-.36.07-.79.14-1.22.29v.58h0ZM59.62,12.96v.72h-.22c-.36.07-.58,0-.58-.36.07-.14.36-.29.79-.36ZM58.39,9.72c-.22,0-.5.07-.79.07.29-.07.58-.14.79-.22v-.86l-.72.22.14-.5.58-.14v-.58h-.29c-.14-.07-.14-.14-.07-.36.14-.07.29-.14.36-.14v-.36s-.07,0-.22.07h-.36c-.07,0-.14-.14-.22-.43-.07-.22-.14-.36-.22-.43-.22-.36-.36-.5-.5-.36-.07.14-.14.29-.14.58.14.36.29.72.5,1.08.14.36.07.86-.14,1.44-.22.29-.36.5-.36.58-.07.14.07.29.29.5-.07,0-.36.07-.86.22-.5.07-.79.14-1.01.29-.29.14-.43.29-.29.5.07.22.22.29.58.22,1.01-.29,1.94-.5,2.81-.65h.14v-.72h0ZM58.39,5.62v.65c-.22,0-.43-.07-.58-.14-.14-.07-.29-.14-.29-.22,0-.14.07-.22.14-.29h.72ZM58.39,10.73v1.08h-.22c.22.22.29.5.14.94-.07.43-.14.94-.22,1.58.07,0,.22-.07.29-.07v.58c-.14,0-.29.07-.5.07-.22.07-.36.07-.5,0-.07-.07-.07-.36.14-.79.07-.36.14-.79.07-1.22,0-.43-.14-.72-.29-.94-.14-.14-.07-.43.07-.79.14-.22.5-.36,1.01-.43Z"/>
      <path class="cls-3" d="M80.21,10.87c-.5.14-1.08,0-1.8-.43-.43-.29-.72-.5-1.01-.65v1.73c.14.22.29.43.43.65.29.36.65.5,1.15.29.65-.36,1.08-.72,1.3-1.01.14-.29.14-.5-.07-.58h0ZM77.4,9.22c.14-.14.22-.29.07-.43.72,0,1.08-.07,1.3-.29.07-.14,0-.29-.29-.29-.14,0-.5-.07-1.08-.07v1.08h0ZM77.4,7.34h.07c.36-.14.58-.22.65-.43.07-.14-.07-.29-.29-.29h-.43v.72h0ZM77.4,14.18v-.86c.07.07.22.07.29.14.29.07.5.07.5.07.22.14.14.29-.22.5-.22.14-.36.14-.58.14ZM77.4,9.79c-.22-.07-.36-.14-.5-.22.07,0,.22-.07.43-.29l.07-.07v-1.08h-.36c-.29-.07-.5-.07-.72-.07v.65c.29,0,.58.07.86.07-.22.07-.5.29-.79.5h-.07v2.88c.14-.07.14-.14.22-.22.07-.36.14-.72.36-.94.22.14.36.36.5.5v-1.73h0ZM76.32,7.27c.43,0,.79.07,1.08.07v-.72h-1.08v.65h0ZM77.4,13.32v.86c-.22,0-.36-.07-.58-.22-.29-.22-.36-.5-.36-.79.07-.22.22-.22.58-.14.07.14.22.22.36.29ZM76.32,8.06h-.79v.58c.22,0,.5,0,.79.07v-.65h0ZM75.53,7.34c.29-.07.58-.07.79-.07v-.65h-.79v.72h0ZM75.53,12.31c.36,0,.65,0,.79-.14v-2.88c-.14-.07-.43-.29-.79-.58v.86c.07,0,.07.07.07.14h-.07v.65c.29,0,.5.07.72.14-.14.14-.29.5-.29,1.15h-.43v.65h0ZM75.53,11.23v-.36c.14,0,.22.07.22.22,0,.07-.07.14-.22.14ZM75.53,8.06c-.29,0-.5,0-.79.07.22-.22.22-.36.07-.43h-.14v1.08c.14.07.29.14.36.22.22.14.36.36.5.58v-.86c0-.07-.07-.07-.07-.07h.07v-.58h0ZM74.66,7.34h.86v-.72h-.86v.72h0ZM74.66,6.34c.43-.58.43-.86,0-.86v.86h0ZM74.66,15.26h.07c.29-.07.43-.36.5-1.01l.07-2.02c.07.07.14.07.22.07v-.65h-.86v3.6h0ZM75.53,9.72v.65h-.86v-.72c.29,0,.58,0,.86.07h0ZM75.53,10.87v.36l-.07.07h-.79v-.43h.86ZM74.66,7.7c-.14,0-.36.14-.72.5-.94.07-1.44.14-1.51.36h0v.22c0,.07.14.14.36.14l.79-.14c-.07,0-.14.14-.14.29-.07.22-.22.43-.29.65-.36-.14-.58-.22-.72-.22v.58c.07.07.22.07.36.14,0,0-.14.07-.36.22v.94c.14-.14.29-.29.43-.36,0,0,0,.07.07.36.07.29,0,.43-.07.58-.22.29-.29.5-.22.65,0,.22.14.22.29.07.22-.14.43-.22.65-.29h.58l.07,1.94c.07.58.22.94.43.94v-3.6c-.36,0-.79.07-1.22.14v-1.3c.43-.07.86-.14,1.22-.14v-.72c-.36,0-.65.07-.94.14,0-.07.07-.22.14-.5.14-.22.22-.43.36-.5h.43v-1.08h0ZM72.43,7.49c.65-.07,1.44-.14,2.23-.14v-.72h-.22c.07-.07.14-.22.22-.29v-.86h0c-.43,0-.72.36-.94,1.15-.58,0-1.01.07-1.3.14v.72h0ZM74.66,10.87v.43h-.72c-.14-.07-.22-.14-.22-.22-.07-.07,0-.14.22-.22h.72ZM72.43,14.18v-.86c.29-.07.43-.14.5-.14.29-.14.43-.07.43.14-.07.29-.36.5-.94.79v.07ZM72.43,8.57c-.07.07,0,.14,0,.22v-.22h0ZM72.43,9.5c-.22,0-.29.07-.29.22s.07.29.29.36v-.58h0ZM72.43,10.44v.94c-.22.07-.36.14-.5.22-.29.22-.43.29-.43.29-.22.29-.58.5-1.08.79-.22.07-.43.14-.65.14v-.94c.43-.07.72-.36.94-.79.29-.72.22-1.51-.14-2.3-.29.14-.58.22-.79.29v-.79h0c.22,0,.43.07.72.07-.14-.65-.14-1.08.07-1.44.14-.36.43-.29.79.14.14.07.36,0,.65-.14.07-.07.22-.14.43-.14v.72c-.22.07-.43.07-.65.14-.22.07-.29.36-.14.86.07.43.07,1.3.14,2.38.29-.14.5-.29.65-.43h0ZM72.43,13.32v.86c-.36,0-.65,0-.86-.14-.22-.14-.14-.29.22-.5.07,0,.29-.07.58-.22h.07ZM69.77,10.87h0c.43-.29.72-.58.79-.72.14-.14.07-.29-.14-.29-.29.07-.43.07-.65.14v.86ZM69.77,8.28c-.14-.07-.36-.07-.58.07-.29.07-.36.29-.22.58.14.22.36.22.79.14v-.79h0ZM69.77,11.88c-.22.07-.5.07-.79,0-.36-.14-.58-.07-.58.07-.07.22,0,.43.29.58.36.22.72.36,1.08.29v-.94h0ZM69.77,10.01v.86c-.22.22-.43.22-.58.14-.22-.07-.29-.22-.29-.5.07-.29.22-.43.43-.43.14-.07.29-.07.43-.07Z"/>
      <path class="cls-3" d="M93.46,7.63c-.29.07-.65.14-1.01.22h-.72c0-.72-.07-1.22-.07-1.58s-.22-.5-.65-.43c-.36.14-.58.58-.58,1.08,0,.58-.14.94-.43,1.01-1.08,0-1.8.07-2.02.22-.14.07-.22.14-.29.22v.72c.14.07.29.07.5,0,.29-.07.94-.07,2.01,0-.14.43-.5.79-.94,1.08-.5.29-.86.43-1.15.43-.14,0-.29.07-.43.07v.5c.14.14.29.22.43.29.5.14.94.07,1.37-.22.36-.29.58-.36.72-.22.07,1.51.07,2.52.14,3.1.07.58.29.79.72.72.43-.07.58-.58.5-1.51,0-.94,0-2.38.14-4.32.07,0,.22,0,.43-.07h.43c.29-.22.58-.43.79-.79.22-.29.29-.5.07-.5h0ZM87.7,7.27v-.65c.22.14.22.36.07.58q0,.07-.07.07ZM87.7,8.35c-.07.22-.14.36-.07.58q.07.07.07.14v-.72h0ZM87.7,10.66c0,.07-.07.14-.07.29,0,.07.07.14.07.22v-.5h0ZM87.7,6.62v.65c-.29.72-.5,1.44-.43,2.16v1.94c-.07.29-.22.5-.43.58-.22.07-.43.07-.79-.07-.14-.07-.36-.07-.72-.07v-.86c.43,0,.65-.07.72-.14v-.5h-.72v-.79h.72l-.07-.72c-.22,0-.43.07-.65.07v-.72h.72l.14-.58-.86-.07v-1.15c.14,0,.29.07.43.07.65.07.94.07,1.01.14.29-.22.58-.22.86-.07,0,.07.07.07.07.14h0ZM86.98,13.25c-.14-.29-.22-.5-.29-.72-.07-.22-.22-.29-.43-.14-.07.07-.14.29-.07.58,0,.29.14.58.29.79.14.14.29.14.36.07.14-.14.14-.36.14-.58ZM85.32,6.34v1.15l-.79-.07v.72h.79v.72c-.29,0-.58.07-.79.14v.5h.79v.79c-.22,0-.43.07-.58.14-.29.07-.43.29-.43.58.43,0,.72-.07,1.01-.07v.86h-.07c-.43,0-.72.07-.94.14l-.07.07v-5.76c.36,0,.72.07,1.08.07h0ZM84.24,14.04v-1.66c.07-.14.14-.22.29-.22.22.14.36.29.29.43-.07.14-.14.36-.22.72-.14.36-.22.58-.36.72ZM84.24,6.26v5.76c-.22.14-.43.22-.58.22-.22,0-.29-.22-.29-.65.07-.36.07-1.08,0-2.16-.07-1.15-.14-1.94-.29-2.52-.07-.29,0-.5.14-.65.22-.07.43-.14.79,0h.22ZM84.24,12.38v1.66c-.07.07-.14.14-.22.14-.22.07-.36-.07-.43-.36,0-.22.14-.58.29-.94.14-.22.22-.43.36-.5Z"/>
      <path class="cls-3" d="M107.14,7.56c.14-.22.14-.43.07-.58-.07-.22-.29-.29-.65-.22-.22.07-.36.14-.5.14-.07,0-.22-.14-.5-.29-.22-.07-.65-.14-1.3-.22v.79h.94c.65.07.94.22.86.43-.07.22-.14,1.01-.29,2.23-.14,1.3-.22,2.38-.22,3.31,0,0-.22-.07-.65-.14-.22-.07-.43-.07-.65-.14v1.15c.58.22,1.01.5,1.22.79.36.29.58.36.86.07.22-.22.36-.58.43-.94,0-.65,0-1.73.07-3.24,0-1.44.07-2.52.29-3.17h0ZM104.26,12.02v-.58h.72c.22,0,.29.14.14.36-.07.14-.22.29-.43.29-.07,0-.22,0-.43-.07h0ZM104.26,10.22v-1.73c.14-.07.29-.07.43-.07.22,0,.36.07.43.22-.07.07-.14.22-.29.36-.14.14-.22.43-.36.79,0,.22-.14.36-.22.43h0ZM104.26,8.28v-.65h.22c.22,0,.22.07.14.29-.07.14-.22.29-.36.36ZM104.26,6.41c-.36,0-.72,0-1.08-.07v.79c.36.07.72.07,1.08.07v-.79h0ZM103.18,13.75c.36.07.79.22,1.08.29v-1.15h-1.08v.86h0ZM104.26,7.63v.65s-.07,0-.07.07l-1.01-.07v-.72l1.08.07h0ZM104.26,8.5v1.73h-.14c-.07.07-.22.14-.29.14.14.22.14.43.07.65-.14.22-.29.22-.5.07-.07,0-.14.07-.22.14v.14l1.08.07v.58h-.14c-.29-.07-.58-.14-.94-.14v.07-1.37h0v-.86h.65l.14-.79-.79-.07v-.36h.22c.36.07.58.07.72.14,0-.07.07-.07.14-.14h0ZM103.18,9.58c.14,0,.22-.07.22-.14.07-.14,0-.22-.07-.22h-.14v.36ZM103.18,6.34h-.58v.79h.58v-.79h0ZM102.6,13.68c.14.07.22.07.36.07h.22v-.86h-.14c.07-.29.07-.43.07-.65,0-.07,0-.22.07-.29v-1.37h-.58v.43c.07,0,.14.07.22.07l-.07.29h-.14v2.3h0ZM103.18,7.56v.72l-.58-.07v-.65h.58ZM103.18,8.5v.36h-.58v-.43c.14,0,.36,0,.58.07h0ZM103.18,9.22v.36h-.07c-.22,0-.36,0-.5-.07v-.36l.58.07h0ZM103.18,9.72v.72l-.07-.14h-.5v-.5l.58-.07ZM102.6,6.34c-.43-.07-.94-.07-1.37-.07v.94c.14-.07.36-.07.5-.07.07.07,0,.22-.07.43-.14-.07-.29-.07-.43-.07v.79l.07.07v.07h-.07v.5h.07v.29h-.07v.36h.07l-.07.22v1.3c.22,0,.36-.07.58-.07h.79v-.43h-.29l-.07-.29h.36v-.5h-.29v-.29h.29v-.36l-.29-.07s.07-.07.07-.29l.22.07v-.43h-.22v-.22h.22v-.65h-.07v-.43h.07v-.79h0ZM101.23,13.75c.5-.07.94-.07,1.37-.07v-1.58c0,.07,0,.22-.07.29-.14.29-.36.43-.72.5h-.58v.86h0ZM102.6,11.38v.43h-1.37v-.43c.43-.07.94,0,1.37,0h0ZM101.23,12.53v-.36h.43c.07,0,.14.07.07.22-.07.14-.22.14-.43.14h-.07ZM101.23,6.26c-.22,0-.43-.07-.65-.07v1.01h.65v-.94h0ZM100.58,13.9c.22-.07.43-.07.65-.14v-.86h-.65v1.01h0ZM101.23,7.49v.79h-.65v-.72c.22-.07.43-.07.65-.07h0ZM101.23,8.42v.5h-.65v-.29h.07l.58-.22h0ZM101.23,9.22v.36c-.29,0-.43-.07-.43-.14,0-.14.14-.22.43-.22h0ZM101.23,9.79v1.3c-.22.07-.43.07-.65.14v-.43c.5-.22.65-.36.58-.5-.22.07-.36.07-.58.14v-.5c.36,0,.58-.07.65-.07v-.07h0ZM101.23,11.38v.43c-.22.07-.43.07-.65.07v-.5h.65ZM101.23,12.17v.36c-.14,0-.29-.07-.36-.14-.14,0-.14-.14,0-.22h.36ZM100.58,6.19c-.65,0-1.22,0-1.8-.07-.43-.14-.79-.14-1.08.14-.36.22-.43.65-.36,1.15.22.94.29,2.09.22,3.24-.14,1.22-.22,2.16-.29,2.81,0,.65.07,1.01.43,1.15.29.14.58.14.86,0,.72-.29,1.37-.58,2.02-.72v-1.01c-.22.07-.43.07-.72.14-.65.14-1.15.29-1.37.43-.07-.29-.07-1.22,0-2.88,0-1.66.14-2.74.36-3.24.14,0,.72-.07,1.73-.14v-1.01h0ZM100.58,7.56v.72l-.36-.07c-.36.29-.58.22-.58-.22.07-.22.29-.36.65-.43h.29ZM100.58,8.64v.29c-.07,0-.14,0-.22-.07-.07-.07,0-.14.22-.22h0ZM100.58,9.94v.5h-.22c-.22.07-.36,0-.43-.14-.07-.14-.14-.36-.14-.58,0-.14-.07-.5-.22-.94-.07-.07-.07-.22,0-.22.14-.07.22,0,.36.14.14.22.29.5.29.72s.07.43.14.58c.07,0,.14,0,.22-.07h0ZM100.58,10.8v.43s0,.07-.07.07c-.22,0-.36,0-.43-.07-.07-.07,0-.22.14-.36.14,0,.29-.07.36-.07h0ZM100.58,11.38v.5c-.43.07-.79.22-1.01.29-.58.22-.79.14-.72-.07.07-.29.5-.5,1.3-.65.14,0,.29,0,.43-.07Z"/>
      <path class="cls-3" d="M121.54,9.86c-.43.14-1.01.07-1.73-.14-.79-.14-1.66-.22-2.59-.22-.07,0-.07-.14-.07-.29,0-.22.07-.36.14-.5l2.38.07c.36-.07.58-.22.65-.43,0-.29-.22-.43-.58-.43h-2.38s0-.22.07-.43c0-.29,0-.58.07-.72-.14-.36-.29-.58-.5-.65v5.11c.43.36.72.65.86.86.14.29.22.5.22.58,0,0-.36,0-1.08-.07v.94c.36,0,.79.07,1.15.22.58.14.94,0,1.08-.29.22-.36.22-.72-.07-1.08-.14-.14-.29-.36-.58-.65-.14-.36-.22-.65-.22-.86.58.07,1.01.14,1.3.29.29.22.5.29.65.29.58.07,1.01-.22,1.3-.79.22-.58.22-.79-.07-.79ZM117,6.12c-.14-.07-.29-.07-.43,0-.43,0-.58.29-.58.79.07.22.07.5.07.72s0,.36-.07.36h-.72c-.36.07-.72.14-1.08.22-.36.14-.58.36-.5.5,0,.22.14.29.43.22.58-.07,1.08-.07,1.37,0,.29,0,.5,0,.5.07.07.07.07.14.07.29-.07.22-.14.29-.29.29-.07,0-.36.07-.86.14-.5.14-1.01.29-1.51.5-.14.07-.22.14-.36.22v.65c.14.22.43.29.79.22.36-.22.79-.29,1.15-.43.36-.07.65-.07.72-.07-.07.22-.29.5-.58.86-.29.43-.65.65-.94.79-.43.36-.58.72-.36,1.08.21.43.58.58,1.08.43.65-.22,1.22-.29,1.8-.43h.29v-.94c-.29,0-.65,0-1.08-.07-.07,0,0-.29.14-.65.22-.43.43-.65.72-.79.07.07.14.07.22.14v-5.11h0ZM113.04,7.7v-.36c.14.07.14.22,0,.36ZM113.04,10.44c-.07.22-.14.36,0,.58v.07-.65h0ZM113.04,7.34v.36c0,.07-.07.14-.21.22-.43.22-1.01.29-1.58.22-.29-.14-.43-.36-.5-.65-.07-.29,0-.5.22-.65.22-.22.5-.22.79-.07.29.22.72.36,1.22.43,0,.07.07.07.07.14h0ZM112.03,9.22c-.43,0-.79.07-1.22.14-.36.07-.58.22-.58.5.07.36.22.5.43.65.21.07.5.07.86,0,.58-.36.86-.72.86-.94,0-.29-.07-.43-.36-.36h0ZM112.46,11.38c-.86.58-1.44,1.08-1.73,1.37-.36.36-.36.72,0,1.08.22.14.43.14.65,0,.29-.22.58-.58.94-1.15.36-.58.5-1.01.5-1.22s-.14-.22-.36-.07Z"/>
      <path class="cls-3" d="M135.58,12.38c-.86-.07-2.02-.65-3.38-1.73-1.37-1.15-2.52-1.94-3.31-2.3,0-.07,0-.22-.07-.43,0-.22-.07-.43-.22-.58-.29-.5-.58-.72-.86-.65-.22,0-.36.29-.36.86.29,1.15.07,2.09-.58,2.88-.72.79-1.37,1.15-2.09,1.01-.43,0-.65.07-.65.43,0,.29.29.58.79.65,1.87-.14,2.95-.65,3.31-1.37.29-.72.65-1.08.94-1.15,1.37,1.22,2.3,2.23,2.88,3.02.65.79,1.22,1.08,1.94.94,1.01-.36,1.58-.72,1.8-1.08.14-.36.14-.58-.14-.5Z"/>
      <path class="cls-3" d="M148.46,10.58c.29-.29.36-.43.29-.58-.07-.14-.14-.36-.36-.5-.86-.72-1.51-1.37-1.94-1.8-.43-.5-.86-.72-1.3-.65-.29.14-.29.36-.14.58.22.22.36.5.65.86l-1.58-.07v1.22c.79,0,1.66,0,2.66.07.43.43.72.72,1.01.86.21.14.5.14.72,0h0ZM144.07,7.56c.07-.07.14-.14.22-.22.29-.22.22-.43-.14-.58,0-.07-.07-.07-.07-.07v.86h0ZM144.07,14.4v-1.3c.29,0,.5,0,.65.07.43.07.72,0,.94-.14l.14-.94c-.65-.07-1.22-.14-1.73-.14v-1.3h.14c1.15,0,2.02.14,2.59.36.43-.07.72,0,.79.29.07.22,0,.43-.22.65-.22.22-.43.5-.5.94-.07.36-.07.65,0,.86.22.22.14.5-.07.72-.22.29-.43.36-.72.29-.79-.22-1.44-.36-2.02-.36ZM144.07,8.42h-1.22c.58-.43.94-.72,1.22-.86v-.86c-.5-.36-1.01-.29-1.44.29-.36.5-1.22,1.08-2.66,1.73-.72.22-1.22.5-1.37.86-.22.29-.14.58.22.79.29.22,1.01.07,2.09-.29.72-.22,1.8-.36,3.17-.43v-1.22h0ZM144.07,10.66v1.3c-1.01,0-1.66.07-1.94.22-.43.22-.5.58-.14,1.08.86-.07,1.58-.14,2.09-.14v1.3c-.86-.07-1.44,0-1.73.29-.65.43-1.01.58-1.15.58-.43-.36-.58-.58-.5-.79.07-.14.22-.36.36-.5.14-.36,0-1.01-.36-1.87-.36-.94-.07-1.37.86-1.3.65-.07,1.44-.14,2.52-.14Z"/>
      <path class="cls-3" d="M162.43,8.78s-.14-.07-.29-.22q0-.07-.07-.07v.79h.22c.22-.14.36-.22.36-.36,0-.07-.07-.14-.22-.14h0ZM162.07,7.99v-.65q.07.07.07.22c.07.14.07.29-.07.43h0ZM162.07,6.84v-.5c.07,0,.14,0,.22.07.14.07.14.14,0,.36-.07,0-.14.07-.22.07ZM162.07,8.5c-.07-.07-.14,0-.22.14-.07.14-.07.29,0,.43.07.14.14.22.22.22v-.79h0ZM162.07,6.34v.5c0,.07-.07.07-.07.07-.07.07-.14.14-.14.14.07.07.14.14.22.29v.65h0c-.14.14-.36.14-.58.14h-.29v-.36c.29,0,.43,0,.43-.07l-.14-.36c-.07-.07-.14,0-.29.07h0v-.58c.14-.14.29-.29.29-.43-.14.07-.22.14-.29.22v-.65c.07-.07.14-.07.14-.14.14-.14.36-.07.65.14v.14c-.07.07-.22.14-.36.22h.43ZM161.21,14.26v-3.24c.07-.07.22-.07.29,0,.14,0,.21.14.14.29-.29.5-.36,1.08-.22,1.58.07.43,0,.86-.22,1.37h0ZM161.21,9.07v-.72c.14.07.22.14.22.36,0,.14-.07.29-.22.36ZM161.21,5.98v.65c-.14.07-.29.14-.43.22l.29.07c.07,0,.07-.07.14-.07v.58c-.14.14-.22.22-.22.29.07,0,.14.07.22.07v.36c-.22,0-.5,0-.79.07v-.65h.07c.07-.07.14-.07.22-.14-.07-.07-.14-.07-.29-.14v-1.01c.21,0,.29.07.36.07.14-.14.29-.29.43-.36h0ZM161.21,8.35v.72h0c-.14,0-.22-.14-.22-.36-.07-.22,0-.36.22-.36h0ZM161.21,11.02v3.24c-.07.07-.14.22-.22.36-.14.22-.36.29-.58.36v-2.59c.07-.14.07-.29.07-.43h-.07v-.58h.29c.14-.22.36-.29.5-.36h0ZM160.42,10.8v-1.15c.14,0,.29,0,.36.07.22.07.29.14.22.36-.22.36-.36.58-.58.72h0ZM160.42,9.07v-.58c.07-.07.14-.07.14-.07.07.07.07.14.07.36,0,.14-.07.29-.14.29h-.07ZM160.42,6.26v1.01c0-.07-.07-.07-.14-.07-.22-.14-.36-.14-.36-.14,0,.22-.14.29-.43.29-.22.07-.43.07-.72.07v-.36h1.01l.22-.29c-.14-.07-.5-.07-1.01,0h-.22v-1.3c.07-.07.22-.07.36,0,.43.07.5.29.22.65.5.07.86.07,1.08.14h0ZM160.42,7.56v.65h0c-.22,0-.29-.07-.36-.22-.07-.07,0-.14.22-.29.07,0,.07-.07.14-.14h0ZM160.42,8.5v.58c-.14,0-.14-.07-.14-.29,0-.14.07-.29.14-.29h0ZM160.42,9.65v1.15c-.14.07-.29.14-.43.14-.29-.07-.72,0-1.22,0v-.36l1.15-.07.07-.29c0-.07-.22-.14-.58-.14-.22,0-.43,0-.65.07v-.36l1.3.07c.14-.07.29-.14.36-.22h0ZM160.42,11.38v.58c-.43-.14-.86-.14-1.44,0h-.22v-.5h.72c.43,0,.72,0,.94-.07h0ZM160.42,12.38v2.59c-.22.07-.43.14-.72.07-.36-.07-.65-.14-.94-.22v-.58c.5.07.94,0,1.15-.29.29-.36.43-.86.5-1.58h0ZM158.76,9.72c.22-.07.43-.14.65-.14.22-.07.36-.22.36-.58.07-.22.14-.36.22-.43.07-.07.07-.14-.07-.22-.22-.14-.29-.14-.29-.07-.07.07-.22.14-.29.22h-.58v.43h.58v.14l-.58.14v.5h0ZM158.76,8.14v-.43h.72c.14,0,.22.07.14.22,0,.07-.14.14-.29.22h-.58ZM158.76,5.47v1.3c-.43,0-.79,0-.94.07-.22.14-.36.29-.43.36v-.94c.07,0,.22-.07.43-.07.36,0,.5-.07.58-.07.07-.29.22-.5.36-.65h0ZM158.76,7.06h-.43c-.36.07-.5.14-.5.29,0,.07.14.14.29.07h.65v-.36h0ZM158.76,7.7v.43l-.58.07c-.14,0-.22-.07-.29-.22-.07-.07,0-.14.22-.29h.65ZM158.76,8.5v.43h-.14l-.07.36.22-.07v.5c-.07,0-.14.07-.22.07h.22v.36c-.29,0-.58,0-.94.07-.22-.07-.36-.14-.43-.22v-.07c.07-.07.29-.14.65-.14-.14-.72-.21-1.08-.21-1.08-.07-.14,0-.22.07-.22.07-.07.22-.07.5,0h.36ZM158.76,10.58v.36c-.14,0-.22,0-.36.07l-.07.43h.43v.5c-.5.07-.86.29-1.15.5-.07.07-.14.07-.22.07v-1.22c.07-.14.07-.36.07-.5,0-.29.22-.36.65-.22h.65ZM158.76,14.26v.58c-.22-.07-.36-.22-.58-.29-.29-.22-.36-.36-.29-.5.07-.14.29-.14.65.07.07.07.14.07.22.14h0ZM157.39,9.43h0c.14-.07.22-.14.22-.36v-.29c-.07-.07-.14-.14-.22-.14v.79h0ZM157.39,8.28v-1.01c.14.14.22.36.22.58,0,.14-.07.36-.22.43ZM157.39,6.26v.94h-.07c0,.07.07.07.07.07v1.01s-.07,0-.07.07c-.22,0-.43.07-.72.07v-.5h.43c.07-.22.07-.36,0-.5-.14.14-.29.22-.43.29v-.58c.29-.22.43-.36.43-.36-.14-.22-.22-.36-.22-.43-.07.07-.14.07-.22.14v-.58c.07,0,.14,0,.22.07.14,0,.14.07.14.29.14.07.29.07.29.07,0,0,.07-.07.14-.07h0ZM157.39,8.64v.79c-.07,0-.14-.07-.14-.14-.07-.22-.07-.36-.07-.5,0-.07.07-.14.14-.14h.07ZM157.39,9.94v.07h0v-.07h0ZM157.39,11.3v1.22c-.07,0-.22-.07-.29-.14-.14-.07-.14-.29,0-.58.14-.22.22-.36.29-.5h0ZM156.6,9.43v-.79c.14,0,.22.14.22.36s-.07.36-.22.43ZM156.6,5.9v.58c-.14.14-.29.22-.36.29.29.22.36.36.36.36h0v.58c-.22.14-.36.22-.43.22h.43v.5h-.07c-.29-.07-.5,0-.79.07-.29,0-.36-.14-.29-.36.07-.22.36-.5.79-.72-.22-.22-.5-.36-.72-.5-.29-.07-.36-.22-.29-.36.22-.22.36-.36.5-.29.14,0,.36-.14.58-.29.14-.07.22-.07.29-.07h0ZM156.6,8.64v.79h0c-.07,0-.14-.14-.14-.36-.07-.22,0-.36.14-.43h0ZM155.95,9.58c0-.29.07-.5.14-.65,0-.14,0-.22-.14-.29-.14,0-.22.07-.29.22,0,.14-.07.36-.14.65,0,.22.07.29.14.36.14,0,.21-.07.29-.29h0ZM154.44,6.77c-.58,0-1.01-.07-1.44-.22-.36-.07-.5.07-.5.5.14.36.36.65.5.79.21.07.5.07.86,0,.29-.29.5-.5.65-.72.14-.22.14-.36-.07-.36h0ZM153.58,8.5c-.5.22-1.01.29-1.37.29-.29.07-.43.29-.43.65.14.29.36.5.58.5.22.07.36,0,.5-.14.43-.29.72-.65.94-.94.07-.36.07-.43-.22-.36h0ZM153.86,10.58c-.58.5-1.01.86-1.22,1.08-.29.22-.36.5-.36.79,0,.22.07.36.29.43.22.07.58-.14,1.01-.5.43-.5.65-.94.65-1.37s-.14-.58-.36-.43Z"/>
      <path class="cls-3" d="M177.41,11.81c-.72.07-1.37.07-1.73-.07-.5-.14-.86-.29-1.22-.36.14-.36.29-.79.29-1.3.07-.5.14-.86.43-1.15.5-.43.65-.79.5-1.01-.22-.29-.5-.29-1.01-.07-.22,0-.72,0-1.37-.07h-.22v1.15c.14,0,.43.07.65.07-.07.36-.22,1.08-.29,2.16,0,0-.14-.07-.36-.07v1.44c.14.07.29.14.43.22,1.15.79,2.09,1.01,2.74.79.5-.36.79-.79,1.01-1.15.22-.36.29-.58.14-.58ZM173.09,7.78c-.58-.07-1.22-.07-1.87-.07v1.22h.58c-.07.94-.14,1.66-.22,1.94h-.36v1.44c.72-.07,1.37,0,1.87.22v-1.44c-.22-.07-.43-.07-.72-.07l.22-2.09h.5v-1.15h0ZM171.22,7.63c.79-.43.94-.86.5-1.22-.14-.07-.29-.07-.5-.07v1.3ZM171.22,7.7h-.14c.07,0,.14,0,.14-.07v-1.3c-.43,0-.94.43-1.58,1.15v1.51h.22c.22,0,.29.07.29.22-.07.29-.07.65-.07,1.01,0,.29.07.5.22.65-.22,0-.43,0-.65.07v1.51c.58-.07,1.08-.14,1.58-.14v-1.44h-.5c-.07-.14-.07-.43-.07-.79,0-.43.07-.86.29-1.15h.29v-1.22ZM169.63,7.49c-.14.07-.21.22-.29.36h-.29c-.14,0-.29.07-.43.07-.29-.5-.65-.72-1.15-.65-.5.07-.65.43-.29,1.15.22.5.36,1.08.5,1.8.14.65.22,1.01.29,1.15h-.36c-.22.07-.5.14-.94.29-.65.29-.94.65-.79,1.08.07.5.36.65.94.5,1.08-.36,1.94-.58,2.81-.79v-1.51c-.21,0-.43.07-.58.14,0-.07-.07-.36-.07-.86,0-.43,0-.79-.07-1.15.29,0,.5-.07.72-.07v-1.51Z"/>
      <path class="cls-3" d="M190.51,7.06c-.36.07-.79,0-1.37-.07-.5-.07-1.01-.14-1.51-.14v1.08h.29c.86.14,1.44.22,1.8.29.5-.07.79-.29,1.01-.65.14-.43.14-.58-.22-.5h0ZM187.63,12.6v-1.44c.72.43,1.37.86,1.94,1.37.5.5,1.08.72,1.66.72.14.07.14.22-.07.5-.22.36-.65.58-1.22.79-.65.14-1.01,0-1.22-.5-.07-.36-.43-.86-1.08-1.44h0ZM187.63,11.16v-1.44c.07.07.14.07.14.07.36-.36.5-.58.29-.58-.14,0-.29-.07-.43-.14v-.79c.14,0,.22.07.29.14.14.07.22.14.43.22.14.07.29.07.5,0,.36-.14.65-.14.79.07.22.14.14.36-.22.72-.36.22-.72.58-1.15,1.01-.36.36-.58.58-.65.72ZM187.63,6.84h-.21c.14-.43,0-.65-.29-.79-.36-.14-.65.14-.86.79,0,.07-.14.07-.5.07-.29-.07-.72-.07-1.37,0-.65.14-1.01.36-1.01.65,0,.36.22.58.72.58,1.51-.29,2.66-.36,3.53-.22v-1.08h0ZM187.63,8.28v.79l-.07-.07-.43.43c.29.14.43.29.5.29v1.44h0v1.44c-.14-.14-.43-.43-.65-.65-.79.65-1.22,1.01-1.22,1.01-.29.22-.58.22-.72.07-.14-.29-.07-.5.22-.79.14-.07.29-.22.5-.43.14-.14.29-.22.29-.22-.58-.14-.86-.22-.86-.22-.36-.14-.43-.29-.14-.58.22-.22.79-.14,1.73.07l.58-.58c-.5-.36-.79-.5-.79-.5l-.58.43c-.36.14-.58.14-.65,0-.07-.22-.07-.43.14-.65.72-.5,1.15-.86,1.51-1.08.22-.22.43-.29.65-.22h0ZM182.52,6.77c-.14-.07-.36-.14-.65-.22-.29,0-.58-.07-.86-.14-.29-.14-.58-.07-.65.29-.22.29-.14.58.14.86.5.22,1.08.14,1.58-.14.58-.29.65-.5.43-.65h0ZM184.68,9.5c.14-.22.22-.43.07-.58-.07-.22-.22-.22-.5,0-.22.22-.43.36-.58.5-.22.07-.36.14-.5.14-.22.14-.29.29-.14.5.07.14.36.22.79.14.14,0,.22.29.22.94,0,.58-.07,1.15-.14,1.8-.07.43,0,.72.22.72.14.07.29-.07.36-.43.07-.86.07-1.58.07-2.23,0-.72.07-1.15.14-1.51h0ZM181.73,8.42c-.07,0-.29.07-.72.14-.36.07-.65.14-.79.14-.43.07-.58.36-.5.79,0,.36.36.58.94.5.58-.29,1.01-.65,1.3-1.01.22-.36.14-.58-.22-.58h0ZM181.8,10.22c.36-.29.5-.14.5.36s-.43,1.22-1.37,2.09c-.43.29-.79.22-1.01-.14-.22-.36-.22-.65.14-.86.22-.22.58-.5,1.01-.86.43-.36.65-.58.72-.58Z"/>
      <path class="cls-3" d="M204.98,13.32c-.86,0-1.66-.29-2.3-.86-.72-.58-1.37-1.01-1.94-1.15h1.94c.43.07.65-.14.65-.65-.07-.29-.36-.36-.94-.29-.5.07-1.01.07-1.58-.07-.07-.43-.07-.94,0-1.44.07-.5.14-.94.29-1.22.36-.07.72-.07,1.01,0,.36,0,.5-.22.58-.58,0-.22-.14-.36-.5-.36-.36-.07-.65-.07-.94-.07.07-.22.14-.43.14-.72.07-.29-.07-.5-.43-.65-.36,0-.58.07-.72.29-.14.22-.29.58-.5,1.08-.22.14-.5.22-.86.14-.14,0-.29,0-.43-.07v1.01c.36.07.72.07,1.08.14v.36h-1.08v.79c.36-.07.72-.07,1.08-.07v.5c0-.07-.36-.07-1.08,0v.72c.36-.07.72-.07,1.08-.07l.14.5c-.07-.07-.43-.07-1.08,0-.07,0-.07-.07-.14-.07v.79h1.01c1.3.72,2.16,1.51,2.45,2.38.36.86.79,1.22,1.3,1.15.86-.43,1.44-.79,1.73-1.01.29-.29.29-.5.07-.5h0ZM198.43,15.26v-3.67c.14-.07.22-.07.29-.07.36,0,.5.29.5.94.58,0,.94-.07,1.22-.07s.43.14.36.5c-.07.29-.22.5-.5.58-.22.07-.5.14-.86.22-.07,0-.14.07-.22.22v.22c.86,0,1.58.14,2.02.29.5.14.72.29.65.5-.29.36-.72.43-1.22.29-.43-.07-1.15-.07-2.23.07ZM198.43,6.7c-.22,0-.5-.07-.79-.07-.07-.65-.36-1.01-.79-1.01-.5-.07-.65.29-.58,1.01-.86.14-1.22.43-1.01.72.14.29.65.43,1.44.5.07.22.07,1.22.07,2.81-.29,0-.65.07-1.15.14-.58.07-.86.29-1.01.65,0,.29.22.36.65.22.36-.07.86-.14,1.51-.22-.58.36-1.08.72-1.51,1.08-.43.29-.79.43-1.15.43-.5-.07-.79.07-.79.5,0,.36.14.72.5,1.01.29.14.86-.07,1.58-.72.79-.58,1.58-1.44,2.52-2.45h.5v-.79c-.07-.07-.14-.07-.29-.07s-.29.07-.36.14l-.58.07.07-.36c.22-.07.65-.14,1.15-.14v-.72c-.22,0-.5,0-.86.07-.22-.29-.07-.43.36-.43.14-.07.36-.07.5-.07v-.79h-.79c-.07-.07-.14-.14-.22-.22-.07-.14-.07-.22.07-.29h.94v-1.01h0ZM198.43,11.59v3.67c-.36,0-.79.07-1.22.14-.43.14-.79.07-1.08-.14-.29-.29-.21-.5.14-.72.14-.07.43-.14.94-.22.5-.14.79-.22.86-.22l-.14-.43h-.58c-.29-.07-.5-.14-.65-.36-.07-.14,0-.36.14-.5.14-.14.5-.29,1.22-.36.07-.43.22-.72.36-.86Z"/>
      <path class="cls-3" d="M218.88,8.35c-.86-.07-2.02-.65-3.53-1.66-.29-.22-.58-.43-.86-.58v1.37c.43.36.86.72,1.15,1.22.65,1.01,1.3,1.37,2.02,1.15.79-.43,1.3-.79,1.37-1.15.14-.29.07-.43-.14-.36h0ZM214.49,14.76c.65,0,1.08.07,1.37.07.36,0,.65-.22.86-.65.14-.36.07-.58-.36-.65-.07,0-.36-.07-1.01-.14-.29,0-.58-.07-.86-.07v1.44h0ZM214.49,11.02c.22-.14.36-.29.43-.43.07-.29-.07-.43-.43-.5h0v.94h0ZM214.49,9.14v-.14.14h0ZM214.49,13.1v-1.58c.07-.07.14,0,.22,0,.22.07.29.43.22,1.01-.14.36-.29.58-.43.58ZM214.49,6.12c-1.08-.5-1.8-.58-2.38-.14-.22.22-.43.36-.72.58v1.01c.36-.29.65-.58.79-.72.14-.14.36-.22.58-.22.65.22,1.22.5,1.73.86v-1.37h0ZM211.39,11.23v-3.67c.14-.07.22-.07.36,0,.07.07.14.14.22.14.43-.07.86-.14,1.22-.14s.58,0,.65.07c.29,0,.36.07.29.36-.07.14-.21.29-.5.36-.5,0-.86.07-1.22.07h-.43c-.07,0-.14.07-.07.22,0,.22,0,.36.07.43l2.02-.14c.29-.07.43,0,.5.07v.14h0c-.14.22-.29.36-.58.43-.36.07-.72.07-1.08.07-.43,0-.72.07-1.01.14v.5c.43-.07.94-.14,1.51-.07.58,0,.94-.07,1.15-.14v.94c-.07,0-.22.07-.29.07l-1.08-.07c.07.22.14.65.14,1.3.07.58.07.94.07,1.01h1.15v1.44c-.29-.07-.5-.07-.79-.07-.79-.07-1.51-.07-2.3,0v-1.15h.07c.5-.07.72-.14.79-.07,0-.14.07-.58.07-1.15.07-.58.14-1.01.43-1.3-.29,0-.58,0-.94.07-.14.07-.29.07-.43.14h0ZM214.49,11.52c-.14,0-.22.07-.29.29-.07.07-.07.22-.14.36,0,.14-.07.36-.07.5.14.29.29.43.5.43h0v-1.58h0ZM211.39,13.03s0-.07.07-.07c.14-.43.29-.65.29-.86.07-.14,0-.29-.14-.29-.07-.07-.14-.07-.22,0v1.22ZM211.39,6.55c-.36.22-.79.5-1.22.65-.86.36-1.66.5-2.3.5-.5,0-.72.22-.72.65s.22.65.72.65c.65-.07,1.22-.29,1.8-.5.58-.14,1.08-.43,1.51-.79-.36.43-.43.94-.36,1.58.07.65.07,1.08-.07,1.22-.29.22-.43.5-.36.79.07.22.29.29.58.14.14-.07.29-.14.43-.22v-3.67q0,.07-.07.07t.07-.07v-1.01h0ZM211.39,13.54c-.43,0-.86.14-1.37.29-.36.22-.5.43-.36.72.14.29.36.36.72.29.29-.07.65-.07,1.01-.14v-1.15h0ZM211.39,11.81v1.22c-.14.14-.22.14-.29.14-.14-.07-.14-.22-.07-.43.07-.36.14-.58.22-.79,0-.07.07-.14.14-.14Z"/>
      <path class="cls-3" d="M232.56,8.21c-.65.07-1.58-.22-2.81-.65-.5-.22-1.01-.43-1.44-.65v.79c.58.43.94.79.94,1.01-.29.07-.58.14-.94.07v.5c.22,0,.43.07.43.14.07.14.07.36,0,.65h-.43v.86c.14,0,.29,0,.43.07.22.22.43.29.58.22.14-.07.22-.22.22-.43.07-.36.14-.58.14-.79.07-.22.22-.36.29-.43.14.22.29.36.5.36.14,0,.5-.07.94-.22.65-.36,1.08-.65,1.3-1.01.22-.36.14-.5-.14-.5h0ZM228.31,14.76v-3.31c.43-.07.65-.07.79.14.14.22.14.36.07.5-.07.29-.07.65-.07,1.22s0,.86.07.94c0,.29-.07.5-.29.58-.14.07-.36.07-.58-.07ZM228.31,6.91c-.58-.22-1.01-.43-1.3-.58-.07-.07-.07-.22-.14-.29v.79c.29.14.65.36,1.01.58.14.14.29.22.43.29v-.79h0ZM228.31,8.78h-.14c-.29-.14-.79-.14-1.3-.14v.65h.29c-.07.22-.07.5,0,.79h-.29v.72c.43.07.94.07,1.44.14v-.86h-.5c0-.07,0-.36.07-.86.14,0,.29,0,.43.07v-.5h0ZM226.87,8.35v-.79c.14,0,.36,0,.5.07.43.07.58.22.58.43-.07.22-.22.36-.43.36-.29-.07-.5-.07-.65-.07h0ZM228.31,11.45v3.31h0c-.29-.07-.72-.07-1.44-.07v-.79c.36-.07.72-.07,1.08-.07.07-.14.07-.29,0-.36-.36-.07-.72-.07-1.08-.07v-.72h1.22c-.07-.36-.43-.5-1.08-.5h-.14v-.79c.43,0,.94.07,1.44.07h0ZM226.87,6.05c-.14-.14-.29-.22-.5-.29-.36-.14-.65,0-.94.29-.07.07-.14.07-.22.14v.79c.22-.07.36-.14.58-.22.29-.07.65-.07,1.08.07v-.79h0ZM226.87,8.64h-.14c0-.14,0-.22.14-.29v-.79c-.29-.07-.5-.07-.79-.07-.36,0-.65,0-.86.07v.79h.07c.22.07.29.22.22.36h-.29v.58h.29l.14.79-.43.07v.72q.07,0,.14-.07h1.51v-.72h-.36l.07-.79h.29v-.65h0ZM226.87,11.38v.79c-.65.07-1.15.07-1.66.07v-.79c.29,0,.58-.07.94-.07h.72ZM226.87,12.67v.72c-.58,0-1.15,0-1.66.07v-.72l1.66-.07h0ZM226.87,13.9v.79c-.65,0-1.15.07-1.66.14v-.94h1.66ZM225.22,6.19c-.29.22-.72.43-1.15.65v.72c.36-.14.72-.36,1.15-.58v-.79h0ZM225.22,7.56v.79c-.14-.07-.29,0-.5.07-.21,0-.43-.07-.43-.29s.14-.43.58-.5c.07-.07.22-.07.36-.07h0ZM225.22,8.71h-1.15v.58h.14c.07,0,.22.29.22.94h-.36v.86c.29-.14.72-.22,1.15-.22v-.72l-.36.07.07-.94h.29v-.58h0ZM225.22,11.45v.79h-.07c-.14.14-.14.22-.14.29v.22h.21v.72h-.07c-.07,0-.14.07-.22.22-.07.14-.07.22,0,.29.07,0,.22,0,.29-.07v.94c-.14.07-.29.07-.36.07-.29.14-.43.14-.65,0-.07-.07-.07-.14-.14-.14v-2.88c.07-.29.29-.36.58-.29.14-.07.36-.07.58-.14ZM224.06,6.84c-.22.07-.43.22-.65.29-.86.43-1.44.43-1.87.07-.14-.07-.29-.07-.5.07-.14.14-.14.5,0,1.08.5.79,1.01.94,1.51.29.36-.36.86-.72,1.51-1.08v-.72h0ZM224.06,8.71v.58c-.14,0-.22,0-.36-.07v1.08c.14,0,.29-.07.36-.07v.86c-.22.14-.36.22-.5.36-.36.43-.58.5-.72.36-.14-.22-.07-.5.07-.79.14-.29.21-.5.21-.79s-.07-.5-.21-.72c-.22-.36-.22-.58-.07-.72.22-.07.43-.07.79.22.07-.14.22-.22.43-.29h0ZM224.06,11.88v2.38c-.07.22-.07.36,0,.5v-2.88Z"/>
    </g>
  </g>
</svg>