<?xml version="1.0" encoding="UTF-8"?>
<svg id="_圖層_2" data-name="圖層_2" xmlns="http://www.w3.org/2000/svg" viewBox="0 0 410.55 126.02">
  <defs>
    <style>
      .cls-1 {
        fill: #004a98;
      }
    </style>
  </defs>
  <g id="_圖層_1-2" data-name="圖層_1">
    <g>
      <path class="cls-1" d="M393.18,10.17c0-4.58,3.74-8.33,8.36-8.33,2.21,0,4.28.89,5.85,2.44,1.57,1.6,2.41,3.69,2.41,5.89s-.84,4.33-2.41,5.87c-1.57,1.58-3.64,2.46-5.85,2.46-4.62,0-8.36-3.73-8.36-8.33ZM392.48,10.17c0,4.99,4.07,9.05,9.07,9.05,2.42,0,4.64-.93,6.37-2.65,1.72-1.72,2.64-3.97,2.64-6.4s-.92-4.68-2.64-6.4c-1.73-1.7-3.96-2.65-6.37-2.65-5,0-9.07,4.06-9.07,9.05ZM398.15,15.5h1.27v-4.21h2.87c.49,0,.86.04,1.12.17.42.24.64.65.66,1.31l.12,1.64c0,.37.01.63.01.76.06.13.11.24.12.32h1.6v-.23c-.21-.07-.3-.28-.42-.6-.06-.17-.06-.45-.08-.82l-.05-1.32c0-.57-.13-1-.29-1.23-.2-.25-.52-.47-.88-.62.43-.21.75-.54,1.02-.9.22-.39.34-.85.34-1.43,0-1.12-.43-1.9-1.32-2.32-.46-.22-1.08-.32-1.77-.32h-4.32v9.81ZM399.42,10.17v-3.35h3.05c.45,0,.81.07,1.07.2.44.25.71.72.71,1.42s-.18,1.11-.54,1.37c-.34.24-.8.35-1.38.35h-2.92ZM37.19,22.63L0,80.21h25.42L61.16,25.16l-23.98-2.53ZM190.12,21.34V0h-72.27c-9.83.61-14.13,5.25-17.35,8.59-3.44,3.55-5.39,11.03-5.39,11.03V.14h-38.37c-2.9,0-5.66,1.22-7.74,4.07-2.17,2.82-10.95,17.13-10.95,17.13h152.07ZM386.63,21.36V0h-77.33c-9.8.61-14.12,5.25-17.35,8.59-3.44,3.55-5.37,11.03-5.37,11.03v1.72l100.05.02ZM215.5.1h-21.61v21.24h21.61V.1ZM286.43.1h-21.59v21.24h21.59V.1ZM286.43,29l-21.23-1.25v24.64s-.06,7.1-6.99,7.1h-36.48s-6.18-.5-6.18-7.03v-28.05l-21.44-1.53v37.78c3.47,18.12,20,19.52,20,19.52,0,0,1.68.11,1.96.14h49.28s21.09-1.68,21.09-21.71v-29.59ZM73.17,80.22h101.06c17.6-3.49,19.44-19.31,19.44-19.31.83-4.7.34-8.5.34-8.5-.53-3.17-6.61-17.16-19.83-18.37-7.88-.73-77.99-6.23-77.99-6.23,1.36,6.95,4.52,10.46,6.62,12.47,4.87,4.63,12.61,5.94,12.61,5.94,1.87.18,54.03,4.45,54.03,4.45,1.66.09,4.81.5,4.77,4.58,0,.49-.46,4.09-4.46,4.09h-75.6v-31.69l-21.01-1.52v54.11ZM286.58,80.4h77.32c19.4-1.11,22.14-19.31,22.14-19.31.69-4.78.12-8.68.12-8.68-.56-4.31-6.75-17.26-19.98-18.51-7.83-.72-78.34-4.84-78.34-4.84,2.09,7.17,4.89,9.34,7.01,11.33,4.88,4.64,12.19,5.76,12.19,5.76,1.84.15,54.58,4.5,54.58,4.5,1.7.09,5.09.26,5.09,4.33,0,1.23-.63,2.5-1.41,3.19,0,0-1.87,1.01-3.6,1.01h-75.08l-.05,21.21Z"/>
      <g>
        <path class="cls-1" d="M1.01,125.59v-31.38h5.39v31.38H1.01Z"/>
        <path class="cls-1" d="M11.27,125.59v-31.38h5l6.56,17.95h.09v-17.95h4.87v31.38h-4.69l-6.87-19.6h-.09v19.6h-4.87Z"/>
        <path class="cls-1" d="M50.35,101.94c-.06-.67-.18-1.22-.37-1.67-.19-.45-.42-.8-.7-1.06-.27-.26-.57-.45-.89-.57-.32-.11-.62-.17-.91-.17-.87,0-1.54.27-2,.8-.46.54-.7,1.3-.7,2.28,0,.9.27,1.73.81,2.48.54.76,1.21,1.51,2.02,2.26.81.76,1.7,1.52,2.65,2.28.96.77,1.84,1.62,2.65,2.54.81.93,1.48,1.95,2.02,3.06.54,1.12.8,2.38.8,3.8,0,1.3-.21,2.46-.63,3.46-.42,1-1,1.84-1.74,2.52-.74.68-1.64,1.2-2.69,1.54-1.06.35-2.21.52-3.46.52s-2.36-.23-3.35-.7c-.98-.46-1.82-1.09-2.5-1.89-.68-.8-1.21-1.72-1.59-2.76-.38-1.04-.59-2.16-.65-3.35l5.13-.74c.12,1.6.46,2.78,1.04,3.57.58.78,1.3,1.17,2.17,1.17.93,0,1.68-.25,2.26-.74.58-.49.87-1.2.87-2.13,0-1.04-.27-1.97-.8-2.78-.54-.81-1.21-1.59-2.02-2.35-.81-.75-1.69-1.51-2.65-2.26-.96-.75-1.84-1.58-2.65-2.48-.81-.9-1.48-1.91-2.02-3.04-.54-1.13-.8-2.45-.8-3.95,0-2.52.73-4.46,2.17-5.8,1.45-1.35,3.51-2.02,6.17-2.02,1.1,0,2.09.19,2.96.56.87.38,1.62.91,2.24,1.59.62.68,1.13,1.48,1.52,2.41.39.93.64,1.94.76,3.04l-5.13.57Z"/>
        <path class="cls-1" d="M58.78,125.59v-31.38h14.43v4.69h-9.04v8.09h6.95v4.69h-6.95v9.22h9.65v4.69h-15.04Z"/>
        <path class="cls-1" d="M80.16,125.59h-5.22l5.78-31.38h6.69l5.78,31.38h-5.22l-.96-6.95h-5.91l-.96,6.95ZM81.9,113.94h4.35l-2.13-13.48h-.09l-2.13,13.48Z"/>
        <path class="cls-1" d="M100.68,125.59h-5.39v-31.38h7.56c3.01,0,5.29.71,6.83,2.13,1.54,1.42,2.3,3.8,2.3,7.13,0,1.28-.11,2.36-.33,3.26-.22.9-.51,1.66-.87,2.28-.36.62-.77,1.12-1.22,1.5-.45.38-.91.67-1.37.87l4.56,14.21h-5.48l-3.83-13c-.35.06-.78.09-1.28.11-.51.02-1.01.02-1.5.02v12.87ZM100.68,108.29h1.91c.72,0,1.34-.07,1.85-.22.51-.14.92-.4,1.24-.78.32-.38.55-.88.7-1.5.15-.62.22-1.4.22-2.33,0-1.85-.3-3.12-.91-3.8-.61-.68-1.64-1.02-3.09-1.02h-1.91v9.65Z"/>
        <path class="cls-1" d="M126.8,104.68v-2.43c0-1.33-.26-2.3-.78-2.89-.52-.59-1.13-.89-1.83-.89-1.1,0-1.86.28-2.26.85-.41.56-.61,1.44-.61,2.63v15.91c0,1.19.2,2.06.61,2.63.41.57,1.16.85,2.26.85.98,0,1.67-.27,2.04-.83.38-.55.57-1.33.57-2.35v-3.78h5.39v3.61c0,1.1-.17,2.15-.5,3.13-.33.99-.83,1.84-1.48,2.57-.65.72-1.49,1.3-2.5,1.72-1.01.42-2.19.63-3.52.63-1.42,0-2.65-.21-3.67-.63-1.03-.42-1.88-.99-2.56-1.72-.68-.73-1.19-1.58-1.52-2.57-.33-.98-.5-2.03-.5-3.13v-16.17c0-1.1.16-2.15.5-3.13.33-.98.84-1.84,1.52-2.56.68-.72,1.54-1.29,2.56-1.71,1.03-.42,2.25-.63,3.67-.63,1.33,0,2.51.23,3.52.69,1.02.46,1.85,1.09,2.5,1.87.65.78,1.14,1.7,1.48,2.74.33,1.04.5,2.15.5,3.3v2.3h-5.39Z"/>
        <path class="cls-1" d="M136.58,125.59v-31.38h5.39v12.78h5.74v-12.78h5.39v31.38h-5.39v-13.91h-5.74v13.91h-5.39Z"/>
        <path class="cls-1" d="M165.84,101.81c0-1.1.17-2.15.5-3.13.33-.98.84-1.84,1.52-2.56.68-.72,1.54-1.29,2.56-1.71,1.03-.42,2.25-.63,3.67-.63s2.65.21,3.67.63c1.03.42,1.88.99,2.56,1.71.68.73,1.19,1.58,1.52,2.56.33.99.5,2.03.5,3.13v16.17c0,1.1-.17,2.15-.5,3.13-.33.99-.84,1.84-1.52,2.57-.68.72-1.54,1.3-2.56,1.72-1.03.42-2.25.63-3.67.63s-2.64-.21-3.67-.63c-1.03-.42-1.88-.99-2.56-1.72-.68-.73-1.19-1.58-1.52-2.57-.33-.98-.5-2.03-.5-3.13v-16.17ZM171.23,117.85c0,1.19.2,2.06.61,2.63.41.57,1.16.85,2.26.85s1.86-.28,2.26-.85c.4-.56.61-1.44.61-2.63v-15.91c0-1.19-.2-2.07-.61-2.63-.41-.57-1.16-.85-2.26-.85s-1.85.28-2.26.85c-.41.56-.61,1.44-.61,2.63v15.91Z"/>
        <path class="cls-1" d="M186.53,125.59v-31.38h15.04v4.69h-9.65v8.09h7.22v4.69h-7.22v13.91h-5.39Z"/>
        <g>
          <path class="cls-1" d="M212.08,125.59v-31.38h5.39v31.38h-5.39Z"/>
          <path class="cls-1" d="M222.34,125.59v-31.38h5l6.56,17.95h.09v-17.95h4.87v31.38h-4.69l-6.87-19.6h-.09v19.6h-4.87Z"/>
          <path class="cls-1" d="M253.85,104.68v-2.43c0-1.33-.26-2.3-.78-2.89-.52-.59-1.13-.89-1.83-.89-1.1,0-1.86.28-2.26.85-.41.56-.61,1.44-.61,2.63v15.91c0,1.19.2,2.07.61,2.63.4.57,1.16.85,2.26.85.98,0,1.66-.28,2.04-.83.38-.55.56-1.33.56-2.35v-3.78h5.39v3.61c0,1.1-.17,2.15-.5,3.13-.33.99-.83,1.84-1.48,2.57-.65.72-1.48,1.3-2.5,1.72-1.01.42-2.19.63-3.52.63-1.42,0-2.64-.21-3.67-.63-1.03-.42-1.88-.99-2.56-1.72-.68-.73-1.19-1.58-1.52-2.57-.33-.98-.5-2.03-.5-3.13v-16.17c0-1.1.17-2.15.5-3.13.33-.98.84-1.84,1.52-2.57.68-.72,1.54-1.3,2.56-1.72,1.03-.42,2.25-.63,3.67-.63,1.33,0,2.51.23,3.52.7,1.02.46,1.85,1.09,2.5,1.87.65.78,1.14,1.69,1.48,2.74.33,1.04.5,2.15.5,3.3v2.3h-5.39Z"/>
          <path class="cls-1" d="M269.06,125.59h-5.39v-31.38h7.56c3.01,0,5.29.71,6.83,2.13,1.54,1.42,2.3,3.8,2.3,7.13,0,1.28-.11,2.36-.33,3.26-.22.9-.51,1.66-.87,2.28-.36.62-.77,1.12-1.22,1.5-.45.38-.91.67-1.37.87l4.56,14.21h-5.48l-3.83-13c-.35.06-.78.09-1.28.11-.51.02-1.01.02-1.5.02v12.87ZM269.06,108.29h1.91c.72,0,1.34-.07,1.85-.22.51-.14.92-.41,1.24-.78.32-.38.55-.87.69-1.5.15-.62.22-1.4.22-2.33,0-1.85-.3-3.12-.91-3.8-.61-.68-1.64-1.02-3.09-1.02h-1.91v9.65Z"/>
          <path class="cls-1" d="M284.37,125.59v-31.38h14.43v4.69h-9.04v8.09h6.95v4.69h-6.95v9.22h9.65v4.69h-15.04Z"/>
          <path class="cls-1" d="M302.62,94.2h8c2.81,0,4.93.77,6.37,2.3,1.43,1.54,2.15,3.93,2.15,7.17v12.43c0,3.25-.72,5.64-2.15,7.17-1.44,1.54-3.56,2.3-6.37,2.3h-8v-31.38ZM308.01,121.15h1.87c1.45,0,2.46-.32,3.02-.96.56-.64.85-1.78.85-3.43v-13.74c0-1.65-.28-2.8-.85-3.43-.57-.64-1.57-.96-3.02-.96h-1.87v22.52Z"/>
          <path class="cls-1" d="M324.01,125.59v-31.38h5.39v31.38h-5.39Z"/>
          <path class="cls-1" d="M334.27,94.2h8c2.9,0,5.01.71,6.35,2.13,1.33,1.42,2,3.48,2,6.17,0,.67-.07,1.34-.22,2.02-.15.68-.37,1.31-.67,1.89-.3.58-.7,1.1-1.17,1.57-.48.46-1.04.83-1.67,1.09,1.39.61,2.46,1.49,3.21,2.65.75,1.16,1.13,2.75,1.13,4.78,0,1.3-.15,2.51-.46,3.61-.3,1.1-.79,2.06-1.46,2.87-.67.81-1.54,1.45-2.61,1.91-1.07.46-2.38.69-3.91.69h-8.52v-31.38ZM339.66,107.07h1.96c1.01,0,1.87-.34,2.56-1.02.7-.68,1.04-1.67,1.04-2.98,0-2.96-1.17-4.44-3.52-4.44h-2.04v8.43ZM339.66,121.15h2.26c1.45,0,2.46-.41,3.04-1.22.58-.81.87-2.01.87-3.61s-.33-2.83-1-3.63c-.67-.8-1.81-1.2-3.43-1.2h-1.74v9.65Z"/>
          <path class="cls-1" d="M354.65,125.59v-31.38h5.39v26.69h8.48v4.69h-13.87Z"/>
          <path class="cls-1" d="M370.78,125.59v-31.38h14.43v4.69h-9.04v8.09h6.96v4.69h-6.96v9.22h9.65v4.69h-15.04Z"/>
        </g>
      </g>
    </g>
  </g>
</svg>