<?xml version="1.0" encoding="UTF-8"?>
<svg id="_圖層_2" data-name="圖層_2" xmlns="http://www.w3.org/2000/svg" viewBox="0 0 355.47 335.75">
  <defs>
    <style>
      .cls-1 {
        fill: #7b9182;
      }

      .cls-2 {
        fill: #889e88;
      }

      .cls-3 {
        fill: #7e967d;
      }

      .cls-4 {
        fill: #a1b5a5;
      }

      .cls-5 {
        fill: #a0a481;
      }

      .cls-6 {
        fill: #cee1c6;
      }

      .cls-7 {
        fill: #9bb09e;
      }

      .cls-8 {
        fill: #94a999;
      }

      .cls-9 {
        fill: #b2c9ad;
      }

      .cls-10 {
        fill: #a8b49f;
      }

      .cls-11 {
        fill: #f3f8e8;
      }

      .cls-12 {
        fill: #b6ccb1;
      }

      .cls-13 {
        fill: #829079;
      }

      .cls-14 {
        fill: #aab99a;
      }

      .cls-15 {
        fill: #94a89b;
      }

      .cls-16 {
        fill: #a7bbb0;
      }

      .cls-17 {
        fill: #a1af84;
      }

      .cls-18 {
        fill: #9db3ab;
      }

      .cls-19 {
        fill: #d7e8cc;
      }

      .cls-20 {
        fill: #a4bcb6;
      }

      .cls-21 {
        fill: #a4c4ba;
      }

      .cls-22 {
        fill: #96a99c;
      }

      .cls-23 {
        fill: #a4beb4;
      }

      .cls-24 {
        fill: #9aaf99;
      }

      .cls-25 {
        fill: #c1d2b0;
      }

      .cls-26 {
        fill: #8c9c84;
      }

      .cls-27 {
        fill: #f4f8e5;
      }

      .cls-28 {
        fill: #96afa7;
      }

      .cls-29 {
        fill: #8ea89d;
      }

      .cls-30 {
        fill: #afc8bc;
      }

      .cls-31 {
        fill: #a0b3a1;
      }

      .cls-32 {
        fill: #91a897;
      }

      .cls-33 {
        fill: #9ab6ac;
      }

      .cls-34 {
        fill: #8ca18e;
      }

      .cls-35 {
        fill: #a9c0b6;
      }

      .cls-36 {
        fill: #bacfc2;
      }

      .cls-37 {
        fill: #89967b;
      }

      .cls-38 {
        fill: #879b84;
      }

      .cls-39 {
        fill: #a2bab2;
      }

      .cls-40 {
        fill: #b8d0b1;
      }

      .cls-41 {
        fill: #9aaf9f;
      }

      .cls-42 {
        fill: #8ba495;
      }

      .cls-43 {
        fill: #8fa189;
      }

      .cls-44 {
        fill: #b0c2b2;
      }

      .cls-45 {
        fill: #a1c0b8;
      }

      .cls-46 {
        fill: #9fb39d;
      }

      .cls-47 {
        fill: #93a994;
      }

      .cls-48 {
        fill: #9eb1a0;
      }

      .cls-49 {
        fill: #9cb2aa;
      }

      .cls-50 {
        fill: #c9d3be;
      }

      .cls-51 {
        fill: #a1b5a1;
      }

      .cls-52 {
        fill: #d1e3cf;
      }

      .cls-53 {
        fill: #8aa08c;
      }

      .cls-54 {
        fill: #c2cfba;
      }

      .cls-55 {
        fill: #c7dec3;
      }

      .cls-56 {
        fill: #9bb09d;
      }

      .cls-57 {
        fill: #7f8261;
      }

      .cls-58 {
        fill: #94a998;
      }

      .cls-59 {
        fill: #74785c;
      }

      .cls-60 {
        fill: #a9bfb2;
      }

      .cls-61 {
        fill: #eaf4ea;
      }

      .cls-62 {
        fill: #b7cfcb;
      }

      .cls-63 {
        fill: #b8d2c9;
      }

      .cls-64 {
        fill: #e5f1dd;
      }

      .cls-65 {
        fill: #9ea790;
      }

      .cls-66 {
        fill: #99b2a9;
      }

      .cls-67 {
        fill: #bdcfb3;
      }

      .cls-68 {
        fill: #717b65;
      }

      .cls-69 {
        fill: #94a994;
      }

      .cls-70 {
        fill: #e9f1ce;
      }

      .cls-71 {
        fill: #f7faea;
      }

      .cls-72 {
        fill: #9aaf9a;
      }

      .cls-73 {
        fill: #8ea490;
      }

      .cls-74 {
        fill: #a7c0b7;
      }

      .cls-75 {
        fill: #7d9380;
      }

      .cls-76 {
        fill: #abc1b2;
      }

      .cls-77 {
        fill: #83886e;
      }

      .cls-78 {
        fill: #b5cec5;
      }

      .cls-79 {
        fill: #9aad9b;
      }

      .cls-80 {
        fill: #a0b4ab;
      }

      .cls-81 {
        fill: #e6f3ef;
      }

      .cls-82 {
        fill: #a1bbb1;
      }

      .cls-83 {
        fill: #abc4bf;
      }

      .cls-84 {
        fill: #80816d;
      }

      .cls-85 {
        fill: #b38a79;
      }

      .cls-86 {
        fill: #8c9f8a;
      }

      .cls-87 {
        fill: #e0e9c6;
      }

      .cls-88 {
        fill: #8ba189;
      }

      .cls-89 {
        fill: #b0cac7;
      }

      .cls-90 {
        fill: #8fa99e;
      }

      .cls-91 {
        fill: #aec7be;
      }

      .cls-92 {
        fill: #87a193;
      }

      .cls-93 {
        fill: #94aea1;
      }

      .cls-94 {
        fill: #6a8370;
      }

      .cls-95 {
        fill: #acc4b3;
      }

      .cls-96 {
        fill: #d4bc93;
      }

      .cls-97 {
        fill: #80927b;
      }

      .cls-98 {
        fill: #84967e;
      }

      .cls-99 {
        fill: #96ab98;
      }

      .cls-100 {
        fill: #b3b998;
      }

      .cls-101 {
        fill: #7d846f;
      }

      .cls-102 {
        fill: #daeacd;
      }

      .cls-103 {
        fill: #8ea18a;
      }

      .cls-104 {
        fill: #839989;
      }

      .cls-105 {
        fill: #a2b6a6;
      }

      .cls-106 {
        fill: #b4cac3;
      }

      .cls-107 {
        fill: #8ca195;
      }

      .cls-108 {
        fill: #9bafa2;
      }

      .cls-109 {
        fill: #adc1b1;
      }
    </style>
  </defs>
  <g id="_圖層_1-2" data-name="圖層_1">
    <g>
      <path class="cls-100" d="M311.5,256.04c-.52-.11-.97-.24-1.45-.44l-.77.53-.38-.13c-6.6-2.34-19.95,2.22-24.76,7.21l-.44.47-.54-.35c-.11-.07-.35-.17-.47-.22-.77-.31-.6-.92-.55-1.04.24-.71.97-.49,1.23-.42v.03s.02.02.03.03c5.39-5.15,18.5-9.54,25.63-7.33l.87-.62.42.22c.51.25.96.38,1.54.5l-.36,1.54Z"/>
      <path class="cls-85" d="M353.52,329.22c-.23.26-.51.51-.83.74l-2.45,1.75.95-2.87c.37-1.16.23-3.51-.09-5.79-.09-.14-.16-.29-.25-.43-.58-1.06-1.14-2.05-1.4-2.99-.18-.66-.17-1.22-.13-1.72.02-.43.03-.82-.1-1.29-.18-.58-.53-1.2-.91-1.87-.41-.7-.82-1.41-1.09-2.23-.48-1.45-.94-2.92-1.39-4.34-.29-.98-.59-1.94-.9-2.9-.47-1.17-.9-2.42-1.26-3.69-.29-.77-.59-1.53-.92-2.29-1.11-2.61-2.43-5.09-3.71-7.49-.83-1.57-1.68-3.19-2.47-4.82-.34-.7-.61-1.35-.8-1.96l-.34-.18c-1.27-.66-2.03-2.4-2.7-3.96-.21-.46-.38-.87-.54-1.18-.57-1.06-1.27-1.95-2.01-2.88-.36-.47-.75-.96-1.13-1.48-1.64-2.3-3.38-4.1-5.39-6.19l-.89-.92c-1.41-1.49-2.58-3.19-3.72-4.83-.81-1.22-1.64-2.41-2.53-3.49v.23s-1.22-1.57-1.22-1.57c-1.46-1.43-3.19-2.51-5.49-2.97l.36-1.94c1.29.22,2.69.53,3.98,1.23-.88-2.18-2.73-4.69-4.39-6.99-1.54-2.09-2.98-4.07-3.76-5.79-1.16-2.59-2.3-5.22-3.43-7.77-2.91-6.66-5.93-13.55-9.31-20.13-3.28-6.43-16.97-24.47-17.11-24.64l1.57-1.2c.57.75,13.94,18.36,17.3,24.95,3.41,6.64,6.42,13.56,9.36,20.24,1.11,2.54,2.27,5.18,3.41,7.75.7,1.55,2.08,3.44,3.55,5.45,2.59,3.54,5.27,7.2,5.31,10.4,1.56,1.53,2.82,3.35,4.05,5.13,1.08,1.59,2.2,3.23,3.51,4.6l.9.92c2.04,2.14,3.82,4,5.56,6.4.34.47.71.95,1.07,1.4.76.97,1.54,1.96,2.18,3.17.21.37.41.84.63,1.33.12.3.28.64.43.98.03-2.26.05-4.81.64-6.86l1.47-5.14.47,5.33c.17,1.91-.02,3.43-.18,4.75-.26,2.22-.48,3.99.96,6.95.78,1.6,1.63,3.2,2.45,4.75.57,1.07,1.14,2.15,1.7,3.27.03-.3.04-.57.07-.85l.27-2.41,1.49,1.92c1.6,2.05,1.85,5.04,2.12,7.93.13,1.58.28,3.2.65,4.6.52,1.23,1.08,2.32,1.63,3.2,1.89,3.02,2.51,5.66,3.21,8.71,0,.08.03.14.05.23.08.17.16.33.25.5l-.11.06c.07.32.14.65.23.98,0,.04.35,1.5.64,3.38,1.17,2.16,2.33,4.79.54,6.81Z"/>
      <path class="cls-96" d="M153.55,96.74c-3.12-1.4-6.41-3.93-9.78-7.49-1.61-1.72-2.93-3.7-3.74-5.07-.49-.8-.83-1.71-1.18-2.56-.4-1.03-.79-2.01-1.37-2.81-.58-.85-1.24-1.6-1.93-2.4-.78-.92-1.6-1.86-2.29-2.9l.98-.65c.66.99,1.44,1.89,2.2,2.77.69.78,1.4,1.61,2.02,2.49.66.94,1.09,2.01,1.51,3.06.33.85.66,1.66,1.09,2.4.78,1.32,2.05,3.22,3.6,4.86,3.26,3.46,6.42,5.88,9.4,7.22l-.49,1.09Z"/>
      <path class="cls-75" d="M286.69,258.44c2.13,16.87,15.85,33.21,12.79,50.92-1.93,11.18-9.31,14.03-19.28,15.39-4.34.61-8.96,2.07-13.37,1.47-4.77-.67-8.21-4.05-12.24-6.36-3.99-2.29-15.48-3.13-18.04-7.09-4.71-7.28,9.63-23.62,12.57-29.85l37.57-24.47Z"/>
      <path class="cls-90" d="M225.7,270.04c-4.18,7.2-6.66,14-3.89,22.23,2.4,7.16,7.14,16.38,13.3,21,8.63,6.47,14.39-3.35,17.76-10.4,4.05-8.48,8.36-13.18,15.13-19.82,7.01-6.89,13.1-16.42,20.32-23.08-7.06-.79-15.8-.92-22.99-.69-5,.15-7.44,1.18-12.22.44-2.28-.36-5.55-.68-7.73-.02-2.93.89-4.43,3.61-7.93,3.33l-11.75,7Z"/>
      <path class="cls-21" d="M244.34,258.86c-8.26,1.26-15.42,3.44-20.03,11.08-3.9,6.51.09,15.44,4.39,20.67,2.69-2.25,2.83-6.62,4.57-9.51,1.83-3.03,5.44-5.09,8.22-7,3.38-2.32,14.62-5.75,10.58-12.35l-7.73-2.9Z"/>
      <path class="cls-104" d="M285.86,258.5c-.16.35-.44.6-.8.74-3.84-1.62-8.83.31-12.95-.13-4.08-.43-8.47-1.13-12.63-2.09-4.5-1.03-8.88-2-13.53-1.03-4.92,1.03-8.63,3.69-13.08,5.91,5.73-1.37,13.06.32,18.78,1.51,6.31,1.28,9.82,1.28,16.05-.17,2.02-.46,10.38-3.57,11.78-2.52,1.21.93.84,5.48,1.54,6.86.91,1.79,3.61,5.09,5.27,6.19-.17-2.26-.54-4.22-.56-6.29-.01-2.12.86-4.55.28-6.49l-.15-2.5Z"/>
      <path class="cls-96" d="M354.54,329.11c-.23.26-.5.51-.85.74l-2.45,1.74.94-2.86c.38-1.15.24-3.51-.07-5.78-.1-.15-.17-.29-.26-.46-.59-1.04-1.12-2.03-1.39-2.98-.19-.67-.16-1.22-.13-1.71.02-.44.04-.82-.1-1.29-.17-.57-.52-1.2-.91-1.85-.39-.72-.82-1.43-1.09-2.25-.47-1.46-.93-2.92-1.38-4.35-.3-.97-.59-1.93-.9-2.89-.48-1.17-.9-2.42-1.26-3.69-.29-.77-.59-1.53-.92-2.29-1.12-2.6-2.44-5.09-3.71-7.49-.84-1.57-1.69-3.18-2.49-4.82-.32-.69-.59-1.34-.79-1.94l-.34-.17c-1.26-.67-2.03-2.42-2.7-3.96-.2-.45-.39-.89-.55-1.19-.57-1.05-1.26-1.94-2-2.87-.38-.47-.76-.96-1.13-1.47-1.63-2.3-3.38-4.1-5.39-6.18l-.88-.92c-1.42-1.49-2.58-3.18-3.72-4.83-.82-1.22-1.64-2.41-2.54-3.49v.22s-1.25-1.57-1.25-1.57c-1.44-1.42-3.17-2.5-5.47-2.97l.37-1.93c1.29.22,2.68.51,3.98,1.22-.87-2.19-2.72-4.7-4.39-6.98-1.54-2.1-2.98-4.07-3.76-5.81-1.16-2.58-2.32-5.22-3.43-7.76-2.93-6.67-5.93-13.54-9.31-20.13-3.29-6.43-16.98-24.48-17.12-24.65l1.56-1.2c.58.74,13.94,18.36,17.31,24.95,3.41,6.65,6.43,13.54,9.36,20.25,1.12,2.53,2.27,5.16,3.42,7.74.7,1.55,2.08,3.45,3.55,5.45,2.59,3.55,5.27,7.2,5.3,10.4,1.57,1.53,2.82,3.35,4.06,5.14,1.08,1.58,2.2,3.23,3.51,4.59l.88.92c2.06,2.15,3.84,3.99,5.57,6.4.35.48.72.95,1.07,1.41.76.96,1.54,1.95,2.19,3.17.21.36.41.84.63,1.32.12.3.27.63.43.99.02-2.25.05-4.8.64-6.86l1.46-5.15.48,5.33c.16,1.91-.02,3.43-.18,4.75-.26,2.24-.47,4,.96,6.94.78,1.61,1.62,3.21,2.44,4.75.57,1.08,1.15,2.17,1.7,3.28.03-.3.03-.58.07-.85l.27-2.4,1.5,1.91c1.59,2.05,1.86,5.04,2.12,7.93.14,1.58.29,3.21.65,4.6.52,1.23,1.09,2.32,1.64,3.2,1.89,3.02,2.5,5.64,3.19,8.71.01.08.03.16.05.23.08.17.16.34.25.5l-.11.06c.08.33.15.66.23.99.01.04.35,1.49.65,3.38,1.17,2.16,2.32,4.79.53,6.81Z"/>
      <path class="cls-96" d="M254.5,155.38l-1.55.26-.1-.53c-.52-2.98-1.11-6.37.39-9.18.91-1.69,2.53-3.26,4.08-4.79.73-.72,1.42-1.4,1.99-2.04,2.16-2.45,4.08-4.32,6.05-5.93,2.09-1.69,2.7-2.92,3.62-4.82.33-.68.7-1.45,1.21-2.35l1.38.77c-.49.86-.84,1.62-1.17,2.28-.97,2.01-1.69,3.46-4.04,5.37-1.9,1.54-3.77,3.37-5.87,5.74-.61.69-1.32,1.4-2.08,2.13-1.46,1.44-2.98,2.92-3.77,4.4-1.25,2.34-.71,5.43-.23,8.16l.1.54Z"/>
      <path class="cls-77" d="M283.76,200.25c-1.97-1.41-3.29-3.74-4.57-5.98-1.4-2.48-2.72-4.81-4.72-5.78-1.25-.61-2.78-.12-3.85.39-2.86,1.37-5.81,4.58-6.35,6.88l-1.92-.44c.67-2.89,3.98-6.57,7.43-8.21,1.36-.65,2.65-.95,3.82-.86-.47-.67-.93-1.37-1.33-2.1-5.08-9.18-11.05-18.83-20.24-27.21-4.6-4.2-9.67-7.94-14.57-11.55-4.72-3.49-9.59-7.1-13.98-11.07l1.31-1.45c4.34,3.89,9.17,7.47,13.86,10.93,4.94,3.65,10.04,7.42,14.72,11.67,9.4,8.57,15.47,18.38,20.65,27.71,1.05,1.92,2.42,3.56,3.88,5.3.54.65,1.09,1.31,1.65,2.02.78,1,1.51,2.29,2.18,3.54.99,1.79,2.01,3.63,3.25,4.65l-1.2,1.56Z"/>
      <path class="cls-85" d="M284.98,199.61c-1.99-1.39-3.34-3.7-4.64-5.94-1.44-2.45-2.8-4.76-4.8-5.72-1.26-.58-2.78-.08-3.85.44-2.84,1.39-5.75,4.65-6.26,6.96l-1.93-.42c.62-2.9,3.92-6.63,7.32-8.31,1.35-.66,2.64-.98,3.81-.9-.48-.66-.94-1.36-1.36-2.08-5.2-9.13-11.28-18.71-20.58-26.97-4.63-4.11-9.66-7.54-14.51-10.87-4.72-3.23-9.58-6.56-14.05-10.5l1.31-1.49c4.38,3.85,9.2,7.15,13.87,10.34,4.9,3.38,9.97,6.85,14.7,11.05,9.52,8.45,15.71,18.19,20.98,27.44,1.08,1.91,2.49,3.53,3.96,5.26.55.63,1.11,1.29,1.67,1.98.82.99,1.54,2.29,2.24,3.52,1.01,1.77,2.05,3.6,3.3,4.6l-1.17,1.59Z"/>
      <path class="cls-96" d="M228.21,137.13l-1.53-.4c.26-.99-.16-2.28-.61-3.63-.4-1.2-.82-2.44-.82-3.67,0-1.64.14-3.53.25-5.34.03-.49.06-.98.09-1.44.08-1.23.36-2.54.63-3.8.14-.65.27-1.25.38-1.83.23-1.39.8-2.71,1.36-3.98.59-1.39,1.17-2.71,1.25-3.99l1.57.09c-.09,1.56-.74,3.07-1.38,4.53-.51,1.18-1.03,2.41-1.25,3.62-.11.61-.24,1.23-.38,1.89-.26,1.21-.53,2.46-.6,3.58-.03.46-.06.94-.09,1.44-.11,1.79-.25,3.65-.25,5.24,0,.98.38,2.1.74,3.17.51,1.51,1.03,3.07.65,4.53Z"/>
      <path class="cls-80" d="M218.46,183.61c-.17.35-.44.61-.79.77-2.15-1.59-6.25-4.36-7.14-6.89-.82-2.3.95-7.66,3.17-8.5-10.8-11.38,3.41-25.89,16.48-21.18,6.02,2.17,11.02,6.49,16.06,10.28,5.35,4.03,11.11,7.59,16.05,12.13,5.56,5.13,9.89,11.39,14.21,17.55-8.4.37-13.73,8.52-21.93,10.48l-36.12-14.64Z"/>
      <path class="cls-105" d="M251.58,190.05c4.47-1.42,11.72-4.52,15.55-.3,3.01,3.31,3.06,9.64,4.77,13.69,5.31,12.65,11.78,24.08,3.04,37.4-6.03,9.21-18.13,9.1-27.34,4.88-5.25-2.4-8.9-6.6-12.61-10.87-3.67-4.24-7.68-7.44-12.09-10.83-6.02-4.6-11.58-10.53-12.62-18.36-1.1-8.19,3.94-13.48,10.11-17.94l31.19,2.34Z"/>
      <path class="cls-24" d="M213.06,184.36c3.21-4.05,10.69-3.44,15.27-4.1,2.49-.35,4.66.41,7.13.49,2.27.07,4.05-.72,6.49-.42,8.35,1.07,18.46,3.82,25.38,8.58-4.31,2.2-7.13,8.14-10.98,11.17-5.06,4.02-11.85,5.39-18.19,5.46-10.37.08-24.1,1.76-31.66-6.54.6-.82,1.39-2.04,2.23-2.66l4.33-11.99Z"/>
      <path class="cls-51" d="M238.68,241.16c-5.39-3.99-5.84-8.12-13.15-9.19-6.18-.9-10.03-3.67-11.87-9.89-2.7-9.13-9.78-18.82-8.28-28.89.98-6.59,7.33-8.2,11.98-11.91-3.36,5.65-4.44,12.35-2.95,18.7,1.32,5.57,1.61,10.74,4.43,15.74,3.61,6.44,8.22,7.53,13.54,11.98,2.38,1.99,4.1,3.49,5.32,6.36.91,2.15.99,5.13,3.04,6.55l-2.06.54Z"/>
      <path class="cls-72" d="M278.08,240.49c-1.47,9.1-15.62,6.93-21.87,5.98-4.35-.66-6.9-3.45-10.73-5.06-4.03-1.7-7.01-3.73-10.42-6.63,2.43,4.68,5.73,9.78,10.83,11.83,4.08,1.63,8.84,2.11,13.09,3.27,5.78,1.56,9.2,2.6,15,.23,7.61-3.15,7.28-7.84,8.36-15.33l-4.27,5.71Z"/>
      <path class="cls-35" d="M267.92,189.49c.67,5.07,5.68,9.08,8.72,12.93,3.13,3.95,5.09,7.29,6.92,11.97,3.74,9.59,3.34,19.8-2.8,28.38-3.12,4.35-8.04,6.8-13.42,5.48,3.39-4,2.66-10.51,3.04-15.31.4-5.09,1.76-9.32,2.3-14.34.59-5.2-.83-9.48-1.91-14.5-.77-3.6-4.37-9.32-3.98-12.46l1.14-2.16Z"/>
      <path class="cls-62" d="M306.6,118.89c-4.81,5.39-10.16,9.78-17.03,12.28-3.04,1.13-6.16,1.61-9.38,1.82-2.94.2-6.7.82-9.53-.2-3.29-1.19-2.88-5.1-2.82-7.99.09-4.7-.01-9.2-1.32-13.75-1.19-4.19-1.7-7.27,0-11.47,2.92-7.23,7.4-14.13,11.65-20.64,2.55-3.94,8.06-13.92,14.13-10.49,2.8,1.6,4.65,4.92,6.21,7.6,2.32,4,4.29,8.19,6.28,12.36l1.81,30.47Z"/>
      <path class="cls-83" d="M308.2,114.33c.15.07.26.19.32.34-1.7,3.74-4.67,8.16-8.09,10.55-1.5,1.06-2.93,1.53-4.71,2.09-1.72.54-4.35,2.26-6.2,1.74,8.83-16.4,11.64-38.59,3.2-55.66-2.19-4.4-7.15-11.41.57-12.93,6.09-1.18,10.43.98,12.79,6.01,1.19,2.51,1.43,6.27,2.22,8.95,1.22,4.09,1.03,8.51.95,12.72l-1.06,26.18Z"/>
      <path class="cls-106" d="M229.44,113.41c-2.13-2.54-4.4-4.8-7.1-6.75-2.99-2.17-6.27-4.08-8.67-6.96-5.72-6.88-3.07-16.13,1.34-22.95,4.5-6.96,10.94-12.82,16.79-18.65,2.77-2.77,5.93-5.1,9.33-7.06,3.78-2.2,8.08-3.78,12.44-4.18,3.11-.29,7.3-.27,9.5,2.31,2.57,3.03,2.65,7.11,3.64,10.73l-37.28,53.51Z"/>
      <path class="cls-91" d="M285.51,90.32c-1.57,1.61-2.26,4.04-3.95,5.7-1.58,1.56-3.33,2.75-5.21,3.91-3.32,2.06-7.11,2.69-10.86,3.44-3.68.74-7.39,3.09-10.98,4.35-4.38,1.53-8.66,1.85-13.21,2.78-2.19.45-4.27,1.3-6.38,2.03-2.01.7-4.03,1.91-6.07,2.43,4.53-5.24,7.38-10.9,10.36-17.09,3.53-7.33,6.91-14.64,9.27-22.44,1.93-6.49,3.72-12.97,5.15-19.59.92-4.27,2.86-10.59,8.35-8.49,2.45.94,5.47,1.96,7.38,3.82,2.12,2.06,3.31,5.04,4.36,7.74,1.88,4.84,3.23,9.87,4.65,14.86l7.14,16.55Z"/>
      <path class="cls-23" d="M270.86,101.24c-1.48.99-2.87,1.4-4.56,1.79-1.29.31-3.11,1.28-4.41,1.03-3.08-.59,1.01-9.08,1.62-11.21.71-2.49.42-5.09.65-7.64.28-3.11.6-5.93.2-9.07-.65-5.35-.57-10.73-1.16-16.09-.5-4.37-1.72-8.43-3.49-12.45,1.79-.09,4.36,1.06,6.04,1.7,2.18.83,4.06,1.9,5.99,3.14,3.24,2.05,6.47,4.21,9.37,6.74,2.19,1.92,3.1,4.7,4.11,7.36,1.19,3.08.35,6.21,1.1,9.35l-15.47,25.34Z"/>
      <path class="cls-49" d="M281.01,96.17c-2.08,2.34-3.36,3.98-6.34,4.89-2.5.78-5.03,1.49-7.55,2.12,2.04-3.49,3.19-7.79,4.58-11.59,1.57-4.23,1.63-8.36,1.82-12.78.3-7.29-.44-15.43-2.65-22.42-.91-2.85-3.06-6.2-5.65-7.75,5.3-.01,13.36-1.86,17.84,1.69,4.95,3.91,6.49,11.17,7.91,16.99,1.18,4.87-.47,10.62-1.82,15.29l-8.14,13.54Z"/>
      <path class="cls-108" d="M293.37,71.95c-.69,4.7-2.12,9.09-3.21,13.69-.95,4.08-4.95,7.51-8,10.16-1.64,1.43-3.22,3.37-5.58,3.28,4-6.76,7.19-12.97,9.26-20.61,1.77-6.49,1.9-13.92-.34-20.31-.94-2.64-2-5.22-2.99-7.82,1.25.45,1.3,1.24,1.92,2.19.76,1.15,1.89,1.73,2.81,2.73.93,1,1.61,2.28,2,3.64,1.5,5.09,4.55,10.23,3.54,15.69l.59-2.64Z"/>
      <path class="cls-85" d="M227.56,134.67l-1.32,1.48c-2.5-2.23-5.42-3.84-8.25-5.4l-.39-.21c-2.77-1.52-5.63-3.1-8.47-4.04-11.71-3.91-21.51-11.26-30.99-18.37l-.1-.08c-4.27-3.19-10.04-5-15.14-6.6l-1.04-.32c-2.44-.76-4.56-1.42-6.86-2.67-2.58-1.42-3.72-1.85-6.41-1.27l-.4-1.93c3.46-.75,5.2.06,7.76,1.47,2.14,1.16,4.16,1.78,6.51,2.52l1.03.32c5.26,1.63,11.2,3.5,15.73,6.89l.1.09c9.78,7.34,19.03,14.27,30.44,18.07,3,1,6.07,2.7,8.79,4.19l.39.21c2.92,1.61,5.95,3.27,8.62,5.65Z"/>
      <path class="cls-96" d="M195.61,118.85l-1.13,1.09c-.67-.71-1.53-1.01-2.63-.95-3.59.21-8.45,4.41-10.17,6.69-1.23,1.65-2.21,3.37-3.25,5.21-.29.48-.58.99-.85,1.48-.54.94-.88,2.2-1.18,3.42-.44,1.66-.86,3.37-1.87,4.57l-1.21-1.01c.77-.93,1.15-2.39,1.54-3.94.33-1.32.69-2.7,1.34-3.83.28-.49.56-.98.83-1.49,1.04-1.79,2.07-3.64,3.37-5.37,1.76-2.34,7.06-7.07,11.35-7.32,1.56-.1,2.85.39,3.84,1.44Z"/>
      <path class="cls-63" d="M129.87,175.7c-8.18-.8-11.86-8.44-13.72-15.73-1.96-7.71.88-15.91,5.11-22.4,4.36-6.67,11.43-12.34,19.09-14.68,4.03-1.24,7.47-.49,11.5,1.05,4.09,1.57,7.27,3.81,9.82,7.03,2.97,3.75,7.26,4.35,10.6,7.36,5.24,4.74.94,15.1-.58,20.61l-41.83,16.76Z"/>
      <path class="cls-78" d="M149.36,202.32c-10.96.34-26.41-10.96-23.1-23.42,1.92-7.2,10.04-10.81,15.76-14.45,3.2-2.02,6.01-4.51,9.09-6.7,2.47-1.75,5.17-2.58,7.82-3.95,3.25-1.71,5.9-6.75,9.27-7.67,4.84-1.33,4.23,11.99,4.38,14.59l-23.22,41.62Z"/>
      <path class="cls-30" d="M173.64,191.52c-3.54,4.86-7.18,9.95-13.11,11.97-4.75,1.62-13.79,2.44-16.8-2.75-3.44-5.96,3.36-15.65,5.66-20.97,2.79-6.41,4.08-13.65,7.7-19.67,3.79-6.36,9.95-10.98,15.62-15.54.2.19.2.38,0,.56l.94,46.4Z"/>
      <path class="cls-4" d="M173.89,138.82c-.82,2.1-2.76,3.27-3.98,5.08-1.32,1.93-2.45,4.48-2.89,6.76-1.09,5.48-1.94,13.08-.61,18.58,2.4,9.9,5.36,21.08-2.53,29.49-3.26,3.5-8.6,5.25-13.22,6.04,5.67-.04,11.83.27,16.8-2.9,4.59-2.93,7.9-7.9,10.23-12.71,4.83-9.88,4.32-23.59,2.3-34.21-1.17-6.11-3.71-11.85-5.67-17.73l-.43,1.59Z"/>
      <path class="cls-105" d="M173.7,140.13c-3.46-2.46-7.1-4.72-9.98-7.89-2.9-3.2-5.16-6.37-9.34-7.97-8.05-3.07-23.57-3.98-31.71,11.65,3.27-.06,11.07-5.57,18.14-7.15,6.47-1.44,12.17-.33,17.99,2.59,3.62,1.82,6.61,4.47,10.34,6.18l4.56,2.59Z"/>
      <path class="cls-88" d="M141.12,1.92c5.59-1.13,10.03-1.14,15.45.65,4.92,1.66,10.19,3.02,14.82,5.38,5.77,2.94,9.25,7.92,11.57,13.83,2.28,5.83,5.07,11.76,6.41,17.89,4.31,19.52-7.5,30.41-20.96,32.97-1.68.32-2.07.28-3.64-.47-2.74-1.32-2.97-2.95-3.24-6.02L141.12,1.92Z"/>
      <path class="cls-34" d="M142.39,1.29c7-1.16,12.59.43,17.89,5.17,2.39,2.14,4.4,4.6,7.03,6.48,3.23,2.31,5.75,4.4,6.68,8.48,1,4.39-.49,9.88,1.81,13.89,1.9,3.28,6.16,3.86,8.85,6.27,5.11,4.58,3,14.26-1.29,18.73-1.48,1.54-3.36,2.44-5.13,3.57-1.75,1.12-2.93,2.49-4.25,4.06-4.96,5.95-13.5-.76-18.51-3.65L142.39,1.29Z"/>
      <path class="cls-58" d="M137.37,1.41c2.64.79,4.64-.94,7.18-1.13,2.09-.15,4.91.43,6.74,1.38,4.7,2.42,7.02,9.45,6.93,14.42-.1,4.72-1.26,9.41-1.45,14.14,2.29-1.77,3.38-5.32,5.34-7.53,2.37-2.7,2.44-.39,4.22,1.54.5-.64,1.85-2.74,2.82-2.17.78.47.15,5.27.18,6.08.16,5.12-1.67,10.9-.46,15.85.77,3.2,1.7,5.49,5.24,4.52,3.42-.93,6.33-2.72,9.46-4.31,3.64,4.08.28,11.74-2.87,15.11-3.54,3.77-7.5,9.18-12.64,10.92-6.47,2.2-9.67-4.05-12.56-8.76L137.37,1.41Z"/>
      <path class="cls-26" d="M135.64,75.91c-6.24-2.5-11.29.44-17.52.51-6.46.07-13.12-2.75-17.55-7.36-4.75-4.92-8.81-12.96-7.34-20.01.67-3.26,3.41-4.45,5.91-6.17,2.56-1.74,4.67-4.03,7.64-5.07,1.6-.56,3.32-.78,4.84-1.54,1.53-.75,2.39-2.07,3.71-3.04,1.76-1.3,3.25-.69,4.96.5,3.77,2.64,6.83,6.51,9.89,9.88l5.46,32.31Z"/>
      <path class="cls-86" d="M134.9,72.78c-5-.03-10.07.72-15.05.15-6.28-.72-13.24-3.38-17.92-7.73-4.26-3.98-5.35-10.05-3.29-15.45,1.83-4.8,6.3-7.36,9.97-10.62,2.01-1.79,4.01-4.01,6.63-4.91,2.73-.95,5.5-.06,8.1.84l11.56,37.72Z"/>
      <path class="cls-103" d="M134.61,74.29c-9.4-7.86-26.33-17.61-24.07-32.09.6-3.84,2.82-7.11,5.81-9.52,3.69-3.01,6.5-.82,9.23,2.45,6.19,7.41,10.39,16.5,14.37,25.23l-5.33,13.93Z"/>
      <path class="cls-43" d="M136.18,75.69c-1.19-.77-1.79-2.62-2.55-3.76-.92-1.4-1.97-3.04-2.55-4.72-1.35-3.77-2.29-7.77-2.91-11.7,4.58,7,13.75,7.04,19.44,12.41-.73,1.29-2.24,1.57-3.35,2.26-1.05.67-2.13,1.48-3.14,2.14-1.67,1.09-4.07,2.94-6.05,3.44l1.12-.07Z"/>
      <path class="cls-14" d="M135.2,74.81c.07.23.02.41-.14.52-3.84-2.9-4.31-10.16-5.64-14.49.75.91.96,2.91,1.37,4.06.46,1.32.84,2.46,1.42,3.74.51,1.1,1.32,2.27,2.07,3.25.83,1.05.86,1.95,1.49,3.08l-.57-.16Z"/>
      <path class="cls-73" d="M153.24,70.76c-7.01-2.69-15.57-3.92-21.66-8.46-8.19-6.07-10.92-17.27-12.05-26.84-.29-2.46-.49-4.92-.63-7.38-.15-2.25.15-4.87-.42-7.05-.41-1.55-1.25-2.77-1.48-4.41-.3-2.14-.17-4.36.45-6.43,1.77-5.93,23.78-15.62,27.74-6.4,1.34,3.15-4.74,5.6-4.57,8.93.28,5.53.67,11.06,1.77,16.5,2.88,14.21,10.46,26.25,18.48,38.09l-7.62,3.43Z"/>
      <path class="cls-8" d="M162.19,70.97c-4.18-.26-7.87-.59-11.77-2.36-4.94-2.27-10.12-6.45-13.64-10.53-4.87-5.63-7.38-13.77-7.8-21.08-.41-7.23-.92-14.7.92-21.74,1.38-5.31,2.67-10.1,5.98-14.57,1.59,1.14,3.62.02,4.93,1.65.97,1.18,1.33,2.8,1.85,4.24,1.31,3.64,2.99,7.22,3.92,10.97,1.42,5.67,3.7,11.15,4.98,16.86,1.32,5.89,3.65,11.17,5.79,16.8.62,1.6.85,3.38,1.65,4.88.58,1.07,1.05,1.85,1.42,3.04.54,1.76,1.69,6.02,3.16,7.09l-1.4,4.74Z"/>
      <path class="cls-79" d="M165.02,71.36c-1.86-.34-3.66-.96-5.53-1.24-2.27-.34-4.6-.22-6.82-.9-4.65-1.4-9.56-3.05-14.02-4.94-11.67-4.95-16.3-18.4-17.98-30-.91-6.26-.96-12.36-3.1-18.37.19,12.34-.31,26.55,5.33,37.9,5.29,10.61,16.7,13.18,27.22,16.13,5.33,1.5,10.59,2.45,16.12,2.85l-1.21-1.42Z"/>
      <path class="cls-48" d="M164.59,73.45c-2.55-2.26-4.94-4.68-8-6.23-2.93-1.48-6.75-1.73-9.16-4.14,3.98-.16,8.58,2.81,11.97-.51-1.96-4.4-5.01-6.95-8.72-9.9-3.08-2.43-5.74-5.35-8.94-7.65-1.32-.95-2.75-1.74-4.01-2.79-1.63-1.35-2-2.69-2.99-4.45,2.38,1.3,4.3,3.05,6.89,4.23,3.12,1.4,6.41,2.43,9.19,4.43-5.55-4.95-10.73-10.24-16.29-15.17,1.82,1.87,3.97,3.38,6.13,4.79,1.7,1.09,6,4.58,8.23,4.12,2.72-.52-.15-8.56-.7-10.31-1.3-4.13-2.84-8.01-3.74-12.26-.9-4.22-1.58-8.47-2.42-12.7.28,2.5,1.61,5.06,2.44,7.4,1.29,3.55,2.7,6.96,4.43,10.31,1.82,3.58,2.87,7.42,4.47,11.09.92,2.12,2.07,3.7,3.26,5.6,1.19,1.86.8,4.18,1.89,6.1,1.73-1.89,3.16-4.54,4.55-6.71,1.21-1.9,1.45-5.12,3.33-6.47-.29,3.64-1.16,7.04-1.76,10.61-.48,2.82-.55,5.67-.99,8.49-.18,1.24-.35,2.63,0,3.85.37,1.3,1.67,2.3,1.26,3.76,1.78.28,3.46-2.07,4.98-2.75,2.44-1.1.56,1.1,1.77,2.44,2.4,2.67,8.51-7.32,10.09-8.88-1.05,3.78-2.01,7.18-3.77,10.76-.97,2.01-2.57,3.57-4.05,5.24-2.61,2.93-4.75,6.1-7.35,9.06.1-.11.2-.23.31-.35l-2.3-.97Z"/>
      <path class="cls-53" d="M58.43,132.35c-.86-5.48-2.43-10.89-2.83-16.41-.36-4.99-.75-10.45,2.21-14.77,3.01-4.38,7.57-6.88,12.78-7.54,2.82-.35,5.91-.5,8.62.48,2.52.87,4.19,2.86,6.22,4.49,2.36,1.88,6.51,3.14,7.88,6,2.22,4.64-4.11,11.22-6.58,14.5l-28.3,13.25Z"/>
      <path class="cls-34" d="M63.19,137.28c-2.7-1.92-5.03-3.93-5.84-7.29-.73-3.03-.81-6.93.26-9.9,1.1-3.04,3.91-4.65,6.48-6.32,2.86-1.87,5.68-3.86,8.98-4.83,3.31-.98,6.74-1.2,9.99-2.39,2.68-.98,5.21-2.54,8.18-2.38,2.96.17,6.24,1.79,7.44,4.62,1.25,3.01-.21,6.03-1.7,8.63-1.95,3.37-3.14,7.19-5.28,10.45-4.24,6.46-11.48,7.81-18.67,8.65l-9.85.76Z"/>
      <path class="cls-41" d="M95.66,121.74c-4.51,4.1-9.62,6.6-15.58,7.87-3.1.68-6.26.92-9.38,1.4-2.09.34-5.09.69-6.51,2.5-3.09,3.95,4.32,8.15,7.14,9.27,4.36,1.76,8.65,1.04,12.75-1.09,5.86-3.05,8.64-8.23,10.99-14.14l.59-5.82Z"/>
      <path class="cls-98" d="M99.35,108.46c-2.67-1.42-5.02-1.03-7.36-3.35-1.98-1.95-3.39-4.18-5.84-5.63-4.97-2.96-10.46-3.4-16.07-3.42-3.32-.01-6.62.8-9.6,2.16,4.89-3.77,10.31-7.03,16.7-6.82,5.85.2,11.64,4.43,14.9,9.1,2.09,3,3.52,5.84,7.06,7.4l.21.55Z"/>
      <path class="cls-38" d="M99.83,107.13c-.72,1-1.69,1.49-2.38,2.61-.7,1.13-1.18,2.25-1.46,3.55-.59,2.76-1.26,5.35-1.98,8.09-.78,2.88-1.13,5.24-2.76,7.75-1.59,2.42-3.5,4.78-5.25,7.05-2.18,2.89-4.29,5.09-7.42,6.96,6.29-.47,11.7-6.03,15.25-10.75,1.91-2.52,1.78-4.78,2.66-7.66.84-2.72,2.1-5.29,2.86-8.03.91-3.28.82-5.65.35-9l.15-.56Z"/>
      <path class="cls-96" d="M108.77,100.33c-.44.49-.93.83-1.39,1.12-.36.24-.7.48-1.02.79-.47.45-.91.98-1.34,1.48-.3.34-.6.72-.91,1.06-1.4,1.52-3.5,3.8-5.62,4.14l-.17-1.17c1.7-.27,3.62-2.37,4.91-3.76.3-.34.6-.69.89-1.02.44-.54.9-1.08,1.41-1.57.39-.38.8-.66,1.19-.92.43-.3.83-.56,1.18-.95l.89.78s-.03.02-.03.03Z"/>
      <path class="cls-85" d="M149.46,96.33c-2.25,1.07-5.3,1.03-7.75.99-.44,0-.88,0-1.29,0-3.09,0-5.54.19-7.97.59-2.95.48-5.93.71-8.79.92-2.6.21-5.28.42-7.93.81-2.74.4-5.46.98-8.11,1.53-2.24.47-4.55.94-6.84,1.32-4.48.73-8.71,1.44-13.07,3.38-2.37,1.06-4.97,2.07-7.49,2.92-.26.07-.54.18-.86.29-2.14.75-5.1,1.79-6.97,1.37l.33-1.53c1.44.3,4.38-.73,6.13-1.34.32-.12.61-.21.87-.31,2.48-.82,5.03-1.82,7.36-2.86,4.54-2.03,8.87-2.74,13.45-3.49,2.26-.38,4.56-.85,6.77-1.31,2.67-.56,5.43-1.13,8.2-1.55,2.72-.4,5.43-.61,8.04-.81,2.83-.23,5.75-.44,8.67-.92,2.5-.4,5.04-.59,8.21-.61.41,0,.86,0,1.32.02,2.29.02,5.14.06,7.05-.84l.67,1.43Z"/>
      <path class="cls-17" d="M89.36,105c-2.98.72-5.9,2.73-7.83,4.18-.82.61-1.77,1.15-2.79,1.74-1.79,1.03-3.64,2.11-4.69,3.54l-.95-.71c1.18-1.63,3.15-2.77,5.05-3.86.98-.57,1.9-1.1,2.67-1.67,2.01-1.51,5.06-3.6,8.26-4.39l.28,1.17Z"/>
      <path class="cls-96" d="M69.41,112.86c-1.76.73-4.29-1.08-6.15-2.39-.37-.26-.68-.49-.92-.64-1.97-1.26-3.76-2.11-5.6-2.66-.96-.29-1.93-.47-2.87-.63-1.25-.21-2.54-.44-3.81-.94-.79-.31-1.61-.62-2.43-.92-1.3-.47-2.64-.97-3.89-1.52l.47-1.08c1.22.53,2.55,1.02,3.83,1.48.82.31,1.65.62,2.45.93,1.15.46,2.32.65,3.56.87,1,.18,2,.36,3.03.67,1.96.59,3.82,1.48,5.89,2.79.27.18.61.41.98.68,1.34.95,3.85,2.74,5,2.27l.46,1.09Z"/>
      <path class="cls-96" d="M68.63,111.84c-.44.48-5.08,4.03-12.67,9.81-4.83,3.68-9.8,7.49-12.01,9.24l-.74-.93c2.22-1.76,7.21-5.57,12.04-9.24,5.65-4.34,12.05-9.21,12.5-9.68l.88.8Z"/>
      <path class="cls-29" d="M17.42,160.09c-3.44-.61-5.4-3.83-7.59-6.74-2.25-2.97-3.48-6.92-4.21-10.54-1.45-7.15.62-15.06,5.43-20.6,5.28-6.09,12.82-7.46,19.4-2.86,3.33,2.34,6.89,4.48,10.14,6.97,3.01,2.3,4.03,4.71,2.7,8.33-1.52,4.2-3.33,8.46-5.1,12.56-2.3,5.39-7,8.54-11.75,11.64l-9.02,1.23Z"/>
      <path class="cls-56" d="M46.07,128.41c-2.41,4.61-2.56,8.68-2.12,13.78.39,4.62-.31,8.1-3.1,11.86-1.05,1.41-7.66,9.9-9.72,7.22-1.19-1.57,1.27-6.06,1.86-7.46,1.54-3.61,3.26-7.15,4.72-10.81,2.2-5.49,3.56-10.08,7.81-14.37l.54-.22Z"/>
      <path class="cls-96" d="M33.63,159.97l-.89-.79c1.31-1.47,2.33-3.37,3.31-5.21.42-.79.85-1.6,1.3-2.36.49-.83.91-1.65,1.33-2.45.9-1.75,1.75-3.39,3.24-5.07,0,0,0,0,.02-.01,4.11-4.64,6.17-9.52,8.44-15.43.62-1.62,1.43-3.26,2.21-4.52.25-.36,2.31-3.6,3.56-3.81l.19,1.17c-.41.12-1.77,1.73-2.74,3.28-.75,1.19-1.53,2.76-2.12,4.32-2.31,6.01-4.42,11-8.66,15.78-.02,0-.03.01-.02.02-1.39,1.57-2.21,3.15-3.07,4.83-.42.81-.85,1.66-1.37,2.51-.43.73-.83,1.5-1.27,2.31-1.01,1.91-2.06,3.87-3.47,5.44Z"/>
      <path class="cls-32" d="M44.65,129.62c-4.89-3.96-8.77-9.95-14.46-12.76-5.6-2.78-11.14-.62-15.97,2.7-3.15,2.18-5.26,5-7.05,8.36,4.04-3.45,9.59-9,15.29-8.72,4.99.22,9.9,3.64,13.91,6.32,2.54,1.69,5.11,3.24,7.93,4.42.15-.04.27-.16.35-.32Z"/>
      <path class="cls-12" d="M13.1,182.23c-4.08-3.69-4.73-7.81-2.83-12.91,2.13-5.72,6.48-11.12,11.81-14.13,3.51-1.98,11.35-4.23,13.57.8,2.08,4.71-1.62,11.03-2.92,15.53-.75,2.58-1.12,5.43-2.68,7.68-1.94,2.79-5.16,3.67-8.31,4.38l-8.65-1.34Z"/>
      <path class="cls-3" d="M35.46,153.85c-3.62-4.54-7.66-6.89-13.26-4-3.18,1.63-10.15,5.18-7.1,9.51l20.36-5.5Z"/>
      <path class="cls-19" d="M8.77,109.38c-2.59-.03-6.65.21-8.2-2.38-1.44-2.37.16-5.49,1.69-7.4,3.48-4.29,9.78-7.01,14.41-9.91,5.94-3.73,12.36-4.25,19.25-4.08,6.28.17,14.88,1.63,13.1,9.92-1.03,4.77-4.47,7.51-9.21,8.22-2.15.33-4.53-.15-6.54.65-2.14.85-3.58,2.86-5.61,3.9-1.16.61-2.4,1.25-3.69,1.57-2.36.56-4.6-.4-6.96-.23l-8.22-.27Z"/>
      <path class="cls-102" d="M45.8,101.77c-1.03.36-2.56-.6-3.75-.58-1.28.02-2.81.47-4.13.67-2.97.43-5.81,1.16-8.49,2.59-5.8,3.08-10.93,3.5-17.39,3.42-3.5-.05-6.47.88-9.87-.46,2.37,2.72,4.15,3.72,7.67,4.29,2.89.46,5.94,1.61,8.9,1.16,6.46-.96,11.66-4.49,17.69-6.67,3.41-1.23,7.02-1.65,10.41-2.82l-1.03-1.61Z"/>
      <path class="cls-25" d="M46.85,103.76c-.27-3.96,3.21-6.18,3.44-9.89.2-3.63-3.27-6.15-6.28-7.36-5.79-2.32-12.81-2.49-18.75-.74-4,1.2-7.49,2.23-10.65,5.11,6.12-3.05,12.19-4,18.93-3,3.77.57,13.41.78,13.08,6.53-.18,2.95-3.58,5.63-.58,8.27l.81,1.07Z"/>
      <path class="cls-9" d="M35.64,153.66c-4.57-1.43-8.46-3.89-13.32-1.73-4.64,2.09-7.78,5.92-10,10.34-1.16,2.33-1.69,4.64-2.06,7.21,2.11-1.83,3.75-4.27,5.77-6.16,1.86-1.71,4.08-3.21,6.33-4.41,2.37-1.26,5.03-2.3,7.69-2.62,2.2-.28,4.6-.8,6.37-2.29l-.76-.33Z"/>
      <path class="cls-40" d="M14.83,183.05c-11.52-3.63,6.34-15.07,9.78-18.04,1.78-1.55,3.55-3.03,5.61-4.17-.16,1.22-.87,2.23-1.02,3.47-.14,1.08,0,2.19-.06,3.29-.09,2.04-.47,3.86-.46,5.85,0,4.49-1.94,7.83-5.82,10.05l-8.03-.45Z"/>
      <path class="cls-55" d="M27.44,175.58c-1.08,1.19-1.98,2.38-3.44,3.05-1.49.67-2.97.53-4.52.89-2.45.57-6.14,3.21-8.31.63,1.28,1.96,1.93,4.38,4.04,5.66,2.2,1.32,4.92,1.28,7.21.25,1.86-.84,4.52-2.28,5.51-4.1,1.17-2.14.05-4.35.05-6.61l-.55.22Z"/>
      <path class="cls-10" d="M99.85,107.51c-.91.84-3.42.97-4.58,1.47-1.62.69-3.26,1.54-4.89,2.26-1.41.62-2.98,1.29-4.46,1.67-1.8.45-3.76.18-5.42.59,2.87.63,7.3-.22,9.97-1.28,1.58-.62,3-1.52,4.51-2.28,1.46-.73,2.59-.9,4.21-1.27l.67-1.15Z"/>
      <path class="cls-96" d="M176.97,105.9c-.08.08-.16.17-.25.22l-1.01.75-.24-1.23c-.03-.22-4.15-22.14-10.01-31.12l1.31-.86c5.56,8.5,9.43,27.44,10.14,31.1l.39-.07c.06.47-.06.89-.34,1.21Z"/>
      <path class="cls-52" d="M166.57,75.19c-2.3-1.57-2.49-5.37-3.3-7.83-1.02-3.14-2.12-6.18-3.48-9.2-2.96-6.59-5.97-13.35-7.35-20.46,1.02,5.34,3.23,10.38,5.41,15.36.97,2.21,2.54,4.21,3.25,6.46.7,2.25,1.43,4.36,2.12,6.56.34,1.05,3.4,7.12,2.49,7.3l.85,1.81Z"/>
      <path class="cls-7" d="M140.35,57.92c-4-3.59-6.88-7.39-9.75-11.96-1.72-2.72-3.02-5.53-3.92-8.62-.73-2.51-2.08-5.6-2.19-8.24.47,1.46.37,3.11.7,4.62.36,1.6.74,3.26,1.36,4.79.89,2.22,1.68,4.5,2.85,6.53,2.3,3.96,4.41,9.11,8.96,11.13l1.97,1.75Z"/>
      <path class="cls-6" d="M173.16,139.65c-5,5.59-10.8,12.58-17.72,15.48,3.16-2.38,7.1-3.68,10.24-5.95,2.8-2.03,5.57-5.4,7.73-8.25-.18-.29-.44-.55-.74-.73l.49-.55Z"/>
      <path class="cls-13" d="M174.06,137.52c-.75.67-1.36,1.48-1.58,2.43.91.51,2.04,1.09,2.5,2.1.22-1.1.47-2.4.71-3.61l-1.63-.93Z"/>
      <path class="cls-107" d="M285.04,92.02c.35-1.43,1.37-2.52,1.75-3.98.29-1.07.28-2.13.74-3.18.78-1.85,1.84-3.61,2.6-5.61,1.5-3.97,2.63-8.19,2.26-12.42,1.04,1.66,1.13,5.23,1.17,7.21.02,2.23-.35,4.81-.93,6.89-.58,2.13-1.5,3.89-2.71,5.73-1.16,1.78-2.11,5-4.69,5.17l-.18.2Z"/>
      <path class="cls-61" d="M229.27,113.61c-.25-1.03,1.1-1.97,1.69-2.79,1.06-1.5,1.75-3.3,2.88-4.78,1.57-2.06,2.78-3.88,3.95-6.18,1.25-2.41,2.68-4.81,4.06-7.18,1.26-2.13,3.56-4.69,4.15-7.06-2.84,5.12-5.44,10.69-7.61,16.19-.82,2.07-2.04,4.04-3.26,5.87-.85,1.29-3.02,5.09-4.6,5.29l-1.26.64Z"/>
      <path class="cls-81" d="M268.81,132.52c-.36-.96,2.19-4.5,2.83-5.59,1.04-1.77,2.23-3.71,3.41-5.41,2.65-3.85,4.79-7.9,7.17-11.85-2.17,4.51-4.45,9-6.69,13.3-1.78,3.43-3.24,6.9-6.16,9.66-.42-.24-.45-.57-.44-1.04l-.12.94Z"/>
      <g>
        <path class="cls-20" d="M305.06,66.13c.48,3.13,1.6,9.95,1.77,13.15.37,7.03-.59,13.24-1.92,20.12-.98,5.13-1.69,10.27-3.38,15.25-.83,2.44-4.19,10.95-4.97,12.82,2.04-1.77,10.22-3.38,15.69-15.38l-4.57,5.99-.19-.17c2.44-2.45,1.61-7.83,1.97-10.9.37-3.2.46-6.34,1.06-9.52,1.73-9.47,0-11.97.22-15.04-.47-1.73-1-3.48-1.47-5.11-.79-2.8-1.74-9.18-4.2-11.2Z"/>
        <path class="cls-20" d="M311.58,85.67c.17.7.34,1.41.52,2.13-.15-.71-.34-1.42-.52-2.13Z"/>
        <path class="cls-18" d="M310.51,97.48c-.59,3.18-.68,6.32-1.06,9.52-.36,3.07.46,8.45-1.97,10.9l.19.17c10.65-10.58,7.24-16.37,3.09-35.92-.36,3.1,1.52,5.62-.25,15.33Z"/>
      </g>
      <path class="cls-44" d="M268.74,189.44c-2.96,3.72-7.6,5.74-10.53,10.05-2.97,4.36-6.21,9.72-9.14,13.01,6.84-7.7,13.67-15.4,20.52-23.1l-.85.04Z"/>
      <path class="cls-2" d="M268.26,188.21c-5.14-.09-11.06-3.47-15.71-5.55-5.51-2.45-9.78-2.89-15.68-3.2-4.86-.27-9.7-2.61-14.56-2.18-4.7.42-11.32,5.26-13.51,9.39,9.47-4.31,20.39-3.99,30.8-4.46,9.64-.43,17.15,3.26,26.15,6.15l2.51-.15Z"/>
      <path class="cls-22" d="M269.68,191.06c-1.77,2.51,4.55,13.31,5.63,16.46,1.56,4.59,5.36,11.01,2.87,15.59.34-6-.74-13.99-3.69-19.13-2.53-4.4-6.34-8.77-6.96-14.03l2.16,1.13Z"/>
      <path class="cls-94" d="M284.12,262.55c-4.68,1.53-8.91,10.03-12.2,13.73-2.3,2.61-3.95,4.83-5.4,7.91-1.01,2.12-2.25,5.78-4.95,6.39,8-8.54,15.18-17.94,23.04-26.8l-.49-1.23Z"/>
      <path class="cls-1" d="M272.2,275.67c-7.64,3.12-18.53.22-26.41.31l26.41-.31Z"/>
      <path class="cls-1" d="M265.01,281.97c-3.1,3.17-11.48,2.98-15.64,5.12l15.64-5.12Z"/>
      <path class="cls-67" d="M34.13,153.38c-.16.08-.24.22-.29.4,1.89,1.53,4.66-2.95,5.21-4.37-1.39,2.35-2.97,4.79-3.71,7.48.28.16.25-.09.48-.26l-1.69-3.24Z"/>
      <path class="cls-64" d="M36.2,153.81c-1.28,1.45-2.18,2.94-3.3,4.5-2.17,3.02-5.45,5.06-8.3,7.37l11.6-11.87Z"/>
      <path class="cls-93" d="M38.08,131.88c-4.67-.17-9.55-.57-14.12.68-4.36,1.2-8.45,4.05-12.05,6.7-2.82,2.07-5.89,5.37-.77,6.56,4.22.99,9.18.2,13.26-1.01,5.74-1.69,9.72-5.47,13.69-9.75v-3.17Z"/>
      <path class="cls-109" d="M44.65,129.62c.07,1.23-7.16,3.66-8.54,4.38-3.03,1.56-6.67,3.47-9.95,3.82,2.58-1.72,6.97-2.12,9.95-2.94,1.28-.35,2.74-.51,3.94-.98,1.48-.58,2.57-2,3.75-2.93l.85-1.35Z"/>
      <path class="cls-97" d="M44.6,128.87c-.75.74-1.93.15-2.58-.54.7.63,1.38,1.27,2.11,1.82.48-.29.79-.76.85-1.3l-.37.02Z"/>
      <path class="cls-97" d="M32.27,134.46c-.17.15-.17.27.02.36,4.14-.86,7.97-2.81,11.64-4.77l-11.67,4.42Z"/>
      <path class="cls-71" d="M46.64,103.2c-1.14.18-2.7-.92-3.83-1.29-4.4-1.37-8.9-1.09-13.35-1.97l17.17,3.26Z"/>
      <path class="cls-47" d="M93.7,117.99c-.35,4.32-7.55,6.88-10.84,8.48-2.12,1.02-4.1,1.84-6.27,2.81-2.01.91-4.97,2.92-7.21,2.73,2.47-.51,5.05.16,7.59-.09,2.42-.23,4.62-.89,6.84-1.92,2.77-1.25,11.05-4.59,9.05-8.88l.83-3.12Z"/>
      <path class="cls-46" d="M67.54,112.97c-.3-3.33-.66-8.83,2.47-11.13,3.29-2.44,4.98,2.7,5.16,5.12.22,2.82,1.18,6.11.2,8.83-1.02,2.88-2.07,5.65-2.98,8.59-1.03,3.36-1.74,7.01-5.56,8.03l.71-19.44Z"/>
      <path class="cls-36" d="M56.38,148.13c-1.91-1.33.44-8.42,1.21-10.21,1.36-3.11,3.17-5.88,4.54-8.98,1.12-2.58.85-6.16,1.17-9,.38-3.23,1.62-6.69,2.57-9.87.85-2.78,2.19-6.84,4.34-8.77,1.21,3.3,1.74,7.57,1.41,11.05-.39,4.32.05,8.58-.1,12.88-.21,6.67-4.39,14.24-7.78,19.82-.91,1.49-2.4,3.74-4.09,4.36-1.47.54-4.93.32-3.69-2.01l.42.72Z"/>
      <path class="cls-37" d="M99.65,107.49c-1.3,1.34-1.26,6.5-1.14,8.42.73-3.07,1.32-6.18,2.22-9.23l-1.08.81Z"/>
      <path class="cls-65" d="M96.69,108.05c1.62-.32,3.04-1.53,4.33-2.6,1.15-.93,3.12-2.21,3.86-3.46-2.14,2.42-3.52,5.68-6.91,5.8l-1.28.26Z"/>
      <path class="cls-57" d="M118.45,98.21c2.19.97,5.45-.39,7.78-.49,3.49-.16,6.99-.49,10.47-.59l-18.25,1.08Z"/>
      <path class="cls-68" d="M75.67,110.16c0-.15-.06-.31-.12-.44,1.21-.17,3.15-.07,4.13-.86-.54.46-1.21.64-1.88.89-.51.18-1.51.55-2.03.41h-.1Z"/>
      <path class="cls-96" d="M75.99,112.39s-.04.08,0,.1c1.34-.63,2.58-1.54,3.79-2.34.53-.34,1.16-.57,1.68-.94.55-.39,1.03-.89,1.57-1.27,1.06-.79,2.24-1.43,3.49-1.94,1.25-.51,2.62-.72,3.92-1.14,1.42-.44,2.9-.78,4.21-1.53-1.99.92-3.84,2.05-5.94,2.72-1.13.36-2.29.63-3.34,1.2-1.05.58-2.16,1.09-3.22,1.68-.56.31-1.16.56-1.71.87-.93.5-1.77,1.12-2.7,1.64l-1.75.94Z"/>
      <path class="cls-96" d="M87.79,104.35c.69-.27,1.39-.49,2.08-.78.57-.23,1.54-.75,2.19-.64-.53.46-1.28.75-1.88,1.2-.65.49-1.13,1.19-2.04,1.21l-.35-.99Z"/>
      <path class="cls-17" d="M75.75,108.78c.53-.79,2.15-1.02,2.96-1.31,1.89-.65,4-1.13,6-1.34l-8.96,2.64Z"/>
      <path class="cls-54" d="M161.06,72.04c2.85,1.32,4.87-1.4,7.46-1.17-.9,1.62-1.23,5.28.39,6.33-1.05-.1-2.19-1.43-3.16-2.3l-4.69-2.85Z"/>
      <path class="cls-60" d="M151.04,203.29c6.47-3.89,8.02-12.9,9.51-20.05,1.75-8.44.94-17.31,3.41-25.66.58-1.91,1.32-3.88,2.02-5.69.66-1.7,2.23-3.53,2.57-5.24-3.9,10.97-2.53,22.06,1.25,32.71,2.6,7.29-.25,15.63-5.53,21.08-2.69,2.78-7.82,4.28-11.29,2.46l-1.94.4Z"/>
      <path class="cls-76" d="M176.1,167.24c.95,2.31-.18,6.45-1.37,8.56-.69,1.29-1.85,2.33-2.55,3.63-.74,1.41-1.07,3.03-1.96,4.38-3.02,4.55-7.19,8.05-10.78,12.13,3.44-4.65,9.06-7.81,12.3-12.85,1.42-2.24,3.34-5.13,4.12-7.68.86-2.69.2-5.91.71-8.7l-.48.54Z"/>
      <path class="cls-95" d="M172.18,139.31c-2.96-2.11-5.58-4.52-8.42-6.77-3.15-2.53-6.88-3.81-10.71-4.93-8.59-2.53-15.35.82-22.96,4.68-3.72,1.9-6.85,3.14-9.67,6.37,2.27-2.6,7.84-3.77,11.1-4.27,3.72-.58,7.34-1.64,11.07-2.2,3.41-.51,6.84.92,10.17,1.64,3.22.7,6.23,1.98,9.45,2.56,3.34.6,6.2,1.86,9.4,2.76l.56.15Z"/>
      <path class="cls-70" d="M195.3,118.66c-.45-.13-.96-.28-1.44-.3-.42-.02-.8.13-1.2.16-1.15.08-2.25.08-3.35.49-2.15.79-4.3,2.25-5.85,3.94-.41.45-.86.85-1.26,1.3-.29.34-.82.72-.91,1.18.59-.29,1.11-.75,1.67-1.08.43-.24.83-.52,1.27-.75.87-.5,1.68-1.1,2.59-1.57,1.89-.96,3.95-1.34,6-1.85,1.4-.32,3.09-1.03,4.45-.37l-1.96-1.15Z"/>
      <path class="cls-39" d="M265.24,100.84c5.3-4.69,5.33-18.14,5.51-24.83.21-7.67,1.34-19.85-2.45-26.11,6.43,5.76,4.61,15.77,5.37,23.65.6,6.21.81,14.67-1.61,19.61l-6.82,7.68Z"/>
      <path class="cls-74" d="M256.2,105.85c-.18-2.61,1.72-5.82,2.28-8.46.55-2.56,1.19-5.32,1.75-7.71,1.11-4.94,1.31-10.16,1.4-15.25.18-9.25-.82-18.32-1.17-27.4,4.22,7.67,4.68,19.58,5.69,28.31,1.12,9.74-.34,18.22-6.63,25.91l-3.32,4.6Z"/>
      <path class="cls-89" d="M286.37,127.34c-.99-3.19,2.43-10.28,3.47-13.72,1.49-4.87,2.68-9.07,2.73-14.06.06-5.72-1.76-16.95.93-21.86,5.06,2.65,5.68,19.34,6.07,24.61.68,9.3-5.49,20.02-11.32,26.69l-1.89-1.67Z"/>
      <path class="cls-87" d="M227.62,115.77c.06.07.13.07.18,0,.16-.87.71-2.16,1.42-2.73.69-.57,1.93-.56,2.47-1.27-.16.63-.91,1.28-1.29,1.78-.46.6-.77,1.31-1.09,1.99-.62,1.28-1.07,2.61-1.47,3.98-.85,2.86-1.29,6.05-1.21,9.03.03,1.52-.32,3.61.62,4.9-.8-.88-.72-3.04-.81-4.19-.09-1.26-.37-2.5-.46-3.74-.17-2.45.57-5.1,1-7.54l.66-2.23Z"/>
      <path class="cls-87" d="M266.27,134.04c.46-.49,1.7-.73,2.32-.96.68-.26,1.39-.66,2.12-.74-1.27-.41-.29-1.57-.98-2.15-.33.2-.66.39-1.02.56l-2.44,3.29Z"/>
      <path class="cls-87" d="M267.74,132.21c-.59.84-1.81,1.73-2.65,2.34-.99.73-1.78,1.63-2.81,2.29-2.15,1.42-4.47,3.63-5.85,5.81-.39.65-.85,1.21-1.24,1.84-.3.47-.92,1.02-1.04,1.55,2.04-1.89,4.14-3.72,6.2-5.67,1.96-1.87,3.95-3.87,6.17-5.46.48-.34,1.09-.63,1.55-1,.62-.48,1.09-1.1,1.81-1.3l-2.12-.39Z"/>
      <path class="cls-84" d="M176.66,106.62c3.83,3.38,8.26,5.69,12.5,8.53l-12.5-8.53Z"/>
      <path class="cls-84" d="M159.3,99.96c1.38-.2,3.72,1.04,4.91,1.55,1.52.66,2.99,1.39,4.65,1.66,1.29.23,2.59,0,3.87.18l-13.44-3.39Z"/>
      <path class="cls-84" d="M194.99,119.9c.74.8,1.82,1.07,2.82,1.41,2.13.72,4.59,2.03,6.87,1.85l-9.69-3.27Z"/>
      <path class="cls-84" d="M198.5,121.96c1.12.43,2.45.51,3.63.84,1.32.38,2.62.81,3.92,1.3,3.33,1.27,6.61,2.83,9.61,4.76l-17.16-6.9Z"/>
      <path class="cls-84" d="M214.14,127.92c2.54,1.12,4.88,2.59,7.19,4.03,1.01.63,2.01,1.49,2.97,2.22.94.71,1.93,1.4,2.76,2.27-.02.11-.08.17-.18.2-.1-.03-.18-.08-.24-.18l-12.49-8.54Z"/>
      <path class="cls-5" d="M145.83,96.27c1.27-.42,2.39-1.22,3.67-1.59-.32-.34-.75-.71-.72-1.21.56.51,1.13.81,1.76,1.19.5.29,1.12,1.03,1.71,1.12l-6.42.48Z"/>
      <path class="cls-84" d="M143.83,97c1.81.37,3.94-.75,5.73-.9,1.94-.17,3.26.9,4.82,1.78-.84-.94-2.83-.54-3.92-.48-.73.05-1.46.13-2.18.16-.98.05-2.02-.27-2.97-.03l-1.47-.52Z"/>
      <path class="cls-59" d="M350.93,331.59c-1.24-1.5-.82-5.67-.94-7.62-.14-2.62-.55-5.02-1.33-7.56-1.37-4.49-4.21-10.08-4.27-14.91,2.3,5.7,5.28,11.23,6.89,17.2,1.54,5.8.74,11.18.49,17.05l-.84-4.16Z"/>
      <path class="cls-11" d="M293.07,257.05c1.94-.82,3.92-1.06,5.95-1.52,1.81-.41,3.46-.24,5.3-.34,3.08-.17,6.04-.42,8.96.81,1.57.65,2.88,1.53,3.9,2.91-.01.1-.06.16-.17.19-1-.98-2.74-1.11-4.04-1.53-1.32-.42-2.72-.77-4.07-1.08-2.87-.64-5.18-.87-8.12-.48-2.71.37-5.44.71-7.98,1.83l.27-.78Z"/>
      <path class="cls-50" d="M303.26,253.94c.06.09.14.14.24.17.68-.39,2.13-.35,2.91-.31,1.01.05,1.88-.02,2.9-.05,1.91-.07,4.48.08,5.83,1.68l-11.89-1.48Z"/>
      <path class="cls-101" d="M250.7,154.4c1.14-1.78.64-3.98,1.67-5.54.59,3.3,1.94,5.92,2.83,8.95l-4.49-3.41Z"/>
      <path class="cls-27" d="M226.54,131.74c0-.09-.12-.2.04-.11.06.9.75,2.05,1.18,2.79.47.8,1.01,1.7,1.63,2.45.6.75,1.35,1.4,2.08,2.03.61.53,1.52,1.71,2.29,1.89-3.75-1.58-8.15-4.07-7.21-8.87v-.18Z"/>
      <path class="cls-27" d="M264.34,188.38c-.05-.9,2.05-.63,2.82-.7,1.13-.1,2.17-.32,3.3-.44,2.22-.26,5.56.25,6.49,2.6-2.08-1.49-3.32-3.16-5.84-1.25-1.53,1.15-2.72,3.56-2.22,5.51.39-2.51-1.56-4.18-3.62-5.17l-.93-.56Z"/>
      <path class="cls-96" d="M285.57,200.69c-1.59-2.54-4.23-5.07-4.81-8.26,2.52,2.33,5.04,4.83,6.28,7.87l-1.47.39Z"/>
      <path class="cls-72" d="M261.39,193.84c-2.53,2.33-7.88,3.19-11.19,4.09-4.27,1.18-8.18,1.98-12.49,2.49-4.31.51-8.45,1.47-12.79,2.21-3.77.65-10.54,2.6-13.63.02,3.01,8.43,18.64,8.42,25.66,7.96,8.77-.55,17.37-8.12,23.45-14.03l.99-2.73Z"/>
      <path class="cls-16" d="M257.8,249c5.83-1.92,6.7-14.07,8.29-19.29,2.14-6.97,5.05-14.62,6.18-21.82-1.37,8.95.59,17.11.68,26.08.03,2.09-.8,21.12-5.98,15.24l-9.17-.21Z"/>
      <path class="cls-31" d="M253.48,201.95c-3.21,5.34-13.71,6.41-19.4,6.68-6.6.3-13.09-1.6-19.81-.59,4.03,4.56,8.93,8.63,15.3,8.48,2.92-.06,6.37-.3,9.12-1.38,3.05-1.19,8.64-3.55,10.65-6.08l4.16-7.11Z"/>
      <path class="cls-69" d="M266.88,190.19c-6.61-5.76-18.6-6.83-27.16-7.45-9.68-.71-22.12.24-29.43,7.3,8.11-2.81,19.45-2.66,27.78-2.68,4.04-.01,8.44.26,12.53.97,2.05.36,4.23,1.33,6.34,1.5,2.71.23,4.92-1.23,7.55.03l2.4.34Z"/>
      <path class="cls-15" d="M266.67,210.81c-.17,1.28-.62,2.4-1.35,3.42.46.59.96,1.19,1.67,1.47-.05-.95.12-1.6-.46-2.69.37.39.84.61,1.21.95-.03-1.19.25-2.7.99-3.7l-2.06.54Z"/>
      <path class="cls-15" d="M269.66,211.89c1.1,1.32,1.07,3.08,2.75,3.9.53-.42,1.25-1.03,1.58-1.63l-4.33-2.27Z"/>
      <path class="cls-15" d="M270.55,219.78c.48.31.88.73,1.19,1.17-.38,1.16-.96,2.16-1.78,3.05l.59-4.22Z"/>
      <path class="cls-15" d="M253.69,245.89c.38.58,1.21,1.09,1.77,1.44,1.49-.92,2.33-2.6,1.43-4.14l-3.2,2.69Z"/>
      <path class="cls-15" d="M211.22,157.64c.17,1.99,3.4,4.12,5.65,3.42l-5.65-3.42Z"/>
      <path class="cls-92" d="M238.69,312.66c5.02-3.13,8.61-7.91,11.93-12.62,1.72-2.44,2.87-5.31,4.61-7.73,1.65-2.28,3.89-4.33,4.92-7.01-1.03,6.32-1.72,14.43-4.96,20.05-2.2,3.86-9.34,15.69-14.45,9.13l-2.06-1.82Z"/>
      <path class="cls-33" d="M223.74,275.77c-1.83,5.03,3.06,13.88,7.89,7.87,2.24-2.78,3.32-6.2,5.88-8.81,2.3-2.33,5.23-3.92,7.75-5.98,1.42-1.17,5.31-6.01,7.49-4.43,2.79,2.01-2.18,6.82-3.7,7.78-5.89,3.67-10.53,4.72-13.98,11.57-1.57,3.12-2.33,7.87-6.01,9.38-4.65,1.93-5.56-2.48-5.59-6.3l.27-11.09Z"/>
      <path class="cls-28" d="M252.95,263.45c-2.04,3.45-1.9,5.54-5.54,7.95-3.22,2.12-6.36,3.61-9.06,6.53-2.54,2.74-4.45,6.12-6.37,9.14-2.85,4.49-3.87,4.33-8.47,5.74.92,1.19,3.05,5.13,4.78,5.22,1.28.06,4.65-3.34,5.66-4.3,3.41-3.23,5.11-7.62,7.22-11.61,2.52-4.76,5.22-5.64,9.53-8.42,3.39-2.18,6.9-5.56,6.42-10.04l-4.17-.22Z"/>
      <path class="cls-45" d="M222.72,274.55c-.2,3.19-.17,6.43,1.1,9.42,1.37,3.21,4.11,4.95,6.85,2.06,2.19-2.32,3.61-5.42,5.58-7.93,2.08-2.63,4-5.69,6.69-7.75,2.94-2.25,5.89-3.52,8.38-6.39-2.06-.03-4.7,2.02-6.5,2.95-1.94,1.01-3.94,2.17-5.72,3.44-2.3,1.63-3.92,3.98-5.66,6.14-.74.91-1.24,2.18-2.13,2.94-.78.69-2.08,1.31-3.03,1.76-.87.41-2.65,1.36-3.57.89-1.23-.61-1.51-2.71-1.36-3.86l-.63-3.68Z"/>
      <path class="cls-42" d="M252.21,261.05c-6.63-2.51-19.83-1.36-24.11,4.64,8.24-4.96,18.16,1.86,27.15-1.94l-3.05-2.7Z"/>
      <path class="cls-82" d="M255.64,263.08c-2.76,1.09-8.21.38-10.66-1.12-2.23,1.42-5.7.21-8.38.57-3.1.41-5.08,1.79-7.62,2.87,8.97-1.06,23.12,5.24,29.92-3.95l-3.26,1.63Z"/>
      <path class="cls-66" d="M285.11,261.8c-4.83-2.04-14.48-.64-19.72-.56-6.38.08-13.18,2.22-18.84,4.89,12.06-4.02,25.45-.07,37.23-5.52l1.33,1.19Z"/>
      <path class="cls-99" d="M284.71,263.07c-4.67,1.54-8.9,10.04-12.2,13.74-2.31,2.6-3.95,4.82-5.41,7.89-.99,2.13-2.24,5.8-4.93,6.39,8-8.53,15.16-17.95,23.02-26.8l-.48-1.23Z"/>
    </g>
  </g>
</svg>