<?xml version="1.0" encoding="UTF-8"?>
<svg id="_圖層_2" data-name="圖層_2" xmlns="http://www.w3.org/2000/svg" viewBox="0 0 158.38 120.5">
  <defs>
    <style>
      .cls-1 {
        fill: #d1dcce;
      }

      .cls-2 {
        fill: #b3c7b8;
      }

      .cls-3 {
        fill: #b7cdba;
      }

      .cls-4 {
        fill: #bccebe;
      }

      .cls-5 {
        fill: #bcccbf;
      }

      .cls-6 {
        fill: #bbd0bd;
      }

      .cls-7 {
        fill: #a9b8ac;
      }

      .cls-8 {
        fill: #d5ddcf;
      }

      .cls-9 {
        fill: #cfdbcd;
      }

      .cls-10 {
        fill: #bdcdc2;
      }

      .cls-11 {
        fill: #aac1a9;
      }

      .cls-12 {
        fill: #d6e3d4;
      }

      .cls-13 {
        fill: #e2ecdd;
      }

      .cls-14 {
        fill: #bccfc1;
      }

      .cls-15 {
        fill: #c9dfd2;
      }

      .cls-16 {
        fill: #bcccc1;
      }

      .cls-17 {
        fill: #c0d3c5;
      }

      .cls-18 {
        fill: #bdd0bf;
      }

      .cls-19 {
        fill: #becfc1;
      }

      .cls-20 {
        fill: #b0c6b2;
      }

      .cls-21 {
        fill: #d2decd;
      }
    </style>
  </defs>
  <g id="_圖層_1-2" data-name="圖層_1">
    <g>
      <g>
        <path class="cls-1" d="M124.98,8.33c-1.64,3.49-1.14,6.97,1.13,10.76,0,0,0,.01.01.02-.02-.05-.04-.11-.06-.16,2.43,1.43,4.51,3.57,6.86,5.07,2.15,1.38,4.64,2.48,7.09,3.26,2.31.74,4.83,1.26,7.26,1.26.29,0,.58,0,.88-.02.45-.02.92-.04,1.39-.04,1.26,0,2.55.11,3.75.48l.03-.11-8.49-6.02c-1.24-.61-2.44-1.3-3.65-2.03-3.15-1.86-16.38-7.42-16.2-12.47ZM141.96,4.22c.55,1.19.51,2.51.54,3.82.56,1.08.96,2.29,1.2,3.63.36,1.98,1.05,3.73,1.52,5.75.26,1.07.32,2.21.66,3.26.34,1.05,1.04,1.84,1.46,2.81,1.18.72,2.3,1.53,3.3,2.49.96.93,1.81,1.83,2.73,2.7l.31-1.02c-.13-.23-.25-.46-.36-.7.07-.05.11-.07.16-.07.12,0,.17.16.36.24l-.16.53c.04.07.08.14.12.2,0-.02.01-.04.01-.06,1.22-5.07-3.61-10.67-5.72-14.92-1.21-2.44-2.1-5.2-4.06-7.17-.63-.63-1.33-1.12-2.08-1.5Z"/>
        <path class="cls-9" d="M126.06,18.95c.02.06.04.11.06.16.81,2.42,1.75,4.57,3.3,6.63,3.02,4,6.84,7.26,11.84,8.49.84.2,1.63.3,2.39.3,3.96,0,6.97-2.53,10.57-4.41l.14-.09c-.31-.13-.61-.2-.89-.2-.16,0-.32.02-.46.07l-.23.77-.36-.35c.18-.21.38-.34.6-.42l.29-.95c-1.2-.37-2.49-.48-3.75-.48-.47,0-.94.02-1.39.04-.29.02-.58.02-.88.02-2.43,0-4.95-.52-7.26-1.26-2.45-.78-4.94-1.88-7.09-3.26-2.36-1.5-4.43-3.64-6.86-5.07Z"/>
        <path class="cls-21" d="M128.19,6.54c-1.29,0-2.44.37-3.15,1.61.2-.48.36-.97.52-1.47-.38.54-.56,1.09-.58,1.65-.18,5.05,13.05,10.61,16.2,12.47,1.21.72,2.41,1.41,3.65,2.03l-3.79-2.69c2.06,1.13,4.26,2.12,6.29,3.36-.43-.97-1.13-1.76-1.46-2.81-.34-1.05-.4-2.19-.66-3.26-.47-2.02-1.16-3.77-1.52-5.75-.24-1.34-.65-2.55-1.2-3.63.01.62.04,1.24.15,1.85l-.58-.11c-1.29-.99-2.41-2.02-3.98-2.41-.56-.14-1.09-.18-1.62-.18-.43,0-.86.03-1.3.06-.43.03-.86.06-1.31.06-.15,0-.29,0-.44-.01-1.47-.06-3.47-.75-5.23-.75Z"/>
        <path class="cls-12" d="M133.04,0c-1.82,0-3.61.57-5.01,1.81-1.46,1.29-1.92,3.1-2.48,4.88-.16.5-.32.99-.52,1.47.71-1.24,1.87-1.61,3.15-1.61,1.76,0,3.77.68,5.23.75.15,0,.3.01.44.01.45,0,.89-.03,1.31-.06.43-.03.86-.06,1.3-.06.53,0,1.07.04,1.62.18,1.57.4,2.69,1.42,3.98,2.41l.58.11c-.11-.61-.14-1.23-.15-1.85-.03-1.31.01-2.63-.54-3.82-.14-.3-.32-.6-.55-.89-1.33-1.62-4.24-2.58-6.24-3.07-.7-.17-1.42-.26-2.13-.26Z"/>
        <path class="cls-8" d="M156.3,31.34c.68.82,1.4,1.62,2.08,2.4-.33-.54-1.14-1.55-2.08-2.4ZM152.99,29.91c-.22.07-.42.21-.6.42l.36.35.23-.77ZM153.68,27.66l-.31,1.02c.43.4.88.8,1.37,1.18l-1.42-1.01-.03.11-.29.95c.15-.05.3-.07.46-.07.28,0,.59.07.89.2.65.26,1.32.76,1.95,1.31-.92-1.1-1.79-2.25-2.5-3.48-.04-.07-.08-.14-.12-.2ZM153.48,26.89s-.09.02-.16.07c.11.23.23.47.36.7l.16-.53c-.19-.08-.25-.24-.36-.24Z"/>
        <path class="cls-13" d="M141.04,20.14l3.79,2.69,8.49,6.02,1.42,1.01c-.49-.38-.94-.78-1.37-1.18-.93-.87-1.77-1.77-2.73-2.7-1-.97-2.12-1.77-3.3-2.49-2.03-1.24-4.23-2.23-6.29-3.36Z"/>
      </g>
      <g>
        <path class="cls-6" d="M61.49,94.63c3.01,5.87,1.74,10.22-1.07,14.85-1.53,2.51-3.39,3.97-5.7,5.57-2.18,1.51-3.86,3.19-6.5,3.92-5.12,1.42-10.28,1.92-15.86,1.24-2.53-.31-4.65-1.06-7.02-2.3-1.42-.74-2.97-1.36-4.22-2.48-1.1-.97-1.49-2.08-2.25-3.28-1.03-1.6-2.68-2.7-3.49-4.46-1.17-2.51-.35-5.33-.98-7.93-1.04-4.28-4.71-8.37-3.7-12.75.83-3.64,4.23-5.87,6.98-7.58,5.11-3.18,10.8-5.41,16.35-7.75l27.47,22.97Z"/>
        <path class="cls-14" d="M57.21,94.18c-5.13.52-11.31-2.88-16.49-4.1-4.01-.95-8.36-1.33-12.37-1.67-4.09-.34-5.6,3.67-6.24,7.39-.63,3.65-1.77,8.03-1.38,11.92.28,2.67,1.05,5.97,2.76,8.23-2.36-1-4.12-1.75-5.83-3.96-1.71-2.2-2.96-4.54-3.67-7.23-.52-1.97-.57-3.93-1.17-5.89-.67-2.19-1.95-4.33-1.7-6.56.33-2.91,1.44-6.42,2.57-8.91,2.99-6.54,10.68-7.46,16.97-8.55l26.55,19.32Z"/>
        <path class="cls-10" d="M39.58,86.05c-5.82.68-11.38-1.12-17.27-2.34-4.5-.93-4.88,3.35-5.46,7.09-.64,4.14-1.73,8.4-1.22,12.82.35,3.06,1.89,5.7,3.68,8.24-4.8.7-6.86-9.74-8.17-13.29-2.03-5.51-4.83-11.71-4.48-17.43.13-2.07.54-4.7,1.1-6.61,1.17-4,8.02-3.92,11.28-4.48l20.55,15.98Z"/>
        <path class="cls-3" d="M32.67,57.15c8.84-2.33,17.38-.88,25.71,6.02,6.2,5.14,9.58,12.18,9.71,20.03.11,6.46-1.61,16.03-9.25,14.39-7.31-1.56-13.46-8.22-20.62-10.7-4.47-1.54-9.2-2.3-13.46-4.86-3.65-2.21-4.58-5-3.87-8.86l11.79-16.01Z"/>
        <path class="cls-18" d="M38.06,59.05c4.37-.78,9.03,1.54,13.35,3.54,1.76.82,3.4,1.83,4.91,3.19.97.88,2.9,1.89,3.39,3.16-3.58.23-7.99-2.84-10.73.54-2.66,3.27,4.03,6.49,5.69,8.76-3.74-.78-6.73.28-10.27.51-3.07.2-6.16.42-9.25.58-3.51.18-7.08-.02-9.3-4.14-2.82-5.24-1.79-11.3,2.18-14.06l10.05-2.08Z"/>
        <path class="cls-11" d="M32.96,54.28c4.21-1.87,8.84-2.23,13.64-.2,2.24.94,4.48,2.41,6.61,3.69,2.28,1.35,3.84,3.52,5.64,5.55,2.22,2.5,3.71,5.4,5.65,8.12-1.08-.94-2.08-1.95-3.23-2.76-1.18-.83-2.47-1.26-3.72-2.02-2.1-1.28-3.92-2.92-5.89-4.29-1.83-1.26-3.93-2.56-5.95-3.11-1.12-.3-2.31-.39-3.39-.64-1.62-.36-3.89-1.74-5.37-1.01l-3.99-3.33Z"/>
        <path class="cls-2" d="M31.05,83.93c.85.08,1.87.75,2.72,1.15,1.86.89,3.79,1.58,5.64,2.51,2.43,1.22,4.78,2.42,7.23,3.58,2.58,1.22,5.85,3.47,8.57,3.79-7.69-4.5-16.41-5.85-24.08-10.48l-.08-.55Z"/>
        <path class="cls-15" d="M1.77,74.34c-.52-.19-1.07-.34-1.46.02.53.57,1.46.89,2.04,1.49.6.63,1.21,1.8,1.63,2.6.81,1.58,1.46,3.59,1.89,5.28.42,1.68.86,3.53,1.54,5.11.7,1.62,1.8,3.83,1.92,5.59-1.09-3.35-.48-6.94-1.73-10.33-.65-1.74-1.09-3.57-1.66-5.33-.51-1.55-1.84-3.49-2.04-5.12-.37-.34-.14-.02-.19.14l-1.93.55Z"/>
        <path class="cls-4" d="M28.97,55.16c1.86-1.62,6.33-.28,8.65.42,2.29.69,5.59,1.88,7.59,3.45-1.81.5-4.83.89-6.08,2.39-.77.93-1.55,3.64-1.77,4.91-.32,1.89,1.93,3.7,1.35,5.4-.3.86-1.36,1.11-1.95,1.63-.68.59-1.23,1.37-1.89,2-3.34,3.2-9.09,4.07-13.7,4.42-3.2.24-8.46-1.47-10.78,1.16-1.06,1.19-.84,3.47-.92,5.14-.07,1.51-.27,3.15-.19,4.71-1.77-2.42-2.04-6.21-3.03-8.89-.53-1.45-1-2.72-1.69-4.11-.52-1.05-1.5-3.53-2.31-3.99.02.17.09.32.21.45l26.51-19.08Z"/>
        <path class="cls-5" d="M24.08,75.17c1.58-1.16,4.06-.99,5.97-1.46,3.04-.75,5.99-1.52,9.17-1.82,2.42-.22,4.91-.37,7.35-.51,1.08-.06,2.74-.27,3.67.18-1.2.78-4.04-.48-5.43-.59-4.8-.36-9.29,1.4-13.97,1.67l-6.77,2.53Z"/>
        <path class="cls-19" d="M0,73.89c.59-1.19,2.44-1.81,3.38-2.76,1.06-1.07,2.16-2.06,3.31-3.03,1.18-1,2.38-1.92,3.53-2.96,1.08-.97,1.89-2.28,2.99-3.22,4.82-4.18,10.11-7.61,16.56-8.79,1.75-.32,3.53-.52,5.39-.35,2.13.19,4.51.89,6.58.79-2.55,1.47-5.25,2.56-6.74,5.2-1.42,2.5-2.79,4.65-3.86,7.44-1.34,3.49-4.65,6.62-8.36,6.92-4.28.35-8.43-.78-12.58.44-3.16.93-6.22,1.39-9.66,1.24.18-.16.4-.21.67-.14l-1.21-.77Z"/>
        <path class="cls-17" d="M1.56,73.57c.93.94,2.84.17,3.99.35,1.16.18,2.4.45,3.56.73,2.37.56,4.57,2.23,6.89,3.04,2.3.8,4.61,1.8,6.94,2.78,2.43,1.03,5.69,2.36,7.85,3.82-2.96-1.51-6.08-2.72-9.13-3.49-2.32-.59-4.55-1.73-6.88-2.49-2.13-.7-4.18-1.3-6.25-2.2-1-.43-2.01-.78-2.99-1.24-.76-.35-2.03-.58-2.65-1.13.18.18.37.34.57.49l-1.9-.67Z"/>
        <path class="cls-5" d="M21.22,62.31c1.54-1.16,4.18-1.55,6.15-1.54,2.22.02,4.39,0,6.61-.04,2.68-.06,5.52.35,8.24.65,2.12.24,4.53,1.36,6.58,1.05-5.39-2.34-10.98-2.57-16.41-2.87l-11.16,2.74Z"/>
        <path class="cls-16" d="M6.71,82.21c2.2,3.58,4.02,6.92,5.66,10.75,2.7,6.3,7.29,11.52,11.86,16.25-1.67-2.8-4.5-5.19-6.52-7.82-1.37-1.78-2.71-3.66-3.89-5.55-1.16-1.86-2.24-3.78-3.36-5.66-1.25-2.09-3.81-5.16-3.48-7.52l-.26-.44Z"/>
        <path class="cls-20" d="M42.8,53.53c-.71.43-1.46,1.07-2.32,1.11,1.11,1.73,4.24,2.71,5.94,3.63,1.75.94,3.59,1.88,5.26,3.04,1.99,1.38,3.79,2.81,5.78,4.11,1.9,1.24,3.91,2.45,5.48,4.25-4.99-4.49-11.77-7.85-17.7-9.67-2.02-.62-3.9-1.57-5.84-2.61-1.54-.82-3.54-2.43-5.18-2.66l8.57-1.19Z"/>
        <path class="cls-7" d="M8.86,87.23c.39.25.85.61,1.16,1.27.27-.65.95-.81,1.62-.92-.62.1-1.29.28-1.82.61-.13-.14-.26-.3-.4-.44-.16.37-.23.65-.12,1.15,1.04-.43,1.41-1.47,2.12-2.26,1.63,2.82,4.4-1.21,6.07-1.75,1.22-.4,3.44.33,4.27-.59-.24-.75-.02-.64.05-1.16.58.46,1.17.9,1.79,1.33l-14.74,2.76Z"/>
        <path class="cls-7" d="M35.13,83.61c.66-.4,1.37-1.02,2.1-1.27.73-.25,1.23.39,1.88-.36-.14-.29-.13-.64-.23-.89,2.4,1.79,5.27-2.86,7.57-2.62l-11.31,5.13Z"/>
        <path class="cls-7" d="M9.85,86.64c-.54-.56-1.24-.94-1.86-.87-.19,1.22,1.15,2.22.24,3.11.29.55.77.72,1.37.71l.25-2.95Z"/>
      </g>
    </g>
  </g>
</svg>