<?xml version="1.0" encoding="UTF-8"?>
<svg id="_圖層_2" data-name="圖層_2" xmlns="http://www.w3.org/2000/svg" viewBox="0 0 430.33 251.2">
  <defs>
    <style>
      .cls-1 {
        fill: #a9bdb4;
      }

      .cls-2 {
        fill: #c6beae;
      }

      .cls-3 {
        fill: #748672;
      }

      .cls-4 {
        fill: #928a7a;
      }

      .cls-5 {
        fill: #aac5c5;
      }

      .cls-6 {
        fill: #dfe7b7;
      }

      .cls-7 {
        fill: #98afa9;
      }

      .cls-8 {
        fill: #8ca8a3;
      }

      .cls-9 {
        fill: #839992;
      }

      .cls-10 {
        fill: #bad2cd;
      }

      .cls-11 {
        fill: #8ca196;
      }

      .cls-12 {
        fill: #bac9a1;
      }

      .cls-13 {
        fill: #7f715e;
      }

      .cls-14 {
        fill: #9b8469;
      }

      .cls-15 {
        fill: #c7c7af;
      }

      .cls-16 {
        fill: #bdbea5;
      }

      .cls-17 {
        fill: #9aa094;
      }

      .cls-18 {
        fill: #7d795d;
      }

      .cls-19 {
        fill: #b8c9b7;
      }

      .cls-20 {
        fill: #9dac95;
      }

      .cls-21 {
        fill: #bccdb9;
      }

      .cls-22 {
        fill: #9fb8b2;
      }

      .cls-23 {
        fill: #b8c7bd;
      }

      .cls-24 {
        fill: #95a68a;
      }

      .cls-25 {
        fill: #858e7d;
      }

      .cls-26 {
        fill: #abc2bb;
      }

      .cls-27 {
        fill: #a5a885;
      }

      .cls-28 {
        fill: #a2b6af;
      }

      .cls-29 {
        fill: #afb69e;
      }

      .cls-30 {
        fill: #b8cab9;
      }

      .cls-31 {
        fill: #aec4c1;
      }

      .cls-32 {
        fill: #6b5c4e;
      }

      .cls-33 {
        fill: #94a79b;
      }

      .cls-34 {
        fill: #aabcb1;
      }

      .cls-35 {
        fill: #869c93;
      }

      .cls-36 {
        fill: #b8c9b4;
      }

      .cls-37 {
        fill: #a59e81;
      }

      .cls-38 {
        fill: #b7c7b9;
      }

      .cls-39 {
        fill: #a29187;
      }

      .cls-40 {
        fill: #91a696;
      }

      .cls-41 {
        fill: #b2c1b1;
      }

      .cls-42 {
        fill: #a4b7ac;
      }

      .cls-43 {
        fill: #a9a684;
      }

      .cls-44 {
        fill: #a0afa2;
      }

      .cls-45 {
        fill: #b2c0bd;
      }

      .cls-46 {
        fill: #b6d4d2;
      }

      .cls-47 {
        fill: #93aba5;
      }

      .cls-48 {
        fill: #7f7567;
      }

      .cls-49 {
        fill: #b6c5bc;
      }

      .cls-50 {
        fill: #9c9283;
      }

      .cls-51 {
        fill: #b6cbb0;
      }

      .cls-52 {
        fill: #8b8275;
      }

      .cls-53 {
        fill: #9b9382;
      }

      .cls-54 {
        fill: #8b9585;
      }

      .cls-55 {
        fill: #9ab2a7;
      }

      .cls-56 {
        fill: #c2ccac;
      }

      .cls-57 {
        fill: #bbcfc4;
      }

      .cls-58 {
        fill: #9fac93;
      }

      .cls-59 {
        fill: #95b0a7;
      }

      .cls-60 {
        fill: #98aea3;
      }

      .cls-61 {
        fill: #b0cbc9;
      }

      .cls-62 {
        fill: #b2b18a;
      }

      .cls-63 {
        fill: #a6bbb4;
      }

      .cls-64 {
        fill: #a2b9b5;
      }

      .cls-65 {
        fill: #aac5c0;
      }

      .cls-66 {
        fill: #b7b299;
      }

      .cls-67 {
        fill: #aabfbc;
      }

      .cls-68 {
        fill: #bbcfbb;
      }

      .cls-69 {
        fill: #b6bbac;
      }

      .cls-70 {
        fill: #b7cac5;
      }

      .cls-71 {
        fill: #c2c2a5;
      }

      .cls-72 {
        fill: #b7cac4;
      }

      .cls-73 {
        fill: #847c6a;
      }

      .cls-74 {
        fill: #aaa486;
      }

      .cls-75 {
        fill: #a2b4a3;
      }

      .cls-76 {
        fill: #bacab7;
      }

      .cls-77 {
        fill: #a7baaf;
      }

      .cls-78 {
        fill: #8da59f;
      }

      .cls-79 {
        fill: #b2c1ab;
      }

      .cls-80 {
        fill: #526752;
      }

      .cls-81 {
        fill: #b8cbb7;
      }

      .cls-82 {
        fill: #d6e7d0;
      }

      .cls-83 {
        fill: #c0cca9;
      }

      .cls-84 {
        fill: #d3dbbb;
      }

      .cls-85 {
        fill: #b8ccc5;
      }

      .cls-86 {
        fill: #a2bcbb;
      }

      .cls-87 {
        fill: #8a9c87;
      }

      .cls-88 {
        fill: #c9c8b2;
      }

      .cls-89 {
        fill: #c4d8c8;
      }

      .cls-90 {
        fill: #8a9e8a;
      }

      .cls-91 {
        fill: #a0b4ab;
      }

      .cls-92 {
        fill: #a0b7b0;
      }

      .cls-93 {
        fill: #a3b8b1;
      }

      .cls-94 {
        fill: #91a599;
      }

      .cls-95 {
        fill: #c0d8d7;
      }

      .cls-96 {
        fill: #99ac9b;
      }

      .cls-97 {
        fill: #92a9a2;
      }

      .cls-98 {
        fill: #a5b3a6;
      }

      .cls-99 {
        fill: #b2ac8d;
      }

      .cls-100 {
        fill: #adc390;
      }

      .cls-101 {
        fill: #92a79a;
      }

      .cls-102 {
        fill: #a0b095;
      }

      .cls-103 {
        fill: #a4a98b;
      }

      .cls-104 {
        fill: #8fa48d;
      }

      .cls-105 {
        fill: #b9ccb6;
      }

      .cls-106 {
        fill: #c8e4da;
      }

      .cls-107 {
        fill: #9bb1ad;
      }

      .cls-108 {
        fill: #abc7c2;
      }

      .cls-109 {
        fill: #8fa8a3;
      }

      .cls-110 {
        fill: #c0dbdb;
      }

      .cls-111 {
        fill: #acbba2;
      }

      .cls-112 {
        fill: #9cb1ad;
      }

      .cls-113 {
        fill: #acb7a1;
      }

      .cls-114 {
        fill: #abc0be;
      }

      .cls-115 {
        fill: #bdc4a0;
      }
    </style>
  </defs>
  <g id="_圖層_1-2" data-name="圖層_1">
    <g>
      <g>
        <path class="cls-50" d="M103.77,169.38l4.73-6.6c.52-.74,1.28-1.31,2.16-1.61,24.99-17.22,66.77-37.33,67.19-37.54l1.18,2.47c-.44.21-44.11,21.24-68.64,38.59l-6.62,4.68Z"/>
        <path class="cls-69" d="M110.16,164.8l-1.05-1.26c1.35-1.13,4.8-1.68,8.21-2.14.3-.04.55-.09.77-.11l.26-.04c2.83-.41,5.49-.79,8.41-.36,2.87.41,5.86.95,8.34,2,.71.29,1.42.6,2.11.91.78.35,1.55.69,2.34,1,.56.24,1.16.59,1.81.97.93.54,1.99,1.16,2.67,1.22l-.13,1.63c-1.06-.08-2.23-.77-3.38-1.44-.59-.35-1.16-.67-1.62-.87-.79-.32-1.57-.67-2.35-1.02-.7-.31-1.38-.61-2.1-.91-2.31-.97-5.18-1.48-7.94-1.87-2.68-.4-5.23-.05-7.93.35l-.26.03c-.23.03-.5.07-.79.12-2.04.28-6.27.84-7.38,1.77Z"/>
        <path class="cls-74" d="M130.63,149.96l-1.26-1.05c3.32-3.94,2.36-12.32.92-17-.73-2.35-2.09-4.86-3.28-7.09l-.46-.87c-.56-1.04-1.36-2.05-2.21-3.1-1.28-1.61-2.61-3.26-3.16-5.24l1.58-.44c.46,1.66,1.62,3.12,2.86,4.65.86,1.08,1.74,2.17,2.38,3.36l.46.87c1.22,2.28,2.63,4.87,3.4,7.37,1.34,4.31,2.79,13.75-1.23,18.53Z"/>
        <path class="cls-14" d="M176.45,125.83c-.02-1.07.64-2.06,1.32-3.09.66-1,1.36-2.03,1.35-3.06.01-1.88-.51-4.1-.97-6.07l-.14-.6c-.56-2.4-1.65-4.71-2.7-6.92-1.12-2.35-2.27-4.77-2.84-7.4l1.6-.35c.53,2.44,1.6,4.68,2.72,7.05,1.09,2.3,2.23,4.68,2.82,7.26l.14.58c.45,1.96,1.01,4.38,1,6.46,0,1.52-.87,2.81-1.62,3.95-.55.83-1.07,1.6-1.05,2.17l-1.64.02Z"/>
        <path class="cls-27" d="M210.39,114.86c-.61-1.07-.54-3.14-.47-5.15.05-1.01.08-1.96,0-2.57-.3-2.7-1.09-5.24-1.84-7.38-.74-2.15-1.81-4.9-3.51-7.13-.67-.89-1.45-1.67-2.27-2.5-1.23-1.24-2.5-2.51-3.41-4.18l1.44-.79c.8,1.47,1.93,2.61,3.13,3.8.82.83,1.67,1.69,2.42,2.67,1.84,2.41,2.97,5.32,3.74,7.58.78,2.22,1.61,4.88,1.93,7.74.08.73.04,1.74,0,2.82-.06,1.51-.12,3.6.26,4.26l-1.42.82Z"/>
        <path class="cls-39" d="M261.68,157.06c-1.06-1.76-2.33-4.05-2.74-6.16-.14-.71-.13-1.43-.11-2.12,0-.94.02-1.83-.35-2.49l-.17-.32.12-.34c1.8-5.4.69-13.51-.04-18.88-.43-3.12-1.22-5.91-2.36-8.28-.19-.42-.39-.86-.58-1.31-.39-.91-.79-1.84-1.29-2.55-.67-.93-1.52-1.41-2.49-1.96-.57-.31-1.15-.65-1.73-1.08l.98-1.32c.5.37,1.01.66,1.55.97,1.05.59,2.15,1.21,3.02,2.43.61.85,1.05,1.88,1.47,2.86.18.43.35.85.54,1.25,1.22,2.52,2.06,5.47,2.51,8.77.74,5.42,1.85,13.56.07,19.3.41.96.39,1.98.37,2.97,0,.65-.01,1.25.09,1.8.36,1.88,1.63,4.11,2.54,5.62l-1.41.85Z"/>
        <path class="cls-43" d="M275.31,104.54c2.47-3.33,4.01-7.53,5.49-11.59.77-2.08,1.56-4.23,2.47-6.22,1.11-2.44,1.99-5.14,2.85-8.76.24-1.03.65-2.12,1.03-3.17.68-1.82,1.36-3.71,1.31-5.33l1.64-.06c.07,1.95-.68,3.98-1.41,5.95-.38,1.06-.75,2.06-.97,2.99-.61,2.51-1.49,5.8-2.95,9.05-.87,1.94-1.66,4.06-2.41,6.11-1.42,3.85-2.88,7.83-5.14,11.19h.03s-.61.83-.61.83l-1.31-.99Z"/>
        <path class="cls-58" d="M133.1,166.44c17.64-3.89,34.95,1.85,52.45,4.18,7.17.95,16.86,1.67,21.52,8.11,4.69,6.48.73,15.07-4.53,19.85-7.09,6.41-15.57,5.94-24.22,3.7-.65,2.67-5.23,4.79-7.63,5.79-2.86,1.19-6.88.89-9.81.17-7.22-1.78-13.53-2.71-20.19-6.45-4.73-2.66-9.49-6.72-11.89-11.6l4.31-23.75Z"/>
        <path class="cls-102" d="M137.28,164.58c-8.31,1.73-23,6.53-25.21,16.12-2.59,11.3,12.65,17.43,20.6,20.78,5.89,2.49,19.18,5.13,25.52,5.99-3.47-2.97-15.38-5.8-18.36-9.3-2.4-2.84-5.13-7.28-6.09-10.81-2.28-8.38-.86-14.92,3.59-22.27l-.06-.5Z"/>
        <path class="cls-31" d="M94.94,54.54c-2.54-.91-6.78,2.83-8.38,4.38-2.08,2.03-3.23,5.54-3.63,8.34-7.7,2.05-11.6,6.09-13.99,13.69-2.1,6.69-4.37,14.81-2.49,21.77,1.93,7.14,7.85,15.12,14.2,18.82,7.39,4.3,17.03,1.82,23.92-2.7,15.74-10.32,9.02-33.55,5.81-48.46l-15.44-15.84Z"/>
        <path class="cls-114" d="M94.9,73.28c2.22,5.11,6.31,9.92,7.72,15.31,1.11,4.27.89,8.9,1.66,13.25.27,1.56,1.36,4.47-.12,5.71-1.24,1.06-3.38-.38-4.48,1.05-1.29,1.67.87,5.44.66,7.37-.28,2.7-2.17,3.18-4.56,3.61-4.91.9-9.95.88-14.78,2.15,3.75,3.88,12.75,4.03,17.69,2.97,6.6-1.42,13.21-7.12,18.01-11.51,5.59-5.12,5.14-11.37,3.51-18.39l-25.32-21.53Z"/>
        <path class="cls-34" d="M117.71,99.31c-2.83-2.17-4.98-5.1-7.64-7.43-1.62-1.39-4.49-2.94-5.61-4.75,2.21,5.08,4.67,9.68,7.63,14.33,2.02,3.19,2.84,5.16-.62,7.43-1.12.74-2.39,1.94-3.62,2.4-1.71.62-3.44-.38-4.36,1.65-.76,1.72.45,3.83-.39,5.65-.6,1.33-2.12,3-3.34,3.79-3.07,2.04-6.84,1.68-10.22,2.62,3.67-1.1,7.48.01,10.98-1.15,3.39-1.13,6.22-1.65,9.41-3,2.54-1.06,5.08-2.13,7.56-3.33,1.39-.68,2.87-1.52,4.1-2.45,1.51-1.13,2.42-2.77,3.98-3.83l-7.87-11.94Z"/>
        <path class="cls-113" d="M123.17,110.81c-4.23-.26-6.7.99-9.54,4.14-2.76,3.06-5.28,5.82-9.08,7.66,2.86-1.67,6.8-1.88,10.01-2.75,3.49-.93,6.35-2.08,9.73-.89l-1.12-8.17Z"/>
        <path class="cls-91" d="M123.1,110.3c-6.34-6.98-11.24-15.27-18.09-21.75-7.69-7.27-15.67-14.91-9.75-26.28,5.62-10.81,18.11-12.64,29.05-11.22,10.14,1.32,17.78,6.34,18.34,17.4.65,12.95-7.64,24.62-13.08,35.77l-6.47,6.09Z"/>
        <path class="cls-1" d="M89.6,57.34c-3.51,1.33-5.64,8.13-4.22,11.37.87,1.98,2.91,3.21,4.43,4.59,1.56,1.41,3.22,3.11,5.3,3.71-.96-3.36,1.35-6.34,2.91-9.1,1.94-3.45,3.95-5.41,7.88-5.67,3.07-.21,8.06.98,10.75-.32,2.98-1.42,5.27-3.45,8.55-4.61,4.55-1.62,8.38-2.08,13.18-2.3-4.05-2.11-8.93-2.91-13.38-4.21-2.2-.64-4.33-1.5-6.6-1.82-2.23-.29-4.23.56-6.15.85l-22.65,7.51Z"/>
        <path class="cls-40" d="M135.41,55.53c-3.82,1.24-.4,10.89.44,13.38,1.3,3.85,1.73,7.89,2.69,11.75.75,3.01,1.53,6.11,1.99,9.16.41,2.98-2.58,8.63-3.01,11.39,1.57-2.18,4.99-7.07,5.7-9.67.62-2.23,1.27-4.56,1.82-6.84,1.96-8.16.47-13.85-3.11-21.47l-6.51-7.7Z"/>
        <path class="cls-57" d="M83.73,63.87c2.34-2.85,4.15-6.53,7.19-8.7,3.07-2.21,7.04-3.69,10.6-4.89,6.57-2.2,14.07-4.97,20.89-2.06,3.93,1.68,7.23,4.83,10.91,6.99-.81-2.3-8.72-2.23-10.97-1.81-1.78.32-2.83,1.26-4.4,1.98-1.89.88-3.17.59-5.15.35-6.61-.82-13.3.94-18.91,4.4-2.31,1.43-7.11,4.32-9.58,4.18l-.58-.43Z"/>
        <path class="cls-3" d="M147.45,77.05c-1.54,2.91-2.54,6.09-3.03,9.41,5.07.66,9.71,2.02,14.37,4.08,4.01,1.76,8.67,5.79,13.25,4.9,4.64-.91,8.99-2.7,13.74-3.41,5.14-.77,10.37-.81,14.73-3.98,1.74-1.25,4.79-3.23,4.97-5.58.34-4.41-7.63-9.14-10.44-11.39l-47.59,5.97Z"/>
        <path class="cls-80" d="M145.07,74.77c-.09,3.58,1.38,9.54-1.62,12.37,2.16-1.86,4.14-3.97,6.11-6.13,6.51,2.82,13.05,4.83,19.76,6.99,5.27,1.7,13.27,2.69,18.4-.07,6.55-3.51.99-11.4-.69-16.54l-41.96,3.37Z"/>
        <path class="cls-25" d="M210.78,60.61c2.39,3.52,2.75,11,.78,14.71-1.41,2.65-2.44,5.47-4.66,7.64-1.04,1.03-5.04,5.45-5.98,4.52l9.87-26.87Z"/>
        <path class="cls-90" d="M133.22,56.6c1.21-12.35-2-30.45,14.66-32.55,3.42-.43,6.02-1.26,8.88-3.22,3.63-2.51,6.34-2.81,10.47-.75,8.46,4.2,15.65,11.98,21.68,19.06,5.68,6.63,10.72,13.92,14.03,22.04,1.78,4.34,3.73,9.25,4.37,13.95.6,4.36-1.33,7.58-4,10.87-.19-.08-.37-.16-.55-.26-.15.32-.71.67-.9,1-1.03-.3-.67-.15-1.54.19-1.19-.53-3.15-.5-4.39-.61-1.75-.18-3.31-.5-5.01-.85-4.63-.94-9.3-.17-13.76-1.42-5.03-1.39-10.03-2.89-14.86-4.83-4.58-1.86-8.39-4.89-12.46-7.69l-16.6-14.92Z"/>
        <path class="cls-104" d="M154.35,70.38c7.59,6.13,17.24,10.96,27.11,11.74,3.66.29,7.02.09,10.58,1.33,3.21,1.12,7.42,1.83,10.09,4.03-1.97-1.83-7.93,1.01-10.16,1.41-3.38.62-7.37.23-10.81-.11-7.35-.71-14.78-2.04-21.56-4.77-5.35-2.18-7.9-5.72-10.6-10.82l5.34-2.81Z"/>
        <path class="cls-87" d="M201.22,85.86c-9.73-11.56-17.19-24.28-26.02-36.47-4.38-6.06-9.45-11.63-13.67-17.84-2.01-2.97-6.19-8.99-2.54-12.27,3.54-3.18,10.51-.69,14.14.92,5.56,2.49,10.21,6.42,14.47,10.71,7.27,7.29,17.51,14.41,22.14,23.77,5.7,11.54-.6,23.14-6.99,32.8l-1.52-1.62Z"/>
        <path class="cls-8" d="M296.68,148.6c5.51,2.46,10.43,6,13.43,11.35,3.04,5.47,6.96,11.55,6,18.02-.94,6.41-3.16,12.96-5.81,18.85-2.34,5.21-6.2,12.1-12.63,12.65-5.79.49-10.34-4.71-13.83-8.6-6.51-7.25-13.05-14.77-18.48-22.87-4.34-6.42-9.87-16.58-1.84-22.49,4.85-3.57,11.42-4.52,17.17-5.78l15.98-1.13Z"/>
        <path class="cls-107" d="M259.51,145.06c6.76,3.18,13.89.52,20.92.52,4.14,0,7.97-.35,11.98.96,3.43,1.12,7.08,2.4,9.61,5.1,2.17,2.34,5.3,6.03,4.17,9.41-1.11-1.77-3.69-2.7-5.35-3.77-2.15-1.39-4.4-2.55-6.8-3.41-2.02-.72-4-1.92-6.14-2.33-1.41-.26-2.87-.3-4.31-.31-.76,0-3.39-.32-3.89.46,1.95,1.7,3.71,3.57,5.69,5.28,1.53,1.31,3.12,2.62,4.61,3.99-.24.36-1.5,1.06-1.97,1.17.75.85.68,1.49,1.65,2.23.87.66,1.73,1.34,2.62,1.97-1.51-.55-15.48-3.24-15.05-.07.23,1.56,2.89,3.2,4.08,3.91,1.92,1.15,4.52,1.67,6.03,3.4-1.34,0-3.07-.33-4.37-.63-1.28-.3-2.57-.38-3.84-.65-2.76-.63-5.22-2.22-7.54-3.76-3-1.98-6.57-3.47-9.03-6.15-1.23-1.34-5.34-5.85-4.33-7.5l1.26-9.81Z"/>
        <path class="cls-78" d="M315.57,176.45c.51-.82-1.14-3.99-1.55-4.9-.67-1.5-1.68-2.94-2.25-4.44,1.39,3.71.86,8.13.5,12-.32,3.5-1.15,7.27-2.37,10.58-1.18,3.19-3.5,6.46-5.65,9.07-1.72,2.08-4.69,3.96-7.28,4.72-3.07.9-7.76.65-10.62-.9,1.56,5.46,7.52,8.53,12.77,7.12,5.19-1.4,9.41-4.11,11.91-9.04,1.56-3.05,2.53-5.99,3.32-9.33l1.22-14.88Z"/>
        <path class="cls-97" d="M259.01,149.03c7.14,16.4,13.53,33.6,24.84,47.66,2.72,3.38,6.48,7.45,5.93,12.16-.59,5.1-5.83,8.42-10.11,10.29-2.64,1.16-5.33,1.97-7.92,3.19-1.11.53-2.25.64-3.48.56-1.59-.12-3.19-.05-4.75-.18-1.21-.09-2.22-.37-3.21-1.02-2-1.29-3.57-3.5-5.32-5.11-1.25-1.14-2.74-1.91-4.05-2.97-2.64-2.11-4.69-5.38-6.47-8.24-1.75-2.83-3.11-5.99-4.06-9.19-1.93-6.5-1.96-13.48-.29-20.04,2.5-9.76,7.11-18.78,14.84-25.37.8-.68,1.62-1.37,2.45-2.04l1.6.3Z"/>
        <path class="cls-7" d="M257.2,154.75c.77-.14,1.59-1.82,2.32-.72-.82,1.48-.04,3.35.86,4.5.96,1.23,1.65,2.82,2.44,4.22,1.87,3.31,3.73,6.65,5.77,9.87,1.12,1.77,2.59,3.41,3.54,5.29.91,1.76,1.46,3.69,2.22,5.51,1.03,2.46,2.34,5.18,2.95,7.74.73,3.08,1.49,6.31,2.3,9.42-.23-1.98-.55-4.24-.25-6.26,1.44,1.86,1.96,4.45,3.41,6.4.94,1.26,1.79,2.42,2.62,3.76,1,1.64,1.46,3.49,2.38,5.17.7,1.28,1.9,1.95,2.76,3.11.47-1.3,1.04-2.2,1.68-3.37.89-1.63-.32-3.53-1.07-5.04-2.47-5.05-5.74-9.65-8.41-14.56-2.96-5.45-6.67-10.63-9.94-15.86-1.43-2.3-3.25-4.5-4.03-7.15-.45-1.51-.24-3.25-.56-4.79-.55-2.63-1.44-5.12-2.44-7.59-1.21-3-2.92-6.84-6.03-8.25-.77-.34-.58-.28-1.35.14-.51.27-1.22.58-1.13,1.19l-.04,7.3Z"/>
        <path class="cls-47" d="M246.48,157.37c-4.37,4.82-9.19,9.56-12.97,14.86-3.62,5.07-3.57,11.57-3.01,17.54.55,6,3.04,11.6,6.23,16.66,2.58,4.09,6.03,8.63,9.77,11.73,4.76,3.96,11.16,3.15,16.95,3.67-2.19-2.48-4.81-4.48-7.03-6.92-2.11-2.32-3.79-4.89-5.58-7.45-3.04-4.34-4.51-8.92-5.93-13.97-1.42-5.01-2.18-10.17-1.36-15.38.56-3.61,1.2-7.15,1.98-10.72l.97-10.03Z"/>
        <path class="cls-75" d="M259.71,143.61c2.04,2.62,5.06,3.37,8.2,2.85,1.74-.29,3.45-.6,5.27-.69,2.64-.11,4.84.49,7.41.7-2.97-.65-6.42-.74-9.33.18-2.07.65-3.84.7-5.95,1.02-2.9.44-2.11,2.24-.85,4.15.8,1.19,1.52,2.33,1.64,3.79.14,1.23,0,2.4.28,3.61.63,2.7,1.71,5.29,2.35,7.99-.74-1.49-1.96-2.74-2.8-4.19-.93-1.62-1.69-3.38-2.33-5.13-.78-2.16-1.03-6.26-3.35-7.43-.86,1.56-2.15,3.49-3.69,4.43-.75.46-1.85,1.04-2.71,1.22-1.09.25-1.71.02-2.63.77-1.89,1.52-1.72,3.17-2.51,5.25-1.01,2.58-2.57,4.79-3.79,7.26-.79,1.62-1.94,2.86-2.28,4.68-.32,1.67-1,3.17-1.47,4.8.3-2.87-.34-5.76-.09-8.59-1,1.33-2.5,2.93-3.87,3.91-.86.61-1.28,1.15-2,1.94-.71.78-1.53.79-2.25,1.41-.77-.39-.07-3.14.17-3.89.42-1.36,1.51-2.48,2.35-3.6,1.78-2.33,3.65-4.49,5.42-6.81,1.78-2.36,3.44-4.97,5.4-7.15,1.91-2.11,4.52-3.75,6.63-5.69,2.1-1.91,4.37-4.92,5.5-7.53l1.27.75Z"/>
        <path class="cls-109" d="M298.01,209.82c-1.61.89-2.96,1.91-3.96,3.46-1.09,1.67-1.82,3.53-3.13,5.06-2.53,2.94-6.75,4.7-10.36,5.84-4.19,1.32-8.39,1.01-12.67.45-3.75-.49-7.52-.94-11.12-2.11-4.19-1.36-7.74-3.25-10.68-6.59,4.01,1.42,7.49,4,11.69,4.91,3.38.72,6.3-.53,9.58-1.17,3.24-.63,6.37-1.69,9.61-2.28,3.14-.57,6.07-.75,8.54-3,2.19-2.02,3.95-4.2,5.17-6.94,2.09.39,4.2,1.2,6.28,1.34l1.05,1.03Z"/>
        <path class="cls-112" d="M286.18,1.48c10.32-.91,21.41-2.97,31.5.32,9.11,2.96,20.27,10.42,23.03,20.11,2.89,10.07-2.21,21.73-7.06,30.4-2.59,4.63-5.85,9.43-10.6,12.06-1.77,1-3.99,1.35-5.94,1.96-1.84.6-3.61,1.25-5.47,1.74-2.19.58-4.4.16-6.61.41-3.78.45-7.55.99-11.28,1.74-3.83.77-4.95-.31-6.93-3.78-2.36-4.18-3.69-8.67-5.21-13.17-1.12-3.3-2.15-6.63-3.2-9.95l7.76-41.86Z"/>
        <path class="cls-55" d="M289.27,58.44c-.97-1.24.88-3.91,1.46-5.07,1.04-2.05,2.23-4.17,3.33-6.17,1.69-3.06,4.31-5.23,7.53-6.34,7.23-2.52,14.71-4.15,21.77-7.18,2.76-1.17,5.62-3.52,8.84-1.99-1.8,2.46-1.86,6.08-2.83,8.9-.93,2.71-2.61,4.78-4.04,7.2-1.63,2.77-3.02,6.09-5.29,8.41-3,3.08-7.02,4.97-11.03,6.34-3.48,1.17-6.68,3.05-10.05,4.51-2.62,1.14-8.33,3.88-10.09,0l.39-8.64Z"/>
        <path class="cls-42" d="M291.55,42.33c-.87-5.94-1.12-11.6-.08-17.53,1.02-5.78,2.72-11.85,1.38-17.72-2.7-11.83-15.06-3.38-22.06-1.03-4.34,1.45-8.58,2.75-11.91,6.06-3.63,3.61-6.8,8.45-7.98,13.41-2.77,11.57,4.88,23.46,13.3,30.9,4.06,3.58,8.75,6.78,13.61,9.18,3.64,1.8,8.72,4.79,12.1,1.74.61-.55.39-2.61.91-3.25l.73-21.76Z"/>
        <path class="cls-63" d="M290.84,61.35c-1.36-2.94-1.11-6.57-2.69-9.52-1.44-2.71-3.49-5.34-5.12-7.95-1.87-2.99-3.92-6.01-5.88-8.87-1-1.45-2.13-2.76-3.24-4.12-.82-1-2.57-2.31-2.68-3.63,1.72.88,2.95,3.17,4.25,4.56,1.6,1.68,2.7,3.66,4.27,5.34,1.76,1.88,4.71,5.07,7.4,5.51.99-2.37,2.24-5.12,2.43-7.7.2-2.69.87-5.62.74-8.35-.1-1.86-.83-3.36-.56-5.32.24-1.69.84-3.32,1.31-4.96.41-1.33.61-2.67,1.25-3.93.51-1.03,1.37-1.87,1.03-3.07-1.24,1.27-.89,4.96-1.07,6.65-.29,2.97-.46,5.56-.24,8.5.22,2.95-.78,5.99-.22,8.93.23,1.17.69,1.77.73,3.09.04,1.55.33,2.31.65,3.72.59,2.73-.61,5.67.05,8.43,2.05-2.56,5.17-4.53,8.04-6.04,1.72-.9,3.19-1.29,4.31-2.91-1.27,1.99-3.72,3.17-5.24,5.08-1.35,1.68-3.01,2.93-4.43,4.49-2.5,2.76-3.78,4.31-3.85,8.23l-1.23,3.87Z"/>
        <path class="cls-96" d="M290.06,71.42c-16.23-8.72-34.01-19.67-37.75-39.28-1.07-5.59-.54-9.57,2.14-14.56-3.44,4.61-4.27,8.95-4.95,14.55-.66,5.37-1.78,10.22.44,15.42,2.24,5.28,6.06,9.88,11.17,12.53,4.24,2.21,8.71,5.1,13.27,6.57,2.58.83,5.27.8,7.91,1.35,2.84.62,5.15,2.11,7.43,3.84l.34-.43Z"/>
        <path class="cls-22" d="M288.68,74.14c-.17-4.03-5.38-5.64-8.27-6.95-3.25-1.49-7.62-3.13-9.67-6.36,3.3,1.86,6.34,3.73,10.02,4.77,1.62.46,7.35,3.12,8.36.95.54-1.12-.63-3.23-.86-4.34-.33-1.65-.13-3.14-.02-4.78.24-3.22-.55-6.34.19-9.52.83-3.58,1.79-7.17,3.13-10.59.3,3-.08,6.31.08,9.39.16,2.79.25,5.45.38,8.21.11,2.36.56,4.72.62,7.11.02,1.31.01,4.05,1.1,4.93,1.05-.78,4.66-.88,6.14-.96,2.6-.14,5.64.04,7.96-.94-2.17.22-3.92,1.63-5.85,2.41-1.89.76-3.57,1.69-5.49,2.51-2.35,1-7.15.97-7.59,4.35l-.21-.17Z"/>
        <path class="cls-62" d="M318.55,103.45c1.18-2.3,4.58-3.88,7.07-5.03.38-.17.73-.33,1.05-.5,1.2-.57,2.37-1.23,3.51-1.86,1.48-.81,3.02-1.67,4.65-2.39,2.18-.97,4.47-1.86,6.68-2.72,3.16-1.23,6.42-2.49,9.52-4.05,3.04-1.52,6.52-3.99,9.58-6.18l1.31-.93.95,1.34-1.31.93c-3.11,2.21-6.63,4.74-9.79,6.32-3.17,1.58-6.46,2.86-9.67,4.1-2.19.85-4.46,1.73-6.61,2.68-1.56.7-3.06,1.52-4.51,2.34-1.15.63-2.36,1.3-3.6,1.9-.32.16-.69.31-1.08.5-2.14.99-5.38,2.49-6.3,4.29l-1.46-.75Z"/>
        <path class="cls-5" d="M404.55,34.24c9.13-2.42,18.28,3.29,23.29,10.59,4.69,6.82,1.9,17.26-1.24,24.11-1.95,4.27-3.67,7.84-7.46,10.79-3.76,2.92-7.33,5.99-11.05,8.96-3.92,3.14-8.69,5.22-13.46,6.69-6.62,2.03-10.35-.25-16.51-2.08-2.94-.86-6.33-.84-9.05-2.35-2.35-1.3-3.67-3.76-6.02-5.1-2.33-1.32-6.93-1.2-7.94-4.09-1.83-5.26,8.06-15.1,10.75-18.64l38.69-28.88Z"/>
        <path class="cls-86" d="M376.59,92.33c8.73.8,17.76.8,25.94-2.16,7.59-2.74,13.98-9.49,19.47-14.97-8.5,10.75-19.76,26.01-35.49,23.4-4.88-.8-8.85-1.46-12.24-5.34l2.33-.93Z"/>
        <path class="cls-46" d="M355.15,83.6c7.07-1.8,13.37,2.73,19.51,5.64,6.25,2.97,15.82,6.43,22.83,4.06-3.05,2.84-9.86,3.32-13.83,3.81-3.97.49-8.03-.11-11.5-2.18-6.31-3.78-12.83-10.55-21.03-7.37,0,.62.29.73.75,1.08l3.28-5.04Z"/>
        <path class="cls-108" d="M371.6,24.31c-.26-.12-.46-.29-.59-.53,1.31-2.81,4.17-2.68,6.86-2.79,2.95-.12,6.03-.8,8.96-.69,4.1.15,8.07,1.17,11.75,2.92,3.7,1.74,6.6,4.16,9.99,6.33,2.71,1.73,6.71,3.94,8.12,7-.2,2.04-3.91,3.97-5.45,5.17-1.9,1.45-3.55,2.88-5.36,4.58-3.95,3.72-8.11,7.47-12.36,10.73-8.94,6.86-17.96,14.6-27.25,20.97-2.17,1.48-11.08,10.19-13.54,7.44,1.22-3.49-.15-7.67.34-11.27.55-3.96.29-7.58.15-11.55-.17-4.71-.7-8.57,1.37-12.85,3.24-6.64,7-13.16,13.16-17.59l3.83-7.87Z"/>
        <path class="cls-65" d="M386.85,19.17c.82-2.69,11.35-.4,14.14.15,4.46.89,6.41,3.52,9.61,6.56,2.93,2.78,4.77,5.81,7.15,9.03,2.46,3.32,6.76,4.82,8.78,8.51-3.66-3.09-7.31-2.45-11.49-3.97-3.89-1.41-7.38-5.01-10.64-7.48-3.68-2.79-7-5.34-11.24-7.24-4.83-2.17-14.66-5.77-18.54-.83l12.22-4.74Z"/>
        <path class="cls-26" d="M357.56,83.26c-3.02-10.99-5.65-23.89-1.32-34.9,4.86-12.31,17.93-20.79,30.12-24.48,5.81-1.75,11.78-2.55,17.84-2.75-14.9-7.9-31.22-10.77-43.39,3.31-8.87,10.24-14.62,26.86-11.4,40.48,1.98,8.39,5.44,13.76,1.42,22.24,1.48-2.05,4.95-3.22,7.34-3.98l-.6.08Z"/>
        <path class="cls-106" d="M351.96,87.1c1.74-.95,3.77-1.1,5.58-1.84,2.02-.84,3.4-2.3,5.04-3.62,2.76-2.23,5.63-4.17,8.28-6.64,2.72-2.56,5.41-5.14,8.15-7.85,1.75-1.75,3.35-2.98,5.5-4.28,1.67-1.01,3.46-3.06,5.27-3.52-2.06,3.34-6.99,4.58-9.92,6.83-3.35,2.56-6.71,5.1-9.75,7.83-2.74,2.48-5.55,4.79-8.56,6.85-3.39,2.3-7.75,3.28-10.38,6.53.16-.19.3-.38.45-.57l.35.27Z"/>
        <path class="cls-46" d="M356.78,84.29c-1.82-7.63-5.65-16.35-4.87-24.45.37-3.82,1.63-8.46,3.31-11.85,1.94-3.93,3.23-9.04,6.17-12.38-4.17,5.87-6.69,13.27-6.61,20.6.1,8.91-2.36,21.02,3.03,28.87l-1.03-.79Z"/>
        <path class="cls-61" d="M391.67,59c3.26-4.28,6.11-7.59,10.35-10.74,2.27-1.67,4.34-3.3,6.87-4.64,2.14-1.16,4.8-1.75,6.11-3.97-3.14,3.4-7.75,5.57-11.07,8.92-1.65,1.68-3.34,3.25-5.24,4.7-2.93,2.23-6.87,4.06-9.35,6.65l2.33-.92Z"/>
        <path class="cls-51" d="M288.45,75.36c.96-1.83.3-4.83.53-6.93.25-2.35.57-4.72.78-7.14.21-2.42.97-4.78,1.01-7.2.04-2.43.42-5.39.91-7.79-1.41,2-.5,6.82-.38,9.18.13,2.29,0,4.41-.25,6.7-.47,4.06.17,10.2-2.98,13.22l.38-.04Z"/>
        <path class="cls-77" d="M298.67,67.32c6.47-2.2,13.14-2.92,19-6.67,3.3-2.13,6.85-6.2,8.77-9.65-.98.18-1.49,1.19-2.09,1.95-.85,1.08-1.78,1.83-2.79,2.76-1.28,1.18-2.67,2.22-4.02,3.26-4,3.07-8.81,4.8-13.71,6.07l-5.16,2.26Z"/>
        <path class="cls-11" d="M274.43,9.73c-1.05,1.34,1.23,3,2.39,3.18l-2.39-3.18Z"/>
        <path class="cls-94" d="M288.56,1.17c-1.08.29-2.28-.15-3.44.04-1.32.2-2.21.67-3.37,1.19-2.12.92-4.36,1.65-6.55,2.33-4.07,1.27-9.08,1.71-12.71,4.21-1.53,1.06-5.06,3.98-5.15,5.89.68-.31,1.48-1.4,2.2-1.88,1.08-.71,2.18-1.06,3.41-1.4,2.17-.61,4.14-1.53,6.09-2.56,2.12-1.13,4.62-1.32,6.84-2.29,1.71-.75,3.42-1.64,5.07-2.73,1.61-1.05,5.11-3.47,6.96-1.93l.66-.87Z"/>
        <path class="cls-33" d="M294.88,69.59c10.08-1.34,20.62-.51,29.53-6.08,7.7-4.82,14.18-11.01,16.17-20.11,1.09-4.96,1.31-9.39.19-14.36-.87,3.99-2.43,7.18-4.5,10.62-1.87,3.14-1.65,6.8-3.26,10.03-3.41,6.91-7.78,12.37-15.08,15.23-3.67,1.43-7.47,1.97-11.13,3.42l-11.93,1.25Z"/>
        <path class="cls-89" d="M259.71,147.51c.95.52,1.32,1.96,1.72,2.86.41.93,1.11,1.54,1.43,2.49.65,1.86.96,3.85,1.67,5.65,1.48,3.8,3.57,7.54,5.28,11.27,1.16,2.54,2.73,4.92,4.01,7.35-2.88-3.45-4.34-7.58-6.81-11.23-2.38-3.51-4.48-7.94-5.33-12.19-.21-1.01-.39-1.87-.86-2.85-.22-.45-.54-.89-.7-1.32-.31-.77-.13-1.58-.44-2.3l.04.26Z"/>
        <path class="cls-64" d="M268.87,146.9c2.03-.26,3.83.37,5.84.25,1.67-.09,3.4.43,5.05.71,1.59.26,3.14.49,4.7.85,1.59.37,2.91,1.1,4.45,1.55,3.14.91,6.06,2.98,8.88,4.65,1.11.67,1.93,1.41,2.9,2.25.88.76,2.34,1.49,2.67,2.7-2.95-2.37-6.42-4.74-9.84-6.35-3.46-1.64-6.79-3.57-10.51-4.58-2.59-.71-5.4-.9-8.08-1.3l-6.08-.74Z"/>
        <path class="cls-92" d="M266.63,160.09c3.15-.08,6.55.28,9.64.88,4.2.8,8.06,2.67,12.11,3.98l-21.75-4.85Z"/>
        <path class="cls-92" d="M272.57,166.44c2.99,1.09,6.18,1.69,9.3,2.27,5.29.99,10.46,2.45,15.23,4.93l-24.53-7.2Z"/>
        <path class="cls-92" d="M274.53,174.12c3.4,1.91,7.62,2.47,11.2,4.04,6.54,2.87,12.93,6.14,19.16,9.64l-30.36-13.68Z"/>
        <path class="cls-92" d="M274.06,178.35c5.18,8.22,10.43,16.46,15.45,24.88.83,1.39,1.51,3.08,2.67,4.23-2.36-2.01-3.97-4.99-5.63-7.54-1.21-1.85-2.58-4.03-3.94-5.65-.09,1.01.18,2.33-.03,3.3-.49-1.98-.22-4.13-.84-6.13-.35-1.15-1.58-3.6-2.69-4.24-.43.72-.05,2.25.04,3.07.12,1-.27,1.69-.29,2.62-.69-.27-.09-2.96-.05-3.73.07-1.15.09-1.79-.42-2.85-1.24-2.62-2.68-4.84-3.56-7.67l-.7-.29Z"/>
        <path class="cls-92" d="M289.41,195.51c.88.45,1.77.89,2.66,1.33l-2.66-1.33Z"/>
        <path class="cls-28" d="M245.65,162.7c-.89,2.05-1.01,4.05-1.3,6.24-.29,2.16-1.02,4.22-1.41,6.37-.31,1.76-.77,3.58-.87,5.37-.09,1.5.13,3,.06,4.51-.14,3.03-.02,6.18.73,9.12.93,3.53,1.46,7.39,3.41,10.56,1.28,2.08,3.06,4.09,4.74,5.84,1.15,1.21,2.57,2.02,3.79,3.16-1.94-2.7-4.4-5.05-6.32-7.78-1.67-2.37-3.68-5.44-4.32-8.28-.69-3.06-1.6-6.34-1.91-9.47-.27-2.71-.16-5.61-.03-8.31.08-1.52.37-3.04.46-4.56.15-2.99.9-5.76,1.32-8.76l1.66-3.99Z"/>
        <path class="cls-92" d="M267.15,175.38c-.09,2.66-.51,5.26-.55,7.93-.05,3.98-.14,7.94.13,11.9l.42-19.83Z"/>
        <path class="cls-35" d="M316.02,174.97c.44,6.18,2.24,12.89.39,19.02-1.84,6.03-5.93,11.85-11.65,14.69-3.15,1.58-6.51,1.31-9.9,1.76,2.89-.45,5.6-2.2,7.82-4.04,2.22-1.86,4.45-3.99,5.97-6.48,1.51-2.46,1.77-5.87,2.49-8.65.74-2.95,1.29-5.94,2.04-8.89.42-1.63.83-3.13,1.1-4.81.23-1.48.32-2.91.58-4.39l1.15,1.79Z"/>
        <path class="cls-20" d="M201.45,85.57c-4.05-5.47-8.68-11.05-12.69-16.62-4.52-6.27-9.56-12.5-13.67-19.03,4.55,7.7,10.15,14.67,14.77,22.15,3.21,5.19,6.48,11.06,11.73,14.53l-.13-1.02Z"/>
        <path class="cls-60" d="M137.1,31.62c-2.16,4.73-3.18,8.82-3.66,13.97-.42,4.46-1.41,8.91-.79,13.39,1.07,7.86,8.69,16.73,15.71,20.18,4.32,2.12,9,4.89,13.72,2.67-2.72-1.81-4.61-6.34-6.07-9.2-1.81-3.5-3.19-5.95-5.66-8.95-5.17-6.32-8.54-12.67-11.23-20.22-1.31-3.66-3.87-7.38-1.94-11.33l-.07-.51Z"/>
        <path class="cls-103" d="M174.51,101.73c-3.45-3.18-3.77-9.2-4.05-13.43.15,2.35,1.8,4.53,2.49,6.77.75,2.46.6,5.29,1.69,7.69l-.14-1.02Z"/>
        <path class="cls-81" d="M104.92,91.43c-.05-1.13,2.61,2.52,3.15,3.22,1.33,1.73,2.64,3.17,4.2,4.64,2.1,2,4.04,4.24,5.57,6.77,1.27,2.12,2.33,4.3,3.41,6.42.99,1.97,2.33,3.91,2.69,6.15-1.93-1.83-3.1-4.99-4.7-7.19-1.63-2.23-3.36-4.11-4.99-6.38-3.02-4.25-5.06-9.16-8.45-12.98l-.88-.66Z"/>
        <path class="cls-98" d="M121.41,113.13c-1.13-1.98-2.63-4.28-4.09-6.2-1.4-1.84-4.21-3.79-4.77-6.05,3.3,2.66,6.02,5.89,9.6,8.16,4.68-5.08,8.56-10.23,10.59-16.85,1.14-3.77,2.3-7.22,3.1-11.16.42-2.1,1.06-4.15,1.48-6.25.39-2.06.07-4.58.94-6.52,2.15,8.72,3.91,16.72,1.95,25.55-1.45,6.58-4.94,11.33-9.45,16.32-2.6,2.9-4.88,6.09-7.21,9.2l-2.15-6.21Z"/>
        <path class="cls-24" d="M117.39,173.27c2-.34,3.74-2.73,6.34-2.89,2.91-.17,5.78,1.7,6.35,4.67-3.08-1.27-8.15-3.27-11.32-1.18l-1.37-.6Z"/>
        <path class="cls-99" d="M247.69,111.73l1.47-1.6c.19-.21.38-.43.53-.66l.45.31c3.53.35,7.2-.98,10.75-2.26,1.45-.52,2.93-1.05,4.37-1.45,8.81-2.5,21.93-2.43,33.5-2.37,9.48.05,18.44.09,21.11-1.47l1.1,1.89c-3.19,1.87-11.59,1.82-22.22,1.77-11.43-.06-24.37-.13-32.89,2.28-1.36.39-2.75.88-4.23,1.41-3.8,1.37-7.73,2.79-11.77,2.37l-2.16-.23Z"/>
        <path class="cls-52" d="M174.34,127.32l-.29-2.17c2.96-.39,5.97-1.65,9.8-3.27,5.41-2.28,12.16-5.11,22.39-7.03,5.14-.94,9.51-1.23,15.33-1.38,7.37-.21,28.45-2.68,29.97-3.23,0,0-.09.04-.2.12l1.38,1.7c-1.3,1.05-26.26,3.47-31.08,3.61-5.73.15-10.01.43-15,1.36-9.99,1.85-16.62,4.65-21.94,6.88-3.97,1.66-7.1,2.99-10.36,3.42Z"/>
        <path class="cls-18" d="M36.2,219.37l-2-1.85c.1-.12.19-.27.28-.39l.07.05c4.64-4.31,11.28-7.11,17.13-9.57.72-.31,1.41-.61,2.1-.9,13.63-5.83,27.13-18.75,39.03-30.15,8.1-7.74,15.09-14.44,20.9-17.77l1.36,2.38c-5.53,3.16-12.4,9.74-20.37,17.36-12.07,11.57-25.76,24.67-39.86,30.69-.68.31-1.39.59-2.11.91-5.74,2.42-12.24,5.16-16.55,9.25Z"/>
        <path class="cls-73" d="M7.32,243.04c14.84-19.87,26.61-26.53,28.15-26.92l.81,3.18s.04,0,.07-.02c-1.62.58-17.31,13.59-31,31.92l1.97-8.16Z"/>
        <path class="cls-100" d="M353.32,82.29c.21.62.42,1.63.38,2.27-.07.73-.63,1.52-1.12,2.11.73-.24,1.95,0,2.7.06-1.83.88-3.65,1.78-5.5,2.67-1.93.95-4.27,1.28-6.24,2.13.61-.57,1.69-.62,2.37-1.07.72-.47,1.32-1.04,2.12-1.48,1.47-.81,2.61-2.23,3.66-3.62l1.64-3.07Z"/>
        <path class="cls-100" d="M318.94,102.77c.34-.56.8-.71,1.29-1.07.45-.31.69-.83,1.1-1.13.79-.59,2.03-.85,2.94-1.33,2.21-1.22,4.35-2.7,6.76-3.51,1.26-.41,2.64-.7,3.8-1.37-.42.51-1.51.69-2.13.96-.78.36-1.53.76-2.29,1.16-1.26.69-2.32,1.38-3.51,2.11-1.17.7-2.44,1.42-3.59,2.14-1.42.86-2.99,1.31-4.48,1.95l.11.09Z"/>
        <path class="cls-84" d="M331.49,95.58c.3-.29,1.05-.6,1.45-.8.44-.22.91-.38,1.35-.6.91-.43,1.79-.63,2.67-1.02.96-.43,1.98-.68,2.88-1.13.89-.46,1.71-1.02,2.66-1.39,1.46-.57,3.01-1.01,4.51-1.56-.53.86-2.05,1.34-2.97,1.68-1.02.37-1.96.83-2.92,1.32-.8.41-1.72.73-2.58.97-1.49.44-3.37.34-4.68,1.26l-2.36,1.27Z"/>
        <path class="cls-71" d="M322.53,101.46c-.37.56-1.03,1.06-1.53,1.34.53.15,1.17.73,1.54,1.12.27.28.99.96,1.14,1.29-1.25-.11-2.36-.26-3.61-.31-1.18-.05-2.37.25-3.5.23.92-.43,1.89-.5,2.46-1.48.49-.87.62-1.46,1.75-1.79l1.75-.39Z"/>
        <path class="cls-11" d="M280.13,43.91c-.85,1.02-.56,1.84.69,2.34.9-.56.92-1.1.83-1.82l-1.52-.51Z"/>
        <path class="cls-12" d="M287.81,70.45c.35.71,1.21,1.56,1.8,2.14-.77.93-.72,2.69-1.11,3.8-.45,1.32-1.04,2.44-1.6,3.75-.5,1.14-.83,2.53-1.46,3.57-.62,1-1.81,2.34-1.94,3.5l4.32-16.76Z"/>
        <path class="cls-37" d="M280.04,98.16c-1.78.5-2.02,2.22-2.07,3.79,1.23,1.15,2.69,2.18,4.07,3.19-1.89.07-3.99.24-5.57,1.15-.6-.48-.68-.15-1.2-.08l4.76-8.05Z"/>
        <path class="cls-54" d="M257.97,145.27c-1.38-2.39,1.22-7.08,1.2-9.81.06,3.02.74,7.33,1.53,9.83l-2.73-.02Z"/>
        <path class="cls-59" d="M256.6,151.93c-1.68,3.34-6.29,3.81-7.99,7.75-1.12,2.63-2.53,6.47-2.77,9.42-.28,3.62-1.16,8-.59,11.67.73,4.7,3.08,8.32,4.41,12.74-1.52-6.81-1.69-14.08-.27-20.91.85-4.11,2.82-7.15,5.05-10.63,2.27-3.53,1.47-5.9,2.66-9.65l-.49-.37Z"/>
        <path class="cls-9" d="M309.4,159.34c7.02,8.76,11.51,20.28,7.04,30.78-.28-5.4-2.61-10.38-2.78-15.87l-4.25-14.92Z"/>
        <path class="cls-4" d="M252.72,112.42c3.93-1.54,6.65-3.81,11.07-4.64l-11.07,4.64Z"/>
        <path class="cls-4" d="M247.98,112.65c.53-1.16,3.23-1.6,4.34-1.99,1.65-.58,3.16-1.07,4.91-1.23,2.66-.26,5.97-.37,8.4-1.49-.45.76-2.35.98-3.18,1.27-1.05.37-2.04.9-3.12,1.28-1.04.36-2.14.57-3.18.86-.98.26-2.27.71-3.26.79-1.07.09-2.45-.02-3.41-.16l-1.5.67Z"/>
        <path class="cls-101" d="M169.31,80.84c-4.2.24-8.02-2.75-11.11-5.23-3.53-2.85-7.19-5.26-10.1-8.8-5.72-7-7.41-15.04-11.23-22.98-2.13-4.41-3.26-8.47.08-12.65-.99,5.53,1.34,10.95,4.67,15.25,3.18,4.09,5.99,8.49,9.24,12.51,5.39,6.69,10.15,13.74,17.91,17.66,3.77,1.91,7.56,3.71,11.4,5.62l-10.86-1.39Z"/>
        <path class="cls-20" d="M189.47,80.83c-1.49-.71-3.44.15-5.24.14-2.58-.04-5.53-.69-7.97-1.48-4.56-1.47-8.24-3.98-11.98-6.84,3.14,2.37,6.1,3.98,9.92,5.17,5.02,1.57,12.25.95,16.58,4l-1.31-.99Z"/>
        <path class="cls-83" d="M199.05,84.04c.51.81,1.44,1.17,2.08,1.86.52.56.96,1.27,1.37,1.96.5.8.93,1.54,1.45,2.35.5.82,1.18,1.67,1.58,2.51.44.9.94,1.89,1.07,2.89-.34-.78-.88-1.55-1.44-2.19-.56-.65-1.07-1.29-1.61-1.94-.55-.66-1.22-1.16-1.76-1.8-.5-.57-.85-1.33-1.4-1.9-.3-.29-.52-.67-.8-.94-.33-.32-.8-.4-1.2-.55.33.37,1.36.17,1.79,0l-1.13-2.23Z"/>
        <path class="cls-83" d="M203.88,85.35c-.18.27-.3,1.09-.38,1.43-.11.51-.12,1-.04,1.48.25,1.42,1.14,2.5,1.79,3.73-.27-.11-.4-.43-.53-.66-.29-.44-.6-.86-.85-1.31-.32-.59-.7-1.12-1.05-1.68-.28-.45-.54-.92-.82-1.35-.33-.51-1.15-1.1-1.27-1.65.76.42,1.25,1.42,2.09,1.64.28-.38.57-.86.75-1.33l.32-.3Z"/>
        <path class="cls-83" d="M202.66,88.79c-3.89-4.24-8.86-9.31-10.62-14.95l10.62,14.95Z"/>
        <path class="cls-16" d="M209.67,110.16c1.02.73,1.82,3.27,1.09,4.32-.85,1.26-3.24.53-4.53,1.27.52-.76,2.01-.78,2.72-1.49.74-.77.85-1.93,1.19-2.91l-.46-1.19Z"/>
        <path class="cls-16" d="M178.9,122.99c-.51,3.89-5.78,4.49-8.64,5.51,1.48-2.11,4.15-3.38,6.21-4.87l2.42-.64Z"/>
        <path class="cls-67" d="M104.56,87.71c-2.83-3.91-6.05-7.62-9.32-11.21-3.75-4.13-7.71-7.55-10.28-12.55-3.26,3.68,24.59,32.19,18.75,34.8l.86-11.04Z"/>
        <path class="cls-93" d="M101.19,63.18c-2.98,2.33.66,9.99,1.36,12.71,1.2,4.66.78,9.8,2.94,14.09-3.85-.31-7.36-8.62-9.31-11.51-3.86-5.73-2.6-10.22,1.84-15.63l3.17.34Z"/>
        <path class="cls-115" d="M123.09,116.06c-.3.54.87,2.54,1.12,3.16.47,1.12,1.19,2,1.85,2.98.58.85,1.03,1.9,1.62,2.79.61.91,1.13,1.81,1.56,2.83.43,1.05.62,2.27,1.11,3.23-2.59-3.82-4.4-8.13-7.47-11.64-1.2-1.35-2.11-1.02-3.73-1.23,1-.6,2.48-.37,3.64-.75l.31-1.37Z"/>
        <path class="cls-6" d="M107.18,164.1c3.41-4.26,13.23-3,17.91-2.37-5.68-.43-12.54.9-16.84,4.31.19-.23.35-.48.55-.72l-1.62-1.22Z"/>
        <path class="cls-13" d="M63.44,202.63c1.79-2.31,3.84-2.07,6.66-1.58-.99,1.33-5.28,2.2-7,2.61l.34-1.03Z"/>
        <path class="cls-2" d="M130.64,149.24c-1.57,2.06-2.81,4.19-5.04,5.32-2.04,1.02-4.54.42-6.46,1.78l11.51-7.1Z"/>
        <path class="cls-32" d="M166.94,131.14c-4.86,3.82-11.4,5.65-16.85,8.51l16.85-8.51Z"/>
        <path class="cls-88" d="M104.16,165.97c-1.34,2.62-4.68,4.75-6.61,6.88-2.44,2.67-4.66,5.28-7.27,7.73-2.38,2.23-4.38,4.64-6.91,6.67-2.32,1.87-4.56,4.75-7.53,5.73l28.32-27.01Z"/>
        <path class="cls-88" d="M77.52,191.97c-1.31,1.12-3.25,1.59-4.58,2.57-1.6,1.17-2.84,2.57-4.4,3.87-3.18,2.62-6.42,6.51-10.15,7.89l19.13-14.33Z"/>
        <path class="cls-88" d="M60.52,204.71c-3.51,1.97-7.45,3.37-11.17,5.05-3.37,1.51-6.54,3.6-10.06,4.76,2.42-4.64,9.63-5.46,14-7.53,5.29-2.52,9.49-5.67,14.48-8.22l-7.25,5.94Z"/>
        <path class="cls-48" d="M73.54,197.2c-.9,1.17-2.09,2.13-2.87,3.25.81.95,2.06.95,2.96,1.84-2,0-3.84-.68-5.74-.67l5.65-4.42Z"/>
        <path class="cls-53" d="M33.57,218.45c-3.85,3.15-8.16,5.11-11.79,8.56-3.68,3.5-7.38,7.06-10.16,11.6.3.61.37.19.76.17l21.19-20.32Z"/>
      </g>
      <g>
        <path class="cls-15" d="M315.58,104.41l.98,1.04c.64-.6,1.43-.84,2.41-.73,3.23.37,7.42,4.4,8.85,6.56,1.04,1.54,1.84,3.15,2.68,4.85.22.46.46.93.7,1.4.43.86.66,2.02.88,3.15.3,1.51.61,3.08,1.45,4.22l1.14-.86c-.64-.87-.91-2.2-1.19-3.63-.24-1.21-.49-2.48-1.02-3.52-.23-.45-.46-.92-.69-1.37-.83-1.68-1.69-3.4-2.77-5.03-1.47-2.2-6.03-6.73-9.87-7.17-1.41-.16-2.6.22-3.55,1.11Z"/>
        <path class="cls-110" d="M372.11,159.02c7.42-.32,11.12-7.03,13.16-13.51,2.16-6.87,0-14.41-3.49-20.48-3.61-6.25-9.7-11.72-16.5-14.22-3.58-1.32-6.72-.82-10.44.37-3.75,1.21-6.74,3.07-9.22,5.86-2.86,3.24-6.76,3.55-9.92,6.11-4.97,4.03-1.61,13.6-.51,18.64l36.93,17.22Z"/>
        <path class="cls-95" d="M353.19,182.08c9.87.85,24.39-8.57,22.02-20-1.37-6.6-8.51-10.27-13.5-13.82-2.79-2-5.2-4.38-7.88-6.52-2.14-1.72-4.54-2.58-6.86-3.96-2.86-1.7-5-6.4-8-7.4-4.29-1.44-4.39,10.63-4.66,12.96l18.89,38.74Z"/>
        <path class="cls-10" d="M331.81,171.12c2.95,4.57,5.99,9.34,11.24,11.46,4.2,1.69,12.34,2.88,15.3-1.64,3.4-5.21-2.25-14.31-4.07-19.21-2.2-5.94-3-12.54-5.96-18.16-3.12-5.92-8.44-10.4-13.33-14.81-.19.16-.2.33-.02.51l-3.16,41.85Z"/>
        <path class="cls-45" d="M334.21,123.53c.64,1.94,2.32,3.09,3.34,4.78,1.1,1.81,1.98,4.17,2.28,6.25.72,5,1.1,11.9-.38,16.8-2.66,8.82-5.88,18.76.81,26.77,2.78,3.31,7.51,5.16,11.62,6.1-5.1-.32-10.68-.34-15.01-3.45-3.99-2.87-6.72-7.52-8.6-11.97-3.87-9.16-2.72-21.53-.37-31.01,1.35-5.45,3.94-10.51,6.02-15.72l.29,1.45Z"/>
        <path class="cls-45" d="M334.32,124.72c3.25-2.04,6.66-3.92,9.41-6.63,2.77-2.74,4.97-5.49,8.82-6.73,7.43-2.38,21.48-2.41,28.06,12.09-2.95-.21-9.72-5.58-16.03-7.35-5.77-1.62-10.97-.9-16.37,1.44-3.36,1.46-6.2,3.71-9.64,5.07l-4.25,2.11Z"/>
        <path class="cls-82" d="M334.84,124.3c4.23,5.31,9.12,11.9,15.21,14.88-2.74-2.32-6.23-3.67-8.94-5.88-2.43-1.98-4.77-5.15-6.57-7.84.19-.26.45-.47.71-.63l-.41-.52Z"/>
        <path class="cls-17" d="M334.12,122.34c.66.64,1.17,1.42,1.32,2.27-.85.42-1.89.89-2.37,1.78-.14-1-.3-2.19-.45-3.28l1.51-.77Z"/>
        <path class="cls-70" d="M351.62,182.89c-5.65-3.85-6.6-12.05-7.58-18.59-1.17-7.72.01-15.67-1.81-23.33-.42-1.76-1-3.56-1.54-5.25-.52-1.56-1.84-3.29-2.05-4.85,2.97,10.11,1.18,20.05-2.76,29.46-2.7,6.45-.56,14.14,3.95,19.31,2.29,2.66,6.84,4.26,10.07,2.8l1.73.45Z"/>
        <path class="cls-72" d="M330.81,149.08c-.97,2.05-.16,5.83.8,7.8.57,1.19,1.58,2.19,2.13,3.4.59,1.31.82,2.79,1.56,4.04,2.49,4.27,6.08,7.64,9.12,11.48-2.87-4.36-7.79-7.49-10.46-12.21-1.19-2.09-2.76-4.8-3.34-7.14-.63-2.48.11-5.34-.2-7.9l.41.52Z"/>
        <path class="cls-85" d="M335.73,124.06c2.77-1.76,5.27-3.81,7.93-5.7,2.99-2.12,6.41-3.09,9.93-3.91,7.88-1.86,13.81,1.5,20.48,5.37,3.27,1.9,6.03,3.18,8.41,6.24-1.93-2.47-6.9-3.81-9.81-4.42-3.33-.71-6.56-1.85-9.88-2.54-3.06-.63-6.24.49-9.28.98-2.93.48-5.73,1.49-8.66,1.84-3.05.37-5.68,1.38-8.62,2.03l-.51.11Z"/>
        <path class="cls-66" d="M315.88,104.24c.42-.1.89-.2,1.32-.2.37,0,.72.16,1.09.21,1.03.13,2.02.18,2.99.61,1.9.82,3.78,2.24,5.09,3.85.35.42.74.8,1.07,1.24.25.32.71.7.77,1.11-.52-.28-.96-.73-1.46-1.06-.37-.25-.73-.5-1.1-.75-.77-.49-1.47-1.08-2.27-1.54-1.66-.96-3.51-1.41-5.33-1.96-1.25-.37-2.73-1.09-3.99-.56l1.82-.94Z"/>
      </g>
      <g>
        <path class="cls-105" d="M28.53,116.55c-5.88-2.81-10.45-.95-15.42,2.68-2.71,1.97-4.35,4.22-6.16,6.98-1.71,2.59-3.57,4.67-4.51,7.71-1.83,5.92-2.69,11.81-2.38,18.02.14,2.83.77,5.14,1.89,7.7.67,1.53,1.2,3.21,2.26,4.52.92,1.14,2.05,1.47,3.24,2.21,1.59,1,2.62,2.74,4.37,3.49,2.51,1.08,5.49-.13,8.13.32,4.36.76,8.34,4.49,12.93,2.92,3.82-1.31,6.36-5.37,8.33-8.64,3.64-6.08,6.35-12.72,9.16-19.21l-21.83-28.71Z"/>
        <path class="cls-19" d="M28.7,121.32c-.9,5.85,2.19,12.48,3.08,18.21.7,4.42.79,9.3.86,13.79.07,4.58-4.19,6.69-8.07,7.78-3.82,1.07-8.42,2.78-12.43,2.73-2.74-.04-6.1-.59-8.32-2.3.88,2.57,1.53,4.48,3.68,6.19,2.16,1.71,4.5,2.88,7.23,3.42,1.99.39,4.02.25,6.01.73,2.21.53,4.34,1.77,6.66,1.26,3.03-.66,6.74-2.26,9.39-3.79,6.97-4.02,8.45-12.77,10.02-19.99l-18.11-28.04Z"/>
        <path class="cls-23" d="M35.86,140.41c-1.13,6.64.36,12.73,1.21,19.24.66,5-3.8,5.85-7.71,6.88-4.33,1.13-8.81,2.78-13.35,2.64-3.14-.09-5.76-1.57-8.26-3.32-1.05,5.49,9.6,6.78,13.17,7.89,5.55,1.75,11.77,4.29,17.7,3.32,2.15-.35,4.89-1.06,6.91-1.89,4.21-1.71,4.61-9.43,5.42-13.17l-15.09-21.6Z"/>
        <path class="cls-36" d="M65.24,145.35c3.03-10.2,2.12-19.69-4.42-28.4-4.89-6.49-11.92-9.6-20.02-8.98-6.68.51-16.68,3.41-15.52,11.87,1.09,8.09,7.55,14.37,9.6,22.2,1.29,4.88,1.74,10.15,4.09,14.7,2.03,3.91,4.85,4.67,8.88,3.5l17.38-14.89Z"/>
        <path class="cls-21" d="M63.66,139.46c1.12-5.02-.96-10.05-2.73-14.73-.72-1.91-1.65-3.65-2.96-5.21-.84-1.01-1.75-3.09-3.02-3.52-.48,4.07,2.38,8.75-1.31,12.17-3.57,3.33-6.43-3.89-8.66-5.54.54,4.14-.76,7.61-1.25,11.64-.43,3.49-.86,6.99-1.24,10.5-.44,3.97-.47,7.98,3.64,10.07,5.23,2.67,11.56.9,14.69-3.86l2.84-11.53Z"/>
        <path class="cls-111" d="M68.24,144.73c2.23-4.93,2.91-10.2,1.16-15.42-.81-2.43-2.18-4.8-3.35-7.08-1.24-2.45-3.38-3.99-5.34-5.81-2.43-2.26-5.33-3.65-7.99-5.58.89,1.12,1.86,2.15,2.63,3.37.77,1.25,1.12,2.66,1.82,4,1.17,2.24,2.75,4.13,4.03,6.22,1.17,1.93,2.38,4.19,2.79,6.4.23,1.24.24,2.58.41,3.76.25,1.79,1.53,4.21.66,5.95l3.17,4.18Z"/>
        <path class="cls-56" d="M39.58,215.15l.67-2.2c.4-1.31.24-2.92.07-4.47-.14-1.21-.27-2.48-.11-3.47.42-2.43,1.45-4.62,2.54-6.94l.11-.21c1.18-2.5,1.74-4.96,2.33-7.89.21-1.05.3-2,.38-2.92.15-1.69.26-3.15,1.21-4.78l-1.76-1.02c-1.18,2.02-1.32,3.86-1.48,5.63-.07.86-.14,1.75-.33,2.69-.58,2.8-1.11,5.13-2.19,7.43l-.09.21c-1.17,2.45-2.27,4.76-2.73,7.47-.21,1.28-.06,2.67.09,4.03.08.72.16,1.45.17,2.12l-.28-.1c-.29.85-.22,1.68.21,2.44l1.17,1.99Z"/>
        <path class="cls-41" d="M37.46,149.83c-.02-.96-.65-2.04-1-2.95-.79-2.02-1.36-4.12-2.2-6.12-1.09-2.62-2.16-5.15-3.2-7.8-1.07-2.79-3.17-6.25-3.31-9.3,4.12,8.23,4.89,17.95,9.15,26.13l.57.04Z"/>
        <path class="cls-76" d="M67.05,149.32c1.81-2.26.73-7.17.17-9.72-.55-2.53-1.56-6.12-3.02-8.23-.65,2.1-1.27,5.54-2.91,7.08-1,.96-3.87,2.12-5.19,2.48-1.98.56-3.69-1.81-5.49-.97-.91.42-1.24,1.63-1.82,2.36-.65.82-1.5,1.52-2.19,2.32-3.55,4.09-4.85,10.65-5.53,15.9-.46,3.65.93,9.41-1.95,12.29-1.31,1.31-3.64,1.29-5.38,1.55-1.56.22-3.27.62-4.88.68,2.38,1.75,6.28,1.69,8.98,2.54,1.47.46,2.75.86,4.13,1.5,1.05.48,3.54,1.35,3.97,2.22-.18,0-.33-.07-.45-.19l21.56-31.81Z"/>
        <path class="cls-38" d="M46.03,156.82c1.31-1.91,1.3-4.68,1.94-6.9.98-3.5,1.99-6.91,2.51-10.52.4-2.74.73-5.59,1.04-8.35.14-1.22.47-3.12.07-4.13-.89,1.45.21,4.53.23,6.07.03,5.38-2.1,10.62-2.71,15.93l-3.08,7.89Z"/>
        <path class="cls-30" d="M45.66,183.87c1.28-.78,2.03-2.94,3.09-4.08,1.19-1.31,2.28-2.66,3.36-4.04,1.11-1.44,2.15-2.88,3.31-4.28,1.08-1.32,2.48-2.37,3.54-3.69,4.65-5.85,8.58-12.16,10.23-19.56.47-2.01.79-4.04.74-6.13-.04-2.38-.6-5-.37-7.35-1.69,3.02-3.01,6.17-5.83,8.13-2.7,1.84-5.02,3.6-7.97,5.09-3.7,1.85-7.17,5.9-7.74,10.11-.66,4.87.21,9.44-1.33,14.25-1.18,3.66-1.87,7.16-1.97,11.02.18-.22.26-.48.2-.77l.72,1.3Z"/>
        <path class="cls-68" d="M46.12,182.08c-.92-.95.01-3.2-.09-4.47-.09-1.29-.3-2.66-.49-3.95-.42-2.61-1.99-4.94-2.66-7.46-.68-2.52-1.55-5.02-2.4-7.55-.9-2.64-2.04-6.19-3.4-8.48,1.36,3.19,2.38,6.59,2.97,9.95.45,2.55,1.47,4.97,2.09,7.51.58,2.34,1.07,4.59,1.83,6.84.37,1.08.68,2.19,1.08,3.25.3.82.46,2.23.97,2.88-.17-.19-.32-.39-.47-.6l.57,2.08Z"/>
        <path class="cls-38" d="M59.12,158.77c1.3-1.84,1.89-4.87,2.02-7.08.15-2.51.3-4.94.51-7.46.24-3.03.03-6.19-.1-9.22-.1-2.38-1.09-4.98-.64-7.33,2.05,5.86,1.89,12.14,1.82,18.24l-3.61,12.85Z"/>
        <path class="cls-49" d="M37.54,177.13c-3.55-2.13-6.87-3.85-10.71-5.33-6.33-2.41-11.4-7.08-15.98-11.77,2.79,1.61,5.05,4.57,7.65,6.6,1.74,1.36,3.58,2.69,5.45,3.83,1.84,1.13,3.75,2.17,5.62,3.24,2.07,1.2,5.07,3.8,7.54,3.18l.44.26Z"/>
        <path class="cls-79" d="M69.71,133.56c-.49.85-1.21,1.74-1.31,2.73-1.71-1.09-2.51-4.52-3.33-6.35-.85-1.89-1.69-3.87-2.79-5.63-1.29-2.1-2.63-4-3.84-6.12-1.14-2.01-2.27-4.16-4.01-5.75,4.29,5.17,7.3,12.49,8.76,19,.5,2.22,1.34,4.25,2.28,6.34.73,1.66,2.26,3.75,2.39,5.58l1.84-9.79Z"/>
        <path class="cls-44" d="M32.5,175.19c-.22-.4-.56-.89-1.23-1.18.68-.36.9-1.16,1.06-1.92-.15.72-.38,1.47-.77,2.11.15.14.3.27.44.39-.39.23-.69.34-1.2.26.52-1.22,1.62-1.73,2.48-2.6-2.8-1.56,1.56-5.09,2.24-7.03.49-1.42-.1-3.86.9-4.88.76.21.66-.04,1.2-.17-.42-.6-.85-1.22-1.24-1.88l-3.89,16.9Z"/>
        <path class="cls-44" d="M38.08,145.2c.46-.78,1.14-1.64,1.46-2.48.3-.85-.33-1.35.5-2.16.3.12.66.08.9.18-1.68-2.53,3.32-6.24,3.23-8.81l-6.1,13.28Z"/>
        <path class="cls-56" d="M48.76,179.5c-1.34.53-3.28,1.13-3.83,2.63-.56,1.51.31,3.48-.03,5.1l3.86-7.73Z"/>
        <path class="cls-29" d="M38.29,215.95c1.59-2.77,1.09-4.41.64-7.42-.43-2.8,1.53-5.28.96-7.96-.64,2.62-1.79,5.82-2.03,8.54-.23,2.67-1.15,7.03.29,9.12l.14-2.27Z"/>
      </g>
    </g>
  </g>
</svg>