<?xml version="1.0" encoding="UTF-8"?>
<svg id="_圖層_2" data-name="圖層_2" xmlns="http://www.w3.org/2000/svg" viewBox="0 0 280.34 333.73">
  <defs>
    <style>
      .cls-1 {
        fill: #efeae7;
      }

      .cls-2 {
        fill: #d2dbcc;
      }

      .cls-3 {
        fill: #e9eee1;
      }

      .cls-4 {
        fill: #c7d8c9;
      }

      .cls-5 {
        fill: #bdd3bb;
      }

      .cls-6 {
        fill: #dde5dc;
      }

      .cls-7 {
        fill: #dbe4db;
      }

      .cls-8 {
        fill: #d9e6d9;
      }

      .cls-9 {
        fill: #d2dbc9;
      }

      .cls-10 {
        fill: #c8cab6;
      }

      .cls-11 {
        fill: #d3dfcf;
      }

      .cls-12 {
        fill: #e8eee8;
      }

      .cls-13 {
        fill: #c4d1be;
      }

      .cls-14 {
        fill: #dbe5d7;
      }

      .cls-15 {
        fill: #e9f1e8;
      }

      .cls-16 {
        fill: #bfd1c4;
      }

      .cls-17 {
        fill: #f7f6ec;
      }

      .cls-18 {
        fill: #e2ece3;
      }

      .cls-19 {
        fill: #dde4d6;
      }

      .cls-20 {
        fill: #f3f2eb;
      }

      .cls-21 {
        fill: #cad7cc;
      }

      .cls-22 {
        fill: #c1d4c1;
      }

      .cls-23 {
        fill: #ccdbcc;
      }

      .cls-24 {
        fill: #c5d1c2;
      }

      .cls-25 {
        fill: #d2dfd4;
      }

      .cls-26 {
        fill: #b8ccbb;
      }

      .cls-27 {
        fill: #b1c1b0;
      }

      .cls-28 {
        fill: #e1e5e2;
      }

      .cls-29 {
        fill: #e0ead6;
      }

      .cls-30 {
        fill: #c9dacd;
      }

      .cls-31 {
        fill: #dbe7d2;
      }

      .cls-32 {
        fill: #c6dac7;
      }

      .cls-33 {
        fill: #cfdcd3;
      }

      .cls-34 {
        fill: #d7e1dc;
      }

      .cls-35 {
        fill: #b3c6b5;
      }

      .cls-36 {
        fill: #dfded6;
      }
    </style>
  </defs>
  <g id="_圖層_1-2" data-name="圖層_1">
    <g>
      <path class="cls-21" d="M202.54,170.58c-2.05-2.84-4.38-5.46-6.67-8.1,1.93,2.93,4.27,5.53,6.67,8.1Z"/>
      <path class="cls-21" d="M211.77,175.74c-.48.77-.86,1.57-1.08,2.41l.24-2.92c.29-.09.59-.21.88-.31l.29-5.7c.02-.13.04-.26.07-.38-.5-3.01-1.06-5.85-1.32-8.06-.98-8.19-1.53-16.4-2.32-24.63-.66-6.94-.27-13.73,1.27-20.48,1.13-4.92,2.78-13.37,5.23-16.59-2.91,10.91-2.45,20.85-1.55,32.04,1.04,12.96,1.08,24.79-1.3,37.73.28,1.77.53,3.6.68,5.38.37-.45.77-.89,1.2-1.32,1.96-5.27,2.78-11.77,3.06-17.21.19-3.32-1.06-8.68-.15-11.9.8-2.87,4.59-6.99,6.64-10.07,5.62-8.47,9.55-15.94,10.35-26.31.39-5.19,1.28-14.59-.85-21-2.39-1.19-5.14-1.64-8.69-2.27-.05.06-.08.12-.13.17.17.2.33.39.49.6l-1.95,2.2c-5.51-2.42-11.23-2.96-17.14-1.95-4.42.76-6.05,2.24-7.93,4.29-1.1,1.53-2.33,2.94-4.01,4.04,1.79-1.52,2.94-2.87,4.01-4.04,2.45-3.43,4.2-7.41,8.98-9.69,3.83-1.82,8.34-1.51,12.17.33-5.31-3.5-11.49-2.32-17.85,2.39-13.71,10.15-18.27,25.71-17.06,41.67.36-12.74,2.98-28.1,18.41-29.06-3.34,7.18-5.54,13.7-6.01,21.75-.85,14.57-2.1,50.74,15.28,57.19l-5.29.72c1.36,1.53,2.66,3.11,3.82,4.8.53-.57,1-1.19,1.45-1.87l.1-1.94Z"/>
      <path class="cls-21" d="M212.93,175.48c.19-.39.37-.78.55-1.18-.2.08-.4.16-.6.24.02.32.04.63.05.94Z"/>
      <path class="cls-16" d="M223.6,133.72c-2.05,3.08-5.83,7.2-6.64,10.07-.91,3.21.34,8.58.15,11.9-.29,5.44-1.1,11.93-3.06,17.21,3.38-3.44,8.35-6.38,11.07-9.28,4.36-4.65,6.56-10.56,8.94-16.55,1.06,11.97-9.9,22.92-20.57,27.24-.18.4-.36.79-.55,1.18.04.93.06,1.83.03,2.72l1.69,1.09c-.17.28-.34.55-.51.82,9.46-1.26,20.07-.34,26.2-9.49.17-.26.35-.55.51-.82,4.57-7.47,8.95-23.44.42-32.93,3.63-4.89,3.38-6.06,4.95-12.37,1.53-6.1.55-11.75-1.09-17.7-1.45-5.22-3.4-10.34-6.36-14.95-.23-.37-.47-.71-.7-1.03-.11-.14-.19-.26-.29-.39-.13-.17-.27-.35-.4-.52-.14-.16-.28-.31-.41-.47-.1-.11-.2-.22-.29-.33-.15-.18-.33-.33-.49-.48-.07-.07-.14-.15-.21-.21-.18-.17-.36-.32-.55-.48-.05-.05-.1-.09-.16-.13-.2-.17-.41-.32-.62-.46-.04-.03-.06-.06-.09-.08-.23-.16-.46-.31-.7-.44-.02,0-.03-.02-.04-.02-.26-.14-.5-.29-.75-.4,2.13,6.41,1.25,15.81.85,21-.81,10.36-4.73,17.84-10.35,26.31Z"/>
      <path class="cls-16" d="M211.67,177.68c-.45.68-.92,1.3-1.45,1.87.03.04.06.08.09.12l.19.47c.36-.63.74-1.25,1.13-1.86l.03-.61Z"/>
      <path class="cls-32" d="M189.98,294.3c.15.07.35.14.51.21-.02-.03-.03-.05-.05-.07-.17-.31-.35-.63-.52-.93-.12-.23-.22-.45-.34-.69-.12-.26-.27-.52-.39-.78-.11-.26-.22-.51-.32-.77-.05-.12-.12-.24-.16-.37.37,1.19.79,2.33,1.26,3.41Z"/>
      <path class="cls-32" d="M186.84,278.01c0-.06,0-.13.01-.19.05-.41.1-.82.17-1.22,0-.05.01-.09.02-.13.07-.43.15-.86.24-1.28,0-.02,0-.04,0-.05.09-.45.2-.89.31-1.33,0,0,.02,0,.01.02.67-2.6,1.66-5.15,2.95-7.64-.46-.23-.92-.46-1.37-.71-1.6,3.57-2.35,8-2.35,12.57,0-.02,0-.03,0-.05Z"/>
      <path class="cls-32" d="M190.69,295.8c-.25-.49-.49-.99-.71-1.5-6.53-3.05-7.68-9.51-6.47-15.9-2.78,1.56-7.09,2.28-9.32,3.29-4.48,2.05-8.76,2.8-12.66,5.83-1.45,1.13-3.55,2.55-5.83,4.15-4.54,4.02-9.02,8.18-13.16,12.64,1.41-4.19,7.79-8.9,13.16-12.64,2.28-2.04,4.57-4.04,6.86-6.03,3.15-2.76,6.29-5.73,9.92-7.85,4.32-2.53,7.34-1.93,11.65-2.05,1.12-3.96,2.99-7.69,4.85-10.36-8.93-5.02-17-14.15-27.42-14.99-9.59-.76-17.28,4.45-25.36,8.68-11.45,5.99-35.05,25.97-20.33,38.47-1.52,14.69,9.13,39.27,27.48,35.87,18.65-3.46,35.66-19.08,45.47-34.45.77-1.22,1.48-2.42,2.15-3.62-.02-.03-.04-.06-.05-.1l-.23.56Z"/>
      <path class="cls-36" d="M138.64,204.65c-1.21.04-2.39-.03-3.65-.12-1.95-.12-3.97-.24-6.09.09-1.01.16-2.07.5-3.1.83.39.55.78,1.13,1.16,1.7l-1.12-1.31c-.44.83-.9,1.66-1.34,2.5.24.09.48.19.71.31l-.83-.07c-.11.2-.21.39-.32.59.91-.21,1.8-.5,2.64-.77.97-.31,1.89-.6,2.68-.73,1.79-.28,3.56-.17,5.44-.06,1.26.07,2.57.15,3.92.12,4.81-.16,8.8.21,12.86,1.24.31-.98.64-1.96,1-2.93-4.42-1.14-8.79-1.56-13.95-1.4Z"/>
      <path class="cls-10" d="M209.76,190.23c.64-3.54,2.36-6.9,4.38-10.12.17-.27.34-.54.51-.82l-1.69-1.09c-.09,2.54-.55,4.85-1.67,6.63l.34-6.55c-.39.61-.77,1.23-1.13,1.86-1.62,2.78-2.99,5.77-3.67,8.93,1.04.34,2.01.73,2.93,1.16Z"/>
      <path class="cls-20" d="M128.14,154.34c-3.85-3.06-7.83-6.24-12.33-9.09-3.72-2.35-6.65-4.52-9.75-8.01l-.45-.52c-2.77-3.13-5.63-6.36-10.19-7.74l-.04.14c.4.62.75,1.27,1.02,1.94l-1.64.09-.23.79c3.71,1.12,6.05,3.76,8.75,6.82l.46.52c3.34,3.75,6.57,6.15,10.41,8.57,4.37,2.76,8.29,5.88,12.07,8.89,3.83,3.05,7.79,6.21,12.29,9.07l.36-.57c-2.52-2.73-5.04-5.53-7.52-8.38-1.07-.85-2.14-1.7-3.2-2.54Z"/>
      <path class="cls-36" d="M110.07,119.08l-2.61,1.13s.02.03.03.04l1.97,1.59c.26-.9.48-1.81.61-2.76Z"/>
      <path class="cls-36" d="M109.07,123.09c.1-.27.17-.57.26-.84-.4-.2-.81-.39-1.2-.59,4.12,8.99,10.62,19.52,17.64,28.5,1.8,2.31,3.67,4.53,5.57,6.72,2.48,2.85,5,5.66,7.52,8.38,1.07,1.15,2.13,2.3,3.19,3.44,2.87,3.08,5.83,6.27,8.71,9.5,2.98,3.37,5.56,7.01,8.29,10.86.21.28.41.56.62.85.3-.64.6-1.28.9-1.92.5,0,1.02,0,1.53,0-.17-.24-.34-.49-.52-.73-2.66-3.74-5.41-7.63-8.51-11.12-2.9-3.27-5.87-6.47-8.75-9.55-5.41-5.83-11.03-11.85-16.1-18.35-6.16-7.87-11.9-16.94-15.93-25.07-.11.35-.2.7-.33,1.03l-2.88-1.11Z"/>
      <path class="cls-1" d="M109.44,92.1l-.26,3.24c-.06-1.13-.08-2.27-.09-3.4l-.12-.05c-.34-.19-.67-.39-1-.57-.36,4.46.38,9.17,1.12,13.75.8,4.96,1.56,9.71,1,14.01-.13.95-.35,1.86-.61,2.76l1.35,1.1c-.5-.22-.99-.46-1.49-.69-.09.27-.16.57-.26.84l2.88,1.11c.13-.33.21-.68.33-1.03,1.86-5.8.86-12.3-.15-18.59-.69-4.36-1.35-8.58-1.13-12.48-.45.02-.86.06-1.33.09l-.24-.1Z"/>
      <path class="cls-23" d="M163.2,30.89c.44,1.07.82,2.2,1.11,3.4-.29-1.2-.67-2.33-1.11-3.4Z"/>
      <path class="cls-23" d="M164.39,34.58c.25,1.07.45,2.17.6,3.29h0c-.15-1.12-.35-2.21-.6-3.29Z"/>
      <path class="cls-23" d="M165.06,38.27c-.01-.05-.02-.11-.03-.15,0,.05.01.1.03.15Z"/>
      <path class="cls-23" d="M161.46,27.68c.63.89,1.17,1.89,1.64,2.95-.47-1.06-1.01-2.06-1.64-2.95Z"/>
      <path class="cls-23" d="M107.32,90.94c.22.12.42.25.64.38.34.18.67.38,1,.57-.54-.31-1.09-.63-1.64-.95Z"/>
      <path class="cls-23" d="M109.15,88.54c.48-11.39,3.63-23.03,9.78-32.71,2.93-4.62,7.07-9.82,10.67-13.82,3.11-3.44,7.57-4.95,10.87-8.12.5-.54.98-1.11,1.48-1.64-.45.6-.95,1.14-1.48,1.64-5.49,6.02-10.73,12.69-15.72,19.21-6.56,8.57-10.22,19.88-14.58,30.05l-.42,5.09c2.01-1,3.92-2.56,6.06-3.13,3.65-.98,7.56-1.13,11.04-3.04,6.07-3.34,11.92-9.93,16.85-14.89,11.46-11.54,14.43-27.41,13.84-43.1-2.7-1.54-6.23-2.07-10.84-1.08-8.43-3.53-14.62-1.69-22.4,2.48-2.85,1.52-5.89,2.96-8.95,4.44-.2.15-.39.29-.57.45-6.5,5.53-10.77,12.66-13.82,20.53-3.23,8.4-4.73,28.62,2.47,37.68,1.01.67,2.05,1.3,3.11,1.91l.07-1.33c.88-.03,1.71-.27,2.52-.62Z"/>
      <path class="cls-28" d="M95.37,129.13c-3.32-5.28-10.65-8.87-15.5-12.03-11.52-7.49-21.18-16.09-34.85-20.13-6.78-2-12.33-1.1-18.97-1.96-6.92-.88-14.04-1.75-21.2-1.28,7.01,1.2,14.52,4.15,21.36,6.5,12.31,4.22,25.51,6.58,37.52,11.81,6.04,2.63,10.08,5.16,14.81,9.37,4.99,4.44,9.78,7.02,16.12,9.76h.09s1.64-.1,1.64-.1c-.28-.68-.62-1.32-1.02-1.94Z"/>
      <path class="cls-18" d="M215.02,99.07c-2.45,3.22-4.1,11.67-5.23,16.59-1.54,6.75-1.92,13.55-1.27,20.48.79,8.23,1.34,16.44,2.32,24.63.26,2.21.82,5.05,1.32,8.06,2.38-12.94,2.34-24.77,1.3-37.73-.89-11.19-1.36-21.13,1.55-32.04Z"/>
      <path class="cls-18" d="M212.88,174.54c-.12.06-.26.09-.38.13-.27.35-.51.7-.73,1.06l-.1,1.94-.03.61-.34,6.55c1.11-1.78,1.58-4.1,1.67-6.63.03-.89.01-1.79-.03-2.72-.02-.31-.04-.62-.05-.94Z"/>
      <path class="cls-18" d="M212.85,174.22c-.15-1.79-.4-3.61-.68-5.38-.03.12-.05.25-.07.38l-.29,5.7c.22-.07.46-.16.69-.24.11-.15.23-.3.35-.45Z"/>
      <path class="cls-22" d="M159.66,189.91c-2.47,5.28-5.07,10.63-7.07,16.14-.36.97-.69,1.96-1,2.93-.46,1.42-.89,2.86-1.24,4.31-3.74,15.55,4.13,30.87,19.16,36.83,4.29,1.72,8.83,2.42,13.46,2.56-6-2.46-11.29-6.31-14.49-11.21-5.81-8.85-13.41-29.71-8.87-40.3,13.98,1.2,27.54-6.3,41.38-1.84,6.59,2.13,13.26,4.95,15.85,11.76,1.4,3.71,2.01,7.56,2.03,11.47,4.99-12.41,3.25-26.46-9.1-32.32-.92-.43-1.89-.83-2.93-1.16-.76-.25-1.54-.48-2.37-.68-6.9-1.63-14.19-.42-21.21-.31-7.04.12-14.11-.11-21.17-.08-.51,0-1.03,0-1.53,0-.3.64-.6,1.27-.9,1.92Z"/>
      <path class="cls-24" d="M200.99,199.33c-13.84-4.46-27.4,3.04-41.38,1.84-4.54,10.59,3.06,31.45,8.87,40.3,3.2,4.9,8.5,8.75,14.49,11.21.01,0,.02,0,.03,0,1.12.03,2.23.03,3.35,0,.27,0,.53-.01.8-.03.92-.03,1.84-.08,2.76-.13.24-.03.48-.04.72-.06,1.14-.08,2.27-.19,3.4-.31.13-.01.25-.03.38-.04.97-.1,1.94-.23,2.92-.34.57-.08,1.12-.15,1.67-.23.39-.04.77-.1,1.16-.16.54-.06,1.08-.14,1.62-.21,1.14-1.2,2.33-2.4,3.56-3.57-4.53-4.34-8.32-10.77-10.81-15.13-2.22-3.87-4.27-7.87-7.02-11.47-2.08-2.71-5.34-5.82-6.13-9.01,5.06,2.89,9.32,12.48,13.01,16.99,2.33,2.84,4.54,5.93,7.05,8.68,1.95,2.14,4.02,5.41,6.19,7.82.13-.1.25-.22.37-.32,4.04-8.01-6.03-15.6-6.87-22.57,4.92,1.49,8.98,3.28,13.7,3.91.83,4.52-3.46,12.94-5.38,17.4.86-.72,1.74-1.43,2.63-2.12.9-5.95,3.14-11.26,5.92-17.2.31-.67.6-1.34.87-2.01,0,0,0-.01-.01-.02-.02-3.91-.62-7.76-2.03-11.47-2.59-6.81-9.26-9.64-15.85-11.76ZM171.61,243.91l31.66,1.52c-5.46,11.58-24.56,1.42-31.66-1.52ZM174.49,235.01l23.53,5.42c-8.96,1.22-15.54.84-23.53-5.42Z"/>
      <path class="cls-8" d="M201.45,237.67c-2.51-2.75-4.72-5.84-7.05-8.68-3.69-4.51-7.95-14.1-13.01-16.99.79,3.19,4.05,6.3,6.13,9.01,2.75,3.6,4.8,7.59,7.02,11.47,2.49,4.37,6.28,10.79,10.81,15.13.74-.72,1.51-1.42,2.29-2.13-2.17-2.42-4.24-5.68-6.19-7.82Z"/>
      <path class="cls-26" d="M190.5,294.51s-.03-.05-.05-.07c.01.02.03.05.05.07Z"/>
      <path class="cls-26" d="M186.83,278.08s0-.05,0-.07c0,.01,0,.03,0,.05,0,0,0,.01,0,.02Z"/>
      <path class="cls-26" d="M209.28,244.32l-1.45,1.22c.08-.13.11-.25.18-.38-.12.11-.24.22-.37.32-.78.7-1.54,1.41-2.29,2.13-1.23,1.16-2.41,2.37-3.56,3.57-.28.29-.55.58-.83.86-4.16,4.42-7.84,9.16-10.41,14.15-1.29,2.49-2.28,5.04-2.95,7.64,9.95,15.56,21.85,25.13,42.64,26.71,14.1,1.06,33.74-6.85,46.24-16.91-1.32-.6-2.67-1.14-4-1.61-8.9,7.84-21.14,11.47-31.96,15.76l30.83-16.12c-5.87-1.92-11.79-2.74-17.83-3.18l.83,1.12c-.81-.25-1.61-.69-2.4-1.22-4.67-.29-9.41-.39-14.25-.61-5.54-.26-11.81-1.85-17.67-1.6-2.82.42-5.59,1.06-8.29,2.13,2.58-1.43,5.39-2,8.29-2.13,7.89-1.14,16.17-.38,24.28-1.48,1.15-.16,2.27-.28,3.37-.37-4.93-6.02-9.12-15.3-11.71-19.44l14.32,19.26c6.28-.29,11.81.44,17.64,2.16l-19.88-27.11c7.43,8.11,13.9,18.02,19.96,27.13,3.08.91,6.26,2.09,9.67,3.55l-.5,3.14s.01.02.02.04c.84-.7,1.65-1.41,2.42-2.12-5.28-18.66-14.79-38.48-33.85-46.24-12.48-5.09-23.96-.43-33.7,7.08-.89.69-1.76,1.4-2.63,2.12-.06.14-.13.29-.18.42Z"/>
      <path class="cls-7" d="M211.75,278.3c2.7-1.07,5.47-1.71,8.29-2.13-2.9.13-5.71.7-8.29,2.13Z"/>
      <path class="cls-7" d="M277.19,283.02l.5-3.14c-3.41-1.46-6.59-2.64-9.67-3.55-6.06-9.11-12.53-19.03-19.96-27.13l19.88,27.11c-5.83-1.72-11.36-2.45-17.64-2.16l-14.32-19.26c2.58,4.14,6.78,13.42,11.71,19.44-1.1.09-2.21.21-3.37.37-8.11,1.1-16.39.35-24.28,1.48,5.86-.25,12.12,1.34,17.67,1.6,4.85.22,9.59.32,14.25.61.79.53,1.59.97,2.4,1.22l-.83-1.12c6.04.44,11.96,1.26,17.83,3.18l-30.83,16.12c10.82-4.29,23.06-7.92,31.96-15.76,1.33.47,2.68,1,4,1.61.24-.2.49-.37.73-.57-.01-.02-.01-.02-.02-.04Z"/>
      <path class="cls-34" d="M31.95,215.16c-.56-1.07-1.06-2.15-1.47-3.24.42,1.09.91,2.17,1.47,3.24Z"/>
      <path class="cls-34" d="M124.49,208.34c.45-.84.9-1.68,1.34-2.5l1.12,1.31c-.38-.57-.77-1.15-1.16-1.7-.03-.06-.08-.12-.12-.19-.73.94-1.51,1.84-2.31,2.75.38.08.76.19,1.12.33Z"/>
      <path class="cls-34" d="M122.97,208.47c-6.3,6.98-14.31,12.91-22.93,16.26l19.89-16.01c-11.36,1.74-25.93,3.32-36.38.41-4.84-1.35-9.95-2.11-15.07-2.57-6.06.16-12.14.56-17.99-.75,5.72.09,11.87.21,17.99.75,4.7-.12,9.41-.09,14,1.02,5.86,1.43,10.56,1.74,16.63,1.75,3.57,0,7.26.51,10.96.35,3.45-.14,7.37-1.78,10.99-1.87l4.11-3.31c-9.95-14.4-22.02-25.51-40.31-28.16-16.33-2.35-35.88,1.95-48.33,13.23-3.92,3.56-6.13,7.34-6.99,11.16,1.17,1.37,2.33,2.78,3.47,4.2l.44-5.4c4.19-9.13,15.84-15.42,25.15-18.23,8.55-2.57,15.62.2,23.51,3.59.73.19,1.42.48,2.05.88-.69-.3-1.38-.58-2.05-.88-7.8-2.1-20.61,6.64-26.57,10.07-3.83,2.2-7.21,5.07-11.3,7-3.38,1.61-7.55,1.83-10.78,3.53,5.26,6.48,10.52,13.11,16.91,18.25-5.67-5.62-10.36-13.17-13.59-18.55,7.71,3.53,15.41,4.26,23.61,6.2,6.65,1.57,12.68,3.13,19.57,3.27,6.6.15,12.46-.5,18.44,1.08.06-.07.14-.14.2-.21l2.59,1.1c-.94-.35-1.87-.65-2.8-.89-6.95,7.71-25.69,17.35-35.81,15.38,10.55,4.64,23,6.37,33.1,2.19,7.42-3.09,15.15-6.91,21.41-12.18,2.53-3.89,4.79-7.97,6.94-11.96.11-.2.21-.39.32-.59l-1.4-.11ZM88.07,187.44c11.44,4.87,21.12,10.42,28.69,20.82l-28.69-20.82ZM72.12,194.57c11.3,4.54,20.94,5.71,30.5,14.09l-30.5-14.09Z"/>
      <path class="cls-10" d="M51.42,75.15c0,.06.01.18.02.38v.14s.01.01.01.01v.02s.01.2.01.2c3.05,3.36,5.83,6.86,9.94,9.12,4.53,2.5,8.79,5.68,12.88,8.79.24.09.47.18.7.27l-23.56-18.95Z"/>
      <path class="cls-10" d="M50.08,74.43c.26.26.49.53.74.79-.1-.21-.21-.43-.32-.64-.15-.06-.29-.09-.42-.15Z"/>
      <path class="cls-10" d="M50.7,74.57l-.33-.27c.04.09.09.18.13.29.13.04.24.08.37.12l-.17-.14v.02s0-.02,0-.02Z"/>
      <path class="cls-10" d="M110.82,122.94l-1.35-1.1-1.97-1.59-24.96-20.07c.05.12.11.24.17.37,8.33,7.33,15.14,15.78,25.43,21.11.39.2.8.38,1.2.59.5.23.98.47,1.49.69Z"/>
      <path class="cls-14" d="M172.48,277.79c-3.62,2.13-6.77,5.1-9.92,7.85-2.29,1.99-4.58,3.99-6.86,6.03,2.28-1.6,4.38-3.02,5.83-4.15,3.9-3.04,8.19-3.78,12.66-5.83,2.23-1.01,6.54-1.74,9.32-3.29.16-.9.37-1.78.62-2.66-4.31.12-7.34-.48-11.65,2.05Z"/>
      <path class="cls-14" d="M142.54,304.31c4.14-4.45,8.62-8.61,13.16-12.64-5.37,3.74-11.76,8.44-13.16,12.64Z"/>
      <path class="cls-19" d="M32.43,51.34c-2.43-4.15-4.89-7.97-7-12.25-1.28-1.91-2.41-3.92-3.28-6.12-1.68-4.2-2.86-10.1-4.98-14.16-.38-.69-.79-1.36-1.23-1.98.45.59.85,1.25,1.23,1.98,2.84,5.09,4.51,11.7,6.74,16.98.49,1.14,1,2.24,1.53,3.3,2.18,3.27,4.8,6.21,7.37,9.14,5.81,6.67,11.5,14.73,15.91,22.88,0-.38.01-.75.02-1.12l-2.17-3c-1.3-6.5-.13-13.27-1.56-19.88-.77-3.57-2.17-7.63-2.22-11.2.8.33,1.52.91,2.2,1.63-.88-3.29-1.94-6.42-3.24-9.25C37.2,18.46,29.34,8.34,20.34.56c.79-.19,1.61-.33,2.46-.42C9.71,1.53,2.39,14.88.57,26.98c-2.17,14.43,1.78,31.14,12.34,41.64,10.21,10.12,22.89,9.14,35.61,5.91.02-.28.04-.58.05-.87-6.89-4.19-12.72-16.47-16.16-22.33ZM24.08,69.77c-5.61-2.26-9.62-5.88-13.41-10.54C2.43,49.08,2.9,36.05,5.04,24.09c1.9,3.08,2.41,6.73,4.27,9.92,2.04,3.51,4.47,7.12,6.68,10.61,2.16,3.41,4.18,7.14,6.8,10.25,3.68,4.41,5.83,10.05,9.88,14.14l8.74,1.56c-3.31,4.95-13.06.93-17.32-.8Z"/>
      <path class="cls-19" d="M48.97,74.42c.23-.06.45-.12.67-.19-.23.06-.45.13-.67.19Z"/>
      <path class="cls-19" d="M50.26,74.08c.09-.03.11-.03.13-.04-.04,0-.09.02-.13.04Z"/>
      <path class="cls-9" d="M48.58,73.66c-.01.29-.03.59-.05.87.15-.03.3-.08.44-.11.23-.06.45-.12.67-.19-.36-.16-.71-.35-1.06-.57Z"/>
      <path class="cls-9" d="M41.72,28.28c1.3,2.83,2.36,5.96,3.24,9.25,3.31,3.55,5.09,10.98,5.65,14.9.86,5.98-.84,11.99-1.79,17.7l-.1-.15c0,.37-.02.74-.02,1.12.54.99,1.06,1.98,1.56,2.98.04-.02.09-.03.13-.04.18-.04.36-.09.54-.14,2.71-7.74,4.43-14.73,5.4-21.08-.48,1.55-1.13,3.06-2.02,4.48-.9,2.64-1.37,4.18-1.67,5.2-.11.46-.24.91-.4,1.35-.19.58-.34.95-.72,1.64l.77-2.26c.25-.77.46-1.48.62-2.22.27-1.78.31-3.68.18-5.6-.22-2.67-.8-6.35-1.83-12.01-1.42-7.82-3.71-16.07-7.65-23.02,6.95,5.13,12.93,15.09,13.53,24.66C59.04,11.93,37.6.16,25.39,0c-.89,0-1.75.04-2.59.13-.85.09-1.67.23-2.46.42,8.99,7.79,16.86,17.9,21.38,27.72Z"/>
      <path class="cls-2" d="M50.69,74.59v-.02s.3-.69.3-.69c-.02,0-.03,0-.06.02-.08.23-.16.45-.23.67,0,0,0,.01-.01.02Z"/>
      <path class="cls-11" d="M50.61,52.43c-.56-3.91-2.34-11.35-5.65-14.9-.67-.72-1.4-1.3-2.2-1.63.05,3.57,1.45,7.63,2.22,11.2,1.43,6.61.26,13.38,1.56,19.88l2.17,3,.1.15c.95-5.71,2.65-11.72,1.79-17.7Z"/>
      <path class="cls-13" d="M52.29,63.24l-.77,2.26c.28-.52.51-1.08.72-1.64.15-.44.28-.89.4-1.35.07-.28.13-.57.19-.85l-.54,1.58Z"/>
      <path class="cls-13" d="M43.62,20.39c3.94,6.95,6.23,15.21,7.65,23.02.62,3.42,1.57,7.77,1.83,12.01.13,1.93.09,3.82-.18,5.6-.03.2-.05.43-.09.63l1.48-4.35c.89-1.42,1.54-2.93,2.02-4.48.75-2.49,1-5.1.82-7.76-.6-9.57-6.59-19.53-13.53-24.66Z"/>
      <path class="cls-29" d="M32.67,69c-4.05-4.09-6.2-9.73-9.88-14.14-2.62-3.11-4.64-6.84-6.8-10.25-2.21-3.49-4.64-7.1-6.68-10.61-1.86-3.19-2.37-6.85-4.27-9.92-2.14,11.96-2.6,24.99,5.64,35.14,3.79,4.66,7.79,8.28,13.41,10.54,4.26,1.73,14.02,5.75,17.32.8l-8.74-1.56Z"/>
      <path class="cls-3" d="M51.45,75.69h0s-.01-.16-.01-.16c0-.2-.02-.32-.02-.38,0-.03,0-.04,0-.05,0,0,0,0,0-.01t0,0c0-.06,0-.12,0-.19-.18-.05-.36-.12-.53-.18-.13-.04-.24-.08-.37-.12.1.21.21.43.32.64.23.47.48.93.69,1.39l-.05-.7v-.2s-.01-.02-.01-.02Z"/>
      <path class="cls-3" d="M50.37,74.3c-.04-.07-.08-.15-.11-.23-.5-1-1.02-1.99-1.56-2.98-4.41-8.15-10.1-16.21-15.91-22.88-2.57-2.93-5.18-5.87-7.37-9.14,2.12,4.28,4.58,8.11,7,12.25,3.44,5.86,9.27,18.14,16.16,22.33.35.21.7.41,1.06.57.15.07.29.15.44.2.14.07.28.09.42.15-.04-.1-.09-.19-.13-.29Z"/>
      <path class="cls-3" d="M17.15,18.8c-.38-.73-.78-1.39-1.23-1.98.44.62.85,1.29,1.23,1.98Z"/>
      <path class="cls-3" d="M17.15,18.8c2.12,4.06,3.3,9.96,4.98,14.16.88,2.2,2.01,4.22,3.28,6.12-.53-1.06-1.04-2.16-1.53-3.3-2.23-5.28-3.89-11.9-6.74-16.98Z"/>
      <path class="cls-17" d="M80.59,97.17c-1.42-1.46-3.55-2.29-5.61-3.06-.23-.09-.46-.18-.7-.27-.62-.24-1.23-.47-1.79-.72,2.91,2.17,5.11,5.48,8.52,7.01l4.48,5.27c-1.15-1.12-1.91-3.03-2.79-4.86-.06-.13-.11-.25-.17-.37-.56-1.13-1.17-2.2-1.94-3.01Z"/>
      <path class="cls-4" d="M143.72,67.19c-4.93,4.96-10.78,11.55-16.85,14.89-3.48,1.91-7.39,2.06-11.04,3.04-2.15.58-4.05,2.13-6.06,3.13l-.32,3.85.24.1c.46-.03.88-.06,1.33-.09,9.56-.57,17.01-2.36,25.42-7.32,6.2-3.65,14.08-5.85,19.39-10.76,7.62-7.09,11.05-23.6,9.22-35.92,0-.09-.02-.16-.04-.24h0c-.85-5.56-2.78-10.22-5.88-12.74-.06-.06-.12-.11-.2-.15-.37-.31-.78-.57-1.19-.82-.06-.03-.11-.08-.16-.1,0,.01,0,.02,0,.03.58,15.7-2.38,31.57-13.84,43.1Z"/>
      <path class="cls-4" d="M109.09,91.94c0-1.14.01-2.27.07-3.4-.81.35-1.64.58-2.52.62l-.07,1.33c.25.15.5.31.76.45.55.32,1.1.64,1.64.95l.12.05Z"/>
      <path class="cls-33" d="M100.98,50.9c3.05-7.87,7.32-15,13.82-20.53.18-.15.37-.3.57-.45-.04.01-.08.03-.11.04-.54.26-1.09.52-1.63.78-.55.26-1.12.54-1.68.82-.24.12-.5.24-.75.37-33.02,16.32-32.56,39.21-10.14,55.03.09.07.18.13.26.19.68.47,1.36.93,2.05,1.37.02.02.05.04.08.06-7.19-9.05-5.7-29.28-2.47-37.68Z"/>
      <path class="cls-15" d="M124.76,53.11c4.99-6.53,10.22-13.19,15.72-19.21-3.3,3.17-7.76,4.68-10.87,8.12-3.61,4-7.75,9.2-10.67,13.82-6.15,9.67-9.3,21.31-9.78,32.71-.06,1.14-.07,2.27-.07,3.4,0,1.13.03,2.26.09,3.4l.26-3.24.32-3.85.42-5.09c4.36-10.17,8.02-21.48,14.58-30.05Z"/>
      <path class="cls-15" d="M140.48,33.89c.52-.51,1.03-1.04,1.48-1.64-.5.54-.98,1.1-1.48,1.64Z"/>
      <path class="cls-30" d="M62.6,231.12s-.05,0-.08,0c-4.38-.88-8.47-3.72-12.15-7.38-6.39-5.14-11.65-11.76-16.91-18.25-.18.09-.34.17-.52.26l.07-.82c-1.15-1.42-2.3-2.83-3.47-4.2,0,0,0-.01,0,0-5.65,24.77,55.58,68.64,87.12,21.09.15-.23.31-.46.46-.7-6.26,5.28-13.98,9.09-21.4,12.17-10.1,4.18-22.55,2.45-33.1-2.19Z"/>
      <path class="cls-12" d="M68.49,206.56c-6.12-.54-12.27-.66-17.99-.75,5.85,1.32,11.93.91,17.99.75Z"/>
      <path class="cls-12" d="M72.12,194.57l30.5,14.09c-9.56-8.38-19.19-9.56-30.5-14.09Z"/>
      <path class="cls-12" d="M116.76,208.27c-7.57-10.4-17.24-15.95-28.69-20.82l28.69,20.82Z"/>
      <path class="cls-12" d="M110.07,209.69c-3.7.15-7.39-.36-10.96-.35-6.07,0-10.77-.32-16.63-1.75-4.59-1.11-9.29-1.15-14-1.02,5.12.46,10.23,1.22,15.07,2.57,10.45,2.91,25.02,1.33,36.38-.41l-19.89,16.01c8.62-3.35,16.63-9.28,22.93-16.26l1.4.11.83.07c-.23-.12-.48-.22-.71-.31-.37-.14-.74-.25-1.12-.33.79-.9,1.58-1.81,2.31-2.75.79-.97,1.54-1.96,2.25-2.97l-2.75,2.21-4.11,3.31c-3.62.08-7.53,1.73-10.99,1.87Z"/>
      <path class="cls-33" d="M98.61,215.54c-.06.06-.14.14-.2.21.93.24,1.86.54,2.8.89l-2.59-1.1Z"/>
      <path class="cls-33" d="M62.52,231.12s.05,0,.08,0c10.12,1.97,28.86-7.67,35.81-15.38-5.98-1.58-11.84-.93-18.44-1.08-6.9-.14-12.93-1.7-19.57-3.27-8.2-1.94-15.89-2.67-23.61-6.2,3.22,5.38,7.92,12.92,13.59,18.55,3.68,3.66,7.77,6.5,12.15,7.38Z"/>
      <path class="cls-33" d="M82.11,184.89c.68.3,1.36.58,2.05.88-.64-.4-1.32-.69-2.05-.88Z"/>
      <path class="cls-33" d="M33.46,205.49c3.23-1.7,7.4-1.92,10.78-3.53,4.09-1.93,7.47-4.79,11.3-7,5.96-3.43,18.77-12.17,26.57-10.07-7.9-3.39-14.97-6.16-23.51-3.59-9.31,2.8-20.96,9.09-25.15,18.23l-.44,5.4-.07.82c.17-.09.34-.18.52-.26Z"/>
      <path class="cls-35" d="M209.28,244.32c.05-.13.12-.28.18-.42,1.92-4.45,6.21-12.88,5.38-17.4-4.72-.63-8.79-2.42-13.7-3.91.84,6.97,10.9,14.56,6.87,22.57-.06.13-.1.25-.18.38l1.45-1.22Z"/>
      <path class="cls-35" d="M203.26,245.44l-31.66-1.52c7.1,2.94,26.2,13.11,31.66,1.52Z"/>
      <path class="cls-35" d="M198.02,240.43l-23.53-5.42c7.99,6.26,14.57,6.64,23.53,5.42Z"/>
      <path class="cls-27" d="M197.76,89.45c1.87-2.05,3.51-3.53,7.93-4.29,5.9-1.01,11.62-.47,17.14,1.95l1.95-2.2c-.16-.21-.32-.4-.49-.6-1.46-1.79-3.31-3.23-5.37-4.23-3.83-1.85-8.34-2.15-12.17-.33-4.78,2.29-6.53,6.27-8.98,9.69Z"/>
      <path class="cls-27" d="M197.76,89.45c-1.07,1.17-2.22,2.52-4.01,4.04,1.69-1.1,2.92-2.51,4.01-4.04Z"/>
      <path class="cls-6" d="M211.81,174.92c-.3.1-.59.22-.88.31l-.24,2.92c.22-.84.6-1.64,1.08-2.41.22-.36.46-.71.73-1.06-.23.08-.47.17-.69.24Z"/>
      <path class="cls-6" d="M212.88,174.54c.2-.08.4-.16.6-.24,10.68-4.32,21.63-15.27,20.57-27.24-2.38,5.99-4.58,11.91-8.94,16.55-2.72,2.9-7.69,5.84-11.07,9.28-.43.44-.83.88-1.2,1.32-.12.15-.23.3-.35.45.12-.05.26-.07.38-.13Z"/>
      <path class="cls-25" d="M196.41,116.84c.47-8.05,2.67-14.57,6.01-21.75-15.44.96-18.05,16.32-18.41,29.06-.03,1.25-.05,2.49-.06,3.68,0,9.83.32,16.98,5.28,25.73,1.82,3.22,4.2,6.08,6.65,8.91,2.29,2.64,4.62,5.26,6.67,8.1,1,1.38,1.95,2.8,2.77,4.32l1.08-.14,5.29-.72c-17.38-6.45-16.13-42.62-15.28-57.19Z"/>
      <path class="cls-5" d="M276.49,283.63c-12.51,10.06-32.14,17.97-46.24,16.91-20.8-1.58-32.69-11.14-42.64-26.71,0,0,0-.02-.01-.02-.11.44-.22.88-.31,1.33,0,.01,0,.03,0,.05-.09.42-.17.86-.24,1.28,0,.04-.02.07-.02.13-.07.39-.12.81-.17,1.22,0,.06-.01.13-.01.19-.02.02,0,.04,0,.07,0,4.38.66,8.87,1.89,12.81.05.12.11.25.16.37.11.26.21.51.32.77.12.26.26.52.39.78.11.24.22.46.34.69.16.31.35.62.52.93.01.02.03.05.05.07.21.09.41.19.63.27l-.2.47s.03.06.05.1c.23.38.46.76.71,1.14,10.2,15.53,30.93,25.52,48.67,16.99,14.27-6.85,25.4-20.66,38.27-29.84l1.72-.11c-.22-.85-.46-1.71-.7-2.55,0,0,0-.01,0-.02-.77.71-1.58,1.41-2.42,2.12-.23.19-.48.37-.73.57Z"/>
      <path class="cls-31" d="M189.98,294.3c.22.51.45,1.01.71,1.5l.23-.56.2-.47c-.22-.08-.42-.18-.63-.27-.17-.07-.36-.14-.51-.21Z"/>
      <path class="cls-31" d="M184.13,275.74c-.25.88-.47,1.77-.62,2.66-1.2,6.4-.06,12.85,6.47,15.9-.47-1.08-.89-2.23-1.26-3.41-1.23-3.95-1.89-8.43-1.89-12.81,0-.01,0-.01,0-.02,0-4.57.75-9,2.35-12.57.15-.35.31-.71.48-1.05-.22.3-.46.61-.68.95-1.86,2.67-3.73,6.4-4.85,10.36Z"/>
    </g>
  </g>
</svg>