<?xml version="1.0" encoding="UTF-8"?>
<svg id="_圖層_2" data-name="圖層_2" xmlns="http://www.w3.org/2000/svg" viewBox="0 0 34.37 34.53">
  <defs>
    <style>
      .cls-1 {
        fill: #d1dcce;
      }

      .cls-2 {
        fill: #d5ddcf;
      }

      .cls-3 {
        fill: #cfdbcd;
      }

      .cls-4 {
        fill: #d6e3d4;
      }

      .cls-5 {
        fill: #e2ecdd;
      }

      .cls-6 {
        fill: #d2decd;
      }
    </style>
  </defs>
  <g id="_圖層_1-2" data-name="圖層_1">
    <g>
      <path class="cls-1" d="M.96,8.33c-1.64,3.49-1.14,6.97,1.13,10.76,0,0,0,.01.01.02-.02-.05-.04-.11-.06-.16,2.43,1.43,4.51,3.57,6.86,5.07,2.15,1.38,4.64,2.48,7.09,3.26,2.31.74,4.83,1.26,7.26,1.26.29,0,.58,0,.88-.02.45-.02.92-.04,1.39-.04,1.26,0,2.55.11,3.75.48l.03-.11-8.49-6.02c-1.24-.61-2.44-1.3-3.65-2.03C14.01,18.94.79,13.38.96,8.33ZM17.95,4.22c.55,1.19.51,2.51.54,3.82.56,1.08.96,2.29,1.2,3.63.36,1.98,1.05,3.73,1.52,5.75.26,1.07.32,2.21.66,3.26.34,1.05,1.04,1.84,1.46,2.81,1.18.72,2.3,1.53,3.3,2.49.96.93,1.81,1.83,2.73,2.7l.31-1.02c-.13-.23-.25-.46-.36-.7.07-.05.11-.07.16-.07.12,0,.17.16.36.24l-.16.53c.04.07.08.14.12.2,0-.02.01-.04.01-.06,1.22-5.07-3.61-10.67-5.72-14.92-1.21-2.44-2.1-5.2-4.06-7.17-.63-.63-1.33-1.12-2.08-1.5Z"/>
      <path class="cls-3" d="M2.05,18.95c.02.06.04.11.06.16.81,2.42,1.75,4.57,3.3,6.63,3.02,4,6.84,7.26,11.84,8.49.84.2,1.63.3,2.39.3,3.96,0,6.97-2.53,10.57-4.41l.14-.09c-.31-.13-.61-.2-.89-.2-.16,0-.32.02-.46.07l-.23.77-.36-.35c.18-.21.38-.34.6-.42l.29-.95c-1.2-.37-2.49-.48-3.75-.48-.47,0-.94.02-1.39.04-.29.02-.58.02-.88.02-2.43,0-4.95-.52-7.26-1.26-2.45-.78-4.94-1.88-7.09-3.26-2.36-1.5-4.43-3.64-6.86-5.07Z"/>
      <path class="cls-6" d="M4.17,6.54c-1.29,0-2.44.37-3.15,1.61.2-.48.36-.97.52-1.47-.38.54-.56,1.09-.58,1.65-.18,5.05,13.05,10.61,16.2,12.47,1.21.72,2.41,1.41,3.65,2.03l-3.79-2.69c2.06,1.13,4.26,2.12,6.29,3.36-.43-.97-1.13-1.76-1.46-2.81-.34-1.05-.4-2.19-.66-3.26-.47-2.02-1.16-3.77-1.52-5.75-.24-1.34-.65-2.55-1.2-3.63.01.62.04,1.24.15,1.85l-.58-.11c-1.29-.99-2.41-2.02-3.98-2.41-.56-.14-1.09-.18-1.62-.18-.43,0-.86.03-1.3.06-.43.03-.86.06-1.31.06-.15,0-.29,0-.44-.01-1.47-.06-3.47-.75-5.23-.75Z"/>
      <path class="cls-4" d="M9.03,0c-1.82,0-3.61.57-5.01,1.81-1.46,1.29-1.92,3.1-2.48,4.88-.16.5-.32.99-.52,1.47.71-1.24,1.87-1.61,3.15-1.61,1.76,0,3.77.68,5.23.75.15,0,.3.01.44.01.45,0,.89-.03,1.31-.06.43-.03.86-.06,1.3-.06.53,0,1.07.04,1.62.18,1.57.4,2.69,1.42,3.98,2.41l.58.11c-.11-.61-.14-1.23-.15-1.85-.03-1.31.01-2.63-.54-3.82-.14-.3-.32-.6-.55-.89-1.33-1.62-4.24-2.58-6.24-3.07-.7-.17-1.42-.26-2.13-.26Z"/>
      <path class="cls-2" d="M32.28,31.34c.68.82,1.4,1.62,2.08,2.4-.33-.54-1.14-1.55-2.08-2.4ZM28.98,29.91c-.22.07-.42.21-.6.42l.36.35.23-.77ZM29.67,27.66l-.31,1.02c.43.4.88.8,1.37,1.18l-1.42-1.01-.03.11-.29.95c.15-.05.3-.07.46-.07.28,0,.59.07.89.2.65.26,1.32.76,1.95,1.31-.92-1.1-1.79-2.25-2.5-3.48-.04-.07-.08-.14-.12-.2ZM29.47,26.89s-.09.02-.16.07c.11.23.23.47.36.7l.16-.53c-.19-.08-.25-.24-.36-.24Z"/>
      <path class="cls-5" d="M17.03,20.14l3.79,2.69,8.49,6.02,1.42,1.01c-.49-.38-.94-.78-1.37-1.18-.93-.87-1.77-1.77-2.73-2.7-1-.97-2.12-1.77-3.3-2.49-2.03-1.24-4.23-2.23-6.29-3.36Z"/>
    </g>
  </g>
</svg>