<?xml version="1.0" encoding="UTF-8"?>
<svg id="_圖層_1" data-name="圖層_1" xmlns="http://www.w3.org/2000/svg" version="1.1" viewBox="0 0 534.2 106.5">
  <!-- Generator: Adobe Illustrator 29.0.1, SVG Export Plug-In . SVG Version: 2.1.0 Build 192)  -->
  <defs>
    <style>
      .st0 {
        display: none;
      }

      .st1 {
        fill: #2a3f40;
      }
    </style>
  </defs>
  <g id="_圖層_11" data-name="_圖層_1">
    <g class="st0">
      <g>
        <path class="st1" d="M-491.4,72.5h-7.8v-2h6.4c.5,0,.9-.2,1.2-.5s.5-.7.5-1.2v-2.8c0-.5-.2-.9-.5-1.2-.3-.3-.7-.5-1.2-.5h-15.9c-.7,0-1,.3-1,1s.3,1,1,1h7.1v2.1h-5.6c-.4,0-.8,0-1.2.4-.3.3-.5.6-.6,1-.4,1.7-.7,3.1-1,3.9-.2.7.2,1.2,1.2,1.3.6,0,.9,0,1-.6h4.1c-1.8,1.5-4.1,2.8-6.8,3.8-1.1.3-1.3.9-.6,1.7.4.5.9.6,1.5.4,3.1-1.2,5.7-2.8,7.9-4.9v4.4c0,.8.4,1.2,1.2,1.2s1.2-.4,1.2-1.2v-5.3h6.2c.3,0,.5,0,.5.3.1.2.1.5,0,.9-.2,1-.4,1.7-.6,1.9-.2.2-.5.2-.9.2h-.9c-1.3,0-1.8.3-1.5,1.2.2.6.7.9,1.5.9h2c.7,0,1.3-.3,1.7-.7.5-.5.9-1.8,1.1-3.8.2-1.9-.3-2.9-1.5-2.9h.3ZM-499.2,66.4h5c.5,0,.8.3.8.8v.6c0,.5-.3.8-.8.8h-5v-2.1h0ZM-501.6,72.5h-5.5l.5-2h5.1v2h-.1Z"/>
        <path class="st1" d="M-493.7,63.9c-.7.3-1.2,0-1.5-.5-.4-.7-.8-1.4-1.4-2.1h-1.4c-.5.7-1,1.4-1.7,2.2-.3.3-.5.4-.8.5-.2,0-.5,0-.8-.3-.4-.3-.6-.6-.6-.8,0-.3.2-.6.6-1,.1,0,.3-.3.5-.5h-4.2c.3.5.5.9.6,1.3.2.5,0,.9-.6,1.2-.4.2-.7.2-.9,0-.2,0-.4-.3-.5-.7-.3-.8-.6-1.4-.9-1.9h-.7c-.6.9-1.1,1.6-1.7,2.3-.3.3-.5.4-.7.5-.2,0-.5,0-.8-.3-.4-.3-.6-.5-.6-.8s.1-.6.5-.9c1-1.2,1.8-2.5,2.5-3.9.3-.7.8-.9,1.5-.7.8.2,1,.7.7,1.4,0,.2-.2.4-.3.6h5.3c.3,0,.5,0,.7.3.2.2.3.4.3.7h0c0,.6.2.6.5.3.6-.8,1.1-1.6,1.5-2.5.3-.7.8-.9,1.5-.8.8.2,1.1.7.7,1.5,0,0-.2.3-.3.5h7c.6,0,.9.3.9.9s-.3.9-.9.9h-4.1c.3.4.5.8.8,1.2.3.6.1,1-.6,1.3h-.1Z"/>
      </g>
      <g>
        <path class="st1" d="M-487.2,79c-.8,0-1.2-.4-1.2-1.2s.4-1.2,1.2-1.2h19.6c.8,0,1.2.4,1.2,1.2s-.4,1.2-1.2,1.2h-19.6Z"/>
        <path class="st1" d="M-484.1,70.2c-.8,0-1.2-.4-1.2-1.2s.4-1.2,1.2-1.2h13.1c.8,0,1.2.4,1.2,1.2s-.4,1.2-1.2,1.2h-13.1Z"/>
        <path class="st1" d="M-485.8,61.9c-.8,0-1.2-.4-1.2-1.3s.4-1.2,1.2-1.2h16.8c.8,0,1.2.4,1.2,1.2s-.4,1.3-1.2,1.3h-16.8Z"/>
      </g>
      <g>
        <path class="st1" d="M-457.8,79.7c-.5,0-.9-.2-1.2-.5s-.5-.7-.5-1.2v-9.5c0-.7.4-1.1,1.1-1.1s1.1.4,1.1,1.1v8.2c0,.5.3.8.8.8h9.9c.5,0,.8-.3.8-.8v-8.2c0-.8.4-1.1,1.2-1.1s1.1.4,1.1,1.1v9.5c0,.5-.2.9-.5,1.2-.3.3-.7.5-1.2.5h-12.6,0Z"/>
        <path class="st1" d="M-455.2,75.7c-.7,0-1-.3-1-1s.3-1,1-1h2.5v-2.9h-2.5c-.7,0-1-.3-1-1s.3-1,1-1h2.5v-1.9c0-.7.4-1.1,1.1-1.1s1.1.4,1.1,1.1v1.9h2.8c.7,0,1,.3,1,1s-.3,1-1,1h-2.8v2.9h2.8c.7,0,1,.3,1,1s-.3,1-1,1h-7.5Z"/>
        <path class="st1" d="M-444.4,58.6c-.3-.3-.7-.5-1.2-.5h-15.8c-.5,0-.9.2-1.2.5-.3.3-.5.7-.5,1.2v5.9c0,2.5-.1,4.5-.3,6.2-.3,2.5-.9,4.6-1.7,6.4-.5.8-.3,1.4.4,1.8.4.2.7.3.9.2.3,0,.5-.3.7-.7,1.6-3.2,2.4-7.9,2.4-13.9v-.5h15c.5,0,.9-.2,1.2-.5.3-.3.5-.7.5-1.2v-3.7c0-.5-.2-.9-.5-1.2h.1ZM-446.4,62.2c0,.5-.3.8-.8.8h-13.5v-1.9c0-.5.3-.8.8-.8h12.7c.5,0,.8.3.8.8v1.1Z"/>
      </g>
      <path class="st1" d="M-431.4,81.9c-2.5,0-3.8-1.2-3.8-3.7v-43c0-1.1.3-1.9,1-2.6.7-.7,1.5-1,2.6-1h14.6c1.1,0,1.9.3,2.6,1s1,1.5,1,2.6v11.9c0,.9-.3,1.6-.8,2.2-.6.5-1.3.8-2.2.8h-.2l.4.2q.1,0,0,.2c-.3.3-.6.8-1.2,1.4-1.3,1.6-2.3,2.8-2.8,3.4l.8.7c.3-.4.6-.9,1.2-1.5.1,0,.2-.3.3-.3.3-.4.7-.7,1.2-.8s1,0,1.5.2l2,.9,1.6-1.7c.6-.6,1.1-.6,1.7-.2h.1c0,0,1.5-2.4,1.5-2.4h-1.3c-.7,0-1-.3-1-1v-14c0-1.1.3-1.9,1-2.6.7-.7,1.5-1,2.6-1h15c1.1,0,1.9.3,2.6,1s1,1.5,1,2.6v37.8c0,1.9-.2,3.4-.5,4.3-.4,1.2-1.1,2.1-2.1,2.7-1,.7-2.5,1.1-4.5,1.4-1.3,0-2.3-.2-3.1-.8-.8-.5-1.2-1.2-1.4-2.2-.3-1.2-.6-2.4-1.2-3.7h-4.7v3.5c0,1.7-.9,2.6-2.6,2.6s-2.6-.9-2.6-2.6v-13.1h-.2l-.2-.9-2.6.8h.6c.2,0,.3,0,.3.3v5.3c0,2.1-.3,3.9-.9,5.3-.8,1.8-2.1,3.2-4,4.3-2.1.9-3.6.8-4.5-.3-1.3-1.6-.8-3,1.7-4.1.5-.3.9-.7,1.2-1.1h-3c-.8,0-1.4-.2-1.9-.7-.4-.5-.7-1.1-.7-1.9v-3.8c0-1.6.8-2.4,2.4-2.4s2.4.8,2.4,2.4v.5c0,1.1.6,1.7,1.7,1.7h.6v-3c0-.8.2-1.4.7-1.8.5-.5,1.1-.7,1.9-.7h1l-.2-1-9.1.9c-1.4,0-2.1-.5-2.3-1.8-.1-1.4.5-2.1,1.9-2.3h.8l1.7-1.7c-.8-.8-1.7-1.8-2.9-2.8-.4-.4-.7-.8-.7-1.4s.3-1,.7-1.5c.2-.3.5-.6.9-.7.4,0,.8,0,1,.2h.1l1.6-2.7h-6.4v28c0,2.5-1.2,3.7-3.7,3.7h-.2ZM-398.8,73.9h1.8c.6,0,.9-.3.9-1v-22.8h-7.5l.5.2c.1,0,.2,0,0,.2-1.6,2-2.9,3.5-3.9,4.6l.8.8c.1-.2.3-.4.6-.8.3-.4.6-.6.7-.8.8-1.1,1.7-1.3,2.9-.8,1.6.7,1.7,1.7.4,3l-1.9,2,1.9-.5c.4,0,.9,0,1.3,0s.8.4,1,.8c.7,1.3,1.2,2.5,1.5,3.7.3,1.1-.3,1.9-1.9,2.4-.4,0-.8.2-1.2,0-.4,0-.7-.4-.8-.8h0c0,0-8.5.7-8.5.7h2.3c.6,0,1,.2,1.4.5s.6.8.6,1.4v3.6h2.3v-2.1c0-1.6.8-2.4,2.4-2.4s2.4.8,2.4,2.4v5.6h0ZM-411.9,60.9h1.3c0,0,1.7-1.8,1.7-1.8-.6-.6-1.2-1.3-2.1-2.1-.7-.7-1.5-1.4-2.4-2.1-.2.2-.4.5-.8.8-.8.9-1.4,1.5-1.9,2-.6.6-1.5,1.5-2.8,2.7l2.3-.2h0c-.2-.4-.2-.8,0-1,.3-.3.6-.6,1-.7.6-.2,1.1-.2,1.6,0,.6,0,1,.4,1.2.9.4.7.6,1.3.8,1.6h0ZM-405.4,60.5h1.2l1.2-.2-.4-.9c-.2-.4-.5-.4-.8,0l-.3.3-.8.8h-.1ZM-427.7,44.9h5.3c1,0,1.5-.5,1.5-1.5v-.2h-6.9v1.7h.1ZM-402.4,44.9h6.4v-1.7h-7v1c0,.4.2.7.7.7h-.1ZM-427.7,38.5h6.9v-1c0-.4-.2-.7-.7-.7h-4.7c-1,0-1.5.5-1.5,1.5v.2h0ZM-403.1,38.5h7v-1c0-.4-.2-.7-.7-.7h-4.8c-1,0-1.5.5-1.5,1.5v.2ZM-333.2,79.4c-1.1,1.7-2.9,2.2-5.3,1.7-3-.9-5.7-2-8.1-3.5-2.4,1.2-5.1,2.3-8.2,3.2-2.2.6-3.9,0-4.8-1.7-.8-1.4-1-2.5-.4-3.3.4-.7,1.5-1.3,3.2-1.6,1.8-.6,3.1-1,4.1-1.4-.8-.9-1.6-1.8-2.3-2.8-.6-.8-.8-1.6-.6-2.3s.8-1.1,1.8-1.4l1.7-.5h-3.2c-2.1,0-3.1-1-3.1-3.1s1-3.1,3.1-3.1h19.1c1.3,0,2.1.4,2.6,1.2s.5,2,0,3.6c-1.4,3.3-3.4,6.1-6,8.5,1.1.4,2.3.8,3.6,1.2,2,.4,3.2,1,3.7,1.8.6.9.3,2.1-.8,3.6h-.1ZM-373.5,77.2c-1.2,2.8-3.1,3.3-5.7,1.8-1.2-.7-1.9-1.5-2.2-2.4-.3-.9,0-1.9.5-3.1.3-.6.8-1.6,1.4-2.9.4-.8.6-1.4.8-1.8.4-.8,1-2.2,1.7-4,.3-.7.6-1.3.7-1.6,1.1-2.9,2.9-3.4,5.4-1.7,1.8,1.2,2.3,2.9,1.5,5-.8,2.2-1.5,4.2-2.3,6-.2.5-.6,1.3-1,2.4-.4,1-.7,1.8-.9,2.3h.1ZM-365.3,80.2c-.8.3-1.8,0-3-.6-1.2-.7-1.9-1.5-2.1-2.4s0-2,.7-3.2c2.3-5.7,3.5-14,3.5-25v-14l-2.4,3.4c-.6.9-1.4,1.5-2.3,1.7-.9,0-1.7,0-2.5-.7-.1,0-.3-.2-.5-.3-.9-.6-1.6-1-2.1-1.3-1.3-.6-2.1-1.4-2.3-2.4-.3-1,0-2,.8-3.1,1.2-1.7,2.7-2.1,4.6-1.4,2.8,1.2,5,2.5,6.7,3.8v-.6c0,0,0-.2.2-.2h13.9v-.3c0-2.7,1.4-4,4.1-4s4,1.3,4,4v.3h9.2c2.2,0,3.3,1.1,3.3,3.3s-1.1,3.3-3.3,3.3h-22.3c-1.1,0-1.7.5-1.7,1.6v2h3.5c0-1,.3-1.7,1-2.3.6-.5,1.4-.7,2.4-.7s1.8.2,2.4.7c.7.5,1,1.2,1,2.1h0c0,0,5.4,0,5.4,0h0c0-1,.4-1.7,1.1-2.3.7-.5,1.5-.7,2.5-.7s1.8.2,2.5.7c.7.6,1.1,1.3,1.1,2.1h0c0,0,1.3,0,1.3,0,2.1,0,3.1,1,3.1,3.1s-1,3.1-3.1,3.1h-1.3v4.2c0,1.1-.3,1.9-1,2.6-.7.7-1.5,1-2.6,1h-12.4c-1.1,0-1.9-.3-2.6-1s-1-1.5-1-2.6v-4.2h-3.5c-.1,11.8-1.6,21-4.3,27.6-.6,1.3-1.3,2.1-2.1,2.4h0ZM-346.4,69.2h.2c.8-.8,1.4-1.3,1.8-1.6s.8-.8,1.4-1.4c.1-.2.3-.3.3-.4h-7c.7.8,1.2,1.4,1.5,1.8.6.5,1.2,1.1,1.8,1.7h0ZM-371.3,52.4c-1.7,2.4-3.6,2.7-6,1-.1,0-.3-.2-.5-.3s-.5-.3-.9-.6c-.2,0-.3,0-.4-.2-2.5-1.2-2.9-3-1.2-5.3,1.2-1.6,2.7-2.1,4.5-1.5.9.4,1.7.8,2.4,1.2.4.2.9.4,1.3.7,2.1,1.4,2.4,3,.9,5.1h0ZM-347.7,52.2h3.5c.8,0,1.2-.4,1.2-1.2v-.7h-5.4v1.1c0,.5.3.8.8.8h-.1ZM-317.3,78.3c-2.9,2.1-5.3,2.2-7.2.3-2.5-2.4-1.8-5,2-7.7,6.1-5.2,10.3-11.9,12.6-20.1,1.4-4.9,2.2-10.6,2.4-17.2,0-1.3.5-2.2,1.5-2.5.6-.3,1.8-.4,3.6-.4s2.2.3,2.9.9c.7.6,1.1,1.5,1,2.6h0c.4,7.2,1.8,13.7,4.2,19.5,3.1,7.4,7.5,13.1,13.3,17.3,3.9,2.3,4.6,4.8,2.3,7.4-1.8,2-4.1,2.1-7,.3-7.6-5.2-13.1-12.9-16.6-23.2-3.2,9.4-8.2,17-15,22.7h0ZM-263.9,80.7c-2.8,1-4.9.3-6.3-1.8-2-3-.9-5.2,3.2-6.4,5.2-1.8,9.8-4.2,13.6-7-4.2-5.1-7.8-11.6-10.9-19.7h-3.7c-2.6,0-3.9-1.3-3.9-3.9s1.3-3.9,3.9-3.9h17v-4.3c0-2.7,1.4-4.1,4.1-4.1s4.1,1.4,4.1,4.1v4.3h17.3c2.6,0,3.9,1.3,3.9,3.9s-1.3,3.9-3.9,3.9h-3.7c-2.8,7.5-6.5,14-11.2,19.4,3.7,2.8,8,5,13.1,6.8,4.6,1.3,5.8,3.6,3.4,6.9-1.5,2.1-3.7,2.7-6.6,1.8-6.5-2.2-12.1-5.2-16.7-9.1-4.8,3.8-10.3,6.8-16.6,9.1h-.1ZM-246.8,59.6c3.4-4,6.1-8.5,8.1-13.8h-16.6c1.1,2.6,2.3,5,3.7,7.3,1.5,2.3,3.1,4.5,4.8,6.4h0ZM-172.5,80.7c-1.5.9-2.9.8-4.2-.3-.4-.3-.7-.5-.9-.7-7.5.5-18.2,1.2-32.1,1.9h-1c-.8,0-1.4,0-1.7-.5-.3-.3-.5-.9-.7-1.8-.3-1.8.5-2.8,2.4-2.9h4.3c.2-.5.6-1.1,1-2,.1-.3.3-.6.4-.8h-9.6c-1.4,0-2.1-.7-2.1-2.2s.7-2.1,2.1-2.1h44.9c1.4,0,2.1.7,2.1,2.1s-.7,2.2-2.1,2.2h-6.8c1.5.8,3,1.8,4.3,2.9,1,.8,1.4,1.5,1.3,2.1,0,.7-.7,1.3-1.8,2h.2ZM-199.2,76.1l7.8-.3,7.8-.3-1.2-.6c-.6-.3-.6-.6,0-.9l.4-.2h-12.9l-1.9,2.4h0ZM-207.6,68.2c-1.4,0-2.1-.7-2.1-2.2s.7-2.1,2.1-2.1h31.8c1.4,0,2.1.7,2.1,2.1s-.7,2.2-2.1,2.2h-31.8ZM-214,63.7c-1.3,0-2-.6-2-2s.6-2.2,2-2.3l6.9-.2v-1.3h-3.5c-.9,0-1.7-.3-2.3-.8-.6-.6-.8-1.3-.8-2.3v-.5l-.8.2c-.3,0-.5,0-.6-.3-.3-.6-.6-1.1-.9-1.6-.9-1-.4-1.6,1.4-1.9,1.7-.4,2.8-.9,3.4-1.7h-2.8c-1.3,0-1.9-.6-1.9-1.9s.6-1.9,1.9-1.9h6.8v-.8c0-.3-.1-.4-.4-.4h-4.1c-1.2,0-1.8-.6-1.8-1.9s.6-1.8,1.8-1.8h4.5c0-.4.5-.7,1.4-.9.7-.2,1.4-.3,1.9-.3s1.1,0,1.9.3c.9.2,1.4.5,1.4.8h0c0,0,4.5,0,4.5,0,1.2,0,1.8.6,1.8,1.8s-.6,1.9-1.8,1.9h-3.5c-.7,0-1,.3-1,1v.2h6.9c1.3,0,1.9.6,1.9,1.9s-.6,1.9-1.9,1.9h-4.6v.2c0,.5,0,.8.1.9,0,0,.3.2.5.2h1.6c.3-.4.7-.6,1.3-.7.5,0,1,0,1.5,0,.4,0,.8.3,1,.7.3.3.4.7.3,1h0c0,0,2.6-3.3,2.6-3.3h-.1c-.5,0-.8-.2-1.1-.6-.3-.4-.4-.8-.4-1.3,0-1,.2-1.8.7-2.5s1.2-1.1,2-1.1h2.4v-.3c0-1.9,1-2.9,2.9-2.9s2.9,1,2.9,2.9v.3h4.5c1.1,0,1.9.3,2.6,1,.7.7,1,1.5,1,2.6v11c0,.2.1.3.3.3h.4c.2,0,.3,0,.4-.2.1,0,.2-.5.3-1,0-1.2.3-1.9.8-2.3.5-.4,1.2-.3,2.1.2,1,.6,1.4,1.6,1.3,3-.1,1.2-.3,2.2-.6,2.8-.3,1-.9,1.6-1.6,2-.6.4-1.5.6-2.6.6h-2.3c-1.5,0-2.7-.4-3.6-1.3-.4-.4-.7-1-.9-1.6-.2-.7-.3-1.7-.3-3.1l-1.1,1.5c-.3.4-.6.6-1,.7-.4,0-.7,0-1-.3-.1,0-.3-.2-.5-.3-.5-.4-.9-.7-1.3-.9-.9,1.5-2,3-3.4,4.2-.9.7-1.9,1-2.8,1s-1.7-.4-2.4-1.1c-.1,0-.2-.2-.4-.3v.8c0,.3-.1.4-.4.5-1.5,0-3.9.2-7,.4-2.4,0-4.2.3-5.4.3-3.3,0-6.4.3-9.2.5h.2ZM-200.6,58.9l8.4-.3c.9-.7,1.6-1.4,2.3-2.1s1-1.2,1.6-2.2c-.4-.3-1.1-.6-2.1-1-.7-.3-1.4-.6-2.1-.9-.6.7-1.5,1.1-3,1.1h-2.9c-1,0-1.7,0-2.2-.2v.9h4.7c1.2,0,1.8.6,1.8,1.8s-.6,1.9-1.8,1.9h-3.9c-.6,0-.9.3-.9.9v.2h0ZM-213.2,54.2h6.1v-1.5c0-.8.4-1.2,1.2-1.2h3.5c-.2-.5-.3-1.3-.3-2.4v-.2h-3.4c-.4,1.3-1.1,2.3-2.2,3.1-.5.4-1.2.8-2,1.2-.7.3-1.7.6-2.9.9h0ZM-178.2,53.6v-3.8c0-1.1-.5-1.6-1.6-1.6h-.3v.2c0,.8-.1,1.4-.2,1.8,0,.4-.2,1-.4,1.9.7.4,1.1.6,1.4.8,0,0,.2,0,.4.2.4.2.6.4.8.5h0ZM-186.3,49.3l.2-1.2h-3l1.4.6,1.4.6h0ZM-201,39c-.6,0-1.4,0-2.2-.3-1.1-.3-1.6-.6-1.6-.9h0c0,0-8.8,0-8.8,0-1.8,0-2.8-.9-2.8-2.8s.9-2.8,2.8-2.8h7.2c1.1,0,1.6-.5,1.6-1.6h0c0-.4.4-.6,1.3-.8.7-.1,1.3-.2,1.7-.2.7,0,1.6.1,2.7.3,1.3.3,2,.7,2,1h0c0,.9.4,1.3,1.2,1.3h7.4c1.1,0,1.6-.5,1.6-1.6h0c0-.4.4-.6,1.3-.8.7-.1,1.3-.2,1.7-.2.7,0,1.6.1,2.8.3,1.4.3,2,.7,2,1h0c0,.9.4,1.3,1.2,1.3h7.9c1.8,0,2.8.9,2.8,2.8s-.9,2.8-2.8,2.8h-9.1c0,.4-.5.7-1.6,1-.9.2-1.6.3-2.3.3s-1.4,0-2.3-.3c-1.1-.3-1.6-.6-1.6-.9h0c0,0-10.2,0-10.2,0h0c0,.4-.5.7-1.6,1-.8.2-1.6.3-2.2.3h0ZM-153.4,81.9c-2.4,0-3.6-1.2-3.6-3.6v-17c-.8.8-1.6,1-2.4.8-.7-.2-1.4-.8-2-1.8-1.5-2.7-1.4-5,.4-6.7,2.5-2.7,4.5-5.7,6.3-9,.5-1,1.1-1.6,2-1.9.8-.4,1.8-.4,2.8,0l2.6.9v-1.8c0-1,.5-1.4,1.4-1.4h4.8v-7.2c0-2.4,1.2-3.6,3.6-3.6s3.6,1.2,3.6,3.6v7.2h3.6c2.4,0,3.6,1.2,3.6,3.6s-1.2,3.6-3.6,3.6h-3.6v30.7c0,2.4-1.2,3.6-3.6,3.6s-3.6-1.2-3.6-3.6v-30.7h-5.3c-.6,0-.9-.3-.9-.9v-.2c-.8,1.6-1.7,3.2-2.5,4.7v21c1.5-2.5,2.3-6.4,2.3-11.6v-6.5c0-1.7.9-2.6,2.6-2.6s2.6.9,2.6,2.6v6.6c0,4.9-.4,8.8-1.3,11.6-.5,1.1-1.2,1.7-2.1,1.9-.9,0-1.8-.2-2.8-1-.4-.3-.8-.6-1.3-.8v6.1c0,2.4-1.2,3.6-3.6,3.6v-.2ZM-120.5,81.6c-1.2,0-2.3-.2-3.2-.8-.9-.6-1.5-1.5-1.8-2.6-.6-2.6.3-3.8,2.9-3.7.5,0,.8-.2.8-.7v-18.8h-.7c-2.3,0-3.5-1.2-3.5-3.6s1.2-3.5,3.5-3.5h7.9c2.3,0,3.5,1.2,3.5,3.6s-1.1,3.5-3.4,3.5h0v18.9c0,1.8,0,3.2-.4,4.1-.4,1.1-1,1.9-2,2.5-.9.6-2.1,1-3.5,1.2h0ZM-128.7,72.3c-1.3,0-2.3-.4-3-1.2-.4-.4-.7-1-.8-1.7-.1-.8-.2-2-.2-3.6v-11.6c0-1.7.9-2.6,2.6-2.6s2.6.9,2.6,2.6v13.3c0,.2,0,.3.3.3h.3c0,0,.3,0,.3-.2,0,0,.2-.6.3-1.4v-1.7c0-2.2.8-2.9,2.3-2.1.8.5,1.2,1.3,1.2,2.5,0,2.3-.3,3.9-.5,4.5-.2,1-.7,1.8-1.3,2.3-.5.5-1.3.7-2.3.7h-1.9,0ZM-156.3,43.4c-1.9,1.7-3.6,1.4-5-.6-1.3-1.9-1-3.7.8-5.3,1-.9,1.8-1.7,2.4-2.5.8-1,1.5-1.9,2.1-2.6.6-1,1.3-1.6,2.1-1.8.8-.3,1.8-.2,2.9.2,2.6,1,3.1,2.6,1.6,4.9-1.1,1.4-2.1,2.8-3.2,4-1,1.1-2.2,2.3-3.6,3.7h-.1ZM-127.5,38.9c-1.9.8-3.2.2-3.9-1.8,0,0,0-.3-.2-.4,0-.2,0-.3-.1-.4-.3-.7-.5-1.3-.7-1.6-.7-1.8-.2-3,1.6-3.6,1.6-.6,2.8-.2,3.5,1.3.4.8.6,1.4.8,1.8,0,.2.3.6.4,1.1,0,0,0,.2,0,.3.5,1.6,0,2.7-1.5,3.4h0ZM-121.5,39.5c-2.3,0-3.5-1.2-3.5-3.5s1.2-3.5,3.5-3.5h5.8c2.3,0,3.5,1.2,3.5,3.5s-1.2,3.5-3.5,3.5h-5.8ZM-100.5,78c-2.7,2.3-4.7,2-6.1-.9-.5-1.2-.7-2.3-.4-3.2.3-.9,1-1.7,2.2-2.4.9-.6,2-1.3,3.2-2.2v-5.9c0-1.1-.5-1.6-1.6-1.6h-.4c-2.4,0-3.6-1.2-3.6-3.7s1.2-3.6,3.6-3.6h6c1.1,0,1.9.3,2.6,1s1,1.5,1,2.6v7.9c2.2-4.6,3.3-11.5,3.3-20.6v-10.7c0-1.1.3-1.9,1-2.6s1.5-1,2.6-1h25.1c1.1,0,1.9.3,2.6,1s1,1.5,1,2.6v31.1c0,1.7-.2,2.9-.5,3.8-.4,1-1,1.7-1.9,2.3-1,.6-2.3.9-3.7,1-1.2,0-2.2-.2-3-.8-.8-.5-1.2-1.3-1.4-2.3-.4-1.2-.7-2.3-1.1-3h-8.5c-1.1,0-1.9-.3-2.6-1s-1-1.5-1-2.6v-5.5c0-1.1.3-1.9,1-2.6.7-.7,1.5-1,2.6-1h7.5c1.1,0,1.9.3,2.6,1s1,1.5,1,2.6v8.9h1c.5,0,.8-.3.8-.9v-26.5c0-1.1-.5-1.7-1.6-1.7h-14.6c-1.1,0-1.7.6-1.7,1.7v6.2c0,10-1.2,17.8-3.6,23.4-.5,1-1.2,1.6-2.1,1.8-.9.2-1.8,0-2.8-.7-.9-.5-1.5-.9-1.9-1.1,1.9,3.2,5.6,4.8,11.1,5.1,6.6.3,13.9.3,22.1-.2,1.8,0,3,.2,3.5.8.6.7.6,1.8,0,3.5-.3,1.1-.8,1.9-1.4,2.4-.6.5-1.4.7-2.6.8-8.4.3-15.7.3-21.8,0-3.4,0-6.1-.6-8.3-1.5-2.3-.9-4.3-2.4-6-4.5-.6.6-1.6,1.5-2.9,2.6l-.3.3h0ZM-75.5,61.4h1.9v-1.4c0-.7-.3-1-1-1h-1.4c-.4,0-.5.2-.5.5v.9c0,.7.3,1,1,1ZM-96.1,49.8c-1.9,1.9-3.8,1.9-5.6,0,0,0-.2,0-.3-.2-.3-.2-.5-.4-.6-.5-.4-.4-.9-.7-1.4-1-2.2-1.5-2.3-3.2-.3-5.2s2.9-1.6,4.5-.6c1,.7,1.8,1.2,2.3,1.5,0,0,.3.2.5.3.4.3.6.5.8.6,1.8,1.6,1.8,3.3,0,4.9h0ZM-80.1,52.5c-1.7,0-2.5-.9-2.5-2.6s.8-2.5,2.5-2.5h1.9v-1.2c0-.6-.3-.8-.8-.8h-1.1c-1.7,0-2.5-.8-2.5-2.5s.8-2.5,2.5-2.5h1.9c0-.9.3-1.5,1-1.9.6-.4,1.3-.6,2.1-.6s1.6.2,2.1.6c.7.4,1,1,1,1.8h0c0,0,2.5,0,2.5,0,1.7,0,2.5.8,2.5,2.5s-.8,2.5-2.5,2.5h-.8c-1.1,0-1.6.5-1.6,1.6v.4h2.5c1.7,0,2.5.8,2.5,2.5s-.8,2.6-2.5,2.6c0,0-10.7,0-10.7,0ZM-94.3,38.9c-2,1.9-3.9,1.8-5.7,0,0,0-.4-.4-.8-.7-.2-.2-.5-.4-.8-.7-.2-.2-.3-.3-.4-.4-2.1-1.6-2.1-3.3,0-5.2,1.5-1.3,3-1.4,4.5-.5,1,.7,1.8,1.3,2.3,1.7,0,0,.3.3.6.5.3.2.4.3.5.4,1.8,1.7,1.7,3.3,0,4.9h0Z"/>
    </g>
    <g>
      <g>
        <g>
          <path class="st1" d="M124.8,32.2c0-2.2,1.4-3.7,3.7-3.7h15c2.2,0,3.7,1.4,3.7,3.7v12.2c0,1.9-1.2,3.1-3.1,3.1h-.2l.4.2c.1,0,.1.1,0,.2-1.4,1.9-2.9,3.7-4.1,4.9l.8.7c.5-.7,1-1.3,1.4-1.9.5-.8,1.6-1.1,2.7-.6l2.1.9,1.7-1.7c.5-.5,1.2-.6,1.7-.2h.1c0,.1,1.5-2.5,1.5-2.5h-1.3c-.6,0-1-.4-1-1v-14.4c0-2.2,1.4-3.7,3.7-3.7h15.4c2.2,0,3.7,1.4,3.7,3.7v38.9c0,3.7-.5,5.9-2.7,7.2-1.2.8-2.8,1.2-4.6,1.4-2.7,0-4.3-1.2-4.7-3.1-.3-1.3-.7-2.7-1.2-3.8h-4.8v3.6c0,1.7-.9,2.7-2.7,2.7s-2.7-.9-2.7-2.7v-13.5h-.2l-.2-.9-2.7.8h.6c.2,0,.3.1.3.3v5.5c0,3.8-.8,7.5-5,10-1.5.7-3.6,1-4.6-.3-1.5-2-.5-3.2,1.7-4.2.5-.3.9-.7,1.2-1.1h-3.1c-1.6,0-2.7-1-2.7-2.7v-3.9c0-1.6.8-2.5,2.5-2.5s2.5.8,2.5,2.5v.5c0,1.1.6,1.7,1.7,1.7h.6v-3.1c0-1.5,1-2.6,2.6-2.6h1l-.2-1-9.4.9c-1.4.2-2.2-.4-2.4-1.9-.2-1.4.5-2.2,2-2.4h.8l1.7-1.7c-.8-.9-2-2-3-2.9-.9-.8-.8-2.1,0-3.1.4-.6,1.3-.9,2-.5h.1l1.6-2.8h-6.6v28.8c0,2.6-1.3,3.8-3.8,3.8s-3.9-1.3-3.9-3.8v-44.2h.1ZM134.2,33.8c-1,0-1.5.5-1.5,1.5v.2h7.1v-1c0-.4-.2-.7-.7-.7h-4.8ZM132.6,40.4v1.7h5.5c1,0,1.5-.5,1.5-1.5v-.2h-7.1.1ZM147.3,52.4c-.8.9-1.7,2-2.7,2.9-.9.9-1.9,1.9-2.8,2.8l2.4-.2h0c-.4-.8.3-1.5,1-1.7,1-.3,2.4-.2,2.9.8.3.6.6,1.1.8,1.7h1.3c0-.1,1.7-1.9,1.7-1.9-.6-.7-1.3-1.4-2.2-2.2-.8-.8-1.6-1.5-2.5-2.2h-.1ZM165.1,59.2v-11.7h-7.7l.5.2c.2,0,.2.1,0,.2-1.4,1.7-2.8,3.4-4,4.7l.8.8c.4-.6.9-1.1,1.3-1.6.8-1.1,1.7-1.4,3-.8,1.7.7,1.7,1.7.4,3.1l-2,2.1,2-.5c.9-.3,1.9.1,2.4.9.6,1.2,1.2,2.6,1.5,3.8.3,1.3-.7,2.1-2,2.5-.8.3-1.9.1-2.1-.8h0c0-.1-8.7.7-8.7.7h2.4c1.2,0,2,.8,2,2v3.7h2.4v-2.2c0-1.6.8-2.5,2.5-2.5s2.5.8,2.5,2.5v5.8h1.9c.7,0,.9-.3.9-1v-11.7h.1ZM155.5,58.2h1.2l1.2-.2-.4-.9c-.2-.4-.5-.4-.8-.1l-.3.3-.8.8h-.1ZM159.5,33.8c-1,0-1.5.5-1.5,1.5v.2h7.2v-1c0-.4-.2-.7-.7-.7h-4.9ZM157.9,40.4v1c0,.4.2.7.7.7h6.6v-1.7h-7.3Z"/>
          <path class="st1" d="M188.3,75.4c-1.2,2.9-3.2,3.5-5.9,1.9-2.4-1.4-3-3.2-1.7-5.7.7-1.5,1.4-3.2,2.3-4.8.8-1.9,1.6-3.8,2.5-5.8,1.1-3,3.1-3.5,5.6-1.7,1.9,1.3,2.4,3.1,1.5,5.1-.7,2.1-1.5,4.2-2.4,6.2-.7,1.5-1.3,3.2-2,4.8h.1ZM189.6,44.6c2.2,1.4,2.5,3.1.9,5.2-1.7,2.5-3.7,2.9-6.2,1-.2-.1-.4-.2-.6-.3-.4-.3-.9-.5-1.4-.8-2.6-1.2-3-3.1-1.2-5.5,1.2-1.6,2.7-2.2,4.6-1.5.8.3,1.6.7,2.5,1.2.4.2.9.4,1.3.7h.1ZM210.6,55.7c-2.2,0-3.7-1.4-3.7-3.7v-4.3h-3.6c-.1,8.3-.9,19.7-4.4,28.4-1.3,2.6-2.8,3.2-5.2,1.9s-2.8-3.2-1.4-5.9c3.3-8.1,3.6-18.3,3.6-25.7v-14.4l-2.5,3.5c-1.3,2-3.3,2.2-4.9.9-.8-.5-1.7-1-2.7-1.5-2.6-1.3-3.2-3.3-1.5-5.7,1.2-1.6,2.9-2.2,4.7-1.4,2.6,1.1,5.2,2.6,6.9,3.9v-.6c0-.1,0-.2.2-.2h14.3v-.3c0-2.8,1.4-4.1,4.2-4.1s4.1,1.3,4.1,4.1v.3h9.5c2.3,0,3.4,1.1,3.4,3.4s-1.1,3.4-3.4,3.4h-22.9c-1.1,0-1.7.6-1.7,1.7v2.1h3.6c0-2.1,1.6-3.1,3.6-3.1s3.5,1,3.5,3h0c0,.1,5.6.1,5.6.1h0c0-2.1,1.9-3.1,3.7-3.1s3.7,1,3.7,3h0c0,.1,1.3.1,1.3.1,2.1,0,3.2,1,3.2,3.2s-1,3.2-3.2,3.2h-1.3v4.3c0,2.2-1.4,3.7-3.7,3.7h-12.8,0ZM226.6,57.3c2.6,0,3.7,1.5,2.6,4.8-1.5,3.8-3.7,6.5-6.2,8.7,1.1.4,2.4.8,3.7,1.2,3.9.8,5.3,2.4,3,5.6-1.3,2-3.2,2.2-5.5,1.6-3.1-.9-5.9-2.1-8.3-3.6-2.6,1.3-5.5,2.5-8.5,3.3-2.2.6-3.8.2-4.9-1.7-1.6-3-.5-4.3,2.9-5.1,1.4-.4,2.9-.9,4.2-1.4-.8-.9-1.5-1.9-2.4-2.9-1.2-1.7-.7-3.2,1.2-3.8l1.7-.5h-3.3c-2.1,0-3.2-1-3.2-3.2s1-3.2,3.2-3.2h19.6v.2ZM216.1,67.1c.7-.6,1.4-1,2.1-1.7.7-.6,1.2-1.2,1.7-1.9h-7.2c.5.6,1,1.2,1.5,1.9.6.6,1.2,1.1,1.9,1.7ZM214,47.7v1.1c0,.6.2.8.8.8h3.6c.8,0,1.2-.4,1.2-1.2v-.7h-5.7Z"/>
          <path class="st1" d="M283.4,69.1c3.5,2.1,5.1,4.5,2.4,7.6-2.1,2.3-4.6,1.9-7.2.3-9.1-6.3-14.2-15.3-17.1-23.9-2.7,8.1-7.3,16.7-15.4,23.3-2.6,1.9-5.1,2.6-7.4.3-3-2.8-1.3-5.6,2.1-7.9,7.2-6.1,11-13.7,13-20.7,2-6.9,2.4-13.4,2.5-17.7.1-3,2.4-3,5.3-3s4.1,1.2,4,3.6h0c.2,4.2,1,12,4.3,20.1,2.7,6.4,6.9,12.9,13.7,17.8h-.1Z"/>
          <path class="st1" d="M314.3,35v-4.4c0-2.8,1.4-4.2,4.2-4.2s4.2,1.4,4.2,4.2v4.4h17.8c2.7,0,4,1.3,4,4s-1.3,4-4,4h-3.8c-2.9,7.8-6.7,14.4-11.5,20,3.8,2.9,8.3,5.2,13.5,7,4.4,1.2,6.2,3.3,3.5,7.1-1.6,2.4-4,2.7-6.8,1.9-6.8-2.3-12.4-5.3-17.2-9.4-4.9,3.9-10.6,7-17.1,9.4-2.7.9-4.9.6-6.5-1.9-2.2-3.4-.6-5.5,3.3-6.6,5.3-1.9,10-4.2,14-7.2-4.6-5.6-8.2-12.3-11.2-20.3h-3.8c-2.7,0-4-1.3-4-4s1.3-4,4-4h17.5-.1ZM318.6,57.2c3.5-3.9,6.3-8.6,8.3-14.1h-17.1c1,2.7,2.4,5.1,3.8,7.5,1.4,2.4,3.1,4.5,4.9,6.6Z"/>
        </g>
        <g>
          <path class="st1" d="M397.4,67.3c1.4,0,2.2.7,2.2,2.2s-.7,2.3-2.2,2.3h-7c1.5.9,3.1,2,4.4,3,2.1,1.6,1.7,2.9-.5,4.2-1.5.9-3,.9-4.3-.3-.3-.3-.6-.5-.9-.7-12,.8-24.7,1.5-34.1,2.1-1.7.1-2.2-.7-2.5-2.4-.3-1.9.6-2.9,2.5-3h4.4c.5-.9.9-1.9,1.4-2.8h-9.9c-1.4,0-2.2-.8-2.2-2.3s.7-2.2,2.2-2.2h46.5ZM351.6,61.5c-1.4,0-2.1-.6-2.1-2.1s.6-2.3,2.1-2.4l7.1-.2v-1.3h-3.6c-2,0-3.2-1.2-3.2-3.2v-.5l-.8.2c-.3,0-.5-.1-.6-.3-.2-.5-.5-1.1-.9-1.7-.8-.9-.5-1.6,1.4-2,1.9-.4,2.9-.9,3.5-1.7h-2.9c-1.3,0-2-.7-2-2s.7-2,2-2h7v-.8c0-.3-.1-.4-.4-.4h-4.2c-1.2,0-1.9-.7-1.9-2s.6-1.9,1.9-1.9h4.6c0-.8,2.7-1.2,3.4-1.2s3.3.4,3.3,1h0c0,.1,4.6.1,4.6.1,1.2,0,1.9.6,1.9,1.9s-.6,2-1.9,2h-3.6c-.7,0-1,.3-1,1v.2h7.1c1.3,0,2,.7,2,2s-.7,2-2,2h-4.7v.2c0,1,.1,1.1.7,1.1h1.6c.6-.8,2-.8,2.9-.6.7.2,1.5.9,1.4,1.7h0c0,.1,2.7-3.4,2.7-3.4h-.1c-1,0-1.5-.9-1.5-2,0-1.9.9-3.7,2.9-3.7h2.5v-.3c0-2,1-3,3-3s3,.9,3,3v.3h4.6c2.2,0,3.7,1.4,3.7,3.7v11.3c0,.2.2.3.3.3h.4c.2,0,.3,0,.4-.2s.2-.4.3-.9h0c.2-2.4.9-3.2,3-2.2,1.1.6,1.4,1.9,1.3,3.1s-.3,2.4-.6,2.9c-.3.9-.8,1.6-1.7,2.1-.7.4-1.9.6-2.7.6h-2.4c-1.3,0-2.8-.4-3.7-1.3-.8-.9-1.2-2-1.2-4.9l-1.1,1.5c-.6.8-1.4.9-2.1.4-.6-.4-1.1-.8-1.9-1.2-.8,1.5-2,3-3.5,4.3-2,1.4-4,1.3-5.3,0-.2-.1-.3-.2-.4-.3v.8c0,.3-.2.4-.4.5-4.2.2-8.6.5-12.8.7-3.5.2-6.6.3-9.5.5v.2ZM396.8,29.1c1.9,0,2.9.9,2.9,2.9s-.9,2.9-2.9,2.9h-9.4c0,.9-3.2,1.3-4,1.3s-4-.4-4-1.2h0c0-.1-10.5-.1-10.5-.1h0c0,.9-3.2,1.3-4,1.3s-3.9-.4-3.9-1.2h0c0-.1-9.1-.1-9.1-.1-1.9,0-2.9-.9-2.9-2.9s.9-2.9,2.9-2.9h7.3c1.1,0,1.7-.6,1.7-1.7h0c0-.7,2.6-1,3.1-1,.9,0,4.8.5,4.8,1.4h0c0,.9.4,1.3,1.2,1.3h7.6c1.1,0,1.7-.6,1.7-1.7h0c0-.7,2.6-1,3.1-1,.9,0,4.9.5,4.9,1.4h0c0,.9.4,1.3,1.2,1.3h8.1-.1ZM352.4,51.6h6.3v-1.5c0-.7.4-1.2,1.2-1.2h3.6c-.2-.6-.3-1.4-.3-2.5v-.2h-3.5c-.4,1.3-1.1,2.4-2.3,3.2-.6.4-1.2.8-2.1,1.2-.8.3-1.9.6-3,.9h0ZM390.9,61.7c1.4,0,2.2.7,2.2,2.2s-.7,2.3-2.2,2.3h-32.7c-1.4,0-2.2-.8-2.2-2.3s.7-2.2,2.2-2.2h32.7ZM373.8,49.8c-.6.8-1.6,1.1-3.1,1.1h-3c-.9,0-1.6,0-2.3-.2v.9h4.8c1.2,0,1.9.6,1.9,1.9s-.6,2-1.9,2h-4c-.6,0-.9.3-.9.9v.2l8.6-.3c.9-.7,1.6-1.4,2.4-2.2s1.2-1.5,1.6-2.3c-.7-.4-1.4-.7-2.2-1s-1.4-.6-2.2-.9h.1ZM382.8,73.6l-1.2-.6c-.6-.3-.6-.6,0-.9l.4-.2h-13.3l-2,2.5,8-.3,8-.3h0ZM380.2,46.6l.2-1.2h-3.1l1.4.6s1.4.6,1.4.6ZM388.5,51v-3.9c0-1.1-.6-1.7-1.7-1.7h-.3c0,.6-.1,1.3-.2,2-.1.6-.3,1.3-.4,2,.5.3,1,.6,1.4.8s.8.5,1.2.8h0Z"/>
          <path class="st1" d="M434,76.5c0,2.5-1.2,3.7-3.7,3.7s-3.7-1.2-3.7-3.7v-31.6h-5.5c-.6,0-.9-.3-.9-.9v-.2c-.8,1.6-1.6,3.2-2.6,4.8v21.6c2-3.3,2.4-7.7,2.4-11.9v-6.7c0-1.7.9-2.7,2.7-2.7s2.7.9,2.7,2.7v6.8c0,4.1-.2,8.3-1.3,11.9-1,2.2-3,2.6-5,.8-.4-.3-.9-.6-1.3-.8v6.2c0,2.5-1.2,3.7-3.7,3.7s-3.7-1.2-3.7-3.7v-17.6h0c-1.6,1.7-3.3,1.1-4.4-.9-1.3-2.5-1.5-4.9.4-6.9,2.5-2.7,4.7-5.9,6.5-9.3.9-2,2.9-2.7,4.8-2.1l2.7.9v-1.9c0-.9.6-1.4,1.4-1.4h4.9v-7.4c0-2.5,1.3-3.7,3.7-3.7s3.7,1.2,3.7,3.7v7.4h3.7c2.5,0,3.7,1.2,3.7,3.7s-1.2,3.7-3.7,3.7h-3.7v31.6h0ZM411.2,29.3c1.3-2.1,2.9-2.5,5-1.6,2.7,1,3.3,2.6,1.6,5-1,1.3-2.2,2.8-3.3,4.1-1.2,1.3-2.5,2.7-3.7,3.8-2.1,1.7-3.6,1.5-5.1-.6-1.4-2.1-1-3.8.8-5.5.8-.8,1.7-1.6,2.5-2.6.8-.9,1.5-1.9,2.2-2.7h0ZM435.2,51.6c0-1.7.9-2.7,2.7-2.7s2.7.9,2.7,2.7v13.7c0,.2.2.3.3.3h.3c.2,0,.3,0,.4-.2s.2-.6.3-1.4v-1.7c0-2,.7-3.1,2.4-2.2.9.5,1.2,1.4,1.2,2.6-.1,2-.3,3.8-.5,4.6-.2,1-.7,1.9-1.3,2.4-.6.5-1.5.7-2.4.7h-2c-1.1,0-2.4-.4-3.1-1.2-.8-.9-1-2-1-5.5v-11.9h0ZM442.2,32.4c.6,1.7,0,2.8-1.5,3.5-2.1.9-3.3.3-4-1.9-.1-.3-.2-.6-.3-.8-.2-.6-.4-1.1-.7-1.6-.7-1.7-.2-3.1,1.6-3.7,1.5-.6,2.9-.2,3.6,1.3.3.6.6,1.2.8,1.9.2.4.4.9.6,1.4h-.1ZM453.9,71.9c0,3.5-.4,5.6-2.5,6.9-1,.7-2.3,1-3.6,1.2-2.6.1-4.6-1.1-5.2-3.6-.6-2.6.3-3.9,3-3.8h0c.6,0,.8-.2.8-.7v-19.3h-.7c-2.5,0-3.6-1.2-3.6-3.7s1.2-3.6,3.6-3.6h8.1c2.5,0,3.6,1.3,3.6,3.7s-1.2,3.6-3.5,3.6h-.1v19.4h.1ZM452.8,29.4c2.4,0,3.6,1.2,3.6,3.6s-1.2,3.6-3.6,3.6h-6c-2.4,0-3.6-1.2-3.6-3.6s1.2-3.6,3.6-3.6h6Z"/>
          <path class="st1" d="M511.5,63.3c0,3.2-.5,5-2.5,6.2-1,.6-2.4.9-3.8,1-2.6.1-4.2-1.2-4.6-3.2-.3-1.1-.7-2.3-1.1-3.1h-8.7c-2.2,0-3.7-1.4-3.7-3.7v-5.7c0-2.2,1.4-3.7,3.7-3.7h7.7c2.2,0,3.7,1.4,3.7,3.7v9.2h1c.6,0,.8-.3.8-.9v-27.3c0-1.1-.6-1.7-1.7-1.7h-15c-1.1,0-1.7.6-1.7,1.7v6.4c0,7.1-.6,16.8-3.7,24.1-1,2.1-3.1,2.6-5,1.2-.7-.4-1.3-.8-2-1.1,2.2,3.5,6,4.9,11.4,5.2,5.6.3,15,.2,22.7-.2,3.6-.2,4.8.9,3.7,4.4-.7,2.3-1.7,3.1-4.1,3.2-7.1.2-16.5.3-22.4,0-6.7-.3-11.1-1.7-14.7-6.1-1,1-2.2,2-3.3,3-2.7,2.3-4.8,2.2-6.3-.9-1.1-2.6-.6-4.3,1.9-5.8,1.1-.7,2.3-1.4,3.3-2.3v-6.1c0-1.1-.6-1.7-1.6-1.7h-.4c-2.5,0-3.7-1.3-3.7-3.8s1.2-3.7,3.7-3.7h6.2c2.2,0,3.7,1.4,3.7,3.7v8.1c3.1-6.5,3.4-14.9,3.4-21.2v-11c0-2.2,1.4-3.7,3.7-3.7h25.8c2.2,0,3.7,1.4,3.7,3.7v32h.1ZM472.8,42c1.9,1.7,1.9,3.3,0,5.1-2,2-3.8,2.1-5.8.1-.3-.2-.6-.5-.9-.7-.4-.4-.9-.7-1.4-1-2.3-1.5-2.3-3.4-.3-5.3,1.4-1.3,3-1.6,4.6-.6.8.5,1.5,1,2.4,1.5.4.3.9.6,1.3.9h.1ZM474.8,30.9c1.9,1.7,1.9,3.3,0,5-2.1,2-3.9,2-5.9-.1-.2-.2-.5-.4-.8-.7-.4-.4-.8-.7-1.3-1.1-2.2-1.7-2.2-3.5-.1-5.3,1.4-1.3,3-1.5,4.6-.5.8.6,1.5,1.1,2.4,1.7.4.3.8.6,1.2.9h-.1ZM494.9,50h-5.5c-1.7,0-2.6-.9-2.6-2.7s.8-2.6,2.6-2.6h2v-1.2c0-.6-.3-.8-.8-.8h-1.1c-1.7,0-2.6-.8-2.6-2.6s.8-2.6,2.6-2.6h2c0-1.7,1.5-2.6,3.2-2.6s3.2.8,3.2,2.5h0c0,.1,2.6.1,2.6.1,1.7,0,2.6.8,2.6,2.6s-.8,2.6-2.6,2.6h-.8c-1.1,0-1.7.6-1.7,1.7v.4h2.6c1.7,0,2.6.8,2.6,2.6s-.8,2.7-2.6,2.7h-5.5ZM496.1,59.1v-1.4c0-.7-.3-1-1-1h-1.4c-.4,0-.6.2-.6.6v.9c0,.7.3,1,1,1h2.1Z"/>
        </g>
      </g>
      <g>
        <g>
          <path class="st1" d="M31.1,79.5h-7.6c-1.4,0-2.4-.9-2.4-2.4h0c0-1,.4-1.9,1.5-3,6.4-5.9,10.6-10.7,10.6-14.6s-1.4-4.1-3.8-4.1-2,.3-2.8.9c-1.3,1.1-2.7,1.2-4,0-1.2-1.2-1-2.6.2-3.8,2.2-1.7,4.4-2.6,7.5-2.6,5.6,0,9.5,3.6,9.5,9.1s-4.2,10.4-8.7,14.9c1.4-.2,3.4-.4,4.7-.4h2.4c2,0,2.9.9,2.9,2.9s-.9,2.9-2.9,2.9h-7.1v.2Z"/>
          <path class="st1" d="M55,80c-3,0-5.6-1.3-7.4-3.8-1.7-2.6-2.9-6.3-2.9-11.3,0-10,4.1-14.8,10.3-14.8s10.2,4.9,10.2,14.8-1,8.7-2.9,11.3c-1.7,2.6-4.3,3.8-7.4,3.8h.1ZM58.6,64.9c0-7.9-1.6-9.6-3.7-9.6s-3.7,1.6-3.7,9.6.4,6.4,1.1,7.8c.7,1.4,1.6,2,2.7,2s2-.5,2.6-2c.7-1.4,1.1-3.9,1.1-7.8h-.1Z"/>
          <path class="st1" d="M78.3,79.5h-7.6c-1.4,0-2.4-.9-2.4-2.4h0c0-1,.4-1.9,1.5-3,6.4-5.9,10.6-10.7,10.6-14.6s-1.4-4.1-3.8-4.1-2,.3-2.8.9c-1.3,1.1-2.7,1.2-4,0-1.2-1.2-1-2.6.2-3.8,2.2-1.7,4.4-2.6,7.5-2.6,5.6,0,9.5,3.6,9.5,9.1s-4.3,10.4-8.7,14.9c1.4-.2,3.4-.4,4.7-.4h2.4c2,0,2.9.9,2.9,2.9s-.9,2.9-2.9,2.9h-7.1v.2Z"/>
          <path class="st1" d="M100.3,52c.5-.9,1.5-1.4,2.6-1.4h4.3c1.5,0,2.6,1,2.6,2.6v13.9h.6c1.7,0,2.6.8,2.6,2.6s-.8,2.7-2.6,2.7h-.6v4c0,2.2-1.1,3.2-3.2,3.2s-3.2-1.1-3.2-3.2v-4h-9.7c-1.5,0-2.6-1-2.6-2.6v-1.2c0-.6.2-1.3.5-1.9l4.5-7.6s4.1-7,4.1-7ZM101.2,61.3l-3.3,5.7h5.6v-7.4c0-1.1.1-2.3.2-3.2h-.2c-.3.8-.7,1.6-1.1,2.5-.4.8-.8,1.6-1.2,2.5h.1Z"/>
        </g>
        <g>
          <path class="st1" d="M68.1,36.7v.7h5.6c.7,0,1.2.5,1.1,2.1-.2,1.9-.4,2.7-.7,3.1-.4.5-.9.7-1.5.7h-1.1c-.8,0-1.3-.4-1.4-1.1v-.2c-.3-.7,0-1.1.9-1h.4c.3,0,.4,0,.6-.2.1-.1.2-.5.3-1.1h-3.9v3.2c0,.9-.4,1.3-1.3,1.3s-1.3-.4-1.3-1.3v-2.1c-1.2,1.1-2.7,2.1-4.2,2.8-.7.3-1.2.2-1.7-.4-.7-.9-.4-1.5.7-1.9,1.1-.4,2.3-1,3.2-1.6h-1.2c0,.2-.3.3-.5.3-1-.1-2.2-.6-1.9-1.5.2-.9.5-1.9.7-2.8.1-.6.6-1,1.3-1h3.8v-.7h-4.2c-.7,0-1.2-.5-1.2-1.2v-.7h-.2c-.9-.6-1.7-1.7-.9-2.5.5-.6.9-1.3,1.3-2.1.3-.7,1.1-.9,2-.7.6.2.9.5.7,1.1h2.8c.6,0,1,.4,1,1h0c0,.4.1.5.3.2.4-.5.7-1,1-1.5.3-.7,1.1-.9,2-.7.6.1.9.6.7,1.1h3.7c.7,0,1,.3,1,1s-.3,1-1,1h-1.6c.1.2.3.4.4.6.1.2,0,.5-.3.6l-1.3.5h1.2c.7,0,1.1.4,1.1,1.1v2.8c0,.7-.5,1.2-1.2,1.2h-4.9ZM61.7,29.9c-.2.3-.4.6-.7.9-.2.3-.4.5-.7.8h2.2c0-.3-.2-.5-.4-.8-.1-.3-.3-.6-.5-.9h.2ZM62.9,36.7l-.2.7h2.8v-.7h-2.7.1ZM66.2,30.4c-.2-.1-.3-.4,0-.6h-1.9c.1.2.2.4.3.6.1.2,0,.5-.3.6l-1,.5h4.4c-.3-.2-.6-.5-1-.7s-.4-.3-.6-.4h.1ZM69.9,29.8h-.4c-.2.3-.4.6-.7.9-.2.3-.5.5-.7.8h2.9c-.1-.3-.3-.5-.4-.8s-.4-.6-.6-.9ZM70.9,34.5c.3,0,.4-.1.4-.4h0c0-.3,0-.4-.3-.4h-2.8v.7h2.7Z"/>
          <path class="st1" d="M92.4,40.4c.9,0,1.3.5,1.3,1.3s-.5,1.4-1.3,1.4h-13.5c-.9,0-1.3-.5-1.3-1.4s.5-1.3,1.3-1.3h13.5ZM91.4,28.2c.9,0,1.3.5,1.3,1.3s-.5,1.4-1.3,1.4h-11.4c-.9,0-1.3-.5-1.3-1.4s.5-1.3,1.3-1.3h11.4ZM90,34.1c.9,0,1.3.5,1.3,1.3s-.5,1.3-1.3,1.3h-8.6c-.9,0-1.3-.5-1.3-1.3s.5-1.3,1.3-1.3h8.6Z"/>
          <path class="st1" d="M100.1,33.2c0,2.9-.3,6.9-1.6,9.9-.5.9-1,1.1-1.9.6-.9-.5-1-1.1-.5-2.1,1.1-2.7,1.2-6.2,1.2-8.6v-4.3c0-.7.5-1.2,1.2-1.2h12.1c.7,0,1.2.5,1.2,1.2v3.5c0,.7-.5,1.2-1.2,1.2h-10.6v-.2ZM109.3,30.7v-1h-8.5c-.4,0-.5.2-.5.5v.4h9.2-.1ZM100.5,35.8c0-.8.4-1.2,1.2-1.2s1.2.4,1.2,1.2v4.9c0,.4.2.5.5.5h5.7c.4,0,.5-.2.5-.5v-4.9c0-.8.4-1.2,1.3-1.2s1.2.4,1.2,1.2v6.7c0,.7-.5,1.2-1.2,1.2h-9.5c-.7,0-1.2-.5-1.2-1.2v-6.7h.2ZM106.4,40.6h-1.9c-.7,0-1.1-.3-1.1-1.1s.3-1.1,1.1-1.1h.6v-1h-.6c-.7,0-1.1-.3-1.1-1.1s.3-1.1,1.1-1.1h.6v-.4c0-.8.4-1.2,1.2-1.2s1.2.4,1.2,1.2v.4h.7c.7,0,1.1.3,1.1,1.1s-.3,1.1-1.1,1.1h-.7v1h.7c.7,0,1.1.3,1.1,1.1s-.3,1.1-1.1,1.1h-2Z"/>
        </g>
      </g>
    </g>
  </g>
</svg>