<svg width="491" height="55" viewBox="0 0 491 55" fill="none" xmlns="http://www.w3.org/2000/svg">
<path d="M15.968 42.188C14.9653 42.188 14.464 41.6973 14.464 40.716V35.18C11.7333 37.7827 8.45867 39.8307 4.64 41.324C3.872 41.6013 3.24267 41.4413 2.752 40.844C1.94133 39.8627 2.19733 39.1587 3.52 38.732C6.912 37.4947 9.74933 35.9267 12.032 34.028H6.88L6.848 34.092C6.67733 34.6893 6.24 34.9347 5.536 34.828C4.256 34.636 3.75467 34.0813 4.032 33.164C4.352 32.0547 4.768 30.412 5.28 28.236C5.38667 27.7027 5.632 27.276 6.016 26.956C6.42133 26.636 6.90133 26.476 7.456 26.476H14.464V23.788H5.536C4.704 23.788 4.288 23.3613 4.288 22.508C4.288 21.676 4.704 21.26 5.536 21.26H15.904H25.472C26.0907 21.26 26.592 21.452 26.976 21.836C27.36 22.22 27.552 22.7213 27.552 23.34V26.892C27.552 27.5107 27.36 28.012 26.976 28.396C26.592 28.78 26.0907 28.972 25.472 28.972H17.44V31.468H23.424H27.232C28.6827 31.468 29.2907 32.6627 29.056 35.052C28.7787 37.6333 28.3307 39.2333 27.712 39.852C27.1787 40.4067 26.4533 40.716 25.536 40.78C24.768 40.8227 23.936 40.844 23.04 40.844C22.0373 40.8013 21.4187 40.4173 21.184 39.692C20.8427 38.5827 21.4613 38.0813 23.04 38.188C23.4027 38.188 23.7653 38.188 24.128 38.188C24.6613 38.188 25.0347 38.092 25.248 37.9C25.5467 37.6227 25.8027 36.8333 26.016 35.532C26.1013 34.956 26.0693 34.5613 25.92 34.348C25.8133 34.1347 25.5893 34.028 25.248 34.028H17.44V40.716C17.44 41.6973 16.9493 42.188 15.968 42.188ZM7.52 31.468H11.008H14.464V28.972H11.264H8.096L7.52 31.468ZM17.44 26.476H21.024H23.648C24.288 26.476 24.608 26.156 24.608 25.516V24.748C24.608 24.108 24.288 23.788 23.648 23.788H20.992H17.44V26.476ZM24.352 20.684C23.4773 21.0467 22.8693 20.8547 22.528 20.108C22.0587 19.2547 21.4933 18.3907 20.832 17.516H19.04C18.4427 18.412 17.728 19.3187 16.896 20.236C16.5547 20.5773 16.224 20.7693 15.904 20.812C15.6053 20.8547 15.264 20.7373 14.88 20.46C14.368 20.0973 14.112 19.7453 14.112 19.404C14.1333 19.0413 14.3787 18.636 14.848 18.188C14.9973 18.0387 15.2 17.8147 15.456 17.516H10.24C10.56 18.1133 10.8053 18.6467 10.976 19.116C11.2107 19.7987 10.944 20.3 10.176 20.62C9.68533 20.812 9.30133 20.8653 9.024 20.78C8.72533 20.6947 8.50133 20.4173 8.352 19.948C7.968 19.0093 7.59467 18.1987 7.232 17.516H6.4C5.696 18.604 5.00267 19.5747 4.32 20.428C4 20.7693 3.69067 20.9613 3.392 21.004C3.09333 21.0253 2.752 20.908 2.368 20.652C1.87733 20.3107 1.61067 19.98 1.568 19.66C1.54667 19.3187 1.74933 18.9347 2.176 18.508C3.43467 17.036 4.49067 15.3933 5.344 13.58C5.70667 12.748 6.31467 12.4387 7.168 12.652C8.14933 12.908 8.43733 13.5053 8.032 14.444C7.92533 14.7213 7.81867 14.956 7.712 15.148H11.616H14.336C14.6987 15.148 14.9867 15.2653 15.2 15.5C15.4347 15.7133 15.552 16.0013 15.552 16.364V16.46C15.552 17.0787 15.7547 17.1533 16.16 16.684C16.8853 15.6813 17.504 14.6467 18.016 13.58C18.3573 12.7267 18.9653 12.4067 19.84 12.62C20.864 12.876 21.1733 13.4947 20.768 14.476C20.6827 14.6253 20.576 14.8493 20.448 15.148H25.408H29.184C29.9733 15.148 30.368 15.5427 30.368 16.332C30.368 17.1213 29.9733 17.516 29.184 17.516H24.032C24.3733 17.964 24.7147 18.476 25.056 19.052C25.44 19.7987 25.2053 20.3427 24.352 20.684ZM35.712 40.044C34.688 40.044 34.176 39.532 34.176 38.508C34.176 37.484 34.688 36.972 35.712 36.972H47.968H60.224C61.248 36.972 61.76 37.484 61.76 38.508C61.76 39.532 61.248 40.044 60.224 40.044H47.968H35.712ZM39.648 29.036C38.624 29.036 38.112 28.524 38.112 27.5C38.112 26.476 38.624 25.964 39.648 25.964H47.808H56C57.024 25.964 57.536 26.476 57.536 27.5C57.536 28.524 57.024 29.036 56 29.036H47.808H39.648ZM37.536 18.668C36.512 18.668 36 18.1453 36 17.1C36 16.076 36.512 15.564 37.536 15.564H48H58.496C59.52 15.564 60.032 16.076 60.032 17.1C60.032 18.1453 59.52 18.668 58.496 18.668H48H37.536ZM67.584 41.74C67.264 41.8467 66.8693 41.7613 66.4 41.484C65.504 40.9507 65.344 40.1827 65.92 39.18C66.9653 37.0253 67.6907 34.3693 68.096 31.212C68.3733 29.1 68.512 26.508 68.512 23.436V16.108C68.512 15.4893 68.704 14.988 69.088 14.604C69.472 14.22 69.9733 14.028 70.592 14.028H80.448H90.304C90.9227 14.028 91.424 14.22 91.808 14.604C92.192 14.988 92.384 15.4893 92.384 16.108V20.78C92.384 21.3987 92.192 21.9 91.808 22.284C91.424 22.668 90.9227 22.86 90.304 22.86H81.952H71.52V23.436C71.52 31.0093 70.5173 36.812 68.512 40.844C68.2347 41.3347 67.9253 41.6333 67.584 41.74ZM75.072 40.972C74.4533 40.972 73.952 40.78 73.568 40.396C73.184 40.012 72.992 39.5107 72.992 38.892V33.932V27.02C72.992 26.1027 73.4613 25.644 74.4 25.644C75.3173 25.644 75.776 26.1027 75.776 27.02V37.324C75.776 37.964 76.096 38.284 76.736 38.284H82.912H89.12C89.76 38.284 90.08 37.964 90.08 37.324V27.052C90.08 26.1133 90.56 25.644 91.52 25.644C92.4587 25.644 92.928 26.1133 92.928 27.052V38.892C92.928 39.5107 92.736 40.012 92.352 40.396C91.968 40.78 91.4667 40.972 90.848 40.972H75.072ZM78.336 36.044C77.504 36.044 77.088 35.628 77.088 34.796C77.088 33.964 77.504 33.548 78.336 33.548H81.472V29.868H78.336C77.504 29.868 77.088 29.452 77.088 28.62C77.088 27.788 77.504 27.372 78.336 27.372H81.472V24.972C81.472 24.076 81.9307 23.628 82.848 23.628C83.744 23.628 84.192 24.076 84.192 24.972V27.372H87.68C88.512 27.372 88.928 27.788 88.928 28.62C88.928 29.452 88.512 29.868 87.68 29.868H84.192V33.548H87.68C88.512 33.548 88.928 33.964 88.928 34.796C88.928 35.628 88.512 36.044 87.68 36.044H85.952H83.008H78.336ZM71.52 20.076H80.448H88.416C89.056 20.076 89.376 19.756 89.376 19.116V17.74C89.376 17.1 89.056 16.78 88.416 16.78H80.448H72.48C71.84 16.78 71.52 17.1 71.52 17.74V20.076Z" fill="#2A3F40"/>
<path d="M114.03 53.225C111.5 53.225 110.235 51.9783 110.235 49.485V28.09V6.53C110.235 5.46666 110.565 4.605 111.225 3.945C111.885 3.285 112.747 2.955 113.81 2.955H128.44C129.503 2.955 130.365 3.285 131.025 3.945C131.685 4.605 132.015 5.46666 132.015 6.53V18.465C132.015 19.3817 131.74 20.115 131.19 20.665C130.64 21.215 129.907 21.49 128.99 21.49H128.825L129.265 21.655C129.375 21.6917 129.393 21.7467 129.32 21.82C129.063 22.15 128.678 22.6267 128.165 23.25C126.845 24.9 125.91 26.0183 125.36 26.605L126.13 27.32C126.387 26.9533 126.772 26.4583 127.285 25.835C127.395 25.6883 127.487 25.5783 127.56 25.505C127.853 25.1017 128.238 24.845 128.715 24.735C129.228 24.5883 129.723 24.6433 130.2 24.9L132.235 25.78L133.885 24.075C134.435 23.525 135.003 23.47 135.59 23.91L135.7 24.02L137.185 21.49H135.865C135.205 21.49 134.875 21.16 134.875 20.5V6.53C134.875 5.46666 135.205 4.605 135.865 3.945C136.525 3.285 137.387 2.955 138.45 2.955H145.93H153.465C154.528 2.955 155.39 3.285 156.05 3.945C156.71 4.605 157.04 5.46666 157.04 6.53V44.37C157.04 46.2767 156.875 47.725 156.545 48.715C156.142 49.8883 155.445 50.7867 154.455 51.41C153.465 52.07 151.98 52.5283 150 52.785C148.717 52.8217 147.672 52.5467 146.865 51.96C146.095 51.4467 145.618 50.7133 145.435 49.76C145.178 48.5867 144.793 47.34 144.28 46.02H139.55V49.54C139.55 51.2633 138.688 52.125 136.965 52.125C135.205 52.125 134.325 51.2633 134.325 49.54V36.395H134.16L133.94 35.46L131.355 36.285H131.96C132.143 36.285 132.235 36.3767 132.235 36.56V41.84C132.235 43.9667 131.942 45.745 131.355 47.175C130.585 48.9717 129.247 50.42 127.34 51.52C125.25 52.4367 123.765 52.345 122.885 51.245C121.565 49.595 122.133 48.22 124.59 47.12C125.067 46.79 125.452 46.4233 125.745 46.02H122.775C121.968 46.02 121.327 45.8 120.85 45.36C120.41 44.8833 120.19 44.2417 120.19 43.435V39.64C120.19 38.0633 120.978 37.275 122.555 37.275C124.132 37.275 124.92 38.0633 124.92 39.64V40.135C124.92 41.235 125.47 41.785 126.57 41.785H127.12V41.675V38.815C127.12 38.045 127.34 37.44 127.78 37C128.257 36.5233 128.88 36.285 129.65 36.285H130.695L130.475 35.295L121.345 36.175C119.988 36.3217 119.218 35.7167 119.035 34.36C118.888 32.9667 119.53 32.215 120.96 32.105L121.73 32.05L123.435 30.4C122.665 29.5567 121.712 28.64 120.575 27.65C120.135 27.2833 119.915 26.8067 119.915 26.22C119.952 25.7067 120.172 25.1933 120.575 24.68C120.795 24.35 121.088 24.13 121.455 24.02C121.858 23.91 122.207 23.965 122.5 24.185L122.61 24.24L124.205 21.49H117.77V49.485C117.77 51.9783 116.523 53.225 114.03 53.225ZM146.645 45.25H148.46C149.083 45.25 149.395 44.92 149.395 44.26V38.595V32.875V21.49H141.915L142.41 21.71C142.557 21.7467 142.575 21.82 142.465 21.93C140.852 23.91 139.55 25.45 138.56 26.55L139.385 27.32C139.532 27.1367 139.733 26.88 139.99 26.55C140.32 26.1833 140.558 25.9083 140.705 25.725C141.475 24.6617 142.428 24.3867 143.565 24.9C145.142 25.5967 145.288 26.5867 144.005 27.87L142.08 29.85L143.95 29.355C144.39 29.2083 144.812 29.2267 145.215 29.41C145.655 29.5567 145.985 29.8317 146.205 30.235C146.865 31.5183 147.378 32.765 147.745 33.975C148.038 35.075 147.397 35.8633 145.82 36.34C145.38 36.4867 144.977 36.505 144.61 36.395C144.207 36.2483 143.95 35.9733 143.84 35.57V35.46L135.315 36.285H137.625C138.212 36.285 138.67 36.4683 139 36.835C139.367 37.165 139.55 37.6233 139.55 38.21V41.785H141.86V39.64C141.86 38.0633 142.667 37.275 144.28 37.275C145.857 37.275 146.645 38.0633 146.645 39.64V45.25ZM133.555 32.27L134.875 32.16L136.58 30.455C136.03 29.8317 135.333 29.1167 134.49 28.31C133.757 27.5767 132.968 26.88 132.125 26.22C131.942 26.4033 131.685 26.6783 131.355 27.045C130.548 27.925 129.925 28.585 129.485 29.025C128.898 29.6483 127.982 30.5467 126.735 31.72L128.99 31.555L128.935 31.445C128.752 31.115 128.77 30.8033 128.99 30.51C129.247 30.18 129.577 29.96 129.98 29.85C130.53 29.6667 131.062 29.63 131.575 29.74C132.162 29.8867 132.565 30.18 132.785 30.62C133.152 31.3533 133.408 31.9033 133.555 32.27ZM140.045 31.885L141.255 31.83L142.465 31.72L142.025 30.84C141.805 30.4367 141.53 30.4 141.2 30.73L140.87 31.06L140.045 31.885ZM117.77 16.265H121.18H123.105C124.132 16.265 124.645 15.7517 124.645 14.725V14.56H121.18H117.77V16.265ZM143.015 16.265H145.875H149.395V14.56H145.875H142.355V15.605C142.355 16.045 142.575 16.265 143.015 16.265ZM117.77 9.885H121.18H124.645V8.84C124.645 8.4 124.425 8.18 123.985 8.18H121.18H119.31C118.283 8.18 117.77 8.69333 117.77 9.72V9.885ZM142.355 9.885H145.875H149.395V8.84C149.395 8.4 149.175 8.18 148.735 8.18H145.875H143.895C142.868 8.18 142.355 8.69333 142.355 9.72V9.885ZM212.205 50.75C211.068 52.4 209.308 52.95 206.925 52.4C203.918 51.52 201.205 50.365 198.785 48.935C196.402 50.1817 193.652 51.2633 190.535 52.18C188.298 52.7667 186.685 52.1983 185.695 50.475C184.888 49.0817 184.742 47.9817 185.255 47.175C185.695 46.4417 186.758 45.8917 188.445 45.525C190.205 44.975 191.58 44.4983 192.57 44.095C191.763 43.1783 191.012 42.2617 190.315 41.345C189.728 40.5017 189.545 39.75 189.765 39.09C189.985 38.43 190.572 37.9533 191.525 37.66L193.23 37.165H190.04C187.987 37.165 186.96 36.1383 186.96 34.085C186.96 32.0317 187.987 31.005 190.04 31.005H197.025H202.085H209.18C210.463 31.005 211.325 31.39 211.765 32.16C212.242 33.0033 212.223 34.195 211.71 35.735C210.353 39.035 208.355 41.8583 205.715 44.205C206.778 44.645 207.97 45.03 209.29 45.36C211.27 45.7633 212.517 46.3683 213.03 47.175C213.58 48.055 213.305 49.2467 212.205 50.75ZM171.89 48.55C170.68 51.3 168.792 51.8867 166.225 50.31C165.052 49.5767 164.318 48.7883 164.025 47.945C163.768 47.065 163.933 46.02 164.52 44.81C164.813 44.1867 165.272 43.215 165.895 41.895C166.262 41.0883 166.537 40.4833 166.72 40.08C167.123 39.2367 167.692 37.9167 168.425 36.12C168.755 35.3867 168.993 34.8367 169.14 34.47C170.24 31.5733 172.055 31.0233 174.585 32.82C176.382 34.0667 176.895 35.735 176.125 37.825C175.355 39.9883 174.585 42.005 173.815 43.875C173.595 44.3883 173.265 45.1767 172.825 46.24C172.422 47.2667 172.11 48.0367 171.89 48.55ZM180.085 51.575C179.315 51.8683 178.325 51.6667 177.115 50.97C175.942 50.31 175.245 49.5033 175.025 48.55C174.805 47.67 175.025 46.5883 175.685 45.305C177.995 39.6217 179.15 31.28 179.15 20.28V6.255L176.785 9.61C176.162 10.5267 175.392 11.0767 174.475 11.26C173.595 11.4067 172.77 11.1683 172 10.545C171.89 10.4717 171.725 10.38 171.505 10.27C170.588 9.68333 169.873 9.26166 169.36 9.005C168.077 8.38167 167.307 7.59333 167.05 6.64C166.793 5.68666 167.068 4.64166 167.875 3.505C169.048 1.855 170.588 1.39666 172.495 2.13C175.318 3.37667 177.537 4.64167 179.15 5.925V5.375C179.15 5.265 179.205 5.21 179.315 5.21H193.23V4.935C193.23 2.25833 194.587 0.919996 197.3 0.919996C199.977 0.919996 201.315 2.25833 201.315 4.935V5.21H210.555C212.755 5.21 213.855 6.31 213.855 8.51C213.855 10.71 212.755 11.81 210.555 11.81H200.215H188.225C187.125 11.81 186.575 12.36 186.575 13.46V15.495H190.04V15.385C190.04 14.505 190.388 13.79 191.085 13.24C191.708 12.7633 192.515 12.525 193.505 12.525C194.495 12.525 195.302 12.7633 195.925 13.24C196.585 13.7533 196.915 14.4683 196.915 15.385V15.495H202.36V15.385C202.36 14.505 202.727 13.79 203.46 13.24C204.157 12.7633 205 12.525 205.99 12.525C206.98 12.525 207.823 12.7633 208.52 13.24C209.253 13.79 209.62 14.505 209.62 15.385V15.495H210.885C212.938 15.495 213.965 16.5217 213.965 18.575C213.965 20.6283 212.938 21.655 210.885 21.655H209.62V25.89C209.62 26.9533 209.29 27.815 208.63 28.475C207.97 29.135 207.108 29.465 206.045 29.465H199.83H193.615C192.552 29.465 191.69 29.135 191.03 28.475C190.37 27.815 190.04 26.9533 190.04 25.89V21.655H186.575C186.428 33.4617 184.98 42.6467 182.23 49.21C181.607 50.4933 180.892 51.2817 180.085 51.575ZM199.005 40.575C199.042 40.5383 199.097 40.5017 199.17 40.465C200.013 39.805 200.618 39.2917 200.985 38.925C201.352 38.6317 201.81 38.1733 202.36 37.55C202.507 37.3667 202.617 37.2383 202.69 37.165H195.705C196.365 37.9717 196.86 38.5583 197.19 38.925C197.74 39.475 198.345 40.025 199.005 40.575ZM174.145 23.745C172.495 26.1283 170.497 26.4767 168.15 24.79C168.003 24.7167 167.82 24.625 167.6 24.515C167.417 24.3683 167.105 24.1667 166.665 23.91C166.482 23.8367 166.335 23.7633 166.225 23.69C163.732 22.48 163.328 20.7017 165.015 18.355C166.188 16.7417 167.673 16.2467 169.47 16.87C170.35 17.2367 171.157 17.6217 171.89 18.025C172.33 18.245 172.77 18.465 173.21 18.685C175.263 20.0417 175.575 21.7283 174.145 23.745ZM197.685 23.525H199.665H201.205C201.975 23.525 202.36 23.14 202.36 22.37V21.655H199.61H196.915V22.755C196.915 23.2683 197.172 23.525 197.685 23.525ZM228.1 49.65C225.24 51.74 222.838 51.85 220.895 49.98C218.402 47.56 219.062 44.9933 222.875 42.28C228.962 37.11 233.16 30.4 235.47 22.15C236.863 17.2733 237.652 11.5533 237.835 4.99C237.872 3.67 238.385 2.82666 239.375 2.46C239.998 2.20333 241.208 2.075 243.005 2.075C244.215 2.075 245.168 2.36833 245.865 2.955C246.598 3.57833 246.947 4.45833 246.91 5.595V5.705C247.313 12.8183 248.725 19.29 251.145 25.12C254.225 32.49 258.643 38.265 264.4 42.445C268.25 44.755 269.02 47.2117 266.71 49.815C264.95 51.795 262.603 51.8867 259.67 50.09C252.08 44.8833 246.562 37.165 243.115 26.935C239.962 36.3583 234.957 43.93 228.1 49.65ZM281.56 52.015C278.737 52.9683 276.628 52.3633 275.235 50.2C273.255 47.1567 274.318 45.03 278.425 43.82C283.668 41.9867 288.215 39.6583 292.065 36.835C287.885 31.775 284.255 25.2117 281.175 17.145H277.435C274.832 17.145 273.53 15.8433 273.53 13.24C273.53 10.6367 274.832 9.335 277.435 9.335H283.98H294.43V5.045C294.43 2.33167 295.787 0.974999 298.5 0.974999C301.213 0.974999 302.57 2.33167 302.57 5.045V9.335H313.13H319.84C322.443 9.335 323.745 10.6367 323.745 13.24C323.745 15.8433 322.443 17.145 319.84 17.145H316.1C313.35 24.6617 309.61 31.115 304.88 36.505C308.547 39.255 312.928 41.5283 318.025 43.325C322.645 44.6083 323.782 46.9 321.435 50.2C319.968 52.29 317.768 52.8767 314.835 51.96C308.345 49.7967 302.772 46.7717 298.115 42.885C293.348 46.6617 287.83 49.705 281.56 52.015ZM298.61 30.895C302.057 26.935 304.752 22.3517 306.695 17.145H298.39H290.085C291.148 19.7483 292.377 22.1867 293.77 24.46C295.237 26.77 296.85 28.915 298.61 30.895ZM372.97 52.015C371.43 52.9317 370.037 52.8217 368.79 51.685C368.423 51.3917 368.112 51.1533 367.855 50.97C360.338 51.4833 349.632 52.125 335.735 52.895C335.258 52.9317 334.91 52.95 334.69 52.95C333.883 52.9867 333.315 52.8217 332.985 52.455C332.655 52.125 332.435 51.5383 332.325 50.695C332.032 48.8617 332.838 47.9083 334.745 47.835L339.09 47.725C339.31 47.3583 339.658 46.735 340.135 45.855C340.282 45.525 340.41 45.2683 340.52 45.085H330.95C329.52 45.085 328.805 44.3517 328.805 42.885C328.805 41.455 329.52 40.74 330.95 40.74H353.39H365.71H375.885C377.315 40.74 378.03 41.455 378.03 42.885C378.03 44.3517 377.315 45.085 375.885 45.085H369.12C370.623 45.9283 372.072 46.8817 373.465 47.945C374.418 48.715 374.84 49.4117 374.73 50.035C374.657 50.695 374.07 51.355 372.97 52.015ZM346.185 47.45L353.94 47.175L361.695 46.845L360.54 46.24C359.99 45.9467 359.99 45.635 360.54 45.305L360.98 45.085H354.545H348.11L346.185 47.45ZM337.825 39.585C336.395 39.585 335.68 38.8517 335.68 37.385C335.68 35.955 336.395 35.24 337.825 35.24H353.72H369.615C371.045 35.24 371.76 35.955 371.76 37.385C371.76 38.8517 371.045 39.585 369.615 39.585H353.72H337.825ZM331.39 35.02C330.07 35.0567 329.392 34.3783 329.355 32.985C329.282 31.5183 329.96 30.7667 331.39 30.73L338.32 30.51V29.19H334.855C333.938 29.19 333.187 28.915 332.6 28.365C332.05 27.7783 331.775 27.0267 331.775 26.11V25.615L331.005 25.78C330.748 25.8167 330.547 25.725 330.4 25.505C330.143 24.9183 329.832 24.3683 329.465 23.855C328.585 22.865 329.062 22.2417 330.895 21.985C332.582 21.6183 333.718 21.0683 334.305 20.335H331.5C330.217 20.335 329.575 19.6933 329.575 18.41C329.575 17.1267 330.217 16.485 331.5 16.485H338.265V15.715C338.265 15.4583 338.137 15.33 337.88 15.33H333.81C332.6 15.33 331.995 14.7067 331.995 13.46C331.995 12.25 332.6 11.645 333.81 11.645H338.265V11.535C338.265 11.2417 338.742 10.985 339.695 10.765C340.428 10.5817 341.052 10.49 341.565 10.49C342.078 10.49 342.702 10.5817 343.435 10.765C344.352 10.985 344.81 11.2417 344.81 11.535V11.645H349.32C350.53 11.645 351.135 12.25 351.135 13.46C351.135 14.7067 350.53 15.33 349.32 15.33H345.8C345.14 15.33 344.81 15.66 344.81 16.32V16.485H351.74C353.023 16.485 353.665 17.1267 353.665 18.41C353.665 19.6933 353.023 20.335 351.74 20.335H347.12V20.5C347.12 20.9767 347.157 21.2883 347.23 21.435C347.303 21.545 347.487 21.6 347.78 21.6C348.293 21.6 348.788 21.6 349.265 21.6C349.302 21.6 349.338 21.6 349.375 21.6C349.632 21.2333 350.053 21.0133 350.64 20.94C351.153 20.8667 351.648 20.9033 352.125 21.05C352.528 21.16 352.877 21.38 353.17 21.71C353.463 22.04 353.573 22.3883 353.5 22.755C353.5 22.7917 353.482 22.8283 353.445 22.865L356.03 19.455H355.92C355.443 19.455 355.077 19.2533 354.82 18.85C354.563 18.4833 354.435 18.0433 354.435 17.53C354.435 16.54 354.673 15.715 355.15 15.055C355.663 14.3217 356.342 13.955 357.185 13.955H359.605V13.68C359.605 11.7733 360.577 10.82 362.52 10.82C364.427 10.82 365.38 11.7733 365.38 13.68V13.955H369.835C370.898 13.955 371.76 14.285 372.42 14.945C373.08 15.605 373.41 16.4667 373.41 17.53V20.445V26.935C373.41 27.8883 373.428 28.42 373.465 28.53C373.502 28.7133 373.612 28.805 373.795 28.805C373.942 28.805 374.07 28.805 374.18 28.805C374.363 28.805 374.51 28.75 374.62 28.64C374.767 28.4933 374.858 28.1633 374.895 27.65C374.968 26.4767 375.225 25.725 375.665 25.395C376.142 25.0283 376.857 25.1017 377.81 25.615C378.8 26.165 379.24 27.1733 379.13 28.64C379.02 29.8867 378.837 30.8217 378.58 31.445C378.25 32.3983 377.7 33.0767 376.93 33.48C376.343 33.8833 375.463 34.085 374.29 34.085C373.557 34.085 372.805 34.085 372.035 34.085C370.495 34.085 369.303 33.645 368.46 32.765C368.02 32.325 367.727 31.775 367.58 31.115C367.397 30.4183 367.287 29.3733 367.25 27.98L366.15 29.52C365.893 29.8867 365.563 30.1067 365.16 30.18C364.793 30.2533 364.463 30.1617 364.17 29.905C364.06 29.8317 363.895 29.7217 363.675 29.575C363.162 29.1717 362.74 28.8783 362.41 28.695C361.53 30.235 360.412 31.6467 359.055 32.93C358.138 33.6267 357.203 33.975 356.25 33.975C355.333 33.9383 354.527 33.5717 353.83 32.875C353.72 32.8017 353.592 32.6917 353.445 32.545V33.315C353.445 33.5717 353.298 33.7367 353.005 33.81C351.465 33.8833 349.137 34.0117 346.02 34.195C343.6 34.3417 341.803 34.4517 340.63 34.525C337.293 34.6717 334.213 34.8367 331.39 35.02ZM344.865 30.235L353.28 29.905C354.16 29.2083 354.912 28.5117 355.535 27.815C356.012 27.3017 356.543 26.5683 357.13 25.615C356.69 25.3583 355.993 25.01 355.04 24.57C354.38 24.2767 353.683 23.9833 352.95 23.69C352.4 24.4233 351.41 24.79 349.98 24.79C349.027 24.79 348.055 24.79 347.065 24.79C346.075 24.79 345.342 24.7167 344.865 24.57V25.505H349.595C350.805 25.505 351.41 26.11 351.41 27.32C351.41 28.5667 350.805 29.19 349.595 29.19H345.745C345.158 29.19 344.865 29.4833 344.865 30.07V30.235ZM332.215 25.505H338.32V24.02C338.32 23.25 338.705 22.865 339.475 22.865H342.94C342.757 22.3517 342.665 21.5633 342.665 20.5V20.335H339.255C338.852 21.6183 338.118 22.6633 337.055 23.47C336.505 23.91 335.845 24.295 335.075 24.625C334.342 24.9183 333.388 25.2117 332.215 25.505ZM367.25 24.9V21.105C367.25 20.005 366.7 19.455 365.6 19.455L365.27 19.51V19.62C365.197 20.39 365.123 20.9767 365.05 21.38C364.977 21.7833 364.83 22.425 364.61 23.305C365.27 23.6717 365.747 23.9467 366.04 24.13C366.113 24.1667 366.242 24.24 366.425 24.35C366.792 24.57 367.067 24.7533 367.25 24.9ZM359.165 20.61L359.385 19.455H357.845H356.36L357.735 20.06L359.165 20.61ZM344.48 10.325C343.857 10.325 343.123 10.2333 342.28 10.05C341.18 9.79333 340.63 9.5 340.63 9.17V9.06H331.83C329.997 9.06 329.08 8.14333 329.08 6.31C329.08 4.47667 329.997 3.56 331.83 3.56H338.98C340.08 3.56 340.63 3.01 340.63 1.91V1.8C340.63 1.54333 341.07 1.32333 341.95 1.14C342.647 0.99333 343.215 0.919996 343.655 0.919996C344.352 0.919996 345.25 1.03 346.35 1.25C347.67 1.58 348.33 1.92833 348.33 2.295V2.405C348.33 3.175 348.715 3.56 349.485 3.56H356.855C357.955 3.56 358.505 3.01 358.505 1.91V1.8C358.505 1.54333 358.945 1.32333 359.825 1.14C360.522 0.99333 361.09 0.919996 361.53 0.919996C362.227 0.919996 363.143 1.03 364.28 1.25C365.637 1.58 366.315 1.92833 366.315 2.295V2.405C366.315 3.175 366.7 3.56 367.47 3.56H372.2H375.39C377.223 3.56 378.14 4.47667 378.14 6.31C378.14 8.14333 377.223 9.06 375.39 9.06H372.255H366.315V9.17C366.315 9.5 365.765 9.79333 364.665 10.05C363.785 10.2333 363.033 10.325 362.41 10.325C361.787 10.325 361.035 10.2333 360.155 10.05C359.055 9.79333 358.505 9.5 358.505 9.17V9.06H348.33V9.17C348.33 9.5 347.78 9.79333 346.68 10.05C345.837 10.2333 345.103 10.325 344.48 10.325ZM392 53.225C389.58 53.225 388.37 52.0333 388.37 49.65L388.315 32.655C387.545 33.425 386.775 33.7 386.005 33.48C385.272 33.2967 384.612 32.6917 384.025 31.665C382.522 28.9517 382.668 26.715 384.465 24.955C386.922 22.2783 389.012 19.29 390.735 15.99C391.212 15.0367 391.872 14.395 392.715 14.065C393.558 13.6983 394.475 13.68 395.465 14.01L398.105 14.945V13.185C398.105 12.2317 398.582 11.755 399.535 11.755H404.32V4.55C404.32 2.16667 405.53 0.974999 407.95 0.974999C410.333 0.974999 411.525 2.16667 411.525 4.55V11.755H415.155C417.538 11.755 418.73 12.9467 418.73 15.33C418.73 17.7133 417.538 18.905 415.155 18.905H411.525V36.065V49.65C411.525 52.0333 410.333 53.225 407.95 53.225C405.53 53.225 404.32 52.0333 404.32 49.65V36.065V18.905H399.04C398.417 18.905 398.105 18.5933 398.105 17.97V17.805C397.298 19.455 396.455 21.0133 395.575 22.48V43.435C397.078 40.905 397.83 37.055 397.83 31.885V25.395C397.83 23.6717 398.71 22.81 400.47 22.81C402.193 22.81 403.055 23.6717 403.055 25.395V31.995C403.055 36.9083 402.615 40.7767 401.735 43.6C401.222 44.6633 400.525 45.2867 399.645 45.47C398.765 45.6167 397.83 45.2683 396.84 44.425C396.473 44.1317 396.052 43.8567 395.575 43.6V49.65C395.575 52.0333 394.383 53.225 392 53.225ZM424.945 52.95C423.698 53.0233 422.617 52.7483 421.7 52.125C420.783 51.5383 420.178 50.6583 419.885 49.485C419.262 46.9183 420.233 45.6717 422.8 45.745C423.313 45.745 423.57 45.5067 423.57 45.03V26.275H422.91C420.563 26.275 419.39 25.0833 419.39 22.7C419.39 20.3533 420.563 19.18 422.91 19.18H426.87H430.83C433.177 19.18 434.35 20.39 434.35 22.81C434.35 25.12 433.232 26.275 430.995 26.275H430.885V35.735V45.14C430.885 46.9367 430.738 48.3117 430.445 49.265C430.078 50.365 429.418 51.2083 428.465 51.795C427.585 52.3817 426.412 52.7667 424.945 52.95ZM416.695 43.6C415.412 43.6 414.422 43.1967 413.725 42.39C413.322 41.95 413.047 41.3817 412.9 40.685C412.753 39.915 412.68 38.705 412.68 37.055V29.96V25.45C412.68 23.7267 413.56 22.865 415.32 22.865C417.043 22.865 417.905 23.7267 417.905 25.45V30.07V37.275C417.905 38.155 417.923 38.65 417.96 38.76C417.997 38.9433 418.107 39.035 418.29 39.035C418.4 39.035 418.492 39.035 418.565 39.035C418.712 39.035 418.822 38.98 418.895 38.87C419.005 38.7233 419.115 38.2467 419.225 37.44C419.225 37.33 419.225 37.1467 419.225 36.89C419.262 36.4133 419.28 36.0283 419.28 35.735C419.353 33.535 420.123 32.82 421.59 33.59C422.433 34.0667 422.818 34.8917 422.745 36.065C422.598 38.4117 422.433 39.915 422.25 40.575C422.03 41.6017 421.59 42.3717 420.93 42.885C420.417 43.3617 419.647 43.6 418.62 43.6C417.997 43.6 417.355 43.6 416.695 43.6ZM389.14 14.78C387.197 16.43 385.547 16.2283 384.19 14.175C382.907 12.2317 383.163 10.4717 384.96 8.895C385.95 7.97833 386.738 7.15333 387.325 6.42C388.168 5.43 388.865 4.55 389.415 3.78C390.038 2.79 390.735 2.185 391.505 1.965C392.312 1.70833 393.265 1.78166 394.365 2.185C396.968 3.175 397.5 4.80666 395.96 7.08C394.897 8.51 393.833 9.83 392.77 11.04C391.78 12.14 390.57 13.3867 389.14 14.78ZM417.96 10.215C416.017 11.0583 414.715 10.4533 414.055 8.4C414.018 8.29 413.963 8.14333 413.89 7.96C413.853 7.77666 413.817 7.64833 413.78 7.575C413.487 6.84166 413.267 6.31 413.12 5.98C412.387 4.22 412.918 3.01 414.715 2.35C416.328 1.72666 417.483 2.14833 418.18 3.615C418.547 4.42166 418.803 5.02666 418.95 5.43C419.06 5.65 419.207 6.01667 419.39 6.53C419.427 6.64 419.463 6.73166 419.5 6.805C420.013 8.38167 419.5 9.51833 417.96 10.215ZM423.955 10.82C421.645 10.82 420.49 9.64666 420.49 7.3C420.49 4.99 421.645 3.835 423.955 3.835H426.87H429.785C432.095 3.835 433.25 4.99 433.25 7.3C433.25 9.64666 432.095 10.82 429.785 10.82H426.87H423.955ZM444.91 49.32C442.197 51.63 440.162 51.3183 438.805 48.385C438.255 47.1383 438.108 46.075 438.365 45.195C438.658 44.315 439.392 43.5083 440.565 42.775C441.482 42.225 442.563 41.4917 443.81 40.575V34.635C443.81 33.535 443.26 32.985 442.16 32.985H441.775C439.355 32.985 438.145 31.7567 438.145 29.3C438.145 26.88 439.355 25.67 441.775 25.67H447.77C448.833 25.67 449.695 26 450.355 26.66C451.015 27.32 451.345 28.1817 451.345 29.245V37.11C453.545 32.5267 454.645 25.6517 454.645 16.485V5.815C454.645 4.75166 454.975 3.89 455.635 3.23C456.295 2.57 457.157 2.24 458.22 2.24H470.76H483.3C484.363 2.24 485.225 2.57 485.885 3.23C486.545 3.89 486.875 4.75166 486.875 5.815V19.565V36.89C486.875 38.54 486.71 39.805 486.38 40.685C486.013 41.675 485.372 42.4267 484.455 42.94C483.428 43.5267 482.182 43.875 480.715 43.985C479.505 44.0217 478.497 43.765 477.69 43.215C476.92 42.665 476.443 41.895 476.26 40.905C475.893 39.6583 475.527 38.65 475.16 37.88H466.635C465.572 37.88 464.71 37.55 464.05 36.89C463.39 36.23 463.06 35.3683 463.06 34.305V28.805C463.06 27.7417 463.39 26.88 464.05 26.22C464.71 25.56 465.572 25.23 466.635 25.23H474.17C475.233 25.23 476.095 25.56 476.755 26.22C477.415 26.88 477.745 27.7417 477.745 28.805V37.66L478.79 37.605C479.34 37.605 479.615 37.33 479.615 36.78V10.27C479.615 9.17 479.065 8.62 477.965 8.62H463.39C462.29 8.62 461.74 9.17 461.74 10.27V16.485C461.74 26.4583 460.548 34.2683 458.165 39.915C457.652 40.905 456.937 41.51 456.02 41.73C455.103 41.95 454.187 41.73 453.27 41.07C452.39 40.5567 451.748 40.19 451.345 39.97C453.288 43.1233 456.992 44.81 462.455 45.03C469.018 45.36 476.388 45.2867 484.565 44.81C486.362 44.7 487.535 44.975 488.085 45.635C488.672 46.295 488.708 47.4683 488.195 49.155C487.865 50.255 487.388 51.0433 486.765 51.52C486.178 51.9967 485.317 52.2533 484.18 52.29C475.783 52.5467 468.523 52.565 462.4 52.345C459.027 52.1983 456.258 51.7033 454.095 50.86C451.785 49.9433 449.787 48.4583 448.1 46.405C447.477 46.9917 446.505 47.8717 445.185 49.045C445.075 49.155 444.983 49.2467 444.91 49.32ZM469.935 32.765H470.375H471.86V31.335C471.86 30.6383 471.512 30.29 470.815 30.29H470.375H469.44C469.073 30.29 468.89 30.4733 468.89 30.84V31.72C468.89 32.4167 469.238 32.765 469.935 32.765ZM449.31 21.105C447.403 22.975 445.533 23.0117 443.7 21.215C443.627 21.1783 443.535 21.105 443.425 20.995C443.168 20.775 442.967 20.61 442.82 20.5C442.417 20.1333 441.958 19.785 441.445 19.455C439.282 17.9517 439.19 16.2283 441.17 14.285C442.6 12.9283 444.103 12.7267 445.68 13.68C446.707 14.34 447.477 14.8533 447.99 15.22C448.1 15.2933 448.265 15.4033 448.485 15.55C448.852 15.8067 449.108 16.0083 449.255 16.155C451.015 17.7683 451.033 19.4183 449.31 21.105ZM465.315 23.855C463.628 23.855 462.785 22.9933 462.785 21.27C462.785 19.5833 463.628 18.74 465.315 18.74H467.24V17.53C467.24 16.98 466.965 16.705 466.415 16.705H465.315C463.628 16.705 462.785 15.8617 462.785 14.175C462.785 12.4883 463.628 11.645 465.315 11.645H467.24V11.535C467.24 10.765 467.57 10.16 468.23 9.72C468.817 9.31667 469.532 9.115 470.375 9.115C471.218 9.115 471.933 9.31667 472.52 9.72C473.18 10.16 473.51 10.765 473.51 11.535V11.645H475.985C477.672 11.645 478.515 12.4883 478.515 14.175C478.515 15.8617 477.672 16.705 475.985 16.705H475.16C474.06 16.705 473.51 17.255 473.51 18.355V18.74H475.985C477.672 18.74 478.515 19.5833 478.515 21.27C478.515 22.9933 477.672 23.855 475.985 23.855H474.555H470.65H465.315ZM451.125 10.27C449.145 12.14 447.238 12.1033 445.405 10.16C445.258 10.0133 445.002 9.79333 444.635 9.5C444.452 9.31666 444.177 9.07833 443.81 8.785C443.627 8.60166 443.48 8.47333 443.37 8.4C441.28 6.78666 441.243 5.06333 443.26 3.23C444.727 1.94667 446.23 1.78167 447.77 2.735C448.797 3.46833 449.548 4.03666 450.025 4.44C450.172 4.55 450.373 4.715 450.63 4.935C450.887 5.11833 451.07 5.265 451.18 5.375C452.94 7.025 452.922 8.65667 451.125 10.27Z" fill="#2A3F40"/>
</svg>
