<?xml version="1.0" encoding="UTF-8"?>
<svg id="_圖層_2" data-name="圖層_2" xmlns="http://www.w3.org/2000/svg" viewBox="0 0 273.05 105.82">
  <defs>
    <style>
      .cls-1 {
        font-family: GenSenRounded2TW-B-B5pc-H, 'GenSenRounded2 TW';
        font-size: 16.24px;
        glyph-orientation-vertical: 0deg;
        text-orientation: upright;
        writing-mode: tb;
      }

      .cls-1, .cls-2 {
        fill: #2a3f40;
      }
    </style>
  </defs>
  <g id="_圖層_1-2" data-name="圖層_1">
    <g>
      <path class="cls-2" d="M13.79,99.42H4.31c-1.84,0-3-1.16-3-3v-.14c0-1.11.48-2.23,1.89-3.53,7.94-7.36,13.16-13.36,13.16-18.2,0-3.29-1.79-5.08-4.69-5.08-1.31,0-2.42.43-3.48,1.16-1.64,1.45-3.39,1.5-4.98-.05-1.55-1.5-1.31-3.24.24-4.69,2.71-2.13,5.52-3.14,9.39-3.14,6.97,0,11.81,4.45,11.81,11.32,0,6.19-5.32,13.02-10.84,18.58,1.79-.24,4.26-.48,5.9-.48h2.95c2.42,0,3.63,1.21,3.63,3.63s-1.21,3.63-3.63,3.63h-8.86Z"/>
      <path class="cls-2" d="M43.51,100.1c-3.77,0-6.97-1.65-9.24-4.79-2.23-3.19-3.53-7.89-3.53-14.08,0-12.39,5.18-18.49,12.78-18.49s12.73,6.14,12.73,18.49c0,6.19-1.26,10.89-3.53,14.08-2.23,3.14-5.37,4.79-9.19,4.79ZM48.1,81.23c0-9.82-2.03-11.9-4.6-11.9s-4.65,2.08-4.65,11.9c0,4.94.53,7.98,1.35,9.78.87,1.84,2.03,2.42,3.29,2.42s2.42-.58,3.24-2.42c.87-1.79,1.35-4.84,1.35-9.78Z"/>
      <path class="cls-2" d="M72.74,99.42h-9.48c-1.84,0-3-1.16-3-3v-.14c0-1.11.48-2.23,1.89-3.53,7.94-7.36,13.16-13.36,13.16-18.2,0-3.29-1.79-5.08-4.69-5.08-1.31,0-2.42.43-3.48,1.16-1.65,1.45-3.39,1.5-4.98-.05-1.55-1.5-1.31-3.24.24-4.69,2.71-2.13,5.52-3.14,9.39-3.14,6.97,0,11.81,4.45,11.81,11.32,0,6.19-5.32,13.02-10.84,18.58,1.79-.24,4.26-.48,5.9-.48h2.95c2.42,0,3.63,1.21,3.63,3.63s-1.21,3.63-3.63,3.63h-8.86Z"/>
      <path class="cls-2" d="M100.18,65.21c.68-1.11,1.94-1.84,3.24-1.84h5.37c1.89,0,3.15,1.26,3.15,3.14v17.37h.73c2.18,0,3.24,1.06,3.24,3.24s-1.06,3.29-3.24,3.29h-.73v4.98c0,2.66-1.35,4.02-4.02,4.02s-4.02-1.35-4.02-4.02v-4.98h-12c-1.89,0-3.15-1.26-3.15-3.14v-1.6c0-.73.24-1.65.63-2.28l5.61-9.49,5.18-8.71ZM101.1,76.78l-4.11,7.12h6.92v-5.27c0-1.16.05-2.56.1-4.02.1-1.4.14-2.85.19-4.02h-.19c-.44,1.02-.92,2.08-1.4,3.1-.48,1.07-.97,2.08-1.5,3.1Z"/>
      <g>
        <path class="cls-2" d="M21.76,5.24c0-2,1.34-3.34,3.34-3.34h13.66c2,0,3.34,1.33,3.34,3.34v11.15c0,1.7-1.13,2.83-2.83,2.83h-.15l.41.15c.1.05.1.1.05.15-1.34,1.64-2.62,3.34-3.7,4.47l.72.67c.46-.62.92-1.18,1.34-1.7.51-.72,1.54-1.03,2.46-.56l1.9.82,1.54-1.59c.46-.46,1.08-.51,1.59-.15l.1.1,1.39-2.36h-1.23c-.56,0-.92-.36-.92-.92V5.24c0-2,1.34-3.34,3.34-3.34h14.02c2,0,3.34,1.33,3.34,3.34v35.34c0,3.34-.46,5.34-2.41,6.57-1.13.77-2.52,1.08-4.16,1.28-2.47.05-3.95-1.13-4.26-2.83-.26-1.23-.67-2.46-1.08-3.49h-4.42v3.29c0,1.59-.82,2.41-2.41,2.41s-2.47-.82-2.47-2.41v-12.28h-.15l-.21-.87-2.41.77h.56c.15,0,.26.1.26.26v4.93c0,3.44-.72,6.78-4.57,9.04-1.39.62-3.24.92-4.16-.26-1.39-1.75-.46-2.93,1.59-3.85.46-.31.82-.67,1.08-1.03h-2.77c-1.49,0-2.41-.92-2.41-2.41v-3.54c0-1.49.72-2.21,2.21-2.21s2.21.72,2.21,2.21v.46c0,1.03.51,1.54,1.54,1.54h.51v-2.77c0-1.44.92-2.36,2.36-2.36h.98l-.21-.92-8.53.82c-1.28.15-1.95-.41-2.11-1.69-.15-1.28.46-2,1.75-2.11l.72-.05,1.59-1.54c-.77-.82-1.75-1.75-2.67-2.57-.87-.72-.72-1.85,0-2.77.41-.56,1.23-.87,1.8-.46l.1.05,1.49-2.57h-6.01v26.14c0,2.31-1.18,3.49-3.49,3.49s-3.54-1.18-3.54-3.49V5.24ZM30.23,6.78c-.98,0-1.44.46-1.44,1.44v.15h6.42v-.98c0-.41-.21-.62-.62-.62h-4.37ZM28.8,12.74v1.59h4.98c.98,0,1.44-.46,1.44-1.44v-.15h-6.42ZM42.2,23.63c-.77.82-1.59,1.75-2.47,2.62-.82.87-1.69,1.7-2.57,2.52l2.11-.15-.05-.1c-.36-.67.26-1.28.98-1.49.92-.31,2.16-.15,2.62.72.26.51.51,1.03.72,1.54l1.23-.1,1.59-1.59c-.56-.67-1.23-1.34-1.95-2-.72-.72-1.49-1.39-2.21-1.95ZM58.33,29.84v-10.63h-6.99l.46.21c.15.05.15.1.05.21-1.28,1.59-2.52,3.08-3.65,4.31l.77.72c.41-.51.87-1.03,1.23-1.49.72-1.03,1.54-1.28,2.67-.77,1.54.67,1.59,1.59.41,2.77l-1.8,1.85,1.75-.46c.82-.26,1.7.1,2.11.82.56,1.13,1.08,2.36,1.44,3.49.31,1.18-.62,1.85-1.8,2.21-.77.26-1.64.1-1.85-.72v-.1l-7.96.77h2.16c1.08,0,1.8.72,1.8,1.8v3.34h2.16v-2c0-1.49.77-2.21,2.26-2.21s2.21.72,2.21,2.21v5.24h1.69c.67,0,.87-.26.87-.92v-10.63ZM49.6,28.92l1.13-.05,1.13-.1-.41-.82c-.21-.36-.46-.41-.77-.1l-.31.31-.77.77ZM53.19,6.78c-.98,0-1.44.46-1.44,1.44v.15h6.57v-.98c0-.41-.21-.62-.62-.62h-4.52ZM51.76,12.74v.98c0,.41.21.62.62.62h5.96v-1.59h-6.57Z"/>
        <path class="cls-2" d="M79.34,44.48c-1.13,2.62-2.88,3.13-5.29,1.64-2.16-1.34-2.72-2.88-1.59-5.14.67-1.39,1.34-2.88,2.05-4.42.77-1.7,1.49-3.44,2.26-5.24,1.03-2.67,2.77-3.18,5.08-1.54,1.69,1.18,2.16,2.77,1.44,4.67-.67,1.9-1.39,3.8-2.16,5.65-.62,1.44-1.18,2.93-1.8,4.37ZM80.57,16.59c1.95,1.28,2.21,2.82.87,4.72-1.54,2.26-3.39,2.57-5.6.98-.21-.1-.36-.21-.51-.31-.41-.26-.82-.46-1.28-.72-2.36-1.13-2.67-2.83-1.13-4.98,1.08-1.49,2.41-2,4.16-1.39.72.31,1.49.67,2.26,1.08.41.21.82.41,1.23.62ZM99.62,26.66c-2,0-3.34-1.34-3.34-3.34v-3.95h-3.24c-.1,7.55-.82,17.98-4.06,25.73-1.18,2.36-2.52,2.93-4.78,1.64s-2.52-2.93-1.34-5.29c2.98-7.34,3.24-16.64,3.24-23.37V4.98l-2.21,3.13c-1.18,1.75-3.03,2-4.47.87-.77-.46-1.59-.98-2.47-1.44-2.36-1.18-2.93-3.03-1.39-5.14,1.08-1.49,2.57-1.95,4.31-1.28,2.31,1.03,4.73,2.36,6.21,3.54v-.51c0-.1.05-.15.15-.15h12.99v-.26c0-2.52,1.28-3.75,3.8-3.75s3.75,1.23,3.75,3.75v.26h8.63c2.05,0,3.08,1.03,3.08,3.08s-1.03,3.08-3.08,3.08h-20.85c-1.03,0-1.54.51-1.54,1.54v1.9h3.24v-.1c0-1.75,1.49-2.67,3.24-2.67s3.18.92,3.18,2.67v.1h5.08v-.1c0-1.75,1.64-2.67,3.39-2.67s3.39.92,3.39,2.67v.1h1.18c1.9,0,2.88.98,2.88,2.88s-.98,2.88-2.88,2.88h-1.18v3.95c0,2-1.34,3.34-3.34,3.34h-11.61ZM114.16,28.09c2.31,0,3.34,1.44,2.36,4.42-1.44,3.49-3.34,5.91-5.6,7.91,1.03.41,2.16.77,3.34,1.08,3.54.72,4.83,2.11,2.72,5.03-1.23,1.75-2.88,2-4.93,1.54-2.83-.82-5.34-1.9-7.6-3.24-2.36,1.23-4.93,2.21-7.7,3.03-2,.51-3.49.21-4.52-1.59-1.54-2.67-.46-3.96,2.57-4.62,1.33-.41,2.62-.82,3.85-1.33-.72-.82-1.44-1.7-2.11-2.57-1.08-1.59-.62-2.93,1.13-3.44l1.59-.46h-2.98c-1.9,0-2.88-.98-2.88-2.88s.98-2.88,2.88-2.88h17.87ZM104.66,37.03c.67-.51,1.28-.98,1.85-1.54.62-.51,1.08-1.08,1.59-1.64h-6.52c.46.57.92,1.13,1.39,1.64.51.51,1.08,1.03,1.7,1.54ZM102.71,19.36v1.03c0,.51.21.72.72.72h3.29c.72,0,1.08-.36,1.08-1.08v-.67h-5.08Z"/>
        <path class="cls-2" d="M165.73,38.78c3.18,1.9,4.62,4.11,2.16,6.88-1.85,2.05-4.21,1.69-6.57.26-8.22-5.65-12.84-13.87-15.46-21.62-2.47,7.4-6.68,15.1-14.02,21.21-2.31,1.69-4.62,2.31-6.73.31-2.67-2.57-1.18-5.03,1.85-7.19,6.52-5.55,9.96-12.38,11.76-18.8,1.8-6.27,2.11-12.17,2.21-16.02.1-2.72,2.11-2.72,4.83-2.72,2.16,0,3.75,1.13,3.65,3.29v.1c.21,3.7.92,10.84,3.96,18.13,2.41,5.8,6.21,11.71,12.38,16.18Z"/>
        <path class="cls-2" d="M193.77,7.86V3.85c0-2.52,1.28-3.8,3.8-3.8s3.8,1.28,3.8,3.8v4.01h16.13c2.41,0,3.65,1.23,3.65,3.65s-1.23,3.65-3.65,3.65h-3.49c-2.62,7.14-6.11,13.1-10.48,18.08,3.49,2.62,7.6,4.73,12.28,6.37,4.01,1.13,5.6,3.03,3.18,6.42-1.49,2.11-3.65,2.41-6.16,1.64-6.16-2.05-11.3-4.88-15.61-8.47-4.47,3.54-9.6,6.37-15.46,8.53-2.47.82-4.47.51-5.91-1.69-2-3.08-.57-4.93,2.98-5.96,4.83-1.7,9.09-3.85,12.74-6.52-4.21-5.08-7.45-11.25-10.17-18.39h-3.49c-2.41,0-3.65-1.23-3.65-3.65s1.23-3.65,3.65-3.65h15.87ZM197.67,27.99c3.13-3.59,5.7-7.86,7.55-12.84h-15.51c.98,2.41,2.11,4.67,3.44,6.83,1.33,2.11,2.82,4.11,4.52,6.01Z"/>
      </g>
      <g>
        <path class="cls-2" d="M167.83,94.16c1.33,0,2,.67,2,2s-.67,2.05-2,2.05h-6.32c1.44.82,2.83,1.75,4.06,2.67,1.85,1.49,1.54,2.57-.46,3.8-1.44.87-2.67.82-3.9-.31-.31-.26-.57-.46-.87-.67-10.94.77-22.45,1.39-30.97,1.85-1.54.1-2-.62-2.21-2.11-.26-1.7.51-2.62,2.26-2.67l4.06-.1c.46-.72.87-1.59,1.34-2.46h-8.94c-1.33,0-2-.72-2-2.05s.67-2,2-2h41.96ZM126.28,88.82c-1.33.05-1.85-.57-1.9-1.9-.05-1.34.57-2.05,1.9-2.11l6.47-.21v-1.23h-3.24c-1.75,0-2.88-1.13-2.88-2.88v-.46l-.72.15c-.26.05-.46-.1-.57-.26-.21-.46-.51-1.03-.87-1.54-.72-.82-.46-1.49,1.34-1.75,1.64-.36,2.62-.82,3.18-1.54h-2.62c-1.18,0-1.8-.62-1.8-1.8s.62-1.8,1.8-1.8h6.32v-.72c0-.26-.1-.36-.36-.36h-3.8c-1.13,0-1.69-.62-1.69-1.75s.56-1.69,1.69-1.69h4.16v-.1c0-.62,2.47-.98,3.08-.98s3.03.36,3.03.98v.1h4.21c1.13,0,1.69.56,1.69,1.69s-.56,1.75-1.69,1.75h-3.29c-.62,0-.92.31-.92.92v.15h6.47c1.18,0,1.8.62,1.8,1.8s-.62,1.8-1.8,1.8h-4.31v.15c0,.92.1,1.03.62,1.03h1.49c.51-.72,1.75-.77,2.57-.51.67.21,1.44.87,1.28,1.59-.05.05-.05.1-.05.1l2.41-3.18h-.1c-.92,0-1.39-.87-1.39-1.8,0-1.7.87-3.34,2.57-3.34h2.26v-.26c0-1.8.92-2.67,2.72-2.67s2.67.87,2.67,2.67v.26h4.16c2,0,3.34,1.34,3.34,3.34v8.78c0,.87,0,1.33.05,1.49.05.21.15.26.31.26h.36c.15,0,.31-.05.41-.15s.21-.36.26-.87v-.05c.15-2.11.87-2.88,2.72-1.9,1.03.57,1.34,1.64,1.23,2.83-.1,1.13-.31,2.11-.51,2.62-.31.87-.77,1.49-1.54,1.9-.62.41-1.64.57-2.47.57h-2.11c-1.23,0-2.52-.36-3.34-1.23-.77-.82-1.08-1.8-1.13-4.47l-1.03,1.44c-.51.72-1.28.82-1.85.36-.51-.36-1.03-.77-1.64-1.13-.77,1.39-1.8,2.72-3.13,3.95-1.75,1.34-3.6,1.23-4.88-.05-.15-.1-.26-.21-.36-.31v.72c0,.26-.15.41-.41.46-3.85.21-7.86.46-11.56.67-3.13.15-6.01.31-8.63.46ZM167.36,59.44c1.7,0,2.57.87,2.57,2.57s-.87,2.57-2.57,2.57h-8.47v.1c0,.72-2.93,1.08-3.65,1.08s-3.65-.36-3.65-1.08v-.1h-9.5v.1c0,.72-2.88,1.08-3.6,1.08s-3.59-.36-3.59-1.08v-.1h-8.22c-1.7,0-2.57-.87-2.57-2.57s.87-2.57,2.57-2.57h6.68c1.03,0,1.54-.51,1.54-1.54v-.1c0-.51,2.31-.82,2.83-.82.82,0,4.37.46,4.37,1.28v.1c0,.72.36,1.08,1.08,1.08h6.88c1.03,0,1.54-.51,1.54-1.54v-.1c0-.51,2.31-.82,2.83-.82.82,0,4.47.46,4.47,1.28v.1c0,.72.36,1.08,1.08,1.08h7.4ZM127.05,79.93h5.7v-1.39c0-.67.41-1.08,1.08-1.08h3.24c-.21-.57-.26-1.28-.26-2.21v-.15h-3.18c-.36,1.18-1.03,2.16-2.05,2.93-.51.41-1.13.77-1.85,1.08-.77.31-1.64.56-2.67.82ZM161.97,89.02c1.33,0,2,.67,2,2s-.67,2.05-2,2.05h-29.69c-1.34,0-2-.72-2-2.05s.67-2,2-2h29.69ZM146.41,78.24c-.57.77-1.49,1.03-2.77,1.03h-2.72c-.87,0-1.54-.05-2.05-.21v.87h4.42c1.13,0,1.69.57,1.69,1.7s-.56,1.75-1.69,1.75h-3.6c-.56,0-.82.26-.82.82v.15l7.86-.31c.82-.67,1.49-1.28,2.11-1.95s1.08-1.39,1.49-2.05c-.62-.36-1.28-.67-1.95-.98-.67-.31-1.28-.56-1.95-.82ZM154.58,99.86l-1.08-.57c-.51-.26-.51-.57,0-.87l.41-.21h-12.02l-1.8,2.21,7.24-.26,7.24-.31ZM152.21,75.36l.21-1.08h-2.82l1.28.56,1.33.51ZM159.76,79.37v-3.54c0-1.03-.51-1.54-1.54-1.54h-.31c-.05.56-.1,1.18-.21,1.8-.1.56-.26,1.18-.41,1.8.46.26.92.51,1.33.77s.77.46,1.13.72Z"/>
        <path class="cls-2" d="M201.11,102.48c0,2.21-1.13,3.34-3.34,3.34s-3.39-1.13-3.39-3.34v-28.71h-4.93c-.57,0-.87-.31-.87-.87v-.15c-.72,1.49-1.49,2.93-2.36,4.37v19.57c1.8-3.03,2.11-6.99,2.11-10.79v-6.06c0-1.59.87-2.41,2.46-2.41s2.41.82,2.41,2.41v6.16c0,3.75-.21,7.55-1.23,10.84-.92,2-2.72,2.36-4.57.77-.41-.31-.82-.56-1.18-.77v5.65c0,2.21-1.13,3.34-3.34,3.34s-3.39-1.13-3.39-3.34v-15.97c0,.05-.05.05-.05.1-1.49,1.49-2.98.92-4.01-.92-1.23-2.21-1.39-4.52.41-6.27,2.21-2.41,4.26-5.34,5.86-8.37.87-1.75,2.57-2.46,4.42-1.85l2.47.87v-1.64c0-.82.51-1.33,1.33-1.33h4.47v-6.73c0-2.21,1.18-3.34,3.39-3.34s3.34,1.13,3.34,3.34v6.73h3.39c2.21,0,3.34,1.13,3.34,3.34s-1.13,3.34-3.34,3.34h-3.39v28.71ZM180.46,59.65c1.18-1.85,2.57-2.26,4.62-1.49,2.47.92,2.98,2.36,1.49,4.57-.92,1.23-1.95,2.52-2.98,3.7-1.08,1.23-2.26,2.41-3.39,3.49-1.85,1.59-3.29,1.44-4.62-.56-1.28-1.9-.98-3.44.72-4.93.77-.72,1.54-1.49,2.21-2.31.72-.82,1.39-1.64,1.95-2.46ZM202.19,79.88c0-1.59.87-2.41,2.47-2.41s2.41.82,2.41,2.41v11.04c0,.77,0,1.23.05,1.39.05.21.15.26.31.26h.26c.15,0,.26-.05.36-.21s.15-.51.26-1.28c0-.36.05-.87.05-1.59.05-1.75.62-2.83,2.16-2,.82.46,1.13,1.34,1.08,2.31-.1,1.75-.26,3.49-.46,4.21-.21.98-.62,1.69-1.23,2.16-.51.46-1.39.67-2.16.67h-1.8c-1.03,0-2.11-.36-2.77-1.13-.72-.82-.98-1.8-.98-4.98v-10.84ZM208.56,62.47c.51,1.54.05,2.52-1.44,3.18-1.9.82-3.03.26-3.65-1.69-.1-.26-.15-.51-.26-.77-.21-.51-.41-1.03-.62-1.49-.67-1.59-.15-2.77,1.49-3.39,1.44-.56,2.57-.21,3.24,1.18.26.56.51,1.13.72,1.69.21.41.36.87.51,1.28ZM219.19,98.27c0,3.13-.41,5.08-2.26,6.21-.92.62-2.05.92-3.29,1.08-2.31.1-4.16-1.03-4.72-3.24-.57-2.31.31-3.54,2.67-3.49h.05c.57,0,.72-.15.72-.67v-17.51h-.62c-2.21,0-3.29-1.13-3.29-3.34s1.08-3.29,3.29-3.29h7.4c2.21,0,3.29,1.18,3.29,3.39,0,2.05-1.08,3.24-3.13,3.24h-.1v17.62ZM218.16,59.7c2.16,0,3.24,1.08,3.24,3.24s-1.08,3.29-3.24,3.29h-5.44c-2.16,0-3.24-1.13-3.24-3.29s1.08-3.24,3.24-3.24h5.44Z"/>
        <path class="cls-2" d="M271.47,90.57c0,2.93-.46,4.62-2.26,5.65-.98.57-2.11.87-3.49.98-2.31.1-3.8-1.08-4.16-2.88-.31-1.03-.67-2.05-1.03-2.82h-7.96c-2,0-3.34-1.34-3.34-3.34v-5.14c0-2,1.34-3.34,3.34-3.34h7.04c2,0,3.34,1.34,3.34,3.34v8.27l.98-.05c.56,0,.77-.21.77-.77v-24.76c0-1.03-.51-1.54-1.54-1.54h-13.61c-1.03,0-1.54.51-1.54,1.54v5.8c0,6.42-.51,15.2-3.34,21.88-.98,1.85-2.82,2.31-4.57,1.08-.62-.36-1.23-.72-1.8-1.03,1.95,3.18,5.39,4.52,10.38,4.73,5.03.26,13.66.21,20.65-.21,3.29-.21,4.37.87,3.39,4.06-.62,2.05-1.59,2.83-3.75,2.93-6.42.21-14.89.26-20.34.05-6.06-.26-10.12-1.59-13.35-5.55-.98.92-1.95,1.8-2.98,2.72-2.41,2.05-4.37,2-5.7-.87-1.03-2.31-.51-3.9,1.64-5.24,1.03-.62,2.05-1.34,3.03-2.05v-5.55c0-1.03-.51-1.54-1.54-1.54h-.36c-2.26,0-3.39-1.18-3.39-3.44s1.13-3.39,3.39-3.39h5.6c2,0,3.34,1.33,3.34,3.34v7.34c2.82-5.91,3.08-13.56,3.08-19.26v-9.96c0-2,1.34-3.34,3.34-3.34h23.42c2,0,3.34,1.33,3.34,3.34v29.02ZM236.34,71.2c1.7,1.54,1.7,3.03.05,4.62-1.8,1.75-3.44,1.85-5.24.1-.26-.21-.51-.46-.82-.67-.41-.36-.82-.67-1.28-.98-2.05-1.44-2.05-3.08-.26-4.83,1.28-1.23,2.67-1.49,4.21-.57.72.46,1.44.92,2.16,1.44.41.31.82.57,1.18.87ZM238.14,61.14c1.64,1.54,1.64,3.03-.05,4.57-1.85,1.75-3.59,1.75-5.34-.1-.21-.21-.46-.41-.72-.62-.36-.36-.77-.67-1.18-1.03-2-1.54-1.95-3.13-.1-4.83,1.34-1.18,2.72-1.39,4.21-.46.72.51,1.44,1.03,2.11,1.59.36.31.72.56,1.08.87ZM256.32,78.39h-4.98c-1.59,0-2.36-.82-2.36-2.41s.77-2.36,2.36-2.36h1.8v-1.13c0-.51-.26-.77-.77-.77h-1.03c-1.59,0-2.36-.77-2.36-2.36s.77-2.36,2.36-2.36h1.8v-.1c0-1.49,1.44-2.26,2.93-2.26s2.93.77,2.93,2.26v.1h2.31c1.59,0,2.36.77,2.36,2.36s-.77,2.36-2.36,2.36h-.77c-1.03,0-1.54.51-1.54,1.54v.36h2.31c1.59,0,2.36.77,2.36,2.36s-.77,2.41-2.36,2.41h-4.98ZM257.45,86.71v-1.34c0-.67-.31-.98-.98-.98h-1.28c-.36,0-.51.15-.51.51v.82c0,.67.31.98.98.98h1.8Z"/>
      </g>
      <text class="cls-1" transform="translate(8.12 1.08)"><tspan x="0" y="0">第三屆</tspan></text>
    </g>
  </g>
</svg>