<?xml version="1.0" encoding="UTF-8"?>
<svg id="_圖層_2" data-name="圖層_2" xmlns="http://www.w3.org/2000/svg" viewBox="0 0 466.16 254.94">
  <defs>
    <style>
      .cls-1 {
        fill: #b1c893;
      }

      .cls-2 {
        fill: #d6debd;
      }

      .cls-3 {
        fill: #b9cfb2;
      }

      .cls-4 {
        fill: #c9c9b0;
      }

      .cls-5 {
        fill: #bcccb9;
      }

      .cls-6 {
        fill: #928a7a;
      }

      .cls-7 {
        fill: #a4c0be;
      }

      .cls-8 {
        fill: #99b2ac;
      }

      .cls-9 {
        fill: #bcd5d0;
      }

      .cls-10 {
        fill: #bbcfb8;
      }

      .cls-11 {
        fill: #7f715e;
      }

      .cls-12 {
        fill: #99b0a5;
      }

      .cls-13 {
        fill: #d8ead3;
      }

      .cls-14 {
        fill: #bfc7a2;
      }

      .cls-15 {
        fill: #b9ccc6;
      }

      .cls-16 {
        fill: #a8bdb6;
      }

      .cls-17 {
        fill: #95aea8;
      }

      .cls-18 {
        fill: #879e95;
      }

      .cls-19 {
        fill: #7d795d;
      }

      .cls-20 {
        fill: #8eaba6;
      }

      .cls-21 {
        fill: #97b3a9;
      }

      .cls-22 {
        fill: #9d9283;
      }

      .cls-23 {
        fill: #8ca18b;
      }

      .cls-24 {
        fill: #abc1be;
      }

      .cls-25 {
        fill: #8ea397;
      }

      .cls-26 {
        fill: #a3b8b2;
      }

      .cls-27 {
        fill: #9fae96;
      }

      .cls-28 {
        fill: #9c8569;
      }

      .cls-29 {
        fill: #8c8275;
      }

      .cls-30 {
        fill: #9aa195;
      }

      .cls-31 {
        fill: #c3cfab;
      }

      .cls-32 {
        fill: #baccb9;
      }

      .cls-33 {
        fill: #93a898;
      }

      .cls-34 {
        fill: #aba587;
      }

      .cls-35 {
        fill: #9cb4aa;
      }

      .cls-36 {
        fill: #95a89d;
      }

      .cls-37 {
        fill: #acc8c8;
      }

      .cls-38 {
        fill: #c7dccb;
      }

      .cls-39 {
        fill: #b8b39a;
      }

      .cls-40 {
        fill: #92a69b;
      }

      .cls-41 {
        fill: #b0c7c4;
      }

      .cls-42 {
        fill: #becda3;
      }

      .cls-43 {
        fill: #bdd2c7;
      }

      .cls-44 {
        fill: #a3b5a5;
      }

      .cls-45 {
        fill: #c4c4a6;
      }

      .cls-46 {
        fill: #a29287;
      }

      .cls-47 {
        fill: #cbcab3;
      }

      .cls-48 {
        fill: #b3c1be;
      }

      .cls-49 {
        fill: #bacfc8;
      }

      .cls-50 {
        fill: #bacbb6;
      }

      .cls-51 {
        fill: #91a68f;
      }

      .cls-52 {
        fill: #a2b7ae;
      }

      .cls-53 {
        fill: #a1bab5;
      }

      .cls-54 {
        fill: #849b93;
      }

      .cls-55 {
        fill: #807567;
      }

      .cls-56 {
        fill: #9cb3b0;
      }

      .cls-57 {
        fill: #868f7e;
      }

      .cls-58 {
        fill: #8ea8a1;
      }

      .cls-59 {
        fill: #adc5be;
      }

      .cls-60 {
        fill: #9db3b0;
      }

      .cls-61 {
        fill: #c3dede;
      }

      .cls-62 {
        fill: #b9c8be;
      }

      .cls-63 {
        fill: #abbeb3;
      }

      .cls-64 {
        fill: #bdd2be;
      }

      .cls-65 {
        fill: #afbea3;
      }

      .cls-66 {
        fill: #b4b38b;
      }

      .cls-67 {
        fill: #748773;
      }

      .cls-68 {
        fill: #93aba4;
      }

      .cls-69 {
        fill: #8b9e89;
      }

      .cls-70 {
        fill: #b4ae8e;
      }

      .cls-71 {
        fill: #b7bcad;
      }

      .cls-72 {
        fill: #b9ccc7;
      }

      .cls-73 {
        fill: #b7c7bd;
      }

      .cls-74 {
        fill: #a1bab3;
      }

      .cls-75 {
        fill: #adc3c0;
      }

      .cls-76 {
        fill: #bec0a6;
      }

      .cls-77 {
        fill: #acb8a2;
      }

      .cls-78 {
        fill: #a8aa85;
      }

      .cls-79 {
        fill: #a79f82;
      }

      .cls-80 {
        fill: #aecac5;
      }

      .cls-81 {
        fill: #a0ae94;
      }

      .cls-82 {
        fill: #bbcdbb;
      }

      .cls-83 {
        fill: #91aba6;
      }

      .cls-84 {
        fill: #a5ab8c;
      }

      .cls-85 {
        fill: #c5cfae;
      }

      .cls-86 {
        fill: #9c9382;
      }

      .cls-87 {
        fill: #9aae9d;
      }

      .cls-88 {
        fill: #b8d7d5;
      }

      .cls-89 {
        fill: #a4bbb3;
      }

      .cls-90 {
        fill: #bacdb9;
      }

      .cls-91 {
        fill: #a4bbb7;
      }

      .cls-92 {
        fill: #cbe7dd;
      }

      .cls-93 {
        fill: #93a99c;
      }

      .cls-94 {
        fill: #8c9685;
      }

      .cls-95 {
        fill: #c7bfaf;
      }

      .cls-96 {
        fill: #6c5d4e;
      }

      .cls-97 {
        fill: #857d6a;
      }

      .cls-98 {
        fill: #acc8c3;
      }

      .cls-99 {
        fill: #a6b5a8;
      }

      .cls-100 {
        fill: #becfbb;
      }

      .cls-101 {
        fill: #b4c3ad;
      }

      .cls-102 {
        fill: #b2cfcc;
      }

      .cls-103 {
        fill: #a1b1a3;
      }

      .cls-104 {
        fill: #b3c2bf;
      }

      .cls-105 {
        fill: #abbfb6;
      }

      .cls-106 {
        fill: #e4ebb9;
      }

      .cls-107 {
        fill: #aba885;
      }

      .cls-108 {
        fill: #b9c9bb;
      }

      .cls-109 {
        fill: #526853;
      }

      .cls-110 {
        fill: #b1b89f;
      }

      .cls-111 {
        fill: #a6b9ae;
      }

      .cls-112 {
        fill: #c2dbda;
      }

      .cls-113 {
        fill: #b4c3b2;
      }

      .cls-114 {
        fill: #a3b396;
      }

      .cls-115 {
        fill: #a9bcb1;
      }

      .cls-116 {
        fill: #97a88b;
      }
    </style>
  </defs>
  <g id="_圖層_1-2" data-name="圖層_1">
    <g>
      <g>
        <path class="cls-22" d="M127.23,152.63l7.59,2.89c.85.33,1.79.38,2.69.15,30.34.54,76.27-5.78,76.75-5.84l-.38-2.71c-.48.07-48.5,6.67-78.53,5.76l-8.11-.24Z"/>
        <path class="cls-71" d="M135.09,152.92l-.18,1.63c1.75.2,4.92-1.25,8.02-2.75.27-.13.51-.23.7-.34l.24-.11c2.58-1.22,5.01-2.38,7.21-4.34,2.16-1.93,4.36-4.03,5.84-6.28.44-.63.85-1.29,1.26-1.92.46-.72.91-1.43,1.39-2.13.33-.51.64-1.13.98-1.81.48-.97,1.02-2.06,1.55-2.49l-1.01-1.29c-.84.65-1.44,1.88-2.02,3.06-.3.62-.6,1.2-.87,1.62-.48.7-.94,1.43-1.4,2.15-.41.64-.82,1.27-1.25,1.91-1.39,2.09-3.5,4.09-5.59,5.95-2.01,1.81-4.33,2.93-6.8,4.09l-.23.11c-.21.1-.45.22-.73.34-1.85.9-5.7,2.76-7.12,2.6Z"/>
        <path class="cls-34" d="M160.36,153.98l-.47,1.57c4.94,1.45,8.77,8.97,10.16,13.66.69,2.36.94,5.2,1.19,7.72l.09.98c.11,1.18,0,2.46-.13,3.8-.18,2.05-.37,4.16.26,6.12l1.56-.51c-.53-1.64-.37-3.5-.19-5.46.12-1.37.24-2.77.12-4.12l-.1-.98c-.24-2.57-.5-5.51-1.24-8.02-1.27-4.33-5.28-13-11.26-14.77Z"/>
        <path class="cls-28" d="M211.88,148.78c.57.9,1.67,1.36,2.81,1.85,1.11.47,2.25.94,2.82,1.8,1.05,1.56,1.84,3.7,2.55,5.59l.22.57c.86,2.31,1.23,4.83,1.58,7.26.36,2.57.74,5.23,1.72,7.74l1.53-.59c-.91-2.33-1.25-4.79-1.63-7.37-.36-2.52-.73-5.13-1.66-7.61l-.21-.56c-.71-1.89-1.58-4.21-2.73-5.94-.85-1.27-2.28-1.87-3.53-2.4-.91-.38-1.77-.74-2.07-1.22l-1.38.89Z"/>
        <path class="cls-78" d="M246.23,139.17c.08,1.23,1.29,2.91,2.45,4.55.59.82,1.14,1.59,1.42,2.14,1.24,2.42,1.99,4.97,2.54,7.17.57,2.2,1.2,5.08,1.02,7.88-.07,1.11-.28,2.19-.51,3.33-.34,1.71-.7,3.48-.53,5.36l1.64-.14c-.14-1.66.17-3.24.51-4.9.22-1.15.46-2.33.54-3.56.2-3.02-.47-6.08-1.07-8.39-.58-2.28-1.36-4.96-2.67-7.52-.33-.65-.93-1.47-1.56-2.35-.88-1.23-2.09-2.94-2.14-3.69l-1.64.1Z"/>
        <path class="cls-46" d="M265.66,75.65c.09,2.05.3,4.67,1.12,6.66.28.67.68,1.26,1.08,1.83.53.78,1.02,1.51,1.08,2.27l.03.36.28.22c4.49,3.51,8.04,10.88,10.4,15.75,1.36,2.84,2.25,5.6,2.61,8.2.07.45.15.93.24,1.41.18.97.36,1.97.34,2.84-.04,1.14-.49,2.01-.99,3.01-.3.57-.6,1.18-.84,1.86l1.54.56c.21-.59.48-1.11.76-1.67.55-1.07,1.12-2.2,1.17-3.69.04-1.04-.16-2.14-.35-3.2-.09-.46-.18-.9-.24-1.34-.38-2.77-1.3-5.7-2.75-8.7-2.38-4.93-5.95-12.32-10.61-16.13-.19-1.03-.77-1.86-1.33-2.68-.36-.54-.7-1.04-.92-1.55-.74-1.77-.92-4.33-.99-6.09l-1.65.07Z"/>
        <path class="cls-107" d="M306.04,111.9c3.89,1.41,7.5,4.06,10.98,6.63,1.79,1.31,3.64,2.66,5.49,3.82,2.27,1.42,4.49,3.18,7.21,5.72.77.73,1.71,1.41,2.61,2.07,1.57,1.15,3.19,2.33,4.04,3.72l1.4-.86c-1.02-1.66-2.77-2.94-4.47-4.18-.9-.68-1.77-1.3-2.46-1.95-1.89-1.75-4.44-4.02-7.46-5.91-1.8-1.14-3.62-2.47-5.39-3.76-3.31-2.43-6.72-4.93-10.47-6.49l.02-.02-.96-.34-.55,1.55Z"/>
        <path class="cls-81" d="M153.31,138.87c16.85-6.5,28.11-20.85,41.4-32.47,5.45-4.76,13.13-10.71,13.45-18.65.33-8-7.71-12.97-14.75-14.04-9.45-1.42-16.26,3.65-22.23,10.3-2.02-1.86-7.01-1.1-9.56-.61-3.04.59-6.22,3.05-8.27,5.28-5.03,5.47-9.78,9.74-13.26,16.53-2.48,4.83-4.2,10.85-3.5,16.24l16.71,17.41Z"/>
        <path class="cls-114" d="M157.82,138.12c-7.88,3.15-22.77,7.27-29.92.5-8.41-7.99.91-21.52,5.69-28.7,3.54-5.33,13.15-14.88,17.96-19.1-1.25,4.39-9.61,13.33-10.16,17.9-.42,3.69-.25,8.9.9,12.38,2.73,8.24,7.53,12.91,15.3,16.58l.23.45Z"/>
        <path class="cls-41" d="M183.34,253.23c-1.61,2.16-7.21,1.39-9.41.98-2.86-.55-5.75-2.84-7.63-4.95-7.55,2.55-13.03,1.33-19.23-3.68-5.45-4.42-11.82-9.94-14.11-16.77-2.34-7.01-1.81-16.94,1.44-23.53,3.78-7.66,13.19-10.93,21.43-10.97,18.82-.1,26.05,22.98,31.62,37.18l-4.11,21.74Z"/>
        <path class="cls-75" d="M172.94,237.63c-.97-5.49-.22-11.76-2.03-17.02-1.43-4.18-4.18-7.92-5.93-11.96-.63-1.45-1.34-4.48-3.26-4.69-1.62-.19-2.61,2.19-4.32,1.6-1.99-.68-2.28-5.02-3.52-6.51-1.73-2.1-3.57-1.45-5.8-.48-4.58,1.96-8.78,4.76-13.51,6.37.98-5.31,8.4-10.4,13.11-12.26,6.28-2.47,14.94-1.37,21.37-.36,7.49,1.18,10.57,6.63,13.09,13.39l-9.21,31.93Z"/>
        <path class="cls-63" d="M177.57,203.33c-1.15,3.37-1.34,7-2.27,10.41-.58,2.06-2.12,4.93-2.05,7.06-.96-5.45-1.46-10.65-1.56-16.16-.08-3.77-.49-5.87-4.62-5.85-1.34,0-3.06-.3-4.34,0-1.77.43-2.66,2.22-4.54,1.04-1.58-1.01-1.74-3.44-3.45-4.49-1.24-.77-3.42-1.33-4.88-1.32-3.69,0-6.63,2.38-9.96,3.46,3.67-1.11,6.23-4.15,9.78-5.11,3.45-.94,6.09-2.06,9.5-2.7,2.71-.52,5.41-1.03,8.14-1.4,1.54-.2,3.23-.32,4.77-.22,1.88.1,3.54.97,5.44.99l.04,14.3Z"/>
        <path class="cls-77" d="M175.78,190.73c-3.38,2.55-6.13,2.88-10.24,1.82-3.99-1.03-7.62-1.94-11.8-1.37,3.31-.19,6.71-2.19,9.86-3.24,3.42-1.16,6.44-1.78,8.6-4.64l3.58,7.43Z"/>
        <path class="cls-52" d="M176,191.2c-1.43,9.32-.93,18.93-3.06,28.13-2.39,10.3-4.82,21.08,6.39,27.29,10.66,5.9,22.08.53,30.42-6.7,7.73-6.7,11.32-15.11,5.67-24.64-6.62-11.15-19.97-16.29-30.67-22.59l-8.75-1.5Z"/>
        <path class="cls-105" d="M177.34,253.84c-3.66.83-9.2-3.66-9.8-7.15-.37-2.13.65-4.28,1.16-6.28.52-2.04.97-4.37,2.37-6.02,1.06,3.33,4.63,4.54,7.45,5.98,3.52,1.8,6.28,2.32,9.7.37,2.67-1.52,6.17-5.27,9.14-5.68,3.27-.46,6.3-.04,9.67-.89,4.69-1.16,8.13-2.9,12.26-5.36-2.22,4-5.84,7.36-8.83,10.9-1.48,1.74-2.78,3.65-4.5,5.16-1.69,1.48-3.83,1.87-5.59,2.69l-23.03,6.26Z"/>
        <path class="cls-33" d="M216.52,230.04c-3.87,1.07-6.35-8.85-7.02-11.39-1.05-3.92-2.91-7.53-4.25-11.28-1.03-2.92-2.1-5.94-3.41-8.74-1.3-2.71-6.92-5.76-8.8-7.83,2.51.95,8.06,3.13,10.09,4.91,1.75,1.52,3.58,3.1,5.3,4.7,6.14,5.72,8.05,11.28,9.27,19.61l-1.17,10.02Z"/>
        <path class="cls-43" d="M168.83,251.64c3.53,1.08,7.06,3.15,10.8,3.28,3.78.14,7.91-.81,11.54-1.78,6.69-1.8,14.48-3.63,18.55-9.82,2.35-3.57,3.36-8.03,5.23-11.86.6,2.36-6.03,6.68-8.14,7.57-1.66.72-3.05.52-4.76.78-2.06.31-2.97,1.26-4.48,2.56-5.05,4.33-11.61,6.57-18.2,6.78-2.71.08-8.31.33-10.29,1.81l-.24.68Z"/>
        <path class="cls-67" d="M214.66,205.45c-2.89-1.57-5.48-3.67-7.73-6.17,3.86-3.35,6.97-7.05,9.72-11.34,2.37-3.69,4.03-9.61,8.34-11.4,4.37-1.81,8.99-2.72,13.34-4.75,4.71-2.2,9.09-5.06,14.48-4.83,2.14.08,5.78.04,7.23,1.91,2.72,3.49-1.31,11.83-2.41,15.26l-42.96,21.32Z"/>
        <path class="cls-109" d="M213.93,208.67c-2.05-2.93-4.12-8.71-8.19-9.41,2.83.36,5.64,1.02,8.47,1.73,3.87-5.94,8.2-11.24,12.61-16.75,3.45-4.33,9.57-9.58,15.37-10.11,7.4-.69,7.13,8.95,8.57,14.17l-36.83,20.37Z"/>
        <path class="cls-57" d="M276.53,184.16c.05-4.26-3.78-10.69-7.48-12.69-2.63-1.43-5.06-3.21-8.11-3.79-1.44-.28-7.21-1.76-7.48-.46l23.07,16.94Z"/>
        <path class="cls-23" d="M214.1,230.36c7.83,9.63,15.16,26.49,30.2,19.03,3.08-1.53,5.72-2.28,9.18-2.23,4.41.09,6.84-1.16,9.14-5.16,4.72-8.18,6.42-18.63,7.54-27.86,1.07-8.66,1.24-17.53-.48-26.13-.92-4.61-2-9.77-4.06-14.04-1.91-3.97-5.3-5.58-9.34-6.85-.11.17-.22.34-.32.52-.31-.19-.96-.17-1.31-.34-.69.82-.48.5-1.39.7-.7,1.1-2.35,2.15-3.32,2.94-1.35,1.12-2.48,2.24-3.71,3.47-3.34,3.34-7.66,5.28-10.69,8.79-3.42,3.94-6.77,7.95-9.72,12.24-2.79,4.08-4.3,8.71-6.14,13.3l-5.59,21.61Z"/>
        <path class="cls-51" d="M224.1,207.2c2.94-9.31,8.31-18.66,16.11-24.76,2.89-2.26,5.8-3.95,8.08-6.96,2.06-2.71,5.17-5.62,6.19-8.93-.63,2.61-7.17,3.54-9.25,4.44-3.16,1.35-6.27,3.89-8.94,6.06-5.73,4.66-11.19,9.87-15.33,15.88-3.26,4.78-3.42,9.13-2.86,14.87l6-.61Z"/>
        <path class="cls-69" d="M254.61,168.4c-1.72,15.01-.91,29.74-1.54,44.78-.3,7.47-1.46,14.92-1.54,22.42-.03,3.59-.19,10.91,4.67,11.63,4.71.7,9.14-5.23,11.28-8.58,3.26-5.15,4.96-10.99,6.14-16.92,2.03-10.09,6.63-21.69,5.32-32.04-1.63-12.77-13.28-18.96-23.96-23.48l-.38,2.19Z"/>
        <path class="cls-20" d="M299.51,63.36c3.23-5.1,5.38-10.77,4.92-16.89-.49-6.24-.58-13.48-4.96-18.34-4.33-4.83-9.79-9.06-15.26-12.5-4.83-3.05-11.86-6.66-17.51-3.57-5.1,2.8-6.02,9.64-6.78,14.81-1.42,9.64-2.71,19.52-2.77,29.27-.07,7.75.93,19.27,10.9,19.76,6.01.29,12.01-2.54,17.51-4.67l13.94-7.89Z"/>
        <path class="cls-56" d="M270.48,86.85c3.87-6.38,11.3-8.11,17.15-11.99,3.45-2.3,6.83-4.11,9.45-7.42,2.24-2.83,4.57-5.91,5.19-9.56.52-3.15,1.09-7.96-1.72-10.14.06,2.09-1.59,4.29-2.38,6.1-1.03,2.34-2.26,4.56-3.78,6.6-1.29,1.72-2.27,3.81-3.83,5.33-1.03.99-2.22,1.83-3.42,2.64-.63.42-2.65,2.14-3.5,1.77.69-2.5,1.12-5.02,1.83-7.54.55-1.94,1.16-3.91,1.64-5.87-.4-.17-1.83-.05-2.29.11.15-1.12-.26-1.62.14-2.77.36-1.03.7-2.07,1.09-3.09-.95,1.29-11.12,11.26-12.5,8.37-.67-1.43.64-4.26,1.24-5.51.96-2.02,2.84-3.89,3.15-6.17-1.12.74-2.37,1.97-3.3,2.95-.9.96-1.93,1.73-2.84,2.66-1.95,2.05-3.12,4.74-4.21,7.3-1.41,3.31-3.56,6.52-4.13,10.11-.28,1.79-1.22,7.82.53,8.64l6.47,7.48Z"/>
        <path class="cls-58" d="M299.85,29.71c.87.4,1.26,3.96,1.42,4.94.28,1.62.22,3.38.57,4.94-.89-3.87-3.77-7.25-6.21-10.28-2.2-2.74-4.98-5.43-7.82-7.51-2.74-2.01-6.49-3.45-9.73-4.44-2.58-.78-6.1-.71-8.67.09-3.06.95-6.83,3.74-8.36,6.62-1.72-5.41,1.56-11.26,6.72-12.99,5.1-1.7,10.11-1.77,14.92.96,2.98,1.68,5.42,3.6,7.93,5.94l9.24,11.73Z"/>
        <path class="cls-68" d="M267.87,83.82c-3.11-17.62-7.29-35.48-5.63-53.45.4-4.32,1.29-9.79-1.78-13.41-3.31-3.92-9.51-3.8-14.11-2.99-2.84.49-5.53,1.3-8.36,1.72-1.22.17-2.23.71-3.21,1.46-1.26.98-2.62,1.81-3.87,2.77-.96.75-1.64,1.54-2.11,2.62-.95,2.18-1.05,4.89-1.61,7.2-.41,1.65-1.23,3.11-1.74,4.71-1.03,3.22-.94,7.07-.84,10.44.11,3.32.72,6.71,1.69,9.9,1.98,6.49,5.82,12.32,10.83,16.87,7.48,6.75,16.3,11.72,26.39,12.95,1.04.13,2.11.24,3.17.34l1.17-1.13Z"/>
        <path class="cls-8" d="M263.2,80.05c.73-.31,2.33.64,2.33-.68-1.5-.78-1.88-2.77-1.77-4.22.12-1.55-.18-3.26-.3-4.87-.27-3.79-.57-7.6-.64-11.41-.04-2.1.27-4.27.03-6.36-.22-1.97-.82-3.89-1.19-5.82-.5-2.63-.91-5.61-1.81-8.08-1.09-2.97-2.24-6.09-3.28-9.12.91,1.78,1.88,3.84,3.25,5.35.17-2.35-.82-4.79-.69-7.22.08-1.57.16-3.01.1-4.58-.08-1.92-.71-3.72-.87-5.63-.13-1.45.5-2.68.58-4.11,1.11.83,2.09,1.26,3.26,1.88,1.64.86,1.69,3.12,1.89,4.79.73,5.58.55,11.22,1.04,16.79.54,6.18.32,12.55.48,18.71.08,2.7-.22,5.55.59,8.18.46,1.5,1.6,2.84,2.19,4.3.99,2.49,1.62,5.06,2.16,7.68.65,3.17,1.35,7.31-.47,10.21-.45.7-.33.56-1.2.63-.58.05-1.33.19-1.6-.36l-4.07-6.06Z"/>
        <path class="cls-17" d="M252.82,83.79c-6.31-1.6-12.94-2.89-19.02-5.22-5.82-2.23-9.37-7.67-12.2-12.95-2.86-5.3-3.88-11.35-4.02-17.33-.11-4.84.26-10.52,1.66-15.18,1.78-5.93,7.56-8.79,12.1-12.42-.45,3.28-1.54,6.39-2.04,9.65-.48,3.1-.46,6.17-.54,9.29-.14,5.3,1.17,9.93,2.77,14.92,1.58,4.96,3.8,9.67,7.37,13.57,2.47,2.7,4.95,5.29,7.57,7.84l6.35,7.83Z"/>
        <path class="cls-44" d="M271.45,87.95c.25-3.31,2.35-5.6,5.26-6.91,1.61-.72,3.21-1.41,4.77-2.34,2.26-1.36,3.76-3.08,5.79-4.68-2.12,2.18-4.94,4.16-7.88,5.01-2.09.6-3.58,1.54-5.52,2.44-2.66,1.24-3-.7-3-2.99,0-1.43-.02-2.79-.72-4.07-.56-1.1-1.33-2-1.75-3.16-.96-2.6-1.5-5.35-2.45-7.96.21,1.65-.12,3.37-.02,5.04.12,1.86.46,3.75.89,5.56.54,2.23,2.6,5.79,1.31,8.04-1.58-.83-3.72-1.72-5.52-1.66-.88.03-2.11.16-2.93.48-1.05.4-1.43.93-2.62.81-2.42-.23-3.18-1.7-4.99-2.99-2.27-1.6-4.79-2.58-7.17-3.96-1.55-.92-3.2-1.32-4.48-2.64-1.19-1.21-2.59-2.08-3.88-3.19,1.84,2.23,2.9,4.99,4.67,7.21-1.57-.55-3.7-1.07-5.38-1.12-1.05-.04-1.71-.25-2.74-.51-1.02-.26-1.71.19-2.65.07-.42.74,1.68,2.65,2.29,3.15,1.1.9,2.63,1.24,3.95,1.7,2.77.96,5.53,1.72,8.28,2.68,2.78.98,5.61,2.24,8.45,2.97,2.76.7,5.84.63,8.67,1.08,2.81.44,6.36,1.69,8.74,3.24l.65-1.32Z"/>
        <path class="cls-83" d="M266.78,11.6c-1.83.15-3.52.04-5.22-.69-1.83-.79-3.47-1.93-5.4-2.48-3.73-1.05-8.22-.19-11.86.86-4.22,1.21-7.55,3.8-10.81,6.63-2.85,2.48-5.74,4.94-8.1,7.9-2.74,3.45-4.65,6.99-5.26,11.39,2.56-3.4,4.03-7.47,7.02-10.55,2.42-2.47,5.54-3.04,8.63-4.32,3.05-1.26,6.24-2.11,9.27-3.41,2.93-1.26,5.47-2.73,8.78-2.21,2.95.48,5.61,1.32,8.14,2.93,1.53-1.48,2.83-3.32,4.5-4.59l.31-1.44Z"/>
        <path class="cls-60" d="M372.05,191.78c9.11-4.95,19.49-9.35,26.08-17.68,5.96-7.51,11.13-19.89,8.09-29.49-3.16-9.99-13.85-16.89-22.68-21.44-4.71-2.43-10.09-4.62-15.5-4.2-2.03.15-4.07,1.08-6.04,1.65-1.86.52-3.7.96-5.52,1.57-2.15.73-3.75,2.3-5.74,3.31-3.4,1.71-6.84,3.35-10.36,4.78-3.62,1.47-3.95,2.99-3.69,6.98.34,4.79,1.72,9.26,2.93,13.86.89,3.37,1.87,6.72,2.83,10.06l29.6,30.6Z"/>
        <path class="cls-35" d="M343.15,142.6c-.12,1.57,2.89,2.77,4.02,3.42,2,1.14,4.16,2.24,6.18,3.3,3.1,1.61,6.48,1.98,9.78,1.12,7.42-1.89,14.56-4.67,22.11-6.05,2.95-.55,6.63-.18,8.47-3.23-2.86-1.06-4.91-4.04-7.28-5.86-2.27-1.74-4.82-2.54-7.35-3.77-2.89-1.41-5.88-3.4-9.05-4.09-4.2-.91-8.6-.26-12.7.81-3.54.95-7.25,1.15-10.87,1.79-2.81.5-9.09,1.37-8.41,5.57l5.1,6.98Z"/>
        <path class="cls-111" d="M353.95,154.77c2.56,5.43,5.47,10.29,9.62,14.66,4.04,4.25,8.81,8.38,10.95,14.01,4.28,11.35-10.68,11.13-17.82,13.05-4.42,1.19-8.67,2.44-13.28,1.53-5.02-1-10.34-3.29-14.06-6.77-8.7-8.12-8.89-22.25-5.99-33.11,1.4-5.23,3.54-10.48,6.28-15.17,2.04-3.51,4.62-8.81,9.12-8.14.81.12,1.77,1.96,2.55,2.21l12.63,17.73Z"/>
        <path class="cls-16" d="M342.85,139.31c.49,3.2,2.71,6.09,3.02,9.42.29,3.05.04,6.38.12,9.45.09,3.53.05,7.17,0,10.64-.03,1.75-.26,3.48-.43,5.23-.13,1.29-.86,3.35-.23,4.51.94-1.68.71-4.28,1.03-6.15.4-2.28.23-4.54.61-6.81.43-2.54,1.12-6.83,3.12-8.68,2.13,1.43,4.69,3.03,6.28,5.07,1.65,2.13,3.83,4.2,5.23,6.56.95,1.61,1.16,3.26,2.47,4.75,1.14,1.28,2.53,2.3,3.84,3.41,1.08.89,1.98,1.89,3.21,2.59,1,.57,2.17.8,2.55,1.99-1.73-.37-3.48-3.64-4.56-4.95-1.88-2.32-3.46-4.38-4.9-6.95-1.45-2.58-3.96-4.56-5.12-7.32-.46-1.1-.4-1.86-1.1-2.98-.82-1.31-1-2.11-1.51-3.46-1.02-2.61-3.64-4.39-4.61-7.05,3.12,1,6.81.92,10.04.59,1.93-.2,3.37-.69,5.2.04-2.16-.95-4.85-.59-7.17-1.34-2.05-.65-4.13-.78-6.17-1.29-3.61-.92-5.53-1.5-7.75-4.73l-3.16-2.55Z"/>
        <path class="cls-87" d="M336.64,131.35c-8.71,16.23-17.48,35.19-9.76,53.6,2.2,5.25,4.84,8.28,9.83,10.95-5.41-1.94-8.51-5.1-12.17-9.39-3.52-4.11-7.13-7.54-8.15-13.1-1.05-5.64-.41-11.58,2.39-16.62,2.32-4.19,4.44-9.06,7.43-12.81,1.7-2.12,3.95-3.58,5.84-5.5,2.03-2.08,3.13-4.6,4.07-7.31l.52.17Z"/>
        <path class="cls-53" d="M333.98,129.84c2.09,3.45-1.37,7.67-3.05,10.36-1.88,3.04-4.62,6.82-4.55,10.65,1.73-3.37,3.22-6.61,5.72-9.51,1.09-1.28,4.4-6.66,6.44-5.41,1.07.63,1.26,3.04,1.68,4.1.64,1.55,1.63,2.69,2.63,3.99,1.98,2.55,3.04,5.59,5.42,7.83,2.67,2.53,5.45,4.98,8.46,7.1-1.41-2.67-3.56-5.22-5.12-7.87-1.41-2.41-2.8-4.68-4.22-7.05-1.21-2.02-2.14-4.25-3.41-6.26-.7-1.11-2.22-3.38-1.81-4.72,1.31.07,4.37-1.85,5.65-2.59,2.24-1.31,4.68-3.15,7.15-3.61-1.93,1.01-4.17.81-6.21,1.22-2,.41-3.9.57-5.96.94-2.51.46-6.49,3.14-8.73.57l-.08.26Z"/>
        <path class="cls-66" d="M342.68,88.91c2.25,1.27,5.96.7,8.67.29.41-.07.79-.13,1.15-.17,1.32-.19,2.66-.28,3.95-.39,1.68-.14,3.44-.28,5.2-.58,2.36-.39,4.76-.92,7.08-1.43,3.31-.72,6.73-1.47,10.17-1.89,3.37-.42,7.64-.27,11.4-.14l1.6.06.05-1.64-1.61-.06c-3.81-.12-8.15-.28-11.65.14-3.51.43-6.97,1.19-10.33,1.92-2.29.5-4.68,1.02-7,1.42-1.69.28-3.39.42-5.06.54-1.31.11-2.68.22-4.05.41-.35.04-.75.12-1.17.18-2.34.36-5.86.89-7.62-.09l-.8,1.43Z"/>
        <path class="cls-37" d="M452.6,99.07c8.95-3.02,13.42-12.84,13.56-21.69.14-8.28-7.96-15.43-14.36-19.41-3.99-2.48-7.39-4.51-12.18-4.87-4.75-.35-9.42-.94-14.17-1.36-5-.45-10.13.45-14.92,1.86-6.64,1.97-8.48,5.93-12.61,10.85-1.97,2.34-4.82,4.2-6.24,6.96-1.24,2.38-.98,5.17-2.2,7.58-1.21,2.39-5.11,4.83-4.36,7.8,1.38,5.39,15.06,8.13,19.26,9.59l48.21,2.69Z"/>
        <path class="cls-7" d="M397.2,66.1c6.83-5.49,14.36-10.48,22.81-12.53,7.84-1.91,16.89.18,24.5,1.72-13.03-4.27-30.84-10.76-42.52.11-3.63,3.36-6.57,6.11-7.25,11.22l2.46-.51Z"/>
        <path class="cls-88" d="M384.15,85.23c6.89-2.41,9.63-9.66,13.15-15.48,3.57-5.93,9.63-14.1,16.78-16-4.11-.68-10.05,2.68-13.64,4.47-3.58,1.78-6.63,4.53-8.38,8.17-3.18,6.63-4.86,15.88-13.46,17.76-.34-.52-.16-.78.02-1.31l5.52,2.39Z"/>
        <path class="cls-80" d="M430.63,125.55c-.15.24-.22.49-.2.77,2.65,1.61,4.95-.07,7.26-1.47,2.52-1.53,5.47-2.66,7.85-4.38,3.33-2.39,6.08-5.44,8.18-8.93,2.12-3.49,3.2-7.11,4.83-10.8,1.3-2.94,3.41-6.99,2.9-10.32-1.29-1.59-5.45-1.15-7.4-1.3-2.39-.16-4.55-.44-7-.86-5.35-.92-10.88-1.74-16.23-2.11-11.24-.77-23.04-2.25-34.3-2.42-2.62-.03-14.87-2.37-15.39,1.28,2.95,2.23,4.12,6.48,6.51,9.21,2.64,3,4.42,6.16,6.5,9.54,2.47,4.02,4.15,7.53,8.25,9.96,6.37,3.75,13.11,7.1,20.69,7.39l7.54,4.45Z"/>
        <path class="cls-98" d="M446.18,121.42c2.17,1.79,9.68-5.94,11.7-7.94,3.23-3.21,3.4-6.48,4.39-10.78.9-3.94.77-7.48.97-11.47.21-4.13,2.97-7.75,2.62-11.95-1.34,4.6-4.74,6.08-7.38,9.66-2.46,3.32-3.38,8.25-4.74,12.11-1.53,4.36-2.88,8.32-5.37,12.24-2.83,4.47-9.03,12.91-14.99,10.94l12.81-2.81Z"/>
        <path class="cls-59" d="M386.35,84.18c3.56,10.83,8.49,23.04,18.19,29.82,10.85,7.58,26.43,7.42,38.63,3.77,5.81-1.75,11.23-4.38,16.38-7.56-8.05,14.82-20.07,26.23-38,21.22-13.05-3.63-27.03-14.31-31.87-27.44-2.99-8.09-3.07-14.47-11.1-19.33,2.37.89,5.91-.05,8.31-.74l-.55.27Z"/>
        <path class="cls-92" d="M379.56,84.07c1.98-.17,3.75-1.17,5.66-1.55,2.15-.41,4.1.03,6.2.23,3.54.33,6.99.36,10.57.96,3.68.63,7.35,1.3,11.13,2.04,2.43.49,4.44.63,6.95.52,1.95-.08,4.58.64,6.33.02-3.56-1.65-8.36.04-12.05-.21-4.21-.28-8.41-.54-12.45-1.14-3.65-.56-7.27-.93-10.92-.97-4.1-.05-8.27,1.55-12.26.29.24.08.46.15.69.23l.14-.41Z"/>
        <path class="cls-88" d="M385.14,83.75c2.7,7.37,4.32,16.75,9.45,23.07,2.42,2.98,6.03,6.15,9.31,8.05,3.79,2.2,7.69,5.75,11.98,6.91-6.72-2.59-12.91-7.36-16.89-13.52-4.84-7.48-13.58-16.21-13.43-25.73l-.42,1.23Z"/>
        <path class="cls-102" d="M428.19,85.55c5.08,1.77,9.29,2.95,14.56,3.23,2.82.13,5.44.35,8.29.07,2.43-.22,4.97-1.19,7.29-.07-4.49-1.11-9.54-.36-14.15-1.32-2.3-.48-4.58-.86-6.97-1.02-3.67-.24-7.97.41-11.47-.38l2.45-.52Z"/>
        <path class="cls-3" d="M333.11,128.96c1.82.99,2.92,3.86,4.27,5.48,1.51,1.82,3.09,3.62,4.6,5.52,1.51,1.91,3.45,3.44,4.82,5.44,1.38,2,3.32,4.26,5.07,5.99-2.28-.89-4.18-5.41-5.39-7.44-1.16-1.98-2.43-3.67-3.92-5.45-2.63-3.12-5.49-8.6-9.79-9.37l.34-.18Z"/>
        <path class="cls-115" d="M346.08,130c6.61-1.75,12.57-4.83,19.52-4.94,3.92-.05,9.14,1.38,12.64,3.19-.92.39-1.89-.17-2.82-.47-1.31-.43-2.5-.55-3.85-.76-1.72-.27-3.45-.38-5.15-.5-5.03-.35-9.99.87-14.78,2.52l-5.55.96Z"/>
        <path class="cls-25" d="M357.7,191.4c-1.62-.54-.63-3.18.23-3.97l-.23,3.97Z"/>
        <path class="cls-40" d="M374.2,190.72c-1.06.35-1.82,1.39-2.89,1.87-1.21.56-2.21.66-3.47.87-2.28.4-4.55,1.04-6.75,1.68-4.1,1.19-8.51,3.59-12.92,3.51-1.86-.04-6.41-.52-7.55-2.06.74-.12,2.01.35,2.87.35,1.29,0,2.41-.32,3.61-.72,2.15-.7,4.3-1.01,6.49-1.23,2.39-.23,4.58-1.45,6.97-1.87,1.84-.32,3.75-.52,5.74-.53,1.92-.02,6.18.06,6.87-2.23l1.03.36Z"/>
        <path class="cls-36" d="M341.66,130.2c9.14-4.45,17.47-10.97,27.98-11.25,9.08-.24,17.91,1.34,24.59,7.82,3.65,3.53,6.28,7.1,8.1,11.86-2.93-2.85-5.99-4.64-9.62-6.37-3.29-1.58-5.13-4.76-8.26-6.56-6.66-3.87-13.32-6.01-20.99-4.36-3.85.84-7.31,2.49-11.17,3.3l-10.63,5.55Z"/>
        <path class="cls-38" d="M269.3,84.7c.51-.96.02-2.36-.15-3.34-.17-1,.08-1.89-.18-2.86-.48-1.91-1.33-3.74-1.73-5.63-.87-3.99-1.19-8.25-1.83-12.31-.44-2.75-.44-5.61-.72-8.34-.49,4.46.57,8.72.53,13.12-.05,4.24.65,9.09,2.29,13.11.38.96.7,1.77.86,2.85.06.5.05,1.04.15,1.49.17.81.77,1.39.9,2.16l-.11-.24Z"/>
        <path class="cls-91" d="M277.26,80.14c1.83-.91,2.99-2.42,4.73-3.44,1.44-.85,2.6-2.24,3.81-3.38,1.18-1.09,2.35-2.14,3.45-3.31,1.12-1.18,1.81-2.52,2.85-3.75,2.11-2.49,3.41-5.84,4.83-8.78.56-1.18.83-2.24,1.17-3.48.31-1.12,1.13-2.53.73-3.73-1.15,3.61-2.73,7.5-4.69,10.73-1.98,3.28-3.68,6.73-6.23,9.63-1.77,2.02-4,3.74-6.01,5.54l-4.66,3.97Z"/>
        <path class="cls-74" d="M268.11,70.39c2.67-1.68,5.3-3.85,7.55-6.06,3.06-2.98,5.24-6.68,7.9-10.01l-15.44,16.06Z"/>
        <path class="cls-74" d="M269.56,61.81c1.89-2.56,4.22-4.82,6.5-7.03,3.86-3.74,7.36-7.82,9.97-12.53l-16.47,19.55Z"/>
        <path class="cls-74" d="M266.94,54.33c1.78-3.47,4.98-6.26,7.1-9.56,3.87-6.01,7.39-12.26,10.65-18.62l-17.75,28.18Z"/>
        <path class="cls-74" d="M264.22,51.06c-.23-9.71-.4-19.49-.87-29.27-.07-1.62-.44-3.41-.11-5-.85,2.97-.55,6.35-.53,9.4.01,2.21.07,4.79-.16,6.89-.63-.79-1.14-2.04-1.85-2.74.68,1.92,2.1,3.56,2.69,5.57.34,1.15.67,3.88.1,5.02-.76-.36-1.28-1.85-1.66-2.58-.45-.9-1.16-1.26-1.69-2.02-.42.61,1.56,2.51,2.02,3.14.7.92,1.06,1.45,1.22,2.61.41,2.87.44,5.52,1.27,8.36l-.42.63Z"/>
        <path class="cls-74" d="M267.53,28.28c.48-.87.98-1.72,1.48-2.58l-1.48,2.58Z"/>
        <path class="cls-26" d="M249.18,79.8c-1.87-1.21-3.08-2.82-4.53-4.48-1.43-1.65-3.18-2.96-4.69-4.53-1.23-1.29-2.62-2.56-3.69-3.99-.91-1.2-1.56-2.57-2.44-3.79-1.79-2.45-3.43-5.14-4.44-8.01-1.18-3.46-2.86-6.97-2.99-10.68-.08-2.44.29-5.1.72-7.49.28-1.65,1.03-3.11,1.41-4.72-.13,3.32-.88,6.64-.97,9.98-.08,2.9-.06,6.56.97,9.29,1.12,2.93,2.17,6.17,3.64,8.95,1.27,2.41,2.97,4.76,4.57,6.94.91,1.22,1.99,2.33,2.9,3.55,1.78,2.41,3.93,4.31,5.94,6.57l3.59,2.41Z"/>
        <path class="cls-74" d="M260.1,57.35c-1.55-2.17-3.33-4.1-4.83-6.31-2.24-3.29-4.5-6.54-6.47-9.99l11.3,16.29Z"/>
        <path class="cls-18" d="M301.05,30.7c-3.05-5.4-5.26-11.98-10.18-16.06-4.87-4.01-11.49-6.6-17.82-5.81-3.5.43-6.15,2.5-9.22,4,2.66-1.22,5.88-1.26,8.75-.95,2.88.33,5.91.87,8.56,2.1,2.62,1.22,4.72,3.92,6.85,5.83,2.25,2.05,4.36,4.24,6.62,6.28,1.25,1.13,2.42,2.15,3.58,3.4,1.01,1.1,1.87,2.25,2.91,3.34l-.03-2.13Z"/>
        <path class="cls-27" d="M254.96,168.51c-.35,6.8-1.13,14.01-1.4,20.87-.31,7.72-1.06,15.7-.88,23.41-.47-8.93.35-17.83.07-26.62-.2-6.1-.71-12.8,1.75-18.59l.45.92Z"/>
        <path class="cls-12" d="M231.14,249.04c-4.41-2.75-7.53-5.59-10.77-9.62-2.81-3.48-6.1-6.65-8.05-10.72-3.45-7.15-2-18.75,1.94-25.5,2.43-4.16,4.8-9.05,9.96-9.81-1.27,3.01-.34,7.83.02,11.03.43,3.92.63,6.72.22,10.59-.82,8.12-.12,15.28,1.81,23.06.93,3.78.85,8.29,4.64,10.51l.22.47Z"/>
        <path class="cls-84" d="M223.58,169.94c-1.12,4.55,1.94,9.75,4.05,13.43-1.17-2.04-1-4.78-1.66-7.01-.73-2.47-2.42-4.74-2.84-7.34l.45.93Z"/>
        <path class="cls-90" d="M171.27,216.97c.58.96.78-3.54.84-4.43.16-2.17.45-4.1.94-6.19.65-2.83,1.02-5.77.9-8.72-.11-2.47-.44-4.87-.71-7.23-.27-2.19-.22-4.55-1.16-6.62-.6,2.6.18,5.87.05,8.59-.13,2.76-.53,5.28-.63,8.08-.17,5.21.85,10.43.13,15.48l-.37,1.04Z"/>
        <path class="cls-99" d="M173.02,189.77c.15,2.27.17,5.02.02,7.43-.15,2.31-1.41,5.48-.63,7.67,1.28-4.04,1.76-8.24,3.49-12.11,6.71,1.65,12.79,3.8,18.14,8.2,3.04,2.51,5.9,4.75,8.75,7.58,1.52,1.52,3.18,2.87,4.69,4.39,1.46,1.5,2.59,3.78,4.39,4.91-3.03-8.46-5.98-16.1-12.5-22.38-4.85-4.68-10.38-6.72-16.9-8.38-3.77-.97-7.43-2.38-11.09-3.68l1.64,6.36Z"/>
        <path class="cls-116" d="M136.44,141.87c1.85-.83,4.63.21,6.88-1.1,2.52-1.47,3.88-4.61,2.71-7.4-1.86,2.76-4.98,7.23-8.79,7.24l-.81,1.26Z"/>
        <path class="cls-70" d="M279.04,121.16l2.1.52c.28.07.55.15.8.26l.2-.51c2.75-2.24,6.54-3.16,10.21-4.06,1.49-.37,3.02-.75,4.44-1.21,8.73-2.79,19.62-10.09,29.23-16.54,7.87-5.28,15.32-10.27,18.41-10.44l-.13-2.19c-3.69.2-10.66,4.88-19.5,10.81-9.49,6.37-20.24,13.58-28.68,16.27-1.35.43-2.78.79-4.3,1.16-3.92.96-7.98,1.95-11.12,4.53l-1.67,1.38Z"/>
        <path class="cls-29" d="M209.3,148.69l.96,1.97c2.68-1.31,5.89-1.92,9.97-2.69,5.77-1.09,12.96-2.46,22.55-6.51,4.8-2.06,8.6-4.23,13.54-7.32,6.26-3.89,25.19-13.49,26.76-13.86,0,0-.09.02-.23.01l.21-2.18c-1.66-.16-23.81,11.62-27.9,14.17-4.86,3.04-8.58,5.17-13.26,7.16-9.35,3.98-16.42,5.31-22.09,6.39-4.23.81-7.57,1.43-10.52,2.87Z"/>
        <path class="cls-19" d="M43.3,148.3l-.64,2.65c.15.05.3.12.45.17l.04-.08c6.25,1.03,13.33-.3,19.57-1.49.77-.14,1.51-.27,2.25-.41,14.58-2.68,32.97.64,49.2,3.56,11.03,1.98,20.55,3.7,27.24,3.26l-.18-2.74c-6.35.42-15.72-1.26-26.57-3.21-16.45-2.97-35.1-6.32-50.19-3.56-.74.12-1.48.27-2.26.41-6.12,1.15-13.06,2.46-18.9,1.43Z"/>
        <path class="cls-97" d="M6.15,144.53c23.35,8.36,36.83,7.41,38.33,6.88l-1.08-3.1s.03-.02.07-.02c-1.67.41-21.94-1.76-43.47-9.48l6.15,5.71Z"/>
        <path class="cls-1" d="M383.35,87.34c-.17-.63-.56-1.59-.94-2.1-.46-.57-1.36-.91-2.1-1.14.74-.2,1.63-1.07,2.21-1.54-2.01.28-4.03.54-6.06.81-2.14.28-4.27,1.29-6.38,1.67.83.13,1.75-.42,2.57-.42.86-.01,1.68.14,2.59.06,1.67-.13,3.41.42,5.05,1l3.07,1.65Z"/>
        <path class="cls-1" d="M343.38,89.26c.59.28,1.06.15,1.67.18.55.02,1.04.31,1.54.33.99.06,2.16-.42,3.19-.51,2.51-.2,5.12-.15,7.58-.81,1.28-.36,2.59-.87,3.92-.95-.63-.19-1.64.26-2.31.38-.85.13-1.69.21-2.55.3-1.43.13-2.69.13-4.1.18-1.36.06-2.82.16-4.17.21-1.66.07-3.21.56-4.81.85l.04-.14Z"/>
        <path class="cls-2" d="M357.82,88.31c.41.08,1.21-.08,1.65-.13.49-.06.97-.19,1.46-.24.99-.15,1.84-.47,2.79-.63,1.04-.18,2.03-.53,3.02-.65.99-.11,1.99-.1,2.98-.31,1.54-.33,3.07-.82,4.62-1.19-.92-.42-2.45.01-3.4.24-1.06.26-2.09.39-3.16.52-.89.1-1.84.35-2.69.62-1.49.46-2.99,1.58-4.59,1.54l-2.67.24Z"/>
        <path class="cls-45" d="M347.1,88.37c-.61-.26-1.44-.31-2.02-.27.36-.41.57-1.26.66-1.79.06-.38.3-1.35.24-1.7-.98.78-1.82,1.53-2.83,2.25-.96.69-2.11,1.1-3.04,1.75,1-.15,1.85-.63,2.87-.13.89.46,1.32.87,2.45.52l1.68-.64Z"/>
        <path class="cls-25" d="M343.56,159.76c-1.27-.38-1.48-1.22-.72-2.33,1.06-.03,1.38.41,1.7,1.06l-.98,1.27Z"/>
        <path class="cls-42" d="M335.29,133.4c-.1-.79.15-1.97.31-2.78-1.16-.35-2.09-1.85-3.03-2.55-1.11-.85-2.21-1.46-3.41-2.24-1.04-.67-2.09-1.65-3.19-2.16-1.06-.49-2.8-.95-3.55-1.85l12.86,11.58Z"/>
        <path class="cls-79" d="M313.51,114.59c-1.76.57-2.91-.73-3.82-2.02.39-1.64,1.04-3.3,1.63-4.91-1.61.98-3.46,2-5.28,2.12-.24.74-.49.5-.95.73l8.42,4.08Z"/>
        <path class="cls-94" d="M269.09,87.53c.17,2.76,4.92,5.23,6.42,7.51-1.61-2.55-3.44-6.51-4.15-9.04l-2.26,1.53Z"/>
        <path class="cls-21" d="M264.27,82.73c-3.25-1.86-7.35.3-10.94-2.04-2.39-1.57-5.68-3.99-7.51-6.32-2.23-2.87-5.39-6.02-6.94-9.39-1.98-4.32-2.03-8.63-3.36-13.05,2.49,6.51,6.37,12.67,11.33,17.58,2.98,2.95,6.3,4.4,10.08,6.07,3.85,1.68,4.49,4.1,7.55,6.57l-.2.58Z"/>
        <path class="cls-54" d="M304.17,47.38c1.01-11.18-1.61-23.27-11.15-29.54,2.75,4.65,3.56,10.09,6.45,14.76l4.7,14.78Z"/>
        <path class="cls-6" d="M282.86,117.81c4.12-.89,7.64-.5,11.79-2.25l-11.79,2.25Z"/>
        <path class="cls-6" d="M278.78,120.23c1.08.67,3.58-.44,4.72-.74,1.7-.43,3.23-.86,4.77-1.68,2.36-1.26,5.18-2.99,7.83-3.4-.8-.39-2.51.48-3.35.7-1.08.28-2.2.38-3.31.65-1.06.27-2.1.7-3.13,1.04-.96.33-2.28.66-3.15,1.14-.94.52-2.03,1.37-2.75,2.02l-1.62.27Z"/>
        <path class="cls-93" d="M230.79,190.22c-3.64,2.12-5.17,6.72-6.37,10.5-1.37,4.32-3.09,8.35-3.56,12.91-.9,8.99,2.13,16.63,3.34,25.36.66,4.85,1.96,8.86,7.05,10.5-3.88-4.06-4.93-9.87-4.53-15.29.39-5.17.31-10.39.79-15.53.8-8.56.87-17.06,5.16-24.62,2.09-3.67,4.25-7.27,6.4-10.98l-8.29,7.16Z"/>
        <path class="cls-27" d="M247.6,179.08c-.85,1.42-2.95,1.77-4.45,2.77-2.13,1.46-4.23,3.63-5.83,5.64-2.99,3.74-4.67,7.87-6.21,12.32,1.31-3.71,2.89-6.69,5.41-9.79,3.31-4.09,9.69-7.57,11.61-12.5l-.54,1.55Z"/>
        <path class="cls-31" d="M253.8,171.12c-.02-.95.56-1.77.71-2.7.12-.75.09-1.59.06-2.39-.02-.95-.07-1.8-.09-2.76-.04-.96.06-2.04-.07-2.96-.13-1-.26-2.09-.7-3,.15.84.12,1.78.01,2.62-.11.85-.17,1.67-.27,2.51-.09.85-.38,1.64-.47,2.47-.1.75.03,1.57-.11,2.35-.08.41-.06.84-.15,1.23-.1.45-.44.78-.69,1.12.08-.49,1.04-.89,1.49-.99l.29,2.48Z"/>
        <path class="cls-31" d="M257.11,167.36c-.3-.12-.86-.74-1.11-.98-.37-.36-.65-.77-.85-1.22-.58-1.33-.43-2.71-.57-4.1-.16.24-.09.58-.08.84,0,.53-.02,1.05.02,1.56.06.67.04,1.32.06,1.98.02.53.06,1.07.06,1.58.01.6-.35,1.56-.15,2.08.4-.77.26-1.87.83-2.53.45.16.96.4,1.36.69l.43.08Z"/>
        <path class="cls-31" d="M254.19,165.17c-.9,5.69-2.24,12.66-.59,18.33l.59-18.33Z"/>
        <path class="cls-76" d="M248.23,143.47c.45-1.17-.29-3.73-1.48-4.21-1.4-.58-3,1.35-4.48,1.45.85.34,2.11-.46,3.09-.26,1.04.23,1.78,1.14,2.6,1.77l.27,1.25Z"/>
        <path class="cls-76" d="M215.49,149.79c-2.57-2.97-7.3-.55-10.24.18,2.4.95,5.33.52,7.87.63l2.37-.81Z"/>
        <path class="cls-24" d="M173.02,220.27c-.2,4.82-.83,9.69-1.57,14.5-.85,5.52-2.26,10.55-1.64,16.14-4.75-1.26,2.71-40.42-3.6-39.36l6.81,8.73Z"/>
        <path class="cls-89" d="M183.77,242.58c-3.77-.29-4.97-8.69-5.89-11.35-1.57-4.54-4.76-8.59-5.33-13.37-3.04,2.39-1.37,11.25-1.4,14.74-.05,6.91,3.48,9.96,10.17,12.01l2.45-2.03Z"/>
        <path class="cls-14" d="M172.81,186.4c-.55-.28-.68-2.6-.82-3.25-.23-1.2-.11-2.33-.1-3.5.01-1.03-.19-2.15-.19-3.22,0-1.1-.06-2.13-.27-3.22-.22-1.11-.74-2.24-.86-3.31-.05,4.61.82,9.2.2,13.83-.25,1.79-1.2,2.02-2.43,3.08,1.17-.06,2.27-1.06,3.44-1.39l1.01.97Z"/>
        <path class="cls-106" d="M133,155.15c5.2,1.66,12.69-4.81,16.23-7.92-4.49,3.49-10.95,6.18-16.41,5.72.28.09.56.2.85.29l-.67,1.91Z"/>
        <path class="cls-11" d="M75.25,147.2c2.77.94,4.34-.39,6.42-2.36-1.56-.56-5.62,1.08-7.28,1.7l.85.66Z"/>
        <path class="cls-95" d="M160.76,154.57c-2.45-.84-4.66-1.94-7.14-1.65-2.26.28-4.02,2.16-6.37,2.09l13.51-.44Z"/>
        <path class="cls-96" d="M201.02,149.6c-6.17-.5-12.63,1.59-18.75,2.21l18.75-2.21Z"/>
        <path class="cls-47" d="M129.44,155.26c-2.57-1.45-6.52-1.38-9.31-2.08-3.51-.88-6.8-1.83-10.33-2.43-3.22-.54-6.21-1.45-9.44-1.74-2.97-.27-6.43-1.44-9.44-.61l38.53,6.87Z"/>
        <path class="cls-47" d="M92.88,148.32c-1.72-.21-3.58.47-5.24.39-1.98-.09-3.79-.58-5.81-.8-4.1-.43-8.95-1.88-12.82-.96l23.86,1.37Z"/>
        <path class="cls-47" d="M71.67,147.09c-4.01.3-8.07,1.31-12.1,1.96-3.64.61-7.44.62-11.01,1.59,4.58,2.53,11.04-.77,15.83-1.46,5.8-.83,11.04-.51,16.61-1.15l-9.33-.94Z"/>
        <path class="cls-55" d="M86.67,146.15c-1.39-.48-2.92-.62-4.19-1.13.15-1.24,1.19-1.93,1.45-3.16-1.67,1.1-2.83,2.69-4.41,3.73l7.15.56Z"/>
        <path class="cls-86" d="M41.62,150.52c-4.95-.49-9.62.25-14.55-.62-5.01-.89-10.05-1.81-14.88-4.05-.09-.68.21-.36.54-.56l28.9,5.23Z"/>
      </g>
      <g>
        <path class="cls-4" d="M339.68,89.74l.24-1.41c.87.15,1.66-.09,2.41-.72,2.49-2.1,3.76-7.77,3.75-10.36.01-1.86-.21-3.64-.44-5.52-.07-.51-.13-1.03-.19-1.55-.12-.96-.57-2.05-1-3.11-.58-1.43-1.19-2.9-1.12-4.32l1.43.09c-.06,1.08.46,2.34,1.01,3.69.47,1.14.96,2.33,1.1,3.49.06.51.12,1.02.18,1.52.23,1.86.47,3.77.47,5.72,0,2.65-1.3,8.94-4.26,11.43-1.08.91-2.29,1.26-3.58,1.04Z"/>
        <path class="cls-61" d="M356.62,13c6.36-3.83,13.16-.29,18.43,3.99,5.59,4.53,7.97,12.01,8.41,19,.44,7.21-1.61,15.12-5.9,20.97-2.26,3.08-5.15,4.4-8.91,5.46-3.79,1.07-7.32,1.16-10.92.21-4.17-1.12-7.59.77-11.64.39-6.37-.61-8.86-10.44-10.72-15.25l21.26-34.76Z"/>
        <path class="cls-112" d="M328.1,4.23c7.76-6.16,25.06-6.34,29.4,4.5,2.51,6.25-1.42,13.26-3.61,18.98-1.22,3.21-1.92,6.53-2.96,9.78-.83,2.61-2.36,4.66-3.53,7.09-1.44,3-.63,8.09-2.59,10.59-2.78,3.57-9.54-6.43-11.05-8.23l-5.66-42.72Z"/>
        <path class="cls-9" d="M316.34,25.18c-.07-5.44-.17-11.1,3.03-15.76,2.56-3.73,8.69-9.22,13.66-7.09,5.71,2.46,6.03,13.17,7.23,18.26,1.45,6.16,4.43,12.11,5.07,18.42.67,6.66-1.28,13.33-2.92,19.71-.25-.03-.35-.17-.3-.41l-25.76-33.14Z"/>
        <path class="cls-48" d="M344.64,63.52c-.54-1.97.23-3.86.14-5.83-.09-2.11-.65-4.57-1.56-6.47-2.16-4.57-5.66-10.53-9.6-13.8-7.1-5.88-15.27-12.39-14.11-22.76.49-4.29,3.41-8.45,6.31-11.51-4.08,3.08-8.72,6.19-10.6,11.17-1.74,4.6-1.45,9.99-.55,14.73,1.84,9.78,9.62,19.45,16.83,26.05,4.14,3.79,9.09,6.58,13.7,9.78l-.56-1.37Z"/>
        <path class="cls-104" d="M344.07,62.47c3.84-.09,7.71-.41,11.5.33,3.82.75,7.18,1.83,11.07.73,7.51-2.12,19.23-9.85,16.7-25.58-2.34,1.81-5.02,10.02-9.3,14.99-3.91,4.54-8.65,6.81-14.44,7.84-3.61.64-7.21.34-10.84,1.1l-4.71.59Z"/>
        <path class="cls-13" d="M344.73,62.53c.59-6.76,1.02-14.95,4.46-20.8-1,3.45-3.16,6.5-4.2,9.84-.93,2.99-1.13,6.93-1.14,10.16.3.11.63.14.94.14l-.05.66Z"/>
        <path class="cls-30" d="M345.22,64.56c.19-.9.19-1.83-.16-2.62-.94.12-2.06.3-2.96-.17.44.91.96,1.99,1.44,2.99l1.68-.19Z"/>
        <path class="cls-72" d="M326.35,4.42c-2.58,6.33,1.16,13.69,3.96,19.68,3.29,7.08,8.67,13.05,11.38,20.44.62,1.7,1.14,3.52,1.61,5.23.43,1.59.29,3.76.97,5.18-3.11-10.07-10.1-17.36-18.58-23.03-5.82-3.89-8.28-11.47-7.38-18.27.45-3.48,3.35-7.33,6.84-7.9l1.19-1.33Z"/>
        <path class="cls-15" d="M327.69,44.11c-1.94-1.17-3.35-4.77-3.65-6.94-.18-1.31.11-2.69-.1-4.01-.23-1.42-.86-2.78-.94-4.23-.28-4.93.85-9.73,1.26-14.61.01,5.22-2.35,10.54-1.97,15.96.17,2.4.35,5.53,1.16,7.8.85,2.41,3.05,4.39,4.2,6.7l.05-.66Z"/>
        <path class="cls-49" d="M345.61,62.24c3.28-.07,6.5.26,9.76.37,3.66.11,7.05-.96,10.44-2.23,7.59-2.81,10.68-8.88,14.1-15.8,1.68-3.39,3.27-5.98,3.57-9.85-.24,3.13-3.65,6.99-5.73,9.1-2.38,2.43-4.44,5.16-6.83,7.57-2.2,2.22-5.47,3.04-8.28,4.32-2.71,1.22-5.6,1.93-8.24,3.25-2.75,1.37-5.49,1.99-8.3,3.07l-.49.19Z"/>
        <path class="cls-39" d="M340.02,89.72c.41-.15.85-.33,1.21-.57.31-.21.51-.53.79-.77.78-.68,1.59-1.27,2.16-2.16,1.13-1.73,1.91-3.96,2.11-6.02.06-.54.17-1.08.21-1.62.03-.4.2-.97.03-1.35-.28.52-.39,1.14-.63,1.69-.17.41-.34.82-.5,1.23-.37.83-.63,1.71-1.04,2.54-.85,1.72-2.14,3.11-3.36,4.58-.84,1-1.68,2.42-3.01,2.67l2.04-.22Z"/>
      </g>
      <g>
        <path class="cls-10" d="M93.72,238.24c-3.34,5.59-8.18,6.57-14.33,6.29-3.34-.15-5.96-1.12-8.99-2.42-2.85-1.22-5.56-1.92-8.02-3.94-4.79-3.92-8.77-8.36-11.94-13.7-1.45-2.43-2.2-4.72-2.68-7.46-.29-1.64-.77-3.34-.61-5.02.14-1.46.9-2.36,1.47-3.63.77-1.71.67-3.73,1.71-5.32,1.5-2.29,4.65-2.92,6.6-4.76,3.21-3.04,4.47-8.35,9.16-9.58,3.91-1.02,8.27.96,11.71,2.6,6.4,3.05,12.32,7.1,18.25,10.95l-2.33,35.99Z"/>
        <path class="cls-32" d="M91.22,234.17c-3.99-4.38-5.08-11.61-7.49-16.88-1.85-4.07-4.48-8.18-6.9-11.97-2.47-3.86-7.18-3.26-11.03-2.03-3.77,1.22-8.56,2.34-11.87,4.59-2.26,1.55-4.76,3.86-5.66,6.51-.69-2.63-1.2-4.58-.35-7.19.86-2.62,2.16-4.89,4.13-6.85,1.44-1.42,3.21-2.43,4.6-3.93,1.55-1.66,2.64-3.87,4.85-4.73,2.89-1.12,6.87-1.84,9.92-2.03,8.03-.5,14.1,5.97,19.4,11.12l.4,33.38Z"/>
        <path class="cls-62" d="M86.65,214.3c-4.61-4.91-6.73-10.81-9.63-16.71-2.21-4.53-6.4-2.77-10.22-1.47-4.23,1.45-8.88,2.55-12.59,5.17-2.56,1.81-3.93,4.49-5.05,7.34-3.9-3.99,4.26-10.95,6.61-13.86,3.66-4.52,7.44-10.07,12.92-12.55,1.99-.9,4.67-1.82,6.8-2.24,4.46-.9,9.05,5.32,11.79,7.98l-.64,26.34Z"/>
        <path class="cls-50" d="M108.41,193.96c8.16,6.83,12.65,15.24,12.01,26.11-.49,8.11-4.63,14.59-11.73,18.55-5.85,3.26-15.78,6.38-19.49-1.32-3.56-7.35-1.65-16.15-4.26-23.81-1.62-4.78-4.15-9.42-4.71-14.51-.47-4.38,1.46-6.57,5.47-7.82l22.71,2.81Z"/>
        <path class="cls-100" d="M110.34,199.74c3.71,3.57,4.75,8.9,5.86,13.78.45,1.99.64,3.95.41,5.98-.14,1.31.25,3.54-.57,4.6-2.65-3.13-2.85-8.6-7.81-9.42-4.81-.8-3.21,6.8-4.16,9.41-1.84-3.75-4.84-5.93-7.48-9.01-2.29-2.67-4.58-5.36-6.84-8.07-2.56-3.07-4.8-6.39-2.54-10.41,2.88-5.12,9.14-7.13,14.37-4.9l8.74,8.04Z"/>
        <path class="cls-65" d="M111.24,192.81c4.59,2.88,8.06,6.89,9.48,12.21.67,2.47.83,5.21,1.12,7.75.32,2.73-.61,5.19-1.24,7.8-.78,3.22-2.42,5.99-3.58,9.06.12-1.42.36-2.82.33-4.27-.05-1.46-.54-2.83-.69-4.34-.26-2.52,0-4.96-.08-7.41-.09-2.26-.33-4.8-1.21-6.88-.5-1.16-1.22-2.28-1.74-3.37-.78-1.63-1.05-4.36-2.74-5.33l.34-5.23Z"/>
        <path class="cls-85" d="M48.45,149.95l1.77,1.46c1.06.87,1.82,2.3,2.53,3.68.55,1.08,1.14,2.22,1.83,2.95,1.69,1.8,3.76,3.05,5.95,4.37l.21.11c2.37,1.43,4.19,3.17,6.31,5.29.76.76,1.35,1.5,1.93,2.23,1.06,1.33,1.96,2.48,3.65,3.32l-.91,1.82c-2.1-1.03-3.23-2.49-4.34-3.88-.54-.68-1.08-1.38-1.76-2.06-2.03-2.02-3.76-3.66-5.93-4.98l-.19-.12c-2.32-1.4-4.52-2.71-6.4-4.72-.88-.95-1.52-2.19-2.15-3.41-.33-.64-.67-1.3-1.03-1.86l-.18.24c-.71-.54-1.12-1.28-1.17-2.15l-.12-2.3Z"/>
        <path class="cls-113" d="M82.77,205.57c.51.82.58,2.06.8,3.01.46,2.12,1.14,4.19,1.54,6.32.54,2.78,1.05,5.49,1.65,8.27.65,2.92.81,6.97,2.38,9.58-1.12-9.14-5.84-17.66-6.81-26.83l.45-.35Z"/>
        <path class="cls-5" d="M107.72,189.64c2.75.88,4.57,5.57,5.52,8.01.94,2.41,2.09,5.96,2.03,8.53-1.7-1.39-4.12-3.92-6.34-4.3-1.37-.25-4.4.37-5.7.8-1.95.63-2.07,3.55-4.04,3.84-.99.15-1.94-.67-2.82-.96-1-.33-2.09-.44-3.11-.72-5.21-1.45-9.93-6.2-13.39-10.2-2.4-2.78-4.43-8.36-8.42-9.17-1.81-.37-3.75.93-5.34,1.68-1.42.67-3.06,1.29-4.44,2.13,1.02-2.77,4.3-4.88,6.08-7.07.97-1.19,1.81-2.23,2.61-3.53.6-.98,2.21-3.08,2.08-4.04-.15.1-.24.24-.27.4l35.55,14.6Z"/>
        <path class="cls-108" d="M86.05,195.01c2.14.87,3.67,3.18,5.43,4.68,2.76,2.38,5.48,4.66,7.91,7.38,1.85,2.07,3.69,4.26,5.48,6.39.79.94,2.11,2.34,2.34,3.4-1.54-.71-2.33-3.89-3.17-5.19-2.95-4.5-7.61-7.69-11.06-11.78l-6.92-4.87Z"/>
        <path class="cls-82" d="M70.8,172.67c1.5-.05,3.32,1.32,4.83,1.7,1.72.44,3.37.95,5.04,1.51,1.72.58,3.38,1.22,5.12,1.74,1.63.5,3.38.6,4.99,1.12,7.1,2.31,13.87,5.4,19.34,10.64,1.5,1.41,2.89,2.93,4.01,4.69,1.28,2.01,2.26,4.5,3.76,6.33-3.08-1.58-5.92-3.48-9.35-3.55-3.26-.04-6.17-.23-9.45.16-4.11.5-9.23-.95-12.04-4.15-3.24-3.69-5.04-7.99-8.98-11.14-3.01-2.4-5.51-4.93-7.73-8.1.27.09.48.26.59.54l-.12-1.48Z"/>
        <path class="cls-64" d="M72.17,173.91c-.24,1.3,1.78,2.66,2.4,3.77.64,1.13,1.22,2.39,1.77,3.57,1.09,2.4,1.07,5.21,1.9,7.69.83,2.47,1.48,5.04,2.17,7.62.71,2.7,1.71,6.29,1.85,8.95-.63-3.41-1.65-6.81-3.03-9.94-1.04-2.37-1.52-4.95-2.4-7.42-.81-2.27-1.64-4.42-2.25-6.71-.29-1.11-.64-2.2-.9-3.3-.21-.85-.85-2.11-.78-2.94-.03.25-.05.5-.06.76l-.68-2.05Z"/>
        <path class="cls-108" d="M95.89,186.15c2.1.81,4.27,3.02,5.59,4.79,1.51,2.01,2.98,3.95,4.55,5.94,1.87,2.39,3.45,5.15,5.01,7.74,1.23,2.04,1.84,4.76,3.52,6.46-1.53-6.02-5.14-11.16-8.56-16.21l-10.11-8.72Z"/>
        <path class="cls-73" d="M67.75,182.77c-1.78,3.73-3.6,7-5.98,10.36-3.94,5.51-5.59,12.2-6.81,18.64,1.43-2.89,1.69-6.6,2.73-9.73.7-2.1,1.5-4.22,2.43-6.21.91-1.96,1.93-3.88,2.89-5.8,1.07-2.14,2.12-5.96,4.53-6.81l.22-.45Z"/>
        <path class="cls-101" d="M118.64,201.31c-.88-.43-1.98-.78-2.6-1.55-.83,1.85.41,5.15.73,7.13.33,2.05.73,4.16.79,6.24.09,2.46.02,4.79.19,7.22.16,2.31.41,4.72-.16,7.01.72-6.68-.82-14.44-3.19-20.67-.81-2.13-1.23-4.29-1.6-6.54-.3-1.79-.19-4.38-1.1-5.97l6.94,7.14Z"/>
        <path class="cls-103" d="M64.62,187.18c.03.46.02,1.06-.38,1.66.77-.07,1.39.47,1.95,1.01-.52-.52-1.13-1.02-1.8-1.34.05-.2.1-.39.15-.57-.45.03-.76.1-1.15.45,1.11.73,2.3.55,3.51.8-1.47,2.85,4.11,3.38,5.76,4.62,1.19.92,2.05,3.27,3.45,3.58.52-.59.58-.33,1.09-.52-.02.74-.03,1.48,0,2.25l-12.58-11.93Z"/>
        <path class="cls-103" d="M85.85,209.09c.81.4,1.86.74,2.59,1.26.72.55.47,1.3,1.61,1.53.18-.26.5-.43.65-.65,0,3.04,6.22,3.36,7.56,5.56l-12.42-7.7Z"/>
        <path class="cls-85" d="M75.79,174.59c-1.41.3-3.36.87-4.65-.08-1.3-.95-1.66-3.07-2.85-4.23l7.49,4.31Z"/>
        <path class="cls-110" d="M46.93,150c2.86,1.43,3.35,3.07,4.64,5.83,1.19,2.57,4.19,3.55,5.2,6.11-1.98-1.83-4.7-3.86-6.41-6-1.67-2.1-4.84-5.22-4.8-7.76l1.37,1.82Z"/>
      </g>
    </g>
  </g>
</svg>