<?xml version="1.0" encoding="UTF-8"?>
<svg id="_圖層_2" data-name="圖層_2" xmlns="http://www.w3.org/2000/svg" viewBox="0 0 68.07 69.13">
  <defs>
    <style>
      .cls-1 {
        fill: #bed1c0;
      }

      .cls-2 {
        fill: #b9d0bd;
      }

      .cls-3 {
        fill: #c2d6c7;
      }

      .cls-4 {
        fill: #b2c9b4;
      }

      .cls-5 {
        fill: #bdcec1;
      }

      .cls-6 {
        fill: #becfc4;
      }

      .cls-7 {
        fill: #bdcec3;
      }

      .cls-8 {
        fill: #bed1c3;
      }

      .cls-9 {
        fill: #cbe2d5;
      }

      .cls-10 {
        fill: #bfd3c2;
      }

      .cls-11 {
        fill: #b5caba;
      }

      .cls-12 {
        fill: #bdd3c0;
      }

      .cls-13 {
        fill: #acc4ab;
      }

      .cls-14 {
        fill: #c0d2c4;
      }

      .cls-15 {
        fill: #aabaae;
      }
    </style>
  </defs>
  <g id="_圖層_1-2" data-name="圖層_1">
    <g>
      <path class="cls-12" d="M29.53,63.83c-5.38,3.83-9.86,3.21-14.85,1.1-2.7-1.15-4.42-2.78-6.33-4.82-1.81-1.94-3.71-3.36-4.82-5.86C1.38,49.39.14,44.35,0,38.74c-.07-2.55.37-4.75,1.25-7.28.53-1.51.91-3.13,1.84-4.54.8-1.23,1.84-1.77,2.92-2.71,1.44-1.25,2.29-3.03,3.91-4.1,2.32-1.52,5.23-1.12,7.71-2.12,4.08-1.65,7.6-5.88,12.08-5.51,3.72.3,6.43,3.33,8.51,5.81,3.89,4.59,6.92,9.9,10.04,15.05l-18.75,30.5Z"/>
      <path class="cls-8" d="M29.36,59.54c-1.25-5,1.21-11.61,1.67-16.91.36-4.1.11-8.46-.14-12.48-.25-4.09-4.44-5.01-8.22-5.1-3.7-.09-8.2-.59-12,.37-2.61.66-5.76,1.9-7.74,3.92.65-2.48,1.13-4.33,3.07-6.34,1.93-2.01,4.06-3.59,6.62-4.68,1.87-.79,3.81-1.13,5.66-2.01,2.07-.98,4-2.56,6.25-2.63,2.92-.1,6.56.49,9.18,1.25,6.91,2.01,8.92,9.47,10.91,15.54l-15.27,29.06Z"/>
      <path class="cls-6" d="M34.84,40.92c-1.52-5.66-.54-11.42-.19-17.42.27-4.59-4.02-4.33-7.81-4.37-4.19-.04-8.56-.49-12.86.66-2.97.79-5.37,2.7-7.63,4.83-1.38-4.65,8.65-8.2,11.96-10.01,5.16-2.81,10.89-6.48,16.6-6.96,2.07-.18,4.73-.15,6.7.12,4.12.58,5.04,7.36,6.06,10.5l-12.84,22.64Z"/>
      <path class="cls-2" d="M62.43,29.88c3.58,8.4,3.38,17.07-2.23,26.3-4.19,6.88-10.66,11.25-18.4,12.52-6.38,1.05-16.09.74-15.58-7.06.49-7.46,6.18-14.51,7.6-21.94.88-4.64.95-9.44,2.86-14.02,1.65-3.93,4.29-5.26,8.21-5.12l17.55,9.33Z"/>
      <path class="cls-10" d="M61.33,35.49c1.41,4.21-.22,9.15-1.57,13.72-.56,1.86-1.32,3.63-2.45,5.32-.73,1.09-1.45,3.14-2.64,3.81-.74-3.51,1.65-8.31-2.08-10.54-3.62-2.16-5.84,4.93-7.85,6.9.23-3.81-1.25-6.62-1.99-10.09-.65-3.01-1.31-6.03-1.91-9.06-.69-3.45-1.01-7.01,2.75-9.8,4.78-3.56,10.93-3.4,14.23.11l3.51,9.64Z"/>
      <path class="cls-13" d="M65.32,29.76c2.46,3.89,3.49,8.42,2.17,13.46-.61,2.35-1.74,4.78-2.69,7.07-1.01,2.45-2.93,4.31-4.68,6.38-2.15,2.56-4.8,4.45-7.22,6.77.77-1.2,1.63-2.34,2.26-3.6.65-1.29.89-2.62,1.46-3.97.96-2.26,2.32-4.3,3.39-6.45.99-1.99,1.97-4.26,2.21-6.34.14-1.15.05-2.34.14-3.45.12-1.65,1.16-4.09.22-5.46l2.71-4.42Z"/>
      <path class="cls-11" d="M35.7,32.17c.04.86-.47,1.96-.75,2.86-.61,1.97-1.01,3.98-1.67,5.94-.86,2.58-1.7,5.08-2.49,7.67-.83,2.73-2.59,6.29-2.51,9.03,3.34-8.26,3.4-17.08,6.88-25.34l.54-.16Z"/>
      <path class="cls-9" d="M40.96,1.82c.11-.54.18-1.11-.24-1.44-.49.61-.66,1.57-1.18,2.23-.53.69-1.6,1.46-2.34,1.99-1.44,1.03-3.34,1.97-4.95,2.63-1.6.66-3.37,1.36-4.83,2.27-1.5.93-3.53,2.34-5.25,2.72,3.15-1.57,6.8-1.49,9.97-3.22,1.63-.89,3.37-1.6,5.03-2.42,1.46-.73,3.19-2.33,4.78-2.76.28-.41,0-.15-.17-.17l-.82-1.83Z"/>
      <path class="cls-1" d="M63.87,25.94c1.87,1.61,1.2,6.22.84,8.62-.35,2.37-1.05,5.8-2.31,8.01-.76-1.72-1.58-4.65-3.25-5.66-1.03-.63-3.82-1.01-5.11-1.04-1.92-.04-3.38,2.45-5.15,2.12-.9-.17-1.3-1.18-1.9-1.7-.68-.59-1.53-1.01-2.25-1.57-3.65-2.84-5.35-8.39-6.36-12.92-.7-3.13.23-8.58-2.71-10.5-1.33-.87-3.56-.33-5.22-.16-1.5.15-3.15.19-4.69.49,2.15-2.1,5.85-2.92,8.36-4.29,1.36-.74,2.54-1.39,3.82-2.27.96-.67,3.28-2,3.61-2.87-.16.05-.3.14-.41.27l22.71,23.46Z"/>
      <path class="cls-5" d="M43.36,24.01c1.38,1.4,1.57,3.87,2.32,5.7,1.19,2.9,2.37,5.7,3.13,8.81.57,2.36,1.08,4.8,1.57,7.2.21,1.05.66,2.67.35,3.65-.95-1.07-.11-4.07-.21-5.45-.34-4.8-2.73-8.98-3.68-13.57l-3.48-6.33Z"/>
      <path class="cls-14" d="M41.13,0c1.27.41,2.14,2.15,3.22,2.94,1.22.89,2.35,1.84,3.48,2.84,1.16,1.02,2.25,2.08,3.44,3.06,1.12.92,2.53,1.54,3.62,2.48,4.83,4.16,9,8.9,11.1,15.1.57,1.68,1.02,3.42,1.12,5.28.12,2.14-.23,4.6.17,6.63-1.82-2.3-3.3-4.82-6.12-5.91-2.68-1.04-5.01-2.08-7.92-2.74-3.65-.82-7.23-3.63-8.06-7.26-.97-4.19-.45-8.46-2.26-12.39-1.38-2.99-2.28-5.95-2.63-9.37.19.15.27.37.24.64l.59-1.32Z"/>
      <path class="cls-3" d="M41.69,1.5c-.8,1.05.24,2.84.23,3.99,0,1.18-.1,2.44-.2,3.63-.21,2.42-1.54,4.85-2.01,7.26-.46,2.39-1.12,4.82-1.75,7.26-.66,2.56-1.51,5.97-2.64,8.32,1.06-3.14,1.81-6.41,2.13-9.54.25-2.38,1.05-4.75,1.47-7.17.38-2.21.69-4.32,1.27-6.5.28-1.05.49-2.1.79-3.14.24-.8.28-2.09.73-2.78-.15.21-.29.42-.4.64l.38-1.98Z"/>
      <path class="cls-5" d="M55.67,19.3c1.37,1.35,2.14,3.91,2.42,5.86.3,2.19.63,4.33.99,6.53.44,2.64.45,5.52.54,8.25.07,2.13-.69,4.67-.09,6.66,1.54-5.67.95-11.24.46-16.65l-4.32-10.64Z"/>
      <path class="cls-7" d="M33.88,7.84c-3.22,2.69-6.26,4.98-9.82,7.16-5.84,3.58-10.34,8.88-14.36,14.09,2.53-2.05,4.48-5.21,6.79-7.59,1.56-1.61,3.23-3.22,4.93-4.66,1.67-1.42,3.41-2.77,5.11-4.15,1.89-1.53,4.55-4.52,6.94-4.53l.4-.32Z"/>
      <path class="cls-4" d="M67.48,39.37c-.52-.65-1.26-1.29-1.43-2.13-1.55,1.35-2.07,4.58-2.73,6.4-.67,1.87-1.34,3.82-2.25,5.65-1.08,2.17-2.23,4.16-3.23,6.31-.95,2.06-1.86,4.23-3.41,6.04,3.72-5.58,6.07-12.78,7-18.91.32-2.09.99-4.08,1.73-6.15.59-1.65,1.88-3.86,1.88-5.52l2.42,8.3Z"/>
      <path class="cls-15" d="M29.23,10.7c-.19.42-.48.94-1.09,1.33.68.18.94.82,1.15,1.47-.19-.61-.46-1.23-.86-1.71.12-.15.25-.31.38-.46-.39-.11-.68-.13-1.16.05.58.97,1.66,1.17,2.54,1.76-2.55,2.03,1.83,4.17,2.61,5.76.57,1.15.17,3.45,1.2,4.14.71-.35.63-.12,1.15-.12-.37.64-.72,1.29-1.05,1.96l-4.87-14.17Z"/>
      <path class="cls-15" d="M36.61,36.16c.49.6,1.21,1.21,1.56,1.89.35.68-.21,1.27.63,1.81.27-.18.62-.22.84-.36-1.43,2.63,3.6,4.8,3.69,7.11l-6.72-10.44Z"/>
      <path class="cls-15" d="M29.95,11.59c.48-.62.75-1.37.59-1.97-1.23,0-2.03,1.46-3.04.69-.5.36-.6.87-.5,1.46l2.95-.18Z"/>
    </g>
  </g>
</svg>