<?xml version="1.0" encoding="UTF-8"?>
<svg id="_圖層_2" data-name="圖層_2" xmlns="http://www.w3.org/2000/svg" viewBox="0 0 42.21 28.23">
  <defs>
    <style>
      .cls-1 {
        fill: #d0ddcf;
      }

      .cls-2 {
        fill: #d6dfd1;
      }

      .cls-3 {
        fill: #d3ded0;
      }

      .cls-4 {
        fill: #d4e0cf;
      }

      .cls-5 {
        fill: #d8e5d6;
      }

      .cls-6 {
        fill: #e4eedf;
      }
    </style>
  </defs>
  <g id="_圖層_1-2" data-name="圖層_1">
    <g>
      <path class="cls-3" d="M41.46,15.63c-.22-3.85-2.31-6.67-6.1-8.94,0,0-.01,0-.02-.01.04.04.09.08.13.12-2.82-.1-5.66-1-8.45-1.2-2.55-.2-5.26.02-7.79.5-2.38.45-4.85,1.18-6.98,2.34-.26.14-.51.28-.76.43-.39.24-.79.47-1.2.7-1.11.6-2.3,1.11-3.53,1.35l.02.11,10.33,1.27c1.38-.05,2.77-.01,4.17.05,3.66.14,17.94-1.24,20.18,3.28ZM28.47,27.31c-1.05-.79-1.64-1.97-2.29-3.11-1-.68-1.93-1.56-2.78-2.62-1.25-1.57-2.7-2.78-4.07-4.34-.73-.82-1.33-1.79-2.12-2.55-.8-.77-1.79-1.13-2.62-1.78-1.38-.07-2.75-.25-4.09-.63-1.29-.36-2.46-.75-3.69-1.08l.21,1.05c.22.14.44.29.65.44-.03.08-.07.12-.11.14-.1.06-.23-.06-.43-.04l-.11-.54c-.06-.04-.13-.08-.2-.12,0,.02,0,.04.02.06,1.33,5.04,8.24,7.68,12.12,10.41,2.23,1.57,4.32,3.58,6.97,4.38.86.26,1.7.35,2.54.33Z"/>
      <path class="cls-1" d="M35.47,6.8s-.09-.08-.13-.12c-1.87-1.74-3.71-3.19-6.05-4.26C24.73.32,19.82-.72,14.84.56c-.83.22-1.58.51-2.24.87-3.48,1.88-4.93,5.54-7.21,8.9l-.08.15c.33-.03.63-.12.88-.25.14-.08.27-.17.37-.28l-.16-.79.49.13c-.06.27-.17.48-.33.65l.2.97c1.23-.24,2.42-.76,3.53-1.35.41-.22.82-.46,1.2-.7.25-.15.5-.3.76-.43,2.14-1.15,4.6-1.89,6.98-2.34,2.53-.47,5.24-.7,7.79-.5,2.78.2,5.63,1.1,8.45,1.2Z"/>
      <path class="cls-4" d="M39.48,18.73c1.13-.61,1.97-1.48,2.01-2.91.05.51.14,1.03.24,1.54.08-.65-.02-1.23-.27-1.73-2.24-4.53-16.52-3.14-20.18-3.28-1.41-.06-2.79-.1-4.17-.05l4.61.57c-2.35-.02-4.76.16-7.13.04.84.65,1.83,1.01,2.62,1.78.79.76,1.39,1.74,2.12,2.55,1.37,1.55,2.81,2.76,4.07,4.34.85,1.07,1.78,1.94,2.78,2.62-.31-.54-.63-1.07-1.01-1.55l.56-.18c1.6.26,3.07.63,4.64.23.56-.14,1.05-.36,1.51-.61.38-.21.75-.43,1.11-.66.36-.23.73-.46,1.13-.68.13-.07.26-.13.39-.2,1.32-.64,3.41-.99,4.96-1.83Z"/>
      <path class="cls-5" d="M38.32,26.79c1.6-.86,2.9-2.22,3.55-3.97.67-1.83.21-3.64-.13-5.47-.1-.51-.19-1.03-.24-1.54-.04,1.43-.88,2.3-2.01,2.91-1.55.84-3.64,1.18-4.96,1.83-.13.07-.27.13-.39.2-.39.21-.76.45-1.13.68-.37.23-.73.46-1.11.66-.47.25-.96.47-1.51.61-1.57.4-3.04.02-4.64-.23l-.56.18c.39.48.71,1.01,1.01,1.55.65,1.14,1.24,2.33,2.29,3.11.27.2.57.38.9.52,1.94.8,4.96.26,6.95-.26.7-.18,1.37-.44,2-.78Z"/>
      <path class="cls-2" d="M2.97,10.25c-.99-.4-2-.76-2.97-1.12.55.32,1.73.82,2.97,1.12ZM6.56,9.94c.16-.17.27-.38.33-.65l-.49-.13.16.79ZM7.02,12.25l-.21-1.05c-.57-.15-1.15-.28-1.77-.39l1.73.22-.02-.11-.2-.97c-.1.11-.23.21-.37.28-.25.13-.55.22-.88.25-.69.08-1.52-.04-2.34-.23,1.33.53,2.64,1.12,3.85,1.88.07.04.14.08.2.12ZM7.57,12.82s.07-.06.11-.14c-.21-.15-.43-.3-.65-.44l.11.54c.21-.02.33.09.43.04Z"/>
      <path class="cls-6" d="M21.72,12.87l-4.61-.57-10.33-1.27-1.73-.22c.61.11,1.2.24,1.77.39,1.23.32,2.4.72,3.69,1.08,1.34.38,2.7.56,4.09.63,2.37.12,4.78-.05,7.13-.04Z"/>
    </g>
  </g>
</svg>