<?xml version="1.0" encoding="UTF-8"?>
<svg id="_圖層_2" data-name="圖層_2" xmlns="http://www.w3.org/2000/svg" viewBox="0 0 193.04 137.86">
  <defs>
    <style>
      .cls-1 {
        fill: #b2cea9;
      }

      .cls-2 {
        fill: #abc1ad;
      }

      .cls-3 {
        fill: #d7bf95;
      }

      .cls-4 {
        fill: #9f9684;
      }

      .cls-5 {
        fill: #aabbab;
      }

      .cls-6 {
        fill: #b2c7be;
      }

      .cls-7 {
        fill: #aec1b6;
      }

      .cls-8 {
        fill: #b0c8a8;
      }

      .cls-9 {
        fill: #b9d4b0;
      }

      .cls-10 {
        fill: #b8cfb3;
      }

      .cls-11 {
        fill: #d1e8c7;
      }

      .cls-12 {
        fill: #a3a086;
      }

      .cls-13 {
        fill: #afc2ba;
      }

      .cls-14 {
        fill: #b6c9bb;
      }

      .cls-15 {
        fill: #acbcb0;
      }

      .cls-16 {
        fill: #b1caaa;
      }

      .cls-17 {
        fill: #a89c80;
      }

      .cls-18 {
        fill: #c2d6b3;
      }

      .cls-19 {
        fill: #e2e6ce;
      }

      .cls-20 {
        fill: #bdbbab;
      }

      .cls-21 {
        fill: #a5b9a2;
      }

      .cls-22 {
        fill: #b8b59d;
      }

      .cls-23 {
        fill: #c8e3b8;
      }

      .cls-24 {
        fill: #c3d2b7;
      }

      .cls-25 {
        fill: #9f9d82;
      }

      .cls-26 {
        fill: #a6b397;
      }
    </style>
  </defs>
  <g id="_圖層_1-2" data-name="圖層_1">
    <g>
      <path class="cls-22" d="M164.04,25.14c4.08.26,8.62.27,12.63-.85,2.71-.77,8.2-1.14,9.6-3.9l-22.23,4.75Z"/>
      <path class="cls-25" d="M142.85,54.44l-1.45.21c-.23-1.62-.97-4.19-1.75-5.52-.4-.68-.91-1.29-1.45-1.93-.97-1.15-1.97-2.33-2.39-3.98-.58-2.31.24-7.56,2.02-10.16.7-1.03,1.51-1.61,2.41-1.73l.18,1.45c-.57.07-1.07.63-1.39,1.1-1.62,2.35-2.26,7.2-1.8,8.97.33,1.33,1.18,2.33,2.07,3.4.56.65,1.14,1.34,1.6,2.13.88,1.5,1.68,4.25,1.95,6.04Z"/>
      <path class="cls-2" d="M140.77,49.27c4.62,6.78,9.28,7.05,16.95,6.36,6.54-.6,10.9,1.76,16.41,4.99,5.6,3.3,11.19,7.28,10.86,14.53-.3,6.66-5.52,10.6-11.5,12.31-13.55,3.9-23.24-6.63-31.5-15.84l-1.23-22.35Z"/>
      <path class="cls-6" d="M144.86,105.25c-8.18-2.87-14.3-10.07-18.3-17.71-4.62-8.8-1.65-16.67,4.37-23.82,3.43-4.07,6.83-8.12,10.12-12.31,4.06,3.06,7.03,9.83,9.44,14.16,3.94,7.09,3.65,15.7.34,23.21l-5.97,16.47Z"/>
      <path class="cls-7" d="M140.69,103.22c-3.56-2.31-6.51-5.06-4.37-9.06,1.96-3.67,4.76-6.53,6.5-10.34,1.6-3.51,2.18-6.75,2.85-10.62.59-3.38.75-8.26,2.98-10.94,3.14,3.34,7.22,5.36,11.33,7.3,3.93,1.87,8.41,2.02,11.73,5.07,9.9,9.1-4.11,19.39-13.08,20.74l-17.93,7.85Z"/>
      <path class="cls-5" d="M153.49,103.66c-2.78,6.08-15.03-3.05-17.91-5.12,5.12.71,12.71-6.24,13.82-10.77,1.3-5.32,1.08-10.72,1.89-16.28,4.97,3.33,10.1,8.1,16.33,8.9,6.17.79,14.61-3.99,16.53-10.01,1.43,5.26,2.46,11.06-1,16.16-2.29,3.37-11.52,11.04-15.97,8.05l-13.68,9.07Z"/>
      <path class="cls-3" d="M120.51,34.01c-5.47-.42-10.49.78-15.79,2.02l-1.18.28c-1.2.28-2.44.56-3.67.83-3.93.87-7.99,1.78-11.77,3.08-.57.19-1.16.39-1.78.6-3.8,1.26-8.54,2.83-11.24,5.44-7.29,7.11-6.5,22.18-5.98,32.15l.06,1.23-1.45.08-.06-1.23c-.54-10.24-1.35-25.71,6.41-33.26,2.93-2.85,7.86-4.49,11.81-5.8.61-.2,1.19-.39,1.76-.59,3.85-1.32,7.96-2.24,11.93-3.13,1.23-.27,2.45-.54,3.65-.82l1.17-.28c5.44-1.27,10.55-2.49,16.25-2.06l-.12,1.46Z"/>
      <path class="cls-9" d="M80.41,131.84c-14.27,16.55-24.7-3.93-33.11-25.93,1.08-1.09-4.78-24.78,13.13-27.2,3.17-.42,9.05,0,8.49-4.86,1.53,10.22,35.75,40.98,9.31,60.16l2.17-2.18Z"/>
      <path class="cls-10" d="M14.07,60.38c-3-.9-1.68.88-4.39-.85-2.68-1.72-7.64-6.78-8.8-9.74-2.43-6.23.52-14,4.39-19.02C.08,20.74,5.15,8.35,14.53,2.33c11.22-7.19,19.91,3.7,23.75,13.08,2.16,5.29,5.24,9.54,9,13.82-1.6,2.28-4.74,3.2-6.42,6.18-1.67,2.97-2.91,6.33-4.28,9.43-1.98,4.44-7.04,14.25-12.79,13.62l-9.71,1.93Z"/>
      <path class="cls-3" d="M76.82,44.81c-5.13.2-8.2-2.13-11.76-4.82-1.11-.84-2.24-1.72-3.51-2.55-1.32-.86-2.77-1.59-4.18-2.3-1.06-.54-2.17-1.1-3.19-1.69-.95-.57-2.1-.95-3.31-1.34-1.82-.6-3.71-1.22-5.05-2.58l1.05-1.02c1.09,1.1,2.72,1.64,4.46,2.21,1.23.41,2.49.83,3.59,1.47.97.58,2.01,1.1,3.11,1.66,1.44.72,2.93,1.47,4.32,2.38,1.31.86,2.47,1.74,3.61,2.61,3.33,2.52,6.2,4.7,10.82,4.52l.05,1.46Z"/>
      <path class="cls-12" d="M193.04,20.2c-.07.02-19.72,4.15-30.11,6.88-18.14,4.78-20.55,5.42-20.91,5.52h0c-5.05,1.05-9.75,1.16-13.69,1.14-.7-.01-1.7.13-2.75.28-2.98.43-6.39.91-8.02-1.05l1.49-1.25c.94,1.13,4.02.69,6.27.38,1.13-.16,2.18-.3,3.03-.31,3.84.03,8.39-.08,13.25-1.09.56-.15,10.7-2.83,20.83-5.5q20.91-5.52,20.98-5.53l9.63.53Z"/>
      <path class="cls-11" d="M46.72,29.3c-1.73-.88-6.02.17-8.14.25-3.92.17-7.67-.72-11.54-.5,3.37-.43,6.6-1.51,9.92-1.62,3.66-.12,6.39.94,9.77,1.86Z"/>
      <path class="cls-24" d="M7.87,54.53c3.58,3.62,12.39.55,16.33-.79,5.22-1.79,10.48-6.64,11.93-12.24-.73,6.9-5.7,15-11.67,18.59-4.68,2.82-15.94,2.77-16.8-4.53l.21-1.03Z"/>
      <path class="cls-18" d="M68.84,78.5c-2.31,3.76-3.3,10.11-3.67,14.36-.8,9.1-2.62,18.04-3.68,27.11l7.35-41.47Z"/>
      <path class="cls-1" d="M72.4,134.45c2.6-3.26,4.31-5.66,4.44-9.74.13-3.93-1.26-7.21-1.98-10.92-.71-3.66-.59-7.37-1.43-11.05-.96-4.22-.5-8.67-1.53-12.78,1.2,10.29,9.15,16.88,10.95,26.78.89,4.86-2.94,19.99-10.45,17.7Z"/>
      <path class="cls-14" d="M140.92,53.06c2.33,2.16,4.48,5.83,6.79,8.27,2.78,2.92,4.29,5.52,5.84,9.31-.84-4-2.37-7.08-5.23-10.06-2.34-2.42-3.18-4.84-5.95-7.02l-1.45-.5Z"/>
      <path class="cls-21" d="M137.42,99.91c8.06,6.12,23.41-1.28,24.66-11.11,3.77,4.3,13.1,1.07,16.95-1.33,5.84-3.63,6.05-8.16,5.92-14.15,3.6,7.7-2.57,22-11.37,23.58-4.94.87-6.79,2.24-10.7,5.52-3.56,2.97-7.34,5.51-12.12,5.19-5.61-.38-9.61-3.59-13.87-6.93.27-.45.69-.73,1.22-.85l-.68.09Z"/>
      <path class="cls-16" d="M5.32,27.34c-3.75-8.5.74-17.41,7.8-22.74,9.3-7.02,17.99-3.74,22.41,6.37,2.04,4.69,4.13,9.11,6.83,13.47-6.81-4.4-11.39-12.52-20.31-11.55-5.19.55-14.02,4.56-14.08,10.99l-2.65,3.46Z"/>
      <path class="cls-8" d="M11.97,12.27c4.29-5.41,9.23-7.03,14.89-2.66l-14.89,2.66Z"/>
      <path class="cls-23" d="M41.39,27.94c.33.33,1.57.25,2.07.28.57.05,1.04.15,1.6.32.52.16.96.22,1.44.41.53.2.98.53,1.47.82,2.27,1.36,4.84,2.04,6.95,3.64.65.5,1.28,1.01,1.98,1.41.65.36,1.54.61,2.11,1.08-.45-.41-1.33-.67-1.89-.92-.56-.23-1.03-.55-1.58-.79-1.15-.53-2.32-.88-3.43-1.46-1.1-.58-2.31-1.01-3.49-1.44-1.2-.45-2.36-.38-3.54-.7-.83-.23-1.66-.47-2.47-.74-.5-.16-.92-.45-1.41-.64-.75-.3-1.6-.34-2.35-.66l2.54-.62Z"/>
      <path class="cls-4" d="M72.57,46.51c-.05-1.35-1.23-2.32-2.39-3.16,1.35-1.1,4.93.14,7.09-.57l-4.7,3.74Z"/>
      <path class="cls-26" d="M65.6,79.88c1.68-2.43,1.72-6.74,1.66-9.49.69,2.84,1.61,6.12,3.07,8.55l-4.72.95Z"/>
      <path class="cls-17" d="M67.83,67.29c-.02-3.3.37-8.8,1.67-11.86l-1.67,11.86Z"/>
      <path class="cls-20" d="M72.4,46.24c-.34-.32-1.18-1.97-1.95-2.71,1.11.95,3.04.82,4.35.35l-2.41,2.36Z"/>
      <path class="cls-15" d="M138.7,99.21c12.42-1.4,12.06-14.72,13.28-24.27,3.75,3.17,8.37,6.82,13.38,7.38,4.31.49,10.99-1.61,13.65-5.27-8.85,2.57-14.53-1.38-22.65-3.96-3.73-1.18-6.22-4.42-7.05.9-.61,3.9-1.64,7.79-3.07,11.48-2.09,5.48-5.1,8.81-8.93,13.14l1.38.6Z"/>
      <path class="cls-13" d="M135.42,98.08c-2.68-5.35,1.93-13.91,4.45-18.56,3.31-6.1,7.21-13.15,7.79-20.18.7,2.67-.53,5.95-.89,8.63-.37,2.7-.55,5.46-.89,8.21-.49,3.87-2.76,10.16-6.59,12.06l-3.87,9.84Z"/>
      <path class="cls-19" d="M141.64,52.41c-.17-.48-.45-.81-.56-1.31-.09-.38-.16-.82-.29-1.21-.22-.68-.46-1.3-.81-1.91-.36-.65-.77-1.32-1.31-1.84-.51-.48-1.09-1.06-1.4-1.71-.32-.65-.47-1.29-.5-2.02.21.81.52,1.61,1.07,2.24.52.63,1.08,1.25,1.61,1.85.51.58,1.02,1.13,1.45,1.78.4.61.49,1.15.61,1.87.09.5.26.96.36,1.46.14.62.05,1.4.45,1.92.05.03.02,0-.06-.04l-.61-1.06Z"/>
      <path class="cls-22" d="M137.03,34.85c-.75-.55-.99-1.3-1.79-1.79.61-1.01,2.82-1.42,3.98-1.54l-2.19,3.33Z"/>
    </g>
  </g>
</svg>