<?xml version="1.0" encoding="UTF-8"?>
<svg id="_圖層_2" data-name="圖層_2" xmlns="http://www.w3.org/2000/svg" viewBox="0 0 366.62 302.37">
  <defs>
    <style>
      .cls-1 {
        fill: #b8c5bd;
      }

      .cls-2 {
        fill: #e7f4ed;
      }

      .cls-3 {
        fill: #c0cfcb;
      }

      .cls-4 {
        fill: #d7ded3;
      }

      .cls-5 {
        fill: #b9bcb8;
      }

      .cls-6 {
        fill: #c9dbd8;
      }

      .cls-7 {
        fill: #c8d7ce;
      }

      .cls-8 {
        fill: #c0ccc5;
      }

      .cls-9 {
        fill: #c7beb7;
      }

      .cls-10 {
        fill: #bbcbc5;
      }

      .cls-11 {
        fill: #bcc9c2;
      }

      .cls-12 {
        fill: #d4dbd1;
      }

      .cls-13 {
        fill: #bfc8c3;
      }

      .cls-14 {
        fill: #eaecdf;
      }

      .cls-15 {
        fill: #ede8dc;
      }

      .cls-16 {
        fill: #ccdbd7;
      }

      .cls-17 {
        fill: #d8cecb;
      }

      .cls-18 {
        fill: #c7d7d5;
      }

      .cls-19 {
        fill: #b8c3bc;
      }

      .cls-20 {
        fill: #b3c0b6;
      }

      .cls-21 {
        fill: #d3ccc6;
      }

      .cls-22 {
        fill: #c6d5d1;
      }

      .cls-23 {
        fill: #ceded9;
      }

      .cls-24 {
        fill: #b8c6bd;
      }

      .cls-25 {
        fill: #b6adab;
      }

      .cls-26 {
        fill: #cedfd8;
      }

      .cls-27 {
        fill: #b4b0b2;
      }

      .cls-28 {
        fill: #f6f5ed;
      }

      .cls-29 {
        fill: #b8c4bd;
      }

      .cls-30 {
        fill: #c7d6cd;
      }

      .cls-31 {
        fill: #b6afac;
      }

      .cls-32 {
        fill: #c7c1bb;
      }

      .cls-33 {
        fill: #cccfca;
      }

      .cls-34 {
        fill: #d0ddd6;
      }

      .cls-35 {
        fill: #d1d2c8;
      }

      .cls-36 {
        fill: #dfe1d3;
      }

      .cls-37 {
        fill: #c6d5cd;
      }

      .cls-38 {
        fill: #dadfd4;
      }

      .cls-39 {
        fill: #bac8c0;
      }

      .cls-40 {
        fill: #bbc8c4;
      }

      .cls-41 {
        fill: #bfccc5;
      }

      .cls-42 {
        fill: #c5cfc8;
      }

      .cls-43 {
        fill: #f5eee1;
      }

      .cls-44 {
        fill: #ccded6;
      }

      .cls-45 {
        fill: #bcc5bf;
      }

      .cls-46 {
        fill: #c7c3b9;
      }

      .cls-47 {
        fill: #aeb1ae;
      }

      .cls-48 {
        fill: #ccd5d0;
      }

      .cls-49 {
        fill: #b8bdb9;
      }

      .cls-50 {
        fill: #c0cdc6;
      }

      .cls-51 {
        fill: #c8d9d3;
      }

      .cls-52 {
        fill: #c3cec8;
      }

      .cls-53 {
        fill: #c4cfc8;
      }

      .cls-54 {
        fill: #bec3be;
      }

      .cls-55 {
        fill: #c1ccc6;
      }

      .cls-56 {
        fill: #eceddf;
      }

      .cls-57 {
        fill: #bfc5c0;
      }

      .cls-58 {
        fill: #c9dad1;
      }

      .cls-59 {
        fill: #bbc4be;
      }

      .cls-60 {
        fill: #dedfda;
      }

      .cls-61 {
        fill: #d9e0d3;
      }

      .cls-62 {
        fill: #bbc7bf;
      }

      .cls-63 {
        fill: #bfc6c1;
      }

      .cls-64 {
        fill: #cbc1c3;
      }

      .cls-65 {
        fill: #f6f2ec;
      }

      .cls-66 {
        fill: #c8d6cd;
      }

      .cls-67 {
        fill: #c3cfc9;
      }

      .cls-68 {
        fill: #e0e7db;
      }

      .cls-69 {
        fill: #bec0b8;
      }

      .cls-70 {
        fill: #c3d2ce;
      }

      .cls-71 {
        fill: #b0aca9;
      }

      .cls-72 {
        fill: #c4d3d1;
      }

      .cls-73 {
        fill: #c5d7cd;
      }

      .cls-74 {
        fill: #beccc7;
      }

      .cls-75 {
        fill: #bfcac5;
      }

      .cls-76 {
        fill: #b9c9c3;
      }

      .cls-77 {
        fill: #c6c6c3;
      }

      .cls-78 {
        fill: #c6d5d0;
      }

      .cls-79 {
        fill: #b3b4b2;
      }

      .cls-80 {
        fill: #dbddd2;
      }

      .cls-81 {
        fill: #c0cecb;
      }

      .cls-82 {
        fill: #bcc9c5;
      }

      .cls-83 {
        fill: #f0f5e9;
      }

      .cls-84 {
        fill: #e4e8dc;
      }

      .cls-85 {
        fill: #d5cfc9;
      }

      .cls-86 {
        fill: #b9c2bc;
      }

      .cls-87 {
        fill: #bac0ba;
      }

      .cls-88 {
        fill: #fbf3ed;
      }

      .cls-89 {
        fill: #c7c1be;
      }

      .cls-90 {
        fill: #c4d4cf;
      }

      .cls-91 {
        fill: #e3e9e2;
      }

      .cls-92 {
        fill: #cdc9bc;
      }

      .cls-93 {
        fill: #ecf4ec;
      }

      .cls-94 {
        fill: #c5d2cd;
      }

      .cls-95 {
        fill: #becbc5;
      }

      .cls-96 {
        fill: #bfcdc5;
      }

      .cls-97 {
        fill: #bcc9c1;
      }

      .cls-98 {
        fill: #c1cfcb;
      }

      .cls-99 {
        fill: #b9b4b2;
      }

      .cls-100 {
        fill: #b8c6c0;
      }

      .cls-101 {
        fill: #daded7;
      }

      .cls-102 {
        fill: #bdc8c1;
      }
    </style>
  </defs>
  <g id="_圖層_1-2" data-name="圖層_1">
    <g>
      <path class="cls-71" d="M362.59,214.55l.09-.59-.59.6c.17-.02.34-.02.5,0ZM356.3,219.18c2-.69,3.98-1.57,4.77-2.36l.09-.09c-1.63.92-3.28,1.77-5.05,2.45h.19ZM352.72,218.33c-.08.01-.17.03-.25.05-.28.06-.52.14-.75.23.34-.09.67-.18,1-.28ZM347.1,219.45c-.45,0-.91,0-1.37.08-.62.09-1.24.2-1.86.3,1.1-.13,2.19-.25,3.23-.38ZM327.49,225.24l.89-.59c.2-.14.44-.26.67-.41-.36,0-.73,0-1.09,0l-.34.29.19.15c-.16-.05-.53-.07-1.04-.07l-.58.39,1.29.24ZM310.33,226.57c1.4-1.17,3.25-2.14,4.9-3.02-.35.02-.69.04-.99.06-.43.02-.84.05-1.19.05-1.28.71-2.53,1.5-3.49,2.4l-1.37,1.28c.71-.23,1.43-.5,2.14-.77ZM288.76,216.91l1.61.32-.17.1c1.26.28,2.58.46,3.91.62,1.82.24,3.7.48,5.51,1.01l1.13.34c2.55.78,4.74,1.44,7.31,1.82.58.09,1.14.2,1.68.3,1.08.22,2.09.41,3.19.44.31,0,.74-.04,1.2-.05,1.55-.1,3.3-.2,4.37.55l.29.2c.58-.1,1.22-.14,1.92-.17,1.67-.02,3.36,0,4.99.02,2.5.03,5.09.07,7.68-.11.76-.05,1.51-.12,2.26-.21,1.08-.22,2.18-.38,3.25-.49-1.13.07-2.25.14-3.36.24.99-.49,2.09-.86,3.24-1.15-1.13.11-2.31.28-3.46.51-.75.09-1.5.16-2.26.21-2.6.18-5.18.14-7.69.1-1.63-.02-3.32-.04-4.97,0-.72.02-1.35.07-1.93.17l-.29-.2c-1.07-.76-2.82-.66-4.37-.56-.46.02-.88.06-1.2.05-1.1-.02-2.11-.22-3.19-.43-.54-.1-1.1-.22-1.68-.31-2.57-.38-4.77-1.04-7.32-1.82l-1.13-.34c-1.81-.54-3.69-.78-5.51-1.02-1.33-.16-2.65-.33-3.91-.62l.18-.1-1.8-.34c-.27-.09-.54-.19-.8-.3.4.46.83.91,1.31,1.21ZM283.39,214l.28-.22c-.18-.24-.35-.49-.52-.74l-.27.21.51.75ZM282.19,213.98s-.05-.1-.08-.14l-.02.02s.07.08.1.13ZM243.08,217.44c6.81,0,13.69-.41,20.37-.82,2.54-.15,5.19-.31,7.78-.44,1.74-.09,3.96.27,6.32.64,2.58.41,5.4.86,7.56.67-.38-.26-.73-.55-1.05-.85-2.05.06-4.54-.35-6.84-.71-2.36-.38-4.57-.73-6.32-.65-2.6.14-5.24.3-7.78.44-6.67.41-13.57.83-20.37.83-3.22,0-9.68-.85-15.52-1.73l-.37.78c6.01.92,12.88,1.84,16.22,1.84ZM217.17,213.19c-.34-.06-.63-.11-.88-.15.29.06.58.11.88.15Z"/>
      <path class="cls-9" d="M63.34,145.98c0-.1-.02-.21-.03-.31l-.47.15c.17.04.34.09.5.16ZM63.24,145.27s-.01-.06-.02-.09l.06.12c.1.09.2.19.31.28l-.16.05.21.49c-.1-.05-.19-.1-.29-.15.01.09.02.19.02.29.11.02.21.05.32.08.93.23,1.9.47,2.89.61,1.03.14,2.1.05,3.12-.05.85-.08,1.64-.15,2.42-.11,1.4.09,3.49.32,5.48.91,4.19,1.23,7.49,2.79,9.84,4.67l.05-.07c-.75-.61-1.38-1.27-1.89-2.16-.17-.07-.32-.14-.44-.22-.58-.36-1.06-.7-1.71-.95.12-.07.24-.1.37-.11-1.73-.83-3.71-1.57-5.92-2.22-2.08-.6-4.25-.85-5.71-.93-.86-.06-1.75.03-2.59.1-1.01.1-1.96.19-2.87.06-.94-.12-1.83-.35-2.77-.58-.31-.07-.61-.15-.93-.22.07.07.14.14.22.2Z"/>
      <path class="cls-73" d="M243.71,285.83c4.36,1.75,8.28,1.93,12.59-1.25,4.87-3.58,9.23-8.5,13.68-12.61,6.52-6.01,11.8-13.19,16.46-20.72,1.2-1.94,2.28-3.86,3.1-5.8,1.57-3.72,2.19-7.54.76-11.82,5.55,5.36,10.33,11.07,12.9,18.51,3.43,9.93,3.45,22.12-.73,31.99-3.3,7.79-9.21,14.14-18.11,16.79-15.92,4.74-31.38-2.61-40.65-15.09Z"/>
      <path class="cls-58" d="M287.68,232.14l.23-.28c.18.02.34.07.49.14.06-.08.13-.16.2-.24-1.07-.52-2.44.04-3.59-.62l5.74.06c.12-.03.25-.06.37-.09-4.09-.73-8.12-1.53-12.1-2.15,2.84,1.21,5.69,2.42,8.65,3.19ZM225.59,258.96c-4.02,10.91,6.92,21.43,15.76,25.81.81.4,1.59.76,2.37,1.07,4.36,1.75,8.28,1.93,12.59-1.25,4.87-3.58,9.23-8.5,13.68-12.61,6.52-6.01,11.8-13.19,16.46-20.72,1.2-1.94,2.28-3.86,3.1-5.8,1.57-3.72,2.19-7.54.76-11.82-.05-.15-.1-.29-.15-.44-1.09.67-2.31,1.73-3.33,1.91.11-.39.24-.76.39-1.11.09-.2.18-.4.28-.6-.62.46-1.26.91-1.92,1.35l-25.76,31.74c.37-1.1.79-2.19,1.25-3.27,3.73-8.81,10.28-17.23,17.28-23.39,2.18-1.92,4.8-3.45,7.23-5.07l1.72-2.11c-1.61.05-3.23.17-4.82-.23-2.36-.58-4.4-1.59-6.92-1.56-10.14.11-18.27,2.56-27.26,7.15-7.94,4.06-17.21,11.61-21.97,19.34,0-.07,0-.13,0-.2,0,.02-.02.04-.02.06-.24.58-.48,1.16-.7,1.75Z"/>
      <path class="cls-80" d="M310.86,228.46c1.38-.56,2.43-1.22,3.34-1.82-.67.25-1.35.51-2.02.77-1.49.59-3.03,1.19-4.51,1.62l-1.38,1.28,4.56-1.85ZM227.02,215.78c.48.07.95.14,1.4.17l.31,1.38c-.7.06-1.41.05-2.11-.02l-.04.08c6.07.93,13.02,1.87,16.51,1.87,6.85,0,13.77-.42,20.47-.82,2.55-.15,5.18-.31,7.77-.45,1.56-.08,3.69.26,5.93.62,3.99.63,8.1,1.3,10.73-.02,1.91.64,3.92.91,5.91,1.17,1.74.22,3.56.45,5.21.94l1.12.34c2.62.79,4.87,1.47,7.57,1.88.54.08,1.08.19,1.6.28,1.1.22,2.25.44,3.5.47.05,0,.11,0,.16,0,.35,0,.76-.03,1.19-.05.3-.03.64-.05.99-.06-1.66.87-3.51,1.85-4.9,3.02.44-.17.89-.34,1.33-.52,2.05-.8,4.16-1.62,6.17-2.01,1.06-.21,3.59-.52,5.74-.7,4.6-.39,4.87-.07,5.14.25l-.76.65c.36,0,.73,0,1.09,0-.24.15-.47.27-.67.41l-.89.59-.96.64,2.18.42c2.35.45,4.9-.59,7.38-1.59,1.34-.54,2.74-1.11,4.04-1.39,1.22-.08,2.36-.08,3.31,0,3.27.28,5.66-.32,8.46-1.04l.21-.05h.52s0-.13,0-.13c.29-.08.59-.15.9-.22.03,0,1.36-.33,3.03-.88,2.22.05,4.82-.11,5.76-2.32.01-.03.03-.07.04-.1.12-.29.2-.62.26-.99l.27-1.86c-.57.34-1.15.67-1.72,1l-.09.09c-.79.79-2.77,1.67-4.77,2.36h-.19c-1.16.44-2.36.81-3.64,1.09-4.46.95-9.05,1.07-13.59,1.34-1.07.11-2.17.27-3.25.49-.75.09-1.5.15-2.26.21-2.59.18-5.18.14-7.68.11-1.63-.03-3.31-.05-4.99-.02-.71.03-1.35.08-1.92.17l-.29-.2c-1.07-.75-2.82-.65-4.37-.55-.46.02-.89.05-1.2.05-1.1-.03-2.11-.22-3.19-.44-.53-.1-1.09-.21-1.68-.3-2.57-.38-4.77-1.05-7.31-1.82l-1.13-.34c-1.81-.54-3.69-.77-5.51-1.01-1.33-.16-2.66-.34-3.91-.62l.17-.1-1.61-.32c.19.12.39.22.6.29l-.09.22c-1.56-.25-2.82-.96-4.01-1.96-.61-.51-1.14-1.07-1.6-1.68l-.28.22,2.19,3.22c-1.31-.31-2.29-1.4-3.02-2.58l-.14.11c.48.63,1,1.29,1.63,1.89.32.3.66.59,1.05.85-2.16.2-4.98-.26-7.56-.67-2.35-.37-4.57-.73-6.32-.64-2.6.14-5.24.3-7.78.44-6.68.4-13.56.82-20.37.82-3.34,0-10.21-.92-16.22-1.84l-.04.08c.07.03.13.06.2.09ZM225.66,217.25c-.69-.19-1.46-.3-2.28-.36.73.12,1.5.24,2.28.36Z"/>
      <path class="cls-64" d="M169.07,214.38c.3-.7.63-1.36,1.02-1.93.56-.8,1.26-1.44,2.05-1.96,0,0,0,0,0,.01,2.14-.65,4.15-.83,6.19-1.09l.03.1-.48.14c-2.43.76-5.2,1.61-6.58,3.61-.35.49-.64,1.07-.91,1.71-.42,1-.77,2.12-1.11,3.22-.2.69-.41,1.34-.63,1.95.69-2.36,1.28-4.69,1.92-7.01-.39.32-.58,1.07-.83,1.5-.35.59-.62,1.19-.98,1.79-.32.54-.62,1.13-.88,1.75-.74,1.74-1.24,3.73-1.42,5.46-.12,1.13-.52,2.15-.7,3.27-.1.65-.24,1.52-.46,2.26l-1.01,2.04c-.32,0-.65.02-.98.09.3-.45.56-.92.79-1.46.25-.59.46-1.28.64-2.13.49-2.28,1.22-4.63,2.31-7.43.3-.75.56-1.59.84-2.49.36-1.16.73-2.34,1.18-3.41Z"/>
      <path class="cls-99" d="M213.39,212.11c.66.5,1.59.84,2.56,1.34-.88.08-1.68-.22-2.38-.74.03.08.06.16.08.25.05.05.1.09.15.13,1.63,1.24,4.08,1.38,6.69,1.53,2.17.12,4.43.24,6.31,1.07l.04-.08.37-.78.08-.17c-1.98-1.02-4.44-1.13-6.81-1.22-1.16-.05-2.28-.1-3.33-.25-.3-.04-.59-.09-.88-.15-.94-.2-1.79-.52-2.49-1.04-.23-.18-.43-.39-.58-.62.05.25.11.5.18.74ZM163.7,200.19c4.75,2.58,9.67,5.24,14.97,7.31,9.78,3.8,19.34,4.93,28.3,5.43-2.53-.41-5.05-.89-7.53-1.51-6.73-.64-13.72-1.9-20.85-4.57-5.36-2.01-10.54-4.59-15.55-7.08-.48-.24-.97-.48-1.45-.72.71.38,1.41.77,2.12,1.14ZM160.65,200.61c-2.32-1.25-4.68-2.49-7.1-3.64-.28-.09-.56-.16-.85-.22-.11-.02-.22-.05-.33-.07,2.79,1.24,5.56,2.59,8.28,3.93ZM149.07,193.48l.06-.14c-.33-.13-.67-.25-1-.38l.95.52Z"/>
      <path class="cls-46" d="M150.55,195.09c.16-.06.32-.13.46-.21-.11-.04-.22-.08-.33-.12l-.13.33ZM149.13,193.34l-.06.14,2.15,1.17.08.04c.05-.04.1-.08.15-.12l.79.89c1.86.45,3.65,1.69,5.18,2.95.13.08.24.17.32.27-.11-.09-.21-.18-.32-.27-.6-.37-1.61-.59-2.18-.82-.56-.22-1.12-.45-1.69-.63,2.42,1.15,4.78,2.39,7.1,3.64.73.39,1.46.79,2.18,1.18,3.91,2.12,7.93,4.29,12.2,6.16.36-.32.69-.68.95-1.12l4.67,2.24c-.7.13-1.39.23-2.08.32,10.71,4.07,21.08,5.03,30.68,5.47,2.01.08,3.93.55,5.96,1.03.75.19,1.52.36,2.32.53,1.16.25,2.52.3,3.82.36.68.03,1.37.06,2.03.11.82.07,1.59.17,2.28.36.3.08.58.18.84.3l.08-.15.04-.08c-2.33-.21-4.68-1-6.96-1.83,2.38-.72,4.98-.07,7.36.29-.07-.03-.14-.06-.2-.09-1.88-.83-4.13-.95-6.31-1.07-2.62-.15-5.07-.29-6.69-1.53-.05-.04-.11-.09-.15-.13.12.34.26.67.41,1-2.37-.33-4.74-.66-7.11-1.04-8.96-.49-18.51-1.62-28.3-5.43-5.3-2.07-10.22-4.73-14.97-7.31-.7-.38-1.41-.76-2.12-1.14-3.96-2.13-8.04-4.25-12.35-5.95l-.1.26Z"/>
      <path class="cls-64" d="M150.47,195.29c.59-.04,1.18.03,1.77.17l-.79-.89s-.1.08-.15.12l.15.08-.09.23c-.12-.03-.24-.07-.36-.12-.14.08-.3.15-.46.21l-.08.2ZM140.22,200.83c.37-.22.74-.44,1.14-.68,1.42-.85,2.88-1.73,4.19-2.41.79-.4,1.87-.56,2.89-.72.85-.13,1.71-.26,2.49-.53-.31-.02-.62-.04-.91-.06-.3-.02-.68-.04-1.06-.04.02,0,.04,0,.05.01-.03,0-.06-.01-.09-.01-.32,0-.66.01-.97.06-1.12.25-2.25,1.04-3.21,1.5-1.84.88-3.65,2.04-5.27,3.36.25-.18.5-.34.75-.49ZM133.15,206.51c.03-.12.07-.23.12-.35.3-.71.97-1.47,1.51-1.89l-.08-.15,1.55-1.46c1.82-1.37,3.67-3.09,5.74-3.97,1.06-.45,2.19-.74,3.25-1.19.53-.22,1.27-.6,2.01-.87l.06-.08.15-.07c.48-.38.96-.66,1.45-.85-.09-.04-.17-.08-.26-.12-.14.02-.28.04-.43.07-1.15.18-2.34.35-3.35.87-1.34.69-2.83,1.59-4.27,2.45-.39.23-.77.46-1.13.68-.98.58-1.93,1.36-2.85,2.11-.47.39-.91.75-1.34,1.08-1.04.77-1.87,1.78-2.69,2.77-.19.24-.39.46-.58.69.37.1.75.19,1.12.28Z"/>
      <path class="cls-98" d="M212.49,209.2c-.27,1.53.14,2.33.91,2.92-.07-.25-.13-.49-.18-.74-.24-1.11-.34-2.23-.35-3.37-.02.04-.03.08-.05.12-.15.36-.26.72-.32,1.07ZM162.08,173.17c1.7-.7,4.8,1.05,5.17,3.18l-5.17-3.18ZM161.99,192.8c4.3,4.01,9.92,6.3,15.14,8.84,5.54,2.69,10.85,5.91,16.65,8.05,1.86.69,3.75,1.25,5.66,1.73,2.48.62,5,1.1,7.53,1.51,2.36.38,4.74.71,7.11,1.04-.15-.33-.29-.67-.41-1-.03-.08-.06-.17-.08-.25-1.15-.85-2.03-2.28-2.47-3.48-.37-.97-.63-1.92-1.02-2.88-.13-.33-.48-.89-.69-1.41-3.75-2.37-7.36-5.69-10.5-9.25-3.69-3.19-5.71-6.34-8.23-10.68-2.26-3.86-6.19-6.84-7.88-10.99-.92-2.27-.94-5.64-.34-8.77-1.58-.65-3.18-1.11-4.41-.94-1.78.24-4.48,2.66-5.36,4.72-.21.51-.32,1-.27,1.42-6.84-2.01-11.75,1.31-13.83,6.22-2.13,5.03-1.31,11.72,3.4,16.12Z"/>
      <path class="cls-67" d="M235.27,198.87c-.03.14-.06.29-.1.45.84-.4,1.68-.87,2.51-1.42.93-.61,1.8-1.24,2.65-1.88-1.9.78-3.79,1.59-5.65,2.51.2.08.39.19.58.34ZM233.46,200.04l-.71-.5c-.87.48-1.74,1-2.59,1.56,1.12-.31,2.21-.64,3.3-1.06ZM230.54,195.22c.47.15.86.43,1.29.59-.99.48-2.11,1.33-2.61,2.36l-.42-1.92c.97-.68,1.7-1.51,2.24-2.53.68.12,1.37.29,1.91.75-.8.36-1.26.77-2.4.75ZM217.93,163.52c1.17,2.41,2.41,5.32,2.68,8.03.3,2.95.7,8.38-.46,11.12-.02.05-.04.09-.06.13l-3.17,4.96c-.62,3.3-1.53,6.51-2.4,9.33l-.98,1.05c-.3.67-.61,1.34-.89,2-.56,1.33-1.05,2.66-1.3,3.97l.66.94c-.26-.1-.51-.21-.76-.33,0,.06-.01.11-.02.16.38.23.77.42,1.17.57l.61-.86c.32-1.14.55-2.32.79-3.52.38-1.89.77-3.82,1.55-5.68.19-.44.4-.88.64-1.32,2.18-3.97,4.96-8.53,6.51-12.19.11-.25.21-.5.3-.74-2.96,7.6-5.92,15.21-8.89,22.82,2.76-1.15,8.13-.77,11.1-1.56,1.71-.46,3.35-.83,4.95-1.26.79-.61,1.57-1.26,2.34-1.92l-1.38-.98c.84.19,1.65.05,2.43.05,3.71-3.33,7.24-7.11,10.65-10.43,2.95-2.86,9.91-7.27,11.85-11.83-.78-1.17-1.53-2.23-2.16-3.09,0,.02-.02.05-.03.07-.43,1.02-1.3,1.75-2.49,1.68l.85-3.66c-2.15-1.97-4.76-2.96-7.07-4.91-1.91-1.6-3.76-2.83-5.8-3.9-1.17.18-2.36.53-3.46.61-2.86.21-4.81-.57-7.44-1.69-5.87-2.49-8.69-5.8-15.47-6.06-1.77-.07-3.44.1-5.07.41,4.26,1.47,8.15,3.78,10.21,8.04ZM205.2,156.19s-.03-.08-.05-.11c-.03,0-.06.01-.08.02.04.03.09.06.13.09Z"/>
      <path class="cls-8" d="M210.31,204.27c.29.22.6.43.92.62,0-.05.02-.11.02-.16-.39-.18-.77-.38-1.15-.59l.22.14ZM209.22,204.09s.02-.09.03-.13c.04-.09.1-.16.2-.21-.72-.44-1.42-.94-2.11-1.48.63.59,1.25,1.19,1.88,1.81ZM209.39,204.94c-.06-.14-.1-.27-.14-.4-2.6-3.08-6.51-5.71-9.4-8.04-.33-.27-.65-.54-.96-.81,3.14,3.56,6.75,6.88,10.5,9.25ZM197.63,182.68c1.69,3.32,3.75,6.8,6.03,9.85,1.15,1.53,2.86,2.9,3.88,4.56,1.33,2.11,1.06,4.53,3.19,6.15l.62.88c.26-1.31.74-2.64,1.3-3.97.28-.67.58-1.34.89-2l-.84.9c.84-3.04-.7-7.78-1.34-10.87-.82-3.98-1.8-7.52-3.19-11.26-1.39-3.74-2.33-7.54-3.55-11.38-.71-2.27-1.51-5.9-3-8.47-1.16.34-2.34.68-3.57.98-3.36.83-6.46,2.41-9.09,4.57,1.82,6.88,5.74,14.31,8.66,20.05ZM194.06,186.09c2.3,5.04,5.57,8.73,9.19,12.28-3.46-3.88-6.38-8.56-8.71-12.4-3.75-6.17-7.38-14.29-7.18-21.9-.55.54-1.07,1.11-1.56,1.71,1.71,7.02,5.23,13.69,8.25,20.31Z"/>
      <path class="cls-53" d="M185.71,157.23c.59-1.4,1.51-2.67,3-3.73,7.62-5.45,18.51-3.71,27.11-5.33,5.85-1.1,9.74.88,13.06,5.56,3.93,5.53,7.5,4.17,13.02,6.91l.07.29c-2.26-.44-4.6-.56-6.79-.57,1.44.59,2.75,1.19,3.99,1.84-1.17.18-2.36.53-3.46.61-2.86.21-4.81-.57-7.44-1.69-5.87-2.49-8.69-5.8-15.47-6.06-1.77-.07-3.44.1-5.07.41-1.03-.36-2.08-.66-3.14-.93.17.51.36,1.02.57,1.52-.03,0-.06.01-.08.02-1.9-1.29-3.96-1.99-6.14-1.71,1.11.47,1.98,1.45,2.7,2.69-1.16.34-2.34.68-3.57.98-3.36.83-6.46,2.41-9.09,4.57-.34-1.29-.61-2.55-.78-3.79-.51,1.7-.77,3.45-.82,5.23-.55.54-1.07,1.11-1.56,1.71-.44-1.82-.76-3.65-.92-5.53.17-1.05.42-2.06.82-3.02Z"/>
      <path class="cls-55" d="M235.17,160.37c2.2.01,4.53.13,6.79.57,2.72.53,5.33,1.52,7.42,3.33,3.05,2.66,5.43,6.35,8.15,9.34,3.7,4.08,5.99,6.44,6.47,12.18.2,2.37-.06,4.16-.68,5.63-.62,1.47-1.6,2.61-2.86,3.68.13-.23.25-.47.38-.71.17-.34.34-.68.48-1.03,1.34-3.16,1.48-6.59.08-9.62.25-.34.45-.66.58-.97.45-1.06.08-1.91-1.64-2.35l-4.02-7.41c.16,1-.02,2.01-.45,3.02,0,0,0,0,0,.01-.78-1.17-1.53-2.23-2.16-3.09.14-.36.23-.75.26-1.15-.52-.32-1.29-.78-1.92-.84l-.02.07c-2.15-1.97-4.76-2.96-7.07-4.91-1.91-1.6-3.76-2.83-5.8-3.9-1.24-.65-2.55-1.25-3.99-1.84Z"/>
      <path class="cls-78" d="M213.4,205.29c2.58-.64,5.3-.49,8-.23,3.34-.19,6.83-.15,8.31-.36,1.68-.25,3.7-.34,5.72-.57,2.99-.93,5.89-2.23,8.24-3.6-1.68,2.45-4.95,3.22-8.24,3.6-3.06.95-6.2,1.52-8.95,1.39-1.64-.08-3.35-.29-5.07-.46-1.94.11-3.83.3-5.24.67,3.35.24,6.87,1.59,9.94,2.19,4.55.91,8.1,1.12,12.7.66,9.14-.94,17.13-5.32,21.66-13.48.13-.23.25-.47.38-.71.17-.34.34-.68.48-1.03,1.34-3.16,1.48-6.59.08-9.62-2.42,3.18-9.86,7.37-11.03,7.96-3.35,1.67-6.72,2.96-10.03,4.32-.84.64-1.72,1.27-2.65,1.88-.84.55-1.67,1.02-2.51,1.42-.08.34-.18.71-.32,1.04-.08.18-.16.34-.26.48l-1.13-.8c-1.08.42-2.18.75-3.3,1.06-.47.3-.94.63-1.4.96.4-.3.81-.6,1.2-.91-1.59.43-3.24.81-4.95,1.26-2.97.79-8.35.41-11.1,1.56-.17.44-.34.88-.51,1.32ZM212.58,205.52c.05-.01.11-.03.16-.05.1-.29.18-.58.27-.87l-.61.86c.06.02.12.04.18.06Z"/>
      <path class="cls-23" d="M133.01,274.65c-.73-.12-1.36-.34-1.86-.69.11-.17.24-.34.38-.51-.79.58-1.63,1.14-2.47,1.61,1.32-.08,2.64-.22,3.95-.41ZM140.86,241.83s.05-.09.08-.13c.21.9.41,1.81.6,2.72.16.67.29,1.34.4,2.01.15.78.29,1.56.43,2.33.31,1.77.11,3.12-.34,4.54-.04,1.27-.53,2.56-.83,3.79-.49,1.96-1.04,4.25-1.92,6.33,0,.01-.01.03-.02.05-.04.11-.08.23-.13.34-.11.26-.24.52-.39.77-.46.91-1.01,1.75-1.65,2.48-.04.07-.08.13-.12.2-.81,1.43-1.66,2.68-2.75,3.84,4.23-2.88,10.87-5.21,14.43-7.07,4.05-2.14,6.99-4.86,10.36-8.12,2.37-2.29,6.74-8.06,9.76-8.59l2.16.84c-.11.28-.23.56-.35.86-.53,1.24-1.13,2.53-1.82,3.83.97-1.2,1.88-2.42,2.74-3.67,1.2,1.3.9,4.17,1.17,5.79.05.34.11.66.16.98.12-.14.23-.26.31-.36-.11.45-.13,1.07-.13,1.84,0,.14.02.28.02.42.51-3.11.63-6.27.23-9.54-.36-2.95-1.27-5.71-2.45-8.44-1.08-2.49-2.14-5.82-4.16-7.71-.16-.15-.33-.29-.5-.4.03.22.08.43.16.63-.23-.23-.44-.31-.63-.3-.1.26-.2.52-.3.77-1.16,2.74-3,4.99-4.72,7.41-2.58,3.63-5.3,7.38-8.08,11.04,2.24-3.6,4.66-7.05,6.69-10.83.9-1.67,1.99-3.45,3-5.05.36-.57,1.12-2,1.88-3.13.02-.29.03-.58.01-.87l.12-.25c-.32,0-.65.02-.98.09-1.51.29-3.05,1.23-4.37,1.93-3.81,2.05-7.53,3.85-11.8,4.69-2.66.52-4.78,1.09-6.71,2.39.14.51.29,1.02.43,1.53Z"/>
      <path class="cls-18" d="M172.99,259.18c.04-.45.05-.88.03-1.3,0-.14-.01-.28-.02-.42,0,.51,0,1.09-.01,1.73ZM116.97,281c1.57,5.48,5.17,8.12,10.27,7.95.76-.02,1.57-.16,2.4-.35-1.2.09-2.3.02-3.12-.34,2.76-.91,8.81-2.86,11.5-4.05,5.91-2.64,10.58-6.03,15.66-10,3.78-2.95,7.68-5.69,11.05-9.16,1.54-1.59,6.46-7.17,8.1-9.08-.05-.32-.1-.64-.16-.98-.28-1.63.02-4.5-1.17-5.79-.86,1.25-1.77,2.47-2.74,3.67-3.38,6.43-8.61,13.08-14.93,15.75-3.95,1.67-15.27,6.93-20.82,6.04-1.31.2-2.63.34-3.95.41-.3.16-.59.32-.88.47-1.63.8-4.58,2.22-6.38,2.07.45-.18.9-.39,1.33-.61-2.06.49-4.22.68-6.34.94-.22.79-.18,1.79.18,3.07Z"/>
      <path class="cls-16" d="M94.69,215.89c.84-1.98,1.76-3.9,2.82-5.74,3.74-6.46,10.19-12.5,18.21-10.71,3.36.75,6.29,2.63,9.33,4.17,2.27,1.15,4.57,1.98,6.98,2.61.37.1.75.19,1.12.28,0,.02-.01.04-.02.07,0,.03-.01.06-.02.09-.21.21-.37.5-.5.82-.08.2-.16.41-.23.61-.07.2-.14.4-.22.58-.04.09-.08.17-.12.25-.79,1.5-1.96,2.82-2.69,4.34-1.03,2.15-2.02,3.9-3.41,5.83-1.14,1.59-2.22,3.27-3.28,4.95-3.8,4.92-7.72,9.7-12.22,14.03-4.49,4.31-9.05,8.48-13.86,12.42-1.71,1.4-3.8,3.31-4.66,5.35-.39.93-.53,1.89-.26,2.83-1.08-1.34-1.87-3.01-2.45-4.46-1.5-3.73-2-7.92-1.79-11.93.19-3.6.77-7.16,1.87-10.59,1.68-5.21,3.23-10.68,5.4-15.81Z"/>
      <path class="cls-51" d="M141.95,246.44c-.11-.67-.25-1.34-.4-2.01.14.67.27,1.34.4,2.01ZM140.49,241.1c.08.33.16.65.22.96.05-.08.1-.15.15-.23-.14-.51-.29-1.02-.43-1.53,0,0,0-.01,0-.02-.07-.24-.13-.48-.18-.72.08.55.14,1.09.25,1.53ZM91.65,258.68c.21.75.68,1.49,1.48,2.2.76.69,1.58,1.44,2.44,2.15,0-.01-.01-.02-.02-.03.42.26.88.49,1.37.68-.2-.17-.4-.34-.6-.52-.99-.9-2.5-2.12-3.4-3.36-.23,0-.46,0-.68,0,.17-.08.34-.16.51-.24-.14-.21-.26-.42-.35-.62.7-.04,1.39-.1,2.07-.17,6.87-3.09,13.9-5.87,20.66-9.5,4.13-2.21,8.31-4.56,11.89-7.54,1.73-1.45,3.71-3.13,5.57-4.65,1.92-1.57,3.76-4.47,5.96-5.41l-2.37,4.64c-.4.92-.84,1.8-1.3,2.64,1.79-1.74,3.67-3.06,4.6-1.87.25.31.41.72.52,1.18-.4-2.85-.24-5.98-.63-8.76-.59-4.22-2.11-7.86-3.25-11.97-.55-1.98-.72-4.04-1-6.07-.24-1.66-.17-3.49-.41-5.17-.25.33-.48.68-.66,1.05-.02.04-.03.07-.05.11-.05.12-.1.26-.16.4-.04.12-.09.24-.14.35-.01.5-.2,1.14-.48,1.79-.59,1.4-1.56,2.93-1.99,3.68-.99,1.76-2.09,3.58-3.44,5.13-2.62,2.98-5.16,6.15-7.52,9.38-.74,1.38-1.54,2.75-2.53,3.62.81-1.21,1.66-2.42,2.53-3.62.52-.97,1.01-1.94,1.51-2.73.29-.46.59-.92.88-1.38-3.8,4.92-7.72,9.7-12.22,14.03-4.49,4.31-9.05,8.48-13.86,12.42-1.71,1.4-3.8,3.31-4.66,5.35-.39.93-.53,1.89-.26,2.83Z"/>
      <path class="cls-90" d="M96.32,263.15c.2.18.4.35.6.52,1.62.64,3.55.91,5.34.87,6.04-1.43,13.06-5.8,17.98-8.49,4.9-2.68,14.43-7.59,17.34-13.19l.67-1.71c-.09.36-.21.71-.36,1.07-.09.22-.2.43-.31.65l-2.01,5.16c1.84-1.89,3.72-3.84,5.14-5.96-.07-.31-.14-.63-.22-.96-.11-.44-.17-.98-.25-1.53-.06-.45-.13-.9-.24-1.32-.12-.46-.28-.87-.52-1.18-.93-1.19-2.8.14-4.6,1.87-3.77,6.76-9.61,10.83-17.12,13.64-7.36,2.76-16.95,7.18-24.85,7.22.9,1.24,2.41,2.46,3.4,3.36ZM92.75,259.55c.57-.26,1.14-.53,1.72-.79-.68.07-1.37.12-2.07.17.09.21.21.41.35.62Z"/>
      <path class="cls-81" d="M95.55,262.99c.42.26.88.49,1.37.68,1.62.64,3.55.91,5.34.87-1.55.37-3.03.54-4.4.44,7.4,2.85,14.82-2.83,21.59-5.51,5.33-2.1,12.34-5.49,15.36-9.53l.75-1.92c1.84-1.89,3.72-3.84,5.14-5.96.05-.08.1-.15.15-.23.03-.04.05-.09.08-.13.21.9.41,1.81.6,2.72.14.67.27,1.34.4,2.01.15.78.29,1.56.43,2.33.31,1.77.11,3.12-.34,4.54.02-.73-.1-1.45-.49-2.15-3.85,6.12-7.6,11.32-12.97,16.22-4.57,4.16-10.6,7.38-16.76,8.22-2.55.34-5.1.56-7.65.83.89.84,1.55.54,2.59.66,1.06.12,1.88.61,2.83.97-1.8-.08-3.56-.43-5.2-1.17-4.77-2.18-6.63-9.5-8.84-13.85,0-.01-.01-.02-.02-.03Z"/>
      <path class="cls-74" d="M138.74,264.59c-.51.89-1.19,1.72-1.65,2.48.64-.73,1.19-1.57,1.65-2.48ZM106.76,277.08c1.06.12,1.88.61,2.83.97.19.07.38.13.57.19,1.22.34,2.54.36,3.82.11.91-.17,1.85-.3,2.8-.41,2.12-.26,4.28-.45,6.34-.94,3.03-1.54,5.6-3.91,7.89-6.45,1.32-1.46,2.3-3.05,3.5-4.47.67-.82,1.53-1.25,2.29-1.94,1.03-.9,1.49-2.21,2.52-3.09l-.09.22c.32.75.27,1.5.03,2.22,0-.02.02-.04.02-.05.88-2.08,1.44-4.37,1.92-6.33.3-1.23.79-2.53.83-3.79.02-.73-.1-1.45-.49-2.15-3.85,6.12-7.6,11.32-12.97,16.22-4.57,4.16-10.6,7.38-16.76,8.22-2.55.34-5.1.56-7.65.83.89.84,1.55.54,2.59.66Z"/>
      <path class="cls-32" d="M140.12,188.61l4.14,2.25c-.45-.3-.89-.6-1.34-.9l-.34-.23c-2.4-1.63-4.89-3.31-6.85-5.23-2.35-2.31-4.88-4.37-7.51-6.24l11.9,10.34ZM126.76,177.42c.75.74,1.66,1.48,2.49,2.28-.43-.54-.84-1.12-1.3-1.62-.56-.39-1.12-.78-1.69-1.16.17.16.34.33.5.49ZM105.88,166.27c4.38,1.72,8.12,4.37,12.22,6.65l-12.22-6.65ZM105.49,166.53l-.07.29s0,.02-.02.04c-.09.22-.25.4-.44.55.61.37,1.23.71,1.86,1.02l.11.06c10.1,4.92,19.65,9.58,27.53,17.32,2.07,2.04,4.75,3.84,7.1,5.44l.34.23c2.13,1.43,4.3,2.91,6.75,4.05.09.04.17.08.26.12.51-.2,1.03-.32,1.55-.35l.08-.2.13-.33c-.79-.31-1.56-.7-2.31-1.07-.99-.48-2.11-.93-3.06-1.5-2.13-1.27-4.29-2.56-6.26-4.16-2.33-1.47-4.52-3.2-6.56-5.04-.72-.66-1.42-1.32-2.09-2.01.31.41.57.84.76,1.29l-6.63-6.46c-.13-.08-.25-.16-.37-.23v.03c.2.79.51,1.53,1.14,2l-1.49-.95c-1.25-.37-2.19-1.22-2.77-2.53-.07-.17-.14-.34-.2-.52-4.3-2.45-8.73-4.61-13.11-6.75l-.11-.05c-.67-.33-1.34-.7-1.98-1.11l-.14.84ZM96.49,158.23c1.17.96,2.39,1.87,3.3,3.11.73.96,1.08,2.13,1.77,3.1l-6.31-7.19c-.88-.72-1.83-1.59-2.09-2.38l2.09,2.38c.47.38.91.72,1.23.98ZM86.8,150.84c-.23-.31-.75-.51-1.19-.7.51.89,1.13,1.55,1.89,2.16.48.39,1.02.77,1.62,1.17,1.85,1.27,3.21,2.65,4.79,4.27l.7.71c2.55,2.61,5.35,5.46,8.46,7.7.94-.26,1.48-.42,1.51-.43l.75-.22c-3.47-2.24-6.6-5.43-9.44-8.31l-.7-.72c-1.64-1.68-3.06-3.14-5.06-4.49-.86-.58-1.51-1.05-2.02-1.54.16.3.34.58.55.81.24.15.49.31.74.47-.28-.08-.53-.25-.74-.47-1.12-.7-2.18-1.36-2.74-2.72-.02-.06-.04-.12-.07-.18h-.11s1.05,2.5,1.05,2.5Z"/>
      <path class="cls-21" d="M124.14,175.6v-.03s.1-.3.1-.3c-.07-.02-.14-.04-.2-.06.03.13.06.26.1.39ZM120.84,173.6c.06.18.12.35.2.52.58,1.31,1.51,2.16,2.77,2.53l-.27-.17c-.3-.31-.63-.67-.85-1.05-.19-.33-.23-.71-.37-1.06-.41-.97-.88-1.87-1.01-2.94-.24-2.09.04-4.47.77-6.44.2-.52.33-1.06.54-1.58.1-.22.16-.52.27-.79.08-.18.17-.35.31-.46,0,.52-.11,1.04-.17,1.56.11-.31.22-.59.33-.85.07-.17.14-.33.22-.48.83-1.7,1.84-3.23,2.9-4.84.29-.44.58-.89.87-1.32.53-.83,1.43-1.63,2.3-2.39.63-.56,1.28-1.13,1.83-1.74l-1.02-.66c-.14.02-.27.04-.4.06-.41.42-.88.83-1.35,1.25-.94.83-1.93,1.69-2.57,2.69-.28.44-.57.88-.86,1.3-1.04,1.6-2.11,3.22-2.98,5.01-.08.15-.15.33-.23.51-1.09,2.58-2.36,7.9-1.21,11.32Z"/>
      <path class="cls-26" d="M131.63,149.05c.09.06.18.12.28.19.02-.05.05-.09.07-.14-.11-.04-.21-.09-.31-.15l-.04.1ZM129.99,149.41c.25.09.5.17.75.23.09-.13.18-.25.28-.37-1.32-.7-2.63-1.42-3.97-2.09-.85-.37-1.7-.72-2.55-1.08,1.74,1.18,3.38,2.51,5.49,3.31ZM107,136.05c-1.09-1.59-2.08-3.41-2.83-5.38.52,2.1,1.5,3.8,2.83,5.38ZM109.7,117.72c1.09,3.3,1.74,6.7,2.84,9.98,1.01,3.01,3.61,5.22,5.6,7.64,1.93,2.34,4.23,4.27,6.06,6.65,1.89,2.49,4.12,4.29,6.19,6.53l.36.39c-.09-.05-.18-.1-.28-.14l.62.41c.09-.1.2-.2.31-.29.08.05.15.1.23.16.97-2.51,2.05-5.2,2.96-7.94.16-1.37.72-2.87,1.26-4.36.2-.81.36-1.62.5-2.43,0-1.91,0-3.83.32-5.71.14,1.86,0,3.77-.32,5.71,0,.34,0,.68,0,1.02.38-1.15.67-2.27.68-3.3.02-2.74-.45-5.3-.04-8.05.5-3.44,1.36-6.78,1.68-10.25.42-4.53.3-10.11,2.18-14.57.23-.55.49-1.08.79-1.59-4.29-4.8-11.32-4.53-17.46-3.13-6.89,1.57-12.28,7-15.82,12.94-.84,2.99.43,7.64,1.33,10.34ZM107.24,109.84c.12.24.22.53.3.87.14-1.05.38-2.12.77-3.23-.1.18-.21.35-.31.53-.51.9-.99,1.84-1.42,2.81.21-.33.43-.65.67-.98Z"/>
      <path class="cls-44" d="M134.59,141.1c.48-1.44.92-2.9,1.26-4.36-.54,1.49-1.1,2.99-1.26,4.36ZM138.68,113.72c-.31,3.47-1.17,6.81-1.68,10.25-.41,2.75.06,5.31.04,8.05-.01,1.04-.3,2.16-.68,3.3,0,1.4-.05,2.79-.26,4.14-.15.94-.39,1.93-.7,2.94.36-.44.74-.86,1.13-1.26.7-3.12,1.54-6.21,2.77-9.12.61-1.43,1.31-2.83,2.14-4.15,3.41-5.48,8.8-9.57,12.87-14.54,3.38-4.11,8.47-13.73,14.78-13.41.4.02.8.08,1.17.18-6.15-7.27-18.8-12.13-26.36-5.31-.92.82-1.65,1.76-2.24,2.78-.3.51-.56,1.04-.79,1.59-1.89,4.46-1.76,10.03-2.18,14.57Z"/>
      <path class="cls-58" d="M139.29,132.02c.61-1.43,1.31-2.83,2.14-4.15,3.41-5.48,8.8-9.57,12.87-14.54,3.38-4.11,8.47-13.73,14.78-13.41.4.02.8.08,1.17.18,2.15.56,3.89,2.28,5.2,4.38.35,1.2.66,2.47.87,3.77-.45-.66-.98-1.23-1.61-1.68l-.49-1.75c-.09,1.36-.43,2.65-.95,3.87-2.11,5-7.28,8.91-11.48,12.3-6.17,4.97-13.76,8.02-19.55,13.54-1.33,1.27-2.61,2.7-3.81,4.04-.53.6-.99,1.37-1.47,2.12-.15.14-.3.29-.45.44.7-3.12,1.54-6.21,2.77-9.12Z"/>
      <path class="cls-67" d="M135.25,142.86c.27-.28.54-.56.81-.83.32-.4.62-.86.91-1.33-.15.14-.3.29-.45.44-.39.39-.77.81-1.13,1.26-.05.15-.1.31-.15.46ZM134.16,150.06c-.42.34-.89.7-1.36,1.08,4.71-.6,9.46-1.05,14.02-2.38,9.53-2.8,20.96-8.12,27.02-16.22,1.71-2.27,3.32-4.83,4.47-7.55.84-1.98,1.42-4.04,1.62-6.13.51-5.39-2.32-10.3-4.66-14.96.06.19.12.39.18.59.35,1.2.66,2.47.87,3.77,1.63,2.41,2,5.95,1.1,8.6-.17.49-.35.98-.56,1.46-1.91,4.51-5.4,8.49-9.8,10.55-.22.47-.46.93-.72,1.38-1.23,2.11-2.8,4.88-4.55,6.58-1,.99-2.31,1.68-3.62,2.36-.62.43-1.26.78-1.89,1-.46.27-.91.56-1.33.87l.24-.62c.35-.03.72-.11,1.09-.25.61-.35,1.25-.68,1.89-1,1.42-.98,2.73-2.35,3.46-3.44.76-1.11,1.11-2.49,1.9-3.61.69-.98,1.61-1.79,2.32-2.75-1.08.4-2.2.69-3.37.84-9.9,1.32-19.21,4.63-26.45,11.83-.25.32-.52.61-.81.84-.35,1.07-.76,2.15-1.21,3.19-.47,1.11-.97,2.19-1.45,3.18-.21-.02-.41-.07-.61-.15-.02.05-.04.09-.07.14.68.44,1.44.85,2.25.82ZM130.04,151.51c.13-.02.27-.04.4-.06l-.25-.16-.26.23s.07,0,.1-.02Z"/>
      <path class="cls-67" d="M131.01,149.27s.05-.06.08-.08l-.62-.41c-1.13-.57-2.27-1.09-3.42-1.59,1.34.67,2.65,1.38,3.97,2.09ZM104.17,130.66c.75,1.98,1.74,3.79,2.83,5.38,1.26,1.85,2.66,3.4,4,4.6,3.05,2.75,6.59,3.27,10.42,4.3.47.13.94.27,1.4.43-.38-.16-.76-.33-1.14-.51-3.38-1.53-5.99-4.03-8.51-6.71-5.66-5.96-5.75-12.9-5.78-20.73,0-2.44-.13-4.57.16-6.73-.08-.33-.18-.63-.3-.87-.23.32-.45.65-.67.98-.87,1.34-1.58,2.68-2.14,3.99-2.46,5.82-2,11.29-.27,15.86Z"/>
      <path class="cls-45" d="M8.66,188.88s.1.08.15.13c2.04,2.56,4.75,4.45,8.29,5.82,2.76,1.06,5.62,1.67,8.26,3.03,3.25,1.68,6,2.86,9.73,1.91,4-1.02,7.87-4.54,12.11-4.34,3.48.18,5.73,3.43,8.84,4.61,5.64,2.15,12.32-3.04,14.52-8.22.1-.23.19-.46.27-.69.64-1.85.58-3.76.77-5.69.18-1.9.8-3.44,1.54-5.18v-.02c.61-1.42.65-2.73.31-3.94.01-.03.03-.06.04-.09.39-.83.78-1.67,1.16-2.52,0,.02,0,.03.01.05,1.66,5.67,1.67,11.8-.61,17.2-2.59,6.12-8.13,11.3-17.58,13.77-5.58,1.47-11.6,1.68-17.33,2.25-5.81.57-11.33-.19-16.15-3.68-3.87-2.8-7.19-6.53-10.6-9.87-1.52-1.49-2.72-2.97-3.71-4.54Z"/>
      <path class="cls-24" d="M8.81,189.01c.2.17.4.33.6.47,3.94,2.83,10.67,1.79,14.69-.37,3.82-2.06,7.17-4.97,10.97-7.11-.09.46-.24.91-.43,1.36-.43,1.02-1.08,2.01-1.72,2.99-.64.99-1.29,1.97-1.71,2.98-.03.06-.05.13-.08.2-1.22,3.07.7,2.15,3.03,2.8-.12.26-.36.7-.56,1.18-.34.79-.58,1.69-.03,2.03.7.45,4.38-2.08,5.05-2.39,4.24-2.02,8.2-5.93,12.77-7.03,2.94-.71,5.2-.91,5.89,2.39.68,3.19.43,6.32.44,9.54,4.62,1.21,9.25-4.12,10.93-8.08.09-.21.16-.4.23-.6,1.19-3.32,3.02-7.21,3.59-11,.31-.69.63-1.37.95-2.06.35,1.21.3,2.52-.3,3.94v.02c-.74,1.74-1.37,3.28-1.55,5.18-.18,1.92-.12,3.84-.77,5.69-.08.23-.17.46-.27.69-2.19,5.18-8.88,10.37-14.52,8.22-3.11-1.19-5.36-4.43-8.84-4.61-4.24-.21-8.11,3.32-12.11,4.34-3.73.94-6.49-.24-9.73-1.91-2.64-1.37-5.49-1.98-8.26-3.03-3.54-1.36-6.25-3.26-8.29-5.82Z"/>
      <path class="cls-97" d="M4.91,182.41c1.05.83,2.28,1.27,3.69,1.17,1.24-.09,1.9-1.07,2.43-2.3.15-.35.28-.72.42-1.09,3.01-.32,6.06-.52,9-1.2.11-.02.22-.05.33-.07,1.58-.11,3.17-.17,4.77-.16,3.69,0,7.27-.75,10.94-.98,2.12-.13,3.89.15,5.95.33,2.02.18,3.76-1.1,5.78-1.01-.07.18-.14.37-.22.55-.86,2.03-2.26,4.11-3.37,5.99-.91,1.55-2.94,2.92-3.66,4.64-.11.26-.19.52-.23.8,2.85-1.77,5.27-3.9,7.94-5.89,2.1-1.57,4.41-2.82,6.53-4.36.93-.68,2-1.4,3.15-1.61,1.22-.25,2.57.41,3.6-.55.97,1.33-.24,3.7-.16,5.23.13,2.46,1.14,0,2.74.43,1.67.44.92,3.17-.25,5.94-.47,1.1-1,2.21-1.47,3.18-.48.98-.9,1.82-1.14,2.4-.07.17-.13.32-.17.44,2.65-2.45,5.03-4.66,7.22-7.59.62-.84,1.09-1.76,1.49-2.71.39-.92.72-1.87,1.08-2.8.16-.41.33-.83.5-1.23.22-.53.46-1.06.69-1.58-.57,3.8-2.4,7.68-3.59,11-.07.19-.15.39-.23.6-1.67,3.96-6.3,9.29-10.93,8.08-.01-3.22.24-6.35-.44-9.54-.69-3.3-2.94-3.1-5.89-2.39-4.56,1.1-8.53,5.01-12.77,7.03-.67.31-4.35,2.84-5.05,2.39-.54-.34-.3-1.24.03-2.03.2-.48.44-.92.56-1.18-2.33-.65-4.25.27-3.03-2.8.03-.07.05-.13.08-.2.43-1.01,1.07-2,1.71-2.98.64-.99,1.29-1.98,1.72-2.99.19-.45.34-.9.43-1.36-3.79,2.14-7.15,5.05-10.97,7.11-4.02,2.16-10.75,3.2-14.69.37-.2-.14-.4-.3-.6-.47-.05-.04-.1-.08-.15-.13-1.31-1.16-2.58-2.85-3.21-4.33-.29-.7-.43-1.42-.55-2.14Z"/>
      <path class="cls-54" d="M63.42,145.63l.16-.05c-.11-.09-.21-.19-.31-.28l.15.33ZM20.17,146.86c-.07.4-.07.76-.03,1.09,0-.01,0-.03.01-.04.17-.84.41-1.66.71-2.46-.01-.49.02-.98.08-1.47-.22.97-.61,1.87-.77,2.88ZM21.29,129.56c-.35,2.83-1.33,5.51-.95,8.38.21,1.54.76,3.04.77,4.61,0,.17,0,.33-.02.49.27-1.41.73-2.81,1.08-4.16.8-3.05,1.14-6.27,2.35-9.13.52-1.24,1.21-2.41,2.17-3.47,3.56-3.95,8.98-5.6,14.01-3.78,5.52,2,10.6,6.58,13.82,11.42,2.2,3.29,3.62,7.05,5.32,10.63.1.05.2.09.3.14.97.06,1.9.27,2.72.67,0,.03-.01.07-.03.1-.05.13-.17.21-.34.24l.08.08c.09.01.18.03.26.05l.47-.15c-.02-.14-.04-.27-.07-.4-.07-.07-.15-.13-.22-.2-4.07-3.99-3.91-9.11-6.36-14.03-2.65-5.31-7.74-9.57-13.37-11.27-6.01-1.82-14.29-1.77-19.44,2.38-.8.65-1.32,1.39-1.66,2.19-.67,1.58-.67,3.4-.91,5.22Z"/>
      <path class="cls-59" d="M24.53,129.74c.52-1.24,1.21-2.41,2.17-3.47,3.56-3.95,8.98-5.6,14.01-3.78,5.52,2,10.6,6.58,13.82,11.42,2.2,3.29,3.62,7.05,5.32,10.63-10.24-4.67-24.12-12.8-34.35-5.37-2,1.45-3.45,3.43-4.4,5.66-.09.2-.17.4-.24.61-.01-.49.02-.98.08-1.47.04-.31.09-.63.15-.94.27-1.41.73-2.81,1.08-4.16.8-3.05,1.14-6.27,2.35-9.13Z"/>
      <path class="cls-63" d="M21.11,144.83c.94-2.23,2.39-4.21,4.4-5.66,10.22-7.42,24.1.71,34.35,5.37.1.05.2.09.3.14-2.16-.14-4.58.41-6.87.99-1.33.21-2.67.48-3.99.79-2.73-1.3-5.73-2.07-9.12-2.04-6.88.08-13.67,2.33-20.18,5.19-.02-.5.02-1.06.15-1.67,0-.01,0-.03.01-.04.17-.84.41-1.66.71-2.46.08-.21.16-.41.24-.61Z"/>
      <path class="cls-57" d="M63.24,145.27c.03.13.05.26.07.4.01.1.03.2.03.31.1.04.2.09.29.15l-.21-.49-.15-.33-.06-.12s.01.06.02.09ZM62.5,157.46c.1-.81-.06-1.65.01-2.43.11-1.15.32-2.36.43-3.47.16-1.49.52-3.59.42-5.3,0-.1-.01-.19-.02-.29-.16-.07-.33-.12-.5-.16-.08-.02-.17-.04-.26-.05l.29.32c-1.19-.04-1.93.3-3.14.07-1.12-.21-2.41-.37-3.53-.32-1.29.05-2.38.22-3.65.4-.72.1-1.71.42-2.61.56,4.79,2.47,8.75,6.55,12.56,10.68ZM49.6,146.61c1.13-.26,2.38-.6,3.68-.94-1.33.21-2.67.48-3.99.79.1.05.21.1.31.15Z"/>
      <path class="cls-35" d="M49.6,146.61c1.13-.26,2.38-.6,3.68-.94,2.29-.59,4.72-1.13,6.87-.99.97.06,1.9.27,2.72.67,0,.03-.01.07-.03.1-.05.13-.17.21-.34.24l.08.08.29.32c-1.19-.04-1.93.3-3.14.07-1.12-.21-2.41-.37-3.53-.32-1.29.05-2.38.22-3.65.4-.72.1-1.71.42-2.61.56-.11-.06-.23-.12-.34-.17Z"/>
      <path class="cls-62" d="M66.75,162.14s-.02-.01-.02-.02c0,0,.02.01.02.02ZM4.91,182.41c1.05.83,2.28,1.27,3.69,1.17,1.24-.09,1.9-1.07,2.43-2.3.15-.35.28-.72.42-1.09-.54.06-1.08.12-1.61.19-1.4.17-2.88.56-4.24.26-1.89-.39-1.83-2.52-3.42-3.35,2.27-4.58,5.65-7.64,9.41-10.99,5-4.46,11.32-7.17,17.4-9.86,2.39-1.06,5.02-1.91,7.74-2.46-2.85-.23-5.6-.12-8.43.43-1.57.3-3.48.49-5.22.88-.8.32-1.6.65-2.43.79.73-.34,1.56-.59,2.43-.79.54-.22,1.08-.43,1.63-.57,1.47-.38,2.98-.76,4.49-.89,2.18-.2,4.39-.51,6.53-.4,1.18.06,2.42.07,3.68.11,3.41-.42,6.86-.33,10.06.45,4.66,1.14,10.06,3.51,13.96,6.47-2.59-2.62-5.34-5.23-8.1-7.54-8.93-7.48-21.88-5.63-32.07-2.14-5.5,1.87-10.51,4.39-16.33,5.16.76-.38,1.53-.76,2.31-1.15-.64.06-1.29.14-1.95.38-1.88.65-3.63,1.68-5.07,3.06-.41.39-.76.96-1.06,1.66-2.25,5.32-1.35,18.5,3.75,22.53Z"/>
      <path class="cls-11" d="M2.17,177.29c2.27-4.58,5.65-7.64,9.41-10.99,5-4.46,11.32-7.17,17.4-9.86,2.39-1.06,5.02-1.91,7.74-2.46.09,0,.18.02.27.02,4.94.43,9.24,1.21,13.86,2.97l-2.26-.88c-2.57-2.08-5.92-2.44-9.17-2.56,3.41-.42,6.86-.33,10.06.45,4.66,1.14,10.06,3.51,13.96,6.47.61.62,1.22,1.24,1.81,1.86,1.48,1.53,2.36,3.48,3.59,5.2.32.45.67.88,1.03,1.3-1.62-.67-3.19-1.42-4.62-2.46-2.43-1.77-4.25-4.8-7.23-5.76,1.54,3.33,5.89,5.84,4.6,10.01-4.42.24-7.78-1.18-11.75-2.99-3.27-1.5-6.77-2.45-10-4.1-1.33-.68-2.58-1.53-3.96-2.11-1.79-.77-3.05-.51-4.91-.58,2.07,1.41,4.3,2.25,6.34,3.87,2.46,1.97,4.68,4.22,7.48,5.65-5.51-2.13-11.1-3.93-16.61-5.97-.85-.38-1.72-.72-2.61-.99.87.34,1.74.67,2.61.99,1.33.6,2.61,1.3,3.87,2.02,1.6.93,6.25,2.99,6.82,5,.08.25.05.5-.04.72-.81,1.93-7.2,2.77-8.69,3.03-3.92.67-7.74,1.04-11.59,2.08-3.31.9-6.58,1.94-9.86,2.9-.53.11-1.04.26-1.53.44.51-.15,1.02-.29,1.53-.44,1.81-.39,3.79-.43,5.54-.66,1.85-.24,3.68-.43,5.52-.55-.11.02-.22.05-.33.07-2.94.68-5.99.88-9,1.2-.54.06-1.08.12-1.61.19-1.4.17-2.88.56-4.24.26-1.89-.39-1.83-2.52-3.42-3.35Z"/>
      <path class="cls-75" d="M6.94,155.93c.76-.38,1.53-.76,2.31-1.15,3.47-1.73,7.06-3.55,10.75-5.17,6.51-2.86,13.31-5.11,20.18-5.19,3.39-.04,6.39.73,9.12,2.04.1.05.21.1.31.15.11.06.23.12.34.17,4.79,2.47,8.75,6.55,12.56,10.68.76.82,1.51,1.65,2.27,2.46.67.72,1.32,1.45,1.96,2.19,0,0,.02.02.02.03,1.68,1.96,3.24,3.98,4.71,6.09l-.39-.23c.66.52,1.01,1.12,1.21,1.76-.81-.31-1.61-.61-2.41-.94-.36-.42-.71-.85-1.03-1.3-1.23-1.72-2.11-3.67-3.59-5.2-.59-.62-1.2-1.24-1.81-1.86-2.59-2.62-5.34-5.23-8.1-7.54-8.93-7.48-21.88-5.63-32.07-2.14-5.5,1.87-10.51,4.39-16.33,5.16Z"/>
      <path class="cls-50" d="M29.22,164.37c-.85-.38-1.72-.72-2.61-.99.87.34,1.74.67,2.61.99ZM15.26,179.46c1.85-.24,3.68-.43,5.52-.55,1.58-.11,3.17-.17,4.77-.16,3.69,0,7.27-.75,10.94-.98,2.12-.13,3.89.15,5.95.33,2.02.18,3.76-1.1,5.78-1.01-.07.18-.14.37-.22.55-.86,2.03-2.26,4.11-3.37,5.99-.91,1.55-2.94,2.92-3.66,4.64-.11.26-.19.52-.23.8,2.85-1.77,5.27-3.9,7.94-5.89,2.1-1.57,4.41-2.82,6.53-4.36.93-.68,2-1.4,3.15-1.61,1.22-.25,2.57.41,3.6-.55.97,1.33-.24,3.7-.16,5.23.13,2.46,1.14,0,2.74.43,1.67.44.92,3.17-.25,5.94-.47,1.1-1,2.21-1.47,3.18-.48.98-.9,1.82-1.14,2.4-.07.17-.13.32-.17.44,2.65-2.45,5.03-4.66,7.22-7.59.62-.84,1.09-1.76,1.49-2.71.39-.92.72-1.87,1.08-2.8.16-.41.33-.83.5-1.23.22-.53.46-1.06.69-1.58.31-.69.63-1.37.95-2.06.01-.03.03-.06.04-.09.39-.83.78-1.67,1.16-2.52.11-.24.21-.47.31-.71-.73.48-1.35,1.07-1.71,1.6-.52-.83-.6-1.79-.66-2.75-1.86.26-4.82.31-5.48.42-2.09.34-4.12.65-6.25,1.01-2.13.36-4.43-.09-6.64.04-4.68.29-9.4.57-13.93,1.76-.3.08-.61.16-.91.25.3-.09.6-.17.91-.25,6.13-1.63,12.59-1.97,18.91-2.3,3.04-.15,5.98-.52,8.98-1,1.28-.2,2.82-.72,4.32-.95-.04-.36-.1-.71-.21-1.05-.81-.31-1.61-.61-2.41-.94-1.62-.67-3.19-1.42-4.62-2.46-2.43-1.77-4.25-4.8-7.23-5.76,1.54,3.33,5.89,5.84,4.6,10.01-4.42.24-7.78-1.18-11.75-2.99-3.27-1.5-6.77-2.45-10-4.1-1.33-.68-2.58-1.53-3.96-2.11-1.79-.77-3.05-.51-4.91-.58,2.07,1.41,4.3,2.25,6.34,3.87,2.46,1.97,4.68,4.22,7.48,5.65-5.51-2.13-11.1-3.93-16.61-5.97,1.33.6,2.61,1.3,3.87,2.02,1.6.93,6.25,2.99,6.82,5,.08.25.05.5-.04.72-.81,1.93-7.2,2.77-8.69,3.03-3.92.67-7.74,1.04-11.59,2.08-3.31.9-6.58,1.94-9.86,2.9,1.81-.39,3.79-.43,5.54-.66ZM9.72,180.12c-.53.11-1.04.26-1.53.44.51-.15,1.02-.29,1.53-.44Z"/>
      <path class="cls-29" d="M67.33,62.98c.78-.77,1.72-1.47,2.74-2.07-.8.23-1.6.46-2.39.7,0,0,0,.01,0,.02l-.11.04c-.08.45-.16.88-.23,1.31ZM56.11,67.96c1.24,1.27,2.67,2.38,4.53,3.47.23.13.55.29.91.48.63.33,1.33.69,2,1.1.32-.31.64-.63.96-.94.03-.29.06-.58.09-.86.2-1.97.33-4.02,1.1-5.82.05-.12.11-.24.16-.36.18-1,.36-2.01.55-3.01-1.21.4-2.41.83-3.59,1.33-2.51,1.06-5.17,2.19-7.4,3.82.22.27.45.53.69.78ZM49.75,79c.14-1.42.35-2.83.62-4.24.14,3,.86,6.05,2.25,8.76,2.36,4.58,5.03,8.89,9.53,11.72,1.51.95,3.11,1.35,4.74,1.77-.15-.99-.26-2.01-.32-3.07-.1-1.85-.28-3.8-.53-5.71-.2-.81-.35-1.62-.47-2.41-.07-.49-.28-1.21-.33-1.88-.12-.42-.24-.85-.36-1.27-.42.15-.83.3-1.22.47-1.99.84-6.65,1.59-6.4-1.73-.1.01-.21.03-.31.04.08-.28.17-.56.29-.84.98-2.32,3.35-4.72,5.07-6.38.14-.13.28-.27.42-.41-.61-.36-1.22-.68-1.7-.93-.37-.19-.71-.37-.96-.52-1.93-1.14-3.44-2.3-4.75-3.65-.27-.28-.53-.57-.77-.86-1.15.97-2.15,2.12-2.9,3.5-.25.46-.47.92-.66,1.38-.86,2.03-1.26,4.14-1.25,6.26Z"/>
      <path class="cls-1" d="M73.16,101.41c-.64-.36-1.3-.63-1.96-.83.62.37,1.28.66,1.96.83ZM68.43,97.41s.06.02.09.03c-.06-.32-.12-.63-.17-.95-.05-.33-.12-.66-.19-.99.07.65.16,1.28.27,1.91ZM68.53,82.33c-.01.43-.05.86-.09,1.29-.02.25-.03.51-.04.75-.04.91-.09,1.79-.2,2.6,0,.34.02.68,0,1.03-.04,1.12,0,2.23-.02,3.34-.04,1.09.23,2.15.4,3.23.17.98.22,1.97.23,2.95.13.04.25.08.38.12,2.25.74,3.15,2.19,4.53,3.54-.02-.31-.07-.62-.16-.93l.29,1.05c.09.09.19.18.28.26.07,0,.15.01.23.01h.02c-.2-1.01-.61-2.15-.66-2.89-.12-1.61-.11-3.31-.2-4.95-.08-1.41-.2-2.96-.51-4.35-.39-1.66-1.43-3.15-1.78-4.68,1.71,2.09,2.87,6.07,3.12,8.7.15,1.56,0,3.09.02,4.65.01,1.14.21,1.99.47,2.99.04-.11.08-.21.13-.32.08-.19.17-.37.28-.56.63-1.04,1.34-1.91,2.29-2.68,2.01-1.64,3.85-3.27,5.79-5.02.55-.49,1.08-.94,1.58-1.39.05-.29.1-.58.14-.87-.54.85-1.32,1.4-2.41,1.44l-1.19,1.07c-.29.36-.62.67-1.02.92l1.02-.92c.29-.37.52-.78.72-1.24,1.27-3,.71-7.69.66-10.27-.04-2.16-.21-4.12-.32-6.3-.04-.74,0-1.65,0-2.58-.35-.98-.71-1.96-1.04-2.96-.02-.06-.04-.12-.06-.18-.72.69-1.46,1.32-2.22,1.9-.75.84-1.63,1.63-2.45,2.44-2.02,1.97-3.85,3.98-5.78,6.04-.64.68-1.43,1.19-2.3,1.61-.06.37-.11.75-.15,1.14ZM67.14,85.64c0-.29-.04-.59-.13-.9.05.31.09.61.13.9ZM66.58,82.34c.3.41.39,1.29.45,1.76.07.55.17,1.07.12,1.61.02.12.03.22.04.33.05-.55.08-1.12.11-1.71.05-.88.09-1.76.19-2.62-.33.13-.65.25-.98.36.02.09.04.18.06.27ZM65.24,83.92c-.02-.27-.02-.54.03-.77-.04-.2-.08-.4-.13-.6-.09.03-.17.06-.26.09.11.42.23.85.36,1.27ZM65.92,70.73c1.1-1.02,2.23-1.98,3.4-2.76,2.18-1.44,5.23-2.73,6.87-4.73,1.13-1.39,2.11-2.86,3.11-4.31-1.35-.33-2.74-.4-4.26-.03-1.62.39-3.39,1.09-4.97,2.01-1.02.6-1.96,1.29-2.74,2.07-.56,3.1-1.03,5.71-1.41,7.75ZM64.6,71.21c-.03.29-.06.57-.09.86.02-.02.04-.04.06-.07.36-1.89.81-4.38,1.28-6.98-.06.12-.11.24-.16.36-.76,1.8-.89,3.85-1.1,5.82Z"/>
      <path class="cls-95" d="M82.29,69.37c.76,1.61,1.89,3.08,2.54,4.76.83,2.08,1.2,4.15,1.3,6.4.09,1.89.46,6.26-.67,8.92-.12.28-.25.53-.4.76-.04.29-.09.58-.14.87,1.38-1.21,2.6-2.37,3.6-4.11,1.32-2.31,2.45-4.87,3.57-7.24.29-.6.55-1.18.8-1.76.98-2.32,1.61-4.55,1.79-7.23,1.57,3.71.93,8.11-.39,12.09.05-.11.09-.21.14-.32.86-2.03,1.37-4.21,1.39-6.66.02-4.24-1.18-8.05-4.44-10.88-.86-.75-2.46-1.91-4.18-2.74-1.53,2.21-3.24,4.42-5.12,6.34.09.25.17.52.22.8ZM81.48,69.38c.33.99.68,1.97,1.04,2.96,0-1.01-.03-2.06-.22-2.97-.11-.24-.21-.48-.31-.72-.19.19-.37.37-.56.56.02.06.04.12.06.18Z"/>
      <path class="cls-87" d="M73.9,101.43c.04.09.08.19.12.28l.2-.07s-.05-.04-.07-.06c-.1-.08-.19-.17-.28-.26l.03.11ZM68.83,99.41c.05.23.11.45.16.68.75.12,1.49.27,2.21.49.67.2,1.32.47,1.96.83.2.11.39.23.59.36,0-.19,0-.39-.02-.58-1.38-1.35-2.28-2.8-4.53-3.54-.13-.04-.25-.08-.38-.12,0,.63,0,1.26.01,1.89ZM68.82,99.38c-.06-.65-.18-1.3-.3-1.95-.03,0-.07-.02-.09-.03.11.67.25,1.32.39,1.97ZM49.75,79c-.41,4.22-.1,8.43,2.03,12.28,2.62,4.7,8.51,7.66,13.69,8.37.68.09,1.33.17,1.98.24-.22-.94-.41-1.9-.56-2.89-1.63-.42-3.23-.82-4.74-1.77-4.49-2.83-7.16-7.14-9.53-11.72-1.4-2.7-2.11-5.75-2.25-8.76-.26,1.4-.48,2.82-.62,4.24Z"/>
      <path class="cls-86" d="M74.98,100.73c.08-.19.17-.37.28-.56.63-1.04,1.34-1.91,2.29-2.68,2.01-1.64,3.85-3.27,5.79-5.02.55-.49,1.08-.94,1.58-1.39,1.38-1.21,2.6-2.37,3.6-4.11,1.32-2.31,2.45-4.87,3.57-7.24.29-.6.55-1.18.8-1.76.98-2.32,1.61-4.55,1.79-7.23,1.57,3.71.93,8.11-.39,12.09-.31.94-.66,1.85-1.03,2.72-.32.75-.65,1.47-.98,2.15-1.27,2.62-3.17,3.46-5.15,5.39-1.88,1.83-3.46,3.94-5.38,5.7-1.81,1.67-3.41,2.59-5.45,3.41,1.48-1.27,3-2.49,4.47-3.75-1.28.55-4.17,1.98-5.61,3.36-.03-.15-.07-.3-.11-.45l-.09.03c-.03-.12-.06-.23-.09-.34.04-.11.08-.21.13-.32Z"/>
      <path class="cls-31" d="M73.68,105.98c-.22.52-.48,1.04-.74,1.57-.08.16-.15.32-.23.48-.06.15-.12.3-.18.45-.03.07-.06.15-.09.22-.03.1-.07.19-.11.28-.03.08-.06.14-.1.21-.11.26-.21.53-.3.8.2.71.39,1.42.59,2.12.02.08.05.17.07.25.03-.19.05-.38.07-.57.05-.4.1-.78.21-1.17.18-.57.43-1.15.65-1.72.16-.38.33-.79.49-1.19.46-1.27,1.1-2.99,1.21-4.55-.32.29-.63.57-.95.87-.1.66-.31,1.31-.59,1.96ZM75.07,101.9s.05-.05.08-.08c-.03-.15-.07-.3-.11-.45l-.09.03c.04.16.08.32.13.49ZM74.32,103.12l.03-.2s.03-.07.04-.1c.03-.07.07-.15.12-.23,0-.3-.04-.64-.12-1h-.02s-.15.06-.15.06l-.2.07c.19.48.28.95.3,1.41Z"/>
      <path class="cls-89" d="M81.38,137.56c-1.37-2.89-2.57-5.88-3.9-8.81-.1-.21-.19-.45-.28-.69l-2.58-5.88c1.52,1.23,1.89,3.93,2.58,5.88l4.17,9.5ZM66.57,93.92c.06,1.06.17,2.08.32,3.07.15.99.34,1.95.56,2.89.52,2.2,1.2,4.32,1.9,6.5.64,2,1.21,4.08,1.77,6.08.65,2.42,1.34,4.91,2.17,7.36.81,2.39,1.77,4.7,2.7,6.91,1.01,2.42,2.05,4.9,2.88,7.47.71,2.21,1.62,4.37,2.94,6.97.17.33.36.7.55,1.07.98,1.86,2.21,4.18,2.27,6.12h.02c-.09-.99,0-2-.14-2.99l1.24,2.95h.11c-.55-1.52-.57-3.62-1.59-4.89l.6.56c-.39-.86-.83-1.68-1.23-2.44-.19-.36-.38-.72-.54-1.04-1.29-2.54-2.17-4.62-2.86-6.77-.85-2.62-1.9-5.14-2.92-7.58-.92-2.21-1.87-4.48-2.66-6.82-.78-2.32-1.44-4.71-2.08-7.02-.02-.08-.05-.17-.07-.25-.19-.7-.39-1.41-.59-2.12-.38-1.35-.77-2.7-1.2-4.03-.64-1.97-1.25-3.89-1.73-5.86-.06-.23-.11-.45-.16-.68,0,.01,0,.03,0,.05.03.37.04.74.02,1.12-.01-.37-.02-.74-.02-1.12,0-.02,0-.05,0-.07-.15-.65-.28-1.31-.39-1.97-.11-.63-.2-1.26-.27-1.91-.18-.78-.38-1.55-.48-2.34.02.42.06.84.11,1.25.14.29.16.57.14.84.02.1.04.2.06.3l-.11.02c-.07.33-.18.66-.24,1.01-.11.68-.04,1.41-.19,2.05-.37-.49-.35-1.5-.39-2.07-.02-.26-.05-.51-.08-.77h-.04c-.42-1.77-.43-3.71-.28-5.47-.23-.69-.44-1.4-.61-2.12.25,1.91.43,3.87.53,5.71ZM65.27,83.15c.02-.08.04-.16.07-.22.02-.04.03-.07.05-.11l1.31,6.92c.1-.92.23-1.79.36-2.53.06-.37.1-.76.14-1.16-.01-.11-.03-.22-.04-.33,0,.1-.03.2-.05.3.03-.12.04-.25.04-.37-.04-.29-.08-.59-.13-.9-.22-.86-.69-1.76-.94-2.46l.42-.09.03.09s.04.05.06.07c-.02-.09-.04-.18-.06-.27-.46.17-.92.32-1.38.48.05.2.09.4.13.6Z"/>
      <path class="cls-92" d="M67.88,95.58l.11-.02c-.02-.1-.04-.2-.06-.3-.01.11-.03.21-.05.32ZM68.33,84.54c-.06.56-.12,1.12-.13,1.69,0,.25,0,.5,0,.75.11-.81.15-1.69.2-2.6.01-.25.02-.5.04-.75-.03.31-.07.61-.1.91ZM67.31,84.33c-.03.59-.06,1.17-.11,1.71-.03.41-.08.79-.14,1.16-.13.75-.26,1.61-.36,2.53l.29,1.52c-.12-.31-.23-.62-.34-.94-.15,1.76-.14,3.69.28,5.48h.04c-.05-.43-.11-.85-.15-1.27l.96-.12s0,0,0,0c-.06-.41-.09-.83-.11-1.25-.02-.12-.03-.24-.04-.36-.1-1.23-.08-2.46.13-3.66.09-.6.29-1.2.39-1.81.08-.57,0-1.19.07-1.76.04-.33.08-.67.12-1.02.04-.4.07-.8.09-1.2l.03-1.83.08-.03c0,.28,0,.56,0,.85.04-.39.09-.77.15-1.14-.38.18-.77.35-1.17.51-.1.86-.15,1.75-.19,2.62Z"/>
      <path class="cls-85" d="M48.64,60.06c.55.49,1.1.99,1.63,1.48.59.54,1.19,1.09,1.78,1.6.94.82,1.66,1.79,2.36,2.72.33.43.66.88,1.02,1.31.22.27.45.53.69.78,1.24,1.27,2.67,2.38,4.53,3.47.23.13.55.29.91.48.63.33,1.33.69,2,1.1-.27.27-.54.53-.81.79-.61-.36-1.22-.68-1.7-.93-.37-.19-.71-.37-.96-.52-1.93-1.14-3.44-2.3-4.75-3.65-.27-.28-.53-.57-.77-.86-.36-.44-.7-.89-1.04-1.33-.69-.92-1.35-1.79-2.2-2.55-.59-.52-1.2-1.08-1.79-1.61-.29-.27-.58-.53-.87-.8.17-.09.34-.18.52-.26l-.34-.06c-.06-.39-.13-.78-.21-1.17Z"/>
      <path class="cls-17" d="M66.58,61.06c-.06.32-.12.64-.17.96-.18,1-.37,2.01-.55,3.01-.47,2.6-.93,5.1-1.28,6.98.45-.43.89-.86,1.34-1.28.38-2.03.85-4.64,1.41-7.75.08-.43.15-.86.23-1.31l-.92.29c-.16-.49.11-1.36.46-2.21.45-1.07,1.05-2.09,1.16-2.29.03-.05.06-.09.09-.14.56-3.1,1.1-6,1.49-8.07-.27.34-.54.69-.81,1.07l-.05-.54c.1-.3.2-.59.31-.88-.1.13-.22.24-.36.34l-.13-.31c.03-.09.04-.18.05-.27-.56,2.9-1.43,7.71-2.26,12.39ZM69.03,47.73c.2.09.41.18.61.27,0,.02,0,.04,0,.06.07-.16.13-.31.2-.46,0-.03,0-.07.01-.1-.13.03-.25.06-.38.08,0,.1,0,.2,0,.31l-.03-.3c-.13.02-.25.04-.38.05,0,.03-.01.06-.02.09Z"/>
      <path class="cls-76" d="M69.46,47.59c.13-.02.25-.05.38-.08.14-1.44-.1-3.91-.27-5.71l-.2.1c.13,1.9.12,3.81.09,5.69ZM51.61,34.89c2.27,3.99,7.13,6.57,10.99,8.72,2.17,1.22,4.25,2.5,6.2,4.03.02,0,.03.01.05.02.06,0,.13,0,.19-.01.13-.01.25-.03.38-.05l-.6-5.42-.3.16c-2.09-3.74-4.47-7.58-5.35-11.83-.85-4.07-.22-8.61.43-12.67.16-1.02.42-2.11.8-3.01.8-1.88,2.13-2.87,4.24-.36,2.57,3.03,4,7.41,4.72,11.26,1.01,5.4-.4,10.24-2.24,15.29l-.5.25c.17.62.32,1.24.38,1.83.11,1.11-.27,2.25-.58,3.32,1.8-3.38,4.31-5.9,7.05-9.03,1.97-2.26,3.8-4.63,5.69-6.97-3.99-1.26-6.6-3.68-6.59-8.6,0-1.91,0-5.14.94-7.38.57-1.34,1.47-2.31,2.92-2.44.05-.09.09-.18.14-.26-1.84-.88-4.11-1.12-6.3-1.51-3.38-.59-7.12.06-10.38.98-4.58,1.28-8.73,4.17-11.66,7.98-1.16,4.72-3.14,11.29-.62,15.69ZM49.3,24.28c-1.05,2.6-1.41,5.19-1.09,7.58-.02-1.27.08-2.57.24-3.87.22-1.67.66-3.21,1.28-4.67.06-.15.13-.3.2-.46-.18.35-.34.72-.49,1.08-.05.11-.09.22-.14.34Z"/>
      <path class="cls-96" d="M81.14,40.76v.03c-.12.29-.24.57-.36.85-.11.25-.21.49-.32.73,3.35-1.55,5.61-3.54,7.34-7.05.18-.36.57-1.19,1.02-2.24.46-1.09.97-2.41,1.35-3.69-.73.38-1.48.66-2.27.8-.41.63-.84,1.25-1.27,1.87-.48.7-.94,1.35-1.35,2.01-.48.79-1,1.49-1.48,2.17-.94,1.31-1.82,2.55-2.5,4.16-.05.12-.1.25-.15.37ZM68.98,49.79l.05.54c.27-.37.54-.73.81-1.07,2.49-3.06,5.4-4.69,9.11-6.24.3-.59.58-1.2.84-1.83.11-.26.22-.53.33-.81v-.03c.05-.13.11-.26.16-.39.73-1.72,1.65-3.02,2.63-4.38.48-.67.97-1.36,1.45-2.11.28-.45.59-.91.9-1.36.08-.28.13-.55.16-.81l-.11-.09c-.1-.1-.21-.21-.31-.31-.64-.14-1.26-.3-1.85-.49-1.89,2.33-3.72,4.71-5.69,6.97-2.74,3.13-5.25,5.65-7.05,9.03-.1.34-.18.66-.25.98l-.42.72c-.02.09-.05.18-.08.25-.05.13-.12.22-.2.27-.05.1-.11.19-.18.27-.11.29-.21.58-.31.88ZM69.54,48.47l.21-.34c.04-.15.06-.32.09-.51-.07.15-.13.3-.2.46-.01.14-.05.27-.09.4Z"/>
      <path class="cls-17" d="M67.1,59.76c.45-1.07,1.05-2.09,1.16-2.29.03-.05.06-.09.09-.14.7-1.14,1.66-2.43,2.69-3.57,3.21-3.58,5.9-6.75,7.91-10.74.3-.59.58-1.2.84-1.83.11-.26.22-.53.33-.81v-.03c.05-.13.11-.26.16-.39.73-1.72,1.65-3.02,2.63-4.38.48-.67.97-1.36,1.45-2.11.28-.45.59-.91.9-1.36-.08.29-.19.58-.31.88-.05.12-.1.24-.16.35-.53.81-1.04,1.64-1.53,2.44.39-.43,1.04-1.4,1.53-2.44.72-1.09,1.48-2.15,2.38-3.09.01,0,.03,0,.04,0,.23-.01.46-.04.69-.08-.41.63-.84,1.25-1.27,1.87-.48.7-.94,1.35-1.35,2.01-.48.79-1,1.49-1.48,2.17-.94,1.31-1.82,2.55-2.5,4.16-.05.12-.1.25-.15.37v.03c-.12.29-.24.57-.36.85-.11.25-.21.49-.32.73-2.11,4.66-5.06,8.14-8.61,12.11-1.03,1.14-1.99,2.43-2.65,3.55-.43.72-.82,1.52-1.11,2.19-.28.66-.45,1.19-.42,1.4,0,0,0,.01,0,.02l-.11.04-.92.29c-.16-.49.11-1.36.46-2.21Z"/>
      <path class="cls-39" d="M49.73,23.32c.06-.15.13-.3.2-.46.65-1.43,1.46-2.79,2.4-4.14-.04.16-.07.31-.11.47-1.16,4.72-3.14,11.29-.62,15.69,2.27,3.99,7.13,6.57,10.99,8.72,2.17,1.22,4.25,2.5,6.2,4.03-.35-.14-.72-.28-1.08-.42-.15-.07-.3-.13-.45-.17.15.06.3.11.45.17.52.25,1.01.67,1.1,1.19-5.18-2.14-11.39-2.88-15.9-6.22-3.5-2.59-4.66-6.33-4.72-10.33-.02-1.27.08-2.57.24-3.87.22-1.67.66-3.21,1.28-4.67Z"/>
      <path class="cls-4" d="M87.3,30.12c.17-.17.34-.34.51-.5.13.08.13.14.1.22,0,.02-.02.04-.03.06-.01.02-.02.04-.03.07-.02.04-.04.09-.04.15h-.51s-.09.09-.14.14c.01,0,.03,0,.04,0,.23-.01.46-.04.69-.08.79-.13,1.55-.41,2.27-.8,3.33-1.76,6.07-5.71,8.52-8,1.8-1.7,3.97-3.19,5.16-5.42.11-.2.2-.4.29-.6.22-.53.38-1.06.47-1.6-.89.79-2.04,1.1-3.19,1.48-.79.77-1.73,1.43-2.84,2-1.63.83-2.97,1.9-4.6,2.83-.87.51-1.83.85-2.66,1.42-.83.57-1.34,1.39-2.06,2.02-.23.88-.51,1.75-.86,2.59-.13.32-.28.63-.44.94-.55,1.07-1.12,2.05-1.63,3.08h.97ZM87.62,3.83c-.6,2.48-1.92,4.85-2.61,7.3-.63,2.24-.92,4.68-.96,7.02-.03,2.47.23,5.08,1.07,7.39.52,1.43.98,3.01.97,4.58h.1s3.01-8.97,3.01-8.97c.2-1.24.49-2.46.79-3.7.55-2.21,1.35-8.95,3.22-13.38.87-2.04,1.96-3.59,3.36-3.97-3.47-.5-6.35.85-9.06,3.81,0,0-.01.01-.02.02.05-.03.09-.06.14-.09Z"/>
      <path class="cls-20" d="M77.5,14.44c.57-1.34,1.47-2.31,2.92-2.44-.25.49-.49.99-.7,1.49-1,2.36-1.54,4.88-1.4,7.56.25,4.71,3.66,6.88,6.68,9.85-.64-.14-1.26-.3-1.85-.49-3.99-1.26-6.6-3.68-6.59-8.6,0-1.91,0-5.14.94-7.38Z"/>
      <path class="cls-14" d="M27.02,26.76c.03-.07.06-.14.09-.2.92-2.04,2.79-4.66,5.34-4.48,1.22.08,2.19.79,3,1.74-.59-.22-1.24-.42-1.98-.6,2.52,2.22,3.01,5.04,4.5,7.88,2.77,5.25,4.58,9.63,4.49,15.66-.04,2.8.55,5.41,1.44,8.03.08.25.16.51.23.77l-5.05-6.5c-.1-.13-.19-.25-.3-.38l.3.38c2,2.62,3.46,5.55,5.51,8.12.14.45.3.88.48,1.27.36.74,1.25,1.4,1.73,2.1-.01.09-.03.18-.04.27-2.44-.1-3.28,3.02-5.33,4.21-4.56,2.68-8.77-5.12-10.81-7.97-3.57-4.99-5.34-10.25-5.47-16.38.24-4.57.14-9.84,1.86-13.9Z"/>
      <path class="cls-56" d="M45.08,58.44c.36.74,1.25,1.4,1.73,2.1.07.1.12.19.17.29.31.03.63.12.99.26l.55.09-.78-1c-.58-.51-1.3-.97-1.74-1.42-.5-.51-.96-1.04-1.4-1.59.14.45.3.88.48,1.27ZM37.97,31.09c2.77,5.25,4.58,9.63,4.49,15.66-.04,2.8.55,5.41,1.44,8.03.08.25.16.51.23.77l3.6,4.63c.37.32.68.65.85,1.01l.26.05c-.06-.39-.13-.78-.21-1.17-.55-2.78-1.45-5.49-1.82-8.32-.74-5.84-.03-11.57-1.95-17.27-.87-2.61-3.09-4.61-4.68-6.79-1.49-2.04-2.76-3.12-4.74-3.87-.59-.22-1.24-.42-1.98-.6,2.52,2.22,3.01,5.04,4.5,7.88Z"/>
      <path class="cls-36" d="M25.16,40.32c0,.12,0,.23,0,.34.13,6.14,1.9,11.39,5.47,16.38,2.04,2.85,6.25,10.65,10.81,7.97,2.04-1.19,2.89-4.31,5.33-4.21.07,0,.14,0,.21.02.31.03.63.12.99.26l.55.09.13.17c-.02-.05-.04-.11-.06-.16l.26.05.34.06c-.18.08-.36.17-.52.26-2.88,1.58-3.34,5.05-6.13,6.69-2.88,1.69-6.4-.1-8.64-2.05-4.32-3.76-7.41-9.43-8.46-15.02-.7-3.77-1.31-7.06-.28-10.85Z"/>
      <path class="cls-12" d="M79.72,13.49c.21-.5.45-1,.7-1.49.05-.09.09-.18.14-.26.59-1.1,1.27-2.17,2.02-3.2,1.39-1.89,3.01-3.27,4.9-4.62.05-.03.09-.06.14-.09-.6,2.48-1.92,4.85-2.61,7.3-.63,2.24-.92,4.68-.96,7.02-.03,2.47.23,5.08,1.07,7.39.52,1.43.98,3.01.97,4.58h-.9c-.12-.18-.29-.32-.52-.41l-.21.41h.73c.23.32.29.74.25,1.21l-.11-.09c-.1-.1-.21-.21-.31-.31-3.01-2.97-6.43-5.15-6.68-9.85-.14-2.68.4-5.2,1.4-7.56Z"/>
      <path class="cls-61" d="M93.2,4.07c.87-2.04,1.96-3.59,3.36-3.97.5-.13,1.03-.12,1.61.07-.47,0-.95-.02-1.42-.07,3.01.69,2.39,4.82,2.96,7.06.36,1.42,1.09,2.57,1.17,4.07.06,1.48-.53,2.71-1.05,4.09l.05.54c.5-.26,1.04-.45,1.57-.62-.79.77-1.73,1.43-2.84,2-1.63.83-2.97,1.9-4.6,2.83-.87.51-1.83.85-2.66,1.42-.83.57-1.34,1.39-2.06,2.02.54-2.09.82-4.26,1.26-6.35l-1.34,3.98c.2-1.24.49-2.46.79-3.7.55-2.21,1.35-8.95,3.22-13.38Z"/>
      <path class="cls-68" d="M96.74.11c.47.05.95.06,1.42.07,1.69.02,3.39-.06,4.89.86,2,1.24,3.11,3.49,3.23,5.8.08,1.59.04,3.85-.64,5.46-.11.27-.25.53-.4.76-.19.28-.4.51-.63.71-.89.79-2.04,1.1-3.19,1.48-.54.17-1.07.36-1.57.62l-.05-.54c.53-1.37,1.12-2.61,1.05-4.09-.07-1.5-.81-2.65-1.17-4.07-.56-2.24.05-6.36-2.96-7.06Z"/>
      <path class="cls-33" d="M71.24,84.72c1.71,2.09,2.87,6.07,3.12,8.7.15,1.56,0,3.09.02,4.65.01,1.14.21,1.99.47,2.99.03.11.06.23.09.34.04.16.08.32.13.49-.24.23-.43.46-.56.68,0-.3-.04-.64-.12-1-.2-1.01-.61-2.14-.66-2.88-.12-1.61-.11-3.31-.2-4.95-.08-1.41-.2-2.96-.51-4.35-.39-1.66-1.43-3.15-1.78-4.68Z"/>
      <path class="cls-9" d="M78.26,172.12c-.41-.13-.9-.12-1.4,0,.45.01.92.01,1.4,0ZM75.36,170.64c1.05.41,2.5.76,3.1,1.48,9.54-.24,23.11-4.03,26-4.87l.11.36c.14-.05.27-.12.38-.2.2-.14.35-.33.44-.55,0-.01.01-.03.02-.04l.07-.29.14-.84.05-.3-.36.11-.75.22s-.58.17-1.51.43c-4.75,1.32-19.52,5.17-27.79,4.44l.09.06Z"/>
      <path class="cls-91" d="M54.2,173.31c2.21-.13,4.51.32,6.64-.04,2.13-.37,4.16-.67,6.25-1.01.66-.11,3.62-.16,5.48-.42-.03-.35-.05-.69-.09-1.03-1.5.23-3.03.75-4.32.95-3,.48-5.94.85-8.98,1-6.32.33-12.78.68-18.91,2.3,4.52-1.19,9.25-1.47,13.93-1.76ZM40.27,175.07c-.3.08-.6.16-.91.25.3-.09.6-.17.91-.25Z"/>
      <path class="cls-41" d="M28.29,154.41c2.82-.55,5.57-.66,8.43-.43.09,0,.18.02.27.02,4.94.43,9.24,1.21,13.86,2.97l-2.26-.88c-2.57-2.08-5.92-2.44-9.17-2.56-1.26-.05-2.51-.06-3.68-.11-2.15-.1-4.36.2-6.53.4-1.51.13-3.03.51-4.49.89-.55.14-1.09.36-1.63.57,1.74-.39,3.65-.58,5.22-.88ZM23.07,155.29c-.87.2-1.7.45-2.43.79.83-.14,1.63-.47,2.43-.79Z"/>
      <path class="cls-84" d="M135.86,136.74c-.35,1.46-.78,2.92-1.26,4.36-.91,2.75-1.99,5.44-2.96,7.94l.04-.1c.1.06.2.11.31.15.2.08.4.13.61.15.48-.99.98-2.07,1.45-3.18.44-1.05.86-2.13,1.21-3.19,0,0,0,0-.01.01,0,0,.01-.01.02-.02.05-.15.1-.31.15-.46.31-1.01.56-2,.7-2.94.21-1.35.25-2.74.26-4.14,0-.34,0-.68,0-1.02-.14.81-.31,1.62-.5,2.43ZM136.36,134.31c.32-1.93.46-3.85.32-5.71-.33,1.87-.33,3.8-.32,5.71Z"/>
      <path class="cls-5" d="M130.34,150.38c.11-.26.24-.51.4-.74.09-.13.18-.25.28-.37.03-.03.05-.06.08-.08.09-.1.2-.2.31-.29.08.05.15.1.23.16.09.06.18.12.28.19.68.44,1.44.85,2.25.82-.42.34-.89.7-1.36,1.08-.43.34-.87.68-1.29,1.01l-.04-.03-1.02-.66-.25-.16-.14-.09c.07-.28.16-.56.28-.82Z"/>
      <path class="cls-100" d="M121.8,277.6c.45-.18.9-.39,1.33-.61,3.03-1.54,5.6-3.91,7.89-6.45,1.32-1.46,2.3-3.05,3.5-4.47.67-.82,1.53-1.25,2.29-1.94,1.03-.9,1.49-2.21,2.52-3.09l-.09.22c.32.75.27,1.5.03,2.22-.04.11-.08.23-.13.34-.11.26-.24.52-.39.77-.51.89-1.19,1.72-1.65,2.48-.04.07-.08.13-.12.2-.81,1.43-1.66,2.68-2.75,3.84-1.09.74-2.01,1.52-2.69,2.34-.79.58-1.63,1.14-2.47,1.61-.3.16-.59.32-.88.47-1.63.8-4.58,2.22-6.38,2.07Z"/>
      <path class="cls-93" d="M127.79,218.79c1.35-1.55,2.45-3.37,3.44-5.13.43-.75,1.4-2.28,1.99-3.68.28-.66.47-1.29.48-1.79-.01.03-.02.05-.03.08-.14.34-.31.66-.54.86,0-.02.02-.03.02-.05.3-.71-.15-1.64-.04-2.41-.21.21-.37.5-.5.82-.08.2-.16.41-.23.61-.07.2-.14.4-.22.58-.04.09-.08.17-.12.25-.79,1.5-1.96,2.82-2.69,4.34-1.03,2.15-2.02,3.9-3.41,5.83-1.14,1.59-2.22,3.27-3.28,4.95-.3.46-.59.93-.88,1.38-.5.79-.99,1.76-1.51,2.73,2.35-3.23,4.9-6.4,7.52-9.38ZM120.27,228.16c-.87,1.2-1.72,2.41-2.53,3.62.99-.87,1.8-2.24,2.53-3.62Z"/>
      <path class="cls-2" d="M152.57,251.33c2.24-3.6,4.66-7.05,6.69-10.83.9-1.67,1.99-3.45,3-5.05.36-.57,1.12-2,1.88-3.13,0,.07,0,.13-.01.2.55.24.99-.4,1.53-.41-.1.26-.2.52-.3.77-1.16,2.74-3,4.99-4.72,7.41-2.58,3.63-5.3,7.38-8.08,11.04Z"/>
      <path class="cls-72" d="M126.52,288.26c2.76-.91,8.81-2.86,11.5-4.05,5.91-2.64,10.58-6.03,15.66-10,3.78-2.95,7.68-5.69,11.05-9.16,1.54-1.59,6.46-7.17,8.1-9.08.12-.14.23-.26.31-.36-.11.45-.13,1.07-.13,1.84,0,.51,0,1.09-.01,1.73-.04,2.3-.31,5.4-1.86,9.06-.69,1.64-1.65,3.4-2.96,5.24.27-.53.53-1.09.78-1.69.4-.96.79-2.01,1.16-3.16l-.23-.09s0,.02,0,.03c-.03.1-.07.19-.11.28,0,0,0,.01,0,.02-1.03,2.41-4.47,3.86-6.87,5.19h0c-.05.03-.11.06-.16.09-.01,0-.03.01-.04.02-.01,0-.02.01-.04.02-.05.03-.1.06-.16.09,0,0-.02.01-.03.02-.01,0-.03.02-.04.02-.06.03-.11.07-.17.1,0,0-.01,0-.02,0,0,0-.01,0-.02.01,0,0-.02.01-.03.02-.02,0-.04.02-.05.03,0,0-.01,0-.02.01-.02.01-.03.02-.05.03-.04.02-.07.04-.11.07h0s-.06.04-.09.06c-.03.02-.06.04-.08.05-2.46,1.64-4.99,3.04-7.35,4.85-.19.15-.38.29-.56.42,0,0,0,0-.01.01,0,0,0,0,0,0-6.56,4.89-9.36,4.66-11.64,6.05-1.61.33-3.26.63-4.79.94-1.82.36-5.08,1.39-7.8,1.59-1.2.09-2.3.02-3.12-.34Z"/>
      <path class="cls-72" d="M145.24,285.4c.65-.16,1.29-.31,1.96-.47-.65.17-1.3.31-1.96.47Z"/>
      <path class="cls-3" d="M142.02,286.21c.07-.05.14-.09.22-.14,2.28-1.39,5.07-1.16,11.63-6.05,0,0,.01,0,.02-.01,0,0,0,0,.01-.01.19-.14.37-.28.56-.42,2.36-1.81,4.88-3.21,7.35-4.85.03-.02.06-.04.08-.05.03-.02.06-.04.09-.06h0s.07-.05.11-.07c.02,0,.03-.02.05-.03,0,0,.01,0,.02-.01.02-.01.04-.02.05-.03,0,0,.02-.01.03-.02,0,0,.01,0,.02-.01,0,0,.01,0,.02,0,.06-.03.11-.07.17-.1.01,0,.03-.01.04-.02.01,0,.02,0,.03-.02.05-.03.1-.06.16-.09.01,0,.03-.01.04-.02.01,0,.03-.02.04-.02.05-.03.1-.06.16-.09h0c2.4-1.33,5.83-2.79,6.87-5.19,0,0,0-.01,0-.01.04-.1.08-.19.11-.29,0-.01,0-.02,0-.02l.23.08c-.37,1.15-.75,2.2-1.16,3.16-.25.6-.51,1.16-.78,1.69-4.25,8.3-10.95,8.62-26.16,12.73Z"/>
      <path class="cls-48" d="M215.35,195.41c.19-.44.4-.88.64-1.32,2.18-3.97,4.96-8.53,6.51-12.19.11-.25.21-.5.3-.74-2.96,7.6-5.92,15.21-8.89,22.82-.17.44-.34.88-.51,1.32-.22.06-.44.12-.66.18.1-.29.18-.58.27-.87.32-1.14.55-2.32.79-3.52.38-1.89.77-3.82,1.55-5.68Z"/>
      <path class="cls-19" d="M183.65,161.18c.34-.81.73-1.54,1.16-2.15.02.41.05.82.08,1.22.16,1.87.48,3.71.92,5.53,1.71,7.02,5.23,13.69,8.25,20.31,2.3,5.04,5.57,8.73,9.19,12.28,1.29,1.44,2.65,2.78,4.09,3.91.63.59,1.25,1.19,1.88,1.81-.02.13,0,.28.04.45-2.6-3.08-6.51-5.71-9.4-8.04-.33-.27-.65-.54-.96-.81-3.69-3.19-5.71-6.34-8.23-10.68-2.26-3.86-6.19-6.84-7.88-10.99-.92-2.27-.94-5.64-.34-8.77.28-1.45.69-2.85,1.21-4.07Z"/>
      <path class="cls-82" d="M243.67,200.53c-2.36,1.37-5.26,2.67-8.24,3.6,3.3-.38,6.56-1.15,8.24-3.6ZM226.47,205.52c2.75.13,5.9-.44,8.95-1.39-2.01.24-4.04.33-5.72.57-1.48.21-4.97.17-8.31.36,1.72.17,3.43.38,5.07.46ZM214.74,205.68c.41-.29.86-.5,1.33-.6-.43.31-.88.51-1.33.6-.43.3-.81.67-1.14,1.1l.3.21c.3-.57,1.12-.97,2.26-1.27,1.41-.36,3.3-.55,5.24-.67-2.69-.26-5.42-.41-8,.23-.22.06-.44.12-.66.18-.05.02-.1.03-.16.05.71.24,1.44.32,2.16.16Z"/>
      <path class="cls-64" d="M294.34,231.22c.41-.15.82-.28,1.23-.36,0,.04-.02.08-.03.12-.06.14-.17.21-.35.25h-.84c-.94.33-1.87.81-2.77,1.26,2.17-.51,4.32-.91,6.41-1.3,3.1-.59,6.3-1.2,9.57-2.12.04-.01.08-.02.13-.03,1.48-.43,3.02-1.03,4.51-1.62.67-.26,1.34-.52,2.02-.77,1.34-.49,2.66-.93,3.91-1.18,1.78-.35,6.49-.83,8.66-.85.51,0,.87.02,1.04.07l-.19-.15.34-.29.76-.65c-.27-.31-.54-.64-5.14-.25-2.16.18-4.69.49-5.74.7-2.01.39-4.12,1.22-6.17,2.01-.44.17-.89.35-1.33.52-.72.27-1.44.54-2.14.77-.35.11-.7.22-1.04.32-3.2.91-6.38,1.51-9.45,2.09-2.14.41-4.34.82-6.57,1.35-.12.03-.25.06-.37.09l3.58.04Z"/>
      <path class="cls-44" d="M290.84,232.89l-.07-.02s-.01,0-.02,0c.03,0,.05.02.08.02ZM226.31,257.15c0,.07,0,.13,0,.2,4.76-7.72,14.04-15.28,21.97-19.34,8.99-4.59,17.12-7.05,27.26-7.15,2.52-.03,4.56.98,6.92,1.56,1.59.4,3.22.27,4.82.23l.4-.49c-2.96-.76-5.81-1.98-8.65-3.19-5.7-2.43-11.36-4.82-17.77-3.5-10.81,2.2-21.17,6.41-28.29,15.04-1.95,2.37-3.54,4.89-4.68,7.59-1.2,2.83-1.9,5.84-1.98,9.07Z"/>
      <path class="cls-26" d="M287.49,233.4c.26-.5.56-.97.92-1.4-.15-.07-.31-.12-.49-.14l-.23.28-.4.49-1.72,2.11c.66-.44,1.3-.88,1.92-1.35ZM259.81,266.48l25.76-31.74c-2.43,1.62-5.05,3.15-7.23,5.07-7,6.17-13.55,14.58-17.28,23.39-.46,1.08-.88,2.17-1.25,3.27Z"/>
      <path class="cls-38" d="M87.82,30.13c0-.06.02-.11.04-.15.01-.03.02-.05.03-.07,0-.02.02-.04.03-.06.03-.08.03-.14-.1-.22-.18.16-.35.32-.51.5h.51ZM84.79,33.35c-.53.81-1.04,1.64-1.53,2.44.39-.43,1.04-1.4,1.53-2.44ZM85.42,31.31c-.02.26-.08.53-.16.81-.08.29-.19.58-.31.88-.05.12-.1.24-.16.35.72-1.09,1.48-2.15,2.38-3.09.04-.05.09-.09.14-.14h-.97c-.17.35-.34.7-.49,1.07-.06.14-.12.28-.17.42l.5-1.5h-.1s-.9,0-.9,0c.23.31.29.73.25,1.2ZM85.17,30.11c-.12-.17-.29-.31-.52-.41l-.21.41h.73Z"/>
      <path class="cls-83" d="M90.52,17.16c-.44,2.08-.72,4.26-1.26,6.35-.23.88-.51,1.75-.86,2.59-.13.32-.28.63-.44.94-.55,1.07-1.12,2.05-1.63,3.08-.17.35-.34.71-.49,1.08-.06.14-.12.28-.17.42l.5-1.5,3.01-8.97,1.34-3.98Z"/>
      <path class="cls-10" d="M64.39,14.83c.8-1.88,2.13-2.87,4.24-.36,2.57,3.03,4,7.41,4.72,11.26,1.01,5.4-.4,10.24-2.24,15.29l-.5.25c-.17-.6-.35-1.21-.47-1.79-.19-.88-.46-1.86-.74-2.88-.07-2.27-.29-4.59-1.02-6.49-.21,1.93.41,4.3,1.02,6.49.03,1.12.03,2.22.02,3.25,0,.36.06,1.08.14,1.95l-.2.1c-.13-1.86-.39-3.71-.88-5.52-.13-.1-.22-.09-.27.04-.01.03-.02.05-.03.08l.63,5.68-.3.16c-2.09-3.74-4.47-7.58-5.35-11.83-.85-4.07-.22-8.61.43-12.67.16-1.02.42-2.11.8-3.01Z"/>
      <path class="cls-66" d="M69.66,48.37c.03-.07.06-.16.08-.25l-.21.34s-.02.06-.03.08c-.01.03-.03.06-.04.09.08-.05.14-.14.2-.27ZM69.43,39.84c0,.36.06,1.08.14,1.95.17,1.8.4,4.27.27,5.71,0,.03,0,.06-.01.1-.02.19-.05.36-.09.51l.42-.72c.06-.32.15-.65.25-.98.31-1.07.69-2.2.58-3.32-.06-.59-.21-1.21-.38-1.83-.17-.6-.35-1.21-.47-1.79-.19-.88-.46-1.86-.74-2.88.03,1.12.03,2.22.02,3.25ZM69.4,36.59c-.07-2.27-.29-4.59-1.02-6.49-.21,1.93.41,4.3,1.02,6.49Z"/>
      <path class="cls-49" d="M68.83,48.41c.02.08.02.17.02.26,0,.09-.02.17-.05.27l.13.31c.14-.09.26-.21.36-.34.07-.09.13-.18.18-.27.01-.03.03-.06.04-.09.01-.03.02-.05.03-.08.05-.13.08-.26.09-.4,0-.02,0-.04,0-.06-.2-.1-.4-.19-.61-.27-.06-.02-.11-.05-.17-.07-.02,0-.03-.01-.05-.02-.35-.14-.72-.28-1.08-.42.52.25,1.01.67,1.1,1.19ZM67.72,47.22c-.15-.07-.3-.13-.45-.17.15.06.3.11.45.17Z"/>
      <path class="cls-49" d="M68.22,36.42c.05-.13.14-.14.27-.04.5,1.81.75,3.66.88,5.52.13,1.9.12,3.81.09,5.69,0,.1,0,.2,0,.31l-.03-.3-.6-5.42-.63-5.68s.02-.06.03-.08Z"/>
      <path class="cls-88" d="M48.52,61.18l.13.17c-.02-.05-.04-.11-.06-.16-.17-.36-.48-.69-.85-1.01l.78,1ZM44.6,57.17c.44.55.9,1.08,1.4,1.59.44.45,1.16.91,1.74,1.42l-3.6-4.63-5.05-6.5c2,2.62,3.46,5.55,5.51,8.12ZM39.08,49.05c-.1-.13-.19-.25-.3-.38l.3.38Z"/>
      <path class="cls-102" d="M81.46,92.73l-1.02.92c.39-.24.73-.55,1.02-.92ZM82.51,72.34c0,.94-.03,1.85,0,2.58.11,2.18.28,4.14.32,6.3.06,2.58.61,7.27-.66,10.27-.19.46-.43.87-.72,1.24l1.19-1.07c1.1-.04,1.87-.59,2.41-1.44.15-.23.28-.49.4-.76,1.13-2.66.76-7.03.67-8.92-.1-2.26-.47-4.32-1.3-6.4-.66-1.67-1.78-3.15-2.54-4.76.19.91.23,1.96.22,2.97ZM82.29,69.37c-.06-.28-.13-.55-.22-.8-.03.03-.06.05-.08.08.09.25.2.48.31.72Z"/>
      <path class="cls-42" d="M57.27,81.39c3.14-.44,6.7-1.76,9.33-3.43,3.37-2.13,7.04-3.56,10.5-5.48.72-.4,1.42-.86,2.1-1.38-.75.84-1.63,1.63-2.45,2.44-2.02,1.97-3.85,3.98-5.78,6.04-.64.68-1.43,1.19-2.3,1.61-.38.18-.77.35-1.17.51-.33.13-.65.25-.98.36-.46.17-.92.32-1.38.48-.09.03-.17.06-.26.09-.42.15-.83.3-1.22.47-1.99.84-6.65,1.59-6.4-1.73Z"/>
      <path class="cls-34" d="M57.25,80.59c.98-2.32,3.35-4.72,5.07-6.38.14-.13.28-.27.42-.41.27-.26.53-.52.81-.79.32-.31.64-.63.96-.94.02-.02.04-.04.06-.07.45-.43.89-.86,1.34-1.28,1.1-1.02,2.23-1.98,3.4-2.76,2.18-1.44,5.23-2.73,6.87-4.73,1.13-1.39,2.11-2.86,3.11-4.31.74-1.07,1.5-2.14,2.34-3.16,1.02-1.24,4.97-5.27,7.14-5.4,1.37-1.81,2.95.86,3.12,2.27.1.84-.17,1.81-.56,2.75-.38.9-.88,1.76-1.29,2.43-.86,1.39-1.82,2.9-2.86,4.41-1.53,2.21-3.24,4.42-5.12,6.34-.03.03-.06.05-.08.08-.19.19-.37.37-.56.56-.72.69-1.46,1.32-2.22,1.9-.69.52-1.39.98-2.1,1.38-3.46,1.92-7.13,3.35-10.5,5.48-2.63,1.67-6.19,2.99-9.33,3.43-.1.01-.21.03-.31.04.08-.28.17-.56.29-.84Z"/>
      <path class="cls-69" d="M74.39,102.81c.03-.07.07-.15.12-.23.13-.22.33-.45.56-.68.02-.03.05-.05.08-.08,1.44-1.38,4.33-2.81,5.61-3.36-1.47,1.25-2.99,2.47-4.47,3.75-.36.31-.72.62-1.07.94-.32.29-.63.57-.95.87.04-.29.06-.59.05-.89l.03-.2s.03-.07.04-.1Z"/>
      <path class="cls-77" d="M72.05,109.5c.06-.1.12-.21.18-.32.03-.07.07-.14.1-.21.04-.09.07-.18.11-.28.04-.09.07-.19.1-.29-.12.24-.23.49-.33.74-.05.12-.1.24-.15.36ZM73.73,101.19c.02.19.02.39.02.58-.02,1.04-.26,2.12-.48,3.13-.21.97-.38,2.37-.74,3.5.06-.13.12-.25.18-.38.08-.16.16-.32.23-.48.26-.53.52-1.05.74-1.57.28-.65.49-1.3.59-1.96.04-.29.06-.59.05-.89-.02-.46-.11-.93-.3-1.41-.04-.09-.08-.18-.12-.28l-.03-.11-.29-1.05c.09.3.14.61.16.93Z"/>
      <path class="cls-25" d="M77.49,128.75c1.33,2.92,2.53,5.92,3.9,8.81l-4.17-9.5c.09.24.18.48.28.69ZM77.21,128.06c-.69-1.95-1.06-4.65-2.58-5.88l2.58,5.88Z"/>
      <path class="cls-47" d="M66.08,82.27l.42-.09.03.09s.04.05.06.07c.3.41.39,1.29.45,1.76.07.55.17,1.07.12,1.61,0,.1-.03.2-.05.3.03-.12.04-.25.04-.37,0-.29-.04-.59-.13-.9-.22-.86-.69-1.76-.94-2.46Z"/>
      <path class="cls-47" d="M68.85,100.58c.02-.37,0-.75-.02-1.12,0,.37.01.74.02,1.12ZM68.21,85.56c-.06.57.02,1.19-.07,1.76-.09.61-.29,1.21-.39,1.81-.2,1.2-.23,2.43-.13,3.66.01.12.03.24.04.36.1.79.31,1.56.48,2.34.07.33.14.66.19.99.05.31.11.63.17.95.12.64.24,1.29.3,1.95,0,.03,0,.05,0,.07,0-.02,0-.03,0-.05,0-.63,0-1.26-.01-1.89-.01-.99-.06-1.97-.23-2.95-.18-1.08-.44-2.14-.4-3.23.03-1.1-.02-2.22.02-3.34.01-.34,0-.68,0-1.03,0-.25,0-.5,0-.75.02-.57.08-1.13.13-1.69-.04.34-.08.68-.12,1.02ZM68.41,83.34c-.01.4-.05.8-.09,1.2.04-.31.07-.61.1-.91.04-.43.08-.86.09-1.29.01-.28.01-.57,0-.85l-.08.03-.03,1.83Z"/>
      <path class="cls-92" d="M66.82,94.53l.96-.13s0,0,0,0c.14.29.16.57.14.84-.01.11-.03.21-.05.32-.07.33-.18.66-.24,1.01-.11.68-.04,1.41-.19,2.05-.37-.49-.35-1.5-.39-2.07-.02-.26-.05-.51-.08-.77-.05-.42-.11-.84-.15-1.26Z"/>
      <path class="cls-92" d="M65.35,82.93s.03-.07.05-.11l1.31,6.92.29,1.52c-.12-.31-.23-.62-.34-.94-.23-.69-.44-1.4-.61-2.12-.2-.81-.35-1.62-.47-2.41-.07-.49-.28-1.21-.33-1.88-.02-.27-.02-.54.03-.77.02-.08.04-.16.07-.22Z"/>
      <path class="cls-101" d="M71.07,168l.39.23,3.82,2.35.09.06c1.05.41,2.5.76,3.1,1.48.04.04.07.09.11.14-.1-.06-.21-.1-.31-.14-.41-.13-.9-.12-1.4,0-.64.15-1.32.48-1.92.88-.73.48-1.35,1.07-1.71,1.6-.52-.83-.6-1.79-.66-2.75-.03-.35-.05-.69-.09-1.03-.04-.36-.1-.71-.21-1.05-.2-.64-.55-1.25-1.21-1.76Z"/>
      <path class="cls-37" d="M162.51,130.2c1.16-.15,2.29-.44,3.37-.84.16-.22.31-.45.44-.68.59-1.05,1.11-2.13,1.57-3.23.7-1.65,1.29-3.35,1.86-5.06.42-1.57.88-3.11,1.49-4.56.15-.35.31-.7.48-1.04-.73,1.84-1.34,3.73-1.97,5.61-.14.51-.27,1.03-.4,1.54-.55,2.09-1.09,4.2-1.93,6.18-.11.25-.22.5-.33.75,4.4-2.06,7.89-6.04,9.8-10.55.2-.48.39-.97.56-1.46.9-2.65.52-6.19-1.1-8.6-.45-.66-.98-1.23-1.61-1.68l-.49-1.75c-.09,1.36-.43,2.65-.95,3.87-2.11,5-7.28,8.91-11.48,12.3-6.17,4.97-13.76,8.02-19.55,13.54-1.33,1.27-2.61,2.7-3.81,4.04-.53.6-.99,1.37-1.47,2.12-.29.47-.59.92-.91,1.33,7.24-7.2,16.55-10.51,26.45-11.83ZM135.25,142.87c.29-.23.56-.52.81-.84-.27.27-.54.55-.81.83,0,0-.01.01-.02.02,0,0,.01,0,.01-.01Z"/>
      <path class="cls-30" d="M169.75,120.39c.63-1.88,1.25-3.76,1.97-5.61-.17.34-.33.69-.48,1.04-.62,1.46-1.07,3-1.49,4.56ZM161.82,136.81c1.75-1.7,3.31-4.48,4.55-6.58.26-.45.5-.91.72-1.38.12-.25.23-.5.33-.75.84-1.98,1.39-4.09,1.93-6.18.13-.51.27-1.03.4-1.54-.57,1.7-1.16,3.4-1.86,5.06-.47,1.1-.98,2.18-1.57,3.23-.13.24-.28.46-.44.68-.7.97-1.62,1.78-2.32,2.75-.78,1.12-1.14,2.5-1.9,3.61-.73,1.09-2.04,2.46-3.46,3.44,1.31-.68,2.62-1.37,3.62-2.36ZM158.2,139.16c-.64.33-1.28.65-1.89,1,.63-.22,1.27-.58,1.89-1ZM154.99,141.04c.41-.32.86-.6,1.33-.87-.37.13-.74.22-1.09.25l-.24.62Z"/>
      <path class="cls-7" d="M108.55,106.85c-.07.17-.13.34-.18.53-.84,2.99.43,7.64,1.33,10.34,1.09,3.3,1.74,6.7,2.84,9.98,1.01,3.01,3.61,5.22,5.6,7.64,1.93,2.34,4.23,4.27,6.06,6.65,1.89,2.49,4.12,4.29,6.19,6.53l.36.39c-.09-.05-.18-.1-.28-.14-1.13-.57-2.27-1.09-3.42-1.59-.85-.37-1.7-.72-2.55-1.08-.56-.24-1.12-.47-1.68-.72-.38-.16-.76-.33-1.14-.51-3.38-1.53-5.99-4.03-8.51-6.71-5.66-5.96-5.75-12.9-5.78-20.73,0-2.44-.13-4.57.16-6.73.14-1.05.38-2.12.77-3.23.07-.21.15-.41.23-.62Z"/>
      <path class="cls-43" d="M122.89,162.63c.08-.18.17-.35.31-.46,0,.52-.11,1.04-.17,1.56,0,.09-.02.17-.02.25-.01.45-.07.91-.08,1.35-.04.92-.2,1.85-.2,2.78,0,1.95.55,3.8,1.01,5.68.11.44.2.92.31,1.4.03.13.06.26.1.39.21.79.52,1.53,1.15,2l-1.49-.95-.27-.17c-.3-.31-.63-.67-.85-1.05-.19-.33-.23-.71-.37-1.06-.41-.97-.88-1.87-1.01-2.94-.24-2.09.04-4.47.77-6.44.2-.52.33-1.06.54-1.58.1-.22.16-.52.27-.79Z"/>
      <path class="cls-70" d="M137.58,242.87c.11-.21.22-.43.31-.65.15-.35.27-.71.36-1.07l-.67,1.71ZM119.46,259.48c5.33-2.1,12.34-5.49,15.36-9.53l.75-1.92,2.01-5.16c-2.91,5.6-12.44,10.51-17.34,13.19-4.93,2.7-11.94,7.06-17.98,8.49-1.55.37-3.03.54-4.4.44,7.4,2.85,14.82-2.83,21.59-5.51Z"/>
      <path class="cls-22" d="M92.24,259.79c.17-.08.34-.16.51-.24.57-.26,1.14-.53,1.72-.79,6.87-3.09,13.9-5.87,20.66-9.5,4.13-2.21,8.31-4.56,11.89-7.54,1.73-1.45,3.71-3.13,5.57-4.65,1.92-1.57,3.76-4.47,5.96-5.41l-2.37,4.64c-.4.92-.84,1.8-1.3,2.64-3.77,6.76-9.61,10.83-17.12,13.64-7.36,2.76-16.95,7.18-24.85,7.22-.23,0-.46,0-.68,0Z"/>
      <path class="cls-6" d="M131.15,273.96c.11-.17.24-.34.38-.51.68-.82,1.61-1.6,2.69-2.34,4.23-2.88,10.87-5.21,14.43-7.07,4.05-2.14,6.99-4.86,10.36-8.12,2.37-2.29,6.74-8.06,9.76-8.59l2.16.84c-.11.28-.23.56-.35.86-.53,1.24-1.13,2.53-1.82,3.83-3.38,6.43-8.61,13.08-14.93,15.75-3.95,1.67-15.27,6.93-20.82,6.04-.73-.12-1.36-.34-1.86-.69Z"/>
      <path class="cls-15" d="M149.01,196.4s-.03,0-.05-.01c-.01,0-.03,0-.04,0,.03,0,.06,0,.09.01ZM133.15,206.51s-.01.04-.02.07c0,.03-.01.06-.02.09-.11.77.34,1.7.04,2.41,0,.02-.01.03-.02.05.22-.2.39-.52.54-.86,0-.02.02-.05.03-.08.05-.12.1-.24.14-.35.06-.14.11-.28.16-.4.02-.04.03-.08.05-.11.18-.37.41-.72.66-1.05.17-.23.34-.45.52-.67.78-1.04,1.69-1.97,2.64-2.87.51-.48,1.05-.96,1.6-1.41,1.63-1.32,3.43-2.48,5.27-3.36.96-.47,2.09-1.25,3.21-1.5-.26.04-.5.1-.71.19h0c-.74.25-1.48.64-2.01.86-1.06.45-2.18.75-3.25,1.19-2.07.88-3.93,2.6-5.74,3.97l-1.55,1.46.08.15c-.54.41-1.21,1.17-1.51,1.89-.05.12-.09.23-.12.35Z"/>
      <path class="cls-15" d="M164.16,231.46l.12-.25,1.01-2.04c-.06.21-.13.42-.21.6-.04.1-.09.19-.13.28l1.16,1.51c0,.08.02.16.03.23.03.22.08.43.16.63-.23-.23-.44-.31-.63-.3-.54,0-.98.65-1.53.41,0-.07,0-.14.01-.2.02-.29.03-.58.01-.87Z"/>
      <path class="cls-15" d="M167.88,218.18c.26-.62.56-1.22.88-1.75.36-.59.63-1.2.98-1.79.26-.43.45-1.18.83-1.5-.65,2.32-1.24,4.66-1.92,7.01-.04.15-.08.29-.13.43-.7,2.39-1.51,4.85-1.88,7.33-.08.54-.06,1.17-.17,1.69-.13.7-.44,1.34-.31,2.02l-.05-.06-1.16-1.51c.05-.09.09-.18.13-.28.08-.19.15-.39.21-.6.22-.74.36-1.61.46-2.26.19-1.12.59-2.14.7-3.27.18-1.73.69-3.72,1.42-5.46Z"/>
      <path class="cls-27" d="M105.88,166.27c4.38,1.72,8.12,4.37,12.22,6.65l-12.22-6.65Z"/>
      <path class="cls-27" d="M101.57,164.43c-.69-.97-1.05-2.13-1.77-3.1-.91-1.24-2.13-2.15-3.3-3.11-.32-.26-.77-.6-1.23-.98l6.31,7.19ZM95.26,157.24l-2.09-2.38c.26.79,1.21,1.66,2.09,2.38Z"/>
      <path class="cls-27" d="M124.42,175.71c.73.21,1.3.7,1.84,1.22.17.16.34.33.5.49.75.74,1.66,1.48,2.49,2.28.17.22.35.44.53.64.2.22.41.43.61.64.31.41.57.84.76,1.29l-6.63-6.46-.1-.1Z"/>
      <path class="cls-27" d="M127.58,177.71l.64.56,11.9,10.34-1.12-.6s.03.02.04.03c-2.33-1.47-4.52-3.2-6.56-5.04-.72-.66-1.42-1.32-2.09-2.01-.2-.21-.41-.43-.61-.64-.18-.2-.36-.41-.53-.64-.43-.54-.84-1.12-1.3-1.62-.12-.13-.25-.25-.37-.37Z"/>
      <path class="cls-27" d="M139.01,188.01l1.12.6,4.14,2.25,3.86,2.1.95.52,2.15,1.17.08.04.15.08-.09.23c-.12-.03-.24-.07-.36-.12-.11-.04-.22-.08-.33-.12-.79-.31-1.56-.7-2.31-1.07-.99-.48-2.11-.93-3.06-1.5-2.13-1.27-4.29-2.56-6.26-4.16-.01-.01-.03-.02-.04-.03Z"/>
      <path class="cls-32" d="M84.51,145.39l1.24,2.95,1.05,2.5c-.23-.31-.75-.51-1.19-.7-.17-.07-.32-.14-.44-.22-.58-.36-1.06-.7-1.71-.95.12-.07.24-.1.37-.11.3-.02.63.1.92.19-.04-.22-.07-.45-.09-.67-.09-.99,0-2-.14-2.99Z"/>
      <path class="cls-27" d="M89.4,151.71c-.25-.16-.49-.32-.74-.47.21.23.45.4.74.47ZM85.86,148.34c.02.06.04.12.07.18.55,1.36,1.61,2.02,2.74,2.72-.21-.23-.39-.51-.55-.81-.32-.6-.55-1.27-.75-1.74-.27-.62-.52-1.24-.79-1.84-.36-.82-1.07-1.55-1.27-2.42l-.44-.41-.6-.56c1.02,1.27,1.04,3.37,1.59,4.89Z"/>
      <path class="cls-15" d="M295.18,231.23c.18-.04.3-.12.35-.25.01-.04.03-.07.03-.12-.41.09-.82.21-1.23.36h.84ZM288.61,231.76c-.07.08-.14.16-.2.24-.35.43-.66.9-.92,1.4-.1.2-.19.4-.28.6-.15.36-.28.73-.39,1.11,1.02-.18,2.24-1.25,3.33-1.91.2-.12.4-.23.59-.32,0,0,.01,0,.02-.01,0,0,0,0,.02,0,.26-.12.53-.25.79-.38.91-.44,1.84-.92,2.77-1.26l-3.58-.04-5.74-.06c1.15.66,2.52.1,3.59.62Z"/>
      <path class="cls-71" d="M335.52,221.85c.99-.49,2.09-.86,3.24-1.15,1.63-.41,3.38-.66,5.1-.87,1.1-.13,2.19-.25,3.23-.38.84-.1,1.64-.21,2.4-.35.76-.14,1.5-.3,2.22-.48.34-.09.67-.18,1-.28,1.19-.36,2.35-.79,3.52-1.32,1.42-.63,4.03-2.28,5.85-2.46.17-.02.34-.02.5,0,.09,0,.18.02.28.04l3.75-1.06c-1.28.73-2.51,1.47-3.74,2.19-.57.34-1.15.67-1.72,1-1.63.92-3.28,1.77-5.05,2.45-1.16.44-2.36.82-3.64,1.1-4.46.95-9.05,1.07-13.59,1.34-1.13.07-2.25.14-3.36.24Z"/>
      <path class="cls-28" d="M277.67,198.48l.53-.56c.14,2.55,1.01,4.92,1.85,7.3.91,2.56,2.07,4.36,3.79,6.44.83.98,1.7,1.97,2.6,2.88.34.34.67.76,1.02,1.16.4.46.83.91,1.31,1.21.19.12.39.22.6.29l-.09.22c-1.56-.25-2.82-.96-4.01-1.96-.61-.51-1.14-1.07-1.6-1.68-.18-.24-.35-.49-.52-.74-.92-1.41-1.58-2.98-2.3-4.57-.68-1.55-1.51-2.83-1.94-4.48-.47-1.85-1.1-3.57-1.25-5.5Z"/>
      <path class="cls-60" d="M280.59,210.76c.47.8.78,1.55,1.17,2.39.11.22.22.46.34.69.03.05.05.09.08.14.12.22.25.44.38.66.73,1.18,1.7,2.27,3.02,2.58l-2.19-3.22-.51-.75-3.24-4.77c.09.72.64,1.71.96,2.28ZM279.64,208.48c0-.08-.01-.16-.01-.24l-.23-.12.24.36Z"/>
      <path class="cls-79" d="M172.14,210.51h0c.63-1.1,1.88-1.67,2.89-2.56.36-.32.69-.68.95-1.12l4.67,2.24c-.7.13-1.39.23-2.08.32-.08.01-.16.02-.24.03-2.03.26-4.05.43-6.19,1.09Z"/>
      <path class="cls-65" d="M157.74,198.68c-.08-.1-.19-.19-.32-.27.11.09.22.18.32.27ZM147.95,196.45c.31-.05.64-.06.97-.06.01,0,.03,0,.04,0,.39,0,.76.02,1.06.04.29.02.6.04.91.06.48.04.97.09,1.44.18.11.02.22.04.33.07.29.06.57.14.85.22.57.18,1.13.41,1.69.63.57.23,1.58.44,2.18.82-1.52-1.26-3.32-2.49-5.18-2.95-.58-.14-1.18-.21-1.77-.17-.52.03-1.04.14-1.55.35-.49.19-.97.47-1.45.85l-.15.07-.06.08h0c.21-.08.45-.14.71-.18Z"/>
      <path class="cls-65" d="M216.07,205.08c-.47.1-.92.32-1.33.6.45-.1.9-.29,1.33-.6ZM209.22,204.09c-.02.13,0,.28.04.45.03.13.08.26.14.4.21.52.55,1.08.69,1.41.4.97.65,1.92,1.02,2.88.45,1.2,1.32,2.63,2.47,3.48.7.52,1.5.83,2.38.74-.97-.5-1.9-.84-2.56-1.34-.76-.58-1.18-1.39-.91-2.92.06-.35.17-.72.32-1.07.02-.04.03-.08.05-.12.19-.43.44-.84.74-1.22.33-.42.71-.8,1.14-1.1-.72.16-1.45.07-2.16-.16-.06-.02-.12-.04-.18-.06-.4-.15-.79-.34-1.17-.57-.32-.19-.62-.4-.92-.62l-.22-.14c-.22-.12-.43-.25-.65-.38-.1.05-.16.12-.2.21-.02.04-.03.08-.03.13Z"/>
      <path class="cls-80" d="M219.66,215.48c2.38-.72,4.98-.07,7.36.29.48.07.95.14,1.4.17l.31,1.38c-.7.06-1.41.05-2.11-.02-2.33-.21-4.68-1-6.96-1.83Z"/>
      <path class="cls-8" d="M198.93,154.39c2.17-.29,4.23.41,6.14,1.71.04.03.09.06.13.09,2.16,5.15,5.89,9.32,8.16,14.33,2.04,4.48,5.26,12.73,3.14,17.74-.14.32-.29.63-.48.92l.9-1.41c-.62,3.3-1.53,6.51-2.4,9.33l-.98,1.05-.84.9c.84-3.04-.7-7.78-1.34-10.87-.82-3.98-1.8-7.52-3.19-11.26-1.39-3.74-2.33-7.54-3.55-11.38-.71-2.27-1.51-5.9-3-8.47-.72-1.23-1.59-2.22-2.7-2.69Z"/>
      <path class="cls-94" d="M239.22,196.15c-.5-.07-1.01-.22-1.46-.48l3.2-2.25c-.04.11-.08.21-.13.32-.38.91-.91,1.7-1.61,2.41ZM234.69,198.53c1.85-.92,3.74-1.73,5.65-2.51,3.32-1.36,6.69-2.65,10.03-4.32,1.18-.58,8.62-4.78,11.03-7.96.25-.34.45-.66.58-.97.45-1.06.08-1.91-1.64-2.35l-4.02-7.41c.16,1-.02,2.01-.45,3.02,0,0,0,0,0,.01-1.94,4.56-8.9,8.97-11.85,11.83-3.42,3.32-6.95,7.11-10.65,10.43.45,0,.89.05,1.33.23ZM230.16,201.1c.85-.56,1.72-1.07,2.59-1.56l-.45-.31c-.77.67-1.55,1.31-2.34,1.92-.4.31-.8.61-1.2.91.46-.33.93-.65,1.4-.96Z"/>
      <path class="cls-52" d="M204.58,154.55c1.06.27,2.11.58,3.14.93,4.26,1.47,8.15,3.78,10.21,8.04,1.17,2.41,2.41,5.32,2.68,8.03.3,2.95.7,8.38-.46,11.12-.02.05-.04.09-.06.13l-3.17,4.96-.9,1.41c.18-.29.34-.6.48-.92,2.12-5.02-1.1-13.27-3.14-17.74-2.28-5.01-6-9.18-8.16-14.33-.02-.04-.03-.08-.05-.11-.21-.5-.4-1-.57-1.52Z"/>
      <path class="cls-13" d="M188.19,158.84c.17,1.24.44,2.5.78,3.79,1.82,6.88,5.74,14.31,8.66,20.05,1.69,3.32,3.75,6.8,6.03,9.85,1.15,1.53,2.86,2.9,3.88,4.56,1.33,2.11,1.06,4.53,3.19,6.15l.62.88.66.94c-.26-.1-.51-.21-.76-.33-.39-.18-.77-.38-1.15-.59-.22-.12-.43-.25-.65-.38-.72-.44-1.42-.94-2.11-1.48-1.43-1.13-2.8-2.47-4.09-3.91-3.46-3.88-6.38-8.56-8.71-12.4-3.75-6.17-7.38-14.29-7.18-21.9.05-1.78.3-3.53.82-5.23Z"/>
      <path class="cls-40" d="M228.8,196.26c.97-.68,1.7-1.51,2.24-2.53.68.12,1.37.29,1.91.75-.8.36-1.26.77-2.4.75.47.15.86.43,1.29.59-.99.48-2.11,1.33-2.61,2.36l-.42-1.92Z"/>
      <path class="cls-40" d="M230.93,198.25c.84.19,1.65.05,2.43.05.45,0,.89.05,1.33.23.2.08.39.19.58.34-.03.14-.06.29-.1.45-.08.34-.18.71-.32,1.04-.08.18-.16.34-.26.48l-1.13-.8-.71-.5-.45-.31-1.38-.98Z"/>
      <path class="cls-40" d="M237.76,195.67l3.2-2.25c-.04.11-.08.21-.13.32-.38.91-.91,1.7-1.61,2.41-.5-.07-1.01-.22-1.46-.48Z"/>
      <path class="cls-40" d="M252.05,170.95c.63.06,1.4.52,1.92.84-.03.4-.12.79-.26,1.15,0,.02-.02.05-.03.07-.43,1.02-1.3,1.75-2.49,1.68l.85-3.66.02-.07Z"/>
      <path class="cls-40" d="M162.08,173.17c1.7-.7,4.8,1.05,5.17,3.18l-5.17-3.18Z"/>
    </g>
  </g>
</svg>