<?xml version="1.0" encoding="UTF-8"?>
<svg id="_圖層_2" data-name="圖層_2" xmlns="http://www.w3.org/2000/svg" viewBox="0 0 404.28 307.37">
  <defs>
    <style>
      .cls-1 {
        fill: #b1c893;
      }

      .cls-2 {
        fill: #d6debd;
      }

      .cls-3 {
        fill: #b9cfb2;
      }

      .cls-4 {
        fill: #c9c9b0;
      }

      .cls-5 {
        fill: #bcccb9;
      }

      .cls-6 {
        fill: #928a7a;
      }

      .cls-7 {
        fill: #a4c0be;
      }

      .cls-8 {
        fill: #99b2ac;
      }

      .cls-9 {
        fill: #bcd5d0;
      }

      .cls-10 {
        fill: #bbcfb8;
      }

      .cls-11 {
        fill: #7f715e;
      }

      .cls-12 {
        fill: #99b0a5;
      }

      .cls-13 {
        fill: #d8ead3;
      }

      .cls-14 {
        fill: #bfc7a2;
      }

      .cls-15 {
        fill: #b9ccc6;
      }

      .cls-16 {
        fill: #a8bdb6;
      }

      .cls-17 {
        fill: #95aea8;
      }

      .cls-18 {
        fill: #879e95;
      }

      .cls-19 {
        fill: #7d795d;
      }

      .cls-20 {
        fill: #8eaba6;
      }

      .cls-21 {
        fill: #97b3a9;
      }

      .cls-22 {
        fill: #9d9283;
      }

      .cls-23 {
        fill: #8ca18b;
      }

      .cls-24 {
        fill: #abc1be;
      }

      .cls-25 {
        fill: #8ea397;
      }

      .cls-26 {
        fill: #a3b8b2;
      }

      .cls-27 {
        fill: #9fae96;
      }

      .cls-28 {
        fill: #9c8569;
      }

      .cls-29 {
        fill: #8c8275;
      }

      .cls-30 {
        fill: #9aa195;
      }

      .cls-31 {
        fill: #c3cfab;
      }

      .cls-32 {
        fill: #baccb9;
      }

      .cls-33 {
        fill: #93a898;
      }

      .cls-34 {
        fill: #aba587;
      }

      .cls-35 {
        fill: #9cb4aa;
      }

      .cls-36 {
        fill: #95a89d;
      }

      .cls-37 {
        fill: #acc8c8;
      }

      .cls-38 {
        fill: #c7dccb;
      }

      .cls-39 {
        fill: #b8b39a;
      }

      .cls-40 {
        fill: #92a69b;
      }

      .cls-41 {
        fill: #b0c7c4;
      }

      .cls-42 {
        fill: #becda3;
      }

      .cls-43 {
        fill: #bdd2c7;
      }

      .cls-44 {
        fill: #a3b5a5;
      }

      .cls-45 {
        fill: #c4c4a6;
      }

      .cls-46 {
        fill: #a29287;
      }

      .cls-47 {
        fill: #cbcab3;
      }

      .cls-48 {
        fill: #b3c1be;
      }

      .cls-49 {
        fill: #bacfc8;
      }

      .cls-50 {
        fill: #bacbb6;
      }

      .cls-51 {
        fill: #91a68f;
      }

      .cls-52 {
        fill: #a2b7ae;
      }

      .cls-53 {
        fill: #a1bab5;
      }

      .cls-54 {
        fill: #849b93;
      }

      .cls-55 {
        fill: #807567;
      }

      .cls-56 {
        fill: #9cb3b0;
      }

      .cls-57 {
        fill: #868f7e;
      }

      .cls-58 {
        fill: #8ea8a1;
      }

      .cls-59 {
        fill: #adc5be;
      }

      .cls-60 {
        fill: #9db3b0;
      }

      .cls-61 {
        fill: #c3dede;
      }

      .cls-62 {
        fill: #b9c8be;
      }

      .cls-63 {
        fill: #abbeb3;
      }

      .cls-64 {
        fill: #bdd2be;
      }

      .cls-65 {
        fill: #afbea3;
      }

      .cls-66 {
        fill: #b4b38b;
      }

      .cls-67 {
        fill: #748773;
      }

      .cls-68 {
        fill: #93aba4;
      }

      .cls-69 {
        fill: #8b9e89;
      }

      .cls-70 {
        fill: #b4ae8e;
      }

      .cls-71 {
        fill: #b7bcad;
      }

      .cls-72 {
        fill: #b9ccc7;
      }

      .cls-73 {
        fill: #b7c7bd;
      }

      .cls-74 {
        fill: #a1bab3;
      }

      .cls-75 {
        fill: #adc3c0;
      }

      .cls-76 {
        fill: #bec0a6;
      }

      .cls-77 {
        fill: #acb8a2;
      }

      .cls-78 {
        fill: #a8aa85;
      }

      .cls-79 {
        fill: #a79f82;
      }

      .cls-80 {
        fill: #aecac5;
      }

      .cls-81 {
        fill: #a0ae94;
      }

      .cls-82 {
        fill: #bbcdbb;
      }

      .cls-83 {
        fill: #91aba6;
      }

      .cls-84 {
        fill: #a5ab8c;
      }

      .cls-85 {
        fill: #c5cfae;
      }

      .cls-86 {
        fill: #9c9382;
      }

      .cls-87 {
        fill: #9aae9d;
      }

      .cls-88 {
        fill: #b8d7d5;
      }

      .cls-89 {
        fill: #a4bbb3;
      }

      .cls-90 {
        fill: #bacdb9;
      }

      .cls-91 {
        fill: #a4bbb7;
      }

      .cls-92 {
        fill: #cbe7dd;
      }

      .cls-93 {
        fill: #93a99c;
      }

      .cls-94 {
        fill: #8c9685;
      }

      .cls-95 {
        fill: #c7bfaf;
      }

      .cls-96 {
        fill: #6c5d4e;
      }

      .cls-97 {
        fill: #857d6a;
      }

      .cls-98 {
        fill: #acc8c3;
      }

      .cls-99 {
        fill: #a6b5a8;
      }

      .cls-100 {
        fill: #becfbb;
      }

      .cls-101 {
        fill: #b4c3ad;
      }

      .cls-102 {
        fill: #b2cfcc;
      }

      .cls-103 {
        fill: #a1b1a3;
      }

      .cls-104 {
        fill: #b3c2bf;
      }

      .cls-105 {
        fill: #abbfb6;
      }

      .cls-106 {
        fill: #e4ebb9;
      }

      .cls-107 {
        fill: #aba885;
      }

      .cls-108 {
        fill: #b9c9bb;
      }

      .cls-109 {
        fill: #526853;
      }

      .cls-110 {
        fill: #b1b89f;
      }

      .cls-111 {
        fill: #a6b9ae;
      }

      .cls-112 {
        fill: #c2dbda;
      }

      .cls-113 {
        fill: #b4c3b2;
      }

      .cls-114 {
        fill: #a3b396;
      }

      .cls-115 {
        fill: #a9bcb1;
      }

      .cls-116 {
        fill: #97a88b;
      }
    </style>
  </defs>
  <g id="_圖層_1-2" data-name="圖層_1">
    <g>
      <g>
        <path class="cls-22" d="M297.64,207.64l-3.32-7.41c-.37-.83-1-1.54-1.79-2-21.08-21.84-58.02-49.85-58.4-50.14l-1.64,2.18c.39.29,39.01,29.58,59.6,51.45l5.56,5.91Z"/>
        <path class="cls-71" d="M292.28,201.88l1.28-1.03c-1.09-1.37-4.37-2.6-7.62-3.72-.28-.1-.53-.2-.73-.26l-.25-.09c-2.69-.96-5.23-1.86-8.17-2.02-2.89-.16-5.93-.23-8.57.31-.76.14-1.51.31-2.25.47-.84.18-1.66.37-2.49.52-.59.13-1.25.35-1.97.59-1.02.35-2.18.74-2.86.67l-.2,1.62c1.05.13,2.34-.31,3.59-.74.65-.22,1.27-.42,1.76-.53.84-.15,1.68-.35,2.51-.53.74-.16,1.48-.32,2.23-.47,2.46-.49,5.37-.42,8.16-.26,2.71.14,5.13.99,7.7,1.92l.25.08c.22.08.47.17.75.27,1.94.67,5.98,2.07,6.88,3.2Z"/>
        <path class="cls-34" d="M275.16,183.26l1.44-.78c-2.47-4.52.14-12.55,2.48-16.84,1.18-2.16,3.01-4.34,4.62-6.3l.63-.76c.76-.91,1.74-1.74,2.78-2.6,1.57-1.32,3.21-2.68,4.14-4.51l-1.46-.74c-.78,1.53-2.21,2.74-3.73,3.99-1.06.89-2.13,1.79-3,2.82l-.62.76c-1.65,1.99-3.54,4.25-4.8,6.55-2.17,3.96-5.46,12.92-2.48,18.41Z"/>
        <path class="cls-28" d="M235.06,150.51c.23-1.05-.22-2.14-.68-3.29-.45-1.11-.93-2.26-.72-3.27.36-1.85,1.32-3.92,2.15-5.76l.25-.56c1.02-2.25,2.55-4.28,4.02-6.25,1.56-2.08,3.18-4.22,4.25-6.69l-1.5-.66c-1,2.29-2.5,4.27-4.06,6.37-1.53,2.03-3.11,4.14-4.21,6.56l-.25.54c-.84,1.83-1.86,4.1-2.27,6.13-.3,1.49.29,2.93.8,4.2.37.92.73,1.78.6,2.33l1.6.35Z"/>
        <path class="cls-78" d="M203.97,133.02c.81-.92,1.15-2.97,1.49-4.95.16-1,.31-1.93.51-2.52.83-2.59,2.11-4.92,3.27-6.87,1.15-1.96,2.75-4.44,4.85-6.29.83-.74,1.75-1.35,2.72-2,1.45-.97,2.95-1.97,4.17-3.42l-1.26-1.06c-1.08,1.28-2.4,2.17-3.82,3.11-.97.65-1.97,1.32-2.9,2.14-2.28,2-3.97,4.63-5.17,6.69-1.2,2.02-2.55,4.46-3.43,7.2-.22.7-.39,1.7-.56,2.76-.24,1.49-.6,3.56-1.1,4.12l1.23,1.09Z"/>
        <path class="cls-46" d="M145.31,164.19c1.38-1.51,3.09-3.51,3.91-5.5.28-.67.41-1.37.53-2.06.18-.92.35-1.79.84-2.37l.23-.28-.05-.36c-.69-5.65,2.01-13.38,3.79-18.49,1.05-2.97,2.37-5.55,3.96-7.64.27-.37.55-.76.83-1.17.56-.81,1.14-1.65,1.77-2.24.84-.78,1.76-1.08,2.83-1.42.62-.19,1.26-.41,1.91-.72l-.69-1.48c-.56.26-1.12.45-1.72.64-1.15.37-2.34.76-3.44,1.78-.76.71-1.4,1.63-2.01,2.51-.26.39-.51.77-.78,1.11-1.69,2.23-3.11,4.95-4.2,8.09-1.8,5.16-4.51,12.92-3.9,18.9-.59.86-.78,1.86-.96,2.83-.13.63-.24,1.23-.45,1.74-.73,1.77-2.41,3.71-3.61,5l1.21,1.12Z"/>
        <path class="cls-107" d="M142.39,110.01c-1.76-3.75-2.44-8.18-3.08-12.45-.34-2.19-.69-4.46-1.18-6.59-.6-2.62-.93-5.43-1.05-9.15-.03-1.06-.21-2.2-.38-3.31-.3-1.92-.6-3.9-.22-5.48l-1.6-.38c-.45,1.89-.12,4.04.2,6.12.16,1.12.33,2.17.36,3.12.1,2.58.3,5.98,1.09,9.46.47,2.08.82,4.31,1.15,6.47.62,4.06,1.27,8.24,2.82,11.99h-.03s.44.93.44.93l1.48-.71Z"/>
        <path class="cls-81" d="M269.47,198.93c-16.51-7.32-34.62-5.13-52.23-6.32-7.22-.49-16.86-1.72-22.7,3.68-5.89,5.42-3.71,14.62.5,20.35,5.68,7.69,14.08,8.92,23.01,8.44.11,2.74,4.18,5.73,6.33,7.19,2.57,1.73,6.56,2.24,9.58,2.11,7.43-.31,13.8.03,21.07-2.31,5.17-1.66,10.64-4.7,13.96-9l.5-24.13Z"/>
        <path class="cls-114" d="M265.74,196.27c7.8,3.35,21.24,10.96,21.51,20.8.3,11.59-15.86,14.57-24.32,16.27-6.27,1.27-19.82,1.22-26.2.8,3.99-2.22,16.22-2.63,19.84-5.47,2.91-2.31,6.47-6.12,8.12-9.39,3.89-7.76,3.81-14.45.9-22.54l.16-.48Z"/>
        <path class="cls-41" d="M329.1,96.83c2.67-.38,6.08,4.12,7.35,5.96,1.63,2.41,2.06,6.08,1.9,8.89,7.14,3.54,10.15,8.27,11,16.2.73,6.98,1.34,15.39-1.88,21.84-3.31,6.61-10.7,13.26-17.65,15.62-8.09,2.75-17.05-1.6-22.91-7.4-13.38-13.24-2.17-34.68,3.93-48.65l18.28-12.46Z"/>
        <path class="cls-75" d="M325.42,115.21c-3.19,4.57-8.16,8.47-10.61,13.47-1.94,3.97-2.64,8.55-4.26,12.65-.58,1.47-2.22,4.11-1.02,5.62,1.01,1.28,3.39.3,4.18,1.92.93,1.89-1.93,5.16-2.11,7.09-.26,2.7,1.5,3.55,3.76,4.44,4.63,1.85,9.58,2.84,14.05,5.05-4.45,3.06-13.29,1.42-17.93-.6-6.19-2.7-11.53-9.6-15.36-14.85-4.46-6.13-2.78-12.16.21-18.72l29.09-16.07Z"/>
        <path class="cls-63" d="M297.89,136.19c3.2-1.57,5.89-4.01,8.97-5.76,1.87-1.04,4.99-1.99,6.44-3.54-3.18,4.53-6.5,8.56-10.32,12.53-2.61,2.72-3.81,4.5-.87,7.41.95.94,1.95,2.38,3.07,3.07,1.56.95,3.45.32,3.95,2.48.4,1.83-1.2,3.66-.74,5.62.33,1.42,1.48,3.36,2.52,4.38,2.61,2.61,6.37,3.01,9.49,4.6-3.38-1.81-7.34-1.47-10.53-3.31-3.1-1.78-5.76-2.86-8.63-4.81-2.28-1.55-4.56-3.1-6.75-4.77-1.23-.95-2.51-2.06-3.53-3.22-1.26-1.4-1.82-3.19-3.14-4.55l10.08-10.14Z"/>
        <path class="cls-77" d="M290.25,146.37c4.2.58,6.37,2.3,8.53,5.95,2.09,3.55,4.02,6.76,7.37,9.31-2.47-2.21-6.29-3.19-9.26-4.68-3.24-1.6-5.81-3.29-9.36-2.8l2.72-7.78Z"/>
        <path class="cls-52" d="M290.42,145.88c7.6-5.58,14.05-12.73,22.05-17.73,8.98-5.59,18.32-11.5,14.78-23.82-3.37-11.71-15.24-15.99-26.24-16.77-10.2-.73-18.69,2.69-21.43,13.41-3.21,12.57,2.6,25.64,5.71,37.66l5.13,7.25Z"/>
        <path class="cls-105" d="M333.77,100.64c3.17,2,3.91,9.09,1.88,11.98-1.24,1.76-3.49,2.57-5.25,3.62-1.81,1.07-3.78,2.41-5.93,2.58,1.6-3.11-.06-6.48-1.04-9.5-1.22-3.76-2.8-6.09-6.6-7.12-2.97-.81-8.09-.64-10.47-2.45-2.64-1.99-4.48-4.43-7.47-6.21-4.14-2.5-7.8-3.7-12.46-4.88,4.39-1.26,9.33-1.07,13.95-1.47,2.28-.19,4.55-.61,6.83-.47,2.24.15,4.03,1.39,5.86,2.05l20.71,11.86Z"/>
        <path class="cls-33" d="M289.24,89.76c3.5,1.98-1.77,10.75-3.09,13.02-2.03,3.51-3.27,7.38-4.97,10.98-1.34,2.8-2.72,5.69-3.77,8.59-1,2.84.82,8.97.69,11.76-1.1-2.45-3.49-7.92-3.67-10.61-.17-2.31-.34-4.72-.42-7.07-.3-8.39,2.29-13.67,7.32-20.42l7.91-6.26Z"/>
        <path class="cls-43" d="M338.23,108.21c-1.73-3.26-2.77-7.23-5.32-9.96-2.57-2.77-6.17-5.02-9.42-6.9-6-3.46-12.81-7.67-20.06-6.17-4.19.87-8.05,3.3-12.08,4.69,1.25-2.09,8.99-.46,11.11.4,1.68.67,2.52,1.79,3.92,2.81,1.68,1.24,2.99,1.21,4.98,1.36,6.64.51,12.85,3.56,17.66,8.07,1.98,1.86,6.11,5.65,8.56,6l.65-.31Z"/>
        <path class="cls-67" d="M273.17,108.47c.93,3.15,1.29,6.47,1.1,9.82-5.1-.36-9.92.06-14.9,1.15-4.28.93-9.65,3.95-13.96,2.17-4.37-1.81-8.27-4.43-12.79-6.07-4.89-1.78-10.01-2.85-13.65-6.82-1.45-1.57-4.06-4.11-3.77-6.46.54-4.39,9.29-7.44,12.5-9.09l45.46,15.3Z"/>
        <path class="cls-109" d="M275.95,106.71c-.62,3.52-3.25,9.07-.87,12.45-1.75-2.25-3.27-4.71-4.77-7.22-6.94,1.47-13.75,2.15-20.76,2.93-5.5.62-13.54,0-18.02-3.72-5.72-4.74,1.29-11.37,3.96-16.08l40.45,11.64Z"/>
        <path class="cls-57" d="M214.36,79.77c-3.05,2.98-4.88,10.23-3.68,14.26.85,2.87,1.31,5.85,3.05,8.41.82,1.22,3.85,6.34,4.97,5.61l-4.33-28.29Z"/>
        <path class="cls-23" d="M291.17,91.25c1.27-12.35,8.01-29.45-7.9-34.81-3.26-1.1-5.65-2.43-8.07-4.92-3.06-3.18-5.66-4.01-10.11-2.82-9.12,2.44-17.72,8.63-25.03,14.37-6.88,5.37-13.28,11.52-18.13,18.82-2.61,3.9-5.49,8.32-7.05,12.8-1.45,4.16-.2,7.69,1.76,11.45.2-.04.4-.08.59-.14.09.35.56.8.69,1.16,1.07-.09.69-.01,1.48.49,1.27-.28,3.19.14,4.43.27,1.75.17,3.34.17,5.08.16,4.72,0,9.15,1.68,13.77,1.35,5.2-.36,10.41-.84,15.53-1.78,4.86-.91,9.2-3.12,13.74-5.06l19.24-11.32Z"/>
        <path class="cls-51" d="M267.73,100.56c-8.66,4.5-19.07,7.32-28.9,6.12-3.64-.44-6.9-1.3-10.64-.8-3.37.46-7.64.32-10.69,1.94,2.29-1.4,7.58,2.56,9.68,3.4,3.19,1.28,7.18,1.69,10.61,2.04,7.35.76,14.89.94,22.07-.39,5.68-1.08,8.88-4.04,12.54-8.5l-4.67-3.81Z"/>
        <path class="cls-69" d="M218.71,106.42c11.83-9.4,21.67-20.38,32.75-30.58,5.5-5.07,11.58-9.52,16.94-14.76,2.56-2.51,7.85-7.58,4.92-11.53-2.83-3.82-10.16-2.76-14.04-1.91-5.95,1.33-11.28,4.27-16.31,7.62-8.57,5.7-20.02,10.65-26.42,18.9-7.87,10.18-4.01,22.8.34,33.54l1.82-1.28Z"/>
        <path class="cls-20" d="M112.69,148.94c-5.89,1.32-11.41,3.81-15.42,8.46-4.07,4.76-9.12,9.94-9.46,16.47-.35,6.47.52,13.33,1.95,19.63,1.26,5.57,3.68,13.1,9.86,14.91,5.58,1.63,11.07-2.56,15.27-5.68,7.82-5.81,15.72-11.89,22.65-18.74,5.53-5.43,12.97-14.29,6.27-21.68-4.05-4.46-10.29-6.7-15.68-9.08l-15.44-4.28Z"/>
        <path class="cls-56" d="M149.83,152.86c-7.25,1.77-13.72-2.25-20.61-3.65-4.06-.82-7.74-1.92-11.93-1.44-3.58.41-7.41.94-10.43,3.09-2.59,1.86-6.4,4.86-5.96,8.39,1.44-1.52,4.16-1.92,5.99-2.63,2.38-.93,4.82-1.63,7.34-1.99,2.13-.31,4.3-1.09,6.48-1.06,1.43.03,2.87.27,4.28.55.74.14,3.39.36,3.72,1.22-2.25,1.28-4.34,2.76-6.62,4.04-1.76.98-3.58,1.94-5.31,2.99.16.4,1.26,1.33,1.7,1.53-.9.69-.96,1.32-2.06,1.86-.99.47-1.96.97-2.96,1.41,1.59-.24,15.82-.1,14.76,2.92-.54,1.48-3.46,2.56-4.78,3.02-2.11.75-4.76.74-6.59,2.14,1.31.27,3.07.28,4.41.25,1.31-.04,2.59.14,3.89.12,2.83-.07,5.55-1.14,8.14-2.19,3.33-1.35,7.13-2.1,10.07-4.23,1.47-1.07,6.4-4.67,5.73-6.49l.71-9.86Z"/>
        <path class="cls-58" d="M88.65,172.49c-.34-.9,1.91-3.69,2.49-4.49.95-1.34,2.23-2.55,3.09-3.9-2.1,3.36-2.46,7.79-2.87,11.66-.38,3.49-.32,7.36.22,10.84.52,3.36,2.15,7.03,3.74,10.02,1.27,2.38,3.81,4.81,6.19,6.07,2.83,1.49,7.47,2.18,10.59,1.23-2.61,5.04-9.06,6.86-13.93,4.44-4.81-2.41-8.41-5.9-9.88-11.23-.92-3.3-1.29-6.38-1.4-9.81l1.76-14.83Z"/>
        <path class="cls-68" d="M149.53,156.85c-10.26,14.66-19.93,30.24-33.81,41.77-3.33,2.77-7.83,6.01-8.23,10.74-.43,5.11,4.04,9.41,7.86,12.1,2.35,1.66,4.83,2.99,7.13,4.7.98.74,2.08,1.07,3.3,1.24,1.58.2,3.13.58,4.69.77,1.21.15,2.25.07,3.35-.36,2.21-.87,4.2-2.72,6.23-3.95,1.46-.87,3.07-1.33,4.56-2.1,3-1.55,5.66-4.34,7.98-6.79,2.27-2.42,4.24-5.26,5.81-8.2,3.18-5.99,4.6-12.82,4.27-19.59-.52-10.07-3.24-19.82-9.5-27.81-.65-.83-1.32-1.66-2-2.49l-1.63-.02Z"/>
        <path class="cls-8" d="M150.17,162.82c-.73-.29-1.2-2.1-2.13-1.17.51,1.61-.63,3.29-1.73,4.24-1.19,1.01-2.18,2.43-3.23,3.65-2.49,2.87-4.97,5.77-7.62,8.52-1.45,1.52-3.21,2.83-4.52,4.48-1.24,1.55-2.17,3.33-3.27,4.96-1.5,2.21-3.32,4.62-4.43,7-1.33,2.87-2.72,5.89-4.13,8.77.62-1.9,1.38-4.05,1.49-6.08-1.78,1.54-2.81,3.97-4.61,5.59-1.17,1.05-2.24,2.02-3.31,3.17-1.3,1.41-2.13,3.13-3.36,4.6-.94,1.12-2.25,1.53-3.32,2.5-.2-1.37-.59-2.36-.97-3.63-.55-1.77,1.02-3.4,2.05-4.73,3.43-4.46,7.54-8.32,11.14-12.6,3.99-4.76,8.65-9.1,12.89-13.57,1.86-1.97,4.08-3.77,5.37-6.21.74-1.39.88-3.14,1.5-4.59,1.06-2.47,2.43-4.73,3.9-6.96,1.78-2.7,4.22-6.13,7.55-6.89.82-.18.63-.16,1.3.4.45.37,1.08.81.87,1.39l-1.41,7.16Z"/>
        <path class="cls-17" d="M160.15,167.51c3.33,5.59,7.11,11.2,9.76,17.14,2.54,5.69,1.21,12.05-.53,17.79-1.73,5.77-5.29,10.77-9.41,15.1-3.34,3.5-7.62,7.26-11.91,9.56-5.45,2.93-11.56.87-17.34.23,2.64-2,5.61-3.43,8.27-5.38,2.53-1.86,4.69-4.04,6.95-6.19,3.84-3.65,6.2-7.85,8.59-12.51,2.39-4.63,4.15-9.53,4.39-14.81.16-3.65.24-7.25.19-10.9l1.05-10.02Z"/>
        <path class="cls-44" d="M149.92,151.4c-2.52,2.17-5.63,2.3-8.6,1.17-1.64-.63-3.26-1.27-5.02-1.72-2.56-.64-4.84-.48-7.4-.78,3.04-.04,6.44.55,9.11,2.03,1.9,1.05,3.62,1.45,5.63,2.18,2.76,1,1.63,2.61.01,4.24-1.02,1.01-1.95,1.99-2.36,3.39-.38,1.18-.48,2.35-1,3.48-1.15,2.52-2.72,4.84-3.89,7.36,1.02-1.32,2.47-2.3,3.57-3.55,1.23-1.4,2.33-2.97,3.3-4.56,1.2-1.96,2.26-5.93,4.76-6.61.53,1.7,1.41,3.84,2.73,5.08.64.6,1.6,1.38,2.42,1.73,1.02.46,1.67.36,2.43,1.28,1.55,1.87,1.05,3.45,1.42,5.64.47,2.73,1.56,5.21,2.27,7.87.45,1.75,1.33,3.19,1.3,5.04-.02,1.7.35,3.3.49,5,.28-2.88,1.48-5.58,1.8-8.4.72,1.5,1.87,3.37,3.02,4.6.72.77,1.03,1.38,1.57,2.3.54.9,1.34,1.07,1.92,1.82.83-.23.69-3.06.61-3.84-.15-1.42-.99-2.73-1.59-4-1.28-2.63-2.69-5.13-3.96-7.75-1.27-2.66-2.38-5.55-3.88-8.08-1.45-2.44-3.68-4.58-5.36-6.89-1.68-2.29-3.3-5.69-3.89-8.47l-1.39.48Z"/>
        <path class="cls-83" d="M99.23,208.69c1.4,1.19,2.52,2.46,3.2,4.18.74,1.85,1.08,3.82,2.06,5.58,1.89,3.38,5.68,5.94,8.99,7.78,3.84,2.12,8.02,2.65,12.33,2.96,3.77.26,7.55.57,11.32.14,4.37-.5,8.23-1.65,11.77-4.34-4.21.59-8.13,2.44-12.43,2.49-3.46.04-6.07-1.77-9.16-3.05-3.05-1.26-5.91-2.92-8.96-4.14-2.97-1.18-5.8-1.94-7.77-4.64-1.75-2.42-3.04-4.9-3.69-7.83-2.13-.04-4.35.34-6.42.07l-1.24.8Z"/>
        <path class="cls-60" d="M152.21,6.84c-9.94-2.94-20.39-7.17-30.94-5.94-9.52,1.09-21.93,6.19-26.57,15.13-4.83,9.3-2.15,21.74.88,31.2,1.62,5.05,3.87,10.4,7.99,13.93,1.54,1.33,3.64,2.11,5.44,3.1,1.68.95,3.3,1.94,5.01,2.8,2.03,1,4.28,1.03,6.4,1.72,3.62,1.19,7.2,2.47,10.71,3.94,3.6,1.52,4.91.68,7.54-2.32,3.14-3.63,5.33-7.76,7.73-11.88,1.75-3.01,3.43-6.07,5.11-9.11l.71-42.57Z"/>
        <path class="cls-35" d="M137.87,62.06c1.2-1.03-.09-4-.43-5.26-.61-2.22-1.36-4.53-2.03-6.7-1.05-3.33-3.18-5.98-6.12-7.71-6.58-3.91-13.6-6.99-19.91-11.36-2.47-1.7-4.81-4.56-8.27-3.7,1.28,2.77.62,6.33,1.01,9.29.38,2.84,1.61,5.2,2.53,7.86,1.04,3.04,1.75,6.57,3.51,9.29,2.33,3.61,5.9,6.27,9.55,8.41,3.18,1.83,5.95,4.31,8.95,6.42,2.34,1.64,7.4,5.46,9.89,2.01l1.33-8.55Z"/>
        <path class="cls-111" d="M138.83,45.81c2.03-5.65,3.4-11.15,3.56-17.17.15-5.86-.31-12.15,2.16-17.64,5-11.05,15.43-.32,21.83,3.37,3.97,2.28,7.86,4.4,10.47,8.31,2.84,4.26,4.98,9.63,5.16,14.73.41,11.89-9.45,22.02-19.18,27.64-4.69,2.71-9.92,4.91-15.16,6.29-3.92,1.04-9.5,2.97-12.21-.7-.49-.66.14-2.64-.24-3.36l3.61-21.47Z"/>
        <path class="cls-16" d="M135.75,64.59c1.92-2.61,2.39-6.22,4.52-8.79,1.95-2.37,4.48-4.54,6.6-6.77,2.43-2.56,5.04-5.11,7.53-7.52,1.26-1.22,2.64-2.28,4-3.39,1.01-.82,2.98-1.76,3.35-3.02-1.86.52-3.52,2.52-5.07,3.62-1.9,1.33-3.37,3.05-5.24,4.39-2.1,1.49-5.62,4.04-8.34,3.93-.5-2.52-1.18-5.46-.85-8.03.34-2.67.26-5.68.94-8.33.47-1.81,1.48-3.13,1.61-5.1.1-1.71-.16-3.41-.3-5.13-.14-1.39-.07-2.74-.44-4.1-.3-1.11-.97-2.1-.39-3.22.96,1.49-.11,5.03-.28,6.73-.31,2.97-.65,5.54-1.45,8.38-.8,2.85-.43,6.02-1.55,8.8-.45,1.1-1.03,1.6-1.33,2.88-.35,1.51-.79,2.2-1.38,3.52-1.12,2.56-.53,5.67-1.73,8.25-1.5-2.91-4.17-5.46-6.68-7.52-1.5-1.22-2.87-1.89-3.65-3.71.85,2.2,3.01,3.84,4.12,6.02.99,1.91,2.37,3.47,3.45,5.28,1.9,3.2,2.85,4.97,2.14,8.83l.43,4.03Z"/>
        <path class="cls-87" d="M134.51,74.61c17.64-5.32,37.24-12.52,44.8-31,2.16-5.26,2.43-9.28.79-14.7,2.46,5.2,2.41,9.62,1.96,15.24-.42,5.4-.28,10.37-3.5,15.03-3.25,4.73-7.9,8.48-13.44,10.06-4.6,1.32-9.55,3.27-14.31,3.81-2.7.3-5.33-.26-8.02-.24-2.91.04-5.47,1.04-8.05,2.29l-.25-.49Z"/>
        <path class="cls-53" d="M135.33,77.56c.97-3.92,6.39-4.46,9.49-5.17,3.48-.82,8.09-1.56,10.74-4.31-3.6,1.16-6.96,2.4-10.77,2.68-1.68.13-7.82,1.6-8.38-.73-.31-1.2,1.26-3.04,1.71-4.08.65-1.55.75-3.06.97-4.68.4-3.21,1.8-6.1,1.71-9.37-.1-3.67-.33-7.38-.97-11-.89,2.88-1.17,6.21-1.94,9.19-.71,2.7-1.33,5.29-2,7.97-.57,2.29-1.49,4.52-2.02,6.84-.28,1.28-.82,3.96-2.05,4.61-.88-.97-4.4-1.79-5.82-2.16-2.51-.66-5.53-1.08-7.61-2.5,2.08.65,3.52,2.38,5.26,3.53,1.7,1.13,3.16,2.36,4.88,3.55,2.11,1.45,6.81,2.37,6.57,5.77l.24-.13Z"/>
        <path class="cls-66" d="M100.23,100.35c-.7-2.49-3.72-4.71-5.93-6.34-.34-.24-.65-.47-.94-.7-1.07-.8-2.08-1.68-3.07-2.52-1.29-1.09-2.63-2.24-4.08-3.27-1.94-1.39-4.01-2.71-6.01-4-2.85-1.83-5.8-3.71-8.53-5.86-2.68-2.09-5.6-5.21-8.16-7.96l-1.09-1.17-1.2,1.13,1.1,1.18c2.61,2.78,5.56,5.96,8.34,8.13,2.79,2.18,5.77,4.09,8.66,5.94,1.98,1.26,4.03,2.58,5.95,3.94,1.39,1,2.69,2.1,3.96,3.19,1,.85,2.06,1.74,3.15,2.58.28.22.61.45.95.7,1.9,1.4,4.78,3.51,5.32,5.45l1.58-.44Z"/>
        <path class="cls-37" d="M29.69,15.44c-8.46-4.19-18.57-.41-24.93,5.75C-1.18,26.95-.52,37.73,1.2,45.07c1.07,4.58,2.04,8.41,5.17,12.06,3.11,3.6,6,7.33,9.05,10.98,3.22,3.86,7.48,6.84,11.86,9.23,6.09,3.31,10.19,1.81,16.59,1.24,3.05-.26,6.37.44,9.33-.51,2.56-.8,4.35-2.96,6.91-3.8,2.54-.83,7.03.2,8.6-2.43,2.84-4.79-4.9-16.4-6.84-20.4L29.69,15.44Z"/>
        <path class="cls-7" d="M45.55,77.92c-8.72-.95-17.56-2.74-24.99-7.27-6.9-4.19-11.82-12.07-16.1-18.54,6.19,12.23,14.2,29.42,30.14,29.99,4.94.19,8.97.32,13.06-2.8l-2.1-1.38Z"/>
        <path class="cls-88" d="M68.3,73.63c-6.58-3.16-13.64.02-20.24,1.65-6.71,1.67-16.78,3.16-23.18-.56,2.42,3.39,9.01,5.21,12.8,6.48,3.79,1.27,7.89,1.49,11.71.15,6.94-2.45,14.67-7.79,22.07-3.05-.13.61-.43.66-.95.91l-2.21-5.59Z"/>
        <path class="cls-80" d="M63.95,12.25c.28-.06.5-.19.68-.4-.73-3.01-3.55-3.45-6.17-4.1-2.86-.71-5.75-1.99-8.65-2.46-4.05-.66-8.14-.45-12.1.53-3.97.97-7.29,2.77-11.05,4.22-3,1.16-7.36,2.53-9.35,5.24-.21,2.04,3.04,4.66,4.31,6.15,1.57,1.8,2.91,3.53,4.34,5.56,3.13,4.43,6.46,8.93,9.98,12.97,7.4,8.5,14.7,17.88,22.55,25.97,1.83,1.88,8.84,12.19,11.79,9.98-.5-3.66,1.67-7.49,1.9-11.12.25-3.99,1.22-7.48,2.15-11.35,1.1-4.58,2.39-8.26,1.21-12.87-1.85-7.15-4.25-14.29-9.41-19.85l-2.19-8.48Z"/>
        <path class="cls-98" d="M50.03,4.18c-.27-2.8-11.04-2.65-13.89-2.66-4.55-.01-6.98,2.18-10.73,4.52-3.42,2.15-5.83,4.74-8.8,7.43-3.07,2.77-7.58,3.38-10.3,6.6,4.2-2.3,7.65-.95,12.05-1.61,4.09-.61,8.22-3.44,11.92-5.21,4.16-2,7.92-3.84,12.45-4.86,5.16-1.16,15.51-2.74,18.34,2.87l-11.04-7.07Z"/>
        <path class="cls-59" d="M66.01,72.82c5.14-10.18,10.29-22.29,8.22-33.95-2.31-13.03-13.44-23.94-24.65-29.98-5.34-2.87-11.04-4.84-16.93-6.24,16.17-4.78,32.73-4.35,41.87,11.87,6.66,11.79,8.99,29.23,3.13,41.94-3.61,7.83-8.06,12.4-5.81,21.52-1.04-2.3-4.22-4.14-6.4-5.36l.58.2Z"/>
        <path class="cls-92" d="M70.73,77.69c-1.52-1.28-3.48-1.82-5.1-2.91-1.81-1.23-2.88-2.93-4.22-4.55-2.27-2.74-4.69-5.2-6.79-8.15-2.16-3.05-4.28-6.11-6.42-9.31-1.37-2.06-2.69-3.58-4.55-5.29-1.44-1.32-2.79-3.69-4.46-4.49,1.35,3.68,5.94,5.88,8.37,8.67,2.78,3.17,5.56,6.33,8,9.61,2.19,2.98,4.49,5.79,7.03,8.41,2.87,2.93,6.94,4.76,8.88,8.47-.11-.22-.22-.43-.33-.65l-.39.19Z"/>
        <path class="cls-88" d="M66.56,73.98c3.3-7.12,8.79-14.9,9.63-22.99.4-3.81.08-8.62-.89-12.27-1.12-4.23-1.37-9.5-3.59-13.36,2.92,6.59,3.92,14.34,2.39,21.5-1.87,8.71-1.86,21.07-8.7,27.69l1.17-.57Z"/>
        <path class="cls-102" d="M37.4,42.26c-2.34-4.85-4.48-8.65-8.01-12.58-1.9-2.08-3.6-4.09-5.81-5.92-1.87-1.56-4.36-2.67-5.2-5.1,2.4,3.96,6.49,7,9.07,10.94,1.29,1.97,2.63,3.85,4.2,5.65,2.43,2.76,5.93,5.35,7.84,8.38l-2.1-1.37Z"/>
        <path class="cls-3" d="M135.31,78.8c-.58-1.99.67-4.8.86-6.9.22-2.35.38-4.74.65-7.15.28-2.42,0-4.87.44-7.26.44-2.39.66-5.36.65-7.82.99,2.24-.87,6.78-1.45,9.07-.58,2.22-.88,4.32-1.08,6.62-.35,4.07-2.19,9.96.3,13.54l-.37-.12Z"/>
        <path class="cls-115" d="M126.89,68.89c-5.91-3.44-12.3-5.47-17.3-10.31-2.81-2.74-5.49-7.43-6.68-11.2.92.37,1.22,1.46,1.66,2.33.62,1.23,1.38,2.15,2.19,3.26,1.02,1.41,2.18,2.71,3.29,4,3.31,3.81,7.68,6.45,12.23,8.67l4.61,3.24Z"/>
        <path class="cls-25" d="M162.09,17.26c.77,1.52-1.8,2.7-2.97,2.64l2.97-2.64Z"/>
        <path class="cls-40" d="M149.93,6.07c1,.5,2.27.3,3.37.72,1.25.46,2.03,1.1,3.07,1.84,1.89,1.33,3.95,2.48,5.96,3.59,3.74,2.06,8.56,3.48,11.62,6.66,1.29,1.34,4.17,4.9,3.88,6.8-.6-.44-1.17-1.67-1.78-2.28-.91-.9-1.93-1.47-3.06-2.05-2.01-1.03-3.75-2.32-5.46-3.72-1.85-1.53-4.26-2.21-6.25-3.61-1.53-1.08-3.02-2.28-4.43-3.68-1.37-1.35-4.32-4.41-6.43-3.28l-.47-.98Z"/>
        <path class="cls-36" d="M130.15,71.87c-9.61-3.32-20.11-4.59-27.74-11.83-6.59-6.25-11.72-13.61-11.86-22.92-.09-5.08.58-9.46,2.66-14.11.06,4.09.96,7.52,2.3,11.31,1.21,3.45.27,6.99,1.2,10.48,1.97,7.45,5.17,13.67,11.76,17.92,3.32,2.13,6.93,3.41,10.23,5.56l11.44,3.59Z"/>
        <path class="cls-38" d="M149.14,155.22c-1.04.32-1.68,1.66-2.26,2.47-.58.83-1.4,1.28-1.9,2.15-1.01,1.7-1.71,3.59-2.75,5.2-2.2,3.43-4.99,6.68-7.41,10-1.64,2.26-3.65,4.28-5.39,6.41,3.51-2.81,5.76-6.57,8.9-9.65,3.03-2.97,5.97-6.89,7.65-10.89.41-.95.76-1.75,1.41-2.62.31-.4.7-.77.94-1.16.46-.69.44-1.52.89-2.16l-.09.25Z"/>
        <path class="cls-91" d="M140.29,152.81c-1.93-.65-3.82-.4-5.78-.92-1.62-.42-3.42-.25-5.09-.3-1.61-.06-3.18-.14-4.78-.1-1.63.05-3.07.5-4.67.64-3.25.27-6.54,1.72-9.63,2.79-1.23.44-2.17,1-3.29,1.63-1.01.57-2.59.99-3.16,2.12,3.36-1.74,7.24-3.37,10.9-4.27,3.71-.92,7.37-2.15,11.21-2.4,2.68-.18,5.47.19,8.17.33l6.1.49Z"/>
        <path class="cls-74" d="M139.86,166.18c-3.08-.7-6.47-1.02-9.62-1.06-4.27-.05-8.43,1.01-12.66,1.49l22.28-.44Z"/>
        <path class="cls-74" d="M132.78,171.22c-3.14.47-6.39.42-9.56.37-5.38-.08-10.74.32-15.91,1.81l25.47-2.18Z"/>
        <path class="cls-74" d="M129.34,178.35c-3.71,1.2-7.95.9-11.78,1.74-6.98,1.52-13.89,3.45-20.69,5.64l32.48-7.38Z"/>
        <path class="cls-74" d="M128.95,182.59c-6.71,7.03-13.5,14.06-20.08,21.31-1.09,1.2-2.09,2.72-3.46,3.62,2.71-1.5,4.88-4.1,7.02-6.27,1.56-1.57,3.33-3.44,4.99-4.76-.11,1.01-.64,2.25-.63,3.24.87-1.84,1.04-4,2.04-5.85.57-1.06,2.27-3.22,3.48-3.62.28.79-.4,2.21-.65,3-.31.95-.07,1.71-.23,2.63.73-.13.68-2.88.79-3.65.16-1.15.27-1.77.98-2.71,1.74-2.32,3.59-4.21,5.01-6.81l.74-.15Z"/>
        <path class="cls-74" d="M110.5,196.37c-.96.27-1.91.52-2.87.77l2.87-.77Z"/>
        <path class="cls-26" d="M159.91,172.91c.47,2.18.18,4.17.03,6.37-.15,2.18.16,4.34.12,6.52-.04,1.78.04,3.66-.22,5.43-.21,1.49-.72,2.92-.96,4.4-.46,3-1.21,6.06-2.52,8.8-1.61,3.28-2.9,6.95-5.44,9.67-1.67,1.79-3.81,3.4-5.8,4.78-1.36.96-2.93,1.47-4.34,2.34,2.44-2.26,5.31-4.07,7.74-6.37,2.11-2,4.68-4.6,5.88-7.25,1.28-2.86,2.83-5.9,3.76-8.9.8-2.6,1.27-5.46,1.68-8.14.22-1.51.24-3.05.46-4.56.44-2.96.27-5.82.44-8.85l-.83-4.24Z"/>
        <path class="cls-74" d="M136.31,181.06c-.44,2.63-.54,5.25-1.04,7.88-.74,3.91-1.44,7.8-2.49,11.64l3.53-19.51Z"/>
        <path class="cls-18" d="M88.5,170.95c-1.66,5.97-4.75,12.19-4.16,18.56.61,6.28,3.46,12.79,8.5,16.71,2.78,2.17,6.12,2.57,9.35,3.69-2.75-1.02-5.05-3.27-6.86-5.51-1.8-2.27-3.57-4.8-4.57-7.54-.99-2.71-.57-6.11-.72-8.97-.14-3.04-.09-6.08-.24-9.12-.09-1.69-.19-3.23-.12-4.93.06-1.49.27-2.92.3-4.42l-1.48,1.53Z"/>
        <path class="cls-27" d="M218.55,106.09c5.05-4.56,10.7-9.11,15.74-13.77,5.68-5.24,11.86-10.35,17.18-15.93-5.98,6.64-12.86,12.36-18.87,18.77-4.17,4.45-8.55,9.56-14.39,11.91l.33-.97Z"/>
        <path class="cls-12" d="M292.34,65.99c1.18,5.06,1.37,9.28.81,14.42-.48,4.45-.39,9.02-1.89,13.28-2.61,7.49-11.84,14.67-19.4,16.66-4.66,1.22-9.79,3.01-13.97-.11,3.02-1.23,5.78-5.3,7.78-7.81,2.47-3.07,4.31-5.2,7.33-7.65,6.32-5.17,10.89-10.72,15.02-17.59,2.01-3.33,5.26-6.46,4.15-10.72l.17-.48Z"/>
        <path class="cls-84" d="M241.75,127.27c4.01-2.43,5.52-8.27,6.63-12.36-.62,2.27-2.67,4.09-3.78,6.14-1.23,2.26-1.64,5.07-3.19,7.2l.34-.97Z"/>
        <path class="cls-90" d="M311.99,131.01c.27-1.1-3.06,1.95-3.73,2.53-1.65,1.43-3.22,2.59-5.04,3.72-2.46,1.54-4.8,3.36-6.81,5.53-1.66,1.83-3.14,3.76-4.61,5.61-1.36,1.73-3.06,3.37-3.86,5.5,2.26-1.41,4.03-4.28,6.03-6.11,2.04-1.86,4.11-3.36,6.16-5.27,3.8-3.56,6.78-7.97,10.86-11.04l.99-.48Z"/>
        <path class="cls-99" d="M291.52,149c1.5-1.72,3.43-3.67,5.24-5.26,1.74-1.53,4.87-2.87,5.87-4.98-3.76,1.95-7.07,4.58-11.03,6.09-3.58-5.91-6.36-11.73-7.03-18.62-.37-3.92-.82-7.53-.83-11.55,0-2.14-.22-4.28-.21-6.42.02-2.1.85-4.51.37-6.58-3.84,8.12-7.16,15.61-6.99,24.66.12,6.74,2.59,12.09,6.02,17.87,1.98,3.36,3.57,6.94,5.24,10.45l3.34-5.66Z"/>
        <path class="cls-116" d="M283.51,208.74c-1.9-.73-3.13-3.42-5.65-4.09-2.82-.74-6,.52-7.15,3.31,3.27-.63,8.63-1.59,11.33,1.09l1.46-.32Z"/>
        <path class="cls-70" d="M168.03,122.54l-1.12-1.85c-.15-.25-.28-.49-.39-.75l-.5.22c-3.53-.36-6.86-2.39-10.09-4.35-1.32-.79-2.67-1.61-4-2.29-8.14-4.2-21.01-6.74-32.36-8.97-9.3-1.84-18.09-3.57-20.4-5.64l-1.46,1.63c2.75,2.47,10.99,4.09,21.43,6.15,11.21,2.21,23.91,4.71,31.78,8.77,1.26.65,2.52,1.41,3.86,2.22,3.46,2.09,7.02,4.27,11.07,4.66l2.16.2Z"/>
        <path class="cls-29" d="M236.82,152.4l.71-2.07c-2.82-.97-5.53-2.81-8.95-5.15-4.85-3.31-10.9-7.43-20.55-11.34-4.85-1.94-9.08-3.09-14.75-4.4-7.18-1.67-27.35-8.27-28.73-9.12,0,0,.08.05.17.15l-1.69,1.39c1.06,1.29,25.05,8.62,29.74,9.71,5.59,1.29,9.73,2.41,14.43,4.31,9.43,3.8,15.36,7.86,20.14,11.1,3.56,2.42,6.37,4.34,9.47,5.41Z"/>
        <path class="cls-19" d="M353.92,270.05l2.33-1.42c-.08-.14-.13-.3-.2-.44l-.08.03c-3.69-5.15-9.64-9.21-14.89-12.78-.64-.45-1.26-.88-1.88-1.3-12.21-8.42-22.86-23.77-32.27-37.31-6.4-9.2-11.92-17.15-16.96-21.56l-1.81,2.06c4.79,4.19,10.22,12.01,16.51,21.06,9.53,13.74,20.35,29.29,32.97,38,.6.44,1.24.86,1.89,1.31,5.15,3.51,10.97,7.49,14.38,12.35Z"/>
        <path class="cls-97" d="M377.53,298.99c-10.6-22.42-20.81-31.28-22.24-31.97l-1.43,2.95s-.04-.01-.07-.03c1.48.89,14.26,16.76,24.04,37.44l-.31-8.39Z"/>
        <path class="cls-1" d="M70.36,72.7c-.32.57-.73,1.52-.82,2.15-.08.73.32,1.61.68,2.29-.66-.38-1.91-.39-2.65-.48,1.62,1.22,3.23,2.47,4.86,3.71,1.71,1.31,3.93,2.1,5.69,3.33-.49-.68-1.54-.94-2.11-1.52-.62-.6-1.09-1.29-1.79-1.88-1.27-1.09-2.12-2.7-2.86-4.27l-1-3.34Z"/>
        <path class="cls-1" d="M99.98,99.61c-.22-.61-.64-.86-1.06-1.3-.37-.4-.52-.95-.85-1.32-.66-.74-1.82-1.23-2.61-1.89-1.92-1.64-3.73-3.51-5.93-4.78-1.16-.65-2.45-1.21-3.45-2.1.31.58,1.34.97,1.9,1.36.7.51,1.35,1.04,2.01,1.59,1.1.92,2,1.81,3.02,2.77,1.01.92,2.11,1.88,3.1,2.81,1.22,1.13,2.67,1.87,4,2.8l-.13.07Z"/>
        <path class="cls-2" d="M89.11,90.07c-.24-.35-.91-.8-1.26-1.07-.39-.3-.82-.56-1.21-.86-.81-.6-1.63-.97-2.41-1.53-.86-.61-1.81-1.06-2.6-1.68-.78-.63-1.47-1.34-2.33-1.89-1.32-.85-2.75-1.59-4.11-2.43.35.94,1.74,1.72,2.57,2.24.93.56,1.76,1.2,2.6,1.87.7.56,1.54,1.05,2.34,1.47,1.38.72,3.23,1,4.34,2.16l2.06,1.71Z"/>
        <path class="cls-45" d="M96.73,97.61c.25.62.8,1.24,1.24,1.62-.55.04-1.29.48-1.73.8-.32.22-1.16.74-1.37,1.03,1.24.14,2.37.21,3.6.41,1.16.19,2.27.72,3.38.92-.81-.6-1.76-.87-2.12-1.94-.31-.95-.31-1.55-1.36-2.1l-1.64-.73Z"/>
        <path class="cls-25" d="M149.71,49.63c.63,1.17.18,1.91-1.14,2.15-.77-.73-.69-1.26-.45-1.95l1.59-.2Z"/>
        <path class="cls-42" d="M136.92,74.12c-.48.63-1.5,1.29-2.19,1.74.57,1.06.17,2.78.34,3.94.18,1.39.54,2.59.83,3.99.26,1.21.31,2.64.72,3.79.41,1.1,1.31,2.65,1.2,3.82l-.9-17.28Z"/>
        <path class="cls-79" d="M139.02,102.82c1.65.84,1.54,2.58,1.27,4.13-1.43.88-3.07,1.6-4.63,2.32,1.84.44,3.86,1.03,5.23,2.23.69-.35.7-.01,1.19.16l-3.07-8.84Z"/>
        <path class="cls-94" d="M151.29,153.37c1.83-2.07.21-7.18.77-9.85-.66,2.94-2.18,7.04-3.46,9.33l2.68.52Z"/>
        <path class="cls-21" d="M151.31,160.17c.98,3.61,5.41,4.98,6.3,9.18.58,2.8,1.19,6.84.84,9.78-.45,3.61-.45,8.07-1.74,11.55-1.65,4.46-4.67,7.54-6.85,11.61,2.85-6.37,4.45-13.46,4.42-20.44-.02-4.2-1.34-7.56-2.84-11.43-1.53-3.91-.27-6.07-.69-9.99l.56-.27Z"/>
        <path class="cls-54" d="M98.1,156.95c-8.62,7.19-15.31,17.59-13.01,28.77,1.34-5.23,4.62-9.65,5.88-15l7.13-13.77Z"/>
        <path class="cls-6" d="M162.96,122.22c-3.54-2.28-5.76-5.05-9.92-6.75l9.92,6.75Z"/>
        <path class="cls-6" d="M167.56,123.39c-.29-1.24-2.84-2.21-3.86-2.81-1.5-.9-2.89-1.68-4.57-2.18-2.56-.78-5.78-1.55-7.94-3.13.29.84,2.11,1.43,2.86,1.88.96.57,1.82,1.29,2.8,1.88.94.56,1.98.99,2.95,1.48.91.45,2.08,1.14,3.03,1.43,1.03.3,2.41.47,3.38.52l1.34.95Z"/>
        <path class="cls-93" d="M250.99,107.84c4.07,1.07,8.41-1.1,11.93-2.92,4.03-2.09,8.09-3.72,11.65-6.62,6.99-5.72,10.25-13.26,15.57-20.29,2.96-3.9,4.88-7.65,2.44-12.41-.13,5.62-3.49,10.47-7.61,14.02-3.93,3.38-7.56,7.13-11.54,10.43-6.62,5.49-12.68,11.45-21.06,13.75-4.07,1.12-8.15,2.14-12.29,3.24l10.92.8Z"/>
        <path class="cls-27" d="M231.23,103.82c1.6-.4,3.34.83,5.11,1.18,2.54.48,5.56.43,8.11.14,4.76-.53,8.87-2.26,13.1-4.32-3.55,1.69-6.77,2.69-10.75,3.09-5.23.55-12.2-1.5-17.05.63l1.48-.71Z"/>
        <path class="cls-31" d="M221.2,105.07c-.66.69-1.65.86-2.41,1.41-.62.45-1.19,1.06-1.73,1.65-.65.69-1.22,1.33-1.88,2.02-.65.71-1.49,1.4-2.04,2.14-.61.8-1.3,1.66-1.62,2.62.48-.7,1.17-1.34,1.84-1.86.67-.52,1.3-1.06,1.96-1.58.67-.54,1.43-.9,2.08-1.42.6-.46,1.09-1.13,1.75-1.58.35-.23.64-.55.97-.77.39-.25.86-.24,1.28-.3-.4.29-1.37-.11-1.75-.36l1.55-1.96Z"/>
        <path class="cls-31" d="M216.21,105.39c.13.3.08,1.13.09,1.48,0,.52-.08,1-.26,1.46-.53,1.34-1.62,2.22-2.49,3.3.28-.05.48-.34.65-.54.37-.37.75-.73,1.09-1.12.43-.51.91-.96,1.36-1.44.37-.39.71-.8,1.07-1.16.42-.44,1.35-.85,1.57-1.37-.83.26-1.5,1.14-2.38,1.2-.2-.43-.39-.96-.47-1.45l-.25-.36Z"/>
        <path class="cls-31" d="M216.73,109c4.66-3.38,10.53-7.37,13.38-12.54l-13.38,12.54Z"/>
        <path class="cls-76" d="M205.6,128.56c-1.15.51-2.43,2.84-1.93,4.02.58,1.4,3.07,1.17,4.19,2.14-.36-.85-1.82-1.16-2.37-2-.57-.9-.45-2.06-.58-3.09l.69-1.07Z"/>
        <path class="cls-76" d="M233.21,147.24c-.28,3.92,4.77,5.55,7.37,7.12-1.03-2.37-3.4-4.14-5.12-6.01l-2.25-1.11Z"/>
        <path class="cls-24" d="M313.09,127.43c3.55-3.27,7.44-6.26,11.36-9.14,4.5-3.3,9.06-5.86,12.57-10.26,2.46,4.25-30.5,26.66-25.29,30.38l1.35-10.99Z"/>
        <path class="cls-89" d="M321.25,104.06c2.46,2.88-2.63,9.66-3.86,12.19-2.1,4.32-2.71,9.45-5.68,13.23,3.84.46,8.93-6.99,11.42-9.43,4.92-4.85,4.58-9.5,1.3-15.69l-3.17-.3Z"/>
        <path class="cls-14" d="M289.29,151.53c.19.59-1.35,2.32-1.72,2.88-.69,1.01-1.57,1.72-2.41,2.55-.74.72-1.39,1.65-2.14,2.41-.78.77-1.47,1.55-2.09,2.47-.62.94-1.06,2.1-1.73,2.94,3.29-3.23,5.93-7.09,9.63-9.92,1.44-1.09,2.28-.58,3.9-.46-.86-.79-2.36-.86-3.42-1.46l-.03-1.41Z"/>
        <path class="cls-106" d="M295.34,201.77c-2.5-4.85-12.37-5.57-17.08-5.88,5.65.71,12.11,3.37,15.65,7.56-.14-.26-.25-.54-.4-.81l1.83-.88Z"/>
        <path class="cls-11" d="M330.55,248.23c-1.29-2.62-3.35-2.79-6.21-2.87.7,1.5,4.74,3.21,6.34,3.95l-.13-1.07Z"/>
        <path class="cls-95" d="M275.3,182.56c1.13,2.33,1.92,4.67,3.89,6.22,1.8,1.4,4.36,1.31,5.98,3.03l-9.87-9.24Z"/>
        <path class="cls-96" d="M243.32,157.61c4.01,4.71,10.05,7.8,14.82,11.69l-14.82-11.69Z"/>
        <path class="cls-47" d="M297.93,204.21c.8,2.84,3.64,5.59,5.11,8.05,1.86,3.11,3.51,6.1,5.59,9.02,1.89,2.66,3.37,5.41,5.45,7.91,1.9,2.29,3.53,5.56,6.24,7.11l-22.39-32.1Z"/>
        <path class="cls-47" d="M318.88,234.98c1.06,1.36,2.87,2.2,3.98,3.42,1.33,1.46,2.27,3.08,3.54,4.67,2.59,3.2,5,7.66,8.38,9.75l-15.9-17.84Z"/>
        <path class="cls-47" d="M333.01,250.84c3.05,2.63,6.63,4.78,9.94,7.17,3,2.15,5.69,4.82,8.91,6.66-1.45-5.03-8.35-7.26-12.23-10.16-4.69-3.52-8.17-7.44-12.56-10.93l5.93,7.26Z"/>
        <path class="cls-55" d="M321.73,240.9c.65,1.32,1.62,2.5,2.16,3.76-.99.77-2.21.52-3.26,1.21,1.96.4,3.9.09,5.76.48l-4.66-5.45Z"/>
        <path class="cls-86" d="M356.68,269.67c3.15,3.85,6.98,6.63,9.85,10.73,2.91,4.17,5.83,8.39,7.66,13.39-.41.54-.4.11-.77.01l-16.74-24.13Z"/>
      </g>
      <g>
        <path class="cls-4" d="M102.94,101.89l-1.16.82c-.51-.72-1.23-1.11-2.21-1.19-3.24-.28-8.15,2.83-9.97,4.67-1.32,1.3-2.43,2.73-3.59,4.22-.31.41-.64.82-.97,1.23-.6.76-1.05,1.85-1.49,2.91-.59,1.42-1.21,2.9-2.26,3.84l-.95-1.07c.8-.73,1.33-1.98,1.89-3.32.47-1.14.97-2.33,1.69-3.24.32-.4.63-.81.94-1.21,1.15-1.48,2.33-3,3.71-4.38,1.88-1.86,7.24-5.4,11.1-5.07,1.41.12,2.51.73,3.26,1.8Z"/>
        <path class="cls-61" d="M36.7,144.17c-7.2-1.79-9.5-9.1-10.21-15.86-.75-7.16,2.86-14.13,7.49-19.38,4.78-5.41,11.83-9.56,19-10.66,3.77-.58,6.75.53,10.16,2.44,3.44,1.93,6,4.35,7.87,7.58,2.15,3.74,5.92,4.82,8.51,7.96,4.07,4.94-1.12,13.65-3.2,18.37l-39.61,9.55Z"/>
        <path class="cls-112" d="M50.66,170.54c-9.85-1.13-22.2-13.24-17.61-23.98,2.65-6.19,10.38-8.37,15.98-10.86,3.13-1.4,5.97-3.26,9.01-4.82,2.43-1.26,4.96-1.63,7.51-2.52,3.14-1.1,6.17-5.28,9.31-5.66,4.49-.56,2.2,11.29,2,13.63l-26.2,34.22Z"/>
        <path class="cls-9" d="M73.79,164.04c-3.8,3.89-7.73,7.97-13.29,9-4.45.83-12.67.37-14.67-4.65-2.3-5.78,5.05-13.58,7.8-18.02,3.34-5.38,5.43-11.7,9.45-16.61,4.23-5.18,10.34-8.52,16-11.87.15.2.13.36-.08.5l-5.22,41.65Z"/>
        <path class="cls-48" d="M80.89,116.92c-1.01,1.77-2.89,2.57-4.22,4.02-1.43,1.56-2.77,3.69-3.47,5.67-1.7,4.76-3.45,11.45-2.97,16.54.86,9.18,2.04,19.56-6.11,26.07-3.38,2.69-8.38,3.56-12.6,3.68,5.07.7,10.54,1.79,15.4-.4,4.48-2.02,8.08-6.04,10.81-10.03,5.61-8.21,6.95-20.56,6.52-30.32-.24-5.61-1.78-11.08-2.77-16.6l-.58,1.37Z"/>
        <path class="cls-104" d="M80.55,118.07c-2.78-2.65-5.75-5.16-7.9-8.36-2.17-3.24-3.78-6.37-7.31-8.35-6.81-3.81-20.57-6.63-29.9,6.28,2.94.38,10.64-3.54,17.17-4.02,5.98-.45,10.93,1.3,15.76,4.66,3.01,2.1,5.34,4.86,8.44,6.88l3.74,2.91Z"/>
        <path class="cls-13" d="M80.13,117.55c-5.2,4.36-11.3,9.85-17.86,11.56,3.14-1.73,6.83-2.36,9.93-3.99,2.77-1.46,5.69-4.1,7.99-6.38-.13-.29-.34-.55-.57-.76l.51-.43Z"/>
        <path class="cls-30" d="M81.22,115.77c-.77.5-1.43,1.16-1.74,1.97.75.58,1.67,1.24,1.97,2.21.34-.95.73-2.08,1.1-3.13l-1.32-1.05Z"/>
        <path class="cls-72" d="M52.04,171.64c6.3-2.65,8.86-10.5,11.12-16.72,2.68-7.33,3.1-15.36,6.41-22.5.77-1.64,1.68-3.29,2.56-4.84.82-1.43,2.46-2.86,2.97-4.35-4.92,9.31-5.13,19.41-3.14,29.42,1.37,6.86-2.26,13.97-7.7,18.14-2.78,2.15-7.55,2.81-10.42.75l-1.78.1Z"/>
        <path class="cls-15" d="M79.15,142.63c.55,2.2-1,5.74-2.33,7.49-.8,1.06-1.98,1.83-2.76,2.91-.84,1.17-1.36,2.57-2.33,3.65-3.29,3.69-7.48,6.28-11.22,9.44,3.68-3.7,9.12-5.79,12.68-9.89,1.58-1.81,3.66-4.16,4.7-6.33,1.11-2.31.95-5.26,1.77-7.71l-.5.43Z"/>
        <path class="cls-49" d="M79.3,117.14c-2.37-2.28-4.41-4.78-6.64-7.16-2.51-2.67-5.67-4.3-8.96-5.81-7.35-3.38-13.83-1.27-21.14,1.2-3.58,1.21-6.54,1.92-9.49,4.44,2.38-2.04,7.52-2.36,10.49-2.38,3.4-.03,6.79-.51,10.19-.53,3.13,0,6.02,1.72,8.91,2.8,2.78,1.05,5.32,2.59,8.12,3.52,2.91.97,5.29,2.48,8.04,3.7l.48.21Z"/>
        <path class="cls-39" d="M102.69,101.66c-.4-.18-.84-.37-1.26-.45-.37-.07-.73.01-1.11-.01-1.03-.08-2.02-.22-3.05,0-2.02.43-4.15,1.45-5.75,2.77-.42.34-.88.64-1.29,1-.31.26-.83.54-.98.94.56-.17,1.08-.53,1.64-.75.41-.17.82-.34,1.23-.52.85-.33,1.66-.77,2.53-1.06,1.82-.61,3.72-.68,5.62-.86,1.3-.11,2.89-.52,4.02.24l-1.6-1.28Z"/>
      </g>
      <g>
        <path class="cls-10" d="M381.87,170.8c6.32-1.59,10.43,1.14,14.58,5.69,2.26,2.47,3.42,5,4.65,8.07,1.16,2.88,2.58,5.29,2.89,8.45.62,6.16.29,12.11-1.24,18.13-.7,2.75-1.78,4.89-3.38,7.17-.96,1.36-1.81,2.91-3.12,3.98-1.13.93-2.3,1.03-3.61,1.53-1.76.66-3.11,2.17-4.97,2.55-2.68.56-5.35-1.22-8.03-1.3-4.42-.12-9.06,2.74-13.25.29-3.49-2.04-5.17-6.53-6.44-10.12-2.36-6.68-3.69-13.73-5.16-20.65l27.09-23.8Z"/>
        <path class="cls-32" d="M380.75,175.44c-.28,5.92-4.62,11.8-6.64,17.23-1.57,4.19-2.62,8.95-3.58,13.34-.98,4.47,2.77,7.38,6.36,9.23,3.53,1.81,7.7,4.4,11.64,5.15,2.69.51,6.09.63,8.61-.6-1.37,2.35-2.38,4.09-4.84,5.34-2.46,1.25-4.98,1.93-7.76,1.92-2.02-.02-3.99-.55-6.03-.48-2.27.08-4.6.87-6.77-.09-2.84-1.25-6.16-3.56-8.45-5.58-6.03-5.32-5.75-14.2-5.85-21.58l23.32-23.88Z"/>
        <path class="cls-62" d="M369.94,192.73c-.21,6.73-2.89,12.4-5.01,18.62-1.64,4.77,2.57,6.49,6.19,8.27,4.02,1.97,8.08,4.48,12.56,5.24,3.09.53,5.96-.4,8.76-1.62-.06,5.59-10.76,4.74-14.48,5.12-5.79.61-12.39,1.86-18.01-.26-2.04-.77-4.58-2.01-6.39-3.23-3.79-2.52-2.64-10.16-2.7-13.98l19.07-18.17Z"/>
        <path class="cls-50" d="M340.17,191.73c-.94-10.6,1.83-19.72,9.97-26.96,6.08-5.39,13.6-7.04,21.41-4.82,6.44,1.83,15.67,6.65,12.85,14.72-2.68,7.71-10.26,12.58-13.82,19.85-2.23,4.53-3.73,9.6-6.93,13.59-2.77,3.43-5.68,3.62-9.4,1.66l-14.07-18.04Z"/>
        <path class="cls-100" d="M342.88,186.27c-.1-5.14,2.94-9.66,5.6-13.89,1.09-1.73,2.34-3.25,3.93-4.52,1.02-.83,2.33-2.68,3.66-2.85-.34,4.08-4.07,8.1-1.14,12.18,2.84,3.97,7.07-2.54,9.59-3.71-1.35,3.95-.77,7.61-1.09,11.66-.27,3.5-.55,7.02-.87,10.54-.36,3.98-1.13,7.91-5.56,9.15-5.66,1.58-11.5-1.42-13.63-6.7l-.5-11.87Z"/>
        <path class="cls-65" d="M337.35,190.53c-1.21-5.28-.83-10.57,1.93-15.34,1.27-2.22,3.1-4.27,4.69-6.27,1.7-2.16,4.1-3.24,6.39-4.64,2.83-1.73,5.95-2.52,8.94-3.88-1.09.92-2.25,1.74-3.25,2.78-1,1.07-1.62,2.39-2.58,3.56-1.6,1.96-3.51,3.5-5.18,5.3-1.54,1.66-3.16,3.63-4.01,5.72-.47,1.17-.75,2.48-1.15,3.61-.61,1.7-2.34,3.83-1.83,5.7l-3.94,3.46Z"/>
        <path class="cls-85" d="M351.45,265.24l-.22-2.29c-.13-1.37.34-2.91.82-4.39.37-1.16.76-2.38.8-3.38.08-2.47-.5-4.82-1.12-7.3l-.07-.23c-.66-2.68-.72-5.21-.72-8.2,0-1.07.1-2.02.21-2.94.19-1.69.37-3.14-.24-4.93l1.93-.65c.75,2.21.52,4.05.33,5.81-.1.86-.21,1.74-.21,2.7.01,2.86.07,5.25.67,7.71l.05.22c.66,2.63,1.28,5.12,1.19,7.86-.05,1.3-.47,2.63-.89,3.93-.22.69-.44,1.39-.59,2.05l.3-.04c.12.89-.12,1.69-.69,2.34l-1.55,1.71Z"/>
        <path class="cls-113" d="M366.51,201.64c.21-.94,1.04-1.87,1.57-2.69,1.17-1.83,2.16-3.77,3.38-5.56,1.59-2.35,3.14-4.62,4.68-7.01,1.6-2.52,4.35-5.5,5.09-8.46-5.67,7.25-8.36,16.62-14.15,23.79l-.56-.07Z"/>
        <path class="cls-5" d="M337.6,195.26c-1.32-2.57.71-7.17,1.76-9.56,1.04-2.37,2.74-5.69,4.6-7.46.22,2.19.14,5.68,1.44,7.52.79,1.14,3.37,2.85,4.6,3.46,1.83.94,3.98-1.04,5.57.14.81.59.89,1.85,1.32,2.68.47.94,1.17,1.79,1.69,2.71,2.66,4.71,2.64,11.4,2.26,16.68-.27,3.66-2.78,9.04-.53,12.43,1.02,1.55,3.31,1.99,4.96,2.59,1.48.53,3.08,1.25,4.65,1.64-2.68,1.24-6.49.41-9.3.7-1.53.15-2.86.3-4.35.65-1.12.27-3.74.62-4.33,1.38.18.03.34,0,.48-.09l-14.81-35.46Z"/>
        <path class="cls-108" d="M356.72,206.79c-.9-2.13-.35-4.84-.53-7.15-.27-3.63-.58-7.17-.37-10.81.15-2.77.4-5.62.64-8.39.11-1.22.16-3.15.75-4.06.58,1.59-1.11,4.4-1.43,5.91-1.1,5.27-.06,10.82-.51,16.15l1.45,8.34Z"/>
        <path class="cls-82" d="M351.7,233.37c-1.1-1.02-1.41-3.28-2.22-4.61-.91-1.52-1.71-3.06-2.49-4.63-.81-1.63-1.53-3.25-2.4-4.85-.8-1.5-1.96-2.81-2.74-4.32-3.39-6.65-5.99-13.63-6.15-21.2-.06-2.06.03-4.12.49-6.15.52-2.32,1.59-4.78,1.82-7.13,1.06,3.3,1.73,6.65,4.1,9.12,2.28,2.34,4.2,4.53,6.8,6.57,3.26,2.55,5.85,7.2,5.57,11.45-.32,4.9-2.09,9.21-1.53,14.23.43,3.82.41,7.38-.26,11.19-.13-.25-.16-.52-.04-.8l-.96,1.13Z"/>
        <path class="cls-64" d="M351.62,231.53c1.09-.75.62-3.13.97-4.36.35-1.25.82-2.55,1.27-3.78.93-2.47,2.93-4.44,4.09-6.78,1.17-2.33,2.51-4.61,3.85-6.92,1.41-2.41,3.23-5.66,5.02-7.63-1.96,2.86-3.64,5.98-4.89,9.17-.95,2.41-2.43,4.57-3.54,6.94-1.03,2.18-1.96,4.28-3.15,6.34-.58.98-1.1,2.01-1.7,2.97-.46.75-.89,2.09-1.53,2.63.2-.15.39-.32.58-.49l-.97,1.92Z"/>
        <path class="cls-108" d="M343.5,206.1c-.91-2.06-.89-5.15-.57-7.34.36-2.49.69-4.9.98-7.41.37-3.01,1.2-6.08,1.93-9.02.57-2.31,2.06-4.67,2.08-7.06-3.17,5.34-4.26,11.52-5.41,17.52l.98,13.31Z"/>
        <path class="cls-73" d="M361,228.38c3.9-1.38,7.5-2.4,11.56-3.09,6.69-1.11,12.58-4.67,18-8.36-3.05,1.03-5.86,3.47-8.81,4.95-1.97.99-4.05,1.92-6.1,2.67-2.03.75-4.11,1.38-6.15,2.06-2.27.76-5.72,2.72-8.02,1.62l-.48.16Z"/>
        <path class="cls-101" d="M338.13,179.29c.31.93.84,1.95.74,2.93,1.89-.72,3.35-3.93,4.53-5.56,1.21-1.68,2.43-3.45,3.85-4.97,1.68-1.81,3.37-3.4,4.98-5.24,1.52-1.74,3.05-3.62,5.07-4.84-5.23,4.22-9.64,10.79-12.36,16.88-.93,2.08-2.16,3.9-3.5,5.76-1.05,1.48-2.96,3.23-3.45,5l.14-9.96Z"/>
        <path class="cls-103" d="M366.33,227.48c.3-.35.73-.76,1.44-.91-.6-.49-.65-1.31-.66-2.09,0,.74.07,1.52.33,2.22-.18.1-.34.2-.51.3.34.3.61.47,1.13.5-.27-1.3-1.24-2.02-1.91-3.05,3.05-.97-.52-5.3-.8-7.34-.2-1.49.87-3.76.09-4.97-.79.05-.64-.17-1.14-.4.53-.51,1.07-1.03,1.58-1.6l.46,17.33Z"/>
        <path class="cls-103" d="M366.82,196.98c-.3-.86-.79-1.84-.94-2.72-.12-.9.59-1.26-.06-2.22-.31.06-.66-.05-.92,0,2.15-2.14-2.02-6.77-1.42-9.28l3.34,14.23Z"/>
        <path class="cls-85" d="M349.54,228.48c1.2.78,2.99,1.76,3.23,3.34.25,1.6-1,3.35-.98,5.01l-2.25-8.35Z"/>
        <path class="cls-110" d="M352.56,266.28c-1.01-3.03-.19-4.54.84-7.4.97-2.66-.45-5.48.64-8,.11,2.69.6,6.06.29,8.77-.3,2.66-.27,7.11-2.09,8.88l.32-2.26Z"/>
      </g>
    </g>
  </g>
</svg>