<?xml version="1.0" encoding="UTF-8"?>
<svg id="_圖層_2" data-name="圖層_2" xmlns="http://www.w3.org/2000/svg" viewBox="0 0 399.55 314.03">
  <defs>
    <style>
      .cls-1 {
        fill: #abc2b4;
      }

      .cls-2 {
        fill: #90aba0;
      }

      .cls-3 {
        fill: #95ab9b;
      }

      .cls-4 {
        fill: #9bae9c;
      }

      .cls-5 {
        fill: #daebce;
      }

      .cls-6 {
        fill: #93aa99;
      }

      .cls-7 {
        fill: #a9bdb2;
      }

      .cls-8 {
        fill: #b4cdb0;
      }

      .cls-9 {
        fill: #9cb2a0;
      }

      .cls-10 {
        fill: #afc3b3;
      }

      .cls-11 {
        fill: #a4b285;
      }

      .cls-12 {
        fill: #9bb29b;
      }

      .cls-13 {
        fill: #b2cdca;
      }

      .cls-14 {
        fill: #a4b8a9;
      }

      .cls-15 {
        fill: #d7bf95;
      }

      .cls-16 {
        fill: #88a395;
      }

      .cls-17 {
        fill: #acbc9c;
      }

      .cls-18 {
        fill: #a0b59f;
      }

      .cls-19 {
        fill: #a6c1b7;
      }

      .cls-20 {
        fill: #85896e;
      }

      .cls-21 {
        fill: #b9d0b3;
      }

      .cls-22 {
        fill: #6b8471;
      }

      .cls-23 {
        fill: #adc7c2;
      }

      .cls-24 {
        fill: #9fa891;
      }

      .cls-25 {
        fill: #8ca38b;
      }

      .cls-26 {
        fill: #8da18b;
      }

      .cls-27 {
        fill: #a9b6a0;
      }

      .cls-28 {
        fill: #ddedce;
      }

      .cls-29 {
        fill: #95ab95;
      }

      .cls-30 {
        fill: #7c9283;
      }

      .cls-31 {
        fill: #b5bb99;
      }

      .cls-32 {
        fill: #c4d6b3;
      }

      .cls-33 {
        fill: #a1a682;
      }

      .cls-34 {
        fill: #a6bfb9;
      }

      .cls-35 {
        fill: #c4d1bc;
      }

      .cls-36 {
        fill: #f9fdeb;
      }

      .cls-37 {
        fill: #91a38b;
      }

      .cls-38 {
        fill: #b7d1c8;
      }

      .cls-39 {
        fill: #e3ecc8;
      }

      .cls-40 {
        fill: #8a987c;
      }

      .cls-41 {
        fill: #b68c7a;
      }

      .cls-42 {
        fill: #b9d2ce;
      }

      .cls-43 {
        fill: #d4e6d1;
      }

      .cls-44 {
        fill: #85987f;
      }

      .cls-45 {
        fill: #f6fbe6;
      }

      .cls-46 {
        fill: #b1cbbf;
      }

      .cls-47 {
        fill: #cae2c6;
      }

      .cls-48 {
        fill: #9cb1a4;
      }

      .cls-49 {
        fill: #a9c3b9;
      }

      .cls-50 {
        fill: #edf8d0;
      }

      .cls-51 {
        fill: #a2b7a2;
      }

      .cls-52 {
        fill: #96ab95;
      }

      .cls-53 {
        fill: #8d9e86;
      }

      .cls-54 {
        fill: #aec7b6;
      }

      .cls-55 {
        fill: #adc3b4;
      }

      .cls-56 {
        fill: #d1e4c8;
      }

      .cls-57 {
        fill: #9eb5ac;
      }

      .cls-58 {
        fill: #74795c;
      }

      .cls-59 {
        fill: #a4bdb4;
      }

      .cls-60 {
        fill: #cbd5c0;
      }

      .cls-61 {
        fill: #8fab9f;
      }

      .cls-62 {
        fill: #b2c4b4;
      }

      .cls-63 {
        fill: #717c65;
      }

      .cls-64 {
        fill: #8da390;
      }

      .cls-65 {
        fill: #a2b6ad;
      }

      .cls-66 {
        fill: #7d856f;
      }

      .cls-67 {
        fill: #8ca697;
      }

      .cls-68 {
        fill: #7f987f;
      }

      .cls-69 {
        fill: #82947c;
      }

      .cls-70 {
        fill: #7e9581;
      }

      .cls-71 {
        fill: #9cb29f;
      }

      .cls-72 {
        fill: #95ab9a;
      }

      .cls-73 {
        fill: #849b8b;
      }

      .cls-74 {
        fill: #e7f9e1;
      }

      .cls-75 {
        fill: #90a48c;
      }

      .cls-76 {
        fill: #a3beb3;
      }

      .cls-77 {
        fill: #9bb1a1;
      }

      .cls-78 {
        fill: #839179;
      }

      .cls-79 {
        fill: #9cb29c;
      }

      .cls-80 {
        fill: #a1b5a2;
      }

      .cls-81 {
        fill: #9fb6ad;
      }

      .cls-82 {
        fill: #98ad9a;
      }

      .cls-83 {
        fill: #ecfaee;
      }

      .cls-84 {
        fill: #a3b7a8;
      }

      .cls-85 {
        fill: #abc2b8;
      }

      .cls-86 {
        fill: #f5fcea;
      }

      .cls-87 {
        fill: #bbd4b3;
      }

      .cls-88 {
        fill: #a3c4bb;
      }

      .cls-89 {
        fill: #9bb9af;
      }

      .cls-90 {
        fill: #bfd3b5;
      }

      .cls-91 {
        fill: #e8f9f3;
      }

      .cls-92 {
        fill: #8da397;
      }

      .cls-93 {
        fill: #b6cdc6;
      }

      .cls-94 {
        fill: #8ba28e;
      }

      .cls-95 {
        fill: #b0cac1;
      }

      .cls-96 {
        fill: #89a08a;
      }

      .cls-97 {
        fill: #90a691;
      }

      .cls-98 {
        fill: #95aa9d;
      }

      .cls-99 {
        fill: #879d86;
      }

      .cls-100 {
        fill: #bad5cc;
      }

      .cls-101 {
        fill: #81826d;
      }

      .cls-102 {
        fill: #98b2a9;
      }

      .cls-103 {
        fill: #808361;
      }

      .cls-104 {
        fill: #bcd1c4;
      }

      .cls-105 {
        fill: #98ab9e;
      }

      .cls-106 {
        fill: #95b1a4;
      }

      .cls-107 {
        fill: #9ab5ac;
      }

      .cls-108 {
        fill: #9fb3a2;
      }

      .cls-109 {
        fill: #a6c8be;
      }
    </style>
  </defs>
  <g id="_圖層_1-2" data-name="圖層_1">
    <g>
      <path class="cls-31" d="M89.28,230.42c.34-.41.66-.74,1.06-1.08l-.11-.93.29-.28c5.15-4.75,7.34-18.69,5.16-25.26l-.21-.61.56-.32c.11-.07.31-.23.41-.31.64-.53,1.09-.1,1.17,0,.52.54-.02,1.08-.2,1.29l-.03-.02s-.02.01-.04.01c2.04,7.17-.18,20.82-5.47,26.09l.14,1.05-.39.27c-.46.34-.78.67-1.16,1.13l-1.2-1.04Z"/>
      <path class="cls-41" d="M4.95,233.47c-.12-.33-.21-.69-.27-1.08l-.41-2.99,2.09,2.18c.85.87,3,1.84,5.17,2.62.17-.01.33,0,.5-.02,1.2-.02,2.34-.05,3.29.16.67.15,1.16.42,1.58.69.37.22.71.41,1.19.51.6.11,1.31.09,2.08.07.81-.04,1.63-.07,2.48.07,1.51.25,3.02.53,4.49.79,1.01.2,1.99.38,2.98.55,1.26.13,2.56.33,3.85.61.82.11,1.63.19,2.46.25,2.83.24,5.64.22,8.36.21,1.77,0,3.61,0,5.41.06.78.03,1.48.09,2.11.2l.31-.22c1.17-.81,3.07-.67,4.76-.54.5.03.95.07,1.3.07,1.2-.02,2.31-.21,3.48-.43.58-.1,1.2-.22,1.83-.31,2.8-.38,5.2-1.08,7.99-1.89l1.23-.36c1.97-.56,4.02-.8,6.01-1.04,1.46-.15,2.89-.32,4.27-.61l-.2-.11,1.96-.35c1.94-.62,3.71-1.65,5.18-3.47l1.55,1.22c-.8,1.04-1.72,2.14-2.95,2.95,2.34.24,5.42-.22,8.23-.62,2.56-.39,4.99-.74,6.88-.63,2.83.18,5.69.4,8.47.58,7.25.54,14.75,1.07,22.15,1.15,7.22.1,29.56-3.61,29.78-3.65l.33,1.95c-.93.16-22.74,3.77-30.13,3.68-7.46-.08-14.99-.64-22.27-1.15-2.77-.2-5.64-.41-8.44-.59-1.7-.11-4.02.24-6.48.6-4.34.64-8.82,1.3-11.67-.15-2.08.67-4.27.93-6.43,1.19-1.91.22-3.88.44-5.7.96l-1.23.37c-2.84.81-5.32,1.52-8.25,1.93-.58.08-1.17.19-1.74.29-1.21.22-2.45.45-3.82.45-.43,0-.93-.03-1.47-.06-.32-.04-.7-.06-1.07-.07,1.98,1.08,4.23,2.29,5.77,3.76l3.87,3.7-4.94-2.07c-1.77-.75-3.02-1.62-4.12-2.38-1.85-1.27-3.31-2.28-6.6-2.39-1.77-.06-3.59-.05-5.34-.05-1.22,0-2.44,0-3.69-.02.25.16.49.3.72.46l2,1.36-2.39.43c-2.56.45-5.32-.71-8-1.82-1.46-.62-2.97-1.24-4.37-1.57-1.33-.11-2.55-.13-3.59-.05-3.55.27-6.17-.42-9.2-1.22-.07-.03-.14-.04-.22-.07-.18-.01-.37-.01-.55-.01v-.13c-.32-.09-.64-.17-.98-.25-.04-.01-1.49-.39-3.29-1.01-2.46.03-5.32-.17-6.27-2.7Z"/>
      <path class="cls-15" d="M303.85,164.95c2.69-2.1,6.47-3.84,11.19-5.16,2.27-.62,4.63-.87,6.23-.94.94-.06,1.9.06,2.82.15,1.1.12,2.14.24,3.12.09,1.02-.12,2-.35,3.02-.59,1.17-.26,2.39-.54,3.63-.67l.12,1.17c-1.18.12-2.34.4-3.48.65-1.02.25-2.08.49-3.15.62-1.13.14-2.29.03-3.41-.09-.91-.11-1.77-.19-2.63-.16-1.53.08-3.8.32-5.98.92-4.58,1.28-8.19,2.94-10.77,4.95l-.73-.94Z"/>
      <path class="cls-70" d="M98.73,207.35c-15.92-5.98-36.77-1.47-51.01-12.42-8.99-6.92-8.07-14.77-4.63-24.23,1.49-4.12,2.34-8.89,4.94-12.52,2.82-3.91,7.41-5.38,11.34-7.86,3.88-2.46,9.98-12.24,14.69-12.66,8.63-.77,16.4,19.53,20.54,25.04l4.14,44.65Z"/>
      <path class="cls-2" d="M116.9,147.99c-4.42-7.06-9.28-12.42-17.86-13.8-7.45-1.21-17.82-1.32-24.78,1.98-9.74,4.62-3.75,14.29.92,20.56,5.61,7.54,7.76,13.54,10.48,22.63,2.83,9.41,8.42,19.24,10.94,28.74,3.99-5.88,8.18-13.55,11.33-20.02,2.2-4.49,2.43-7.13,5.31-11.02,1.38-1.85,3.19-4.59,3.62-6.83.58-3.01-1.13-5.6.75-8.57l-.71-13.66Z"/>
      <path class="cls-109" d="M118.11,169.69c2.73-7.9,4.15-15.25-.46-22.88-3.95-6.48-13.7-7.12-20.34-5.76.74,3.43,4.53,5.59,6.28,8.47,1.83,3.03,1.97,7.19,2.36,10.53.47,4.07-1.73,15.62,5.99,15.12l6.17-5.49Z"/>
      <path class="cls-73" d="M99.07,206.59c-.23-.31-.33-.67-.28-1.05,3.22-2.65,3.84-7.95,6.15-11.39,2.28-3.41,4.95-6.96,7.74-10.2,3.01-3.5,5.91-6.93,7.22-11.49,1.39-4.84.75-9.35.87-14.32-1.46,5.71-6.38,11.4-10.1,15.91-4.08,4.99-5.71,8.09-7.34,14.28-.53,2-1.68,10.85-3.27,11.59-1.38.64-5.24-1.81-6.78-1.84-2.01-.03-6.19.83-7.94,1.77,2.08.9,3.99,1.49,5.82,2.43,1.88.98,3.63,2.88,5.61,3.27l2.28,1.04Z"/>
      <path class="cls-15" d="M4.58,234.43c-.12-.32-.21-.68-.26-1.1l-.4-2.98,2.09,2.17c.84.87,2.99,1.85,5.15,2.63.18-.01.34-.01.53-.02,1.19-.03,2.32-.05,3.28.16.68.15,1.15.43,1.57.68.38.22.7.42,1.19.51.59.12,1.3.1,2.06.05.82-.02,1.65-.06,2.5.09,1.51.26,3.02.54,4.49.8.99.19,1.98.38,2.97.55,1.26.13,2.56.33,3.85.6.82.1,1.63.19,2.46.26,2.82.23,5.64.21,8.35.21,1.78-.01,3.61,0,5.43.05.76.04,1.46.1,2.09.21l.31-.22c1.18-.81,3.09-.67,4.77-.54.5.03.97.07,1.3.07,1.19-.01,2.3-.21,3.47-.43.59-.12,1.2-.22,1.83-.31,2.8-.37,5.2-1.08,7.98-1.88l1.23-.35c1.98-.56,4.02-.8,6.01-1.04,1.46-.16,2.9-.33,4.27-.62l-.19-.11,1.96-.36c1.93-.61,3.69-1.64,5.18-3.45l1.53,1.22c-.8,1.04-1.7,2.13-2.94,2.95,2.35.25,5.42-.21,8.22-.62,2.57-.38,4.99-.74,6.89-.62,2.83.18,5.7.39,8.46.58,7.26.52,14.75,1.07,22.14,1.15,7.23.09,29.57-3.61,29.79-3.65l.33,1.94c-.93.16-22.75,3.77-30.14,3.68-7.47-.09-14.98-.63-22.27-1.16-2.76-.19-5.62-.4-8.44-.59-1.7-.1-4.02.23-6.47.6-4.35.64-8.82,1.3-11.67-.16-2.09.68-4.28.94-6.44,1.19-1.9.21-3.88.44-5.69.96l-1.22.35c-2.86.82-5.32,1.54-8.26,1.95-.59.08-1.18.19-1.75.29-1.2.22-2.44.45-3.82.46-.41.01-.93-.03-1.46-.06-.32-.03-.68-.05-1.07-.08,1.98,1.07,4.22,2.28,5.77,3.77l3.88,3.69-4.94-2.06c-1.77-.75-3.02-1.61-4.11-2.38-1.86-1.27-3.32-2.28-6.59-2.39-1.79-.06-3.6-.06-5.34-.05-1.22,0-2.46,0-3.7-.02.25.16.5.3.72.46l1.99,1.36-2.39.44c-2.56.45-5.32-.71-8-1.82-1.46-.61-2.98-1.24-4.38-1.57-1.33-.11-2.56-.12-3.6-.04-3.55.26-6.16-.42-9.19-1.24-.07-.02-.15-.05-.23-.06-.19,0-.37-.01-.56-.01v-.13c-.33-.09-.65-.17-.99-.26-.04,0-1.48-.38-3.29-1-2.46.02-5.32-.18-6.27-2.7Z"/>
      <path class="cls-15" d="M204.91,226.92l.49-1.49.52.16c2.88.92,6.16,1.99,7.94,4.62,1.07,1.59,1.71,3.76,2.34,5.84.29.98.57,1.91.88,2.72,1.16,3.06,1.92,5.62,2.42,8.11.52,2.64,1.33,3.75,2.58,5.45.44.61.96,1.3,1.52,2.17l-1.32.86c-.53-.83-1.04-1.5-1.47-2.09-1.33-1.8-2.27-3.1-2.86-6.08-.47-2.39-1.22-4.91-2.34-7.86-.33-.86-.62-1.82-.92-2.84-.59-1.97-1.19-3.99-2.14-5.39-1.49-2.19-4.47-3.15-7.11-4.01l-.53-.17Z"/>
      <path class="cls-20" d="M151.58,231.89c2.17-1.08,4.85-1.17,7.42-1.25,2.84-.08,5.52-.16,7.31-1.48,1.12-.82,1.4-2.4,1.45-3.59.12-3.16-1.34-7.28-3.13-8.82l1.29-1.49c2.25,1.94,3.96,6.59,3.8,10.39-.06,1.5-.4,2.79-1.02,3.78.81-.11,1.64-.18,2.48-.2,10.49-.21,21.81-.99,33.51-5.22,5.86-2.11,11.53-4.85,17.02-7.5,5.29-2.55,10.75-5.18,16.31-7.21l.67,1.84c-5.46,2.02-10.89,4.63-16.13,7.16-5.53,2.67-11.24,5.42-17.19,7.58-11.97,4.32-23.47,5.11-34.15,5.35-2.18.03-4.27.48-6.5.96-.83.17-1.67.35-2.55.52-1.24.22-2.73.27-4.15.28-2.04.04-4.15.08-5.63.71l-.82-1.78Z"/>
      <path class="cls-41" d="M151.57,233.27c2.16-1.12,4.83-1.23,7.41-1.34,2.84-.13,5.52-.25,7.3-1.58,1.1-.84,1.37-2.42,1.4-3.61.1-3.16-1.43-7.25-3.23-8.78l1.27-1.52c2.27,1.9,4.04,6.56,3.94,10.35-.04,1.5-.37,2.79-.98,3.78.81-.12,1.64-.2,2.47-.23,10.5-.34,21.81-1.26,33.46-5.63,5.79-2.18,11.18-5.02,16.38-7.77,5.06-2.67,10.28-5.42,15.84-7.54l.71,1.85c-5.45,2.08-10.62,4.81-15.61,7.45-5.27,2.76-10.71,5.63-16.63,7.85-11.91,4.48-23.41,5.42-34.06,5.77-2.19.06-4.29.55-6.5,1.05-.81.19-1.66.38-2.53.55-1.26.26-2.74.3-4.16.34-2.04.07-4.14.14-5.61.77l-.86-1.77Z"/>
      <path class="cls-15" d="M233.32,212.17l1.07-1.16c.76.7,2.09.92,3.49,1.15,1.25.21,2.54.41,3.63.98,1.45.76,3.06,1.77,4.61,2.72.42.26.84.51,1.23.75,1.05.64,2.08,1.5,3.07,2.33.5.43.98.82,1.44,1.19,1.12.85,2.02,1.97,2.89,3.06.95,1.17,1.85,2.3,2.95,2.96l-.81,1.35c-1.34-.81-2.37-2.08-3.37-3.33-.8-1-1.65-2.03-2.62-2.79-.49-.38-.98-.79-1.5-1.22-.95-.8-1.93-1.61-2.89-2.2-.4-.24-.8-.5-1.23-.75-1.53-.94-3.11-1.92-4.52-2.67-.87-.45-2.03-.64-3.15-.83-1.58-.26-3.2-.52-4.31-1.53Z"/>
      <path class="cls-65" d="M196.74,181.88c-.23-.32-.33-.68-.32-1.05,2.41-1.16,6.77-3.49,9.42-3.1,2.41.35,6.33,4.41,6.05,6.76,15.1-4.25,21.31,15.09,11.05,24.45-4.73,4.31-10.88,6.72-16.58,9.42-6.06,2.85-11.89,6.29-18.21,8.55-7.13,2.53-14.69,3.44-22.16,4.39,3.59-7.6-1.14-16.12.95-24.29l29.79-25.12Z"/>
      <path class="cls-14" d="M175.6,208.18c-.83,4.62-1.47,12.48-6.99,13.9-4.33,1.12-9.95-1.79-14.33-2.16-13.67-1.2-26.79-.81-34.5-14.75-5.33-9.63.4-20.28,8.43-26.47,4.57-3.52,9.99-4.8,15.49-6.09,5.46-1.27,10.16-3.33,15.22-5.65,6.88-3.18,14.71-5.33,22.13-2.6,7.76,2.85,10.09,9.77,11.16,17.31l-16.61,26.51Z"/>
      <path class="cls-12" d="M198.59,176.75c2.08,4.73-1.94,11.06-3.49,15.42-.85,2.36-2.54,3.93-3.75,6.08-1.12,1.97-1.25,3.91-2.66,5.94-4.84,6.89-11.99,14.55-19.43,18.45.06-4.84-3.87-10.1-4.76-14.93-1.2-6.35.75-12.99,3.65-18.64,4.77-9.21,9.68-22.14,20.55-24.95.45.91,1.16,2.18,1.31,3.21l8.59,9.42Z"/>
      <path class="cls-51" d="M136.4,172.93c6.04-2.9,9.9-1.38,14.26-7.35,3.67-5.05,7.92-7.16,14.29-5.89,9.34,1.87,21.21.12,29.42,6.14,5.37,3.93,3.83,10.31,4.95,16.16-3.43-5.6-8.85-9.68-15.17-11.33-5.54-1.43-10.25-3.58-15.99-3.42-7.38.19-10.49,3.76-16.91,6.39-2.87,1.18-5,2-8.11,1.74-2.33-.19-5-1.51-7.21-.37l.48-2.08Z"/>
      <path class="cls-79" d="M118.63,208.1c-7.36-5.54,1.15-17.05,4.9-22.13,2.61-3.54,6.27-4.5,9.47-7.13,3.38-2.77,6.57-4.46,10.73-6.12-5.27-.03-11.32.51-15.52,4.07-3.35,2.85-5.98,6.83-8.99,10.06-4.08,4.38-6.59,6.93-7.19,13.16-.76,8.2,3.54,10.09,9.66,14.55l-3.06-6.44Z"/>
      <path class="cls-85" d="M168.48,222.89c-4.8-1.77-10.68.79-15.51,1.68-4.95.93-8.82,1.11-13.82.54-10.23-1.16-19.07-6.28-23.8-15.71-2.4-4.79-2.27-10.28,1.41-14.43,1.96,4.86,8.06,7.25,12.13,9.83,4.32,2.73,7.43,5.9,11.61,8.72,4.33,2.94,8.77,3.69,13.72,5.07,3.54.99,10.28.48,12.87,2.29l1.38,2.02Z"/>
      <path class="cls-42" d="M212.9,290.02c-2.52-6.77-3.91-13.55-2.92-20.8.42-3.21,1.45-6.2,2.77-9.14,1.2-2.7,2.4-6.31,4.62-8.34,2.59-2.36,5.85-.17,8.38,1.23,4.12,2.28,8.14,4.28,12.78,5.25,4.26.9,7.23,1.88,10.15,5.34,5.04,5.95,9.05,13.14,12.83,19.93,2.29,4.09,8.56,13.62,2.69,17.4-2.72,1.74-6.52,1.82-9.62,1.95-4.62.19-9.25-.03-13.87-.21l-27.81-12.6Z"/>
      <path class="cls-23" d="M216.19,293.57c-.13.1-.29.14-.45.13-2.52-3.25-5.04-7.94-5.56-12.07-.24-1.82.01-3.31.34-5.14.32-1.77.03-4.9,1.35-6.29,10.39,15.46,28.72,28.29,47.75,28.78,4.92.12,13.43-1,11.18,6.53-1.79,5.94-5.73,8.77-11.28,8.51-2.77-.12-6.21-1.66-8.95-2.22-4.18-.83-8.01-3.05-11.7-5.09l-22.67-13.14Z"/>
      <path class="cls-93" d="M253.73,224.32c3.24-.7,6.3-1.66,9.29-3.13,3.31-1.64,6.53-3.65,10.2-4.42,8.75-1.85,15.7,4.8,19.68,11.88,4.06,7.23,6.24,15.66,8.67,23.55,1.16,3.74,1.74,7.63,1.9,11.54.18,4.37-.42,8.91-2.1,12.96-1.19,2.88-3.16,6.59-6.48,7.33-3.88.86-7.53-.97-11.19-1.78l-29.96-57.93Z"/>
      <path class="cls-95" d="M248.02,284.69c-.69-2.14-2.52-3.88-3.2-6.15-.64-2.12-.88-4.23-1.03-6.43-.27-3.9.93-7.55,2.02-11.21,1.05-3.6.71-7.98,1.28-11.74.69-4.59,2.4-8.52,3.7-12.99.62-2.15.84-4.38,1.17-6.59.32-2.1.19-4.46.68-6.5,2.53,6.45,6.21,11.61,10.29,17.13,4.84,6.54,9.73,12.94,15.53,18.67,4.84,4.74,9.74,9.34,14.93,13.69,3.35,2.8,8.04,7.47,3.62,11.35-1.97,1.73-4.29,3.93-6.82,4.75-2.81.91-6,.58-8.88.25-5.15-.6-10.24-1.75-15.31-2.82l-17.97-1.4Z"/>
      <path class="cls-19" d="M245.18,266.64c-.18-1.77.1-3.19.54-4.87.33-1.29.32-3.35,1.14-4.38,1.96-2.45,7.56,5.12,9.16,6.66,1.87,1.79,4.31,2.74,6.45,4.14,2.62,1.7,4.96,3.29,7.93,4.41,5.04,1.92,9.76,4.5,14.78,6.48,4.1,1.6,8.26,2.41,12.64,2.72-.76,1.63-2.97,3.36-4.32,4.55-1.75,1.54-3.58,2.7-5.57,3.84-3.32,1.91-6.74,3.76-10.33,5.15-2.72,1.04-5.6.55-8.43.2-3.28-.39-5.66-2.59-8.78-3.38l-15.21-25.51Z"/>
      <path class="cls-57" d="M244.93,277.98c-1.1-2.94-1.95-4.83-1.37-7.89.47-2.57,1.03-5.14,1.65-7.67,2.14,3.44,5.4,6.45,8.11,9.45,3.01,3.36,6.63,5.34,10.46,7.57,6.3,3.67,13.86,6.8,21.07,8.11,2.94.53,6.91.18,9.49-1.39-2.46,4.7-4.58,12.68-9.82,14.99-5.77,2.56-12.91.54-18.72-.92-4.86-1.23-9.17-5.36-12.68-8.74l-8.19-13.51Z"/>
      <path class="cls-48" d="M260.6,300.21c-3.84-2.8-7.05-6.12-10.61-9.23-3.16-2.74-4.33-7.88-5.26-11.81-.5-2.12-1.48-4.42-.3-6.47,4.12,6.7,8.13,12.41,13.91,17.8,4.92,4.59,11.43,8.17,18.12,9.17,2.77.4,5.55.66,8.32,1-.98.9-1.7.57-2.83.68-1.37.14-2.41.87-3.72,1.21-1.32.36-2.76.36-4.16.07-5.21-1.05-11.17-.75-15.53-4.18l2.06,1.75Z"/>
      <path class="cls-41" d="M235.79,212.74l-.69-1.85c3.14-1.17,5.92-3.01,8.63-4.78l.37-.25c2.63-1.74,5.37-3.54,7.52-5.61,8.92-8.54,19.99-13.78,30.7-18.85l.12-.05c4.81-2.29,9.11-6.55,12.9-10.32l.77-.78c1.81-1.81,3.38-3.37,5.56-4.82,2.46-1.62,3.37-2.43,4.11-5.08l1.9.54c-.95,3.41-2.48,4.57-4.92,6.18-2.02,1.35-3.52,2.84-5.26,4.58l-.77.76c-3.9,3.89-8.32,8.28-13.43,10.71l-.13.05c-11.05,5.23-21.49,10.19-30.18,18.5-2.28,2.19-5.22,4.11-7.8,5.83l-.37.24c-2.79,1.83-5.66,3.74-9.02,4.99Z"/>
      <path class="cls-15" d="M264.68,191.86l-.44-1.51c.94-.26,1.6-.88,2.07-1.88,1.49-3.27.04-9.53-1.18-12.12-.89-1.86-1.95-3.53-3.09-5.3-.29-.48-.61-.97-.91-1.45-.58-.91-1.54-1.8-2.48-2.63-1.26-1.16-2.58-2.33-3.17-3.78l1.46-.59c.47,1.11,1.58,2.13,2.76,3.2,1.02.91,2.07,1.87,2.76,2.97.3.48.61.95.93,1.43,1.1,1.75,2.25,3.53,3.18,5.49,1.25,2.65,2.96,9.54,1.18,13.45-.64,1.43-1.67,2.34-3.06,2.73Z"/>
      <path class="cls-100" d="M245.05,107.2c4.52-6.86,13-6.56,20.31-4.8,7.74,1.86,13.66,8.2,17.43,14.97,3.87,6.97,5.59,15.87,4.09,23.73-.78,4.14-3.05,6.84-6.29,9.69-3.3,2.89-6.75,4.65-10.8,5.41-4.71.88-7.23,4.4-11.46,5.95-6.64,2.42-13.8-6.21-17.96-10.13l4.68-44.82Z"/>
      <path class="cls-38" d="M212.41,112.03c4.81-9.85,22.01-18.26,31.49-9.51,5.48,5.05,4.89,13.92,5.44,20.68.29,3.77,1.19,7.42,1.69,11.17.4,3-.13,5.78-.15,8.76,0,3.67,3.22,8.36,2.47,11.78-1.09,4.9-12.58-1.85-14.95-2.93l-25.99-39.95Z"/>
      <path class="cls-46" d="M210.64,138.54c-2.65-5.4-5.46-11-4.48-17.18.78-4.95,4.28-13.34,10.26-13.58,6.87-.27,12.28,10.27,15.91,14.79,4.37,5.45,10.17,9.97,13.81,15.98,3.85,6.32,5.07,13.92,6.47,21.06-.26.09-.43,0-.49-.27l-41.49-20.8Z"/>
      <path class="cls-84" d="M257.15,163.33c-1.48-1.7-1.61-3.97-2.64-5.89-1.09-2.07-2.82-4.25-4.63-5.71-4.34-3.52-10.67-7.82-16.16-9.2-9.88-2.49-21.15-5.08-24.91-15.98-1.58-4.52-.63-10.06.82-14.51-2.61,5.04-5.76,10.34-5.27,16.21.45,5.43,3.31,10.67,6.47,14.97,6.48,8.88,18.85,14.82,29.19,17.98,5.95,1.82,12.21,2.24,18.33,3.25l-1.21-1.12Z"/>
      <path class="cls-14" d="M256.08,162.55c3.79-1.92,7.49-4.09,11.64-5.15,4.18-1.07,8.05-1.59,11.4-4.54,6.47-5.69,14.5-18.99,4.48-33.48-1.47,2.92-.24,12.39-2.13,19.38-1.74,6.39-5.39,10.92-10.68,14.71-3.3,2.36-7.04,3.76-10.29,6.26l-4.41,2.82Z"/>
      <path class="cls-25" d="M393.53,198.17c-1.61,5.47-3.67,9.41-7.78,13.37-3.76,3.58-7.42,7.6-11.67,10.6-5.29,3.73-11.32,4.49-17.63,3.79-6.23-.7-12.77-1-18.82-2.67-19.27-5.29-23.41-20.81-19.4-33.92.5-1.64.72-1.96,2.11-3,2.44-1.81,4-1.25,6.83-.06l66.35,11.89Z"/>
      <path class="cls-64" d="M393.5,199.59c-2.24,6.73-6.25,10.94-12.92,13.42-3.01,1.11-6.13,1.75-9.01,3.19-3.55,1.78-6.57,3.03-10.62,1.96-4.35-1.16-8.51-5.04-13.13-4.88-3.79.15-6.28,3.65-9.67,4.91-6.43,2.38-14.01-3.99-15.97-9.87-.67-2.03-.59-4.11-.76-6.2-.18-2.07-.83-3.75-1.61-5.66-2.95-7.16,6.97-11.59,11.86-14.67l61.83,17.8Z"/>
      <path class="cls-72" d="M395.74,195.09c-1.93,1.97-1.33,4.54-2.34,6.88-.84,1.91-2.67,4.14-4.37,5.31-4.33,3.03-11.63,1.81-15.99-.59-4.13-2.29-7.73-5.5-11.83-7.88.5,2.85,3.13,5.47,4.17,8.24,1.29,3.35-.79,2.34-3.34,3.02.34.74,1.56,2.92.6,3.5-.78.47-4.74-2.32-5.46-2.68-4.6-2.24-8.86-6.55-13.81-7.8-3.19-.81-5.65-1.06-6.45,2.53-.77,3.46-.54,6.87-.6,10.38-5.3,1.32-10.52-5.23-12.03-9.58-1.68-4.89-4.62-10.91-3.77-16.28,1.07-6.75,8.09-6.67,13.6-7.03l61.6,11.99Z"/>
      <path class="cls-53" d="M330.63,158.82c5.12-4.35,4.88-10.2,7.72-15.73,2.95-5.75,8.55-10.32,14.7-12.09,6.56-1.91,15.57-1.75,21.12,2.84,2.58,2.11,2.34,5.09,2.7,8.1.34,3.08,1.39,6.01.92,9.12-.25,1.67-.86,3.3-.89,5-.05,1.71.72,3.08.96,4.7.33,2.16-.91,3.2-2.75,4.15-4.09,2.11-8.94,3.01-13.35,4.14l-31.13-10.24Z"/>
      <path class="cls-26" d="M333.75,159.62c2.36-4.41,4.05-9.25,6.89-13.38,3.57-5.22,9.16-10.14,15.19-12.25,5.5-1.91,11.38-.04,15.2,4.29,3.39,3.85,3.57,9.01,4.75,13.77.65,2.62,1.67,5.42,1.26,8.15-.43,2.86-2.51,4.89-4.52,6.78l-38.76-7.36Z"/>
      <path class="cls-75" d="M332.54,158.67c11.34-4.65,27.85-15.08,39.61-6.34,3.11,2.32,4.97,5.81,5.71,9.58.95,4.66-2.3,6.13-6.47,7.02-9.44,2.02-19.44,1.5-29.02.95l-9.83-11.21Z"/>
      <path class="cls-37" d="M330.58,159.4c1.23-.7,3.16-.36,4.51-.5,1.67-.16,3.6-.32,5.37-.06,3.96.56,7.94,1.6,11.7,2.88-8.33.78-12.64,8.88-20.04,11.41-.8-1.24-.34-2.72-.44-4.02-.1-1.24-.32-2.57-.43-3.78-.18-1.98-.7-4.97-.22-6.96l-.46,1.02Z"/>
      <path class="cls-17" d="M331.81,158.94c-.23-.05-.37-.17-.4-.37,4.36-2.05,11,.93,15.45,1.76-1.16.24-3.03-.5-4.23-.68-1.39-.21-2.57-.4-3.97-.48-1.21-.06-2.62.11-3.85.31-1.31.24-2.13-.15-3.41-.12l.41-.43Z"/>
      <path class="cls-97" d="M326.98,176.8c5.65-4.95,10.73-11.94,17.58-15.22,9.18-4.42,20.37-1.61,29.37,1.85,2.31.89,4.58,1.86,6.82,2.88,2.06.91,4.24,2.4,6.43,2.91,1.56.36,3.03.19,4.59.75,2.04.73,3.94,1.88,5.48,3.4,4.42,4.33,2.73,28.32-7.27,27.52-3.41-.28-2.74-6.8-5.77-8.21-5.03-2.33-10.1-4.56-15.42-6.12-13.91-4.08-28.1-2.99-42.31-1.42l.51-8.34Z"/>
      <path class="cls-3" d="M322.62,184.62c2.17-3.58,4.2-6.69,7.58-9.31,4.31-3.31,10.42-5.94,15.68-7.16,7.25-1.68,15.63-.11,22.28,2.93,6.59,3,13.43,6.04,18.8,10.95,4.06,3.7,7.69,7.06,10.11,12.08-1.75.88-1.71,3.19-3.76,3.59-1.49.31-3.1-.13-4.61-.34-3.83-.54-7.78-.72-11.53-1.65-5.68-1.38-11.59-1.92-17.24-3.45-5.82-1.58-11.58-1.98-17.56-2.72-1.7-.2-3.38-.83-5.09-.82-1.22,0-2.12.06-3.35-.16-1.81-.34-6.11-1.31-7.75-.51l-3.54-3.45Z"/>
      <path class="cls-4" d="M320.96,186.94c1.16-1.48,2.56-2.79,3.68-4.31,1.36-1.85,2.34-3.97,3.97-5.62,3.41-3.46,7.15-7.04,10.91-10.1,9.82-8.02,23.88-5.84,34.92-1.92,5.96,2.11,11.38,4.91,17.7,5.83-11.01-5.59-23.34-12.66-36.01-12.95-11.85-.27-19.45,8.63-26.96,16.56-3.81,4.02-7.1,8.22-10.03,12.93l1.82-.41Z"/>
      <path class="cls-108" d="M319.31,185.58c3.19-1.2,6.45-2.19,9.25-4.17,2.67-1.9,4.68-5.16,7.94-6.17-1.71,3.6-6.48,6.28-5.13,10.83,4.8.31,8.49-1.19,12.83-3.1,3.59-1.6,7.4-2.58,10.94-4.35,1.45-.72,2.83-1.62,4.33-2.24,1.96-.82,3.31-.52,5.34-.57-2.26,1.5-4.7,2.38-6.95,4.13-2.69,2.11-5.14,4.53-8.21,6.06,6.97-2.6,14.06-4.72,21.01-7.34-2.5.73-4.84,1.94-7.1,3.19-1.76.99-6.84,3.17-7.49,5.36-.81,2.65,7.64,3.85,9.45,4.19,4.26.78,8.41,1.23,12.58,2.41,4.15,1.17,8.23,2.55,12.36,3.78-2.34-.92-5.22-.93-7.68-1.29-3.74-.51-7.42-.86-11.19-.89-4.02-.06-7.91-.92-11.89-1.22-2.3-.17-4.24.1-6.47.27-2.2.19-4.07-1.24-6.28-1.17.87,2.42,2.54,4.91,3.82,7.16,1.12,1.96,3.85,3.67,4.17,5.97-3.08-1.96-5.69-4.31-8.57-6.51-2.27-1.74-4.76-3.13-7.05-4.83-1.01-.74-2.16-1.54-3.4-1.8-1.33-.28-2.81.41-3.91-.63-1.08,1.44.22,4.03.11,5.69-.16,2.67-1.23-.02-2.98.43-3.48.88,2.51,10.94,3.15,13.07-2.86-2.69-5.42-5.13-7.76-8.35-1.32-1.8-1.95-3.94-2.74-6.03-1.37-3.68-3.18-7.05-4.58-10.73.05.14.11.28.16.43l1.94-1.58Z"/>
      <path class="cls-94" d="M316.7,64.2c5.25,1.79,10.76,2.93,15.83,5.15,4.58,2.01,9.6,4.21,12.03,8.84,2.47,4.71,2.56,9.91.71,14.82-1,2.65-2.32,5.46-4.44,7.4-1.95,1.82-4.48,2.37-6.87,3.41-2.76,1.22-5.82,4.29-8.98,4.18-5.14-.19-8.01-8.87-9.76-12.59l1.47-31.21Z"/>
      <path class="cls-64" d="M310.12,66.12c2.96-1.49,5.82-2.62,9.17-1.77,3.02.77,6.51,2.52,8.63,4.85,2.18,2.39,2.29,5.62,2.57,8.68.32,3.4.77,6.82.09,10.19-.68,3.38-2.09,6.52-2.55,9.95-.39,2.83-.18,5.79-1.71,8.34-1.53,2.54-4.49,4.68-7.56,4.43-3.24-.29-5.24-2.99-6.84-5.53-2.07-3.3-4.89-6.13-6.78-9.54-3.74-6.77-1.56-13.8,1.05-20.55l3.91-9.07Z"/>
      <path class="cls-77" d="M308.73,102.08c-1.52-5.9-1.36-11.59.3-17.45.85-3.06,2.1-5.97,3.13-8.95.68-2.01,1.76-4.83.83-6.93-2.05-4.57-9.22.02-11.54,2-3.59,3.03-4.95,7.16-4.98,11.79-.03,6.6,3.26,11.48,7.38,16.32l4.87,3.23Z"/>
      <path class="cls-44" d="M318.75,111.54c2.5-1.7,3.25-3.96,6.4-4.95,2.64-.84,5.28-1.05,7.7-2.54,4.93-3.01,7.89-7.67,10.52-12.62,1.56-2.93,2.38-6.23,2.57-9.5,1.05,6.08,1.42,12.4-1.76,17.95-2.91,5.08-9.35,8.23-15,8.94-3.63.45-6.8.39-9.84,2.79l-.58-.07Z"/>
      <path class="cls-99" d="M319.71,112.58c-.54-1.1-.53-2.19-1.19-3.32-.67-1.14-1.44-2.09-2.46-2.95-2.17-1.81-4.15-3.61-6.23-5.53-2.19-2.03-4.11-3.44-5.57-6.06-1.4-2.53-2.6-5.33-3.79-7.93-1.54-3.28-2.5-6.17-2.7-9.81-2.52,5.78-.12,13.16,2.4,18.5,1.34,2.87,3.4,3.81,5.54,5.92,2.02,2.01,3.71,4.32,5.77,6.27,2.48,2.34,4.61,3.36,7.8,4.51l.43.39Z"/>
      <path class="cls-15" d="M321.56,123.67c-.23-.62-.3-1.21-.35-1.75-.05-.43-.1-.85-.22-1.27-.18-.62-.45-1.26-.69-1.87-.16-.42-.36-.86-.51-1.3-.69-1.95-1.73-4.87-1.04-6.9l1.11.39c-.55,1.63.41,4.31,1.04,6.09.16.43.33.86.49,1.27.27.64.54,1.3.73,1.98.16.52.21,1.02.26,1.49.06.52.1,1,.29,1.49l-1.11.43s0-.03,0-.04Z"/>
      <path class="cls-41" d="M306.12,161.52c.1-2.49,1.56-5.17,2.74-7.32.2-.39.41-.78.6-1.14,1.43-2.74,2.41-4.99,3.2-7.32.95-2.84,2.13-5.57,3.28-8.2,1.03-2.4,2.09-4.87,2.98-7.39.92-2.61,1.68-5.29,2.43-7.88.63-2.2,1.29-4.46,2.02-6.66,1.45-4.3,2.79-8.38,3.11-13.14.17-2.59.48-5.36.9-7.99.06-.27.09-.56.15-.9.34-2.24.8-5.34,2.03-6.81l1.2,1c-.94,1.13-1.4,4.21-1.67,6.05-.04.34-.09.64-.13.91-.43,2.58-.74,5.3-.91,7.84-.32,4.96-1.71,9.12-3.19,13.52-.72,2.17-1.37,4.43-2,6.6-.75,2.62-1.53,5.34-2.45,7.98-.91,2.59-1.99,5.09-3.04,7.49-1.12,2.61-2.29,5.29-3.22,8.1-.81,2.4-1.83,4.74-3.29,7.55-.2.36-.4.76-.63,1.16-1.09,2.02-2.45,4.52-2.55,6.63l-1.57-.07Z"/>
      <path class="cls-11" d="M326.48,104.32c.75-2.98.33-6.49-.04-8.88-.16-1.01-.19-2.11-.24-3.28-.08-2.06-.17-4.2-.95-5.8l1.07-.51c.89,1.8.98,4.07,1.06,6.27.05,1.14.09,2.2.23,3.14.4,2.48.82,6.15.03,9.35l-1.16-.3Z"/>
      <path class="cls-15" d="M328.82,83.01c.18-1.9,2.96-3.29,4.98-4.32.4-.2.75-.38,1-.52,2.04-1.15,3.62-2.34,4.97-3.71.7-.71,1.31-1.49,1.89-2.25.77-1.01,1.57-2.05,2.61-2.93.64-.55,1.3-1.14,1.95-1.72,1.02-.93,2.09-1.88,3.15-2.73l.73.92c-1.04.84-2.09,1.78-3.09,2.7-.66.58-1.32,1.17-1.97,1.74-.94.8-1.66,1.75-2.43,2.74-.62.8-1.25,1.6-2,2.37-1.44,1.45-3.09,2.69-5.21,3.91-.28.15-.64.35-1.06.55-1.47.75-4.22,2.13-4.34,3.36l-1.18-.1Z"/>
      <path class="cls-15" d="M330.09,82.79c-.21-.61-1.19-6.37-2.78-15.78-1-5.99-2.06-12.16-2.58-14.93l1.16-.22c.53,2.79,1.57,8.97,2.56,14.96,1.2,7.02,2.53,14.95,2.74,15.57l-1.11.4Z"/>
      <path class="cls-61" d="M311.28,14.99c2.14-2.75,5.91-2.99,9.5-3.57,3.68-.6,7.75.15,11.28,1.19,7,2.05,13.04,7.57,15.69,14.41,2.92,7.51.63,14.82-6.51,18.5-3.62,1.86-7.18,4.01-10.89,5.72-3.43,1.59-6.04,1.37-8.63-1.49-3.01-3.3-5.93-6.89-8.73-10.37-3.7-4.55-4.29-10.17-4.82-15.83l3.11-8.55Z"/>
      <path class="cls-71" d="M325.95,55.11c-2.96-4.28-6.49-6.31-11.2-8.3-4.27-1.81-7.02-4.05-9.05-8.27-.76-1.58-5.19-11.39-1.85-11.96,1.94-.32,4.77,3.95,5.73,5.12,2.48,3.05,4.81,6.22,7.36,9.22,3.83,4.51,7.26,7.85,9.07,13.61l-.06.58Z"/>
      <path class="cls-15" d="M303.82,29.39l1.11-.42c.69,1.85,1.89,3.63,3.06,5.36.5.74,1.02,1.5,1.48,2.25.51.83,1.04,1.58,1.55,2.32,1.13,1.61,2.18,3.13,2.98,5.23,0,0,0,0,0,.02,2.19,5.8,5.55,9.9,9.72,14.67,1.15,1.31,2.22,2.78,2.97,4.07.2.39,2.11,3.72,1.71,4.92l-1.12-.37c.09-.42-.7-2.37-1.62-3.96-.7-1.22-1.73-2.64-2.83-3.89-4.24-4.84-7.67-9.04-9.92-15.01,0-.02,0-.03,0-.03-.74-1.96-1.76-3.42-2.84-4.97-.52-.75-1.07-1.52-1.58-2.38-.45-.72-.94-1.43-1.45-2.2-1.22-1.79-2.46-3.63-3.2-5.6Z"/>
      <path class="cls-6" d="M325.54,53.29c5.78-2.48,12.89-3.12,18.03-6.84,5.07-3.66,5.74-9.57,5.06-15.39-.46-3.81-1.97-6.98-4.11-10.14,1.17,5.18,3.49,12.68.59,17.59-2.52,4.32-7.84,7.06-12.08,9.36-2.68,1.46-5.24,3.01-7.6,4.95-.03.15.01.31.12.46Z"/>
      <path class="cls-21" d="M293.71.85c5.16-1.89,9.12-.54,12.74,3.52,4.06,4.55,6.82,10.92,6.99,17.04.12,4.03-1.55,12.02-7.03,11.63-5.14-.36-9-6.57-12.38-9.82-1.94-1.87-4.28-3.52-5.55-5.96-1.57-3.01-.84-6.28,0-9.39l5.22-7.03Z"/>
      <path class="cls-68" d="M308.39,33.85c5.7-1.08,9.66-3.57,9.73-9.87.04-3.58.15-11.39-5.1-10.71l-4.63,20.58Z"/>
      <path class="cls-5" d="M360.18,30.98c1.23-2.28,2.91-5.98,5.93-6.14,2.77-.17,4.78,2.7,5.76,4.94,2.17,5.08,1.64,11.92,2.05,17.37.53,6.99-2,12.91-5.36,18.93-3.08,5.48-8.38,12.41-14.89,6.96-3.74-3.13-4.56-7.45-2.98-11.98.71-2.06,2.25-3.94,2.48-6.09.24-2.29-.86-4.5-.84-6.78,0-1.31.01-2.71.34-4,.6-2.35,2.5-3.88,3.45-6.05l4.07-7.15Z"/>
      <path class="cls-28" d="M349.64,67.29c.16-1.08,1.72-1.98,2.26-3.05.58-1.15.89-2.71,1.33-3.97,1-2.83,1.68-5.68,1.67-8.72-.02-6.56,2-11.31,5.08-16.98,1.68-3.07,2.24-6.13,5.01-8.52-3.51.83-5.23,1.94-7.37,4.79-1.76,2.34-4.2,4.51-5.18,7.33-2.16,6.16-1.46,12.41-2.35,18.76-.5,3.59-1.81,6.98-2.36,10.52l1.91-.16Z"/>
      <path class="cls-32" d="M347.4,67.29c3.63,1.61,3.97,5.72,7.15,7.65,3.12,1.87,6.96-.03,9.44-2.13,4.75-4.04,8.18-10.17,9.4-16.24.8-4.09,1.51-7.67.44-11.8-.16,6.84-2.15,12.65-6.17,18.14-2.26,3.07-6.94,11.5-11.88,8.53-2.53-1.53-3.31-5.79-7.05-4.37l-1.33.22Z"/>
      <path class="cls-8" d="M308.48,34.1c3.4-3.38,7.39-5.67,7.74-10.97.31-5.07-1.61-9.65-4.48-13.67-1.52-2.11-3.31-3.66-5.42-5.19.63,2.72,2.03,5.31,2.76,7.97.65,2.44.94,5.11.95,7.65,0,2.68-.31,5.52-1.26,8.02-.77,2.07-1.44,4.44-.94,6.7l.65-.52Z"/>
      <path class="cls-87" d="M292.17,1.99c8.58-8.5,10.37,12.64,11.4,17.06.54,2.3,1.02,4.55,1.08,6.91-1-.71-1.57-1.8-2.59-2.52-.89-.63-1.94-1.02-2.88-1.58-1.76-1.03-3.2-2.21-4.96-3.14-3.97-2.09-6.02-5.37-6.18-9.83l4.15-6.89Z"/>
      <path class="cls-47" d="M292.9,16.63c-.55-1.51-1.18-2.86-1.09-4.47.1-1.63.92-2.87,1.32-4.41.64-2.43.02-6.92,3.31-7.65-2.33.22-4.77-.33-6.89.93-2.19,1.33-3.43,3.76-3.58,6.26-.12,2.03-.09,5.06,1.06,6.79,1.34,2.03,3.83,2.07,5.82,3.13l.06-.59Z"/>
      <path class="cls-27" d="M319.36,112.42c-.31-1.2.73-3.48.84-4.74.14-1.75.16-3.6.28-5.38.1-1.54.25-3.24.61-4.73.44-1.8,1.6-3.41,2-5.07-1.89,2.24-3.21,6.56-3.52,9.42-.19,1.69-.05,3.36-.08,5.05-.03,1.63-.41,2.71-.83,4.32l.7,1.13Z"/>
      <path class="cls-15" d="M284.84,181.4c-.04-.11-.07-.22-.07-.32l-.19-1.24,1.2.36c.21.07,21.52,6.65,32.19,5.65l.14,1.56c-10.12.96-28.67-4.45-32.24-5.53l-.12.38c-.44-.16-.76-.47-.91-.86Z"/>
      <path class="cls-43" d="M316.85,186.52c2.46-1.31,5.91.3,8.46.73,3.25.56,6.46,1.01,9.76,1.21,7.21.45,14.59.94,21.53,3.03-5.2-1.59-10.68-1.98-16.11-2.37-2.4-.17-4.91.28-7.23-.14-2.32-.43-4.52-.77-6.79-1.18-1.09-.19-7.89-.31-7.62-1.2l-2-.09Z"/>
      <path class="cls-9" d="M344.35,171.38c5.05-1.87,9.75-2.64,15.12-3.05,3.21-.25,6.3-.1,9.45.55,2.56.52,5.93.77,8.31,1.91-1.51-.26-2.93-1.12-4.41-1.53-1.59-.43-3.23-.87-4.87-1.02-2.38-.25-4.77-.61-7.11-.52-4.58.18-10.11-.35-14.02,2.74l-2.47.93Z"/>
      <path class="cls-56" d="M256.76,162.3c-2.61-7.03-6.09-15.42-5.44-22.89.64,3.91-.06,8,.49,11.83.49,3.42,2.18,7.45,3.7,10.68.34-.03.69-.14,1-.31l.26.69Z"/>
      <path class="cls-78" d="M258.22,164.09c-.24-.97-.68-1.9-1.42-2.53-.88.56-1.92,1.29-3.03,1.23.87.71,1.9,1.54,2.86,2.31l1.58-1.01Z"/>
      <path class="cls-92" d="M246.73,283.48c1.1.97,1.59,2.39,2.7,3.4.82.75,1.75,1.24,2.47,2.13,1.27,1.56,2.34,3.31,3.75,4.92,2.81,3.18,6.02,6.14,9.94,7.79-1.96.15-5.15-1.44-6.92-2.33-1.98-1.02-4.09-2.55-5.66-4.03-1.61-1.51-2.75-3.14-3.8-5.07-1.03-1.85-3.43-4.2-2.38-6.56l-.09-.25Z"/>
      <path class="cls-83" d="M253.63,224.08c1.03.26,1.23,1.9,1.68,2.8.84,1.64,2.1,3.09,2.88,4.77,1.09,2.35,2.14,4.27,3.63,6.38,1.55,2.22,3,4.62,4.45,6.94,1.3,2.1,2.49,5.34,4.31,6.97-3.2-4.9-6.92-9.79-10.77-14.28-1.45-1.69-2.62-3.69-3.68-5.62-.75-1.35-3.1-5.05-2.53-6.54l.03-1.41Z"/>
      <path class="cls-91" d="M218.47,250.24c1.02.13,2.96,4.03,3.63,5.11,1.08,1.75,2.25,3.7,3.2,5.54,2.17,4.14,4.75,7.92,7.14,11.87-2.98-4.03-5.89-8.13-8.65-12.12-2.21-3.18-4.6-6.08-5.67-9.95.41-.27.71-.13,1.12.1l-.78-.55Z"/>
      <g>
        <path class="cls-34" d="M260.3,313.26c-2.99-1.04-9.54-3.23-12.45-4.56-6.39-2.95-11.44-6.7-16.9-11.08-4.08-3.26-8.3-6.28-11.91-10.1-1.77-1.88-7.74-8.81-9.02-10.37.62,2.63-1.77,10.62,6.29,21.05l-3.17-6.84.24-.09c1.03,3.3,6.17,5.08,8.72,6.83,2.66,1.82,5.39,3.37,7.93,5.38,7.58,5.94,10.59,5.59,13.2,7.21,1.75.39,3.54.73,5.21,1.08,2.84.61,8.94,2.74,11.87,1.51Z"/>
        <path class="cls-34" d="M239.97,309.92c-.7-.17-1.41-.36-2.13-.53.7.2,1.41.36,2.13.53Z"/>
        <path class="cls-81" d="M230.02,303.46c-2.54-2.01-5.27-3.55-7.93-5.38-2.55-1.75-7.69-3.53-8.72-6.83l-.24.09c4.4,14.35,11.11,14.04,30.34,19.48-2.57-1.77-5.68-1.28-13.44-7.37Z"/>
      </g>
      <path class="cls-62" d="M168.14,223.65c-1.91-4.35-1.54-9.4-3.98-14-2.47-4.66-5.7-10.03-7.25-14.15,3.63,9.64,7.25,19.27,10.87,28.92l.36-.77Z"/>
      <path class="cls-96" d="M169.46,223.79c2.47-4.51,8.22-8.16,12.23-11.31,4.74-3.73,7.11-7.3,10.15-12.38,2.51-4.17,6.83-7.36,8.72-11.86,1.83-4.36.63-12.47-2.01-16.33-.6,10.39-5.98,19.9-10.41,29.33-4.11,8.73-10.88,13.65-17.63,20.27l-1.04,2.29Z"/>
      <path class="cls-105" d="M166.27,223.72c-1.4-2.73-13.9-2.18-17.18-2.69-4.79-.76-12.24-.39-15.13-4.73,5.15,3.1,12.73,5.87,18.65,5.66,5.08-.18,10.71-1.52,15.66.38l-2,1.38Z"/>
      <path class="cls-22" d="M96.3,203.16c.83-4.86-4.72-12.56-6.45-17.19-1.23-3.25-2.44-5.74-4.48-8.47-1.4-1.88-4.07-4.69-3.34-7.36,3.82,11.06,8.79,21.8,12.97,32.87l1.31.14Z"/>
      <path class="cls-30" d="M90.25,186.5c.8-8.21,8.44-16.49,12.04-23.5l-12.04,23.5Z"/>
      <path class="cls-30" d="M88.02,177.2c-1.35-4.22,2.72-11.54,2.77-16.22l-2.77,16.22Z"/>
      <path class="cls-90" d="M309.43,32.91c0-.17-.08-.32-.21-.44-2.24.96.44,5.5,1.44,6.65-1.43-2.32-2.85-4.86-4.89-6.77-.27.17-.04.26,0,.54l3.65.02Z"/>
      <path class="cls-74" d="M308.07,34.53c-.68-1.81-1.59-3.31-2.44-5.02-1.66-3.33-1.94-7.18-2.65-10.77l5.09,15.79Z"/>
      <path class="cls-106" d="M326.61,46.42c2.33-4.05,4.96-8.18,5.98-12.81.97-4.42.35-9.36-.3-13.79-.51-3.46-2-7.71-5.44-3.74-2.85,3.27-4.46,8.02-5.29,12.2-1.18,5.86.31,11.15,2.24,16.66l2.81,1.47Z"/>
      <path class="cls-10" d="M325.54,53.29c-1.12-.51.1-8.04.1-9.6.03-3.41.04-7.51,1.26-10.58.31,3.09-1.37,7.16-2.04,10.17-.28,1.29-.83,2.66-.97,3.94-.18,1.58.57,3.21.85,4.68l.8,1.39Z"/>
      <path class="cls-69" d="M326.22,53.59c-.31-1.01.77-1.78,1.68-2.03-.88.32-1.77.63-2.59,1.01.03.56.31,1.05.75,1.35l.16-.34Z"/>
      <path class="cls-69" d="M327.04,40.07c-.05-.23-.16-.27-.33-.15-1.17,4.07-1.23,8.36-1.2,12.53l1.53-12.38Z"/>
      <path class="cls-36" d="M347.98,67.36c.37-1.1,2.07-1.96,2.92-2.78,3.26-3.25,5.11-7.37,7.97-10.89l-10.89,13.67Z"/>
      <path class="cls-29" d="M312.96,102.1c-3.66-2.32-2.56-9.89-2.44-13.55.09-2.35.29-4.48.43-6.85.14-2.2-.27-5.76.95-7.65-.7,2.42-2.5,4.39-3.46,6.75-.92,2.25-1.36,4.5-1.49,6.95-.18,3.03-1.09,11.92,3.64,12.15l2.38,2.19Z"/>
      <path class="cls-18" d="M329.6,81.3c3.08,1.29,8.12,3.53,8.69,7.37.63,4.05-4.71,3.14-6.93,2.18-2.6-1.12-5.96-1.81-7.91-3.94-2.07-2.25-4.04-4.46-6.21-6.64-2.49-2.48-5.39-4.81-4.51-8.66l16.86,9.69Z"/>
      <path class="cls-104" d="M303.69,55.03c2.07-1.06,7.24,4.32,8.47,5.83,2.12,2.65,3.72,5.55,5.83,8.21,1.76,2.2,5.06,3.62,7.42,5.23,2.68,1.84,5.16,4.55,7.53,6.88,2.07,2.05,5.02,5.13,5.74,7.92-3.49-.47-7.51-1.99-10.44-3.9-3.64-2.36-7.61-3.95-11.35-6.09-5.8-3.29-10.55-10.53-13.9-16.12-.89-1.49-2.19-3.87-1.95-5.66.21-1.56,2.01-4.51,3.5-2.33l-.84.04Z"/>
      <path class="cls-40" d="M319.47,112.25c-.58-1.77-5.16-4.15-6.92-4.93,2.37,2.07,4.85,4.05,7.13,6.27l-.21-1.34Z"/>
      <path class="cls-24" d="M320.36,109.38c-.47,1.58-.07,3.4.28,5.04.29,1.45.5,3.79,1.26,5.03-1.14-3.02-3.38-5.77-1.9-8.82l.37-1.26Z"/>
      <path class="cls-103" d="M318.92,133.21c-1.88,1.49-2.2,5.01-3.19,7.11-1.48,3.16-2.83,6.41-4.36,9.54l7.55-16.65Z"/>
      <path class="cls-63" d="M328.3,89.8c.13.07.3.09.45.1-.41,1.15-1.41,2.81-1.16,4.05-.16-.7,0-1.37.09-2.08.08-.54.21-1.59.59-1.98l.04-.09Z"/>
      <path class="cls-15" d="M326.17,89.05c-.01-.06-.05-.07-.09-.04-.07,1.48.15,3,.3,4.44.06.63-.03,1.29.05,1.92.09.67.3,1.32.39,1.98.21,1.31.22,2.65.09,3.99-.13,1.34-.58,2.66-.82,4-.27,1.46-.66,2.93-.61,4.44.11-2.19-.02-4.36.37-6.52.21-1.17.51-2.32.49-3.51-.02-1.2.04-2.42.01-3.63-.01-.64.05-1.28.03-1.92,0-1.06-.17-2.09-.19-3.15v-1.99Z"/>
      <path class="cls-15" d="M327.78,103.23c-.08.74-.21,1.46-.28,2.21-.06.61-.05,1.71-.46,2.23-.16-.68-.07-1.48-.19-2.22-.13-.8-.53-1.55-.12-2.37l1.05.15Z"/>
      <path class="cls-11" d="M329.48,90.51c.45.84-.1,2.38-.23,3.23-.31,1.97-.86,4.06-1.61,5.93l1.84-9.16Z"/>
      <path class="cls-35" d="M322.2,183.12c-2.5,1.91-1.03,4.96-2.44,7.15-1.02-1.55-4.1-3.55-5.78-2.6.58-.88,2.29-1.26,3.51-1.72l4.71-2.82Z"/>
      <path class="cls-1" d="M210.76,113.06c.43,7.54,7.67,13.1,13.31,17.76,6.65,5.49,14.88,8.9,21.11,14.98,1.42,1.4,2.81,2.98,4.09,4.44,1.19,1.38,2.08,3.62,3.43,4.72-7.89-8.56-18.34-12.53-29.52-14.14-7.66-1.1-13.72-7.51-16.07-14.72-1.2-3.68-.14-8.91,3.09-11.14l.55-1.9Z"/>
      <path class="cls-55" d="M230.97,152.03c-2.49-.24-5.62-3.16-6.93-5.2-.82-1.21-1.19-2.72-2.03-3.95-.9-1.31-2.19-2.36-2.96-3.77-2.61-4.79-3.77-10.11-5.7-15.19,2.51,5.21,2.68,11.65,5.63,16.88,1.32,2.3,2.98,5.35,4.87,7.22,1.99,2.01,5.13,2.93,7.37,4.69l-.26-.68Z"/>
      <path class="cls-54" d="M257.51,161.59c3.24-1.63,6.6-2.83,9.92-4.29,3.71-1.61,6.58-4.31,9.35-7.18,6.24-6.42,6.44-13.96,6.57-22.49.06-4.18.41-7.53-1.13-11.53,1.24,3.22-.32,8.7-1.4,11.81-1.22,3.57-1.97,7.26-3.22,10.82-1.14,3.26-4,5.63-6.2,8.24-2.12,2.52-4.66,4.59-6.67,7.17-2.09,2.68-4.54,4.62-6.83,7.02l-.4.43Z"/>
      <path class="cls-50" d="M265,191.67c.33-.34.69-.72.94-1.13.21-.36.26-.77.42-1.14.47-1.06.98-2.03,1.13-3.19.3-2.27.02-4.86-.75-7.01-.21-.57-.35-1.16-.57-1.72-.16-.41-.26-1.06-.62-1.36-.02.66.15,1.33.18,1.98.01.5.07.98.07,1.48.04,1.01.19,2,.18,3.02-.03,2.12-.66,4.12-1.17,6.17-.37,1.39-.53,3.21-1.75,4.11l1.93-1.2Z"/>
      <path class="cls-59" d="M248.15,261.86c1.68,6.88,13.56,13.17,19.4,16.45,6.69,3.76,16.94,10.43,24.24,10.01-8.1,3-16.1-3.28-23.42-6.28-5.77-2.36-13.35-6.13-16.6-10.57l-3.62-9.61Z"/>
      <path class="cls-49" d="M247.94,251.52c2.39,1.06,4.35,4.23,6.42,5.96,2,1.68,4.15,3.54,6,5.14,3.86,3.28,8.38,5.89,12.84,8.35,8.1,4.48,16.59,7.82,24.79,11.74-8.75.16-19.5-4.99-27.7-8.17-9.14-3.55-15.96-8.79-19.83-17.95l-2.52-5.08Z"/>
      <path class="cls-13" d="M214.86,268.19c3.28.62,7.96,6.94,10.52,9.46,3.61,3.59,6.78,6.6,11.16,8.97,5.03,2.72,15.82,6.35,18.91,11.02-4.71,3.24-19.76-3.99-24.61-6.1-8.55-3.74-15.15-14.19-18.34-22.46l2.36-.89Z"/>
      <path class="cls-39" d="M252.49,221.61c-.09.02-.12.08-.08.16.69.55,1.58,1.64,1.75,2.53.18.88-.4,1.97-.03,2.78-.48-.44-.71-1.41-.97-1.97-.32-.68-.79-1.29-1.25-1.89-.84-1.14-1.81-2.16-2.83-3.16-2.13-2.08-4.75-3.96-7.42-5.28-1.36-.68-3.05-1.97-4.63-1.74,1.15-.3,3.03.78,4.08,1.24,1.16.51,2.38.84,3.52,1.33,2.25.99,4.24,2.89,6.2,4.39l1.67,1.62Z"/>
      <path class="cls-39" d="M218.3,247.28c.22.63-.14,1.84-.23,2.5-.08.72-.06,1.54-.33,2.22.96-.94,1.52.48,2.36.14-.03-.39-.04-.77-.02-1.16l-1.78-3.69Z"/>
      <path class="cls-39" d="M219.24,249.44c-.47-.91-.69-2.4-.83-3.44-.19-1.21-.61-2.34-.72-3.56-.25-2.56-1.13-5.65-2.41-7.88-.39-.65-.68-1.31-1.05-1.96-.27-.48-.48-1.29-.89-1.64.72,2.68,1.36,5.4,2.13,8.13.74,2.6,1.58,5.3,1.95,8,.08.58.05,1.26.17,1.84.13.77.46,1.47.31,2.2l1.33-1.69Z"/>
      <path class="cls-101" d="M284.34,180.79c-4.78,1.82-8.88,4.65-13.38,7.08l13.38-7.08Z"/>
      <path class="cls-101" d="M298.33,168.54c-.46,1.31-2.65,2.8-3.66,3.62-1.29,1.04-2.62,2-3.64,3.34-.8,1.03-1.21,2.29-1.97,3.34l9.26-10.31Z"/>
      <path class="cls-101" d="M264.05,190.82c-1.05.28-1.8,1.11-2.57,1.84-1.63,1.55-3.94,3.11-4.84,5.21l7.41-7.05Z"/>
      <path class="cls-101" d="M260.59,192.96c-.9.79-1.6,1.93-2.43,2.82-.95.99-1.94,1.94-2.98,2.86-2.67,2.35-5.58,4.53-8.69,6.28l14.1-11.96Z"/>
      <path class="cls-101" d="M248.02,204.02c-2.18,1.73-4.57,3.11-6.92,4.48-1.03.6-2.25,1.08-3.35,1.59-1.06.5-2.14,1.06-3.29,1.38-.09-.07-.12-.15-.09-.25.08-.08.16-.12.27-.13l13.38-7.07Z"/>
      <path class="cls-33" d="M307.87,158.34c-.22,1.32-.04,2.68-.3,3.98.45-.13.97-.33,1.41-.07-.71.26-1.24.62-1.88,1.01-.49.31-1.43.51-1.79.99l2.57-5.91Z"/>
      <path class="cls-101" d="M308.16,156.23c-1.17,1.42-1.17,3.83-1.87,5.49-.75,1.8-2.31,2.46-3.82,3.43,1.22-.31,1.8-2.25,2.25-3.25.3-.67.57-1.35.88-2.01.41-.89,1.18-1.67,1.41-2.62l1.15-1.05Z"/>
      <path class="cls-58" d="M4.07,230.08c1.91-.4,5.4,1.92,7.18,2.72,2.38,1.1,4.7,1.86,7.31,2.35,4.61.88,10.88.98,15.18,3.17-6.11-.62-12.4-.56-18.43-1.93-5.85-1.34-10.23-4.56-15.31-7.52l4.07,1.2Z"/>
      <path class="cls-86" d="M96.99,213.64c-.18,2.1-.89,3.96-1.43,5.98-.48,1.79-1.4,3.17-2.17,4.85-1.28,2.8-2.44,5.55-4.89,7.55-1.31,1.09-2.69,1.84-4.39,2.09-.08-.06-.11-.13-.09-.24,1.33-.42,2.26-1.91,3.23-2.86.99-.97,1.95-2.05,2.86-3.1,1.9-2.24,3.18-4.18,4.2-6.96.94-2.57,1.91-5.15,2.1-7.91l.57.6Z"/>
      <path class="cls-60" d="M94.99,224.1c-.11.01-.19.06-.26.13.03.78-.68,2.05-1.08,2.72-.52.87-.86,1.68-1.31,2.59-.83,1.72-2.16,3.93-4.2,4.38l6.85-9.82Z"/>
      <path class="cls-66" d="M207.55,224.02c1.04,1.84,3.23,2.42,4.12,4.06-3.19-1.01-6.14-1.04-9.24-1.67l5.11-2.38Z"/>
      <path class="cls-45" d="M238.86,213.21c.08.04.23-.02.07.09-.83-.37-2.16-.29-3.02-.25-.93.05-1.97.1-2.92.3-.94.18-1.87.55-2.77.89-.75.29-2.22.55-2.74,1.15,3.14-2.58,7.4-5.31,11.21-2.24l.16.07Z"/>
      <path class="cls-45" d="M171.13,220.24c.82.37-.4,2.11-.7,2.82-.44,1.04-.73,2.07-1.15,3.12-.8,2.09-2.82,4.8-5.33,4.53,2.28-1.14,4.34-1.47,3.83-4.59-.31-1.89-1.88-4.07-3.85-4.53,2.04,1.52,4.43.57,6.27-.79l.93-.56Z"/>
      <path class="cls-15" d="M150.34,233.28c2.99-.22,6.46-1.38,9.55-.4-3.24,1.14-6.62,2.21-9.89,1.88l.34-1.48Z"/>
      <path class="cls-79" d="M167.67,215.09c-.88-3.32.85-8.45,1.6-11.81.95-4.32,2.06-8.16,3.62-12.21,1.56-4.05,2.64-8.16,4.01-12.34,1.18-3.64,2.62-10.53,6.34-12.06-8.86-1.26-16.13,12.56-19.01,18.99-3.6,8.02-.92,19.15,1.48,27.29l1.96,2.15Z"/>
      <path class="cls-7" d="M120.55,186.19c-1.02,6.05,9.32,12.49,13.2,16.33,5.17,5.14,10.58,11.29,16.42,15.64-7.28-5.38-15.41-7.46-23.39-11.56-1.86-.95-18.32-10.55-10.69-12.4l4.46-8.02Z"/>
      <path class="cls-80" d="M164.19,204.31c-3.23-5.33.72-15.12,3.14-20.28,2.81-5.98,7.52-10.83,9.76-17.25-5.91,1.44-11.8,3.88-14.64,9.58-1.3,2.61-2.7,5.78-3.03,8.71-.37,3.25-.89,9.29.41,12.25l4.35,6.99Z"/>
      <path class="cls-52" d="M168.34,221.64c8.18-3.17,14.72-13.27,19.26-20.56,5.14-8.23,10.1-19.68,7.27-29.43-1.29,8.49-6.72,18.45-10.58,25.83-1.88,3.58-4.17,7.34-6.69,10.63-1.27,1.65-3.15,3.12-4.29,4.9-1.47,2.29-1.2,4.93-3.55,6.67l-1.42,1.96Z"/>
      <path class="cls-98" d="M150.2,211.85c-1.05-.75-1.83-1.66-2.4-2.79-.74.13-1.5.3-2.08.79.86.4,1.36.85,2.59.84-.52.15-.94.46-1.41.62,1.07.53,2.27,1.48,2.81,2.6l.48-2.07Z"/>
      <path class="cls-98" d="M147.85,213.98c-1.68.36-3.22-.49-4.73.61.13.66.33,1.59.71,2.16l4.02-2.77Z"/>
      <path class="cls-98" d="M140.46,211.09c-.5.27-1.05.44-1.59.51-.84-.88-1.46-1.86-1.86-2.99l3.46,2.49Z"/>
      <path class="cls-98" d="M125.23,184.01c-.69.07-1.53.56-2.1.89.12,1.74,1.22,3.28,2.99,3.19l-.89-4.08Z"/>
      <path class="cls-98" d="M223.09,187.57c-1.84-.78-5.23,1.09-5.65,3.4l5.65-3.4Z"/>
      <path class="cls-16" d="M73.14,139.61c.42,5.9,2.98,11.31,5.6,16.44,1.35,2.66,3.36,5.01,4.69,7.68,1.25,2.52,2.01,5.46,3.91,7.63-5.11-3.86-11.96-8.25-15.43-13.73-2.39-3.75-9.52-15.57-1.34-17.04l2.57-.97Z"/>
      <path class="cls-89" d="M112.75,143.58c-3.59-3.96-13.7-3.76-10.64,3.31,1.41,3.27,3.93,5.83,5.06,9.31.99,3.12,1.03,6.45,1.67,9.65.37,1.8,2.84,7.5.43,8.69-3.08,1.53-5.02-5.11-5.16-6.9-.5-6.92.74-11.51-3.72-17.76-2.03-2.84-5.88-5.73-5.5-9.69.47-5.01,4.79-3.76,8.18-2.01l9.68,5.41Z"/>
      <path class="cls-102" d="M110.03,175.17c-2.1-3.42-4.02-4.26-4.45-8.61-.37-3.84-.23-7.32-1.55-11.06-1.24-3.52-3.34-6.79-5.11-9.9-2.64-4.62-2.03-5.44-1.13-10.17-1.49.26-5.96.31-6.85,1.8-.65,1.11.78,5.67,1.16,7.01,1.27,4.52,4.36,8.07,6.9,11.8,3.04,4.45,2.55,7.25,3,12.35.35,4.02,1.7,8.7,5.89,10.36l2.13-3.59Z"/>
      <path class="cls-88" d="M114.3,143.25c-2.73-1.67-5.61-3.15-8.84-3.42-3.48-.29-6.29,1.33-5.02,5.1,1.03,3.03,3.11,5.72,4.41,8.64,1.36,3.07,3.17,6.19,3.74,9.54.62,3.65.37,6.85,1.75,10.39.99-1.81.41-5.1.42-7.13.01-2.18-.09-4.5-.38-6.66-.38-2.79-1.7-5.32-2.79-7.87-.46-1.07-1.35-2.12-1.61-3.25-.24-1.01-.19-2.45-.15-3.5.04-.96.03-2.98.87-3.57,1.11-.8,3.1-.07,4.05.59l3.55,1.15Z"/>
      <path class="cls-67" d="M112.5,175.63c5.32-4.7,10.44-16.91,7.13-23.49.55,9.61-10.11,15.2-10.95,24.92l3.81-1.44Z"/>
      <path class="cls-76" d="M109.1,177.71c.33-2.95,3.49-7.44,5.96-8.9-.21-2.63,2.48-5.14,3.4-7.68,1.09-2.93.78-5.33,1.01-8.08-3.25,8.43-15.42,18.01-10.46,28.31l.08-3.64Z"/>
      <path class="cls-107" d="M96.5,204.39c4.06-3.32,7.32-12.51,9.69-17.19,2.9-5.68,4.18-12.7,4.46-18.95-2.06,12.54-11.8,22.55-12.48,35.51l-1.67.62Z"/>
      <path class="cls-82" d="M95.55,203.44c.82-4.85-4.73-12.55-6.47-17.2-1.22-3.25-2.42-5.74-4.46-8.47-1.42-1.87-4.09-4.68-3.36-7.35,3.82,11.05,8.81,21.79,12.97,32.86l1.32.15Z"/>
    </g>
  </g>
</svg>