<?xml version="1.0" encoding="UTF-8"?>
<svg id="_圖層_2" data-name="圖層_2" xmlns="http://www.w3.org/2000/svg" viewBox="0 0 68.07 294.13">
  <defs>
    <style>
      .cls-1 {
        fill: #bed1c0;
      }

      .cls-2 {
        fill: #b9d0bd;
      }

      .cls-3 {
        fill: #c2d6c7;
      }

      .cls-4 {
        fill: #b2c9b4;
      }

      .cls-5 {
        fill: #bdcec1;
      }

      .cls-6 {
        fill: #d0ddcf;
      }

      .cls-7 {
        fill: #d6dfd1;
      }

      .cls-8 {
        fill: #becfc4;
      }

      .cls-9 {
        fill: #d3ded0;
      }

      .cls-10 {
        fill: #bdcec3;
      }

      .cls-11 {
        fill: #bed1c3;
      }

      .cls-12 {
        fill: #cbe2d5;
      }

      .cls-13 {
        fill: #bfd3c2;
      }

      .cls-14 {
        fill: #b5caba;
      }

      .cls-15 {
        fill: #bdd3c0;
      }

      .cls-16 {
        fill: #d4e0cf;
      }

      .cls-17 {
        fill: #acc4ab;
      }

      .cls-18 {
        fill: #c0d2c4;
      }

      .cls-19 {
        fill: #d8e5d6;
      }

      .cls-20 {
        fill: #aabaae;
      }

      .cls-21 {
        fill: #e4eedf;
      }
    </style>
  </defs>
  <g id="_圖層_1-2" data-name="圖層_1">
    <g>
      <g>
        <path class="cls-9" d="M61.18,26.2c1.64-3.49,1.14-6.97-1.13-10.76,0,0,0-.01-.01-.02.02.05.04.11.06.16-2.43-1.43-4.51-3.57-6.86-5.07-2.15-1.38-4.64-2.48-7.09-3.26-2.31-.74-4.83-1.26-7.26-1.26-.29,0-.58,0-.88.02-.45.02-.92.04-1.39.04-1.26,0-2.55-.11-3.75-.48l-.03.11,8.49,6.02c1.24.61,2.44,1.3,3.65,2.03,3.15,1.86,16.38,7.42,16.2,12.47ZM44.2,30.31c-.55-1.19-.51-2.51-.54-3.82-.56-1.08-.96-2.29-1.2-3.63-.36-1.98-1.05-3.73-1.52-5.75-.26-1.07-.32-2.21-.66-3.26-.34-1.05-1.04-1.84-1.46-2.81-1.18-.72-2.3-1.53-3.3-2.49-.96-.93-1.81-1.83-2.73-2.7l-.31,1.02c.13.23.25.46.36.7-.07.05-.11.07-.16.07-.12,0-.17-.16-.36-.24l.16-.53c-.04-.07-.08-.14-.12-.2,0,.02-.01.04-.01.06-1.22,5.07,3.61,10.67,5.72,14.92,1.22,2.44,2.1,5.2,4.06,7.17.63.63,1.33,1.12,2.08,1.5Z"/>
        <path class="cls-6" d="M60.1,15.58c-.02-.06-.04-.11-.06-.16-.81-2.42-1.75-4.57-3.3-6.63-3.02-4-6.84-7.26-11.84-8.49-.84-.2-1.63-.3-2.39-.3-3.96,0-6.97,2.53-10.57,4.41l-.14.09c.31.13.61.2.89.2.16,0,.32-.02.46-.07l.23-.77.36.35c-.18.21-.38.34-.6.42l-.29.95c1.2.37,2.49.48,3.75.48.47,0,.94-.02,1.39-.04.29-.02.58-.02.88-.02,2.43,0,4.95.52,7.26,1.26,2.45.78,4.94,1.88,7.09,3.26,2.36,1.5,4.43,3.64,6.86,5.07Z"/>
        <path class="cls-16" d="M57.97,27.99c1.29,0,2.44-.37,3.15-1.61-.2.48-.36.97-.52,1.47.38-.54.56-1.09.58-1.65.18-5.05-13.05-10.61-16.2-12.47-1.21-.72-2.41-1.41-3.65-2.03l3.79,2.69c-2.06-1.13-4.26-2.12-6.29-3.36.43.97,1.13,1.76,1.46,2.81.34,1.05.4,2.19.66,3.26.47,2.02,1.16,3.77,1.52,5.75.24,1.34.65,2.55,1.2,3.63-.01-.62-.04-1.24-.15-1.85l.58.11c1.29.99,2.41,2.02,3.98,2.41.56.14,1.09.18,1.62.18.43,0,.86-.03,1.3-.06.43-.03.86-.06,1.31-.06.15,0,.29,0,.44.01,1.47.06,3.47.75,5.23.75Z"/>
        <path class="cls-19" d="M53.12,34.53c1.82,0,3.6-.57,5.01-1.81,1.46-1.29,1.92-3.1,2.48-4.88.16-.5.32-.99.52-1.47-.71,1.24-1.87,1.61-3.15,1.61-1.76,0-3.77-.68-5.23-.75-.15,0-.3-.01-.44-.01-.45,0-.89.03-1.31.06-.43.03-.86.06-1.3.06-.53,0-1.07-.04-1.62-.18-1.57-.4-2.69-1.42-3.98-2.41l-.58-.11c.11.61.14,1.23.15,1.85.03,1.31-.01,2.63.54,3.82.14.3.32.6.55.89,1.33,1.62,4.24,2.58,6.24,3.07.7.17,1.42.26,2.13.26Z"/>
        <path class="cls-7" d="M29.86,3.19c-.68-.82-1.4-1.62-2.08-2.4.33.54,1.14,1.55,2.08,2.4ZM33.17,4.63c.22-.07.42-.21.6-.42l-.36-.35-.23.77ZM32.48,6.87l.31-1.02c-.43-.4-.88-.8-1.37-1.18l1.42,1.01.03-.11.29-.95c-.15.05-.3.07-.46.07-.28,0-.59-.07-.89-.2-.65-.26-1.32-.76-1.95-1.31.92,1.1,1.79,2.24,2.5,3.48.04.07.08.14.12.2ZM32.68,7.64s.09-.02.16-.07c-.11-.23-.23-.47-.36-.7l-.16.53c.19.08.25.24.36.24Z"/>
        <path class="cls-21" d="M45.12,14.4l-3.79-2.69-8.49-6.02-1.42-1.01c.49.38.94.78,1.37,1.18.93.87,1.77,1.77,2.73,2.7,1,.97,2.12,1.77,3.3,2.49,2.03,1.24,4.23,2.23,6.29,3.36Z"/>
      </g>
      <g>
        <path class="cls-15" d="M29.53,288.83c-5.38,3.83-9.86,3.21-14.85,1.1-2.7-1.15-4.42-2.78-6.33-4.82-1.81-1.94-3.71-3.36-4.82-5.86-2.15-4.86-3.39-9.89-3.52-15.5-.07-2.55.37-4.75,1.25-7.28.53-1.51.91-3.13,1.84-4.54.8-1.23,1.84-1.77,2.92-2.71,1.44-1.25,2.29-3.03,3.91-4.1,2.32-1.52,5.23-1.12,7.71-2.12,4.08-1.65,7.6-5.88,12.08-5.51,3.72.3,6.43,3.33,8.51,5.81,3.89,4.59,6.92,9.9,10.04,15.05l-18.75,30.5Z"/>
        <path class="cls-11" d="M29.36,284.54c-1.25-5,1.21-11.61,1.67-16.91.36-4.1.11-8.46-.14-12.48-.25-4.09-4.44-5.01-8.22-5.1-3.7-.09-8.2-.59-12,.37-2.61.66-5.76,1.9-7.74,3.92.65-2.48,1.13-4.33,3.07-6.34,1.93-2.01,4.06-3.59,6.62-4.68,1.87-.79,3.81-1.13,5.66-2.01,2.07-.98,4-2.56,6.25-2.63,2.92-.1,6.56.49,9.18,1.25,6.91,2.01,8.92,9.47,10.91,15.54l-15.27,29.06Z"/>
        <path class="cls-8" d="M34.84,265.92c-1.52-5.66-.54-11.42-.19-17.42.27-4.59-4.02-4.33-7.81-4.37-4.19-.04-8.56-.49-12.86.66-2.97.79-5.37,2.7-7.63,4.83-1.38-4.65,8.65-8.2,11.96-10.01,5.16-2.81,10.89-6.48,16.6-6.96,2.07-.18,4.73-.15,6.7.12,4.12.58,5.04,7.36,6.06,10.5l-12.84,22.64Z"/>
        <path class="cls-2" d="M62.43,254.88c3.58,8.4,3.38,17.07-2.23,26.3-4.19,6.88-10.66,11.25-18.4,12.52-6.38,1.05-16.09.74-15.58-7.06.49-7.46,6.18-14.51,7.6-21.94.88-4.64.95-9.44,2.86-14.02,1.65-3.93,4.29-5.26,8.21-5.12l17.55,9.33Z"/>
        <path class="cls-13" d="M61.33,260.49c1.41,4.21-.22,9.15-1.57,13.72-.56,1.86-1.32,3.63-2.45,5.32-.73,1.09-1.45,3.14-2.64,3.81-.74-3.51,1.65-8.31-2.08-10.54-3.62-2.16-5.84,4.93-7.85,6.9.23-3.81-1.25-6.62-1.99-10.09-.65-3.01-1.31-6.03-1.91-9.06-.69-3.45-1.01-7.01,2.75-9.8,4.78-3.56,10.93-3.4,14.23.11l3.51,9.64Z"/>
        <path class="cls-17" d="M65.32,254.76c2.46,3.89,3.49,8.42,2.17,13.46-.61,2.35-1.74,4.78-2.69,7.07-1.01,2.45-2.93,4.31-4.68,6.38-2.15,2.56-4.8,4.45-7.22,6.77.77-1.2,1.63-2.34,2.26-3.6.65-1.29.89-2.62,1.46-3.97.96-2.26,2.32-4.3,3.39-6.45.99-1.99,1.97-4.26,2.21-6.34.14-1.15.05-2.34.14-3.45.12-1.65,1.16-4.09.22-5.46l2.71-4.42Z"/>
        <path class="cls-14" d="M35.7,257.17c.04.86-.47,1.96-.75,2.86-.61,1.97-1.01,3.98-1.67,5.94-.86,2.58-1.7,5.08-2.49,7.67-.83,2.73-2.59,6.29-2.51,9.03,3.34-8.26,3.4-17.08,6.88-25.34l.54-.16Z"/>
        <path class="cls-12" d="M40.96,226.82c.11-.54.18-1.11-.24-1.44-.49.61-.66,1.57-1.18,2.23-.53.69-1.6,1.46-2.34,1.99-1.44,1.03-3.34,1.97-4.95,2.63-1.6.66-3.37,1.36-4.83,2.27-1.5.93-3.53,2.34-5.25,2.72,3.15-1.57,6.8-1.49,9.97-3.22,1.63-.89,3.37-1.6,5.03-2.42,1.46-.73,3.19-2.33,4.78-2.76.28-.41,0-.15-.17-.17l-.82-1.83Z"/>
        <path class="cls-1" d="M63.87,250.94c1.87,1.61,1.2,6.22.84,8.62-.35,2.37-1.05,5.8-2.31,8.01-.76-1.72-1.58-4.65-3.25-5.66-1.03-.63-3.82-1.01-5.11-1.04-1.92-.04-3.38,2.45-5.15,2.12-.9-.17-1.3-1.18-1.9-1.7-.68-.59-1.53-1.01-2.25-1.57-3.65-2.84-5.35-8.39-6.36-12.92-.7-3.13.23-8.58-2.71-10.5-1.33-.87-3.56-.33-5.22-.16-1.5.15-3.15.19-4.69.49,2.15-2.1,5.85-2.92,8.36-4.29,1.36-.74,2.54-1.39,3.82-2.27.96-.67,3.28-2,3.61-2.87-.16.05-.3.14-.41.27l22.71,23.46Z"/>
        <path class="cls-5" d="M43.36,249.01c1.38,1.4,1.57,3.87,2.32,5.7,1.19,2.9,2.37,5.7,3.13,8.81.57,2.36,1.08,4.8,1.57,7.2.21,1.05.66,2.67.35,3.65-.95-1.07-.11-4.07-.21-5.45-.34-4.8-2.73-8.98-3.68-13.57l-3.48-6.33Z"/>
        <path class="cls-18" d="M41.13,225c1.27.41,2.14,2.15,3.22,2.94,1.22.89,2.35,1.84,3.48,2.84,1.16,1.02,2.25,2.08,3.44,3.06,1.12.92,2.53,1.54,3.62,2.48,4.83,4.16,9,8.9,11.1,15.1.57,1.68,1.02,3.42,1.12,5.28.12,2.14-.23,4.6.17,6.63-1.82-2.3-3.3-4.82-6.12-5.91-2.68-1.04-5.01-2.08-7.92-2.74-3.65-.82-7.23-3.63-8.06-7.26-.97-4.19-.45-8.46-2.26-12.39-1.38-2.99-2.28-5.95-2.63-9.37.19.15.27.37.24.64l.59-1.32Z"/>
        <path class="cls-3" d="M41.69,226.5c-.8,1.05.24,2.84.23,3.99,0,1.18-.1,2.44-.2,3.63-.21,2.42-1.54,4.85-2.01,7.26-.46,2.39-1.12,4.82-1.75,7.26-.66,2.56-1.51,5.97-2.64,8.32,1.06-3.14,1.81-6.41,2.13-9.54.25-2.38,1.05-4.75,1.47-7.17.38-2.21.69-4.32,1.27-6.5.28-1.05.49-2.1.79-3.14.24-.8.28-2.09.73-2.78-.15.21-.29.42-.4.64l.38-1.98Z"/>
        <path class="cls-5" d="M55.67,244.3c1.37,1.35,2.14,3.91,2.42,5.86.3,2.19.63,4.33.99,6.53.44,2.64.45,5.52.54,8.25.07,2.13-.69,4.67-.09,6.66,1.54-5.67.95-11.24.46-16.65l-4.32-10.64Z"/>
        <path class="cls-10" d="M33.88,232.84c-3.22,2.69-6.26,4.98-9.82,7.16-5.84,3.58-10.34,8.88-14.36,14.09,2.53-2.05,4.48-5.21,6.79-7.59,1.56-1.61,3.23-3.22,4.93-4.66,1.67-1.42,3.41-2.77,5.11-4.15,1.89-1.53,4.55-4.52,6.94-4.53l.4-.32Z"/>
        <path class="cls-4" d="M67.48,264.37c-.52-.65-1.26-1.29-1.43-2.13-1.55,1.35-2.07,4.58-2.73,6.4-.67,1.87-1.34,3.82-2.25,5.65-1.08,2.17-2.23,4.16-3.23,6.31-.95,2.06-1.86,4.23-3.41,6.04,3.72-5.58,6.07-12.78,7-18.91.32-2.09.99-4.08,1.73-6.15.59-1.65,1.88-3.86,1.88-5.52l2.42,8.3Z"/>
        <path class="cls-20" d="M29.23,235.7c-.19.42-.48.94-1.09,1.33.68.18.94.82,1.15,1.47-.19-.61-.46-1.23-.86-1.71.12-.15.25-.31.38-.46-.39-.11-.68-.13-1.16.05.58.97,1.66,1.17,2.54,1.76-2.55,2.03,1.83,4.17,2.62,5.76.57,1.15.17,3.45,1.2,4.14.71-.35.63-.12,1.15-.12-.37.64-.72,1.29-1.05,1.96l-4.87-14.17Z"/>
        <path class="cls-20" d="M36.61,261.16c.49.6,1.21,1.21,1.56,1.89.35.68-.21,1.27.63,1.81.27-.18.62-.22.84-.36-1.43,2.63,3.6,4.8,3.69,7.11l-6.72-10.44Z"/>
        <path class="cls-20" d="M29.95,236.59c.48-.62.75-1.37.59-1.97-1.23,0-2.03,1.46-3.04.69-.5.36-.6.87-.5,1.46l2.95-.18Z"/>
      </g>
    </g>
  </g>
</svg>