<?xml version="1.0" encoding="UTF-8"?>
<svg id="_圖層_2" data-name="圖層_2" xmlns="http://www.w3.org/2000/svg" xmlns:xlink="http://www.w3.org/1999/xlink" viewBox="0 0 169.13 144.79">
  <defs>
    <style>
      .cls-1 {
        fill: url(#_未命名漸層_83);
      }
    </style>
    <linearGradient id="_未命名漸層_83" data-name="未命名漸層 83" x1="-1610.74" y1="-61.75" x2="-1777.34" y2="-208" gradientTransform="translate(1778.22 -174.11) rotate(-12.67)" gradientUnits="userSpaceOnUse">
      <stop offset="0" stop-color="#ebebeb"/>
      <stop offset=".19" stop-color="#ededec"/>
      <stop offset=".41" stop-color="#f4f4f5"/>
      <stop offset=".73" stop-color="#cfd0d0"/>
      <stop offset=".95" stop-color="#eaeaea"/>
    </linearGradient>
  </defs>
  <g id="_圖層_1-2" data-name="圖層_1">
    <path class="cls-1" d="M140.76,143.73c.35-.32.61-.69.8-1.1.52.53,1.47.71,2.16.61,1.42-.22,2.56-1.51,3.55-2.44,1.11-1.03,2.19-2.13,3.01-3.41.87-1.35,1.34-2.82,1.48-4.42.15-1.66.22-3.38.11-5.04-.1-1.55-.48-3.06-1.25-4.41-1.39-2.43-3.72-4.18-6.19-5.39-3.48-1.7-7.33-2.41-10.92-3.84-.12-1.67-.24-3.34-.31-5.01-.03-.6-.09-1.24-.38-1.78-.27-.5-.69-.84-1.17-1.11.83-1.49.88-3.34.83-5-.07-2.08-.26-4.2-.74-6.22-.55-2.28-1.31-4.57-2.17-6.76-.3-.77-.67-1.49-1.07-2.19,2.65.92,4.93,2.74,6.48,5.09.2.3.39.62.56.94.21.39.15.6.11,1.03-.08.73.35,1.44.57,2.12.53,1.61.9,3.31.85,5.01-.05,1.76-.71,3.36-1.03,5.07-.3,1.58-.05,3.15.75,4.55,1.62,2.86,4.73,4.39,7.51,5.9,3.06,1.65,6.31,3.17,9.8,3.56,2.78.31,5.74-.12,8.16-1.58,1.19-.72,2.42-1.74,3.02-3.03.23-.51.3-1.01.24-1.49,1.19,0,2.09-1.19,2.56-2.19.27-.58.45-1.19.4-1.83-.06-.72-.33-1.43-.6-2.09-.28-.68-.6-1.34-.82-2.05-.18-.57-.28-1.16-.46-1.74-.13-.43-.34-.81-.57-1.18-.46-.74-.96-1.44-1.54-2.1-1.51-1.71-3.24-3.25-4.86-4.84,0,0,0,0,0,0,1.27-.58,2.47-1.33,3.56-2.23,2.09-1.72,3.76-3.96,4.83-6.45.54-1.26.99-2.64,1.12-4.02.12-1.23-.08-2.58-1.08-3.41-.27-.22-.59-.41-.93-.56.21-.11.41-.25.58-.43.39-.41.6-.95.68-1.51.17-1.23-.24-2.51-.77-3.61-.56-1.17-1.37-2.25-2.43-3.02-1.07-.79-2.4-1.23-3.73-1.21-.66.01-1.32.14-1.94.41-.62.27-1.19.74-1.88.83-.8.1-1.63-.35-2.39-.56-.7-.19-1.41-.33-2.12-.41-1.45-.17-2.93-.12-4.37.1-2.91.45-5.66,1.6-8.17,3.12-2.46,1.5-4.65,3.38-6.75,5.35-.22.21-.47.41-.69.63-.59-.15-1.17-.3-1.76-.46-1.98-.51-3.96-.9-5.97-1.26-1.93-.34-3.82-.8-5.6-1.65-1.57-.75-3.03-1.75-4.3-2.93-.67-.62-1.27-1.29-1.83-2.01-.58-.75-1.13-1.54-1.79-2.22-1.06-1.09-2.39-1.81-3.7-2.55,2.68-1.84,5.42-3.6,8.23-5.25,1.31-.78,2.64-1.61,4.08-2.14.68-.25,1.4-.42,2.13-.43.66,0,1.13.32,1.64.7.47.35.94.73,1.49.94.75.28,1.54.49,2.32.7,1.47.4,2.96.73,4.45,1.05.71.15,1.38.29,2.11.24.71-.05,1.41-.2,2.11-.33.65-.12,1.29-.2,1.92-.4.66-.22,1.27-.53,1.86-.89,1.24-.76,2.36-1.71,3.46-2.65,1.13-.97,2.22-2.01,3.14-3.19,1.73-2.24,2.79-5.17,2-7.99-.37-1.32-1.06-2.52-1.86-3.63-.41-.57-.86-1.12-1.31-1.65-.45-.52-.92-1.05-1.51-1.42-.7-.44-1.49-.6-2.27-.54.58-1.03.58-2.37.11-3.46-.72-1.65-2.54-2.5-4.19-2.93-3.77-.98-8-.75-11.55.91-3.21,1.5-5.89,4.2-7.06,7.57-.73,2.09-.91,4.32-.89,6.52,0,1,.04,1.97.52,2.87.4.74.94,1.39,1.29,2.16.68,1.51.84,3.22.91,4.85-1.33.3-2.55.95-3.72,1.62-2.74,1.57-5.43,3.24-8.06,4.99-.65.43-1.29.87-1.93,1.31-.04.02-.06.05-.09.08-.08-.05-.17-.1-.25-.15-1.7-1.04-3.34-2.18-5.01-3.25-.69-.44-1.39-.87-2.1-1.28.76-.8,1.38-1.76,1.83-2.69.86-1.78.82-3.78.03-5.58-.8-1.81-2.23-3.24-3.91-4.24-1.81-1.07-3.84-1.71-5.88-2.19-1.42-.33-2.89-.56-4.36-.55.56-.66,1.12-1.32,1.69-1.99.57-.67,1.12-1.47,1.88-1.93.81-.48,1.72-.29,2.56,0,.87.31,1.71.7,2.63.85.93.16,1.89.12,2.83.05.96-.07,1.92-.17,2.87-.29,1.81-.23,3.62-.6,5.32-1.28,2.94-1.19,5.62-3.54,6.3-6.75.41-1.94.01-3.95-.51-5.83-.24-.86-.46-1.76-.83-2.58-.17-.37-.38-.72-.64-1.03-.3-.37-.63-.72-.74-1.21-.2-.94.33-1.91.44-2.83.09-.76-.09-1.48-.53-2.11-.72-1.02-2-1.6-3.22-1.41.1-.59,0-1.16-.61-1.48-1.03-.54-2.03.15-2.96.55-.28.12-.6.23-.91.18-.36-.05-.62-.32-.85-.58-.38-.44-.76-.86-1.23-1.21-1.88-1.41-4.45-1.69-6.67-1.05-2.38.68-4.39,2.25-6.01,4.09-1.65,1.87-2.92,4.12-3.56,6.54-.64,2.39-.63,4.91.24,7.25.49,1.32,1.22,2.54,1.95,3.74.8,1.31,1.6,2.62,2.41,3.93.38.62.76,1.24,1.14,1.85-.02.05-.03.1-.03.15-.69.49-1.22,1.21-1.76,1.84l-2.19,2.58s0,.01-.01.02c-.45.04-.9.11-1.34.2-1.91.42-3.62,1.36-5.28,2.36-.45.27-.89.54-1.33.81-5.58-2.73-11.55-4.76-17.65-5.94-.64-.12-1.29-.24-1.94-.34,1.74-1.58,2.34-4.09,2.66-6.36.19-1.36.35-2.73.47-4.1.69-1.17,1.86-1.95,3.04-2.6,1.38-.75,2.81-1.4,4.12-2.28,2.61-1.76,4.89-4.21,6.04-7.18.64-1.65.83-3.36.77-5.11-.03-.99-.1-1.99-.16-2.98-.06-.98-.08-1.98-.2-2.95-.1-.88-.36-1.7-.88-2.42-.49-.68-1.15-1.24-1.8-1.76-1.49-1.21-3.09-2.29-4.77-3.2-1.54-.83-3.75-1.74-5.44-.78-.87.49-1.51,1.36-1.78,2.32-.19-.32-.44-.62-.73-.89-.86-.79-2.04-1.25-3.21-1.32-2.73-.17-5.09,1.71-6.73,3.71-1.93,2.36-3.25,5.27-3.52,8.32-.23,2.65.4,5.31,1.65,7.65,1.25,2.34,3.05,4.37,5.14,6,1.03.81,2.14,1.48,3.28,2.12,1.14.63,2.36,1.28,3.27,2.23.44.46.78.98,1.01,1.57.02.06.06.11.1.14-.02.25-.05.51-.07.76-.27,2.58-.44,5.6-2.02,7.77-.34.47-.75.87-1.22,1.2-2.37-.33-4.77-.49-7.17-.42-3.26.1-6.49.58-9.7,1.09-3.22.51-6.45,1.04-9.71,1.24-2.96.18-5.92.09-8.87-.04-5.76-.24-11.65-.67-17.34.55-1.38.3-2.74.69-4.05,1.2-.48.18-.96.46-1.46.65.21.2.4.38.56.54.28-.13.56-.26.83-.37.64-.26,1.29-.49,1.96-.7,5.57-1.73,11.52-1.49,17.28-1.24,2.92.13,5.84.27,8.76.22,3.12-.05,6.21-.42,9.3-.89,2.12-.32,4.24-.68,6.37-.97-.26.3-.47.64-.57,1.02-.16.61.01,1.23.45,1.68.08.08.16.15.24.21,0,0,0,0,0,0-.14,1.2-.72,2.26-1.41,3.23-.71,1-1.49,1.96-2.22,2.95-1.47,2.02-2.85,4.12-4.11,6.27-.45.77-1.02,1.6-.91,2.53.04.34.2.66.48.85.45.31,1.01.18,1.51.11,2.1-.3,4.2-.64,6.24-1.23,2.2-.64,4.3-1.59,6.08-3.04.28.11.58.19.9.23,1.66.2,3.24-.61,4.44-1.69,1.23-1.11,2.36-2.47,3.17-3.92.75-1.35,1.17-2.89.91-4.43-.25-1.45-1.07-2.68-2.4-3.36-1.48-.75-3.32-.85-4.94-.69-.94.1-1.87.31-2.75.64-.89.33-1.7.86-2.61,1.14-.73.23-1.7.21-2.21-.47-.61-.82.3-1.7.9-2.22.71-.09,1.42-.17,2.13-.23,3.36-.3,6.7-.21,10.04.27,4.8.69,9.53,1.98,14.08,3.71,0,.02,0,.05,0,.07.33,1.82,1.41,3.3,2.79,4.49-.63,2.28-1.25,4.55-1.88,6.83-.56,2.04-1.26,4.12-.79,6.25.74,3.41,3.73,6.08,6.99,7.07,2.13.65,4.39.71,6.59.43,2.16-.27,4.33-.84,6.36-1.61,1.62-.62,3.33-1.6,3.94-3.33.57-1.63.03-3.43-.97-4.77.66.2,1.35.25,2.06.04.42,2.37.37,4.79.54,7.19.09,1.31.28,2.6.59,3.85-.02.02-.04.05-.06.07-.38.49-.62,1.12-.91,1.66-.33.61-.66,1.23-.98,1.84-.66,1.23-1.31,2.46-1.97,3.69-1.24,2.32-2.64,4.64-3.29,7.21-.62,2.43-.27,4.89.65,7.19,1.54,3.83,4.61,7.01,8.35,8.74,1.9.88,4.02,1.4,6.13,1.36,2.11-.04,4.4-.79,5.7-2.56.45-.61.7-1.29.78-2.02.21.12.46.18.74.19.54,0,1.1-.19,1.61-.37.45-.16.88-.36,1.27-.63.38-.26.71-.61.93-1.02.29-.56.28-1.17.35-1.78.25-2.11,1.85-3.75,2.8-5.56.52-1,.83-2.05.82-3.18-.01-1.25-.24-2.51-.46-3.73-.2-1.14-.48-2.29-.97-3.34-.49-1.06-1.2-1.96-2.04-2.75-3.44-3.2-8.25-4.62-12.82-5.12-1.19-.13-2.39-.2-3.59-.23-.6-.01-1.19-.01-1.79,0-.21,0-.41,0-.61.04-.06-.24-.11-.47-.16-.71-.46-2.33-.42-4.72-.56-7.08-.06-1.08-.17-2.15-.37-3.21.46-.23.9-.54,1.3-.89,2.79,1.59,5.35,3.53,8.13,5.14,1.33.77,2.72,1.48,3.78,2.63,1,1.1,1.79,2.36,2.83,3.44,1.78,1.84,3.95,3.3,6.33,4.23.01.04.03.07.05.11,1.32,1.87,2.65,3.73,3.98,5.59,1.34,1.88,2.85,3.75,3.82,5.86.47,1.03.83,2.1,1.2,3.18.38,1.1.75,2.21,1.06,3.34.55,1.99.8,4.01.95,6.06.14,1.93.28,4.31-.85,6-.13.2-.07.46.15.56.55.25,1.04.58,1.27,1.16.22.54.21,1.16.23,1.74.04,1.62.19,3.24.32,4.86-.02.05-.03.12-.03.19,0,.06.02.12.02.19-1.86,1.92-3.72,3.85-5.58,5.77-.91.95-1.89,1.87-2.61,2.99-.71,1.11-1.05,2.37-1.26,3.66-.36,2.22-.73,4.63-.2,6.84.25,1.07.73,2.07,1.48,2.89.85.92,1.92,1.59,2.95,2.28,1.2.79,2.4,1.59,3.6,2.38,1.14.75,2.26,1.56,3.48,2.17,1.89.94,4.4,1.29,6.09-.25ZM121.33,52.52c-.26-.8-.67-1.51-1.13-2.2-.35-.52-.68-1.05-.8-1.67-.13-.62-.11-1.27-.11-1.9,0-1.01.05-2.03.18-3.03.24-1.88.8-3.71,1.82-5.31.9-1.42,2.09-2.63,3.47-3.59,3.01-2.12,6.8-2.87,10.43-2.53,1.92.18,4.14.55,5.61,1.9,1.18,1.08,1.58,3.28.28,4.45,0,0,0,0-.01.01-.16.05-.33.11-.49.18-1.33.57-2.38,1.63-3.41,2.62-4.64,4.43-9.13,9.02-13.75,13.48-.48.46-.96.93-1.45,1.39-.08-1.28-.24-2.56-.64-3.78ZM123.24,56.83c-.22-.05-.45-.07-.69-.07,4.31-4.12,8.49-8.37,12.76-12.52,1.11-1.08,2.21-2.18,3.36-3.22,1.03-.93,2.22-1.82,3.65-1.89,1.52-.07,2.48,1.03,3.37,2.11.87,1.06,1.7,2.17,2.27,3.42.58,1.27.81,2.64.61,4.03-.21,1.43-.82,2.78-1.64,3.96-.83,1.2-1.85,2.24-2.94,3.21-1.04.93-2.12,1.84-3.27,2.63-.58.4-1.18.75-1.83,1.03-.64.27-1.29.39-1.97.5-.66.11-1.3.26-1.96.34-.73.09-1.37.02-2.08-.13-1.48-.32-2.96-.64-4.42-1.03-.73-.2-1.45-.41-2.16-.64-.61-.2-1.07-.53-1.58-.91-.45-.34-.92-.69-1.48-.82ZM86.97,32.75c-.62-1.12-1.14-2.29-1.41-3.54-.24-1.15-.28-2.34-.14-3.51.28-2.36,1.24-4.62,2.6-6.57,1.34-1.93,3.12-3.69,5.24-4.74,2.04-1.01,4.46-1.26,6.57-.3.52.24,1,.55,1.42.93.41.37.71.83,1.13,1.19,1,.87,2.1.24,3.1-.25.39-.19.91-.33,1.34-.17.63.23.29,1.01.13,1.46-.42,1.13-1.09,2.14-1.85,3.07-1.61,1.98-3.5,3.7-5.09,5.7-1.62,2.05-3.04,4.26-4.25,6.57-1.13,2.17-2.09,4.46-3.62,6.39-.26.32-.53.63-.82.93-1.46-2.38-3.01-4.73-4.36-7.17ZM96.16,41.11c-1.3-.35-2.65-1.16-3.99-1.03,1.46-1.62,2.46-3.59,3.43-5.54,1.23-2.48,2.59-4.87,4.25-7.1.83-1.12,1.73-2.21,2.67-3.24.9-.98,1.86-1.92,2.73-2.93.83-.96,1.59-1.99,2.13-3.14.09-.2.19-.42.28-.66,1.16-.4,2.51.29,3.04,1.36.71,1.44-.58,2.93-.21,4.42.19.78.84,1.27,1.22,1.94.44.77.65,1.68.89,2.53.51,1.8.93,3.69.62,5.56-.55,3.25-3.38,5.53-6.32,6.61-1.66.61-3.41.92-5.17,1.13-1.8.21-3.8.56-5.58.08ZM63.6.98c.71-.34,1.57-.26,2.31-.09.89.2,1.72.61,2.51,1.05,1.58.87,3.08,1.9,4.48,3.04.64.52,1.28,1.05,1.74,1.74.49.74.63,1.6.7,2.47.14,1.85.28,3.73.32,5.59.04,1.65-.19,3.26-.82,4.8-1.15,2.8-3.34,5.07-5.83,6.73-2.04,1.36-4.8,2.18-6.49,4.03.11-1.59.18-3.19.2-4.78.05-3.44-.1-6.88-.46-10.3-.18-1.71-.48-3.41-.62-5.13-.07-.85-.08-1.7.01-2.55.09-.81.27-1.6.29-2.42,0-.28,0-.55-.04-.81.04-.06.07-.15.05-.25-.17-1.21.53-2.59,1.64-3.13ZM56.72,27.21c-2.2-1.28-4.18-2.97-5.74-4.99-1.52-1.96-2.63-4.27-3-6.74-.43-2.86.23-5.76,1.59-8.29,1.27-2.35,3.26-4.8,5.87-5.68,2.08-.7,5.03.04,5.67,2.41.4,1.5-.21,3.12-.24,4.63-.03,1.59.23,3.16.43,4.73.43,3.27.67,6.56.71,9.85.03,2.61-.06,5.21-.27,7.81-1.13-1.78-3.23-2.71-5.01-3.75ZM39.56,60.85c-.47.07-.94.14-1.41.2-.46.06-.9.09-.91-.47,0-.35.12-.71.28-1.03.26-.53.59-1.03.89-1.54,1.21-2.01,2.51-3.97,3.9-5.86,1.01-1.38,2.28-2.75,3.02-4.34.34,2.53,1.26,4.96,2.71,7.07.57.83,1.24,1.66,2.08,2.2-3.01,2.35-6.86,3.19-10.57,3.75ZM48.71,45.71c.73-.34,1.44-.7,2.21-.95.8-.25,1.62-.4,2.46-.46,1.57-.11,3.46.04,4.76,1.02,1.14.86,1.57,2.36,1.46,3.74-.14,1.63-1.02,3.09-2.01,4.35-.99,1.25-2.13,2.57-3.62,3.21-.75.32-1.58.47-2.39.31-.2-.04-.4-.1-.58-.18-.05-.04-.1-.06-.16-.07-.49-.25-.91-.61-1.28-1.02-2.29-2.54-3.54-6.11-3.64-9.51.9.26,1.93-.03,2.8-.43ZM112.42,99.6c.08,2.14-1.85,3.61-3.73,4.13-1.99.55-4.18.28-6.12-.34-3.71-1.17-6.94-3.83-8.85-7.22-1.05-1.86-1.82-4.02-1.81-6.18,0-2.5,1.1-4.81,2.24-6.97,1.2-2.29,2.43-4.56,3.64-6.84.28-.52.55-1.04.83-1.56.12-.23.24-.46.37-.69.21.69.45,1.38.74,2.06,1.78,4.22,4.67,7.83,6.98,11.77,1.33,2.28,2.48,4.66,3.56,7.07.54,1.2,1.06,2.42,1.59,3.63.16.37.34.75.59,1.08,0,.02,0,.04,0,.07ZM115.79,77.04c.92.61,1.81,1.3,2.54,2.13.74.83,1.26,1.8,1.61,2.85.35,1.05.53,2.15.69,3.24.18,1.24.43,2.53.16,3.77-.42,1.91-1.84,3.41-2.73,5.1-.47.89-.73,1.79-.81,2.79-.05.56-.13,1.07-.53,1.49-.32.34-.74.57-1.17.75-.46.19-.97.39-1.47.44-.59.07-.96-.27-1.25-.75-.27-.46-.46-.98-.67-1.47-.26-.61-.53-1.21-.79-1.82-.98-2.23-2-4.44-3.17-6.59-2.08-3.84-4.79-7.3-6.83-11.17-.75-1.43-1.4-2.92-1.84-4.47.1,0,.19,0,.27,0,1.1-.03,2.21,0,3.31.06,4.41.24,8.94,1.17,12.66,3.65ZM74.18,48.76c-.42-.61-.72-1.28-.89-1.99,1.1.43,2.18.89,3.26,1.37.53.24,1.05.48,1.57.73-.17.1-.34.2-.51.29-.43.24-.87.48-1.31.69-.21.1-.45.17-.64.29-.06.04-.1.08-.14.13-.5-.46-.96-.95-1.34-1.52ZM94.94,62.32c.67.89,1.13,2.03,1.06,3.16-.07,1.11-.68,2.04-1.55,2.7-.85.64-1.86,1.05-2.86,1.38-1.27.43-2.57.79-3.89,1.05-2.59.51-5.33.65-7.88-.13-1.99-.61-3.8-1.84-5.07-3.5-1.36-1.79-1.83-3.89-1.39-6.08.28-1.4.72-2.77,1.1-4.15.37-1.35.74-2.71,1.12-4.06.11-.39.21-.77.32-1.16,1.65,1.27,3.53,2.26,5.34,3.26,2.43,1.33,4.91,2.57,7.44,3.7,1.31.58,2.74,1.12,4,1.89.02.02.04.04.07.06.2.13.4.26.61.39.59.42,1.13.91,1.57,1.5ZM97.84,61.04c-.11,0-.22.04-.29.13-.03.01-.05.02-.08.03-1.37.5-2.69-.32-3.84-1.07-1.11-.76-2.37-1.31-3.59-1.84-2.17-.95-4.31-1.96-6.41-3.05-1.88-.97-3.74-1.99-5.54-3.1-.68-.42-1.36-.87-1.99-1.38,0,0,0-.02,0-.02,2.48-1.11,4.64-2.82,7.11-3.95,1.33-.61,2.73-.99,4.2-1.06,1.62-.07,3.24.2,4.81.57,2.8.67,5.82,1.71,7.78,3.94.88,1.01,1.54,2.24,1.77,3.57.26,1.49-.13,2.92-.92,4.2-.74,1.19-1.72,2.41-3.02,3.02ZM164.56,112.73c.77,1.5-.53,2.91-1.63,3.81-2.15,1.77-5.06,2.43-7.8,2.3-3.34-.16-6.51-1.48-9.44-2.99-1.52-.78-3.03-1.59-4.48-2.5-1.33-.84-2.59-1.84-3.49-3.15-.88-1.29-1.27-2.78-1.03-4.33.26-1.7.97-3.29,1.07-5.02.1-1.61-.15-3.22-.59-4.76-.22-.77-.5-1.51-.77-2.27-.06-.18-.06-.34-.04-.51,4.8,4.57,10.21,8.4,16.06,11.52,2.94,1.57,5.93,3.06,8.7,4.91.69.46,1.37.94,2.03,1.46.54.43,1.09.91,1.41,1.54ZM159.03,95.83c1.32,1.3,2.67,2.58,3.97,3.89,1.03,1.04,2.07,2.2,2.71,3.53.43.89.5,1.92.86,2.84.25.65.55,1.28.8,1.93.22.59.45,1.25.37,1.89-.15,1.06-1.15,2.92-2.43,2.74-.23-.56-.63-1.07-1.1-1.52-1.19-1.12-2.64-2.02-4.03-2.87-1.45-.89-2.94-1.71-4.44-2.51-3.06-1.63-6.12-3.22-9.01-5.14-2.92-1.94-5.69-4.09-8.3-6.42-.6-.54-1.2-1.09-1.79-1.65.29-.36.73-.6,1.13-.79.52-.24,1.07-.41,1.64-.44,2.16,2.12,4.75,3.78,7.69,4.75,3.87,1.29,8.12,1.12,11.85-.4.01.06.04.12.1.17ZM167.24,79.61c.77.47,1.09,1.2,1.15,2.08.07.94-.15,1.9-.41,2.8-.25.86-.57,1.7-.95,2.51-1.58,3.33-4.3,6.09-7.64,7.66-3.46,1.63-7.47,2.01-11.17.99-3.69-1.01-7.08-3.22-9.56-6.13-2.49-2.93-4.14-6.52-5-10.25,2.4.58,4.8,1.08,7.27,1.33,3.3.33,6.64.34,9.95.16,3.39-.18,6.76-.56,10.13-1.01,1.51-.2,3.03-.38,4.54-.62.58-.02,1.19.18,1.68.48ZM141.86,72.49c3.21-1.79,6.89-2.91,10.59-2.63.93.07,1.86.23,2.75.49.89.26,1.8.71,2.75.48.78-.19,1.41-.72,2.17-.97.82-.27,1.72-.27,2.57-.08,1.68.38,3.04,1.59,3.89,3.06.71,1.22,1.49,3.07.86,4.47-.36.81-1.2.98-1.99,1.09-.11,0-.22.02-.32.04-.02,0-.04,0-.05.01-.94.13-1.89.27-2.83.4-2.06.28-4.12.55-6.19.76-4.13.43-8.3.68-12.45.46-2.03-.11-4.05-.32-6.05-.67-1.21-.21-2.41-.49-3.6-.79,2.43-2.29,4.97-4.49,7.91-6.12ZM127.99,85.4c-.66-1.04-1.39-2.04-2.1-3.05-1.36-1.92-2.74-3.82-4.09-5.74,1.42.44,2.89.7,4.36.95,1.69.29,3.35.65,5,1.08.58.15,1.15.3,1.73.44.02.09.05.19.07.29.15.65.32,1.28.51,1.92.39,1.29.88,2.55,1.46,3.77.99,2.05,2.28,3.95,3.82,5.59-.92.16-1.94.6-2.56,1.28-1.34-2.47-3.43-4.52-5.96-5.77-.63-.31-1.29-.57-1.97-.77-.1-.03-.19-.02-.27.02ZM133.58,115.24s.07-.07.1-.11c5.22,1.98,11.4,2.73,15.21,7.19.84.98,1.5,2.1,1.86,3.34.44,1.49.46,3.06.41,4.6-.05,1.56-.04,3.2-.53,4.7-.44,1.34-1.23,2.51-2.15,3.55-1.02,1.16-2.19,2.27-3.4,3.23-.56.45-1.22.84-1.97.77-.51-.04-1.19-.26-1.23-.86,0-.07-.02-.12-.05-.16.02-.22.03-.45.01-.68-.08-1.28-.69-2.42-1.31-3.51-.65-1.13-1.2-2.25-1.52-3.52-.3-1.21-.45-2.46-.63-3.69-.36-2.43-1.11-4.69-2.08-6.95-.94-2.19-1.98-4.37-2.53-6.7-.08-.35-.15-.71-.21-1.06,0-.05,0-.1-.01-.15ZM136.61,143.95c-1.25-.29-2.37-.98-3.43-1.67-1.15-.75-2.28-1.51-3.43-2.27-1.08-.71-2.17-1.4-3.22-2.15-.94-.68-1.77-1.47-2.26-2.53-.91-1.97-.67-4.27-.4-6.35.16-1.22.3-2.47.75-3.63.45-1.17,1.26-2.12,2.12-3.02,1.87-1.96,3.76-3.9,5.64-5.85.19-.19.37-.39.56-.58.78,4.09,3.16,7.68,4.22,11.69.6,2.27.65,4.64,1.3,6.9.35,1.19.91,2.24,1.52,3.31.6,1.05,1.2,2.21,1.15,3.46-.09,2.31-2.59,3.14-4.54,2.68Z"/>
  </g>
</svg>