<?xml version="1.0" encoding="UTF-8"?>
<svg id="_圖層_2" data-name="圖層_2" xmlns="http://www.w3.org/2000/svg" xmlns:xlink="http://www.w3.org/1999/xlink" viewBox="0 0 182.17 124.05">
  <defs>
    <style>
      .cls-1 {
        fill: url(#_未命名漸層_83);
      }
    </style>
    <linearGradient id="_未命名漸層_83" data-name="未命名漸層 83" x1="8561.42" y1="-9841.89" x2="8587.96" y2="-10042.32" gradientTransform="translate(-7139.9 -10894.48) rotate(105.8)" gradientUnits="userSpaceOnUse">
      <stop offset="0" stop-color="#ebebeb"/>
      <stop offset=".19" stop-color="#ededec"/>
      <stop offset=".41" stop-color="#f4f4f5"/>
      <stop offset=".73" stop-color="#cfd0d0"/>
      <stop offset=".95" stop-color="#eaeaea"/>
    </linearGradient>
  </defs>
  <g id="_圖層_1-2" data-name="圖層_1">
    <path class="cls-1" d="M65.05,115.51c1.89.71,4.29,1.54,6.32.58.44-.21.82-.51,1.15-.88.45-.52.8-.99,1.52-.97.1,0,.19-.03.26-.07.64.42,1.34.76,2.09.92,1.08.23,2.16.02,3.07-.68.96-.74,1.58-1.86,2.1-2.93,1.31-2.69,2.44-5.48,3.38-8.32.42-1.26.79-2.55.97-3.87.18-1.34.09-2.69-.17-3.99-.26-1.31-.64-2.6-1.03-3.87-.36-1.17-.76-2.34-1.42-3.36-1.54-2.4-4.27-3.16-6.72-4.3-2.47-1.15-4.76-2.78-7.45-3.43-1.61-.39-3.34-.44-4.92.1-.9-2.94-1.85-5.86-2.93-8.74-.37-.98-.74-1.95-1.12-2.92,2.14,1.05,4.44,1.83,6.78,2.23,2.7.46,5.65.34,8.09,1.68,1.34.74,2.46,1.8,3.71,2.68,1.25.88,2.63,1.45,4.1,1.87,1.52.44,3.08.79,4.62,1.17,1.46.36,2.92.8,4.43,1,1.19.16,2.4,0,3.6.01-.01.06,0,.12,0,.19.62,2.61,1.35,5.13,3.26,7.05.99.99,2.1,1.85,3.09,2.84.72.72,1.39,1.48,2.05,2.26-.77.76-1.46,1.59-2.14,2.43-.9,1.12-1.84,2.22-2.75,3.34-1.7,2.07-3.26,4.41-3.3,7.16-.04,2.54.79,5.16,1.72,7.45,1.91,4.67,5.31,8.78,10.13,10.42,1.32.45,2.7.73,4.09.96,1.34.22,2.71.48,4.08.54,2.67.12,5.11-1.1,7.26-2.73,1.1-.84,2.09-1.8,2.98-2.87.08-.09.11-.19.1-.28.14,0,.27,0,.41,0,2.77-.28,3.55-3.64,4.1-5.87.65-2.66,1.11-5.38,1.15-8.11.07-5.09-1.39-10.26-4.99-13.77-1.05-1.02-2.14-1.99-3.2-3.01-.12-.12-.25-.23-.38-.34,1.12-.29,2.22-.62,3.3-1.02.59-.22,1.17-.46,1.74-.74.03.03.07.06.12.09,1.48.68,2.94,1.39,4.39,2.13-.48,1.66-.32,3.74.61,5.14.54.81,1.7,1.47,1.7,2.57,0,.31,0,.55-.29.41-.28-.14-.52-.37-.78-.54-.5-.31-1.17-.43-1.56.17-.25.39-.2.87-.18,1.3.02.66.05,1.32.07,1.99.08,2.25-.08,4.66,1.05,6.64,1.11,1.94,2.84,3.56,4.46,5.05,1.68,1.56,3.46,3.21,5.65,4.01,1.97.72,4.14.77,6.24.62,1.97-.14,3.94-.44,5.86-1.02,2.12-.64,4.16-1.6,5.93-2.99,1.51-1.19,3.41-3.06,2.91-5.16.99-.02,1.98-.11,2.96-.22,1.17-.12,2.32-.37,3.41-.87,1.09-.49,2.08-1.17,3.07-1.85,1.94-1.34,3.95-2.76,5.32-4.74.65-.94,1.09-1.98,1.29-3.1.23-.17.42-.42.57-.69,2.1-3.78,1.23-8.58-.86-11.95-1.22-1.97-2.82-3.63-4.6-5.08-1.81-1.48-3.85-2.92-6.21-3.35-4.5-.82-8.7,1.86-12.53,4.05-.83.47-1.67.93-2.53,1.34-1.44-1.31-3.36-1.38-5.25-1.02-1.04-1.04-2.08-2.07-3.16-3.06-.61-.57-1.23-1.12-1.87-1.65.27-.08.54-.17.8-.26,2.97-1.02,6.05-2.54,8.34-4.8,1.12-1.11,2.05-2.46,2.33-4.03.15-.84.02-1.67.04-2.52.02-.77.24-1.52.67-2.18.43-.66,1.03-1.21,1.73-1.55.29-.14.58-.23.85-.35.02.01.05.03.08.04,3.15,1.12,6.6,1.58,9.97.96,3.26-.6,6.42-2.27,8.65-4.86,2.51-2.91,3.38-6.68,4.06-10.33.15-.81.36-1.65.27-2.48-.09-.79-.7-1.43-.66-2.24.04-.78.24-1.44-.16-2.15-.33-.58-.89-1-1.52-1.21-1.5-.51-3.16.27-4.52.96-1.48.75-2.89,1.67-4.2,2.71-2.7,2.14-4.99,4.8-6.88,7.68-1.94,2.96-3.38,6.12-4.69,9.39-.23.57-.5.67-1.04.86-.38.13-.75.3-1.09.52-.64.42-1.2.98-1.61,1.64-.41.66-.68,1.4-.76,2.16-.09.87.08,1.74-.02,2.61-.2,1.73-1.4,3.17-2.68,4.27-1.29,1.12-2.78,2.02-4.29,2.77-3.07,1.52-6.44,2.42-9.79,2.66-.8.06-1.61.07-2.41.05.02-.41-.03-.83-.11-1.24-.25-1.22-1.04-2.22-1.72-3.22-1.43-2.1-3.08-4.19-5.43-5.27-1.22-.56-2.53-.65-3.84-.89-1.34-.24-2.53-.82-3.59-1.66-.48-.38-.94-.8-1.52-1.02-.53-.2-1.11-.18-1.68-.15-1.1.07-2.19.24-3.27.51-1.22.3-2.42.72-3.57,1.25.92-1.36,1.43-2.86,1.4-4.56-.03-2.01-.4-3.97-.32-6,.04-.95.14-1.91.28-2.86.03-.05.04-.11.05-.18.06-.87,0-1.72-.06-2.58-.07-.92.02-1.83.06-2.75.07-1.68-.03-3.47-.98-4.86-1.16-1.69-3.35-2.2-5.2-2.8-1.86-.6-3.73-1.17-5.65-1.57-1.88-.39-3.81-.62-5.75-.52-2.02.1-4.01.57-5.95,1.21-1.86.62-3.74,1.38-5.24,2.74-1.6,1.46-2.49,3.5-3.39,5.43-.81,1.74-1.57,3.53-1.91,5.42-.16.91-.21,1.82-.12,2.73.1,1.01.39,1.97.61,2.94.31,1.33.28,2.71.42,4.06-.56.17-1.1.42-1.55.8-.63.54-.94,1.32-1.28,2.06-1.67,3.63-4.18,6.85-7.24,9.4-.03.03-.06.05-.08.08-.07,0-.14-.02-.22-.02-3.36-.39-6.62-1.48-9.54-3.14-.02-.01-.04-.02-.07-.03-1.9-1.91-3.84-3.79-6.01-5.38-2.42-1.77-5.15-3.03-7.63-4.69-3.06-2.04-5.79-4.5-8.36-7.13.93-.09,1.84-.61,2.55-1.25,1.41-1.27,2.05-3.06,2.75-4.77.41-1.01.87-2,1.34-2.98.47.48,1.19.67,1.89.79,1.22.21,2.45.41,3.68.56,2.37.3,4.79.42,7.19.02,4.8-.79,9-3.78,12.41-7.27.85-.88,1.91-1.84,2.26-3.05.33-1.18,0-2.38-.24-3.52-.57-2.63-1.09-5.28-1.76-7.89-1.17-4.58-2.95-9.17-6.57-12.23-1.77-1.5-3.9-2.58-6.22-2.94-1.13-.18-2.3-.16-3.44.07-1.2.24-2.51.9-3.68.37-.15-.07-.27-.04-.37.04-.32-.28-.69-.51-1.11-.68-3.22-1.28-6.35,1.28-8.41,3.66-2.63,3.04-4.95,6.35-6.91,9.86-.94,1.68-1.95,3.45-2.58,5.28-.6,1.73-.32,3.46.02,5.18.65,3.23,1.86,6.48,4.17,8.81,2,2.02,4.86,3.28,7.78,2.97.34-.04.68-.1,1.01-.18-.67,1.42-1.27,2.86-1.88,4.31-.63,1.48-1.49,2.95-2.97,3.68-.58.29-1.19.4-1.79.19-.03-.01-.07-.02-.1-.02-1.09-1.15-2.15-2.32-3.19-3.5-3.77-4.24-7.42-8.63-11.65-12.42-1.08-.97-2.3-1.82-3.27-2.9-.98-1.09-1.56-2.5-2.2-3.82-1.36-2.8-2.71-5.6-4.07-8.4C8.75,11.86,5.97,5.63,2.07.16c-.32-.45-.99.15-.67.6,3.49,4.9,6.03,10.43,8.66,15.86,1.36,2.8,2.71,5.6,4.07,8.4.66,1.37,1.28,2.78,2.02,4.1.24.42.5.81.79,1.17-.63.94-1.39,1.79-2.01,2.74-.71,1.09-1.1,2.37-1.46,3.6-.6,2.02-.85,4.08-.83,6.14-.92.31-1.74.99-2.53,1.54-2.31,1.61-4.53,3.4-6.38,5.55-1.68,1.95-3.33,4.37-3.67,6.96-.33,2.47.73,4.96,1.49,7.21.84,2.47,1.87,4.88,3.54,6.87,1.66,1.98,3.81,3.48,6.1,4.63,1.16.58,2.36,1.09,3.59,1.53,1.01.36,2.03.68,3.11.8,1.05.11,2.11-.01,3.08-.49.18-.09.25-.24.25-.39.63.46,1.39.61,2.26.15.49-.26.9-.69,1.3-1.08.47-.47.92-.97,1.35-1.48.84-1.01,1.6-2.09,2.26-3.23,2.53-4.36,3.6-9.44,2.97-14.34-.29-2.29-.95-4.52-1.92-6.58-1.02-2.15-2.41-4.43-4.45-5.7-2.24-1.38-5.06-1.75-7.66-1.95-1.25-.1-2.56-.26-3.83-.17,0-.76.02-1.52.1-2.29.13-1.29.41-2.55.8-3.79.36-1.15.73-2.28,1.42-3.29.54-.78,1.16-1.51,1.7-2.28.43.45.9.87,1.4,1.29,8.75,7.29,14.89,17.32,24,24.2,2.65,2,5.61,3.45,8.38,5.25,2.9,1.89,5.35,4.35,7.78,6.8,1.03,2.64,2.05,5.29,2.96,7.97.48,1.42.93,2.85,1.36,4.28-.3.14-.58.31-.86.5-1.15.79-2.12,1.75-3.37,2.39-1.21.61-2.41,1.16-3.47,2.04-2.05,1.7-3.43,4.09-4.51,6.49-1.03,2.27-1.9,4.78-1.53,7.26.38,2.51,1.86,4.85,3.3,6.83,1.51,2.09,3.34,3.94,5.37,5.51,2.04,1.56,4.3,2.83,6.71,3.73ZM159.8,56.94c.37-.73.6-1.54.91-2.29.33-.79.68-1.56,1.04-2.33,2.89-6.01,7.23-11.67,13.16-14.82,1.28-.68,3.07-1.68,4.48-.99.66.32,1.04.92.94,1.68-.1.8-.11,1.38.23,2.11.36.78.4,1.43.26,2.29-.16.93-.34,1.86-.53,2.78-.38,1.8-.87,3.6-1.68,5.27-1.51,3.11-4.24,5.4-7.4,6.6-3.16,1.2-6.63,1.21-9.81.45-.6-.14-1.18-.31-1.77-.51.06-.08.12-.17.17-.27ZM90,78.11c3.06-1.2,6.13-2.6,9.32-3.16-.27,1.6.02,3.15.71,4.59-.74-.32-1.51-.57-2.3-.75-1.32-.3-2.61-.27-3.96-.22-1.31.05-2.53-.17-3.77-.46ZM102.36,88.75c-.95-.94-2.02-1.76-2.96-2.71-.88-.89-1.55-1.91-2.03-3.08-.45-1.13-.74-2.32-1.02-3.5.08,0,.16.02.23.03,1.47.2,2.93.69,4.19,1.44.03.02.06.03.08.04,1.09,1.68,2.49,3.25,3.96,4.56.93.83,1.98,1.54,3.19,1.89,1.13.32,2.3.22,3.47.23-2.41.64-4.77,1.69-6.73,3.32-.06.05-.13.11-.19.16-.69-.82-1.41-1.62-2.17-2.38ZM123.14,116.8c.6.48,1.29.96,2.05,1.2-1.7,2.01-3.93,3.78-6.38,4.69-1.25.46-2.51.53-3.79.4-1.31-.13-2.63-.35-3.92-.58-2.52-.46-4.91-1.23-6.97-2.75-1.85-1.37-3.36-3.18-4.53-5.18-1.21-2.08-2.08-4.36-2.62-6.73-.27-1.18-.49-2.4-.4-3.64.1-1.32.6-2.57,1.29-3.71.66-1.09,1.46-2.08,2.28-3.05.88-1.05,1.74-2.11,2.6-3.17.53-.65,1.08-1.28,1.67-1.87.1.13.21.26.31.38,3.8,4.72,7.58,9.49,11.27,14.3,1.68,2.18,2.96,4.62,4.55,6.87.74,1.05,1.58,2.04,2.58,2.84ZM122.02,87.46c.71.21,1.21.95,1.73,1.44.96.92,2.01,1.75,2.91,2.74.76.83,1.42,1.76,1.97,2.76,1.12,2.05,1.78,4.34,2.06,6.69.3,2.53.14,5.12-.27,7.66-.21,1.27-.48,2.53-.8,3.77-.33,1.29-.63,2.77-1.55,3.8-.86.97-2,1.17-3.09.61-1.06-.54-1.97-1.38-2.74-2.28-1.62-1.9-2.74-4.17-4.14-6.24-1.58-2.33-3.41-4.48-5.14-6.68-1.78-2.25-3.55-4.5-5.33-6.76-.84-1.07-1.67-2.15-2.53-3.2.19-.16.38-.32.58-.48.96-.74,2.03-1.34,3.13-1.82,1.69-.75,3.47-1.2,5.27-1.5.47.09.95.18,1.43.22,1.25.12,2.52-.04,3.77-.29.83-.16,1.66-.33,2.49-.53.09.01.17.03.26.06ZM123.49,86.05c-.62.16-1.24.31-1.86.46-.58-.04-1.18.03-1.75.06-1.91.1-3.84.22-5.75.52-.36-.07-.73-.14-1.1-.2-1.18-.19-2.36-.06-3.54-.13-2.53-.15-4.35-2.01-5.92-3.8-1.3-1.49-2.67-3.1-3.25-5.06-.31-1.05-.29-2.08-.07-3.09.76-.09,1.53-.14,2.3-.11,2.2.07,4.36.48,6.53.8,2.24.33,4.46.47,6.74.24,2.63-.27,5.25-.66,7.87-1,2.33-.3,4.7-.7,7.03-.46.57.06,1.12.16,1.67.32.51.15,1.22.28,1.36.86.22.95.06,2.04-.23,2.98-.62,1.97-2,3.67-3.65,4.87-1.9,1.39-4.16,2.16-6.38,2.74ZM151.17,81.63c-.04.09-.08.19-.12.29-.46,1.15-.8,2.38-1.08,3.58-.27,1.18-.45,2.37-.43,3.57.04,2.35.71,4.58,1.4,6.77.26.84.53,1.69.85,2.52-5.64-4.09-11.45-7.88-17.64-11.1-.03-.01-.05-.03-.08-.04,2.11-1.87,4.32-3.56,6.79-4.92,2.45-1.35,5.13-2.52,7.85-3.1.82.81,1.64,1.63,2.47,2.43ZM163.49,105.92c.42,1.78-1.41,3.37-2.68,4.35-1.5,1.17-3.24,2.01-5.02,2.59-1.78.58-3.63.92-5.47,1.09-2.01.18-4.09.22-6.01-.34-2.14-.62-3.85-2.12-5.47-3.58-1.56-1.41-3.16-2.92-4.37-4.66-.61-.87-1.01-1.82-1.15-2.9-.15-1.12-.14-2.28-.18-3.42-.02-.54-.04-1.07-.06-1.61-.01-.28-.02-.57-.03-.85,0-.16-.11-.72.03-.86.17-.17.93.53,1.14.64.62.35,1.29.21,1.55-.55.33-.96-.16-1.9-.76-2.58-.35-.4-.77-.75-1.05-1.21-.25-.4-.4-.87-.5-1.34-.19-.9-.22-1.87.01-2.79,4.74,2.45,9.32,5.21,13.71,8.24,1.72,1.19,3.4,2.42,5.08,3.66.07.05.14.07.21.08.37.72.82,1.38,1.37,1.97.83.88,1.87,1.48,2.97,1.96,1.12.48,2.27.92,3.43,1.29,1.05.33,2.13.56,3.24.61-.01.06-.01.13,0,.2ZM175.72,100.32c-.92.74-1.89,1.41-2.86,2.07-.9.6-1.82,1.19-2.81,1.59-1.11.45-2.29.61-3.46.71-1.11.09-2.23.2-3.34.12-1.15-.08-2.26-.39-3.34-.77-1.05-.37-2.12-.75-3.13-1.22-1.09-.51-2.04-1.2-2.77-2.17-.63-.83-1.07-1.8-1.44-2.77-.77-2.01-1.44-4.13-1.85-6.26-.45-2.27-.31-4.47.31-6.74.15-.54.31-1.08.49-1.62.11-.33.21-.68.34-1.01.65.61,1.31,1.21,1.99,1.8,1.93,1.65,4,3.08,6.25,4.25,2.25,1.17,4.62,2.11,7.01,2.95,2.46.86,4.96,1.65,7.44,2.45,1.27.41,2.54.82,3.82,1.24.36.12.73.26,1.12.28-.5,2.12-2.09,3.77-3.75,5.1ZM166.9,74.64c2.25-.17,4.24.6,6.07,1.82,1.82,1.22,3.52,2.66,4.94,4.34,2.54,3.01,4.17,7.18,3.01,11.28-.12.43-.27.85-.45,1.26-.11.25-.22.51-.38.72-.24.32-.54.3-.88.21-1.17-.33-2.32-.75-3.48-1.12-2.32-.75-4.65-1.49-6.96-2.27-4.51-1.52-8.95-3.3-12.75-6.19-1.32-1.01-2.56-2.1-3.76-3.24.63-.84,1.86-1.14,2.75-1.59,3.85-1.92,7.52-4.9,11.9-5.22ZM153.34,79.67c-.46.2-.92.41-1.31.74-.15.13-.28.28-.4.43-.63-.6-1.25-1.22-1.86-1.83,1.25-.16,2.58-.09,3.58.66ZM135.36,74.73c2.53.07,5.09-.24,7.58-.9,1.77,1.45,3.41,3.04,5.04,4.65-.73.19-1.44.42-2.1.65-3,1.04-5.85,2.49-8.48,4.31-1.46,1.02-2.82,2.16-4.14,3.36-1.36-.69-2.74-1.36-4.13-2.01,1.2-.69,2.3-1.54,3.22-2.61,1.39-1.61,2.39-3.69,2.36-5.83,0-.2,0-.42-.03-.63.3-.3.5-.64.62-1,.02,0,.04,0,.06,0ZM116.6,61.38c.53-.07,1.07-.13,1.61-.11.68.02,1.16.32,1.67.72.93.74,1.89,1.41,3.03,1.79,1.15.39,2.38.41,3.56.68,1.19.28,2.26.85,3.19,1.62.95.78,1.76,1.75,2.49,2.74.71.96,1.47,1.96,2.01,3.03.39.77.68,1.98.23,2.83-.26-.42-.73-.61-1.19-.77-1.12-.4-2.33-.57-3.53-.59-2.55-.06-5.13.42-7.67.75-2.78.36-5.61.9-8.4.92-2.4.02-4.75-.43-7.1-.78-1.98-.29-3.98-.51-5.99-.34.28-.8.66-1.58,1.09-2.34.25-.43.51-.85.79-1.27,1.1-.75,2.13-1.61,3.1-2.51,1.35-1.25,2.68-2.57,3.91-3.95.42-.24.85-.47,1.29-.67,1.87-.9,3.87-1.5,5.91-1.75ZM110.99,54.33c.12,1.78.55,3.63.02,5.41-.39,1.28-1.2,2.37-2.1,3.36-2.17,1.25-4.14,2.88-5.78,4.8-.47.55-.93,1.14-1.36,1.75-2.55,1.69-5.62,2.8-8.57,2.16-1.92-.42-3.55-1.53-5.04-2.74-1.36-1.1-2.7-2.25-3.96-3.48-1.15-1.13-2.25-2.36-3.06-3.78-.57-.99-.95-2.03-1.17-3.13.34-.07.68-.13,1.01-.19.79-.15,1.59-.29,2.39-.42,3.18-.55,6.37-1.08,9.51-1.87,3.09-.78,6.06-1.88,8.97-3.24,3.06-1.43,6.09-3.01,9.33-3.94-.25,1.77-.32,3.54-.19,5.31ZM79.5,54.1c-.2-.93-.48-1.84-.63-2.78-.27-1.76.1-3.54.69-5.23.63-1.8,1.47-3.57,2.37-5.26.49-.92,1.06-1.83,1.82-2.56.7-.68,1.52-1.21,2.38-1.64,1.74-.87,3.66-1.46,5.54-1.87,1.85-.4,3.71-.49,5.57-.32,1.83.17,3.62.57,5.38,1.06,1.8.5,3.62,1.04,5.36,1.71.93.36,1.83.84,2.42,1.66.46.63.69,1.41.79,2.19.23,1.66-.1,3.34.01,5.01.04.68.09,1.34.08,2.02-2.95.81-5.73,2.15-8.5,3.47-2.98,1.42-5.97,2.68-9.14,3.54-3.19.86-6.43,1.42-9.66,1.98-1.37.24-2.78.42-4.14.74-.03-.27-.05-.55-.07-.83-.04-.97-.07-1.93-.27-2.87ZM76.01,63.07c.41-.74.78-1.49,1.12-2.26.36-.8.78-1.41,1.6-1.77.12-.05.25-.1.38-.14.06.31.12.63.22.94.49,1.64,1.37,3.1,2.43,4.41,1.1,1.36,2.39,2.55,3.7,3.69,1.5,1.31,3.02,2.67,4.76,3.65,1.62.91,3.42,1.38,5.31,1.25,1.74-.12,3.44-.66,5.01-1.47.07-.04.14-.07.21-.11-.46.82-.85,1.67-1.15,2.55-.02.06-.04.11-.06.17-.01,0-.02,0-.03,0-2.6.4-5.14,1.44-7.59,2.42-1.13.45-2.26.92-3.41,1.34-1.28-.32-2.55-.63-3.83-.95-1.51-.38-3.05-.76-4.41-1.52-1.34-.74-2.46-1.8-3.71-2.68-1.18-.83-2.47-1.39-3.89-1.7-.88-.19-1.78-.31-2.67-.41,2.4-2.1,4.45-4.62,6.01-7.43ZM51.83,6.67c1-.27,1.97-.48,3-.47,1.95.02,3.83.66,5.46,1.66,3.75,2.29,5.91,6.25,7.23,10.42.71,2.23,1.21,4.54,1.71,6.84.29,1.35.58,2.7.87,4.05.25,1.17.49,2.36-.24,3.45-.66.99-1.6,1.84-2.45,2.66-.82.79-1.68,1.54-2.58,2.24-1.82,1.41-3.84,2.6-6,3.32-2.48.83-5.05.98-7.6.79-1.29-.1-2.58-.27-3.86-.47-.64-.1-1.28-.19-1.92-.32-.48-.1-1.15-.25-1.35-.75,1.2-2.35,2.53-4.64,3.86-6.92,1.91-3.3,3.97-6.66,5.23-10.28.57-1.63.94-3.34.91-5.05-.03-1.62-.41-3.19-.99-4.67-.6-1.53-1.39-2.96-2.21-4.36-.37-.62-.72-1.27-1.15-1.86.68.07,1.4-.09,2.08-.28ZM35.84,38.42c-2.44-1.76-3.89-4.62-4.7-7.52-.42-1.49-.83-3.13-.84-4.7,0-1.78.95-3.45,1.75-5.01,1.7-3.33,3.73-6.5,6.02-9.45,1.91-2.45,4.33-5.79,7.66-5.92.7-.03,1.41.09,2.02.43.73.41,1.23,1.09,1.66,1.79.79,1.29,1.56,2.61,2.22,3.98.66,1.35,1.2,2.77,1.45,4.27.26,1.57.15,3.19-.24,4.75-.82,3.3-2.59,6.37-4.26,9.32-1.77,3.12-3.65,6.19-5.27,9.4-2.57.91-5.38.17-7.48-1.34ZM20.73,76.55s-.08.02-.13.04c-1.99.96-4.24.12-6.1-.59-2.32-.88-4.56-2-6.51-3.54-1.91-1.51-3.37-3.42-4.41-5.65-.51-1.11-.94-2.26-1.33-3.43-.38-1.14-.78-2.28-1.07-3.45-.28-1.11-.42-2.26-.21-3.41.24-1.25.83-2.42,1.49-3.51,1.38-2.25,3.23-4.15,5.25-5.82,1.04-.86,2.13-1.66,3.24-2.42.51-.35,1.03-.74,1.57-1.02.05-.02.09-.05.14-.07,0,.13.01.26.02.39.35,5.17,2.24,9.95,3.7,14.81.75,2.51,1.35,5.06,1.66,7.69.3,2.48.48,4.99,1.25,7.35.26.82.75,1.88,1.44,2.62ZM14.26,43.5c2.49.1,5,.21,7.4.84,1.27.33,2.52.8,3.55,1.64.93.75,1.66,1.75,2.3,2.76,1.15,1.81,2,3.83,2.53,5.93,1.1,4.39.77,9.09-.98,13.38-.93,2.3-2.26,4.47-3.9,6.34-.38.43-.77.85-1.18,1.24-.4.39-.84.84-1.41.87-.93.04-1.63-.97-1.99-1.71-1-2.04-1.23-4.52-1.48-6.78-.27-2.4-.61-4.75-1.21-7.07-1.22-4.66-3.08-9.11-3.93-13.88-.21-1.18-.36-2.37-.42-3.57.24-.02.48,0,.73,0ZM66.12,80.93c2.42-.16,4.65.81,6.71,1.9,1.2.63,2.37,1.3,3.61,1.86,1.21.55,2.48.99,3.65,1.65,1.13.64,2.08,1.49,2.71,2.65.58,1.07.94,2.25,1.28,3.43.72,2.47,1.33,4.91.84,7.54-.24,1.31-.68,2.59-1.11,3.84-.46,1.33-.96,2.65-1.51,3.95-.53,1.27-1.08,2.55-1.72,3.78-.52,1.01-1.2,2.11-2.28,2.57-1.04.44-2.16.09-3.06-.42-.94-.53-2.03-1.23-2.49-2.26-.24-.54-.32-1.14-.41-1.72-.1-.64-.22-1.27-.37-1.89-.3-1.3-.67-2.57-1.04-3.85-1.56-5.5-3.13-11.01-4.69-16.51-.59-2.07-1.18-4.13-1.79-6.18.54-.19,1.11-.3,1.68-.33ZM51.94,102.99c-.58-1.07-1.12-2.19-1.36-3.41-.24-1.23-.13-2.52.19-3.75.61-2.36,1.73-4.74,3.1-6.77.71-1.05,1.54-2.02,2.53-2.81,1.03-.83,2.22-1.31,3.37-1.92,1.18-.62,2.1-1.54,3.18-2.3.23-.16.46-.3.7-.42.34,1.15.67,2.3.99,3.45,1.65,5.81,3.3,11.62,4.95,17.42.41,1.43.83,2.86,1.21,4.31.34,1.29.54,2.59.8,3.89.25,1.21.82,2.05,1.72,2.79-.21.06-.4.16-.59.29-.51.35-.79.92-1.29,1.29-.81.6-1.87.65-2.81.54-1.09-.12-2.14-.48-3.15-.86-1.14-.42-2.25-.93-3.31-1.51-4.28-2.34-7.88-5.9-10.24-10.22Z"/>
  </g>
</svg>